<svg width="45" height="52" viewBox="0 0 45 52" fill="none" xmlns="http://www.w3.org/2000/svg">
<path d="M36.2458 0.974397C36.5091 0.533903 37.1472 0.533902 37.4104 0.974397L39.7008 4.80706C39.7583 4.90334 39.8388 4.98385 39.9351 5.04138L43.7678 7.33177C44.2083 7.595 44.2083 8.23312 43.7678 8.49636L39.9351 10.7867C39.8388 10.8443 39.7583 10.9248 39.7008 11.0211L37.4104 14.8537C37.1472 15.2942 36.5091 15.2942 36.2458 14.8537L33.9554 11.0211C33.8979 10.9248 33.8174 10.8443 33.7211 10.7867L29.8885 8.49636C29.448 8.23312 29.448 7.595 29.8885 7.33177L33.7211 5.04138C33.8174 4.98385 33.8979 4.90334 33.9554 4.80706L36.2458 0.974397Z" fill="#030A00"/>
<g filter="url(#filter0_di_1112_10158)">
<path d="M36.5481 4.40708C36.6042 4.09251 37.0554 4.09251 37.1115 4.40708C37.1591 4.67447 37.5176 4.73124 37.6455 4.49167C37.796 4.20982 38.2252 4.34926 38.1813 4.66575C38.144 4.93477 38.4674 5.09955 38.6631 4.91124C38.8933 4.68969 39.2584 4.95493 39.1189 5.24237C39.0002 5.48669 39.2569 5.74334 39.5012 5.62471C39.7886 5.48516 40.0539 5.85024 39.8323 6.08048C39.644 6.27619 39.8088 6.59958 40.0778 6.56226C40.3943 6.51836 40.5338 6.94753 40.2519 7.09804C40.0123 7.22598 40.0691 7.58446 40.3365 7.63211C40.6511 7.68815 40.6511 8.13941 40.3365 8.19546C40.0691 8.2431 40.0123 8.60159 40.2519 8.72952C40.5338 8.88003 40.3943 9.30921 40.0778 9.26531C39.8088 9.22799 39.644 9.55138 39.8323 9.74709C40.0539 9.97733 39.7886 10.3424 39.5012 10.2029C39.2569 10.0842 39.0002 10.3409 39.1189 10.5852C39.2584 10.8726 38.8933 11.1379 38.6631 10.9163C38.4674 10.728 38.144 10.8928 38.1813 11.1618C38.2252 11.4783 37.796 11.6178 37.6455 11.3359C37.5176 11.0963 37.1591 11.1531 37.1115 11.4205C37.0554 11.7351 36.6042 11.7351 36.5481 11.4205C36.5005 11.1531 36.142 11.0963 36.0141 11.3359C35.8635 11.6178 35.4344 11.4783 35.4783 11.1618C35.5156 10.8928 35.1922 10.728 34.9965 10.9163C34.7662 11.1379 34.4012 10.8726 34.5407 10.5852C34.6593 10.3409 34.4027 10.0842 34.1584 10.2029C33.8709 10.3424 33.6057 9.97733 33.8272 9.74709C34.0156 9.55138 33.8508 9.22799 33.5818 9.26531C33.2653 9.30921 33.1258 8.88003 33.4077 8.72952C33.6473 8.60159 33.5905 8.2431 33.3231 8.19546C33.0085 8.13941 33.0085 7.68815 33.3231 7.63211C33.5905 7.58446 33.6473 7.22598 33.4077 7.09804C33.1258 6.94753 33.2653 6.51836 33.5818 6.56226C33.8508 6.59958 34.0156 6.27619 33.8272 6.08048C33.6057 5.85024 33.8709 5.48516 34.1584 5.62471C34.4027 5.74334 34.6593 5.48669 34.5407 5.24237C34.4012 4.95493 34.7662 4.68969 34.9965 4.91124C35.1922 5.09955 35.5156 4.93477 35.4783 4.66575C35.4344 4.34926 35.8635 4.20982 36.0141 4.49167C36.142 4.73124 36.5005 4.67447 36.5481 4.40708Z" fill="#FAFAFA"/>
<path d="M39.658 5.9127L39.798 6.04744L39.658 5.9127C39.3104 6.27392 39.6145 6.87082 40.1111 6.80194C40.1312 6.79914 40.1386 6.80397 40.1415 6.80594C40.147 6.80971 40.1546 6.81819 40.1591 6.83202C40.1636 6.84585 40.1624 6.85721 40.1602 6.8635C40.159 6.86679 40.1559 6.875 40.1379 6.8846C39.6957 7.12073 39.8005 7.7824 40.294 7.87033C40.3141 7.8739 40.3196 7.88076 40.3217 7.88353C40.3258 7.88882 40.3304 7.89924 40.3304 7.91378C40.3304 7.92832 40.3258 7.93875 40.3217 7.94404C40.3196 7.94681 40.3141 7.95367 40.294 7.95724C39.8005 8.04517 39.6957 8.70683 40.1379 8.94297C40.1559 8.95257 40.159 8.96078 40.1602 8.96407C40.1624 8.97036 40.1636 8.98172 40.1591 8.99555C40.1546 9.00937 40.147 9.01785 40.1415 9.02163C40.1386 9.0236 40.1312 9.02843 40.1111 9.02563C39.6145 8.95675 39.3104 9.55365 39.658 9.91487C39.6721 9.92955 39.6725 9.93832 39.6726 9.94181C39.6728 9.94848 39.6704 9.95965 39.6619 9.97142C39.6533 9.98318 39.6434 9.98888 39.637 9.99077C39.6337 9.99175 39.6252 9.99408 39.6069 9.98518C39.1559 9.76623 38.6822 10.2399 38.9012 10.6909C38.9101 10.7092 38.9078 10.7177 38.9068 10.721C38.9049 10.7274 38.8992 10.7373 38.8874 10.7459C38.8757 10.7544 38.8645 10.7568 38.8578 10.7566C38.8543 10.7565 38.8456 10.7561 38.8309 10.742C38.4697 10.3944 37.8728 10.6985 37.9416 11.1951C37.9444 11.2152 37.9396 11.2226 37.9376 11.2255C37.9339 11.231 37.9254 11.2386 37.9116 11.2431C37.8977 11.2476 37.8864 11.2464 37.8801 11.2442C37.8768 11.243 37.8686 11.2399 37.859 11.2219C37.6228 10.7797 36.9612 10.8845 36.8732 11.378C36.8697 11.3981 36.8628 11.4036 36.86 11.4057C36.8548 11.4098 36.8443 11.4144 36.8298 11.4144C36.8153 11.4144 36.8048 11.4098 36.7995 11.4057C36.7968 11.4036 36.7899 11.3981 36.7863 11.378C36.6984 10.8845 36.0367 10.7797 35.8006 11.2219C35.791 11.2399 35.7828 11.243 35.7795 11.2442C35.7732 11.2464 35.7619 11.2476 35.748 11.2431C35.7342 11.2386 35.7257 11.231 35.722 11.2255C35.72 11.2226 35.7152 11.2152 35.718 11.1951C35.7868 10.6985 35.1899 10.3944 34.8287 10.742C34.814 10.7561 34.8053 10.7565 34.8018 10.7566C34.7951 10.7568 34.7839 10.7544 34.7722 10.7459C34.7604 10.7373 34.7547 10.7274 34.7528 10.721C34.7518 10.7177 34.7495 10.7092 34.7584 10.6909C34.9773 10.2399 34.5036 9.76623 34.0527 9.98518C34.0344 9.99408 34.0259 9.99175 34.0226 9.99077C34.0161 9.98888 34.0063 9.98318 33.9977 9.97142C33.9892 9.95965 33.9868 9.94848 33.987 9.94181C33.9871 9.93832 33.9875 9.92955 34.0016 9.91487C34.3492 9.55364 34.0451 8.95675 33.5485 9.02563C33.5283 9.02843 33.521 9.0236 33.5181 9.02163C33.5126 9.01785 33.505 9.00937 33.5005 8.99555C33.496 8.98172 33.4972 8.97036 33.4994 8.96407C33.5006 8.96078 33.5037 8.95257 33.5217 8.94297C33.9639 8.70683 33.8591 8.04517 33.3655 7.95724C33.3455 7.95367 33.34 7.94681 33.3379 7.94404C33.3338 7.93875 33.3291 7.92832 33.3291 7.91378C33.3291 7.89924 33.3338 7.88882 33.3379 7.88353C33.34 7.88076 33.3455 7.8739 33.3655 7.87033C33.8591 7.78239 33.9639 7.12073 33.5217 6.8846C33.5037 6.875 33.5006 6.86679 33.4994 6.86349C33.4972 6.85721 33.496 6.84585 33.5005 6.83202C33.505 6.81819 33.5126 6.80971 33.5181 6.80594C33.521 6.80397 33.5283 6.79914 33.5485 6.80194C34.0451 6.87082 34.3492 6.27392 34.0016 5.9127C33.9875 5.89802 33.9871 5.88925 33.987 5.88576C33.9868 5.87908 33.9892 5.86791 33.9977 5.85615C34.0063 5.84439 34.0161 5.83869 34.0226 5.8368C34.0259 5.83581 34.0344 5.83349 34.0527 5.84239C34.5036 6.06133 34.9773 5.58763 34.7584 5.13668C34.7495 5.11835 34.7518 5.10989 34.7528 5.10654C34.7547 5.10013 34.7604 5.09024 34.7722 5.08169C34.7839 5.07315 34.7951 5.07078 34.8018 5.07097C34.8053 5.07107 34.814 5.07147 34.8287 5.0856C35.1899 5.43318 35.7868 5.12904 35.718 4.63251C35.7152 4.61233 35.72 4.60499 35.722 4.60211C35.7257 4.5966 35.7342 4.58896 35.748 4.58446C35.7619 4.57997 35.7732 4.58117 35.7795 4.58341C35.7828 4.58458 35.791 4.58768 35.8006 4.60565C36.0367 5.04784 36.6984 4.94304 36.7863 4.44953L36.5481 4.40708L36.7863 4.44953C36.7899 4.42947 36.7968 4.42399 36.7995 4.42186C36.8048 4.41778 36.8153 4.41313 36.8298 4.41313C36.8443 4.41313 36.8548 4.41778 36.86 4.42186C36.8628 4.42399 36.8697 4.42947 36.8732 4.44953C36.9612 4.94304 37.6228 5.04784 37.859 4.60565C37.8686 4.58768 37.8768 4.58458 37.8801 4.58341C37.8864 4.58117 37.8977 4.57997 37.9116 4.58446C37.9254 4.58896 37.9339 4.5966 37.9376 4.60211C37.9396 4.60499 37.9444 4.61233 37.9416 4.63251C37.8728 5.12904 38.4696 5.43318 38.8309 5.0856C38.8456 5.07147 38.8543 5.07107 38.8578 5.07097C38.8645 5.07078 38.8757 5.07315 38.8874 5.08169C38.8992 5.09024 38.9049 5.10013 38.9068 5.10654C38.9078 5.10989 38.9101 5.11835 38.9012 5.13668C38.6822 5.58763 39.1559 6.06133 39.6069 5.84239C39.6252 5.83349 39.6337 5.83581 39.637 5.8368C39.6434 5.83869 39.6533 5.84439 39.6619 5.85615C39.6704 5.86791 39.6728 5.87908 39.6726 5.88576C39.6725 5.88925 39.6721 5.89802 39.658 5.9127Z" stroke="white" stroke-width="0.483948"/>
</g>
<path d="M8.24583 36.9744C8.50907 36.5339 9.14718 36.5339 9.41042 36.9744L11.7008 40.8071C11.7583 40.9033 11.8388 40.9838 11.9351 41.0414L15.7678 43.3318C16.2083 43.595 16.2083 44.2331 15.7678 44.4964L11.9351 46.7867C11.8388 46.8443 11.7583 46.9248 11.7008 47.0211L9.41042 50.8537C9.14718 51.2942 8.50907 51.2942 8.24583 50.8537L5.95544 47.0211C5.89791 46.9248 5.8174 46.8443 5.72113 46.7867L1.88846 44.4964C1.44797 44.2331 1.44796 43.595 1.88846 43.3318L5.72113 41.0414C5.8174 40.9838 5.89791 40.9033 5.95544 40.8071L8.24583 36.9744Z" fill="#030A00"/>
<path d="M28.4772 35.7507C28.6351 35.4864 29.018 35.4864 29.1759 35.7507L30.5502 38.0503C30.5847 38.108 30.633 38.1563 30.6908 38.1908L32.9904 39.5651C33.2547 39.723 33.2547 40.1059 32.9904 40.2638L30.6908 41.6381C30.633 41.6726 30.5847 41.7209 30.5502 41.7787L29.1759 44.0783C29.018 44.3425 28.6351 44.3425 28.4772 44.0783L27.103 41.7787C27.0684 41.7209 27.0201 41.6726 26.9624 41.6381L24.6628 40.2638C24.3985 40.1059 24.3985 39.723 24.6628 39.5651L26.9624 38.1908C27.0201 38.1563 27.0684 38.108 27.103 38.0503L28.4772 35.7507Z" fill="#030A00"/>
<path d="M37.3131 22.5846C37.4711 22.3203 37.8539 22.3203 38.0119 22.5846L39.3861 24.8842C39.4206 24.942 39.4689 24.9903 39.5267 25.0248L41.8263 26.3991C42.0906 26.557 42.0906 26.9399 41.8263 27.0978L39.5267 28.472C39.4689 28.5066 39.4206 28.5549 39.3861 28.6126L38.0119 30.9122C37.8539 31.1765 37.4711 31.1765 37.3131 30.9122L35.9389 28.6126C35.9044 28.5549 35.8561 28.5066 35.7983 28.472L33.4987 27.0978C33.2344 26.9399 33.2344 26.557 33.4987 26.3991L35.7983 25.0248C35.8561 24.9903 35.9044 24.942 35.9389 24.8842L37.3131 22.5846Z" fill="#030A00"/>
<defs>
<filter id="filter0_di_1112_10158" x="31.9798" y="3.70102" width="9.70062" height="10.1678" filterUnits="userSpaceOnUse" color-interpolation-filters="sRGB">
<feFlood flood-opacity="0" result="BackgroundImageFix"/>
<feColorMatrix in="SourceAlpha" type="matrix" values="0 0 0 0 0 0 0 0 0 0 0 0 0 0 0 0 0 0 127 0" result="hardAlpha"/>
<feOffset dy="1.10617"/>
<feGaussianBlur stdDeviation="0.553084"/>
<feComposite in2="hardAlpha" operator="out"/>
<feColorMatrix type="matrix" values="0 0 0 0 0 0 0 0 0 0 0 0 0 0 0 0 0 0 0.13 0"/>
<feBlend mode="normal" in2="BackgroundImageFix" result="effect1_dropShadow_1112_10158"/>
<feBlend mode="normal" in="SourceGraphic" in2="effect1_dropShadow_1112_10158" result="shape"/>
<feColorMatrix in="SourceAlpha" type="matrix" values="0 0 0 0 0 0 0 0 0 0 0 0 0 0 0 0 0 0 127 0" result="hardAlpha"/>
<feOffset dx="-1.03703" dy="-0.553084"/>
<feGaussianBlur stdDeviation="0.235061"/>
<feComposite in2="hardAlpha" operator="arithmetic" k2="-1" k3="1"/>
<feColorMatrix type="matrix" values="0 0 0 0 0 0 0 0 0 0 0 0 0 0 0 0 0 0 0.25 0"/>
<feBlend mode="normal" in2="shape" result="effect2_innerShadow_1112_10158"/>
</filter>
</defs>
</svg>
