<svg width="210" height="204" viewBox="0 0 210 204" fill="none" xmlns="http://www.w3.org/2000/svg">
<g clip-path="url(#clip0_2161_23606)">
<rect x="1.77295" y="2.27344" width="206.292" height="199.912" rx="8.0686" fill="#E8E4FB"/>
<g clip-path="url(#clip1_2161_23606)">
<path d="M87.2278 125.532C96.0364 125.532 103.177 117.963 103.177 108.627C103.177 99.2911 96.0364 91.7227 87.2278 91.7227C78.4191 91.7227 71.2783 99.2911 71.2783 108.627C71.2783 117.963 78.4191 125.532 87.2278 125.532Z" fill="white" stroke="black" stroke-width="1.91012" stroke-miterlimit="10"/>
<path d="M83.7233 134.424C82.5715 135.499 81.1294 135.826 80.4437 135.14C79.735 134.431 80.1075 132.911 81.2746 131.744C82.4416 130.577 83.9621 130.204 84.6707 130.913C85.3794 131.622 85.0088 133.142 83.8417 134.309C83.8035 134.347 83.7634 134.385 83.7233 134.424Z" fill="#FF0000" stroke="black" stroke-width="1.91012" stroke-miterlimit="10"/>
<path d="M88.4759 139.056C91.6562 141.033 94.8365 143.011 98.0169 144.988C96.3837 149.17 93.276 152.144 89.8072 152.465C89.0833 152.531 86.6975 152.751 84.8409 151.127C83.1963 149.687 82.9728 147.678 82.9308 147.307C82.5908 144.251 84.8027 140.983 88.4701 139.052C88.472 139.054 88.4739 139.054 88.4759 139.056Z" fill="#FF0000" stroke="black" stroke-width="1.91012" stroke-miterlimit="10"/>
<path d="M87.2278 125.532C96.0364 125.532 103.177 117.963 103.177 108.627C103.177 99.2911 96.0364 91.7227 87.2278 91.7227C78.4191 91.7227 71.2783 99.2911 71.2783 108.627C71.2783 117.963 78.4191 125.532 87.2278 125.532Z" fill="white" stroke="black" stroke-width="1.91012" stroke-miterlimit="10"/>
<path d="M140.19 133.271C141.357 134.438 141.728 135.959 141.019 136.667C140.348 137.338 138.95 137.04 137.814 136.016C137.749 135.959 137.686 135.899 137.623 135.836C136.456 134.669 136.083 133.149 136.792 132.44C137.5 131.732 139.021 132.104 140.19 133.271Z" fill="#FF0000" stroke="black" stroke-width="1.91012" stroke-miterlimit="10"/>
<path d="M134.026 125.532C143.151 125.532 150.548 117.707 150.548 108.054C150.548 98.4016 143.151 90.5767 134.026 90.5767C124.901 90.5767 117.503 98.4016 117.503 108.054C117.503 117.707 124.901 125.532 134.026 125.532Z" fill="#FF0000" stroke="black" stroke-width="1.91012" stroke-miterlimit="10"/>
<path d="M138.896 187.386V205.565H71.2783L72.2697 180.143C72.3709 177.53 73.1884 174.997 74.6306 172.816L79.0372 166.159C81.1899 166.992 82.9911 167.563 84.2671 167.936C106.614 174.47 125.107 166.354 131.256 163.542C140.342 174.938 139.743 182.466 139.17 184.957C138.986 185.753 138.896 186.569 138.896 187.386Z" fill="#8C77EC" stroke="black" stroke-width="1.91012" stroke-miterlimit="10"/>
<path d="M113.302 23.1493C115.697 21.0711 119.078 21.7397 119.414 21.8123C122.478 22.4674 124.216 24.8933 125.526 26.7786C128.947 31.7009 127.412 33.9014 130.493 39.3853C131.767 41.6545 133.738 45.1462 137.56 46.8347C143.245 49.3465 149.269 46.2006 150.549 45.4977C165.513 37.5688 169.312 35.4581 169.268 35.3741C169.199 35.2423 159.694 40.115 147.493 41.8684C144.702 42.2696 142.33 42.4281 139.852 41.2954C134.368 38.7893 132.79 31.9798 132.403 30.0257C132.233 28.1156 131.688 24.9945 129.729 21.8123C129.251 21.0368 124.075 12.8959 116.167 13.2168C109.552 13.4842 103.245 19.5832 102.032 28.1156C101.501 31.7869 100.007 38.5869 95.1555 45.4977C88.9553 54.3281 80.8774 58.1999 77.3915 59.6325C68.8246 64.935 56.2713 74.6326 47.9757 90.5916C45.3837 95.5789 41.976 102.302 41.2903 111.779C40.278 125.782 45.8975 136.283 47.9757 140.048C56.4853 155.465 70.5112 162.863 79.038 166.159C81.1907 166.992 82.9919 167.563 84.2679 167.936C106.614 174.47 125.108 166.354 131.257 163.543C137.717 160.588 148.816 155.512 156.852 143.104C166.065 128.88 165.318 114.176 164.829 109.104C163.041 92.8169 156.82 83.2377 152.841 78.3516C145.625 69.4906 134.798 62.5702 132.594 61.1606C122.403 54.6471 118.289 54.6567 114.448 48.5538C110.295 41.9563 110.696 34.9366 111.009 29.4527C111.153 26.9295 111.556 24.666 113.302 23.1493ZM71.2791 108.627C71.2791 99.2902 78.4191 91.7224 87.2285 91.7224C96.038 91.7224 103.178 99.2902 103.178 108.627C103.178 117.964 96.038 125.531 87.2285 125.531C78.4191 125.531 71.2791 117.964 71.2791 108.627ZM88.4701 139.051C88.472 139.053 88.4739 139.053 88.4759 139.055C91.6562 141.032 94.8365 143.011 98.0169 144.988C96.3837 149.169 93.276 152.143 89.8072 152.464C89.0833 152.531 86.6975 152.75 84.8409 151.127C83.1963 149.687 82.9728 147.677 82.9308 147.307C82.5908 144.25 84.8027 140.982 88.4701 139.051ZM80.4438 135.139C79.7352 134.431 80.1076 132.91 81.2747 131.743C82.4418 130.576 83.9622 130.203 84.6709 130.912C85.3796 131.621 85.009 133.141 83.8419 134.308C83.8037 134.347 83.7636 134.385 83.7235 134.423C82.5717 135.498 81.1296 135.825 80.4438 135.139ZM141.019 136.667C140.349 137.338 138.951 137.04 137.814 136.016C137.749 135.959 137.686 135.899 137.623 135.836C136.456 134.669 136.084 133.149 136.792 132.44C137.501 131.732 139.021 132.104 140.19 133.271C141.357 134.438 141.728 135.959 141.019 136.667ZM134.026 90.5763C143.151 90.5763 150.549 98.402 150.549 108.054C150.549 117.706 143.151 125.531 134.026 125.531C124.902 125.531 117.504 117.706 117.504 108.054C117.504 98.402 124.902 90.5763 134.026 90.5763Z" fill="#BAADF4" stroke="black" stroke-width="1.91012" stroke-miterlimit="10"/>
<path d="M134.026 125.532C143.151 125.532 150.548 117.707 150.548 108.054C150.548 98.4016 143.151 90.5767 134.026 90.5767C124.901 90.5767 117.503 98.4016 117.503 108.054C117.503 117.707 124.901 125.532 134.026 125.532Z" fill="white" stroke="black" stroke-width="1.91012" stroke-miterlimit="10"/>
<path d="M92.6722 116.936C96.3645 116.936 99.3576 113.943 99.3576 110.251C99.3576 106.559 96.3645 103.565 92.6722 103.565C88.98 103.565 85.9868 106.559 85.9868 110.251C85.9868 113.943 88.98 116.936 92.6722 116.936Z" fill="black"/>
<path d="M136.796 115.79C140.488 115.79 143.481 112.797 143.481 109.104C143.481 105.412 140.488 102.419 136.796 102.419C133.104 102.419 130.11 105.412 130.11 109.104C130.11 112.797 133.104 115.79 136.796 115.79Z" fill="black"/>
<path d="M80.6387 86.183C80.6387 86.183 85.2229 78.9246 96.3016 82.5538" stroke="black" stroke-width="1.91012" stroke-miterlimit="10" stroke-linecap="round"/>
<path d="M132.02 75.678C132.02 75.678 144.435 72.3697 143.48 83.861" stroke="black" stroke-width="1.91012" stroke-miterlimit="10" stroke-linecap="round"/>
<path d="M138.897 135.083C138.534 135.402 138.173 135.713 137.814 136.017C121.479 149.848 107.72 149.166 98.0171 144.988C94.1682 143.332 90.9573 141.126 88.4761 139.056" stroke="black" stroke-width="1.91012" stroke-miterlimit="10"/>
<path d="M88.4702 139.051C86.3175 137.254 84.7149 135.562 83.7235 134.423C82.95 133.533 82.5488 132.981 82.5488 132.981" stroke="black" stroke-width="1.91012" stroke-miterlimit="10"/>
<path d="M98.0169 144.988C96.3837 149.17 93.276 152.144 89.8072 152.465C89.0833 152.531 86.6975 152.751 84.8409 151.127C83.1963 149.687 82.9728 147.678 82.9308 147.307C82.5908 144.251 84.8027 140.983 88.4701 139.052C88.472 139.054 88.4739 139.054 88.4759 139.056C91.6562 141.033 94.8365 143.011 98.0169 144.988Z" fill="#FFC400" stroke="black" stroke-width="1.91012" stroke-miterlimit="10"/>
<path d="M83.8417 134.309C83.8035 134.347 83.7634 134.385 83.7233 134.424C82.5715 135.499 81.1294 135.826 80.4437 135.14C79.735 134.431 80.1075 132.911 81.2746 131.744C82.4416 130.577 83.9621 130.204 84.6707 130.913C85.3794 131.622 85.0088 133.142 83.8417 134.309Z" fill="black" stroke="black" stroke-width="1.91012" stroke-miterlimit="10"/>
<path d="M141.019 136.667C140.348 137.338 138.95 137.04 137.814 136.016C137.749 135.959 137.686 135.899 137.623 135.836C136.456 134.669 136.083 133.149 136.792 132.44C137.5 131.732 139.021 132.104 140.19 133.271C141.357 134.438 141.728 135.959 141.019 136.667Z" fill="black" stroke="black" stroke-width="1.91012" stroke-miterlimit="10"/>
<path d="M92.6719 184.554V205.565" stroke="black" stroke-width="1.91012" stroke-miterlimit="10" stroke-linecap="round"/>
<path d="M92.6715 141.664C92.6715 141.664 90.6659 143.276 88.4692 147.631L92.6715 141.664Z" fill="#FF0000"/>
<path d="M92.6715 141.664C92.6715 141.664 90.6659 143.276 88.4692 147.631" stroke="black" stroke-width="0.95506" stroke-miterlimit="10" stroke-linecap="round"/>
</g>
</g>
<rect x="1.77295" y="2.27344" width="206.292" height="199.912" rx="8.0686" stroke="#D1C9F7" stroke-width="3.21331"/>
<defs>
<clipPath id="clip0_2161_23606">
<rect x="1.77295" y="2.27344" width="206.292" height="199.912" rx="8.0686" fill="white"/>
</clipPath>
<clipPath id="clip1_2161_23606">
<rect width="206.292" height="206.292" fill="white" transform="translate(2.13037 -0.916992)"/>
</clipPath>
</defs>
</svg>
