<svg width="31" height="25" viewBox="0 0 31 25" fill="none" xmlns="http://www.w3.org/2000/svg">
<path d="M29.2958 0.595704H21.635C19.9911 0.595704 18.3839 1.0678 17.0011 1.95843L15.3672 3.00642L13.7333 1.95843C12.3518 1.06797 10.7429 0.594825 9.09933 0.595704H1.43862C0.845982 0.595704 0.367188 1.0745 0.367188 1.66713V20.685C0.367188 21.2776 0.845982 21.7564 1.43862 21.7564H9.09933C10.7433 21.7564 12.3504 22.2285 13.7333 23.1191L15.2199 24.0767C15.2634 24.1035 15.3136 24.1203 15.3638 24.1203C15.4141 24.1203 15.4643 24.1069 15.5078 24.0767L16.9944 23.1191C18.3806 22.2285 19.9911 21.7564 21.635 21.7564H29.2958C29.8884 21.7564 30.3672 21.2776 30.3672 20.685V1.66713C30.3672 1.0745 29.8884 0.595704 29.2958 0.595704ZM11.7511 13.7374C11.7511 13.8747 11.644 13.9886 11.5134 13.9886H5.29241C5.16183 13.9886 5.05469 13.8747 5.05469 13.7374V12.2307C5.05469 12.0935 5.16183 11.9796 5.29241 11.9796H11.51C11.6406 11.9796 11.7478 12.0935 11.7478 12.2307V13.7374H11.7511ZM11.7511 9.04994C11.7511 9.18722 11.644 9.30106 11.5134 9.30106H5.29241C5.16183 9.30106 5.05469 9.18722 5.05469 9.04994V7.54325C5.05469 7.40597 5.16183 7.29213 5.29241 7.29213H11.51C11.6406 7.29213 11.7478 7.40597 11.7478 7.54325V9.04994H11.7511ZM25.6797 13.7374C25.6797 13.8747 25.5725 13.9886 25.442 13.9886H19.221C19.0904 13.9886 18.9833 13.8747 18.9833 13.7374V12.2307C18.9833 12.0935 19.0904 11.9796 19.221 11.9796H25.4386C25.5692 11.9796 25.6763 12.0935 25.6763 12.2307V13.7374H25.6797ZM25.6797 9.04994C25.6797 9.18722 25.5725 9.30106 25.442 9.30106H19.221C19.0904 9.30106 18.9833 9.18722 18.9833 9.04994V7.54325C18.9833 7.40597 19.0904 7.29213 19.221 7.29213H25.4386C25.5692 7.29213 25.6763 7.40597 25.6763 7.54325V9.04994H25.6797Z" fill="#0C2503"/>
</svg>
