<svg width="40" height="40" viewBox="0 0 40 40" fill="none" xmlns="http://www.w3.org/2000/svg">
<path d="M18.3294 2.65084C18.9875 1.5496 20.5828 1.5496 21.2409 2.65084L26.9669 12.2325C27.1107 12.4732 27.312 12.6745 27.5527 12.8183L37.1343 18.5443C38.2356 19.2024 38.2356 20.7976 37.1343 21.4557L27.5527 27.1817C27.312 27.3255 27.1107 27.5268 26.9669 27.7675L21.2409 37.3492C20.5828 38.4504 18.9875 38.4504 18.3294 37.3492L12.6035 27.7675C12.4596 27.5268 12.2583 27.3255 12.0177 27.1817L2.43599 21.4557C1.33476 20.7976 1.33476 19.2024 2.43599 18.5443L12.0177 12.8183C12.2583 12.6745 12.4596 12.4732 12.6035 12.2325L18.3294 2.65084Z" fill="#030A00"/>
<g filter="url(#filter0_di_1115_11015)">
<path d="M19.0812 11.2335C19.2213 10.4471 20.3495 10.4471 20.4896 11.2335C20.6087 11.902 21.5049 12.0439 21.8248 11.445C22.201 10.7404 23.274 11.089 23.1642 11.8802C23.0709 12.5528 23.8794 12.9647 24.3687 12.4939C24.9443 11.94 25.857 12.6032 25.5081 13.3217C25.2115 13.9325 25.8531 14.5742 26.4639 14.2776C27.1825 13.9287 27.8456 14.8414 27.2918 15.417C26.821 15.9063 27.2329 16.7148 27.9055 16.6215C28.6967 16.5117 29.0453 17.5847 28.3407 17.9609C27.7418 18.2808 27.8837 19.177 28.5522 19.2961C29.3386 19.4362 29.3386 20.5644 28.5522 20.7045C27.8837 20.8236 27.7418 21.7198 28.3407 22.0396C29.0453 22.4159 28.6967 23.4888 27.9055 23.3791C27.2329 23.2858 26.821 24.0943 27.2918 24.5835C27.8456 25.1592 27.1825 26.0718 26.4639 25.723C25.8531 25.4264 25.2115 26.068 25.5081 26.6788C25.857 27.3974 24.9443 28.0605 24.3687 27.5067C23.8794 27.0359 23.0709 27.4478 23.1642 28.1204C23.274 28.9116 22.201 29.2602 21.8248 28.5556C21.5049 27.9566 20.6087 28.0986 20.4896 28.767C20.3495 29.5535 19.2213 29.5535 19.0812 28.767C18.9621 28.0986 18.0659 27.9566 17.7461 28.5556C17.3698 29.2602 16.2969 28.9116 16.4066 28.1204C16.4999 27.4478 15.6914 27.0359 15.2022 27.5067C14.6266 28.0605 13.7139 27.3974 14.0627 26.6788C14.3593 26.068 13.7177 25.4264 13.1069 25.723C12.3883 26.0718 11.7252 25.1592 12.2791 24.5835C12.7498 24.0943 12.3379 23.2858 11.6654 23.3791C10.8741 23.4888 10.5255 22.4159 11.2301 22.0396C11.8291 21.7198 11.6871 20.8236 11.0187 20.7045C10.2323 20.5644 10.2323 19.4362 11.0187 19.2961C11.6871 19.177 11.8291 18.2808 11.2301 17.9609C10.5255 17.5847 10.8741 16.5117 11.6654 16.6215C12.3379 16.7148 12.7498 15.9063 12.2791 15.417C11.7252 14.8414 12.3883 13.9287 13.1069 14.2776C13.7177 14.5742 14.3593 13.9325 14.0627 13.3217C13.7139 12.6032 14.6266 11.94 15.2022 12.4939C15.6914 12.9647 16.4999 12.5528 16.4066 11.8802C16.2969 11.089 17.3698 10.7404 17.7461 11.445C18.0659 12.0439 18.9621 11.902 19.0812 11.2335Z" fill="#FAFAFA"/>
<path d="M19.6768 11.3396C19.6857 11.2895 19.7029 11.2758 19.7098 11.2705C19.723 11.2603 19.7491 11.2486 19.7854 11.2486C19.8218 11.2486 19.8478 11.2603 19.8611 11.2705C19.868 11.2758 19.8851 11.2895 19.8941 11.3396C20.1139 12.5734 21.768 12.8354 22.3584 11.7299C22.3824 11.685 22.4029 11.6773 22.4111 11.6744C22.4269 11.6688 22.4552 11.6657 22.4898 11.677C22.5244 11.6882 22.5456 11.7073 22.555 11.7211C22.5599 11.7283 22.572 11.7466 22.565 11.7971C22.3928 13.0384 23.8851 13.7988 24.7881 12.9298C24.8248 12.8945 24.8467 12.8935 24.8555 12.8932C24.8722 12.8928 24.9001 12.8987 24.9295 12.9201C24.9589 12.9414 24.9732 12.9662 24.9779 12.9822C24.9803 12.9905 24.9861 13.0117 24.9639 13.0575C24.4165 14.1849 25.6008 15.3692 26.7282 14.8218C26.774 14.7995 26.7951 14.8054 26.8035 14.8078C26.8195 14.8125 26.8443 14.8268 26.8656 14.8562C26.887 14.8856 26.8929 14.9135 26.8924 14.9302C26.8922 14.9389 26.8912 14.9609 26.8559 14.9976C25.9869 15.9006 26.7472 17.3929 27.9886 17.2207C28.039 17.2137 28.0574 17.2257 28.0646 17.2307C28.0784 17.2401 28.0975 17.2613 28.1087 17.2959C28.1199 17.3304 28.1169 17.3588 28.1113 17.3746C28.1084 17.3828 28.1007 17.4033 28.0557 17.4273C26.9503 18.0177 27.2122 19.6718 28.446 19.8916C28.4962 19.9006 28.5099 19.9177 28.5152 19.9246C28.5254 19.9379 28.537 19.9639 28.537 20.0003C28.537 20.0366 28.5254 20.0627 28.5152 20.0759C28.5099 20.0828 28.4962 20.1 28.446 20.1089C27.2122 20.3288 26.9503 21.9829 28.0557 22.5732C28.1007 22.5972 28.1084 22.6178 28.1113 22.626C28.1169 22.6417 28.1199 22.6701 28.1087 22.7047C28.0975 22.7393 28.0784 22.7605 28.0646 22.7699C28.0574 22.7748 28.039 22.7869 27.9886 22.7799C26.7472 22.6077 25.9869 24.0999 26.8559 25.003C26.8912 25.0397 26.8922 25.0616 26.8924 25.0703C26.8929 25.087 26.887 25.115 26.8656 25.1444C26.8443 25.1738 26.8195 25.188 26.8035 25.1927C26.7951 25.1952 26.774 25.201 26.7282 25.1788C25.6008 24.6314 24.4165 25.8157 24.9639 26.943C24.9861 26.9889 24.9803 27.01 24.9779 27.0184C24.9732 27.0344 24.9589 27.0591 24.9295 27.0805C24.9001 27.1019 24.8722 27.1078 24.8555 27.1073C24.8467 27.1071 24.8248 27.1061 24.7881 27.0707C23.8851 26.2018 22.3928 26.9621 22.565 28.2035C22.572 28.2539 22.5599 28.2723 22.555 28.2795C22.5456 28.2932 22.5244 28.3123 22.4898 28.3236C22.4552 28.3348 22.4269 28.3318 22.4111 28.3262C22.4029 28.3233 22.3824 28.3155 22.3584 28.2706C21.768 27.1651 20.1139 27.4271 19.8941 28.6609C19.8851 28.7111 19.868 28.7248 19.8611 28.7301C19.8478 28.7403 19.8218 28.7519 19.7854 28.7519C19.7491 28.7519 19.723 28.7403 19.7098 28.7301C19.7029 28.7248 19.6857 28.7111 19.6768 28.6609C19.4569 27.4271 17.8028 27.1651 17.2125 28.2706C17.1885 28.3155 17.1679 28.3233 17.1597 28.3262C17.144 28.3318 17.1156 28.3348 17.081 28.3236C17.0464 28.3123 17.0252 28.2932 17.0158 28.2795C17.0109 28.2723 16.9988 28.2539 17.0058 28.2035C17.178 26.9621 15.6858 26.2018 14.7827 27.0707C14.746 27.1061 14.7241 27.1071 14.7154 27.1073C14.6987 27.1078 14.6707 27.1019 14.6413 27.0805C14.6119 27.0591 14.5977 27.0344 14.593 27.0184C14.5905 27.01 14.5847 26.9889 14.6069 26.943C15.1543 25.8157 13.9701 24.6314 12.8427 25.1788L13.1069 25.723L12.8427 25.1788C12.7968 25.201 12.7757 25.1952 12.7673 25.1927C12.7513 25.188 12.7266 25.1738 12.7052 25.1444C12.6838 25.115 12.6779 25.087 12.6784 25.0703C12.6786 25.0616 12.6796 25.0397 12.715 25.003C13.5839 24.0999 12.8236 22.6077 11.5822 22.7799C11.5318 22.7869 11.5135 22.7748 11.5062 22.7699C11.4925 22.7605 11.4734 22.7393 11.4621 22.7047C11.4509 22.6701 11.4539 22.6417 11.4595 22.626C11.4624 22.6178 11.4702 22.5972 11.5151 22.5732C12.6206 21.9829 12.3586 20.3288 11.1248 20.1089C11.0746 20.1 11.0609 20.0828 11.0556 20.0759C11.0454 20.0627 11.0338 20.0366 11.0338 20.0003C11.0338 19.9639 11.0454 19.9379 11.0556 19.9246C11.0609 19.9177 11.0746 19.9006 11.1248 19.8916C12.3586 19.6718 12.6206 18.0177 11.5151 17.4273C11.4702 17.4033 11.4624 17.3828 11.4595 17.3746C11.4539 17.3588 11.4509 17.3304 11.4621 17.2959C11.4734 17.2613 11.4925 17.2401 11.5062 17.2307C11.5135 17.2257 11.5318 17.2137 11.5822 17.2207C12.8236 17.3929 13.5839 15.9006 12.715 14.9976C12.6796 14.9609 12.6786 14.9389 12.6784 14.9302C12.6779 14.9135 12.6838 14.8856 12.7052 14.8562C12.7266 14.8268 12.7513 14.8125 12.7673 14.8078C12.7757 14.8054 12.7968 14.7995 12.8427 14.8218C13.9701 15.3692 15.1543 14.1849 14.6069 13.0575C14.5847 13.0117 14.5905 12.9905 14.593 12.9822C14.5977 12.9662 14.6119 12.9414 14.6413 12.9201C14.6707 12.8987 14.6987 12.8928 14.7154 12.8932C14.7241 12.8935 14.746 12.8945 14.7827 12.9298C15.6858 13.7988 17.178 13.0384 17.0058 11.7971C16.9988 11.7466 17.0109 11.7283 17.0158 11.7211C17.0252 11.7073 17.0464 11.6882 17.081 11.677C17.1156 11.6657 17.144 11.6688 17.1597 11.6744C17.1679 11.6773 17.1885 11.685 17.2125 11.7299C17.8028 12.8354 19.4569 12.5734 19.6768 11.3396Z" stroke="white" stroke-width="1.20987"/>
</g>
<path d="M32.6659 3.4872C32.7975 3.26695 33.1166 3.26695 33.2482 3.4872L34.3934 5.40353C34.4221 5.45167 34.4624 5.49192 34.5105 5.52069L36.4269 6.66588C36.6471 6.7975 36.6471 7.11656 36.4269 7.24818L34.5105 8.39337C34.4624 8.42214 34.4221 8.46239 34.3934 8.51053L33.2482 10.4269C33.1166 10.6471 32.7975 10.6471 32.6659 10.4269L31.5207 8.51053C31.4919 8.46239 31.4517 8.42214 31.4035 8.39337L29.4872 7.24818C29.267 7.11656 29.267 6.7975 29.4872 6.66588L31.4035 5.52069C31.4517 5.49192 31.4919 5.45167 31.5207 5.40353L32.6659 3.4872Z" fill="#030A00"/>
<defs>
<filter id="filter0_di_1115_11015" x="7.66354" y="9.46825" width="24.244" height="25.4195" filterUnits="userSpaceOnUse" color-interpolation-filters="sRGB">
<feFlood flood-opacity="0" result="BackgroundImageFix"/>
<feColorMatrix in="SourceAlpha" type="matrix" values="0 0 0 0 0 0 0 0 0 0 0 0 0 0 0 0 0 0 127 0" result="hardAlpha"/>
<feOffset dy="2.76542"/>
<feGaussianBlur stdDeviation="1.38271"/>
<feComposite in2="hardAlpha" operator="out"/>
<feColorMatrix type="matrix" values="0 0 0 0 0 0 0 0 0 0 0 0 0 0 0 0 0 0 0.13 0"/>
<feBlend mode="normal" in2="BackgroundImageFix" result="effect1_dropShadow_1115_11015"/>
<feBlend mode="normal" in="SourceGraphic" in2="effect1_dropShadow_1115_11015" result="shape"/>
<feColorMatrix in="SourceAlpha" type="matrix" values="0 0 0 0 0 0 0 0 0 0 0 0 0 0 0 0 0 0 127 0" result="hardAlpha"/>
<feOffset dx="-2.59258" dy="-1.38271"/>
<feGaussianBlur stdDeviation="0.587651"/>
<feComposite in2="hardAlpha" operator="arithmetic" k2="-1" k3="1"/>
<feColorMatrix type="matrix" values="0 0 0 0 0 0 0 0 0 0 0 0 0 0 0 0 0 0 0.25 0"/>
<feBlend mode="normal" in2="shape" result="effect2_innerShadow_1115_11015"/>
</filter>
</defs>
</svg>
