<svg width="202" height="52" viewBox="0 0 202 52" fill="none" xmlns="http://www.w3.org/2000/svg">
<path d="M120.811 27.3802L147.19 40.0207L156.84 43.805C168.986 48.5677 181.916 51.0124 194.962 51.0124H200.5V40.0207V28.4793V19.1364V14.1901V9.92688C200.5 9.11045 200.368 8.29934 200.11 7.5248C199.647 6.13572 198.792 4.91006 197.649 3.99536L197.378 3.77856C196.896 3.39283 196.374 3.05909 195.822 2.7829L194.578 2.16091C193.052 1.39747 191.368 1 189.661 1H176.868H163.128L159.831 4.84711L158.182 7.04545L151.587 13.6405L142.244 18.5868L130.703 22.9835L120.811 27.3802Z" fill="#D1C9F7" stroke="#D1C9F7" stroke-width="1.09917"/>
<path d="M2.31313 1C1.62866 1 1.11133 1.61678 1.23703 2.28961C1.78409 5.21798 3.17403 12.3825 4.29752 15.8388C7.29494 25.0602 9.24958 30.709 15.8388 37.8223C21.1799 43.5882 26.007 45.6689 33.4256 48.2645C35.9315 49.1412 37.4119 49.4208 40.0207 49.9132C49.3028 51.6652 54.8482 50.6769 64.2025 49.3636C73.4449 48.0661 85.2313 44.6817 91.1797 42.8644C93.7209 42.088 96.2299 41.2327 98.7087 40.2757C102.297 38.8905 108.142 36.5263 114.764 33.4256C115.661 33.0058 116.497 32.615 117.277 32.2514C124.337 28.9568 131.29 25.2578 137.863 21.0747L152.136 11.9917L156.533 8.14463L163.678 1H163.128H161.479H158.731H153.785H143.343H123.008H82.3388H2.31313Z" fill="#E8E4FB" stroke="#E8E4FB" stroke-width="1.09917"/>
</svg>
