<svg width="20" height="21" viewBox="0 0 20 21" fill="none" xmlns="http://www.w3.org/2000/svg">
<path d="M9.77143 17.3572V5.01437M9.77143 17.3572L8.55687 16.1427C7.87102 15.4568 6.94123 15.0715 5.97129 15.0715H2.91349C2.40854 15.0715 2 14.6622 2 14.1572V4.55723C2 4.05228 2.40934 3.64294 2.91429 3.64294H6.42802C7.39795 3.64294 8.32816 4.02825 9.01401 4.7141L9.77143 5.47152L10.5288 4.7141C11.2147 4.02825 12.1449 3.64294 13.1148 3.64294H17.0857C17.5907 3.64294 18 4.05228 18 4.55723V14.1572C18 14.6622 17.5907 15.0715 17.0857 15.0715H13.572C12.602 15.0715 11.6718 15.4568 10.986 16.1427L9.77143 17.3572Z" stroke="#0C2503" stroke-width="2" stroke-linecap="round" stroke-linejoin="round"/>
</svg>
