<svg width="23" height="31" viewBox="0 0 23 31" fill="none" xmlns="http://www.w3.org/2000/svg">
<path fill-rule="evenodd" clip-rule="evenodd" d="M0.550781 5.31365C0.550781 4.22936 0.981513 3.18949 1.74822 2.42278C2.51493 1.65607 3.5548 1.22534 4.63909 1.22534H18.2668C19.3511 1.22534 20.3909 1.65607 21.1577 2.42278C21.9244 3.18949 22.3551 4.22936 22.3551 5.31365V27.1561C22.3551 28.8187 20.4745 29.7863 19.1226 28.8201L11.4529 23.3417L3.78327 28.8201C2.43004 29.7876 0.550781 28.8201 0.550781 27.1575V5.31365ZM4.63909 3.95088C4.27766 3.95088 3.93104 4.09446 3.67547 4.35003C3.4199 4.6056 3.27632 4.95222 3.27632 5.31365V25.8329L10.2646 20.841C10.6113 20.5933 11.0268 20.4601 11.4529 20.4601C11.8791 20.4601 12.2945 20.5933 12.6413 20.841L19.6296 25.8329V5.31365C19.6296 4.95222 19.486 4.6056 19.2304 4.35003C18.9748 4.09446 18.6282 3.95088 18.2668 3.95088H4.63909Z" fill="#0C2503"/>
<path d="M2 3.98413V26.9841L11.5 20.755L21 26.9841V3.98413H2Z" fill="#0C2503" stroke="#0C2503"/>
</svg>
