<svg width="23" height="31" viewBox="0 0 23 31" fill="#0C2503" xmlns="http://www.w3.org/2000/svg">
<g clip-path="url(#clip0_1115_12446)" fill="#0C2503">
<path fill-rule="evenodd" clip-rule="evenodd" d="M0.550781 5.32952C0.550781 4.24523 0.981513 3.20536 1.74822 2.43865C2.51493 1.67194 3.5548 1.24121 4.63909 1.24121H18.2668C19.3511 1.24121 20.3909 1.67194 21.1577 2.43865C21.9244 3.20536 22.3551 4.24523 22.3551 5.32952V27.172C22.3551 28.8346 20.4745 29.8021 19.1226 28.8359L11.4529 23.3576L3.78327 28.8359C2.43004 29.8035 0.550781 28.8359 0.550781 27.1734V5.32952ZM4.63909 3.96675C4.27766 3.96675 3.93104 4.11033 3.67547 4.3659C3.4199 4.62146 3.27632 4.96809 3.27632 5.32952V25.8487L10.2646 20.8569C10.6113 20.6092 11.0268 20.476 11.4529 20.476C11.8791 20.476 12.2945 20.6092 12.6413 20.8569L19.6296 25.8487V5.32952C19.6296 4.96809 19.486 4.62146 19.2304 4.3659C18.9748 4.11033 18.6282 3.96675 18.2668 3.96675H4.63909Z" fill="#0C2503"/>
</g>
<defs>
<clipPath id="clip0_1115_12446"  fill="#0C2503">
<rect width="22.8945" height="30"  fill="red" transform="translate(0 0.96875)"/>
</clipPath>
</defs>
</svg>
