<svg width="29" height="29" viewBox="0 0 29 29" fill="none" xmlns="http://www.w3.org/2000/svg">
<path d="M15.6914 14.9755L28.4517 10.3682" stroke="#639424" stroke-width="1.02967" stroke-linecap="round"/>
<path d="M25.1855 13.7937C26.0385 13.7937 26.7396 14.4877 26.6375 15.3346C26.2944 18.1805 25.008 20.8471 22.9603 22.8948C20.5465 25.3086 17.2727 26.6646 13.8592 26.6646C10.4456 26.6646 7.17184 25.3086 4.75808 22.8948C2.71037 20.8471 1.4239 18.1805 1.0808 15.3346C0.978702 14.4877 1.67978 13.7937 2.53279 13.7937L13.8592 13.7937H25.1855Z" fill="#0C2503"/>
<path d="M1.72902 13.2963L1.70623 13.3245C1.36302 13.7492 1.66532 14.3821 2.21137 14.3821H26.3299C26.1757 14.3821 26.0508 14.2572 26.0508 14.103V13.9819C26.0508 13.857 25.9925 13.7392 25.8931 13.6635L25.3416 13.2434C25.2585 13.1802 25.157 13.1459 25.0526 13.1459H24.9746C24.7543 13.1459 24.5756 12.9673 24.5756 12.7469V12.272C24.5756 11.939 24.3566 11.6457 24.0374 11.5511L23.9108 11.5135C23.6666 11.4412 23.4992 11.2169 23.4992 10.9622C23.4992 10.7382 23.369 10.5345 23.1656 10.4404L23.0586 10.3909C23.0069 10.367 22.9581 10.3374 22.9131 10.3026L22.2762 9.81042C22.1674 9.72638 22.1038 9.59668 22.1038 9.45923C22.1038 9.3682 22.0758 9.27937 22.0236 9.20479L21.6856 8.72166C21.5978 8.59628 21.4545 8.52161 21.3014 8.52161C21.1321 8.52161 20.9759 8.43028 20.8929 8.28269L20.7583 8.04352C20.6994 7.93885 20.6685 7.82037 20.6685 7.70028C20.6685 7.5355 20.61 7.37548 20.5036 7.24972C20.3355 7.05113 20.0707 6.96282 19.817 7.02074L19.4899 7.09541C19.3988 7.11622 19.3056 7.12672 19.2121 7.12672H18.675H17.818C17.6748 7.12672 17.5587 7.0106 17.5587 6.86736C17.5587 6.72412 17.4426 6.608 17.2993 6.608H17.2024C17.0772 6.608 16.9611 6.54224 16.8968 6.43478L16.8798 6.40642C16.8063 6.28368 16.6737 6.20856 16.5307 6.20856C16.4472 6.20856 16.3658 6.18291 16.2974 6.13508L16.2031 6.06912C16.0734 5.97836 15.9189 5.92969 15.7605 5.92969H14.9301C14.853 5.92969 14.7803 5.96563 14.7334 6.02689L14.5972 6.20527C14.4976 6.33559 14.2894 6.26517 14.2894 6.10116C14.2894 6.00646 14.2127 5.92969 14.118 5.92969H12.615C12.3507 5.92969 12.1365 6.14391 12.1365 6.40816V6.79318C12.1365 6.87612 12.0939 6.95323 12.0236 6.99733C11.9101 7.0686 11.7603 7.03361 11.6901 6.91944L11.6123 6.79289C11.5416 6.678 11.4164 6.608 11.2816 6.608H10.3901C10.1553 6.608 9.93021 6.70131 9.76429 6.86736L9.60422 7.02756C9.54078 7.09105 9.45471 7.12672 9.36495 7.12672C9.17815 7.12672 9.02671 7.27816 9.02671 7.46497V7.52505C9.02671 7.72322 8.86606 7.88387 8.66789 7.88387H8.62793C8.45183 7.88387 8.30907 8.02663 8.30907 8.20274C8.30907 8.37885 8.1663 8.52161 7.9902 8.52161H6.72676C6.48513 8.52161 6.27452 8.68607 6.21594 8.92049C6.15736 9.15491 5.94675 9.31938 5.70512 9.31938H5.60235C5.33456 9.31938 5.09347 9.48164 4.99265 9.72973L4.70754 10.4313C4.66738 10.5301 4.57135 10.5947 4.46469 10.5947C4.31992 10.5947 4.20255 10.7121 4.20255 10.8569V11.2297C4.20255 11.5141 4.01343 11.7638 3.73965 11.8409L3.12667 12.0135C2.99899 12.0495 2.8916 12.1361 2.82949 12.2533L2.70949 12.4798C2.63474 12.6208 2.45245 12.6631 2.32326 12.5693C2.21342 12.4896 2.06093 12.5067 1.97151 12.6088L1.9319 12.654C1.87946 12.7139 1.85054 12.7908 1.85054 12.8704V12.9525C1.85054 13.0776 1.80765 13.199 1.72902 13.2963Z" fill="#D6FBC4" stroke="#D6FBC4" stroke-width="0.383609" stroke-linecap="round"/>
<path d="M26.2152 13.7937C26.4995 13.7937 26.7311 14.0244 26.7198 14.3085C26.5907 17.535 25.2524 20.6027 22.9603 22.8948C20.5465 25.3086 17.2727 26.6646 13.8592 26.6646C10.4456 26.6646 7.17184 25.3086 4.75808 22.8948C2.46593 20.6027 1.12761 17.535 0.99857 14.3085C0.987207 14.0244 1.21878 13.7937 1.50312 13.7937L13.8592 13.7937H26.2152Z" fill="#0C2503"/>
<path d="M10.0547 25.9902H17.7631V26.6356V28.6403H10.0552V26.6356L10.0547 25.9902Z" fill="#639424"/>
</svg>
