<svg width="33" height="33" viewBox="0 0 33 33" fill="none" xmlns="http://www.w3.org/2000/svg">
<path d="M25.9268 5.59489H23.2359V4.24947C23.2359 3.89264 23.0942 3.55043 22.8419 3.29812C22.5896 3.0458 22.2473 2.90405 21.8905 2.90405C21.5337 2.90405 21.1915 3.0458 20.9392 3.29812C20.6869 3.55043 20.5451 3.89264 20.5451 4.24947V5.59489H12.4726V4.24947C12.4726 3.89264 12.3309 3.55043 12.0785 3.29812C11.8262 3.0458 11.484 2.90405 11.1272 2.90405C10.7704 2.90405 10.4281 3.0458 10.1758 3.29812C9.92352 3.55043 9.78177 3.89264 9.78177 4.24947V5.59489H7.09094C6.02046 5.59489 4.99382 6.02013 4.23688 6.77708C3.47993 7.53402 3.05469 8.56066 3.05469 9.63114V25.7761C3.05469 26.8466 3.47993 27.8733 4.23688 28.6302C4.99382 29.3871 6.02046 29.8124 7.09094 29.8124H25.9268C26.9973 29.8124 28.0239 29.3871 28.7808 28.6302C29.5378 27.8733 29.963 26.8466 29.963 25.7761V9.63114C29.963 8.56066 29.5378 7.53402 28.7808 6.77708C28.0239 6.02013 26.9973 5.59489 25.9268 5.59489ZM27.2722 25.7761C27.2722 26.133 27.1304 26.4752 26.8781 26.7275C26.6258 26.9798 26.2836 27.1216 25.9268 27.1216H7.09094C6.73411 27.1216 6.3919 26.9798 6.13958 26.7275C5.88727 26.4752 5.74552 26.133 5.74552 25.7761V16.3582H27.2722V25.7761ZM27.2722 13.6674H5.74552V9.63114C5.74552 9.27431 5.88727 8.9321 6.13958 8.67978C6.3919 8.42747 6.73411 8.28572 7.09094 8.28572H9.78177V9.63114C9.78177 9.98796 9.92352 10.3302 10.1758 10.5825C10.4281 10.8348 10.7704 10.9766 11.1272 10.9766C11.484 10.9766 11.8262 10.8348 12.0785 10.5825C12.3309 10.3302 12.4726 9.98796 12.4726 9.63114V8.28572H20.5451V9.63114C20.5451 9.98796 20.6869 10.3302 20.9392 10.5825C21.1915 10.8348 21.5337 10.9766 21.8905 10.9766C22.2473 10.9766 22.5896 10.8348 22.8419 10.5825C23.0942 10.3302 23.2359 9.98796 23.2359 9.63114V8.28572H25.9268C26.2836 8.28572 26.6258 8.42747 26.8781 8.67978C27.1304 8.9321 27.2722 9.27431 27.2722 9.63114V13.6674Z" fill="#0C2503" stroke="#0C2503" stroke-width="0.25"/>
<path fill-rule="evenodd" clip-rule="evenodd" d="M27.1172 18.0881C27.1172 19.676 25.83 20.9631 24.2422 20.9631C22.6544 20.9631 21.3672 19.676 21.3672 18.0881C21.3672 17.5901 21.4938 17.1216 21.7167 16.7131H11.7677C11.9905 17.1216 12.1172 17.5901 12.1172 18.0881C12.1172 19.676 10.83 20.9631 9.24219 20.9631C7.65437 20.9631 6.36719 19.676 6.36719 18.0881C6.36719 17.5901 6.49384 17.1216 6.71669 16.7131H5.86719V26.3473L6.42609 26.6699C6.38747 26.482 6.36719 26.2875 6.36719 26.0881C6.36719 24.5003 7.65437 23.2131 9.24219 23.2131C10.83 23.2131 12.1172 24.5003 12.1172 26.0881C12.1172 26.4874 12.0358 26.8676 11.8887 27.2131H21.5956C21.4486 26.8676 21.3672 26.4874 21.3672 26.0881C21.3672 24.5003 22.6544 23.2131 24.2422 23.2131C25.83 23.2131 27.1172 24.5003 27.1172 26.0881C27.1172 26.2249 27.1076 26.3595 27.0892 26.4912L27.3672 26.2131V16.7131H26.7677C26.9905 17.1216 27.1172 17.5901 27.1172 18.0881Z" fill="#0C2503"/>
<path d="M21.7167 16.7131L22.5945 17.1921L23.4015 15.7131H21.7167V16.7131ZM11.7677 16.7131V15.7131H10.0829L10.8898 17.1921L11.7677 16.7131ZM6.71669 16.7131L7.59453 17.1921L8.40145 15.7131H6.71669V16.7131ZM5.86719 16.7131V15.7131H4.86719V16.7131H5.86719ZM5.86719 26.3473H4.86719V26.9248L5.36728 27.2134L5.86719 26.3473ZM6.42609 26.6699L5.92618 27.536L7.85362 28.6485L7.40561 26.4686L6.42609 26.6699ZM11.8887 27.2131L10.9686 26.8215L10.3763 28.2131H11.8887V27.2131ZM21.5956 27.2131V28.2131H23.1081L22.5158 26.8215L21.5956 27.2131ZM27.0892 26.4912L26.0989 26.3522L25.6838 29.3107L27.7963 27.1983L27.0892 26.4912ZM27.3672 26.2131L28.0743 26.9202L28.3672 26.6273V26.2131H27.3672ZM27.3672 16.7131H28.3672V15.7131H27.3672V16.7131ZM26.7677 16.7131V15.7131H25.0829L25.8898 17.1921L26.7677 16.7131ZM24.2422 21.9631C26.3823 21.9631 28.1172 20.2282 28.1172 18.0881H26.1172C26.1172 19.1237 25.2777 19.9631 24.2422 19.9631V21.9631ZM20.3672 18.0881C20.3672 20.2282 22.1021 21.9631 24.2422 21.9631V19.9631C23.2067 19.9631 22.3672 19.1237 22.3672 18.0881H20.3672ZM20.8389 16.2342C20.5379 16.7859 20.3672 17.4186 20.3672 18.0881H22.3672C22.3672 17.7616 22.4498 17.4573 22.5945 17.1921L20.8389 16.2342ZM11.7677 17.7131H21.7167V15.7131H11.7677V17.7131ZM13.1172 18.0881C13.1172 17.4186 12.9465 16.7859 12.6455 16.2342L10.8898 17.1921C11.0346 17.4573 11.1172 17.7616 11.1172 18.0881H13.1172ZM9.24219 21.9631C11.3823 21.9631 13.1172 20.2282 13.1172 18.0881H11.1172C11.1172 19.1237 10.2777 19.9631 9.24219 19.9631V21.9631ZM5.36719 18.0881C5.36719 20.2282 7.10208 21.9631 9.24219 21.9631V19.9631C8.20665 19.9631 7.36719 19.1237 7.36719 18.0881H5.36719ZM5.83885 16.2342C5.53785 16.7859 5.36719 17.4186 5.36719 18.0881H7.36719C7.36719 17.7616 7.44982 17.4573 7.59453 17.1921L5.83885 16.2342ZM5.86719 17.7131H6.71669V15.7131H5.86719V17.7131ZM6.86719 26.3473V16.7131H4.86719V26.3473H6.86719ZM6.92599 25.8038L6.36709 25.4812L5.36728 27.2134L5.92618 27.536L6.92599 25.8038ZM5.36719 26.0881C5.36719 26.3555 5.39441 26.6175 5.44656 26.8712L7.40561 26.4686C7.38053 26.3466 7.36719 26.2194 7.36719 26.0881H5.36719ZM9.24219 22.2131C7.10208 22.2131 5.36719 23.948 5.36719 26.0881H7.36719C7.36719 25.0526 8.20665 24.2131 9.24219 24.2131V22.2131ZM13.1172 26.0881C13.1172 23.948 11.3823 22.2131 9.24219 22.2131V24.2131C10.2777 24.2131 11.1172 25.0526 11.1172 26.0881H13.1172ZM12.8089 27.6048C13.0077 27.1376 13.1172 26.6244 13.1172 26.0881H11.1172C11.1172 26.3503 11.0639 26.5975 10.9686 26.8215L12.8089 27.6048ZM21.5956 26.2131H11.8887V28.2131H21.5956V26.2131ZM22.5158 26.8215C22.4204 26.5975 22.3672 26.3503 22.3672 26.0881H20.3672C20.3672 26.6244 20.4767 27.1376 20.6755 27.6048L22.5158 26.8215ZM22.3672 26.0881C22.3672 25.0526 23.2067 24.2131 24.2422 24.2131V22.2131C22.1021 22.2131 20.3672 23.948 20.3672 26.0881H22.3672ZM24.2422 24.2131C25.2777 24.2131 26.1172 25.0526 26.1172 26.0881H28.1172C28.1172 23.948 26.3823 22.2131 24.2422 22.2131V24.2131ZM26.1172 26.0881C26.1172 26.1783 26.1109 26.2664 26.0989 26.3522L28.0795 26.6301C28.1044 26.4525 28.1172 26.2715 28.1172 26.0881H26.1172ZM26.6601 25.506L26.3821 25.7841L27.7963 27.1983L28.0743 26.9202L26.6601 25.506ZM26.3672 16.7131V26.2131H28.3672V16.7131H26.3672ZM26.7677 17.7131H27.3672V15.7131H26.7677V17.7131ZM28.1172 18.0881C28.1172 17.4186 27.9465 16.7859 27.6455 16.2342L25.8898 17.1921C26.0346 17.4573 26.1172 17.7616 26.1172 18.0881H28.1172Z" fill="#0C2503"/>
</svg>
