<svg width="18" height="18" viewBox="0 0 18 18" fill="none" xmlns="http://www.w3.org/2000/svg">
<path fill-rule="evenodd" clip-rule="evenodd" d="M6.49213 3.42347C7.47543 1.42153 9.53494 0.0419922 11.918 0.0419922C15.2547 0.0419922 17.9596 2.74694 17.9596 6.08366C17.9596 6.97707 17.7653 7.82679 17.416 8.59144C17.3249 8.791 17.3071 8.97949 17.3477 9.13096L17.4538 9.52766C17.7936 10.7975 16.6318 11.9593 15.362 11.6195L14.9653 11.5134C14.8525 11.4832 14.7193 11.4853 14.5762 11.5259C14.1512 15.1482 11.0711 17.9587 7.33464 17.9587C6.20966 17.9587 5.14254 17.7035 4.18955 17.2472C4.00089 17.1569 3.81514 17.1386 3.66234 17.1795L2.64064 17.4528C1.37078 17.7926 0.20903 16.6309 0.548799 15.361L0.822169 14.3393C0.863053 14.1865 0.844729 14.0007 0.754409 13.8121C0.298164 12.8591 0.0429688 11.792 0.0429688 10.667C0.0429688 6.92487 2.86191 3.84114 6.49213 3.42347ZM7.94712 3.40069C11.5511 3.70042 14.4108 6.62125 14.6147 10.2517C14.8334 10.2308 15.0608 10.2449 15.2884 10.3058L15.6851 10.412C16.0258 10.5031 16.3374 10.1914 16.2463 9.85075L16.1401 9.45405C16.0092 8.9646 16.0945 8.476 16.279 8.07208C16.5553 7.46717 16.7096 6.79428 16.7096 6.08366C16.7096 3.43729 14.5643 1.29199 11.918 1.29199C10.2664 1.29199 8.80897 2.12769 7.94712 3.40069ZM7.33464 4.62533C3.99792 4.62533 1.29297 7.33027 1.29297 10.667C1.29297 11.6012 1.50457 12.4842 1.88186 13.2723C2.07803 13.6821 2.16029 14.1743 2.02969 14.6624L1.75632 15.6841C1.66517 16.0248 1.97685 16.3365 2.31755 16.2453L3.33925 15.9719C3.82735 15.8413 4.31956 15.9236 4.72932 16.1198C5.5174 16.4971 6.40043 16.7087 7.33464 16.7087C10.6714 16.7087 13.3763 14.0037 13.3763 10.667C13.3763 7.33027 10.6714 4.62533 7.33464 4.62533Z" fill="#1C274C"/>
<path d="M5.2513 10.667C5.2513 11.1272 4.87821 11.5003 4.41797 11.5003C3.95773 11.5003 3.58464 11.1272 3.58464 10.667C3.58464 10.2068 3.95773 9.83366 4.41797 9.83366C4.87821 9.83366 5.2513 10.2068 5.2513 10.667Z" fill="#1C274C"/>
<path d="M8.16797 10.667C8.16797 11.1272 7.79487 11.5003 7.33464 11.5003C6.8744 11.5003 6.5013 11.1272 6.5013 10.667C6.5013 10.2068 6.8744 9.83366 7.33464 9.83366C7.79487 9.83366 8.16797 10.2068 8.16797 10.667Z" fill="#1C274C"/>
<path d="M11.0846 10.667C11.0846 11.1272 10.7115 11.5003 10.2513 11.5003C9.79107 11.5003 9.41797 11.1272 9.41797 10.667C9.41797 10.2068 9.79107 9.83366 10.2513 9.83366C10.7115 9.83366 11.0846 10.2068 11.0846 10.667Z" fill="#1C274C"/>
</svg>
