<svg width="182" height="182" viewBox="0 0 182 182" fill="none" xmlns="http://www.w3.org/2000/svg">
<path d="M87.201 4.08701C88.0905 -0.205709 94.2216 -0.205709 95.1111 4.08701C95.9219 7.99985 101.315 8.48523 102.811 4.78004C104.453 0.715137 110.486 1.80989 110.594 6.19245C110.693 10.1872 115.913 11.6277 118.047 8.24927C120.388 4.54283 126.128 6.69714 125.453 11.0287C124.837 14.9769 129.715 17.3263 132.418 14.3832C135.384 11.1543 140.647 14.299 139.209 18.4403C137.898 22.2151 142.279 25.3978 145.464 22.9846C148.958 20.3372 153.575 24.371 151.421 28.189C149.457 31.6691 153.199 35.5829 156.763 33.7772C160.674 31.7962 164.497 36.5897 161.695 39.9616C159.142 43.0351 162.125 47.5541 165.954 46.4139C170.156 45.163 173.061 50.5621 169.703 53.3795C166.641 55.9477 168.769 60.9268 172.741 60.4887C177.099 60.0082 178.993 65.8392 175.186 68.0117C171.715 69.9919 172.92 75.271 176.906 75.5492C181.279 75.8544 182.102 81.93 177.968 83.3877C174.199 84.7164 174.442 90.1257 178.315 91.1113C182.563 92.1925 182.288 98.3174 177.96 99.0134C174.015 99.6478 173.288 105.014 176.922 106.675C180.909 108.497 179.545 114.475 175.162 114.387C171.167 114.306 169.493 119.456 172.773 121.74C176.37 124.245 173.961 129.882 169.664 129.013C165.747 128.221 163.181 132.989 166 135.821C169.093 138.928 165.715 144.045 161.643 142.423C157.93 140.944 154.554 145.177 156.822 148.467C159.31 152.077 155.073 156.508 151.356 154.185C147.967 152.067 143.89 155.629 145.534 159.272C147.337 163.267 142.377 166.871 139.134 163.921C136.178 161.232 131.53 164.009 132.497 167.886C133.558 172.14 128.034 174.8 125.37 171.318C122.942 168.145 117.873 170.048 118.132 174.035C118.417 178.41 112.507 180.041 110.507 176.139C108.685 172.583 103.357 173.55 102.9 177.52C102.399 181.875 96.2924 182.425 95.0217 178.229C93.8634 174.405 88.4486 174.405 87.2903 178.229C86.0196 182.425 79.9132 181.875 79.4121 177.52C78.9553 173.55 73.6275 172.583 71.805 176.139C69.8055 180.041 63.8953 178.41 64.1799 174.035C64.4393 170.048 59.3698 168.145 56.9416 171.318C54.2776 174.8 48.7537 172.14 49.8148 167.886C50.782 164.009 46.1337 161.232 43.1778 163.921C39.935 166.871 34.9749 163.267 36.7784 159.272C38.4224 155.629 34.3447 152.067 30.9562 154.185C27.2387 156.508 23.0017 152.077 25.4898 148.467C27.7577 145.177 24.3816 140.944 20.6694 142.423C16.5968 144.045 13.2192 138.928 16.3117 135.821C19.1306 132.989 16.5647 128.221 12.6481 129.013C8.3512 129.882 5.94153 124.245 9.53921 121.74C12.8185 119.456 11.1452 114.306 7.15009 114.387C2.76708 114.475 1.40277 108.497 5.38993 106.675C9.02425 105.014 8.2974 99.6478 4.35212 99.0134C0.0238237 98.3174 -0.251249 92.1925 3.99724 91.1113C7.86976 90.1257 8.11269 84.7164 4.3441 83.3877C0.209638 81.93 1.03264 75.8544 5.4059 75.5492C9.39216 75.271 10.5971 69.9919 7.12629 68.0117C3.31855 65.8392 5.21316 60.0082 9.57065 60.4887C13.5425 60.9268 15.6707 55.9477 12.6093 53.3795C9.25062 50.5621 12.156 45.163 16.3576 46.4139C20.1874 47.5541 23.1704 43.0351 20.6168 39.9616C17.8152 36.5897 21.6379 31.7962 25.5487 33.7772C29.1134 35.5829 32.8553 31.6691 30.8915 28.189C28.737 24.371 33.3542 20.3372 36.8484 22.9846C40.0334 25.3978 44.414 22.2151 43.1032 18.4403C41.665 14.299 46.9283 11.1543 49.8936 14.3832C52.5965 17.3263 57.4751 14.9769 56.8593 11.0287C56.1837 6.69714 61.9239 4.54282 64.265 8.24926C66.399 11.6277 71.6187 10.1872 71.7177 6.19245C71.8265 1.80989 77.859 0.715137 79.5007 4.78004C80.9972 8.48523 86.3902 7.99985 87.201 4.08701Z" fill="#D1C9F7"/>
</svg>
