<svg width="32" height="32" viewBox="0 0 32 32" fill="none" xmlns="http://www.w3.org/2000/svg">
<path fill-rule="evenodd" clip-rule="evenodd" d="M19.062 3.17992C17.2256 1.89446 14.7814 1.89445 12.945 3.17992L3.77491 9.59899C2.23009 10.6804 1.37113 12.4971 1.51575 14.3773L2.45578 26.5976C2.63307 28.9024 4.72134 30.5775 7.00968 30.2506L11.2358 29.6469C13.2064 29.3654 14.6701 27.6777 14.6701 25.6871V23.9999C14.6701 23.2635 15.2671 22.6665 16.0035 22.6665C16.7399 22.6665 17.3368 23.2635 17.3368 23.9999V25.6871C17.3368 27.6777 18.8005 29.3654 20.7711 29.6469L24.9973 30.2506C27.2856 30.5775 29.3739 28.9024 29.5512 26.5976L30.4912 14.3773C30.6358 12.4971 29.7769 10.6804 28.2321 9.59899L19.062 3.17992ZM14.4742 5.36453C15.3924 4.7218 16.6145 4.7218 17.5327 5.36454L26.7028 11.7836C27.4752 12.3243 27.9047 13.2327 27.8324 14.1728L26.8924 26.3931C26.8333 27.1613 26.1372 27.7197 25.3744 27.6107L21.1483 27.007C20.4914 26.9132 20.0035 26.3506 20.0035 25.6871V23.9999C20.0035 21.7907 18.2126 19.9999 16.0035 19.9999C13.7943 19.9999 12.0035 21.7907 12.0035 23.9999V25.6871C12.0035 26.3506 11.5156 26.9132 10.8587 27.007L6.63256 27.6107C5.86978 27.7197 5.17369 27.1613 5.11459 26.3931L4.17456 14.1727C4.10225 13.2327 4.53173 12.3243 5.30415 11.7836L14.4742 5.36453Z" fill="#0C2503"/>
<path fill-rule="evenodd" clip-rule="evenodd" d="M12.6176 22.5255C12.8333 22.0203 13.1466 21.5626 13.5395 21.1786C13.8021 20.922 14.0974 20.7011 14.4178 20.5217L14.8702 20.2684C15.3202 20.032 15.8337 19.9447 16.3365 20.0191L16.6393 20.0639C17.0968 20.1315 17.5353 20.2935 17.9268 20.5396L18.0547 20.62C18.7833 21.0778 19.3402 21.7633 19.6392 22.5701C19.821 23.0609 19.9024 23.5833 19.8784 24.1061L19.8598 24.5128C19.8475 24.7805 19.8616 25.0486 19.902 25.3135L20.0492 26.278C20.0859 26.5188 20.1994 26.7413 20.3728 26.9124C20.5443 27.0817 20.7654 27.1918 21.0039 27.2266L24.9939 27.8089C25.1642 27.8337 25.336 27.8462 25.5081 27.8462H26.0405C26.2662 27.8462 26.4887 27.7915 26.6887 27.6867C26.998 27.5247 27.2355 27.2526 27.3542 26.9242L27.3668 26.8894C27.4123 26.7636 27.4406 26.6322 27.4511 26.4988L28.0093 19.383C27.3734 19.8185 26.4976 19.7416 25.9486 19.1657L24.2388 17.3723C23.1291 16.2084 21.2758 16.0691 19.9762 17.0671C17.6857 18.826 14.4503 18.8253 12.1796 17.0001C10.9657 16.0245 9.21556 16.1046 8.09589 17.187L6.00114 19.212C5.44063 19.7538 4.58621 19.8043 3.971 19.3724L4.01061 19.918L4.53411 26.5934C4.55032 26.8002 4.61455 27.0004 4.72167 27.1781C4.88303 27.4457 5.1332 27.6482 5.42855 27.7502L5.5715 27.7996C5.82818 27.8883 6.10195 27.916 6.37121 27.8807L9.40899 27.4823L10.7232 27.2744C10.8254 27.2582 10.9259 27.2323 11.0232 27.1969L11.6458 26.9707C11.912 26.8739 12.0893 26.621 12.0893 26.3377V24.688C12.0893 24.0777 12.2128 23.4738 12.4524 22.9125L12.6176 22.5255ZM3.79136 16.8974L5.87177 14.8863C8.15093 12.683 11.7135 12.52 14.1843 14.5059C15.2851 15.3907 16.8868 15.4048 18.0272 14.5292C20.5997 12.5536 24.2957 12.7946 26.5549 15.1642L28.2045 16.8945L28.4181 14.172C28.4705 13.5037 28.3264 12.8347 28.0036 12.2473C27.7503 11.7865 27.3947 11.3899 26.9641 11.0881L22.3884 7.8808L17.4332 4.51234C17.0071 4.22273 16.5039 4.06787 15.9887 4.06787C15.6634 4.06787 15.3409 4.12967 15.0386 4.24999L14.7532 4.3636C14.4512 4.48379 14.1643 4.63886 13.8983 4.82565L7.98083 8.98113L4.98516 11.0796C4.59116 11.3555 4.25674 11.708 4.00183 12.116L3.8924 12.2911C3.73537 12.5424 3.62515 12.8201 3.56709 13.1107C3.52157 13.3385 3.50863 13.5717 3.52868 13.8032L3.76398 16.5202L3.79136 16.8974Z" fill="#0C2503"/>
</svg>
