<svg width="29" height="29" viewBox="0 0 29 29" fill="none" xmlns="http://www.w3.org/2000/svg">
<path d="M14.8906 14.9755L27.6509 10.3682" stroke="#CC7914" stroke-width="1.02967" stroke-linecap="round"/>
<path d="M24.3848 13.7937C25.2378 13.7937 25.9388 14.4877 25.8367 15.3346C25.4936 18.1805 24.2072 20.8471 22.1595 22.8948C19.7457 25.3086 16.472 26.6646 13.0584 26.6646C9.64481 26.6646 6.37105 25.3086 3.9573 22.8948C1.90959 20.8471 0.623121 18.1805 0.280021 15.3346C0.177921 14.4877 0.878999 13.7937 1.73201 13.7937L13.0584 13.7937H24.3848Z" fill="#EDA145"/>
<path d="M0.928234 13.2963L0.905449 13.3245C0.562242 13.7492 0.864536 14.3821 1.41059 14.3821H25.5291C25.375 14.3821 25.25 14.2572 25.25 14.103V13.9819C25.25 13.857 25.1917 13.7392 25.0923 13.6635L24.5408 13.2434C24.4577 13.1802 24.3562 13.1459 24.2518 13.1459H24.1739C23.9535 13.1459 23.7749 12.9673 23.7749 12.7469V12.272C23.7749 11.939 23.5559 11.6457 23.2366 11.5511L23.11 11.5135C22.8659 11.4412 22.6984 11.2169 22.6984 10.9622C22.6984 10.7382 22.5682 10.5345 22.3648 10.4404L22.2578 10.3909C22.2062 10.367 22.1574 10.3374 22.1123 10.3026L21.4754 9.81042C21.3667 9.72638 21.303 9.59668 21.303 9.45923C21.303 9.3682 21.275 9.27937 21.2228 9.20479L20.8848 8.72166C20.7971 8.59628 20.6537 8.52161 20.5007 8.52161C20.3313 8.52161 20.1751 8.43028 20.0921 8.28269L19.9575 8.04352C19.8986 7.93885 19.8677 7.82037 19.8677 7.70028C19.8677 7.5355 19.8093 7.37548 19.7028 7.24972C19.5347 7.05113 19.2699 6.96282 19.0162 7.02074L18.6892 7.09541C18.598 7.11622 18.5048 7.12672 18.4113 7.12672H17.8742H17.0173C16.874 7.12672 16.7579 7.0106 16.7579 6.86736C16.7579 6.72412 16.6418 6.608 16.4985 6.608H16.4016C16.2764 6.608 16.1604 6.54224 16.096 6.43478L16.079 6.40642C16.0055 6.28368 15.873 6.20856 15.7299 6.20856C15.6465 6.20856 15.565 6.18291 15.4967 6.13508L15.4024 6.06912C15.2726 5.97836 15.1181 5.92969 14.9597 5.92969H14.1293C14.0522 5.92969 13.9795 5.96563 13.9327 6.02689L13.7964 6.20527C13.6968 6.33559 13.4886 6.26517 13.4886 6.10116C13.4886 6.00646 13.4119 5.92969 13.3172 5.92969H11.8142C11.5499 5.92969 11.3357 6.14391 11.3357 6.40816V6.79318C11.3357 6.87612 11.2931 6.95323 11.2228 6.99733C11.1093 7.0686 10.9595 7.03361 10.8893 6.91944L10.8115 6.79289C10.7408 6.678 10.6156 6.608 10.4808 6.608H9.5893C9.35455 6.608 9.12943 6.70131 8.96351 6.86736L8.80344 7.02756C8.74 7.09105 8.65393 7.12672 8.56417 7.12672C8.37737 7.12672 8.22593 7.27816 8.22593 7.46497V7.52505C8.22593 7.72322 8.06528 7.88387 7.86711 7.88387H7.82715C7.65105 7.88387 7.50829 8.02663 7.50829 8.20274C7.50829 8.37885 7.36552 8.52161 7.18942 8.52161H5.92598C5.68435 8.52161 5.47374 8.68607 5.41516 8.92049C5.35658 9.15491 5.14597 9.31938 4.90434 9.31938H4.80157C4.53378 9.31938 4.29269 9.48164 4.19186 9.72973L3.90676 10.4313C3.8666 10.5301 3.77057 10.5947 3.66391 10.5947C3.51914 10.5947 3.40177 10.7121 3.40177 10.8569V11.2297C3.40177 11.5141 3.21265 11.7638 2.93887 11.8409L2.32589 12.0135C2.19821 12.0495 2.09082 12.1361 2.02871 12.2533L1.90871 12.4798C1.83396 12.6208 1.65167 12.6631 1.52248 12.5693C1.41264 12.4896 1.26015 12.5067 1.17073 12.6088L1.13112 12.654C1.07867 12.7139 1.04976 12.7908 1.04976 12.8704V12.9525C1.04976 13.0776 1.00687 13.199 0.928234 13.2963Z" fill="#F4C790" stroke="#F4C790" stroke-width="0.383609" stroke-linecap="round"/>
<path d="M25.4144 13.7937C25.6988 13.7937 25.9303 14.0244 25.919 14.3085C25.7899 17.535 24.4516 20.6027 22.1595 22.8948C19.7457 25.3086 16.472 26.6646 13.0584 26.6646C9.64481 26.6646 6.37105 25.3086 3.9573 22.8948C1.66515 20.6027 0.326827 17.535 0.197788 14.3085C0.186426 14.0244 0.418 13.7937 0.702335 13.7937L13.0584 13.7937H25.4144Z" fill="#EDA145"/>
<path d="M9.25391 25.9902H16.9624V26.6356V28.6403H9.25442V26.6356L9.25391 25.9902Z" fill="#CC7914"/>
</svg>
