<svg width="1082" height="732" viewBox="0 0 1082 732" fill="none" xmlns="http://www.w3.org/2000/svg">
<g opacity="0.5" filter="url(#filter0_d_586_2982)">
<path d="M346.438 205.552C346.438 301.877 262.77 379.964 159.561 379.964C56.3515 379.964 -78.337 164.788 -78.337 68.4627C-78.337 -27.8622 56.3515 31.1403 159.561 31.1403C262.77 31.1403 346.438 109.227 346.438 205.552Z" fill="#EDFAE7"/>
<path d="M388.402 500.23C388.402 596.554 304.734 674.641 201.525 674.641C98.3155 674.641 -78.3393 659.117 -78.3393 562.792C-78.3393 466.467 -198.708 149.084 187.861 366.626C291.071 366.626 388.402 403.905 388.402 500.23Z" fill="#E8E4FB"/>
<path d="M736.353 285.168C736.353 381.492 616.21 379.964 513.001 379.964C409.792 379.964 275.103 164.788 275.103 68.4627C275.103 -27.8622 409.792 31.1403 513.001 31.1403C616.21 31.1403 736.353 188.843 736.353 285.168Z" fill="#D1C9F7"/>
<path d="M612.636 503.715C612.636 600.04 504.72 722.618 401.511 722.618C298.302 722.618 187.861 462.951 187.861 366.626C187.861 270.301 241.067 232.163 344.276 232.163C447.485 232.163 612.636 407.39 612.636 503.715Z" fill="#EDFAE7"/>
<path d="M1030.59 196.377C1030.59 292.702 946.919 370.789 843.709 370.789C740.5 370.789 605.812 155.613 605.812 59.2882C605.812 -37.0367 740.5 21.9658 843.709 21.9658C946.919 21.9658 1030.59 100.052 1030.59 196.377Z" fill="#A392F0"/>
<path d="M938.98 663.045C938.98 756.681 776.245 715.041 672.354 712.644C666.491 712.509 660.54 712.034 654.817 710.753C481.351 671.909 487.148 465.549 487.148 370.789C487.148 274.464 705.91 279.737 739.718 299.38C795.237 331.636 938.98 566.72 938.98 663.045Z" fill="#D6FBC4"/>
<path d="M1178.05 619.236C1178.05 712.872 1015.32 671.232 911.429 668.835C905.566 668.7 899.614 668.225 893.891 666.944C720.425 628.1 726.223 421.74 726.223 326.98C726.223 230.655 1015.1 187.166 1048.9 206.809C1104.42 239.065 1178.05 522.911 1178.05 619.236Z" fill="#B0D2C1"/>
</g>
<defs>
<filter id="filter0_d_586_2982" x="-100.066" y="0.0800781" width="1286.12" height="731.84" filterUnits="userSpaceOnUse" color-interpolation-filters="sRGB">
<feFlood flood-opacity="0" result="BackgroundImageFix"/>
<feColorMatrix in="SourceAlpha" type="matrix" values="0 0 0 0 0 0 0 0 0 0 0 0 0 0 0 0 0 0 127 0" result="hardAlpha"/>
<feOffset dx="2" dy="2"/>
<feGaussianBlur stdDeviation="3"/>
<feColorMatrix type="matrix" values="0 0 0 0 0 0 0 0 0 0 0 0 0 0 0 0 0 0 0.14 0"/>
<feBlend mode="normal" in2="BackgroundImageFix" result="effect1_dropShadow_586_2982"/>
<feBlend mode="normal" in="SourceGraphic" in2="effect1_dropShadow_586_2982" result="shape"/>
</filter>
</defs>
</svg>
