<svg width="44" height="39" viewBox="0 0 44 39" fill="none" xmlns="http://www.w3.org/2000/svg">
<path d="M1.01465 10.0799C0.728527 8.00086 2.18201 6.08348 4.2611 5.79737L35.7187 1.46825C37.7978 1.18213 39.7152 2.63562 40.0013 4.71471L43.4474 29.7558C43.7335 31.8348 42.28 33.7522 40.2009 34.0383L8.74331 38.3675C6.66422 38.6536 4.74685 37.2001 4.46073 35.121L1.01465 10.0799Z" fill="#0C2503"/>
<path d="M31.1613 13.9427C31.2413 13.1598 30.6714 12.4602 29.8885 12.3802L17.1299 11.0766C16.347 10.9966 15.6475 11.5665 15.5675 12.3494C15.4875 13.1323 16.0573 13.8319 16.8402 13.9119L28.1812 15.0706L27.0224 26.4116C26.9424 27.1945 27.5123 27.894 28.2952 27.974C29.0781 28.054 29.7777 27.4842 29.8577 26.7013L31.1613 13.9427ZM13.818 24.9329C13.2078 25.4299 13.1161 26.3275 13.6131 26.9377C14.1102 27.5478 15.0078 27.6396 15.618 27.1425L13.818 24.9329ZM28.8437 12.693L13.818 24.9329L15.618 27.1425L30.6436 14.9027L28.8437 12.693Z" fill="#EDFAE7"/>
</svg>
