<svg width="164" height="175" viewBox="0 0 164 175" fill="none" xmlns="http://www.w3.org/2000/svg">
<path d="M25.2961 145.039L54.0451 160.915C60.2172 164.323 66.9354 166.632 73.899 167.737C90.0644 170.303 106.581 166.241 119.712 156.469L123.616 153.563M111.822 97.7858L95.1839 93.759L96.0183 90.3115C99.3196 76.6712 109.419 71.6577 118.85 67.4348C126.902 63.6711 134.281 60.0621 136.385 51.3683C138.852 41.1756 134.189 32.9067 123.696 30.3673C113.054 27.7916 103.786 33.9584 100.993 45.5001L81.9563 40.8929C87.1439 19.4582 106.547 8.12805 128.281 13.3883C150.615 18.7936 160.986 34.9494 156.161 54.8852C152.279 70.9238 140.087 76.0653 129.905 80.1068C121.291 83.5755 114.507 86.6937 112.656 94.3383L111.822 97.7858ZM96.9221 125.914C90.1768 124.282 86.0867 117.58 87.6466 111.134C89.2428 104.539 95.945 100.449 102.69 102.081C109.285 103.678 113.526 110.416 111.929 117.011C110.406 123.307 103.517 127.511 96.9221 125.914ZM41.3525 92.0354L58.4538 91.2678L58.2948 87.7242C57.6654 73.7043 48.7127 66.8505 40.2636 60.9003C33.0817 55.6652 26.5299 50.7105 26.1287 41.7747C25.6585 31.2982 31.818 24.0748 42.6026 23.5906C53.5413 23.0996 61.457 30.9262 61.9896 42.7893L81.5559 41.911C80.5669 19.8796 63.6915 5.04509 41.352 6.0479C18.3962 7.07837 5.12505 20.9505 6.04487 41.4412C6.78487 57.9262 17.7681 65.3064 26.9875 71.222C34.7788 76.2754 40.8407 80.6346 41.1935 88.4919L41.3525 92.0354ZM50.5931 122.496C57.526 122.185 62.8234 116.389 62.526 109.764C62.2217 102.986 56.4264 97.6882 49.4934 97.9994C42.7145 98.3037 37.2631 104.106 37.5674 110.885C37.8579 117.356 43.8142 122.8 50.5931 122.496Z" stroke="#9747FF" stroke-width="11.5666"/>
</svg>
