<svg width="1770" height="1083" viewBox="0 0 1770 1083" fill="none" xmlns="http://www.w3.org/2000/svg">
<g clip-path="url(#clip0_2187_24157)">
<path fill-rule="evenodd" clip-rule="evenodd" d="M481.302 65.3211L481.366 65.3324C484.551 65.9049 487.802 66.0196 491.02 65.6731L491.075 65.6672C487.817 66.017 484.526 65.9005 481.302 65.3211ZM1335.26 98.1717L1335.31 98.1784C1337.84 98.5118 1340.4 98.5601 1342.93 98.3223L1342.98 98.3176C1340.41 98.5585 1337.82 98.5096 1335.26 98.1717Z" fill="#8C77EC"/>
<path d="M164.615 47.2045L27.5553 33.8671C7.43455 31.9092 -10 47.6105 -10 67.6891V1007.75C-10 1026.52 1.29444 1083 20.1928 1083L238.665 1040.93C279.633 1033.04 321.571 1031.5 363.007 1036.35L560.269 1059.48C597.246 1063.81 634.644 1063.05 671.414 1057.22L856.045 1027.93C889.12 1022.68 922.717 1021.54 956.074 1024.52L1189.54 1045.41C1220.05 1048.14 1250.77 1047.41 1281.12 1043.25L1478.38 1016.19C1519.16 1010.6 1560.54 1011.22 1601.13 1018.04L1742.19 1041.73C1761.09 1041.73 1776.41 1026.52 1776.41 1007.75V95.0412C1776.41 75.0113 1759.05 59.3259 1738.97 61.2076L1342.98 98.3176L1342.93 98.3223C1340.4 98.5601 1337.84 98.5118 1335.31 98.1784L1335.26 98.1717L824.394 30.7526C821.676 30.3939 818.924 30.361 816.198 30.6545L491.084 65.6661L491.075 65.6672L491.02 65.6731C487.802 66.0196 484.551 65.9049 481.366 65.3324L481.302 65.3211L383.515 47.7476C381.505 47.3863 379.466 47.2045 377.422 47.2045H164.615Z" fill="#8C77EC"/>
<mask id="mask0_2187_24157" style="mask-type:alpha" maskUnits="userSpaceOnUse" x="48" y="722" width="343" height="246">
<path d="M48.4406 733.001C77.4689 742.24 113.273 761.79 153.895 800.511C184.692 829.871 229.33 906.644 294.848 967.254C291.774 951.967 315.217 956.991 315.762 957.107C283.866 935.59 251.409 904.743 221.785 860.692C226.38 866.939 275.198 930.376 381.586 947.431C369.696 920.832 382.52 902.727 390.279 894.91C347.79 903.372 298.814 900.926 255.813 867.658C179.156 808.345 128.75 743.52 56.0923 722.771C52.9441 723.763 46.3005 726.639 48.4406 733.001Z" fill="#A1E8DF"/>
</mask>
<g mask="url(#mask0_2187_24157)">
<path d="M44.9521 724C71.7855 733.333 147.452 772.1 211.452 844.5C275.452 916.9 377.952 924 406.452 919M204.452 836.5C216.952 865.833 269.952 941.5 313.952 970" stroke="#A1E8DF" stroke-width="55"/>
</g>
<mask id="mask1_2187_24157" style="mask-type:alpha" maskUnits="userSpaceOnUse" x="294" y="956" width="103" height="78">
<path d="M294.847 967.254C324.372 994.589 358.135 1018.63 396.79 1033.56C396.327 1032.19 395.823 1030.79 395.286 1029.36C389.923 1015.09 388.469 1002.95 390.072 992.977C366.861 985.739 341.501 974.459 315.77 957.107H315.762C315.216 956.991 291.774 951.967 294.847 967.254Z" fill="#86CEEC"/>
</mask>
<g mask="url(#mask1_2187_24157)">
<path d="M284.952 947C301.952 961.5 372.252 1009.9 405.452 1019.5" stroke="#86CEEC" stroke-width="50"/>
</g>
<mask id="mask2_2187_24157" style="mask-type:alpha" maskUnits="userSpaceOnUse" x="402" y="996" width="95" height="54">
<path d="M406.574 1033.08C406.574 1033.08 407.293 1034.8 408.226 1037.66H408.235C435.272 1046.61 464.606 1051.05 496.452 1049.14V1006.25C496.452 1006.25 495.37 1005.31 493.395 1003.79C483.182 1005.15 448.369 1008.35 403.442 996.786C399.187 1012.13 406.574 1033.08 406.574 1033.08Z" fill="#86CEEC"/>
</mask>
<g mask="url(#mask2_2187_24157)">
<path d="M389.452 1013.5C402.952 1018.17 471.452 1030.6 513.452 1029" stroke="#86CEEC" stroke-width="50"/>
</g>
<mask id="mask3_2187_24157" style="mask-type:alpha" maskUnits="userSpaceOnUse" x="389" y="992" width="20" height="46">
<path d="M395.286 1029.36C395.824 1030.79 396.328 1032.19 396.79 1033.56C400.558 1035.02 404.368 1036.39 408.227 1037.66C407.293 1034.8 406.574 1033.08 406.574 1033.08C406.574 1033.08 399.187 1012.13 403.442 996.786C399.079 995.663 394.617 994.398 390.072 992.977C388.469 1002.95 389.924 1015.09 395.286 1029.36Z" fill="#68DACB"/>
</mask>
<g mask="url(#mask3_2187_24157)">
<path d="M383.952 1012.5L413.452 1019.5" stroke="#68DACB" stroke-width="50"/>
</g>
<mask id="mask4_2187_24157" style="mask-type:alpha" maskUnits="userSpaceOnUse" x="-28" y="716" width="85" height="18">
<path d="M-27.5479 718.838L-16.6404 722.284L-10.5092 725.135L-8.76565 726.25C4.89335 724.78 24.3283 725.333 48.4402 733.001C46.3 726.639 52.9436 723.763 56.0919 722.772C31.4181 715.731 4.16615 713.773 -27.5479 718.838Z" fill="#A1E8DF"/>
</mask>
<g mask="url(#mask4_2187_24157)">
<path d="M-28.0479 723.5C-16.8812 720.667 30.7521 719.1 57.9521 729.5" stroke="#A1E8DF" stroke-width="40"/>
</g>
<g clip-path="url(#clip1_2187_24157)">
<path d="M1605.04 177.873C1617.05 177.873 1626.78 188.193 1626.78 200.923C1626.78 213.654 1617.05 223.974 1605.04 223.974C1593.02 223.974 1583.29 213.654 1583.29 200.923C1583.29 188.193 1593.02 177.873 1605.04 177.873Z" fill="white" stroke="black" stroke-width="2.60457" stroke-miterlimit="10"/>
<path d="M1600.26 165.748C1598.69 164.282 1596.72 163.837 1595.78 164.772C1594.82 165.738 1595.33 167.811 1596.92 169.403C1598.51 170.994 1600.58 171.502 1601.55 170.536C1602.51 169.569 1602.01 167.496 1600.42 165.905C1600.37 165.853 1600.31 165.801 1600.26 165.748Z" fill="#FF0000" stroke="black" stroke-width="2.60457" stroke-miterlimit="10"/>
<path d="M1606.74 159.432C1611.07 156.737 1615.41 154.038 1619.75 151.343C1617.52 145.641 1613.28 141.586 1608.55 141.148C1607.57 141.057 1604.31 140.758 1601.78 142.971C1599.54 144.935 1599.23 147.675 1599.18 148.181C1598.71 152.348 1601.73 156.804 1606.73 159.438C1606.73 159.435 1606.73 159.435 1606.74 159.432Z" fill="#FF0000" stroke="black" stroke-width="2.60457" stroke-miterlimit="10"/>
<path d="M1605.04 177.873C1617.05 177.873 1626.78 188.193 1626.78 200.923C1626.78 213.654 1617.05 223.974 1605.04 223.974C1593.02 223.974 1583.29 213.654 1583.29 200.923C1583.29 188.193 1593.02 177.873 1605.04 177.873Z" fill="white" stroke="black" stroke-width="2.60457" stroke-miterlimit="10"/>
<path d="M1677.25 167.319C1678.84 165.727 1679.35 163.654 1678.38 162.688C1677.47 161.774 1675.56 162.18 1674.01 163.576C1673.92 163.654 1673.84 163.735 1673.75 163.821C1672.16 165.412 1671.65 167.485 1672.62 168.452C1673.59 169.418 1675.66 168.91 1677.25 167.319Z" fill="#FF0000" stroke="black" stroke-width="2.60457" stroke-miterlimit="10"/>
<path d="M1668.85 177.872C1681.29 177.872 1691.38 188.542 1691.38 201.703C1691.38 214.865 1681.29 225.535 1668.85 225.535C1656.4 225.535 1646.32 214.865 1646.32 201.703C1646.32 188.542 1656.4 177.872 1668.85 177.872Z" fill="#FF0000" stroke="black" stroke-width="2.60457" stroke-miterlimit="10"/>
<path d="M1675.49 93.5293V68.7417H1583.29L1584.64 103.406C1584.78 106.969 1585.89 110.422 1587.86 113.397L1593.87 122.474C1596.8 121.338 1599.26 120.559 1601 120.052C1631.47 111.141 1656.69 122.208 1665.07 126.042C1677.46 110.503 1676.64 100.239 1675.86 96.8423C1675.61 95.7562 1675.49 94.644 1675.49 93.5293Z" fill="#8C77EC" stroke="black" stroke-width="2.60457" stroke-miterlimit="10"/>
<path d="M1640.59 317.477C1643.85 320.311 1648.46 319.399 1648.92 319.3C1653.1 318.407 1655.47 315.099 1657.26 312.528C1661.92 305.816 1659.83 302.816 1664.03 295.338C1665.77 292.244 1668.45 287.483 1673.67 285.18C1681.42 281.755 1689.63 286.045 1691.38 287.004C1711.78 297.815 1716.96 300.693 1716.9 300.808C1716.81 300.987 1703.85 294.343 1687.21 291.952C1683.4 291.405 1680.17 291.189 1676.79 292.734C1669.31 296.151 1667.16 305.436 1666.63 308.101C1666.4 310.705 1665.66 314.961 1662.99 319.3C1662.34 320.358 1655.28 331.458 1644.5 331.021C1635.48 330.656 1626.88 322.34 1625.22 310.705C1624.5 305.699 1622.46 296.427 1615.85 287.004C1607.39 274.963 1596.38 269.683 1591.62 267.73C1579.94 260.5 1562.82 247.276 1551.51 225.515C1547.98 218.715 1543.33 209.547 1542.4 196.625C1541.02 177.531 1548.68 163.212 1551.51 158.078C1563.12 137.057 1582.24 126.969 1593.87 122.474C1596.8 121.338 1599.26 120.559 1601 120.051C1631.47 111.141 1656.69 122.208 1665.07 126.042C1673.88 130.071 1689.02 136.992 1699.97 153.911C1712.53 173.307 1711.52 193.357 1710.85 200.272C1708.41 222.481 1699.93 235.543 1694.5 242.205C1684.66 254.288 1669.9 263.724 1666.89 265.646C1653 274.528 1647.39 274.515 1642.15 282.836C1636.49 291.832 1637.04 301.404 1637.46 308.882C1637.66 312.322 1638.21 315.409 1640.59 317.477ZM1583.29 200.923C1583.29 213.654 1593.02 223.973 1605.04 223.973C1617.05 223.973 1626.78 213.654 1626.78 200.923C1626.78 188.192 1617.05 177.873 1605.04 177.873C1593.02 177.873 1583.29 188.192 1583.29 200.923ZM1606.73 159.438C1606.73 159.435 1606.73 159.435 1606.74 159.432C1611.07 156.737 1615.41 154.038 1619.75 151.343C1617.52 145.641 1613.28 141.586 1608.55 141.148C1607.57 141.057 1604.31 140.758 1601.78 142.972C1599.54 144.935 1599.23 147.675 1599.18 148.181C1598.71 152.348 1601.73 156.804 1606.73 159.438ZM1595.79 164.772C1594.82 165.738 1595.33 167.811 1596.92 169.403C1598.51 170.994 1600.58 171.502 1601.55 170.536C1602.52 169.569 1602.01 167.496 1600.42 165.905C1600.37 165.853 1600.31 165.801 1600.26 165.748C1598.69 164.282 1596.72 163.837 1595.79 164.772ZM1678.38 162.688C1677.47 161.774 1675.56 162.18 1674.01 163.576C1673.92 163.654 1673.84 163.735 1673.75 163.821C1672.16 165.412 1671.65 167.486 1672.62 168.452C1673.59 169.418 1675.66 168.91 1677.25 167.319C1678.84 165.728 1679.35 163.654 1678.38 162.688ZM1668.85 225.536C1681.29 225.536 1691.38 214.865 1691.38 201.704C1691.38 188.544 1681.29 177.873 1668.85 177.873C1656.41 177.873 1646.32 188.544 1646.32 201.704C1646.32 214.865 1656.41 225.536 1668.85 225.536Z" fill="#BAADF4" stroke="black" stroke-width="2.60457" stroke-miterlimit="10"/>
<path d="M1668.85 177.872C1681.29 177.872 1691.38 188.542 1691.38 201.703C1691.38 214.865 1681.29 225.535 1668.85 225.535C1656.4 225.535 1646.32 214.865 1646.32 201.703C1646.32 188.542 1656.4 177.872 1668.85 177.872Z" fill="white" stroke="black" stroke-width="2.60457" stroke-miterlimit="10"/>
<path d="M1612.46 189.593C1617.49 189.593 1621.58 193.675 1621.58 198.709C1621.58 203.744 1617.49 207.825 1612.46 207.825C1607.42 207.825 1603.34 203.744 1603.34 198.709C1603.34 193.675 1607.42 189.593 1612.46 189.593Z" fill="black"/>
<path d="M1672.62 191.157C1677.66 191.157 1681.74 195.238 1681.74 200.273C1681.74 205.307 1677.66 209.389 1672.62 209.389C1667.59 209.389 1663.51 205.307 1663.51 200.273C1663.51 195.238 1667.59 191.157 1672.62 191.157Z" fill="black"/>
<path d="M1596.05 231.527C1596.05 231.527 1602.3 241.424 1617.41 236.476" stroke="black" stroke-width="2.60457" stroke-miterlimit="10" stroke-linecap="round"/>
<path d="M1666.11 245.852C1666.11 245.852 1683.04 250.363 1681.74 234.694" stroke="black" stroke-width="2.60457" stroke-miterlimit="10" stroke-linecap="round"/>
<path d="M1675.49 164.849C1674.99 164.414 1674.5 163.989 1674.01 163.575C1651.74 144.715 1632.98 145.645 1619.75 151.341C1614.5 153.6 1610.12 156.608 1606.74 159.431" stroke="black" stroke-width="2.60457" stroke-miterlimit="10"/>
<path d="M1606.73 159.438C1603.79 161.888 1601.61 164.196 1600.26 165.748C1599.2 166.962 1598.66 167.715 1598.66 167.715" stroke="black" stroke-width="2.60457" stroke-miterlimit="10"/>
<path d="M1619.75 151.343C1617.52 145.641 1613.28 141.586 1608.55 141.148C1607.57 141.057 1604.31 140.758 1601.78 142.971C1599.54 144.935 1599.23 147.675 1599.18 148.181C1598.71 152.348 1601.73 156.804 1606.73 159.438C1606.73 159.435 1606.73 159.435 1606.74 159.432C1611.07 156.737 1615.41 154.038 1619.75 151.343Z" fill="#FFC400" stroke="black" stroke-width="2.60457" stroke-miterlimit="10"/>
<path d="M1600.42 165.905C1600.37 165.853 1600.31 165.801 1600.26 165.748C1598.69 164.282 1596.72 163.837 1595.78 164.772C1594.82 165.738 1595.33 167.811 1596.92 169.403C1598.51 170.994 1600.58 171.502 1601.55 170.536C1602.51 169.569 1602.01 167.496 1600.42 165.905Z" fill="black" stroke="black" stroke-width="2.60457" stroke-miterlimit="10"/>
<path d="M1678.38 162.688C1677.47 161.774 1675.56 162.18 1674.01 163.576C1673.92 163.654 1673.84 163.735 1673.75 163.821C1672.16 165.412 1671.65 167.485 1672.62 168.452C1673.59 169.418 1675.66 168.91 1677.25 167.319C1678.84 165.727 1679.35 163.654 1678.38 162.688Z" fill="black" stroke="black" stroke-width="2.60457" stroke-miterlimit="10"/>
<path d="M1612.46 97.3916V68.7415" stroke="black" stroke-width="2.60457" stroke-miterlimit="10" stroke-linecap="round"/>
<path d="M1612.46 155.875C1612.46 155.875 1609.72 153.677 1606.73 147.738Z" fill="#FF0000"/>
<path d="M1612.46 155.875C1612.46 155.875 1609.72 153.677 1606.73 147.738" stroke="black" stroke-width="1.30228" stroke-miterlimit="10" stroke-linecap="round"/>
</g>
<path d="M-0.5 33H143.5L359.285 40.7412C364.084 40.9133 368.888 40.6242 373.632 39.8777L548.441 12.3697C558.379 10.8059 568.53 11.2574 578.289 13.6974L641.381 29.4704C653.279 32.4447 665.724 32.4562 677.627 29.504L773.19 5.80118C781.991 3.61849 791.113 3.04953 800.117 4.12192L960.27 23.1983C964.747 23.7317 969.264 23.8601 973.765 23.5821L1072.3 17.4949C1088.03 16.5231 1103.67 20.532 1116.99 28.9526L1140.64 43.8996C1152.64 51.4776 1166.53 55.5 1180.71 55.5H1379.32C1387.06 55.5 1394.75 56.6977 1402.13 59.0506L1410.28 61.6546C1428.11 67.345 1447.43 66.1634 1464.43 58.342L1512.47 36.2427C1528.93 28.6712 1547.58 27.3139 1564.96 32.4217L1628.44 51.075C1638.37 53.9934 1648.8 54.8242 1659.07 53.515L1769 39.5" stroke="#E8E4FB" stroke-width="10" stroke-linecap="round"/>
<path d="M456 57L459.5 57.5L473 60L483.489 61.5733C489.792 62.5189 496.204 62.4941 502.5 61.5V61.5L533 58.5L571 54L623.5 48L677 43L736 34.5L795.5 29L898.5 31.5L1036.27 35.0439C1048.05 35.347 1059.77 36.9517 1071.2 39.8288L1116.69 51.2758C1125.18 53.4123 1133.28 56.8558 1140.72 61.4831V61.4831C1150.79 67.7572 1162.08 71.8366 1173.84 73.4551L1315.64 92.9728C1327.84 94.652 1340.19 94.9171 1352.45 93.7628L1769.5 54.5" stroke="#6D53E7" stroke-width="16" stroke-linecap="round"/>
<path d="M0.5 17.5L472 35.5L707.5 17.5L957.583 9.95031C967.506 9.65075 977.436 10.2754 987.243 11.8161L1138 35.5L1216.5 42H1356.77C1365.91 42 1375.03 42.7829 1384.03 44.3401L1476.84 60.3897C1494.49 63.4416 1512.52 63.5088 1530.19 60.5885L1682 35.5L1758.5 28" stroke="#FFC400" stroke-width="16" stroke-linecap="round"/>
<path d="M-13 65V65C4.79198 45.3352 31.2748 35.9269 57.4854 39.9593L117.952 49.2618C127.636 50.7518 137.421 51.5 147.219 51.5H278H393.5H492L595.091 36.8887C610.99 34.6353 626.621 30.7841 641.747 25.3934V25.3934C688.114 8.86905 738.454 7.07645 785.879 20.2609L811.904 27.4961C826.279 31.4925 840.947 34.3457 855.772 36.0293L992 51.5L1146 65H1266.5H1367L1504 51.5L1569.11 37.0013C1604.59 29.0989 1641.39 29.1656 1676.85 37.1966L1703.75 43.2902C1727.51 48.6716 1749.47 60.1128 1767.5 76.5V76.5" stroke="#B0D2C1" stroke-width="16" stroke-linecap="round"/>
<path d="M1691.49 953.99L1674.18 946.345C1671.52 945.173 1669.51 942.909 1668.65 940.138C1666.94 934.633 1670.21 928.823 1675.8 927.425L1675.99 927.377C1678.26 926.809 1680.66 927.037 1682.78 928.021L1701.16 936.549C1718.27 944.486 1731.28 959.212 1737.05 977.168L1737.94 979.927C1740.3 987.264 1741.5 994.924 1741.5 1002.63V1014.87C1741.5 1018.94 1741.04 1023.01 1740.13 1026.98L1739.9 1027.99C1738.32 1034.92 1738.24 1042.1 1739.68 1049.06L1742.75 1063.95C1743.55 1067.81 1742.72 1071.83 1740.46 1075.06L1737.69 1079.01C1735.27 1082.47 1730.71 1083.67 1726.9 1081.85C1723.91 1080.41 1722 1077.39 1722 1074.06V1070.12C1722 1065.36 1719.61 1060.93 1715.64 1058.32C1709.38 1054.21 1707.42 1045.94 1711.16 1039.46L1719.34 1025.3C1723 1018.97 1724.33 1011.55 1723.11 1004.34L1720.36 988.076C1719.79 984.716 1718.65 981.478 1717 978.5L1716.82 978.13C1711.44 967.381 1702.48 958.844 1691.49 953.99Z" stroke="#D1C9F7" stroke-width="10" stroke-linecap="round"/>
<path d="M1699.96 986.191C1699.95 986.188 1699.96 986.182 1699.96 986.183C1708.09 987.257 1714.71 987.306 1722.44 985.785C1722.69 985.735 1722.94 985.661 1723.19 985.592C1723.5 985.504 1723.94 985.397 1724.27 985.336C1724.3 985.331 1724.33 985.313 1724.36 985.311C1724.38 985.309 1724.39 985.311 1724.41 985.309C1724.43 985.307 1724.46 985.292 1724.48 985.292V985.292C1724.49 985.292 1724.5 985.291 1724.5 985.289C1725.07 985.128 1725.61 985.001 1726.13 984.821C1727.35 984.439 1728.55 984.019 1729.73 983.565C1730.37 983.306 1731 983.027 1731.59 982.782C1731.65 982.76 1731.7 982.752 1731.76 982.741C1731.81 982.731 1731.85 982.713 1731.88 982.694C1731.91 982.673 1731.95 982.656 1731.99 982.656V982.656C1732.01 982.656 1732.03 982.651 1732.05 982.64C1733.02 982.105 1734.01 981.59 1734.97 981.052C1735.1 980.981 1736.09 980.203 1736.23 980.144V980.144C1736.3 980.112 1736.35 980.075 1736.39 980.011C1736.55 979.795 1736.7 979.532 1736.81 979.361C1736.81 979.353 1736.82 979.346 1736.83 979.34V979.34C1736.84 979.324 1736.85 979.302 1736.86 979.279C1736.91 979 1737.15 978.285 1737.25 977.96C1737.28 977.869 1737.29 977.777 1737.3 977.683C1737.31 977.589 1737.33 977.455 1737.35 977.304C1737.43 976.573 1737.5 975.835 1737.44 975.101C1737.17 971.863 1735.75 968.737 1734.22 965.829C1731.07 960.087 1725.82 954.164 1720.28 950.768C1708.43 943.517 1692.19 940.21 1677.07 938.302V938.302C1674.51 937.968 1673.78 934.531 1675.99 933.218L1682.28 929.498C1682.68 929.262 1683.05 928.973 1683.38 928.656C1683.6 928.451 1683.89 928.189 1684.25 927.887C1686.64 925.83 1689.91 925.228 1693.03 925.741C1699.62 926.827 1706.08 928.217 1712.25 930.09C1713.52 930.467 1714.77 930.864 1715.99 931.282C1718.76 932.225 1721.16 934.039 1722.72 936.51C1726.55 942.558 1730.29 950.77 1733.74 961.78C1736.54 970.687 1739.36 978.967 1742.16 986.633C1743.5 990.285 1742 994.432 1738.4 995.886V995.886C1721.02 1003.14 1701.44 1001.81 1683.96 998.501V998.501C1682.58 998.227 1681.5 997.22 1681.09 995.878C1680.62 994.311 1680.14 992.779 1679.65 991.282C1678.34 987.18 1682 983.098 1686.23 983.941C1690.75 984.844 1695.33 985.61 1699.95 986.2C1699.96 986.201 1699.96 986.195 1699.96 986.191V986.191ZM1685.69 1012.83C1685.7 1012.82 1685.7 1012.82 1685.71 1012.82C1692.8 1014.31 1699.9 1015.78 1706.96 1017.31C1723.76 1020.9 1740.62 1024.71 1757.09 1029.01C1759.1 1029.54 1761.05 1031.49 1761.98 1033.35V1033.35C1764.84 1039.1 1759.14 1045.31 1752.93 1043.66C1741.62 1040.66 1730.16 1037.92 1718.7 1035.32C1711.93 1033.78 1705.13 1032.3 1698.31 1030.85C1692.83 1029.67 1688.59 1025.34 1687.35 1019.87C1686.81 1017.47 1686.26 1015.13 1685.68 1012.85C1685.68 1012.84 1685.68 1012.84 1685.69 1012.83V1012.83ZM1693.35 1052.67C1693.35 1052.66 1693.36 1052.65 1693.36 1052.66C1709.69 1056.85 1725.3 1062.22 1740.77 1067.78C1748.74 1070.63 1748.42 1080.56 1740.04 1081.79V1081.79C1739.63 1081.85 1739.04 1081.97 1738.65 1082.11V1082.11C1737.24 1082.59 1735.71 1082.57 1734.31 1082.07C1725.41 1078.85 1716.51 1075.71 1707.47 1072.8C1706.82 1072.59 1706.17 1072.38 1705.51 1072.17C1699.9 1070.39 1695.65 1065.76 1694.61 1059.96C1694.21 1057.68 1693.79 1055.25 1693.35 1052.67C1693.35 1052.67 1693.35 1052.67 1693.35 1052.67V1052.67Z" fill="#FBC333"/>
<path d="M-32 971.091C-16.8426 993.244 -3.42561 1016.38 21.1413 1028.66C26.1575 1031.17 50.4757 1038.55 49.9262 1028.66C49.4783 1020.6 29.8808 1017.81 23.8476 1017.59C9.47775 1017.08 7.856 1023.08 7.856 1036.41C7.856 1048.48 14.3181 1060.75 24.5857 1067.29C30.4237 1071 49.9912 1070.13 56.0768 1066.3C66.3062 1059.86 76.6727 1050.7 82.1554 1039.73C88.0298 1027.98 85.3538 1012.49 85.3538 999.753C85.3538 979.538 85.3538 959.323 85.3538 939.108C85.3538 935.565 95.8711 932.219 99.7462 931.358C109.932 929.095 104.887 933.418 99.5002 941.199C94.6504 948.205 72.4743 962.993 63.7036 955.1C54.6352 946.938 76.0702 940.092 80.4333 940.092C89.0851 940.092 97.737 940.092 106.389 940.092C114.871 940.092 125.81 937.976 132.96 943.537C139.733 948.805 148.423 952.735 156.701 955.1C162.569 956.776 188.414 961.764 193.359 957.314C199.354 951.918 199.476 943.359 209.35 944.521C218.296 945.573 201.754 967 197.787 955.1C196.453 951.096 194.423 943.233 196.311 938.985C198.518 934.019 207.016 934.777 209.35 938.862C217.301 952.777 242.137 963.825 257.079 967.647C282.725 974.207 316.812 978.31 342.204 969.369C350.149 966.572 357.525 963.216 365.207 960.143C367.639 959.17 359.556 959.658 357.703 957.806C348.177 948.28 368.952 946.735 374.31 946.735C378.284 946.735 378.493 949.81 375.417 951.655C371.791 953.831 380.532 956.153 382.06 956.699C405.051 964.91 440.548 963.49 460.541 948.949C476.086 937.644 484.454 922.67 504.826 916.966C523.265 911.803 517.032 929.021 504.334 929.021C499.75 929.021 508.27 918.392 508.27 932.219C508.27 953.783 517.21 972.995 533.734 987.575C547.622 999.83 565.586 1008.21 583.677 1011.93C590.414 1013.32 603.38 1015.51 610.124 1012.67C614.066 1011.01 616.765 1008.73 621.196 1008.73" stroke="#D1C9F7" stroke-width="3" stroke-linecap="round"/>
</g>
<defs>
<clipPath id="clip0_2187_24157">
<rect width="1819" height="1083" fill="white" transform="translate(-28)"/>
</clipPath>
<clipPath id="clip1_2187_24157">
<rect width="281.292" height="281.292" fill="white" transform="matrix(1 0 0 -1 1489 350.292)"/>
</clipPath>
</defs>
</svg>
