<svg width="224" height="573" viewBox="0 0 224 573" fill="none" xmlns="http://www.w3.org/2000/svg">
<g filter="url(#filter0_d_1790_21044)">
<g clip-path="url(#clip0_1790_21044)">
<rect x="3.58594" y="0.984863" width="216.568" height="178.844" rx="20.9582" fill="white"/>
<g filter="url(#filter1_d_1790_21044)">
<rect x="14.0625" y="15.3062" width="195.61" height="115.27" rx="5.87267" fill="#EDFAE7"/>
<path d="M31.1262 57.505V56.1682H37.4253V57.505H35.0008V64.45H33.5507V57.505H31.1262ZM39.7121 64.45H38.3299V56.0209H39.7234V59.5783C40.0746 59.0345 40.7317 58.6833 41.5361 58.6833C42.9183 58.6833 43.6434 59.5557 43.6434 61.0058V64.45H42.2612V61.3344C42.2612 60.394 41.7967 59.9409 41.0943 59.9409C40.2219 59.9409 39.7121 60.5526 39.7121 61.391V64.45ZM47.5052 64.5972C45.8398 64.5972 44.6729 63.385 44.6729 61.6516C44.6729 59.8955 45.8171 58.6833 47.4599 58.6833C49.1366 58.6833 50.2016 59.8049 50.2016 61.5496V61.9688L45.9871 61.9801C46.089 62.9658 46.6102 63.4643 47.5279 63.4643C48.2869 63.4643 48.7854 63.1697 48.944 62.6372H50.2243C49.9863 63.8608 48.9667 64.5972 47.5052 64.5972ZM47.4712 59.8162C46.6555 59.8162 46.157 60.2581 46.0211 61.0965H48.8307C48.8307 60.3261 48.2983 59.8162 47.4712 59.8162ZM54.5087 61.425V56.1682H55.9589V61.3344C55.9589 62.524 56.6047 63.1811 57.7829 63.1811C58.9612 63.1811 59.6183 62.5126 59.6183 61.3344V56.1682H61.0684V61.425C61.0684 63.3623 59.7995 64.5859 57.7829 64.5859C55.7776 64.5859 54.5087 63.3737 54.5087 61.425ZM64.0418 64.45H62.6709V56.0209H64.0418V64.45ZM67.395 64.45H66.0128V60.0088H64.9365V58.8532H66.0128V57.1085H67.395V58.8532H68.4826V60.0088H67.395V64.45ZM70.033 57.7316C69.5571 57.7316 69.1833 57.3578 69.1833 56.8933C69.1833 56.4287 69.5571 56.0662 70.033 56.0662C70.4862 56.0662 70.86 56.4287 70.86 56.8933C70.86 57.3578 70.4862 57.7316 70.033 57.7316ZM69.3419 64.45V58.8532H70.7241V64.45H69.3419ZM73.5343 64.45H72.1521V58.8532H73.421L73.5343 59.5103C73.8175 59.0458 74.384 58.6833 75.1884 58.6833C76.0381 58.6833 76.6272 59.1025 76.9218 59.7483C77.205 59.1025 77.8621 58.6833 78.7118 58.6833C80.0713 58.6833 80.8191 59.499 80.8191 60.7906V64.45H79.4482V61.1531C79.4482 60.3487 79.0177 59.9295 78.3606 59.9295C77.6922 59.9295 77.1824 60.36 77.1824 61.2777V64.45H75.8002V61.1418C75.8002 60.36 75.381 59.9409 74.7239 59.9409C74.0668 59.9409 73.5343 60.3714 73.5343 61.2777V64.45ZM83.8414 64.5972C82.6518 64.5972 81.9267 63.9061 81.9267 62.8525C81.9267 61.8215 82.6745 61.1758 84 61.0738L85.6767 60.9492V60.8245C85.6767 60.0655 85.2236 59.7596 84.5211 59.7596C83.7054 59.7596 83.2523 60.0995 83.2523 60.6886H82.074C82.074 59.4764 83.071 58.6833 84.5891 58.6833C86.0959 58.6833 87.0249 59.499 87.0249 61.0511V64.45H85.8127L85.7107 63.6229C85.4728 64.2007 84.7137 64.5972 83.8414 64.5972ZM84.2946 63.5549C85.1443 63.5549 85.6881 63.0451 85.6881 62.1841V61.8895L84.5211 61.9801C83.6601 62.0595 83.3316 62.3427 83.3316 62.7959C83.3316 63.3057 83.6714 63.5549 84.2946 63.5549ZM90.2087 64.45H88.8265V60.0088H87.7502V58.8532H88.8265V57.1085H90.2087V58.8532H91.2963V60.0088H90.2087V64.45ZM94.604 64.5972C92.9386 64.5972 91.7717 63.385 91.7717 61.6516C91.7717 59.8955 92.9159 58.6833 94.5587 58.6833C96.2355 58.6833 97.3004 59.8049 97.3004 61.5496V61.9688L93.0859 61.9801C93.1879 62.9658 93.709 63.4643 94.6267 63.4643C95.3858 63.4643 95.8842 63.1697 96.0429 62.6372H97.3231C97.0852 63.8608 96.0655 64.5972 94.604 64.5972ZM94.57 59.8162C93.7543 59.8162 93.2558 60.2581 93.1199 61.0965H95.9296C95.9296 60.3261 95.3971 59.8162 94.57 59.8162ZM105.29 57.3917C103.647 57.3917 102.706 58.5813 102.706 60.3714C102.706 62.2181 103.771 63.2264 105.301 63.2264C106.74 63.2264 107.612 62.4333 107.612 61.1078V61.0738H105.108V59.7936H108.96V64.45H107.737L107.646 63.4983C107.193 64.1327 106.253 64.5746 105.131 64.5746C102.808 64.5746 101.188 62.8865 101.188 60.3374C101.188 57.8223 102.831 56.0322 105.324 56.0322C107.216 56.0322 108.677 57.1312 108.915 58.8192H107.386C107.125 57.8449 106.287 57.3917 105.29 57.3917ZM114.118 58.8532H115.5V64.45H114.22L114.118 63.7022C113.778 64.2347 113.053 64.5972 112.305 64.5972C111.013 64.5972 110.254 63.7249 110.254 62.354V58.8532H111.637V61.8669C111.637 62.9318 112.056 63.3623 112.826 63.3623C113.699 63.3623 114.118 62.8525 114.118 61.7875V58.8532ZM117.619 57.7316C117.143 57.7316 116.769 57.3578 116.769 56.8933C116.769 56.4287 117.143 56.0662 117.619 56.0662C118.072 56.0662 118.446 56.4287 118.446 56.8933C118.446 57.3578 118.072 57.7316 117.619 57.7316ZM116.928 64.45V58.8532H118.31V64.45H116.928ZM122.038 64.5972C120.418 64.5972 119.409 63.4076 119.409 61.6743C119.409 59.9295 120.429 58.6833 122.117 58.6833C122.899 58.6833 123.59 59.0118 123.941 59.567V56.0209H125.312V64.45H124.043L123.952 63.5776C123.612 64.2234 122.887 64.5972 122.038 64.5972ZM122.343 63.3283C123.306 63.3283 123.93 62.6372 123.93 61.6289C123.93 60.6206 123.306 59.9182 122.343 59.9182C121.38 59.9182 120.791 60.6319 120.791 61.6289C120.791 62.6259 121.38 63.3283 122.343 63.3283ZM129.256 64.5972C127.591 64.5972 126.424 63.385 126.424 61.6516C126.424 59.8955 127.568 58.6833 129.211 58.6833C130.887 58.6833 131.952 59.8049 131.952 61.5496V61.9688L127.738 61.9801C127.84 62.9658 128.361 63.4643 129.279 63.4643C130.038 63.4643 130.536 63.1697 130.695 62.6372H131.975C131.737 63.8608 130.718 64.5972 129.256 64.5972ZM129.222 59.8162C128.406 59.8162 127.908 60.2581 127.772 61.0965H130.582C130.582 60.3261 130.049 59.8162 129.222 59.8162ZM138.016 64.45H136.633V60.0088H135.557V58.8532H136.633V57.1085H138.016V58.8532H139.103V60.0088H138.016V64.45ZM139.579 61.6403C139.579 59.8955 140.836 58.6946 142.57 58.6946C144.303 58.6946 145.561 59.8955 145.561 61.6403C145.561 63.385 144.303 64.5859 142.57 64.5859C140.836 64.5859 139.579 63.385 139.579 61.6403ZM140.961 61.6403C140.961 62.6599 141.618 63.351 142.57 63.351C143.521 63.351 144.178 62.6599 144.178 61.6403C144.178 60.6206 143.521 59.9295 142.57 59.9295C141.618 59.9295 140.961 60.6206 140.961 61.6403ZM31.8513 78.45V70.1682H35.1481C36.7796 70.1682 37.7765 71.0179 37.7765 72.4001C37.7765 73.3177 37.3687 73.9748 36.587 74.3034C37.4593 74.5866 37.9012 75.2437 37.9012 76.2067C37.9012 77.6229 36.9155 78.45 35.2048 78.45H31.8513ZM35.0235 71.4484H33.3014V73.7029H35.0575C35.8505 73.7029 36.2924 73.2838 36.2924 72.5473C36.2924 71.8336 35.8392 71.4484 35.0235 71.4484ZM35.1481 74.9265H33.3014V77.1697H35.1481C35.9638 77.1697 36.417 76.7732 36.417 76.0255C36.417 75.323 35.9525 74.9265 35.1481 74.9265ZM40.6924 78.5972C39.5028 78.5972 38.7777 77.9061 38.7777 76.8525C38.7777 75.8215 39.5254 75.1758 40.851 75.0738L42.5277 74.9492V74.8245C42.5277 74.0655 42.0745 73.7596 41.3721 73.7596C40.5564 73.7596 40.1032 74.0995 40.1032 74.6886H38.925C38.925 73.4764 39.922 72.6833 41.4401 72.6833C42.9469 72.6833 43.8759 73.499 43.8759 75.0511V78.45H42.6637L42.5617 77.6229C42.3238 78.2007 41.5647 78.5972 40.6924 78.5972ZM41.1455 77.5549C41.9952 77.5549 42.539 77.0451 42.539 76.1841V75.8895L41.3721 75.9801C40.5111 76.0595 40.1825 76.3427 40.1825 76.7959C40.1825 77.3057 40.5224 77.5549 41.1455 77.5549ZM46.6273 78.45H45.2564V70.0209H46.6273V78.45ZM49.7426 78.5972C48.553 78.5972 47.8279 77.9061 47.8279 76.8525C47.8279 75.8215 48.5757 75.1758 49.9012 75.0738L51.5779 74.9492V74.8245C51.5779 74.0655 51.1248 73.7596 50.4223 73.7596C49.6066 73.7596 49.1535 74.0995 49.1535 74.6886H47.9752C47.9752 73.4764 48.9722 72.6833 50.4903 72.6833C51.9971 72.6833 52.9261 73.499 52.9261 75.0511V78.45H51.7139L51.6119 77.6229C51.374 78.2007 50.6149 78.5972 49.7426 78.5972ZM50.1958 77.5549C51.0455 77.5549 51.5893 77.0451 51.5893 76.1841V75.8895L50.4223 75.9801C49.5613 76.0595 49.2328 76.3427 49.2328 76.7959C49.2328 77.3057 49.5726 77.5549 50.1958 77.5549ZM55.6662 78.45H54.284V72.8532H55.5642L55.6775 73.5783C56.0287 73.0118 56.7085 72.6833 57.4675 72.6833C58.8724 72.6833 59.5975 73.5557 59.5975 75.0058V78.45H58.2153V75.3344C58.2153 74.394 57.7508 73.9409 57.037 73.9409C56.1873 73.9409 55.6662 74.53 55.6662 75.4363V78.45ZM60.6269 75.6403C60.6269 73.9069 61.7712 72.6833 63.4253 72.6833C64.9548 72.6833 65.9971 73.533 66.1443 74.8812H64.7622C64.6036 74.2467 64.139 73.9182 63.4819 73.9182C62.5982 73.9182 62.0091 74.5866 62.0091 75.6403C62.0091 76.6939 62.5529 77.351 63.4366 77.351C64.1277 77.351 64.6149 77.0111 64.7622 76.3993H66.1557C65.9857 77.7022 64.8981 78.5972 63.4366 78.5972C61.7372 78.5972 60.6269 77.419 60.6269 75.6403ZM69.6882 78.5972C68.0228 78.5972 66.8559 77.385 66.8559 75.6516C66.8559 73.8955 68.0002 72.6833 69.6429 72.6833C71.3197 72.6833 72.3846 73.8049 72.3846 75.5496V75.9688L68.1701 75.9801C68.2721 76.9658 68.7932 77.4643 69.7109 77.4643C70.47 77.4643 70.9685 77.1697 71.1271 76.6372H72.4073C72.1694 77.8608 71.1497 78.5972 69.6882 78.5972ZM69.6542 73.8162C68.8385 73.8162 68.34 74.2581 68.2041 75.0965H71.0138C71.0138 74.3261 70.4813 73.8162 69.6542 73.8162ZM75.7907 78.5972C74.1706 78.5972 73.1623 77.4076 73.1623 75.6743C73.1623 73.9295 74.1819 72.6833 75.87 72.6833C76.6517 72.6833 77.3428 73.0118 77.694 73.567V70.0209H79.0649V78.45H77.796L77.7054 77.5776C77.3655 78.2234 76.6404 78.5972 75.7907 78.5972ZM76.0966 77.3283C77.0596 77.3283 77.6827 76.6372 77.6827 75.6289C77.6827 74.6206 77.0596 73.9182 76.0966 73.9182C75.1336 73.9182 74.5445 74.6319 74.5445 75.6289C74.5445 76.6259 75.1336 77.3283 76.0966 77.3283ZM88.9064 78.45H83.7629V70.1682H88.9064V71.505H85.213V73.635H88.5212V74.9152H85.213V77.1131H88.9064V78.45ZM91.9401 78.5972C90.7505 78.5972 90.0255 77.9061 90.0255 76.8525C90.0255 75.8215 90.7732 75.1758 92.0987 75.0738L93.7755 74.9492V74.8245C93.7755 74.0655 93.3223 73.7596 92.6199 73.7596C91.8042 73.7596 91.351 74.0995 91.351 74.6886H90.1727C90.1727 73.4764 91.1697 72.6833 92.6879 72.6833C94.1947 72.6833 95.1237 73.499 95.1237 75.0511V78.45H93.9114L93.8095 77.6229C93.5715 78.2007 92.8125 78.5972 91.9401 78.5972ZM92.3933 77.5549C93.243 77.5549 93.7868 77.0451 93.7868 76.1841V75.8895L92.6199 75.9801C91.7588 76.0595 91.4303 76.3427 91.4303 76.7959C91.4303 77.3057 91.7702 77.5549 92.3933 77.5549ZM98.3074 78.45H96.9252V74.0088H95.8489V72.8532H96.9252V71.1085H98.3074V72.8532H99.395V74.0088H98.3074V78.45ZM100.945 71.7316C100.47 71.7316 100.096 71.3578 100.096 70.8933C100.096 70.4287 100.47 70.0662 100.945 70.0662C101.399 70.0662 101.772 70.4287 101.772 70.8933C101.772 71.3578 101.399 71.7316 100.945 71.7316ZM100.254 78.45V72.8532H101.636V78.45H100.254ZM104.447 78.45H103.065V72.8532H104.345L104.458 73.5783C104.809 73.0118 105.489 72.6833 106.248 72.6833C107.653 72.6833 108.378 73.5557 108.378 75.0058V78.45H106.996V75.3344C106.996 74.394 106.531 73.9409 105.818 73.9409C104.968 73.9409 104.447 74.53 104.447 75.4363V78.45ZM109.419 75.527C109.419 73.8955 110.484 72.672 112.081 72.672C112.92 72.672 113.577 73.0232 113.905 73.6236L113.985 72.8532H115.265V78.1667C115.265 80.0361 114.143 81.203 112.33 81.203C110.722 81.203 109.623 80.2853 109.453 78.7898H110.835C110.926 79.5149 111.481 79.9454 112.33 79.9454C113.282 79.9454 113.894 79.345 113.894 78.416V77.487C113.543 78.0081 112.852 78.3367 112.047 78.3367C110.461 78.3367 109.419 77.1471 109.419 75.527ZM110.812 75.493C110.812 76.4333 111.413 77.1357 112.319 77.1357C113.271 77.1357 113.86 76.4673 113.86 75.493C113.86 74.5413 113.282 73.8842 112.319 73.8842C111.401 73.8842 110.812 74.5753 110.812 75.493ZM117.737 74.462C117.239 74.462 116.82 74.0541 116.82 73.567C116.82 73.0685 117.239 72.6606 117.737 72.6606C118.236 72.6606 118.655 73.0685 118.655 73.567C118.655 74.0541 118.236 74.462 117.737 74.462ZM117.737 78.5859C117.239 78.5859 116.82 78.178 116.82 77.6909C116.82 77.1924 117.239 76.7845 117.737 76.7845C118.236 76.7845 118.655 77.1924 118.655 77.6909C118.655 78.178 118.236 78.5859 117.737 78.5859ZM125.193 78.45L122.723 70.1682H124.23L125.544 74.5413C125.669 74.9945 125.794 75.459 125.918 76.1841C126.054 75.4477 126.179 75.0171 126.326 74.5413L127.629 70.1682H129.226L130.507 74.5413C130.643 75.0058 130.767 75.4817 130.903 76.1841C131.062 75.4137 131.175 74.9718 131.3 74.5526L132.637 70.1682H134.109L131.594 78.45H130.189L128.422 72.4227L126.621 78.45H125.193ZM136.377 78.45H134.995V70.0209H136.388V73.5783C136.74 73.0345 137.397 72.6833 138.201 72.6833C139.583 72.6833 140.308 73.5557 140.308 75.0058V78.45H138.926V75.3344C138.926 74.394 138.462 73.9409 137.759 73.9409C136.887 73.9409 136.377 74.5526 136.377 75.391V78.45ZM143.332 78.5972C142.142 78.5972 141.417 77.9061 141.417 76.8525C141.417 75.8215 142.165 75.1758 143.49 75.0738L145.167 74.9492V74.8245C145.167 74.0655 144.714 73.7596 144.011 73.7596C143.196 73.7596 142.743 74.0995 142.743 74.6886H141.564C141.564 73.4764 142.561 72.6833 144.079 72.6833C145.586 72.6833 146.515 73.499 146.515 75.0511V78.45H145.303L145.201 77.6229C144.963 78.2007 144.204 78.5972 143.332 78.5972ZM143.785 77.5549C144.635 77.5549 145.178 77.0451 145.178 76.1841V75.8895L144.011 75.9801C143.15 76.0595 142.822 76.3427 142.822 76.7959C142.822 77.3057 143.162 77.5549 143.785 77.5549ZM149.699 78.45H148.317V74.0088H147.241V72.8532H148.317V71.1085H149.699V72.8532H150.787V74.0088H149.699V78.45ZM156.897 75.1871L154.099 70.1682H155.719L157.351 73.1818C157.475 73.4084 157.555 73.5896 157.645 73.7936C157.747 73.5896 157.792 73.4537 157.94 73.1818L159.56 70.1682H161.135L158.348 75.1871V78.45H156.897V75.1871ZM160.456 75.6403C160.456 73.8955 161.714 72.6946 163.447 72.6946C165.18 72.6946 166.438 73.8955 166.438 75.6403C166.438 77.385 165.18 78.5859 163.447 78.5859C161.714 78.5859 160.456 77.385 160.456 75.6403ZM161.838 75.6403C161.838 76.6599 162.495 77.351 163.447 77.351C164.399 77.351 165.056 76.6599 165.056 75.6403C165.056 74.6206 164.399 73.9295 163.447 73.9295C162.495 73.9295 161.838 74.6206 161.838 75.6403ZM171.196 72.8532H172.578V78.45H171.298L171.196 77.7022C170.856 78.2347 170.131 78.5972 169.383 78.5972C168.092 78.5972 167.333 77.7249 167.333 76.354V72.8532H168.715V75.8669C168.715 76.9318 169.134 77.3623 169.905 77.3623C170.777 77.3623 171.196 76.8525 171.196 75.7875V72.8532ZM177.518 72.8306V74.1108H177.008C176.011 74.1108 175.388 74.6433 175.388 75.7309V78.45H174.006V72.8646H175.309L175.388 73.6803C175.626 73.1251 176.159 72.7513 176.906 72.7513C177.099 72.7513 177.291 72.7739 177.518 72.8306ZM35.1255 89.5949H33.3014V92.45H31.8513V84.1682H35.1255C36.7909 84.1682 37.8672 85.2558 37.8672 86.8759C37.8672 88.4733 36.7796 89.5949 35.1255 89.5949ZM34.8422 85.4597H33.3014V88.3034H34.8196C35.8166 88.3034 36.349 87.7709 36.349 86.8646C36.349 85.9582 35.8052 85.4597 34.8422 85.4597ZM40.2766 92.45H38.9058V84.0209H40.2766V92.45ZM43.3919 92.5972C42.2023 92.5972 41.4773 91.9061 41.4773 90.8525C41.4773 89.8215 42.225 89.1758 43.5505 89.0738L45.2273 88.9492V88.8245C45.2273 88.0655 44.7741 87.7596 44.0717 87.7596C43.256 87.7596 42.8028 88.0995 42.8028 88.6886H41.6245C41.6245 87.4764 42.6215 86.6833 44.1397 86.6833C45.6465 86.6833 46.5755 87.499 46.5755 89.0511V92.45H45.3632L45.2613 91.6229C45.0234 92.2007 44.2643 92.5972 43.3919 92.5972ZM43.8451 91.5549C44.6948 91.5549 45.2386 91.0451 45.2386 90.1841V89.8895L44.0717 89.9801C43.2107 90.0595 42.8821 90.3427 42.8821 90.7959C42.8821 91.3057 43.222 91.5549 43.8451 91.5549ZM49.7592 92.45H48.377V88.0088H47.3007V86.8532H48.377V85.1085H49.7592V86.8532H50.8468V88.0088H49.7592V92.45ZM54.1546 92.5972C52.4892 92.5972 51.3222 91.385 51.3222 89.6516C51.3222 87.8955 52.4665 86.6833 54.1093 86.6833C55.786 86.6833 56.851 87.8049 56.851 89.5496V89.9688L52.6364 89.9801C52.7384 90.9658 53.2596 91.4643 54.1772 91.4643C54.9363 91.4643 55.4348 91.1697 55.5934 90.6372H56.8736C56.6357 91.8608 55.6161 92.5972 54.1546 92.5972ZM54.1206 87.8162C53.3049 87.8162 52.8064 88.2581 52.6704 89.0965H55.4801C55.4801 88.3261 54.9476 87.8162 54.1206 87.8162ZM60.7389 86.4794C60.7389 85.0292 61.9398 84.0209 63.6845 84.0209C65.3613 84.0209 66.4263 84.9499 66.4716 86.4454H65.0214C64.9874 85.7316 64.4776 85.3124 63.6619 85.3124C62.7669 85.3124 62.1891 85.743 62.1891 86.434C62.1891 87.0232 62.5063 87.3517 63.1974 87.5103L64.5003 87.7936C65.9164 88.0995 66.6075 88.8245 66.6075 90.0595C66.6075 91.6002 65.4066 92.5972 63.5826 92.5972C61.8152 92.5972 60.6596 91.6569 60.6256 90.1727H62.0758C62.0871 90.8752 62.6536 91.2944 63.5826 91.2944C64.5456 91.2944 65.1574 90.8752 65.1574 90.1841C65.1574 89.6289 64.8741 89.3004 64.1944 89.1531L62.8802 88.8585C61.4753 88.5526 60.7389 87.7483 60.7389 86.4794ZM69.0977 92.45H67.7155V84.0209H69.109V87.5783C69.4602 87.0345 70.1173 86.6833 70.9217 86.6833C72.3039 86.6833 73.029 87.5557 73.029 89.0058V92.45H71.6468V89.3344C71.6468 88.394 71.1823 87.9409 70.4799 87.9409C69.6075 87.9409 69.0977 88.5526 69.0977 89.391V92.45ZM74.0585 89.6403C74.0585 87.8955 75.316 86.6946 77.0494 86.6946C78.7828 86.6946 80.0404 87.8955 80.0404 89.6403C80.0404 91.385 78.7828 92.5859 77.0494 92.5859C75.316 92.5859 74.0585 91.385 74.0585 89.6403ZM75.4406 89.6403C75.4406 90.6599 76.0977 91.351 77.0494 91.351C78.0011 91.351 78.6582 90.6599 78.6582 89.6403C78.6582 88.6206 78.0011 87.9295 77.0494 87.9295C76.0977 87.9295 75.4406 88.6206 75.4406 89.6403ZM84.7985 86.8532H86.1807V92.45H84.9005L84.7985 91.7022C84.4587 92.2347 83.7336 92.5972 82.9858 92.5972C81.6943 92.5972 80.9352 91.7249 80.9352 90.354V86.8532H82.3174V89.8669C82.3174 90.9318 82.7366 91.3623 83.507 91.3623C84.3793 91.3623 84.7985 90.8525 84.7985 89.7875V86.8532ZM89.0018 92.45H87.631V84.0209H89.0018V92.45ZM92.7516 92.5972C91.1315 92.5972 90.1232 91.4076 90.1232 89.6743C90.1232 87.9295 91.1428 86.6833 92.8309 86.6833C93.6126 86.6833 94.3037 87.0118 94.6549 87.567V84.0209H96.0258V92.45H94.7569L94.6663 91.5776C94.3264 92.2234 93.6013 92.5972 92.7516 92.5972ZM93.0575 91.3283C94.0205 91.3283 94.6436 90.6372 94.6436 89.6289C94.6436 88.6206 94.0205 87.9182 93.0575 87.9182C92.0945 87.9182 91.5054 88.6319 91.5054 89.6289C91.5054 90.6259 92.0945 91.3283 93.0575 91.3283ZM102.174 84.1682V91.1131H105.641V92.45H100.724V84.1682H102.174ZM106.177 89.6403C106.177 87.8955 107.434 86.6946 109.168 86.6946C110.901 86.6946 112.159 87.8955 112.159 89.6403C112.159 91.385 110.901 92.5859 109.168 92.5859C107.434 92.5859 106.177 91.385 106.177 89.6403ZM107.559 89.6403C107.559 90.6599 108.216 91.351 109.168 91.351C110.119 91.351 110.777 90.6599 110.777 89.6403C110.777 88.6206 110.119 87.9295 109.168 87.9295C108.216 87.9295 107.559 88.6206 107.559 89.6403ZM112.926 89.6403C112.926 87.8955 114.183 86.6946 115.917 86.6946C117.65 86.6946 118.908 87.8955 118.908 89.6403C118.908 91.385 117.65 92.5859 115.917 92.5859C114.183 92.5859 112.926 91.385 112.926 89.6403ZM114.308 89.6403C114.308 90.6599 114.965 91.351 115.917 91.351C116.868 91.351 117.525 90.6599 117.525 89.6403C117.525 88.6206 116.868 87.9295 115.917 87.9295C114.965 87.9295 114.308 88.6206 114.308 89.6403ZM121.397 92.45H120.026V84.0209H121.397V89.1984L123.572 86.8532H125.305L123.175 89.0738L125.26 92.45H123.674L122.213 90.0934L121.397 90.9431V92.45ZM130.807 84.1682V91.1131H134.274V92.45H129.357V84.1682H130.807ZM135.94 85.7316C135.465 85.7316 135.091 85.3578 135.091 84.8933C135.091 84.4287 135.465 84.0662 135.94 84.0662C136.394 84.0662 136.767 84.4287 136.767 84.8933C136.767 85.3578 136.394 85.7316 135.94 85.7316ZM135.249 92.45V86.8532H136.631V92.45H135.249ZM139.453 92.45H138.082V84.0209H139.453V89.1984L141.628 86.8532H143.362L141.232 89.0738L143.316 92.45H141.73L140.269 90.0934L139.453 90.9431V92.45ZM146.405 92.5972C144.74 92.5972 143.573 91.385 143.573 89.6516C143.573 87.8955 144.717 86.6833 146.36 86.6833C148.036 86.6833 149.101 87.8049 149.101 89.5496V89.9688L144.887 89.9801C144.989 90.9658 145.51 91.4643 146.428 91.4643C147.187 91.4643 147.685 91.1697 147.844 90.6372H149.124C148.886 91.8608 147.866 92.5972 146.405 92.5972ZM146.371 87.8162C145.555 87.8162 145.057 88.2581 144.921 89.0965H147.731C147.731 88.3261 147.198 87.8162 146.371 87.8162Z" fill="#0C2503"/>
<path d="M32.396 111.436H31.6085V105.627H32.396L35.3689 110.118V105.627H36.1564V111.436H35.3689L32.396 106.944V111.436ZM40.0965 107.507H40.8438V111.436H40.1689L40.0885 110.841C39.8635 111.251 39.3413 111.532 38.7627 111.532C37.8467 111.532 37.3325 110.914 37.3325 109.95V107.507H38.0878V109.7C38.0878 110.544 38.4494 110.866 39.0279 110.866C39.7189 110.866 40.0965 110.424 40.0965 109.58V107.507ZM43.0485 111.436H42.2932V108.142H41.5218V107.507H42.2932V106.278H43.0485V107.507H43.8198V108.142H43.0485V111.436ZM46.7475 107.475V108.166H46.41C45.6949 108.166 45.253 108.6 45.253 109.355V111.436H44.4977V107.515H45.2048L45.253 108.11C45.4137 107.7 45.8074 107.427 46.3457 107.427C46.4823 107.427 46.5948 107.443 46.7475 107.475ZM47.8255 106.575C47.5523 106.575 47.3273 106.35 47.3273 106.077C47.3273 105.795 47.5523 105.578 47.8255 105.578C48.0987 105.578 48.3237 105.795 48.3237 106.077C48.3237 106.35 48.0987 106.575 47.8255 106.575ZM47.4559 111.436V107.507H48.2112V111.436H47.4559ZM50.4165 111.436H49.6613V108.142H48.8899V107.507H49.6613V106.278H50.4165V107.507H51.1879V108.142H50.4165V111.436ZM52.2354 106.575C51.9622 106.575 51.7372 106.35 51.7372 106.077C51.7372 105.795 51.9622 105.578 52.2354 105.578C52.5085 105.578 52.7335 105.795 52.7335 106.077C52.7335 106.35 52.5085 106.575 52.2354 106.575ZM51.8657 111.436V107.507H52.621V111.436H51.8657ZM53.4604 109.467C53.4604 108.254 54.3282 107.402 55.5094 107.402C56.6825 107.402 57.5503 108.254 57.5503 109.467C57.5503 110.681 56.6825 111.532 55.5094 111.532C54.3282 111.532 53.4604 110.681 53.4604 109.467ZM54.2238 109.467C54.2238 110.287 54.7461 110.858 55.5094 110.858C56.2647 110.858 56.795 110.287 56.795 109.467C56.795 108.648 56.2647 108.077 55.5094 108.077C54.7461 108.077 54.2238 108.648 54.2238 109.467ZM61.008 107.507H61.7553V111.436H61.0804L61 110.841C60.775 111.251 60.2528 111.532 59.6742 111.532C58.7582 111.532 58.244 110.914 58.244 109.95V107.507H58.9993V109.7C58.9993 110.544 59.3609 110.866 59.9394 110.866C60.6304 110.866 61.008 110.424 61.008 109.58V107.507ZM62.4513 110.295H63.1744C63.1744 110.697 63.4798 110.938 63.9779 110.938C64.5082 110.938 64.8136 110.721 64.8136 110.359C64.8136 110.094 64.685 109.933 64.2752 109.829L63.5842 109.668C62.8852 109.5 62.5557 109.154 62.5557 108.576C62.5557 107.852 63.1664 107.394 64.0342 107.394C64.8939 107.394 65.4564 107.877 65.4724 108.624H64.7493C64.7332 108.23 64.4681 107.981 64.0101 107.981C63.536 107.981 63.2708 108.19 63.2708 108.551C63.2708 108.817 63.4637 108.993 63.8494 109.09L64.5404 109.259C65.2073 109.419 65.5367 109.725 65.5367 110.311C65.5367 111.058 64.8939 111.532 63.9619 111.532C63.0378 111.532 62.4513 111.042 62.4513 110.295ZM69.2544 111.436H68.5714V105.522H69.3267V108.182C69.5838 107.668 70.1141 107.394 70.7569 107.394C71.8818 107.394 72.5568 108.278 72.5568 109.492C72.5568 110.681 71.8497 111.532 70.7087 111.532C70.09 111.532 69.5677 111.259 69.3106 110.721L69.2544 111.436ZM69.3347 109.459C69.3347 110.279 69.8008 110.849 70.5721 110.849C71.3435 110.849 71.8015 110.271 71.8015 109.459C71.8015 108.656 71.3435 108.077 70.5721 108.077C69.8008 108.077 69.3347 108.656 69.3347 109.459ZM75.0847 111.532C73.9276 111.532 73.1322 110.697 73.1322 109.475C73.1322 108.246 73.9116 107.394 75.0525 107.394C76.1694 107.394 76.9006 108.166 76.9006 109.331V109.612L73.8633 109.62C73.9196 110.448 74.3535 110.906 75.1007 110.906C75.6873 110.906 76.073 110.665 76.2015 110.215H76.9086C76.7158 111.058 76.0569 111.532 75.0847 111.532ZM75.0525 108.029C74.3937 108.029 73.9758 108.423 73.8794 109.114H76.1453C76.1453 108.463 75.7194 108.029 75.0525 108.029ZM78.854 111.532C78.0103 111.532 77.5121 111.058 77.5121 110.343C77.5121 109.62 78.0505 109.17 78.9745 109.098L80.2119 109.001V108.889C80.2119 108.23 79.8182 107.997 79.2879 107.997C78.6531 107.997 78.2915 108.278 78.2915 108.752H77.6327C77.6327 107.933 78.3076 107.394 79.32 107.394C80.2923 107.394 80.9511 107.909 80.9511 108.969V111.436H80.3083L80.228 110.801C80.0271 111.251 79.4888 111.532 78.854 111.532ZM79.0709 110.946C79.786 110.946 80.2199 110.48 80.2199 109.741V109.532L79.2156 109.612C78.5487 109.676 78.2755 109.933 78.2755 110.319C78.2755 110.737 78.5808 110.946 79.0709 110.946ZM82.7524 111.436H81.9971V107.507H82.6801L82.7605 108.11C83.0095 107.66 83.5077 107.394 84.0621 107.394C85.0987 107.394 85.5727 108.029 85.5727 109.034V111.436H84.8174V109.202C84.8174 108.407 84.4478 108.085 83.8693 108.085C83.1622 108.085 82.7524 108.592 82.7524 109.355V111.436ZM88.5588 109.475C88.5588 108.246 89.3382 107.394 90.4872 107.394C91.4755 107.394 92.1665 107.957 92.3031 108.833H91.5478C91.4193 108.335 91.0175 108.069 90.5113 108.069C89.7962 108.069 89.3061 108.616 89.3061 109.467C89.3061 110.311 89.7641 110.858 90.4792 110.858C91.0175 110.858 91.4193 110.576 91.5559 110.11H92.3112C92.1585 110.962 91.4273 111.532 90.4792 111.532C89.3221 111.532 88.5588 110.713 88.5588 109.475ZM94.2571 111.532C93.4134 111.532 92.9152 111.058 92.9152 110.343C92.9152 109.62 93.4536 109.17 94.3776 109.098L95.615 109.001V108.889C95.615 108.23 95.2213 107.997 94.691 107.997C94.0562 107.997 93.6946 108.278 93.6946 108.752H93.0358C93.0358 107.933 93.7107 107.394 94.7231 107.394C95.6954 107.394 96.3542 107.909 96.3542 108.969V111.436H95.7114L95.6311 110.801C95.4302 111.251 94.8919 111.532 94.2571 111.532ZM94.474 110.946C95.1891 110.946 95.623 110.48 95.623 109.741V109.532L94.6187 109.612C93.9518 109.676 93.6786 109.933 93.6786 110.319C93.6786 110.737 93.9839 110.946 94.474 110.946ZM98.1716 111.436H97.4163V105.522H98.1716V109.355L99.9152 107.507H100.863L99.3608 109.074L100.855 111.436H99.9875L98.8385 109.62L98.1716 110.319V111.436ZM103.027 111.532C101.87 111.532 101.074 110.697 101.074 109.475C101.074 108.246 101.854 107.394 102.995 107.394C104.112 107.394 104.843 108.166 104.843 109.331V109.612L101.805 109.62C101.862 110.448 102.296 110.906 103.043 110.906C103.629 110.906 104.015 110.665 104.144 110.215H104.851C104.658 111.058 103.999 111.532 103.027 111.532ZM102.995 108.029C102.336 108.029 101.918 108.423 101.822 109.114H104.087C104.087 108.463 103.662 108.029 102.995 108.029ZM108.639 111.428H107.883V105.522H108.639V108.11C108.888 107.684 109.362 107.394 109.973 107.394C110.977 107.394 111.459 108.029 111.459 109.034V111.436H110.704V109.202C110.704 108.407 110.326 108.085 109.764 108.085C109.032 108.085 108.639 108.616 108.639 109.291V111.428ZM112.875 106.575C112.602 106.575 112.377 106.35 112.377 106.077C112.377 105.795 112.602 105.578 112.875 105.578C113.148 105.578 113.373 105.795 113.373 106.077C113.373 106.35 113.148 106.575 112.875 106.575ZM112.505 111.436V107.507H113.26V111.436H112.505ZM114.108 109.371C114.108 108.262 114.823 107.394 115.964 107.394C116.599 107.394 117.089 107.684 117.338 108.174L117.394 107.507H118.069V111.275C118.069 112.513 117.306 113.3 116.101 113.3C115.032 113.3 114.301 112.698 114.156 111.701H114.911C115.008 112.28 115.442 112.617 116.101 112.617C116.84 112.617 117.322 112.135 117.322 111.388V110.6C117.065 111.058 116.551 111.332 115.932 111.332C114.815 111.332 114.108 110.472 114.108 109.371ZM114.863 109.355C114.863 110.094 115.321 110.673 116.06 110.673C116.824 110.673 117.29 110.126 117.29 109.355C117.29 108.6 116.84 108.053 116.068 108.053C115.313 108.053 114.863 108.632 114.863 109.355ZM119.914 111.428H119.159V105.522H119.914V108.11C120.164 107.684 120.638 107.394 121.248 107.394C122.253 107.394 122.735 108.029 122.735 109.034V111.436H121.979V109.202C121.979 108.407 121.602 108.085 121.039 108.085C120.308 108.085 119.914 108.616 119.914 109.291V111.428ZM126.348 106.575C126.074 106.575 125.849 106.35 125.849 106.077C125.849 105.795 126.074 105.578 126.348 105.578C126.621 105.578 126.846 105.795 126.846 106.077C126.846 106.35 126.621 106.575 126.348 106.575ZM125.978 111.436V107.507H126.733V111.436H125.978ZM128.585 111.436H127.83V107.507H128.513L128.593 108.11C128.842 107.66 129.34 107.394 129.895 107.394C130.931 107.394 131.405 108.029 131.405 109.034V111.436H130.65V109.202C130.65 108.407 130.28 108.085 129.702 108.085C128.995 108.085 128.585 108.592 128.585 109.355V111.436ZM134.649 113.196V107.507H135.332L135.388 108.214C135.653 107.676 136.183 107.394 136.81 107.394C137.935 107.394 138.634 108.238 138.634 109.443C138.634 110.641 137.975 111.54 136.81 111.54C136.183 111.54 135.661 111.275 135.404 110.793V113.196H134.649ZM135.412 109.475C135.412 110.279 135.878 110.858 136.649 110.858C137.421 110.858 137.879 110.279 137.879 109.475C137.879 108.664 137.421 108.085 136.649 108.085C135.878 108.085 135.412 108.656 135.412 109.475ZM141.716 107.475V108.166H141.379C140.664 108.166 140.222 108.6 140.222 109.355V111.436H139.466V107.515H140.174L140.222 108.11C140.382 107.7 140.776 107.427 141.315 107.427C141.451 107.427 141.564 107.443 141.716 107.475ZM142.026 109.467C142.026 108.254 142.894 107.402 144.075 107.402C145.248 107.402 146.116 108.254 146.116 109.467C146.116 110.681 145.248 111.532 144.075 111.532C142.894 111.532 142.026 110.681 142.026 109.467ZM142.79 109.467C142.79 110.287 143.312 110.858 144.075 110.858C144.831 110.858 145.361 110.287 145.361 109.467C145.361 108.648 144.831 108.077 144.075 108.077C143.312 108.077 142.79 108.648 142.79 109.467ZM148.022 111.436H147.267V108.142H146.495V107.507H147.267V106.278H148.022V107.507H148.793V108.142H148.022V111.436ZM151.127 111.532C149.97 111.532 149.175 110.697 149.175 109.475C149.175 108.246 149.954 107.394 151.095 107.394C152.212 107.394 152.943 108.166 152.943 109.331V109.612L149.906 109.62C149.962 110.448 150.396 110.906 151.143 110.906C151.73 110.906 152.115 110.665 152.244 110.215H152.951C152.758 111.058 152.099 111.532 151.127 111.532ZM151.095 108.029C150.436 108.029 150.018 108.423 149.922 109.114H152.188C152.188 108.463 151.762 108.029 151.095 108.029ZM154.156 106.575C153.883 106.575 153.658 106.35 153.658 106.077C153.658 105.795 153.883 105.578 154.156 105.578C154.43 105.578 154.655 105.795 154.655 106.077C154.655 106.35 154.43 106.575 154.156 106.575ZM153.787 111.436V107.507H154.542V111.436H153.787ZM156.394 111.436H155.639V107.507H156.322L156.402 108.11C156.651 107.66 157.149 107.394 157.704 107.394C158.74 107.394 159.214 108.029 159.214 109.034V111.436H158.459V109.202C158.459 108.407 158.089 108.085 157.511 108.085C156.804 108.085 156.394 108.592 156.394 109.355V111.436ZM163.606 111.532C162.763 111.532 162.265 111.058 162.265 110.343C162.265 109.62 162.803 109.17 163.727 109.098L164.964 109.001V108.889C164.964 108.23 164.571 107.997 164.04 107.997C163.405 107.997 163.044 108.278 163.044 108.752H162.385C162.385 107.933 163.06 107.394 164.072 107.394C165.045 107.394 165.704 107.909 165.704 108.969V111.436H165.061L164.98 110.801C164.779 111.251 164.241 111.532 163.606 111.532ZM163.823 110.946C164.538 110.946 164.972 110.48 164.972 109.741V109.532L163.968 109.612C163.301 109.676 163.028 109.933 163.028 110.319C163.028 110.737 163.333 110.946 163.823 110.946ZM167.505 111.436H166.749V107.507H167.432L167.513 108.11C167.762 107.66 168.26 107.394 168.814 107.394C169.851 107.394 170.325 108.029 170.325 109.034V111.436H169.57V109.202C169.57 108.407 169.2 108.085 168.622 108.085C167.915 108.085 167.505 108.592 167.505 109.355V111.436ZM172.946 111.532C171.805 111.532 171.114 110.681 171.114 109.484C171.114 108.278 171.813 107.394 172.978 107.394C173.581 107.394 174.087 107.66 174.352 108.142V105.522H175.099V111.436H174.425L174.36 110.721C174.103 111.259 173.573 111.532 172.946 111.532ZM173.099 110.849C173.87 110.849 174.344 110.279 174.344 109.459C174.344 108.656 173.87 108.077 173.099 108.077C172.327 108.077 171.877 108.656 171.877 109.459C171.877 110.271 172.327 110.849 173.099 110.849ZM34.1396 122.436V119.142H32.396V122.436H31.6407V119.142H31.0622V118.507H31.6407V117.88C31.6407 116.916 32.163 116.522 32.8459 116.522C32.9906 116.522 33.1673 116.53 33.312 116.554V117.205H32.9745C32.5165 117.205 32.396 117.454 32.396 117.88V118.507H34.8949V122.436H34.1396ZM34.5172 117.543C34.244 117.543 34.0351 117.334 34.0351 117.061C34.0351 116.787 34.244 116.578 34.5172 116.578C34.7824 116.578 34.9913 116.787 34.9913 117.061C34.9913 117.334 34.7824 117.543 34.5172 117.543ZM36.6513 122.436H35.9683V116.522H36.7236V119.182C36.9807 118.668 37.511 118.394 38.1538 118.394C39.2787 118.394 39.9537 119.278 39.9537 120.492C39.9537 121.681 39.2466 122.532 38.1056 122.532C37.4869 122.532 36.9646 122.259 36.7075 121.721L36.6513 122.436ZM36.7316 120.459C36.7316 121.279 37.1977 121.849 37.969 121.849C38.7404 121.849 39.1984 121.271 39.1984 120.459C39.1984 119.656 38.7404 119.077 37.969 119.077C37.1977 119.077 36.7316 119.656 36.7316 120.459ZM42.4816 122.532C41.3245 122.532 40.5291 121.697 40.5291 120.475C40.5291 119.246 41.3085 118.394 42.4494 118.394C43.5663 118.394 44.2975 119.166 44.2975 120.331V120.612L41.2602 120.62C41.3165 121.448 41.7504 121.906 42.4976 121.906C43.0842 121.906 43.4699 121.665 43.5984 121.215H44.3055C44.1127 122.058 43.4538 122.532 42.4816 122.532ZM42.4494 119.029C41.7906 119.029 41.3727 119.423 41.2763 120.114H43.5422C43.5422 119.463 43.1163 119.029 42.4494 119.029ZM47.3909 118.475V119.166H47.0534C46.3383 119.166 45.8964 119.6 45.8964 120.355V122.436H45.1411V118.515H45.8482L45.8964 119.11C46.0571 118.7 46.4508 118.427 46.9892 118.427C47.1258 118.427 47.2383 118.443 47.3909 118.475ZM48.0262 122.532C47.7128 122.532 47.4477 122.275 47.4477 121.97C47.4477 121.657 47.7128 121.4 48.0262 121.4C48.3315 121.4 48.5967 121.657 48.5967 121.97C48.5967 122.275 48.3315 122.532 48.0262 122.532Z" fill="#7B7B7B"/>
<path d="M26.2059 31.7261H25.1438V25.5639H26.2143L29.1058 29.9305V25.5639H30.1679V31.7261H29.1058L26.2059 27.3594V31.7261ZM34.2042 27.5617H35.2327V31.7261H34.2801L34.2042 31.1697C33.9513 31.5659 33.4118 31.8357 32.8555 31.8357C31.8945 31.8357 31.3297 31.1866 31.3297 30.1666V27.5617H32.3581V29.8041C32.3581 30.5965 32.67 30.9168 33.2432 30.9168C33.8923 30.9168 34.2042 30.5375 34.2042 29.7451V27.5617ZM37.7111 31.7261H36.6827V28.4216H35.8818V27.5617H36.6827V26.2635H37.7111V27.5617H38.5204V28.4216H37.7111V31.7261ZM41.773 27.5449V28.4975H41.3936C40.6518 28.4975 40.1882 28.8937 40.1882 29.7029V31.7261H39.1597V27.5702H40.1292L40.1882 28.1771C40.3652 27.7641 40.7614 27.4859 41.3178 27.4859C41.4611 27.4859 41.6044 27.5027 41.773 27.5449ZM42.9833 26.7272C42.6293 26.7272 42.3511 26.449 42.3511 26.1034C42.3511 25.7578 42.6293 25.488 42.9833 25.488C43.3205 25.488 43.5987 25.7578 43.5987 26.1034C43.5987 26.449 43.3205 26.7272 42.9833 26.7272ZM42.4691 31.7261V27.5617H43.4975V31.7261H42.4691ZM45.9763 31.7261H44.9479V28.4216H44.147V27.5617H44.9479V26.2635H45.9763V27.5617H46.7856V28.4216H45.9763V31.7261ZM47.9391 26.7272C47.5851 26.7272 47.3069 26.449 47.3069 26.1034C47.3069 25.7578 47.5851 25.488 47.9391 25.488C48.2763 25.488 48.5545 25.7578 48.5545 26.1034C48.5545 26.449 48.2763 26.7272 47.9391 26.7272ZM47.4249 31.7261V27.5617H48.4533V31.7261H47.4249ZM49.2714 29.6355C49.2714 28.3373 50.2071 27.4437 51.4969 27.4437C52.7867 27.4437 53.7224 28.3373 53.7224 29.6355C53.7224 30.9337 52.7867 31.8272 51.4969 31.8272C50.2071 31.8272 49.2714 30.9337 49.2714 29.6355ZM50.2999 29.6355C50.2999 30.3942 50.7888 30.9084 51.4969 30.9084C52.205 30.9084 52.6939 30.3942 52.6939 29.6355C52.6939 28.8768 52.205 28.3626 51.4969 28.3626C50.7888 28.3626 50.2999 28.8768 50.2999 29.6355ZM55.566 31.7261H54.5376V27.5617H55.4901L55.5744 28.1012C55.8358 27.6798 56.3416 27.4353 56.9063 27.4353C57.9516 27.4353 58.4912 28.0844 58.4912 29.1634V31.7261H57.4627V29.4079C57.4627 28.7082 57.1171 28.371 56.586 28.371C55.9538 28.371 55.566 28.8094 55.566 29.4837V31.7261Z" fill="#6D53E7"/>
</g>
<path d="M14.4435 147.81C14.2331 146.281 15.3019 144.871 16.8308 144.661L35.1857 142.135C36.7146 141.925 38.1246 142.994 38.335 144.522L40.3198 158.945C40.5302 160.474 39.4614 161.884 37.9325 162.094L19.5776 164.62C18.0487 164.831 16.6387 163.762 16.4283 162.233L14.4435 147.81Z" fill="#0C2503"/>
<path d="M32.8531 149.716C32.9021 149.236 32.5529 148.808 32.0731 148.759L24.2545 147.96C23.7747 147.911 23.346 148.26 23.297 148.74C23.248 149.22 23.5972 149.648 24.077 149.697L31.0269 150.407L30.3168 157.357C30.2677 157.837 30.617 158.266 31.0967 158.315C31.5765 158.364 32.0052 158.015 32.0542 157.535L32.8531 149.716ZM22.2249 156.451C21.851 156.756 21.7948 157.306 22.0994 157.68C22.404 158.054 22.954 158.11 23.328 157.805L22.2249 156.451ZM31.4328 148.95L22.2249 156.451L23.328 157.805L32.5359 150.304L31.4328 148.95Z" fill="#EDFAE7"/>
<path d="M53.4225 153.229C53.4225 155.139 52.1666 156.481 50.3602 156.481C48.5624 156.481 47.3238 155.148 47.3238 153.229C47.3238 151.32 48.571 149.978 50.3688 149.978C52.1666 149.978 53.4225 151.311 53.4225 153.229ZM52.2612 153.229C52.2612 151.888 51.5215 151.036 50.3688 151.036C49.2162 151.036 48.4764 151.888 48.4764 153.229C48.4764 154.571 49.2162 155.423 50.3688 155.423C51.5215 155.423 52.2612 154.554 52.2612 153.229ZM54.2924 158.348V152.128H55.2644L55.3332 152.774C55.5913 152.283 56.1504 151.999 56.7955 151.999C57.9912 151.999 58.7826 152.868 58.7826 154.201C58.7826 155.526 58.06 156.49 56.7955 156.49C56.159 156.49 55.6085 156.24 55.3418 155.81V158.348H54.2924ZM55.3504 154.253C55.3504 155.019 55.8235 155.543 56.5461 155.543C57.2859 155.543 57.7245 155.01 57.7245 154.253C57.7245 153.496 57.2859 152.954 56.5461 152.954C55.8235 152.954 55.3504 153.487 55.3504 154.253ZM61.5192 156.49C60.2547 156.49 59.3687 155.569 59.3687 154.253C59.3687 152.92 60.2375 151.999 61.4848 151.999C62.7578 151.999 63.5664 152.851 63.5664 154.176V154.494L60.3665 154.502C60.4439 155.251 60.8396 155.629 61.5364 155.629C62.1127 155.629 62.4912 155.406 62.6116 155.001H63.5836C63.403 155.93 62.6288 156.49 61.5192 156.49ZM61.4934 152.86C60.874 152.86 60.4956 153.195 60.3923 153.832H62.5256C62.5256 153.247 62.1213 152.86 61.4934 152.86ZM65.4557 156.378H64.4063V152.128H65.3783L65.4643 152.679C65.731 152.249 66.2471 151.999 66.8234 151.999C67.8901 151.999 68.4406 152.662 68.4406 153.763V156.378H67.3912V154.012C67.3912 153.298 67.0385 152.954 66.4966 152.954C65.8514 152.954 65.4557 153.401 65.4557 154.09V156.378ZM71.945 156.378V150.09H74.4481C75.6868 150.09 76.4438 150.735 76.4438 151.784C76.4438 152.481 76.1341 152.98 75.5406 153.229C76.2029 153.444 76.5384 153.943 76.5384 154.675C76.5384 155.75 75.79 156.378 74.4911 156.378H71.945ZM74.3535 151.062H73.046V152.774H74.3793C74.9814 152.774 75.3169 152.455 75.3169 151.896C75.3169 151.354 74.9728 151.062 74.3535 151.062ZM74.4481 153.703H73.046V155.406H74.4481C75.0675 155.406 75.4115 155.105 75.4115 154.537C75.4115 154.004 75.0589 153.703 74.4481 153.703ZM78.4511 156.378H77.4103V149.978H78.4511V156.378ZM79.3025 154.244C79.3025 152.92 80.2573 152.008 81.5734 152.008C82.8895 152.008 83.8443 152.92 83.8443 154.244C83.8443 155.569 82.8895 156.481 81.5734 156.481C80.2573 156.481 79.3025 155.569 79.3025 154.244ZM80.352 154.244C80.352 155.019 80.8509 155.543 81.5734 155.543C82.296 155.543 82.7949 155.019 82.7949 154.244C82.7949 153.47 82.296 152.946 81.5734 152.946C80.8509 152.946 80.352 153.47 80.352 154.244ZM84.4353 154.158C84.4353 152.92 85.2439 151.991 86.4567 151.991C87.0933 151.991 87.5922 152.257 87.8416 152.713L87.9018 152.128H88.8738V156.163C88.8738 157.582 88.0223 158.468 86.646 158.468C85.4245 158.468 84.5901 157.771 84.4611 156.636H85.5105C85.5793 157.186 86.0008 157.513 86.646 157.513C87.3685 157.513 87.833 157.057 87.833 156.352V155.647C87.5664 156.042 87.0417 156.292 86.4309 156.292C85.2267 156.292 84.4353 155.388 84.4353 154.158ZM85.4933 154.133C85.4933 154.847 85.9492 155.38 86.6374 155.38C87.3599 155.38 87.8072 154.872 87.8072 154.133C87.8072 153.41 87.3685 152.911 86.6374 152.911C85.9406 152.911 85.4933 153.436 85.4933 154.133Z" fill="#0A0B0A"/>
<path d="M22.1953 13.2536L33.4188 9.20093" stroke="#0C2503" stroke-width="0.90568" stroke-linecap="round"/>
<path d="M30.5409 12.2143C31.2912 12.2143 31.9079 12.8247 31.8181 13.5696C31.5163 16.0728 30.3847 18.4184 28.5836 20.2195C26.4606 22.3427 23.5811 23.5354 20.5786 23.5354C17.5762 23.5354 14.6967 22.3427 12.5736 20.2195C10.7725 18.4184 9.64096 16.0728 9.33919 13.5696C9.24939 12.8247 9.86604 12.2143 10.6163 12.2143L20.5786 12.2143H30.5409Z" fill="#0C2503"/>
<path d="M9.9124 11.777L9.89236 11.8018C9.59049 12.1754 9.85638 12.7321 10.3367 12.7321H31.5505C31.415 12.7321 31.305 12.6222 31.305 12.4866V12.3801C31.305 12.2702 31.2537 12.1666 31.1663 12.1L30.6813 11.7305C30.6082 11.6749 30.5189 11.6447 30.427 11.6447H30.3585C30.1647 11.6447 30.0076 11.4876 30.0076 11.2938V10.876C30.0076 10.5831 29.8149 10.3251 29.5341 10.2419L29.4228 10.2089C29.208 10.1452 29.0607 9.94795 29.0607 9.72399C29.0607 9.52688 28.9462 9.34773 28.7673 9.26497L28.6732 9.22143C28.6278 9.20041 28.5849 9.17435 28.5452 9.14374L27.9851 8.71085C27.8894 8.63692 27.8334 8.52284 27.8334 8.40194C27.8334 8.32187 27.8087 8.24374 27.7628 8.17813L27.4655 7.75317C27.3884 7.64289 27.2623 7.57721 27.1277 7.57721C26.9787 7.57721 26.8413 7.49688 26.7683 7.36706L26.6499 7.15668C26.5981 7.06462 26.5709 6.9604 26.5709 6.85477C26.5709 6.70983 26.5195 6.56908 26.4259 6.45846C26.278 6.28378 26.0451 6.2061 25.822 6.25705L25.5343 6.32273C25.4542 6.34103 25.3722 6.35027 25.29 6.35027H24.8176H24.0638C23.9378 6.35027 23.8357 6.24813 23.8357 6.12214C23.8357 5.99615 23.7335 5.89401 23.6075 5.89401H23.5223C23.4122 5.89401 23.3101 5.83616 23.2535 5.74165L23.2385 5.71669C23.1739 5.60873 23.0573 5.54266 22.9315 5.54266C22.8581 5.54266 22.7865 5.52009 22.7263 5.47803L22.6434 5.42001C22.5292 5.34018 22.3933 5.29736 22.2541 5.29736H21.5236C21.4558 5.29736 21.3919 5.32898 21.3507 5.38286L21.2308 5.53976C21.1432 5.65439 20.9601 5.59245 20.9601 5.44819C20.9601 5.36489 20.8926 5.29736 20.8093 5.29736H19.4874C19.2549 5.29736 19.0665 5.48579 19.0665 5.71823V6.05689C19.0665 6.12984 19.029 6.19767 18.9672 6.23646C18.8674 6.29914 18.7356 6.26836 18.6738 6.16795L18.6054 6.05663C18.5433 5.95558 18.4331 5.89401 18.3145 5.89401H17.5304C17.3239 5.89401 17.1259 5.97608 16.98 6.12214L16.8392 6.26305C16.7834 6.31889 16.7077 6.35027 16.6287 6.35027C16.4644 6.35027 16.3312 6.48347 16.3312 6.64778V6.70065C16.3312 6.87496 16.1899 7.01626 16.0156 7.01626H15.9805C15.8256 7.01626 15.7 7.14183 15.7 7.29673C15.7 7.45164 15.5744 7.57721 15.4195 7.57721H14.3083C14.0957 7.57721 13.9105 7.72187 13.859 7.92807C13.8074 8.13426 13.6222 8.27892 13.4096 8.27892H13.3193C13.0837 8.27892 12.8717 8.42164 12.783 8.63986L12.5322 9.25695C12.4969 9.34386 12.4124 9.40071 12.3186 9.40071C12.1913 9.40071 12.088 9.50393 12.088 9.63127V9.95924C12.088 10.2094 11.9217 10.4291 11.6809 10.4969L11.1417 10.6487C11.0294 10.6803 10.935 10.7565 10.8803 10.8596L10.7748 11.0588C10.709 11.1829 10.5487 11.22 10.4351 11.1375C10.3385 11.0674 10.2043 11.0825 10.1257 11.1723L10.0909 11.2121C10.0447 11.2647 10.0193 11.3324 10.0193 11.4024V11.4746C10.0193 11.5847 9.98157 11.6914 9.9124 11.777Z" fill="#D6FBC4" stroke="#D6FBC4" stroke-width="0.337416" stroke-linecap="round"/>
<path d="M31.4466 12.2143C31.6967 12.2143 31.9004 12.4172 31.8904 12.6671C31.7769 15.5051 30.5997 18.2034 28.5836 20.2195C26.4606 22.3427 23.5811 23.5354 20.5786 23.5354C17.5762 23.5354 14.6967 22.3427 12.5736 20.2195C10.5575 18.2034 9.38036 15.5051 9.26686 12.6671C9.25687 12.4172 9.46056 12.2143 9.71065 12.2143L20.5786 12.2143H31.4466Z" fill="#0C2503"/>
<path d="M17.2344 22.1293H24.0145V22.6971V24.4604H17.2348V22.6971L17.2344 22.1293Z" fill="#0C2503"/>
</g>
</g>
<path d="M3.58594 200.999C3.58594 192.998 10.0716 186.513 18.0721 186.513H205.668C213.669 186.513 220.154 192.998 220.154 200.999V336.445C220.154 344.445 213.669 350.931 205.668 350.931H18.0721C10.0716 350.931 3.58594 344.445 3.58594 336.445V200.999Z" fill="#D6FBC4"/>
<path d="M19.1884 210.76C19.1884 209.462 20.2633 208.56 21.8249 208.56C23.3257 208.56 24.2789 209.391 24.3195 210.73H23.0215C22.9911 210.091 22.5348 209.716 21.8046 209.716C21.0036 209.716 20.4864 210.101 20.4864 210.72C20.4864 211.247 20.7703 211.541 21.3889 211.683L22.555 211.937C23.8226 212.21 24.4411 212.859 24.4411 213.965C24.4411 215.344 23.3663 216.236 21.7337 216.236C20.1518 216.236 19.1175 215.394 19.087 214.066H20.385C20.3951 214.695 20.9022 215.07 21.7337 215.07C22.5956 215.07 23.1432 214.695 23.1432 214.076C23.1432 213.579 22.8897 213.285 22.2812 213.153L21.105 212.89C19.8476 212.616 19.1884 211.896 19.1884 210.76ZM27.1364 216.104H25.8993V212.129H24.936V211.095H25.8993V209.533H27.1364V211.095H28.1099V212.129H27.1364V216.104ZM32.0225 211.075V212.221H31.5661C30.6738 212.221 30.1161 212.697 30.1161 213.671V216.104H28.879V211.105H30.0451L30.1161 211.835C30.329 211.338 30.8056 211.004 31.4749 211.004C31.6473 211.004 31.8197 211.024 32.0225 211.075ZM34.9325 216.236C33.4419 216.236 32.3974 215.151 32.3974 213.6C32.3974 212.028 33.4216 210.943 34.8919 210.943C36.3927 210.943 37.3459 211.947 37.3459 213.508V213.884L33.5737 213.894C33.665 214.776 34.1314 215.222 34.9528 215.222C35.6322 215.222 36.0784 214.958 36.2203 214.482H37.3662C37.1532 215.577 36.2406 216.236 34.9325 216.236ZM34.9021 211.957C34.172 211.957 33.7258 212.352 33.6041 213.103H36.1189C36.1189 212.413 35.6423 211.957 34.9021 211.957ZM39.7771 216.236C38.7124 216.236 38.0634 215.618 38.0634 214.674C38.0634 213.752 38.7327 213.174 39.9191 213.082L41.4199 212.971V212.859C41.4199 212.18 41.0142 211.906 40.3855 211.906C39.6554 211.906 39.2498 212.21 39.2498 212.738H38.1952C38.1952 211.653 39.0876 210.943 40.4464 210.943C41.795 210.943 42.6266 211.673 42.6266 213.062V216.104H41.5415L41.4503 215.364C41.2373 215.881 40.5579 216.236 39.7771 216.236ZM40.1827 215.303C40.9433 215.303 41.43 214.847 41.43 214.076V213.813L40.3855 213.894C39.6149 213.965 39.3208 214.218 39.3208 214.624C39.3208 215.08 39.625 215.303 40.1827 215.303ZM45.0892 216.104H43.8622V208.56H45.0892V213.194L47.0361 211.095H48.5876L46.6812 213.082L48.547 216.104H47.1274L45.8193 213.995L45.0892 214.756V216.104ZM48.903 214.583H50.0793C50.0894 215.019 50.4139 215.293 50.9818 215.293C51.5598 215.293 51.8741 215.06 51.8741 214.695C51.8741 214.441 51.7423 214.259 51.2961 214.157L50.3937 213.944C49.4912 213.742 49.0551 213.316 49.0551 212.515C49.0551 211.531 49.8866 210.943 51.0426 210.943C52.1682 210.943 52.9287 211.592 52.9389 212.565H51.7626C51.7525 212.139 51.4685 211.866 50.9919 211.866C50.5052 211.866 50.2213 212.089 50.2213 212.464C50.2213 212.748 50.4444 212.93 50.8703 213.032L51.7727 213.245C52.6144 213.437 53.0403 213.823 53.0403 214.593C53.0403 215.607 52.1784 216.236 50.9412 216.236C49.694 216.236 48.903 215.567 48.903 214.583Z" fill="#0C2503"/>
<path d="M183.167 216.081L180.556 219.534C179.563 220.846 180.499 222.727 182.144 222.727H200.051C201.151 222.727 202.043 221.836 202.043 220.736V208.1C202.043 206.126 199.479 205.355 198.39 207.001L197.009 209.087C196.641 209.644 196.017 209.98 195.348 209.98H193.1C192.528 209.98 191.984 210.225 191.606 210.654L188.109 214.617C187.731 215.046 187.187 215.291 186.615 215.291H184.756C184.131 215.291 183.543 215.584 183.167 216.081Z" fill="#0C2503" stroke="#0C2503" stroke-width="0.929138"/>
<g filter="url(#filter2_d_1790_21044)">
<path d="M80.7162 239.397C80.6431 239.234 80.5239 239.095 80.3733 238.998C80.2226 238.901 80.047 238.85 79.8678 238.851H53.6037C53.446 238.851 53.2908 238.891 53.1525 238.966C53.0142 239.042 52.897 239.151 52.8119 239.284L32.6189 271.337C32.5217 271.476 32.4649 271.64 32.4548 271.81C32.4446 271.979 32.4816 272.149 32.5615 272.299C32.6415 272.449 32.7613 272.574 32.9078 272.66C33.0543 272.747 33.2219 272.791 33.3919 272.788H47.8532L35.0888 297.77C35.0155 297.919 34.9811 298.084 34.9887 298.249C34.9963 298.415 35.0457 298.575 35.1323 298.717C35.2189 298.858 35.3399 298.975 35.484 299.057C35.628 299.138 35.7905 299.182 35.9561 299.184H41.6124C41.7433 299.185 41.8729 299.159 41.993 299.107C42.1131 299.055 42.221 298.979 42.31 298.883L75.437 263.078C75.5685 262.944 75.657 262.774 75.6911 262.589C75.7252 262.405 75.7034 262.214 75.6285 262.042C75.5535 261.87 75.4288 261.724 75.2704 261.623C75.112 261.522 74.9271 261.471 74.7394 261.476H62.0316L80.5654 240.397C80.6849 240.263 80.7628 240.097 80.7895 239.919C80.8163 239.742 80.7908 239.561 80.7162 239.397Z" fill="#FFC400"/>
</g>
<rect x="128.184" y="247.688" width="62.9984" height="42.7604" rx="5.03988" fill="#FAFAFA"/>
<rect x="138.418" y="249.955" width="42.5316" height="14.3459" rx="2.89724" fill="#E8E4FB"/>
<path d="M148.55 260.128H146.341V253.988H148.491C150.305 253.988 151.557 255.239 151.557 257.071C151.557 258.877 150.33 260.128 148.55 260.128ZM148.39 254.979H147.416V259.137H148.449C149.675 259.137 150.423 258.347 150.423 257.071C150.423 255.769 149.658 254.979 148.39 254.979ZM153.642 260.237C152.76 260.237 152.222 259.725 152.222 258.944C152.222 258.179 152.777 257.701 153.76 257.625L155.003 257.533V257.44C155.003 256.877 154.667 256.651 154.146 256.651C153.541 256.651 153.205 256.903 153.205 257.339H152.332C152.332 256.441 153.071 255.853 154.196 255.853C155.313 255.853 156.002 256.457 156.002 257.608V260.128H155.103L155.028 259.515C154.851 259.943 154.289 260.237 153.642 260.237ZM153.978 259.465C154.608 259.465 155.011 259.087 155.011 258.448V258.23L154.146 258.297C153.508 258.356 153.264 258.566 153.264 258.902C153.264 259.28 153.516 259.465 153.978 259.465ZM156.533 262.052V261.195H157.146C157.549 261.195 157.801 261.103 157.978 260.615L158.095 260.305L156.424 255.979H157.507L158.574 259.003L159.7 255.979H160.758L158.725 261.052C158.415 261.825 157.978 262.144 157.297 262.144C157.012 262.144 156.76 262.111 156.533 262.052ZM160.931 258.868H161.905C161.913 259.229 162.182 259.456 162.653 259.456C163.131 259.456 163.392 259.263 163.392 258.961C163.392 258.751 163.283 258.599 162.913 258.515L162.165 258.339C161.418 258.171 161.057 257.818 161.057 257.155C161.057 256.34 161.745 255.853 162.703 255.853C163.635 255.853 164.265 256.39 164.274 257.197H163.299C163.291 256.844 163.056 256.617 162.661 256.617C162.258 256.617 162.023 256.802 162.023 257.113C162.023 257.348 162.207 257.499 162.56 257.583L163.308 257.759C164.005 257.919 164.358 258.238 164.358 258.877C164.358 259.717 163.644 260.237 162.619 260.237C161.586 260.237 160.931 259.683 160.931 258.868Z" fill="#0C2503"/>
<g clip-path="url(#clip1_1790_21044)">
<path d="M170.751 259.984C170.695 260.081 170.555 260.081 170.5 259.984L168.088 255.808C168.033 255.711 168.102 255.59 168.214 255.59H173.036C173.148 255.59 173.218 255.711 173.162 255.808L170.751 259.984Z" fill="#030A00"/>
</g>
<path d="M150.334 279.677C150.334 276.245 152.178 273.917 155.006 273.917C157.833 273.917 159.693 276.245 159.693 279.677C159.693 283.094 157.939 285.377 155.006 285.377C152.072 285.377 150.334 283.094 150.334 279.677ZM152.239 279.677C152.239 282.233 153.267 283.669 155.006 283.669C156.76 283.669 157.788 282.233 157.788 279.677C157.788 277.062 156.76 275.625 155.006 275.625C153.267 275.625 152.239 277.062 152.239 279.677ZM164.216 279.708H162.87V278.453L165.713 275.837H161.116V274.128H168.132V275.671L165.44 278.15C167.134 278.483 168.449 279.723 168.449 281.673C168.449 283.941 166.68 285.377 164.443 285.377C162.28 285.377 160.602 284.047 160.602 281.658H162.507C162.507 282.928 163.294 283.654 164.473 283.654C165.682 283.654 166.484 282.868 166.484 281.643C166.484 280.524 165.758 279.708 164.216 279.708Z" fill="#0C2503"/>
<g filter="url(#filter3_d_1790_21044)">
<rect x="3.58594" y="357.615" width="216.568" height="209.213" rx="24.5172" fill="white"/>
<g clip-path="url(#clip2_1790_21044)">
<rect x="10.125" y="377.049" width="202.928" height="121.589" rx="6.86991" fill="#EDFAE7"/>
<path d="M108.022 423.785C109.244 420.072 114.496 420.072 115.718 423.785L115.824 424.107C116.878 427.311 121.156 427.899 123.035 425.099L123.224 424.816C125.402 421.571 130.46 422.988 130.634 426.893L130.65 427.232C130.8 430.601 134.761 432.321 137.326 430.132L137.584 429.911C140.557 427.374 145.045 430.103 144.159 433.91L144.082 434.241C143.319 437.525 146.668 440.25 149.729 438.834L150.037 438.692C153.584 437.05 157.169 440.889 155.29 444.316L155.126 444.614C153.505 447.57 155.995 451.098 159.324 450.56L159.659 450.506C163.518 449.883 165.934 454.546 163.2 457.339L162.962 457.582C160.603 459.991 162.049 464.06 165.399 464.44L165.737 464.478C169.621 464.919 170.689 470.061 167.303 472.013L167.008 472.183C164.087 473.866 164.381 478.174 167.505 479.444L167.82 479.573C171.441 481.045 171.082 486.284 167.295 487.25L166.965 487.334C163.698 488.167 162.819 492.395 165.484 494.461L165.753 494.669C168.842 497.063 167.084 502.012 163.176 501.92L162.836 501.912C159.465 501.832 157.478 505.666 159.488 508.375L159.69 508.648C162.019 511.787 158.99 516.077 155.252 514.934L154.927 514.835C151.702 513.849 148.755 517.005 149.959 520.155L150.08 520.472C151.476 524.123 147.402 527.438 144.111 525.329L143.825 525.145C140.986 523.326 137.296 525.569 137.606 528.927L137.637 529.266C137.995 533.158 133.178 535.25 130.579 532.331L130.352 532.078C128.11 529.56 123.952 530.725 123.344 534.042L123.282 534.376C122.577 538.22 117.374 538.935 115.659 535.424L115.509 535.118C114.029 532.088 109.711 532.088 108.23 535.118L108.081 535.424C106.365 538.935 101.162 538.22 100.458 534.376L100.396 534.042C99.7883 530.725 95.6303 529.56 93.3874 532.078L93.1613 532.331C90.5616 535.25 85.7444 533.158 86.103 529.266L86.1342 528.927C86.4436 525.569 82.7542 523.326 79.915 525.145L79.6288 525.329C76.3381 527.438 72.2641 524.123 73.6595 520.472L73.7808 520.155C74.9847 517.005 72.0374 513.849 68.8126 514.835L68.4876 514.934C64.7499 516.077 61.7212 511.787 64.0498 508.648L64.2523 508.375C66.2614 505.666 64.2748 501.832 60.9036 501.912L60.5638 501.92C56.6563 502.012 54.8975 497.063 57.9867 494.669L58.2554 494.461C60.9207 492.395 60.0421 488.167 56.7744 487.334L56.4451 487.25C52.6577 486.284 52.2993 481.045 55.92 479.573L56.2348 479.444C59.3586 478.174 59.6533 473.866 56.7315 472.183L56.437 472.013C53.0506 470.061 54.1191 464.919 58.0027 464.478L58.3404 464.44C61.6911 464.06 63.1371 459.991 60.778 457.582L60.5402 457.339C57.8058 454.546 60.222 449.883 64.0806 450.506L64.4161 450.56C67.7451 451.098 70.2353 447.57 68.6137 444.614L68.4502 444.316C66.5707 440.889 70.1555 437.05 73.7027 438.692L74.0112 438.834C77.0717 440.25 80.4212 437.525 79.6575 434.241L79.5805 433.91C78.6953 430.103 83.1827 427.374 86.1556 429.911L86.4141 430.132C88.979 432.321 92.9396 430.601 93.0904 427.232L93.1055 426.893C93.2803 422.988 98.3375 421.571 100.516 424.816L100.705 425.099C102.584 427.899 106.862 427.311 107.916 424.107L108.022 423.785Z" fill="#E8E4FB"/>
<path d="M40.4823 452.658L33.3574 428.766H37.7043L41.4955 441.382C41.855 442.689 42.2145 444.029 42.574 446.121C42.9662 443.997 43.3257 442.755 43.7506 441.382L47.5091 428.766H52.1174L55.8106 441.382C56.2028 442.722 56.5623 444.095 56.9545 446.121C57.4121 443.899 57.7389 442.624 58.0984 441.415L61.955 428.766H66.2038L58.9482 452.658H54.8955L49.797 435.27L44.6004 452.658H40.4823ZM73.6512 453.083C68.8468 453.083 65.4804 449.586 65.4804 444.585C65.4804 439.519 68.7814 436.022 73.5204 436.022C78.3575 436.022 81.4297 439.258 81.4297 444.291V445.5L69.2716 445.533C69.5658 448.376 71.0692 449.814 73.7165 449.814C75.9063 449.814 77.3443 448.965 77.8019 447.428H81.4951C80.8087 450.958 77.8673 453.083 73.6512 453.083ZM73.5531 439.29C71.1999 439.29 69.7619 440.565 69.3697 442.984H77.4751C77.4751 440.761 75.939 439.29 73.5531 439.29ZM91.8438 453.083C87.0394 453.083 83.6731 449.586 83.6731 444.585C83.6731 439.519 86.9741 436.022 91.7131 436.022C96.5502 436.022 99.6224 439.258 99.6224 444.291V445.5L87.4643 445.533C87.7584 448.376 89.2619 449.814 91.9092 449.814C94.0989 449.814 95.537 448.965 95.9946 447.428H99.6877C99.0014 450.958 96.0599 453.083 91.8438 453.083ZM91.7458 439.29C89.3926 439.29 87.9545 440.565 87.5624 442.984H95.6677C95.6677 440.761 94.1316 439.29 91.7458 439.29ZM106.834 452.658H102.879V428.342H106.834V443.278L113.109 436.512H118.109L111.965 442.918L117.978 452.658H113.403L109.187 445.86L106.834 448.311V452.658ZM151.597 440.696C151.597 447.951 146.825 453.05 139.962 453.05C133.131 453.05 128.424 447.984 128.424 440.696C128.424 433.44 133.163 428.342 139.994 428.342C146.825 428.342 151.597 433.407 151.597 440.696ZM147.184 440.696C147.184 435.597 144.374 432.362 139.994 432.362C135.615 432.362 132.804 435.597 132.804 440.696C132.804 445.794 135.615 449.03 139.994 449.03C144.374 449.03 147.184 445.729 147.184 440.696ZM158.889 452.658H154.902V436.512H158.595L158.922 438.604C159.935 436.97 161.896 436.022 164.086 436.022C168.139 436.022 170.23 438.539 170.23 442.722V452.658H166.243V443.67C166.243 440.957 164.903 439.65 162.844 439.65C160.393 439.65 158.889 441.349 158.889 443.964V452.658ZM181.371 453.083C176.566 453.083 173.2 449.586 173.2 444.585C173.2 439.519 176.501 436.022 181.24 436.022C186.077 436.022 189.149 439.258 189.149 444.291V445.5L176.991 445.533C177.285 448.376 178.789 449.814 181.436 449.814C183.626 449.814 185.064 448.965 185.522 447.428H189.215C188.528 450.958 185.587 453.083 181.371 453.083ZM181.273 439.29C178.92 439.29 177.482 440.565 177.089 442.984H185.195C185.195 440.761 183.659 439.29 181.273 439.29Z" fill="#0C2503"/>
</g>
<path d="M10.5707 527.788C10.3245 526 11.5749 524.35 13.3634 524.104L34.8352 521.149C36.6237 520.903 38.2731 522.153 38.5193 523.942L40.8411 540.814C41.0873 542.602 39.8369 544.252 38.0484 544.498L16.5766 547.453C14.7881 547.699 13.1387 546.449 12.8925 544.66L10.5707 527.788Z" fill="#0C2503"/>
<path d="M32.1061 530.018C32.1634 529.456 31.7549 528.955 31.1937 528.898L22.0474 527.963C21.4861 527.906 20.9846 528.314 20.9273 528.875C20.8699 529.437 21.2784 529.938 21.8397 529.996L29.9697 530.826L29.1391 538.956C29.0817 539.518 29.4902 540.019 30.0515 540.076C30.6127 540.134 31.1142 539.725 31.1716 539.164L32.1061 530.018ZM19.6731 537.896C19.2357 538.253 19.1699 538.896 19.5263 539.333C19.8826 539.771 20.526 539.837 20.9635 539.48L19.6731 537.896ZM30.4447 529.122L19.6731 537.896L20.9635 539.48L31.735 530.706L30.4447 529.122Z" fill="#EDFAE7"/>
<path d="M51.5185 538.301L48.7413 530.945H50.1098L51.7198 535.182C51.8808 535.624 52.0216 536.057 52.1826 536.651C52.3638 536.007 52.5147 535.554 52.6556 535.182L54.2455 530.945H55.5838L52.8468 538.301H51.5185ZM56.9341 532.334C56.5115 532.334 56.1794 532.002 56.1794 531.589C56.1794 531.177 56.5115 530.855 56.9341 530.855C57.3366 530.855 57.6687 531.177 57.6687 531.589C57.6687 532.002 57.3366 532.334 56.9341 532.334ZM56.3203 538.301V533.33H57.548V538.301H56.3203ZM61.0401 538.432C59.5609 538.432 58.5245 537.355 58.5245 535.816C58.5245 534.256 59.5408 533.179 60.9999 533.179C62.4891 533.179 63.435 534.175 63.435 535.725V536.097L59.6917 536.107C59.7823 536.983 60.2452 537.426 61.0603 537.426C61.7344 537.426 62.1772 537.164 62.3181 536.691H63.4551C63.2438 537.778 62.3382 538.432 61.0401 538.432ZM61.0099 534.185C60.2854 534.185 59.8427 534.578 59.7219 535.323H62.2175C62.2175 534.638 61.7445 534.185 61.0099 534.185ZM65.2982 538.301L63.6882 533.33H64.9661L65.6202 535.463C65.7309 535.856 65.8315 536.289 65.922 536.751C66.0126 536.268 66.1032 535.956 66.2642 535.463L66.9484 533.33H68.1962L68.8603 535.463C68.9207 535.665 69.1219 536.409 69.1823 536.741C69.2628 536.369 69.4238 535.775 69.5144 535.463L70.1785 533.33H71.4766L69.7559 538.301H68.6087L67.9245 536.148C67.7232 535.494 67.6126 535.021 67.5723 534.769C67.522 535.001 67.4314 535.353 67.1799 536.168L66.4956 538.301H65.2982ZM76.6428 538.301L74.4491 530.945H75.7874L76.9547 534.829C77.0654 535.232 77.1761 535.645 77.2868 536.289C77.4075 535.634 77.5182 535.252 77.649 534.829L78.8062 530.945H80.225L81.3621 534.829C81.4828 535.242 81.5935 535.665 81.7143 536.289C81.8552 535.604 81.9558 535.212 82.0665 534.84L83.2539 530.945H84.562L82.3281 538.301H81.0803L79.5106 532.948L77.9106 538.301H76.6428ZM86.8549 538.432C85.3757 538.432 84.3393 537.355 84.3393 535.816C84.3393 534.256 85.3556 533.179 86.8147 533.179C88.3039 533.179 89.2498 534.175 89.2498 535.725V536.097L85.5065 536.107C85.5971 536.983 86.06 537.426 86.875 537.426C87.5492 537.426 87.992 537.164 88.1329 536.691H89.2699C89.0586 537.778 88.153 538.432 86.8549 538.432ZM86.8247 534.185C86.1002 534.185 85.6575 534.578 85.5367 535.323H88.0322C88.0322 534.638 87.5593 534.185 86.8247 534.185ZM92.4561 538.432C90.9769 538.432 89.9405 537.355 89.9405 535.816C89.9405 534.256 90.9568 533.179 92.4159 533.179C93.9051 533.179 94.851 534.175 94.851 535.725V536.097L91.1078 536.107C91.1983 536.983 91.6612 537.426 92.4763 537.426C93.1505 537.426 93.5932 537.164 93.7341 536.691H94.8712C94.6598 537.778 93.7542 538.432 92.4561 538.432ZM92.426 534.185C91.7014 534.185 91.2587 534.578 91.1379 535.323H93.6335C93.6335 534.638 93.1605 534.185 92.426 534.185ZM97.0712 538.301H95.8537V530.814H97.0712V535.413L99.0032 533.33H100.543L98.6511 535.302L100.503 538.301H99.0938L97.7957 536.208L97.0712 536.963V538.301ZM105.389 538.301H104.141V530.945H105.389L107.764 536.802L110.139 530.945H111.407V538.301H110.159V536.037C110.159 534.558 110.159 534.125 110.229 533.602L108.358 538.301H107.17L105.309 533.612C105.379 534.055 105.389 534.749 105.389 535.665V538.301ZM115.077 538.432C113.598 538.432 112.562 537.355 112.562 535.816C112.562 534.256 113.578 533.179 115.037 533.179C116.526 533.179 117.472 534.175 117.472 535.725V536.097L113.729 536.107C113.819 536.983 114.282 537.426 115.097 537.426C115.772 537.426 116.214 537.164 116.355 536.691H117.492C117.281 537.778 116.375 538.432 115.077 538.432ZM115.047 534.185C114.323 534.185 113.88 534.578 113.759 535.323H116.255C116.255 534.638 115.782 534.185 115.047 534.185ZM119.885 538.432C118.828 538.432 118.184 537.818 118.184 536.882C118.184 535.967 118.848 535.393 120.026 535.302L121.515 535.192V535.081C121.515 534.407 121.112 534.135 120.488 534.135C119.764 534.135 119.361 534.437 119.361 534.96H118.315C118.315 533.884 119.2 533.179 120.549 533.179C121.887 533.179 122.712 533.904 122.712 535.282V538.301H121.636L121.545 537.566C121.334 538.08 120.66 538.432 119.885 538.432ZM120.287 537.506C121.042 537.506 121.525 537.053 121.525 536.289V536.027L120.488 536.107C119.724 536.178 119.432 536.429 119.432 536.832C119.432 537.285 119.734 537.506 120.287 537.506ZM125.156 538.301H123.938V530.814H125.156V538.301ZM126.061 536.792H127.229C127.239 537.224 127.561 537.496 128.124 537.496C128.698 537.496 129.01 537.265 129.01 536.902C129.01 536.651 128.879 536.47 128.436 536.369L127.541 536.158C126.645 535.956 126.212 535.534 126.212 534.739C126.212 533.763 127.037 533.179 128.185 533.179C129.302 533.179 130.056 533.823 130.066 534.789H128.899C128.889 534.367 128.607 534.095 128.134 534.095C127.651 534.095 127.37 534.316 127.37 534.689C127.37 534.97 127.591 535.151 128.014 535.252L128.909 535.463C129.744 535.655 130.167 536.037 130.167 536.802C130.167 537.808 129.312 538.432 128.084 538.432C126.846 538.432 126.061 537.768 126.061 536.792Z" fill="#030A00"/>
</g>
<defs>
<filter id="filter0_d_1790_21044" x="1.01975" y="0.984863" width="221.703" height="183.976" filterUnits="userSpaceOnUse" color-interpolation-filters="sRGB">
<feFlood flood-opacity="0" result="BackgroundImageFix"/>
<feColorMatrix in="SourceAlpha" type="matrix" values="0 0 0 0 0 0 0 0 0 0 0 0 0 0 0 0 0 0 127 0" result="hardAlpha"/>
<feOffset dy="2.56619"/>
<feGaussianBlur stdDeviation="1.28309"/>
<feComposite in2="hardAlpha" operator="out"/>
<feColorMatrix type="matrix" values="0 0 0 0 0 0 0 0 0 0 0 0 0 0 0 0 0 0 0.03 0"/>
<feBlend mode="normal" in2="BackgroundImageFix" result="effect1_dropShadow_1790_21044"/>
<feBlend mode="normal" in="SourceGraphic" in2="effect1_dropShadow_1790_21044" result="shape"/>
</filter>
<filter id="filter1_d_1790_21044" x="11.1952" y="15.3062" width="201.344" height="121.005" filterUnits="userSpaceOnUse" color-interpolation-filters="sRGB">
<feFlood flood-opacity="0" result="BackgroundImageFix"/>
<feColorMatrix in="SourceAlpha" type="matrix" values="0 0 0 0 0 0 0 0 0 0 0 0 0 0 0 0 0 0 127 0" result="hardAlpha"/>
<feOffset dy="2.86729"/>
<feGaussianBlur stdDeviation="1.43364"/>
<feComposite in2="hardAlpha" operator="out"/>
<feColorMatrix type="matrix" values="0 0 0 0 0 0 0 0 0 0 0 0 0 0 0 0 0 0 0.03 0"/>
<feBlend mode="normal" in2="BackgroundImageFix" result="effect1_dropShadow_1790_21044"/>
<feBlend mode="normal" in="SourceGraphic" in2="effect1_dropShadow_1790_21044" result="shape"/>
</filter>
<filter id="filter2_d_1790_21044" x="28.5921" y="238.851" width="56.0697" height="71.9168" filterUnits="userSpaceOnUse" color-interpolation-filters="sRGB">
<feFlood flood-opacity="0" result="BackgroundImageFix"/>
<feColorMatrix in="SourceAlpha" type="matrix" values="0 0 0 0 0 0 0 0 0 0 0 0 0 0 0 0 0 0 127 0" result="hardAlpha"/>
<feOffset dy="7.72206"/>
<feGaussianBlur stdDeviation="1.93051"/>
<feComposite in2="hardAlpha" operator="out"/>
<feColorMatrix type="matrix" values="0 0 0 0 1 0 0 0 0 0.772549 0 0 0 0 0.00392157 0 0 0 0.2 0"/>
<feBlend mode="normal" in2="BackgroundImageFix" result="effect1_dropShadow_1790_21044"/>
<feBlend mode="normal" in="SourceGraphic" in2="effect1_dropShadow_1790_21044" result="shape"/>
</filter>
<filter id="filter3_d_1790_21044" x="0.583982" y="357.615" width="222.574" height="215.217" filterUnits="userSpaceOnUse" color-interpolation-filters="sRGB">
<feFlood flood-opacity="0" result="BackgroundImageFix"/>
<feColorMatrix in="SourceAlpha" type="matrix" values="0 0 0 0 0 0 0 0 0 0 0 0 0 0 0 0 0 0 127 0" result="hardAlpha"/>
<feOffset dy="3.00196"/>
<feGaussianBlur stdDeviation="1.50098"/>
<feComposite in2="hardAlpha" operator="out"/>
<feColorMatrix type="matrix" values="0 0 0 0 0 0 0 0 0 0 0 0 0 0 0 0 0 0 0.03 0"/>
<feBlend mode="normal" in2="BackgroundImageFix" result="effect1_dropShadow_1790_21044"/>
<feBlend mode="normal" in="SourceGraphic" in2="effect1_dropShadow_1790_21044" result="shape"/>
</filter>
<clipPath id="clip0_1790_21044">
<rect x="3.58594" y="0.984863" width="216.568" height="178.844" rx="20.9582" fill="white"/>
</clipPath>
<clipPath id="clip1_1790_21044">
<rect width="6.14814" height="6.14814" fill="white" transform="translate(167.559 254.054)"/>
</clipPath>
<clipPath id="clip2_1790_21044">
<rect x="10.125" y="377.049" width="202.928" height="121.589" rx="6.86991" fill="white"/>
</clipPath>
</defs>
</svg>
