<svg width="27" height="27" viewBox="0 0 27 27" fill="none" xmlns="http://www.w3.org/2000/svg">
<path d="M19.459 5.06948C19.1822 4.79285 18.8489 4.57921 18.482 4.44314C18.1151 4.30707 17.7231 4.25179 17.3328 4.28106C16.9426 4.31033 16.5632 4.42346 16.2207 4.61274C15.8782 4.80201 15.5805 5.06297 15.3481 5.3778C14.6564 5.25459 13.9435 5.35525 13.313 5.66513C12.6825 5.97501 12.1673 6.47795 11.8424 7.10081C11.5174 7.72367 11.3996 8.43395 11.5062 9.12836C11.6127 9.82276 11.938 10.4651 12.4348 10.9619L13.8188 12.3486L12.3553 13.8121L14.2271 15.684L15.692 14.2205L17.0774 15.6059C17.5742 16.1026 18.2165 16.4279 18.9109 16.5345C19.6053 16.641 20.3156 16.5232 20.9385 16.1983C21.5613 15.8733 22.0643 15.3581 22.3741 14.7276C22.684 14.0971 22.7847 13.3842 22.6615 12.6926C22.9763 12.4601 23.2373 12.1625 23.4265 11.8199C23.6158 11.4774 23.7289 11.098 23.7582 10.7078C23.7875 10.3175 23.7322 9.92556 23.5961 9.55862C23.4601 9.19169 23.2464 8.85843 22.9698 8.58161L22.1503 7.76079L22.8684 7.04274C23.111 6.79336 23.2456 6.4585 23.2432 6.1106C23.2408 5.7627 23.1015 5.42973 22.8555 5.18372C22.6095 4.93771 22.2766 4.79845 21.9287 4.79604C21.5808 4.79364 21.2459 4.9283 20.9965 5.17088L20.2785 5.88893L19.459 5.06948ZM19.829 9.92864C19.9577 10.0571 20.03 10.2314 20.0301 10.4132C20.0303 10.5951 19.9582 10.7695 19.8297 10.8981C19.7012 11.0268 19.5269 11.0991 19.3451 11.0993C19.1633 11.0994 18.9888 11.0273 18.8602 10.8988L17.1171 9.15441C16.9923 9.02518 16.9233 8.85211 16.9248 8.67246C16.9264 8.49282 16.9985 8.32097 17.1255 8.19394C17.2525 8.0669 17.4244 7.99484 17.604 7.99328C17.7837 7.99172 17.9567 8.06078 18.086 8.18559L19.829 9.92864ZM5.33102 13.3955C5.95034 12.7763 6.79026 12.4285 7.66604 12.4285C8.54183 12.4285 9.38175 12.7763 10.0011 13.3955L14.6437 18.0396C15.1405 18.5364 15.4658 19.1787 15.5723 19.8731C15.6788 20.5675 15.5611 21.2778 15.2361 21.9006C14.9111 22.5235 14.396 23.0264 13.7655 23.3363C13.135 23.6462 12.4221 23.7468 11.7304 23.6236C11.498 23.9384 11.2003 24.1994 10.8578 24.3887C10.5152 24.578 10.1359 24.6911 9.74563 24.7204C9.35537 24.7496 8.9634 24.6943 8.59646 24.5583C8.22953 24.4222 7.89627 24.2086 7.61945 23.9319L6.79863 23.1125L6.05729 23.8538C5.93589 23.9829 5.7898 24.0864 5.62768 24.1579C5.46557 24.2295 5.29073 24.2678 5.11353 24.2706C4.93633 24.2734 4.76039 24.2405 4.59612 24.174C4.43186 24.1075 4.28263 24.0087 4.15727 23.8834C4.03191 23.7581 3.93298 23.609 3.86635 23.4447C3.79971 23.2805 3.76673 23.1046 3.76936 22.9274C3.77198 22.7502 3.81017 22.5753 3.88164 22.4132C3.95311 22.251 4.05641 22.1048 4.18543 21.9833L4.92677 21.2406L4.10732 20.4212C3.83069 20.1444 3.61705 19.8111 3.48098 19.4442C3.34491 19.0772 3.28963 18.6853 3.3189 18.295C3.34817 17.9048 3.4613 17.5254 3.65058 17.1829C3.83985 16.8403 4.10082 16.5427 4.41564 16.3102C4.32122 15.7865 4.35531 15.2476 4.51499 14.74C4.67466 14.2323 4.95379 13.7709 5.33102 13.3955ZM9.36661 21.3626C9.49506 21.2341 9.56722 21.0599 9.56722 20.8782C9.56722 20.6965 9.49506 20.5223 9.36661 20.3938L7.62219 18.6507C7.49297 18.5259 7.3199 18.4569 7.14025 18.4584C6.96061 18.46 6.78876 18.532 6.66172 18.6591C6.53469 18.7861 6.46263 18.958 6.46107 19.1376C6.45951 19.3172 6.52857 19.4903 6.65338 19.6195L8.39643 21.3626C8.46007 21.4264 8.53568 21.477 8.61892 21.5116C8.70216 21.5461 8.7914 21.5639 8.88152 21.5639C8.97164 21.5639 9.06088 21.5461 9.14412 21.5116C9.22736 21.477 9.30297 21.4264 9.36661 21.3626Z" fill="#0C2503"/>
</svg>
