<svg width="871" height="882" viewBox="0 0 871 882" fill="none" xmlns="http://www.w3.org/2000/svg">
<g clip-path="url(#clip0_1645_7127)">
<path d="M607.398 317.873L608.919 316.352L858.271 67.0005C873.285 51.9868 873.285 27.6377 858.271 12.6241C843.257 -2.38962 818.908 -2.38962 803.895 12.6241L554.543 261.976L553.022 263.497L607.398 317.873ZM803.538 43.0074C814.703 31.0254 829.495 26.6561 836.578 33.2486C843.671 39.8508 840.36 54.9221 829.196 66.9138C818.042 78.8959 803.24 83.2653 796.157 76.6727C789.064 70.0706 792.374 54.9991 803.538 43.0074Z" fill="#0A0B0A" stroke="#898483" stroke-width="0.962414" stroke-miterlimit="10"/>
<path d="M526.96 279.94L590.48 343.46L613.251 320.69L549.731 257.17L526.96 279.94Z" fill="#898483" stroke="black" stroke-width="0.962414" stroke-miterlimit="10"/>
<path d="M337.367 218.34C157.179 218.34 11.108 364.411 11.108 544.598C11.108 724.786 157.179 870.857 337.367 870.857C517.554 870.857 663.625 724.786 663.625 544.598C663.625 364.411 517.554 218.34 337.367 218.34Z" fill="#898483" stroke="#EDFAE7" stroke-width="19.2483" stroke-miterlimit="10"/>
<path d="M329.667 251.062C171.803 251.062 43.8297 379.036 43.8297 536.899C43.8297 694.763 171.803 822.736 329.667 822.736C487.53 822.736 615.504 694.763 615.504 536.899C615.504 379.036 487.53 251.062 329.667 251.062Z" fill="#9F9C9C"/>
<path d="M485.067 736.503C487.358 734.983 489.504 733.26 491.458 731.326C507.203 715.792 579.442 638.992 571.945 544.598C571.945 544.598 568.48 494.533 546.508 457.191C545.709 455.835 545.189 454.343 545.026 452.784C543.852 442.168 537.269 397.753 507.713 380.025C507.713 380.025 486.155 365.425 477.33 353.357C473.836 348.583 469.467 344.531 464.27 341.711C425.388 320.538 278.581 251.216 174.891 347.303C174.891 347.303 103.499 425.259 87.1378 499.364C85.4536 505.168 83.1823 513.416 80.8821 523.425C75.6658 546.119 73.048 557.465 74.6264 567.696C76.7245 581.324 83.5095 585.674 97.1277 605.346C104.038 615.345 113.258 630.08 122.237 649.78C124.277 654.255 127.049 658.346 130.408 661.936C134.566 666.372 139.782 671.175 146.211 675.727C157.481 683.705 168.452 688.094 176.787 690.577C180.088 691.559 183.187 693.108 186.007 695.081C204.889 708.305 228.247 722.443 256.167 735.041C300.534 755.068 341.157 764.346 372.022 768.841C372.012 768.841 431.971 771.612 485.067 736.503Z" fill="#EDA145"/>
<path d="M494.24 699.547C494.24 699.547 394.149 764.491 329.668 747.417C329.668 747.417 177.606 722.645 137.185 611.005C137.185 611.005 74.6277 514.032 137.185 421.043C137.185 421.043 193.967 323.243 295.021 325.168C295.021 325.168 443.232 325.168 485.579 391.574C485.579 391.574 555.411 472.417 559.473 544.598C559.473 544.598 561.609 636.99 494.24 699.547Z" fill="#F4C790"/>
<path d="M367.703 452.069C360.216 463.048 361.246 476.789 370.002 482.76C378.759 488.731 391.927 484.672 399.413 473.693C406.9 462.714 405.87 448.974 397.113 443.002C388.357 437.031 375.189 441.091 367.703 452.069Z" fill="#EDA145"/>
<path d="M338.09 557.014C333.298 564.041 335.071 573.594 342.049 578.353C349.027 583.111 358.568 581.273 363.36 574.246C368.151 567.22 366.378 557.666 359.4 552.908C352.422 548.15 342.881 549.988 338.09 557.014Z" fill="#EDA145"/>
<path d="M300.568 500.937C296.441 506.988 297.941 515.198 303.918 519.274C309.895 523.35 318.085 521.748 322.212 515.696C326.338 509.645 324.838 501.435 318.862 497.36C312.885 493.284 304.694 494.886 300.568 500.937Z" fill="#EDA145"/>
<path d="M443.965 520.182C439.838 526.234 441.306 534.421 447.243 538.47C453.181 542.519 461.339 540.895 465.466 534.844C469.592 528.792 468.124 520.605 462.187 516.556C456.25 512.507 448.091 514.131 443.965 520.182Z" fill="#EDA145"/>
<path d="M375.352 579.752C371.911 584.798 373.226 591.687 378.29 595.14C383.353 598.593 390.247 597.302 393.688 592.256C397.129 587.21 395.813 580.321 390.75 576.868C385.687 573.415 378.793 574.706 375.352 579.752Z" fill="#EDA145"/>
<path d="M349.416 393.558C346.502 397.83 347.59 403.647 351.845 406.549C356.1 409.45 361.912 408.339 364.826 404.066C367.739 399.793 366.652 393.977 362.397 391.075C358.141 388.173 352.33 389.285 349.416 393.558Z" fill="#EDA145"/>
<path d="M402.345 397.406C399.432 401.679 400.519 407.495 404.775 410.397C409.03 413.298 414.842 412.187 417.755 407.914C420.669 403.641 419.582 397.825 415.326 394.923C411.071 392.021 405.259 393.133 402.345 397.406Z" fill="#EDA145"/>
<path d="M454.576 442.134C451.5 446.644 452.763 452.862 457.396 456.021C462.029 459.18 468.278 458.085 471.353 453.575C474.429 449.065 473.166 442.848 468.533 439.689C463.9 436.529 457.651 437.624 454.576 442.134Z" fill="#EDA145"/>
<path d="M385.945 619.229C383.229 623.212 384.181 628.592 388.072 631.245C391.963 633.899 397.319 632.82 400.035 628.837C402.751 624.854 401.799 619.475 397.908 616.821C394.017 614.168 388.661 615.246 385.945 619.229Z" fill="#EDA145"/>
<path d="M448.198 588.618C447.359 589.848 447.815 591.619 449.216 592.574C450.617 593.529 452.432 593.307 453.271 592.077C454.109 590.848 453.653 589.077 452.253 588.121C450.852 587.166 449.036 587.388 448.198 588.618Z" fill="#EDA145"/>
<path d="M496.307 586.692C495.469 587.921 495.925 589.693 497.325 590.648C498.726 591.603 500.542 591.381 501.38 590.151C502.219 588.922 501.763 587.15 500.362 586.195C498.961 585.24 497.146 585.462 496.307 586.692Z" fill="#EDA145"/>
<path d="M495.698 534.636C494.383 536.564 494.816 539.149 496.665 540.41C498.514 541.67 501.078 541.13 502.393 539.202C503.708 537.274 503.275 534.689 501.426 533.428C499.577 532.167 497.013 532.708 495.698 534.636Z" fill="#EDA145"/>
<path d="M417.397 628.077C416.559 629.306 417.014 631.077 418.415 632.033C419.816 632.988 421.632 632.766 422.47 631.536C423.309 630.306 422.853 628.535 421.452 627.58C420.051 626.625 418.236 626.847 417.397 628.077Z" fill="#EDA145"/>
<path d="M461.083 643.859C460.461 644.773 460.952 646.193 462.182 647.031C463.412 647.87 464.913 647.809 465.536 646.896C466.159 645.982 465.667 644.562 464.438 643.723C463.208 642.885 461.706 642.946 461.083 643.859Z" fill="#EDA145"/>
</g>
<defs>
<clipPath id="clip0_1645_7127">
<rect width="869.603" height="880.752" fill="white" transform="matrix(-1 0 0 -1 870.414 881.148)"/>
</clipPath>
</defs>
</svg>
