<svg width="223" height="451" viewBox="0 0 223 451" fill="none" xmlns="http://www.w3.org/2000/svg">
<g filter="url(#filter0_d_1790_21331)">
<g clip-path="url(#clip0_1790_21331)">
<rect x="3.5" y="0.898926" width="216.568" height="443.929" rx="22.8525" fill="white"/>
<g filter="url(#filter1_d_1790_21331)">
<g clip-path="url(#clip1_1790_21331)">
<rect x="17.5273" y="13.4932" width="189.149" height="113.333" rx="6.40344" fill="#EDFAE7"/>
<path d="M34.3917 68.0847H32.9379V59.5144H34.3917L37.1586 66.3378L39.9255 59.5144H41.4028V68.0847H39.949V65.4468C39.949 63.7233 39.949 63.2192 40.031 62.6095L37.8504 68.0847H36.4669L34.2979 62.6213C34.38 63.1371 34.3917 63.9461 34.3917 65.013V68.0847ZM42.7486 65.1771C42.7486 63.3716 44.0499 62.1289 45.8437 62.1289C47.6375 62.1289 48.9389 63.3716 48.9389 65.1771C48.9389 66.9826 47.6375 68.2254 45.8437 68.2254C44.0499 68.2254 42.7486 66.9826 42.7486 65.1771ZM44.1789 65.1771C44.1789 66.2323 44.8589 66.9475 45.8437 66.9475C46.8286 66.9475 47.5086 66.2323 47.5086 65.1771C47.5086 64.122 46.8286 63.4068 45.8437 63.4068C44.8589 63.4068 44.1789 64.122 44.1789 65.1771ZM50.7878 61.1323C50.2954 61.1323 49.9085 60.7454 49.9085 60.2647C49.9085 59.784 50.2954 59.4089 50.7878 59.4089C51.2568 59.4089 51.6437 59.784 51.6437 60.2647C51.6437 60.7454 51.2568 61.1323 50.7878 61.1323ZM50.0727 68.0847V62.293H51.503V68.0847H50.0727ZM52.9691 65.5875V64.3213H56.7443V65.5875H52.9691ZM59.6321 68.0847H58.2017V62.293H59.5148L59.6321 62.973C59.9252 62.4923 60.5114 62.1171 61.3438 62.1171C62.2231 62.1171 62.8327 62.5509 63.1376 63.2192C63.4307 62.5509 64.1107 62.1171 64.99 62.1171C66.3969 62.1171 67.1707 62.9613 67.1707 64.2978V68.0847H65.7521V64.673C65.7521 63.8406 65.3065 63.4068 64.6265 63.4068C63.9348 63.4068 63.4072 63.8523 63.4072 64.802V68.0847H61.9769V64.6613C61.9769 63.8523 61.5431 63.4185 60.8631 63.4185C60.1831 63.4185 59.6321 63.864 59.6321 64.802V68.0847ZM68.2348 65.1771C68.2348 63.3716 69.5362 62.1289 71.33 62.1289C73.1238 62.1289 74.4252 63.3716 74.4252 65.1771C74.4252 66.9826 73.1238 68.2254 71.33 68.2254C69.5362 68.2254 68.2348 66.9826 68.2348 65.1771ZM69.6652 65.1771C69.6652 66.2323 70.3452 66.9475 71.33 66.9475C72.3148 66.9475 72.9948 66.2323 72.9948 65.1771C72.9948 64.122 72.3148 63.4068 71.33 63.4068C70.3452 63.4068 69.6652 64.122 69.6652 65.1771ZM76.2741 61.1323C75.7817 61.1323 75.3948 60.7454 75.3948 60.2647C75.3948 59.784 75.7817 59.4089 76.2741 59.4089C76.7431 59.4089 77.13 59.784 77.13 60.2647C77.13 60.7454 76.7431 61.1323 76.2741 61.1323ZM75.5589 68.0847V62.293H76.9893V68.0847H75.5589Z" fill="#0C2503"/>
<path d="M33.5828 81.6479H32.7242V75.3136H33.5828L36.8245 80.2111V75.3136H37.6831V81.6479H36.8245L33.5828 76.7504V81.6479ZM41.9794 77.3637H42.7942V81.6479H42.0582L41.9706 80.9996C41.7253 81.4464 41.1558 81.7531 40.525 81.7531C39.5262 81.7531 38.9655 81.0785 38.9655 80.0271V77.3637H39.7891V79.7555C39.7891 80.6755 40.1833 81.0259 40.8141 81.0259C41.5676 81.0259 41.9794 80.544 41.9794 79.6241V77.3637ZM45.1981 81.6479H44.3746V78.0558H43.5335V77.3637H44.3746V76.0232H45.1981V77.3637H46.0392V78.0558H45.1981V81.6479ZM49.2314 77.3287V78.0821H48.8635C48.0837 78.0821 47.6019 78.5552 47.6019 79.3788V81.6479H46.7783V77.3725H47.5493L47.6019 78.0208C47.7771 77.574 48.2064 77.2761 48.7934 77.2761C48.9423 77.2761 49.065 77.2936 49.2314 77.3287ZM50.4069 76.3474C50.109 76.3474 49.8637 76.1021 49.8637 75.8042C49.8637 75.4976 50.109 75.261 50.4069 75.261C50.7048 75.261 50.9501 75.4976 50.9501 75.8042C50.9501 76.1021 50.7048 76.3474 50.4069 76.3474ZM50.0039 81.6479V77.3637H50.8274V81.6479H50.0039ZM53.2321 81.6479H52.4086V78.0558H51.5675V77.3637H52.4086V76.0232H53.2321V77.3637H54.0732V78.0558H53.2321V81.6479ZM55.2153 76.3474C54.9174 76.3474 54.6721 76.1021 54.6721 75.8042C54.6721 75.4976 54.9174 75.261 55.2153 75.261C55.5132 75.261 55.7585 75.4976 55.7585 75.8042C55.7585 76.1021 55.5132 76.3474 55.2153 76.3474ZM54.8123 81.6479V77.3637H55.6359V81.6479H54.8123ZM56.5511 79.5014C56.5511 78.1785 57.4973 77.2498 58.7852 77.2498C60.0644 77.2498 61.0106 78.1785 61.0106 79.5014C61.0106 80.8244 60.0644 81.7531 58.7852 81.7531C57.4973 81.7531 56.5511 80.8244 56.5511 79.5014ZM57.3834 79.5014C57.3834 80.3951 57.9529 81.0171 58.7852 81.0171C59.6088 81.0171 60.187 80.3951 60.187 79.5014C60.187 78.6078 59.6088 77.9857 58.7852 77.9857C57.9529 77.9857 57.3834 78.6078 57.3834 79.5014ZM64.7809 77.3637H65.5957V81.6479H64.8597L64.7721 80.9996C64.5268 81.4464 63.9573 81.7531 63.3265 81.7531C62.3277 81.7531 61.767 81.0785 61.767 80.0271V77.3637H62.5906V79.7555C62.5906 80.6755 62.9848 81.0259 63.6156 81.0259C64.3691 81.0259 64.7809 80.544 64.7809 79.6241V77.3637ZM66.3546 80.4039H67.1431C67.1431 80.8419 67.476 81.1048 68.0192 81.1048C68.5974 81.1048 68.9304 80.8682 68.9304 80.4739C68.9304 80.1848 68.7902 80.0096 68.3434 79.8957L67.5899 79.7205C66.8277 79.5365 66.4685 79.1598 66.4685 78.5289C66.4685 77.7404 67.1343 77.241 68.0805 77.241C69.018 77.241 69.6313 77.7667 69.6488 78.5815H68.8603C68.8428 78.1522 68.5536 77.8806 68.0542 77.8806C67.5373 77.8806 67.2482 78.1084 67.2482 78.5027C67.2482 78.7918 67.4585 78.9845 67.879 79.0897L68.6325 79.2737C69.3597 79.4489 69.7189 79.7818 69.7189 80.4214C69.7189 81.2362 69.018 81.7531 68.0017 81.7531C66.9941 81.7531 66.3546 81.2186 66.3546 80.4039ZM73.7725 81.6479H73.0278V75.1997H73.8514V78.0996C74.1317 77.5389 74.71 77.241 75.4109 77.241C76.6375 77.241 77.3734 78.2048 77.3734 79.5277C77.3734 80.8244 76.6024 81.7531 75.3583 81.7531C74.6837 81.7531 74.1142 81.4552 73.8339 80.8682L73.7725 81.6479ZM73.8601 79.4927C73.8601 80.3863 74.3683 81.0084 75.2094 81.0084C76.0505 81.0084 76.5498 80.3776 76.5498 79.4927C76.5498 78.6166 76.0505 77.9857 75.2094 77.9857C74.3683 77.9857 73.8601 78.6166 73.8601 79.4927ZM80.1298 81.7531C78.8682 81.7531 78.0008 80.8419 78.0008 79.5102C78.0008 78.1697 78.8506 77.241 80.0947 77.241C81.3125 77.241 82.1098 78.0821 82.1098 79.3525V79.6591L78.7981 79.6679C78.8594 80.5703 79.3325 81.0697 80.1473 81.0697C80.7869 81.0697 81.2074 80.8069 81.3476 80.3162H82.1186C81.9083 81.2362 81.1899 81.7531 80.1298 81.7531ZM80.0947 77.9332C79.3763 77.9332 78.9207 78.3625 78.8156 79.1159H81.2863C81.2863 78.4063 80.8219 77.9332 80.0947 77.9332ZM84.2398 81.7531C83.3198 81.7531 82.7766 81.2362 82.7766 80.4564C82.7766 79.6679 83.3636 79.1773 84.3712 79.0984L85.7204 78.9933V78.8706C85.7204 78.1522 85.2911 77.8981 84.7129 77.8981C84.0207 77.8981 83.6265 78.2048 83.6265 78.7217H82.908C82.908 77.828 83.644 77.241 84.7479 77.241C85.808 77.241 86.5264 77.8018 86.5264 78.9582V81.6479H85.8255L85.7379 80.9558C85.5189 81.4464 84.9319 81.7531 84.2398 81.7531ZM84.4763 81.1135C85.2561 81.1135 85.7292 80.6054 85.7292 79.7993V79.5715L84.634 79.6591C83.9068 79.7292 83.6089 80.0096 83.6089 80.4301C83.6089 80.8857 83.9419 81.1135 84.4763 81.1135ZM88.4905 81.6479H87.667V77.3637H88.4117L88.4993 78.0208C88.7709 77.5302 89.3141 77.241 89.9186 77.241C91.0488 77.241 91.5657 77.9332 91.5657 79.0283V81.6479H90.7422V79.2123C90.7422 78.345 90.3392 77.9945 89.7083 77.9945C88.9374 77.9945 88.4905 78.5465 88.4905 79.3788V81.6479ZM94.8217 79.5102C94.8217 78.1697 95.6715 77.241 96.9244 77.241C98.002 77.241 98.7555 77.8543 98.9044 78.8093H98.0809C97.9407 78.2661 97.5026 77.977 96.9507 77.977C96.1709 77.977 95.6365 78.5728 95.6365 79.5014C95.6365 80.4214 96.1359 81.0171 96.9156 81.0171C97.5026 81.0171 97.9407 80.7105 98.0896 80.2023H98.9132C98.7467 81.131 97.9495 81.7531 96.9156 81.7531C95.654 81.7531 94.8217 80.8594 94.8217 79.5102ZM101.035 81.7531C100.115 81.7531 99.5719 81.2362 99.5719 80.4564C99.5719 79.6679 100.159 79.1773 101.166 79.0984L102.516 78.9933V78.8706C102.516 78.1522 102.086 77.8981 101.508 77.8981C100.816 77.8981 100.422 78.2048 100.422 78.7217H99.7033C99.7033 77.828 100.439 77.241 101.543 77.241C102.603 77.241 103.322 77.8018 103.322 78.9582V81.6479H102.621L102.533 80.9558C102.314 81.4464 101.727 81.7531 101.035 81.7531ZM101.272 81.1135C102.051 81.1135 102.524 80.6054 102.524 79.7993V79.5715L101.429 79.6591C100.702 79.7292 100.404 80.0096 100.404 80.4301C100.404 80.8857 100.737 81.1135 101.272 81.1135ZM105.303 81.6479H104.48V75.1997H105.303V79.3788L107.204 77.3637H108.238L106.6 79.0721L108.23 81.6479H107.283L106.03 79.6679L105.303 80.4301V81.6479ZM110.597 81.7531C109.336 81.7531 108.468 80.8419 108.468 79.5102C108.468 78.1697 109.318 77.241 110.562 77.241C111.78 77.241 112.577 78.0821 112.577 79.3525V79.6591L109.266 79.6679C109.327 80.5703 109.8 81.0697 110.615 81.0697C111.254 81.0697 111.675 80.8069 111.815 80.3162H112.586C112.376 81.2362 111.657 81.7531 110.597 81.7531ZM110.562 77.9332C109.844 77.9332 109.388 78.3625 109.283 79.1159H111.754C111.754 78.4063 111.289 77.9332 110.562 77.9332ZM116.716 81.6392H115.893V75.1997H116.716V78.0208C116.988 77.5564 117.505 77.241 118.171 77.241C119.266 77.241 119.792 77.9332 119.792 79.0283V81.6479H118.968V79.2123C118.968 78.345 118.556 77.9945 117.943 77.9945C117.146 77.9945 116.716 78.5728 116.716 79.3087V81.6392ZM121.335 76.3474C121.037 76.3474 120.792 76.1021 120.792 75.8042C120.792 75.4976 121.037 75.261 121.335 75.261C121.633 75.261 121.879 75.4976 121.879 75.8042C121.879 76.1021 121.633 76.3474 121.335 76.3474ZM120.932 81.6479V77.3637H121.756V81.6479H120.932ZM122.68 79.3963C122.68 78.1873 123.46 77.241 124.704 77.241C125.396 77.241 125.93 77.5564 126.202 78.0909L126.263 77.3637H126.999V81.4727C126.999 82.822 126.167 83.6806 124.853 83.6806C123.687 83.6806 122.89 83.0235 122.733 81.9371H123.556C123.661 82.5679 124.134 82.9359 124.853 82.9359C125.659 82.9359 126.184 82.4102 126.184 81.5954V80.7368C125.904 81.2362 125.343 81.5341 124.669 81.5341C123.451 81.5341 122.68 80.5966 122.68 79.3963ZM123.504 79.3788C123.504 80.1848 124.003 80.8156 124.809 80.8156C125.641 80.8156 126.149 80.2199 126.149 79.3788C126.149 78.5552 125.659 77.9595 124.818 77.9595C123.994 77.9595 123.504 78.5903 123.504 79.3788ZM129.011 81.6392H128.188V75.1997H129.011V78.0208C129.283 77.5564 129.8 77.241 130.466 77.241C131.561 77.241 132.087 77.9332 132.087 79.0283V81.6479H131.263V79.2123C131.263 78.345 130.851 77.9945 130.238 77.9945C129.441 77.9945 129.011 78.5728 129.011 79.3087V81.6392ZM136.026 76.3474C135.728 76.3474 135.483 76.1021 135.483 75.8042C135.483 75.4976 135.728 75.261 136.026 75.261C136.324 75.261 136.569 75.4976 136.569 75.8042C136.569 76.1021 136.324 76.3474 136.026 76.3474ZM135.623 81.6479V77.3637H136.446V81.6479H135.623ZM138.466 81.6479H137.642V77.3637H138.387L138.474 78.0208C138.746 77.5302 139.289 77.241 139.894 77.241C141.024 77.241 141.541 77.9332 141.541 79.0283V81.6479H140.717V79.2123C140.717 78.345 140.314 77.9945 139.683 77.9945C138.912 77.9945 138.466 78.5465 138.466 79.3788V81.6479ZM145.077 83.5667V77.3637H145.822L145.883 78.1347C146.172 77.5477 146.751 77.241 147.434 77.241C148.66 77.241 149.423 78.161 149.423 79.4752C149.423 80.7806 148.704 81.7618 147.434 81.7618C146.751 81.7618 146.181 81.4727 145.901 80.947V83.5667H145.077ZM145.909 79.5102C145.909 80.3863 146.418 81.0171 147.259 81.0171C148.1 81.0171 148.599 80.3863 148.599 79.5102C148.599 78.6253 148.1 77.9945 147.259 77.9945C146.418 77.9945 145.909 78.6166 145.909 79.5102ZM152.784 77.3287V78.0821H152.416C151.636 78.0821 151.154 78.5552 151.154 79.3788V81.6479H150.33V77.3725H151.101L151.154 78.0208C151.329 77.574 151.759 77.2761 152.346 77.2761C152.494 77.2761 152.617 77.2936 152.784 77.3287ZM153.122 79.5014C153.122 78.1785 154.068 77.2498 155.356 77.2498C156.635 77.2498 157.581 78.1785 157.581 79.5014C157.581 80.8244 156.635 81.7531 155.356 81.7531C154.068 81.7531 153.122 80.8244 153.122 79.5014ZM153.954 79.5014C153.954 80.3951 154.523 81.0171 155.356 81.0171C156.179 81.0171 156.758 80.3951 156.758 79.5014C156.758 78.6078 156.179 77.9857 155.356 77.9857C154.523 77.9857 153.954 78.6078 153.954 79.5014ZM159.659 81.6479H158.836V78.0558H157.994V77.3637H158.836V76.0232H159.659V77.3637H160.5V78.0558H159.659V81.6479ZM163.045 81.7531C161.783 81.7531 160.916 80.8419 160.916 79.5102C160.916 78.1697 161.766 77.241 163.01 77.241C164.228 77.241 165.025 78.0821 165.025 79.3525V79.6591L161.713 79.6679C161.775 80.5703 162.248 81.0697 163.063 81.0697C163.702 81.0697 164.123 80.8069 164.263 80.3162H165.034C164.824 81.2362 164.105 81.7531 163.045 81.7531ZM163.01 77.9332C162.292 77.9332 161.836 78.3625 161.731 79.1159H164.202C164.202 78.4063 163.737 77.9332 163.01 77.9332ZM166.348 76.3474C166.05 76.3474 165.805 76.1021 165.805 75.8042C165.805 75.4976 166.05 75.261 166.348 75.261C166.646 75.261 166.891 75.4976 166.891 75.8042C166.891 76.1021 166.646 76.3474 166.348 76.3474ZM165.945 81.6479V77.3637H166.769V81.6479H165.945ZM168.788 81.6479H167.964V77.3637H168.709L168.796 78.0208C169.068 77.5302 169.611 77.241 170.216 77.241C171.346 77.241 171.863 77.9332 171.863 79.0283V81.6479H171.039V79.2123C171.039 78.345 170.636 77.9945 170.006 77.9945C169.235 77.9945 168.788 78.5465 168.788 79.3788V81.6479ZM176.652 81.7531C175.732 81.7531 175.189 81.2362 175.189 80.4564C175.189 79.6679 175.776 79.1773 176.784 79.0984L178.133 78.9933V78.8706C178.133 78.1522 177.703 77.8981 177.125 77.8981C176.433 77.8981 176.039 78.2048 176.039 78.7217H175.32C175.32 77.828 176.056 77.241 177.16 77.241C178.22 77.241 178.939 77.8018 178.939 78.9582V81.6479H178.238L178.15 80.9558C177.931 81.4464 177.344 81.7531 176.652 81.7531ZM176.889 81.1135C177.668 81.1135 178.142 80.6054 178.142 79.7993V79.5715L177.046 79.6591C176.319 79.7292 176.021 80.0096 176.021 80.4301C176.021 80.8857 176.354 81.1135 176.889 81.1135ZM180.903 81.6479H180.079V77.3637H180.824L180.912 78.0208C181.183 77.5302 181.726 77.241 182.331 77.241C183.461 77.241 183.978 77.9332 183.978 79.0283V81.6479H183.155V79.2123C183.155 78.345 182.752 77.9945 182.121 77.9945C181.35 77.9945 180.903 78.5465 180.903 79.3788V81.6479ZM186.836 81.7531C185.592 81.7531 184.838 80.8244 184.838 79.519C184.838 78.2048 185.601 77.241 186.871 77.241C187.528 77.241 188.08 77.5302 188.369 78.0558V75.1997H189.184V81.6479H188.448L188.378 80.8682C188.098 81.4552 187.519 81.7531 186.836 81.7531ZM187.002 81.0084C187.844 81.0084 188.36 80.3863 188.36 79.4927C188.36 78.6166 187.844 77.9857 187.002 77.9857C186.161 77.9857 185.671 78.6166 185.671 79.4927C185.671 80.3776 186.161 81.0084 187.002 81.0084ZM35.484 93.6479V90.0558H33.5828V93.6479H32.7593V90.0558H32.1285V89.3637H32.7593V88.6803C32.7593 87.629 33.3288 87.1997 34.0735 87.1997C34.2312 87.1997 34.4239 87.2084 34.5816 87.2347V87.9444H34.2136C33.7142 87.9444 33.5828 88.216 33.5828 88.6803V89.3637H36.3076V93.6479H35.484ZM35.8958 88.3123C35.5979 88.3123 35.3701 88.0846 35.3701 87.7867C35.3701 87.4888 35.5979 87.261 35.8958 87.261C36.1849 87.261 36.4127 87.4888 36.4127 87.7867C36.4127 88.0846 36.1849 88.3123 35.8958 88.3123ZM38.2227 93.6479H37.478V87.1997H38.3016V90.0996C38.5819 89.5389 39.1602 89.241 39.8611 89.241C41.0877 89.241 41.8236 90.2048 41.8236 91.5277C41.8236 92.8244 41.0526 93.7531 39.8085 93.7531C39.1339 93.7531 38.5644 93.4552 38.2841 92.8682L38.2227 93.6479ZM38.3103 91.4927C38.3103 92.3863 38.8185 93.0084 39.6596 93.0084C40.5007 93.0084 41 92.3776 41 91.4927C41 90.6166 40.5007 89.9857 39.6596 89.9857C38.8185 89.9857 38.3103 90.6166 38.3103 91.4927ZM44.58 93.7531C43.3184 93.7531 42.451 92.8419 42.451 91.5102C42.451 90.1697 43.3008 89.241 44.5449 89.241C45.7627 89.241 46.56 90.0821 46.56 91.3525V91.6591L43.2483 91.6679C43.3096 92.5703 43.7827 93.0697 44.5975 93.0697C45.2371 93.0697 45.6576 92.8069 45.7978 92.3162H46.5688C46.3585 93.2362 45.6401 93.7531 44.58 93.7531ZM44.5449 89.9332C43.8265 89.9332 43.3709 90.3625 43.2658 91.1159H45.7365C45.7365 90.4063 45.2721 89.9332 44.5449 89.9332ZM49.933 89.3287V90.0821H49.5651C48.7853 90.0821 48.3034 90.5552 48.3034 91.3788V93.6479H47.4799V89.3725H48.2509L48.3034 90.0208C48.4787 89.574 48.908 89.2761 49.495 89.2761C49.6439 89.2761 49.7666 89.2936 49.933 89.3287ZM50.6257 93.7531C50.284 93.7531 49.9949 93.4727 49.9949 93.1398C49.9949 92.7981 50.284 92.5177 50.6257 92.5177C50.9586 92.5177 51.2478 92.7981 51.2478 93.1398C51.2478 93.4727 50.9586 93.7531 50.6257 93.7531Z" fill="#7B7B7B"/>
<path d="M29.6156 31.6741V24.9549H32.2904C33.614 24.9549 34.4229 25.6443 34.4229 26.7657C34.4229 27.5102 34.092 28.0433 33.4578 28.3099C34.1655 28.5397 34.524 29.0728 34.524 29.8541C34.524 31.0031 33.7243 31.6741 32.3364 31.6741H29.6156ZM32.1893 25.9936H30.7922V27.8227H32.2169C32.8603 27.8227 33.2188 27.4826 33.2188 26.8852C33.2188 26.3061 32.8511 25.9936 32.1893 25.9936ZM32.2904 28.8154H30.7922V30.6354H32.2904C32.9522 30.6354 33.3199 30.3137 33.3199 29.707C33.3199 29.1372 32.943 28.8154 32.2904 28.8154ZM38.2868 27.115V28.1536H37.8732C37.0643 28.1536 36.5588 28.5857 36.5588 29.4681V31.6741H35.4374V27.1426H36.4944L36.5588 27.8044C36.7518 27.354 37.1838 27.0506 37.7904 27.0506C37.9467 27.0506 38.103 27.069 38.2868 27.115ZM40.9246 31.7936C39.5734 31.7936 38.6267 30.8101 38.6267 29.4037C38.6267 27.979 39.555 26.9955 40.8878 26.9955C42.2482 26.9955 43.1122 27.9055 43.1122 29.321V29.6611L39.6929 29.6703C39.7756 30.47 40.1985 30.8744 40.943 30.8744C41.5588 30.8744 41.9633 30.6354 42.092 30.2034H43.1306C42.9376 31.1961 42.1103 31.7936 40.9246 31.7936ZM40.897 27.9147C40.2352 27.9147 39.8308 28.2731 39.7205 28.9533H42C42 28.3283 41.568 27.9147 40.897 27.9147ZM45.316 31.7936C44.3509 31.7936 43.7626 31.2329 43.7626 30.378C43.7626 29.5416 44.3693 29.0177 45.4447 28.9349L46.8051 28.8338V28.7327C46.8051 28.1169 46.4374 27.8687 45.8675 27.8687C45.2057 27.8687 44.8381 28.1445 44.8381 28.6224H43.8821C43.8821 27.6389 44.691 26.9955 45.9227 26.9955C47.1452 26.9955 47.8989 27.6573 47.8989 28.9166V31.6741H46.9154L46.8327 31.0031C46.6396 31.4719 46.0238 31.7936 45.316 31.7936ZM45.6837 30.9479C46.3731 30.9479 46.8143 30.5343 46.8143 29.8357V29.5967L45.8675 29.6703C45.169 29.7346 44.9024 29.9644 44.9024 30.3321C44.9024 30.7457 45.1781 30.9479 45.6837 30.9479ZM50.1311 31.6741H49.0189V24.8354H50.1311V29.036L51.8959 27.1334H53.3023L51.5742 28.9349L53.2655 31.6741H51.9787L50.7929 29.7622L50.1311 30.4516V31.6741ZM53.4961 27.1334H54.1487V26.5819C54.1487 25.3502 54.8013 24.8354 55.7848 24.8354C55.9595 24.8354 56.1709 24.8446 56.3639 24.8814V25.8373H55.9687C55.3988 25.8373 55.2609 26.1315 55.2609 26.5819V27.1334H56.3455V28.0709H55.2609V31.6741H54.1487V28.0709H53.4961V27.1334ZM58.2957 31.7936C57.3306 31.7936 56.7423 31.2329 56.7423 30.378C56.7423 29.5416 57.349 29.0177 58.4244 28.9349L59.7848 28.8338V28.7327C59.7848 28.1169 59.4171 27.8687 58.8472 27.8687C58.1854 27.8687 57.8178 28.1445 57.8178 28.6224H56.8618C56.8618 27.6389 57.6707 26.9955 58.9024 26.9955C60.1249 26.9955 60.8786 27.6573 60.8786 28.9166V31.6741H59.8951L59.8124 31.0031C59.6193 31.4719 59.0035 31.7936 58.2957 31.7936ZM58.6634 30.9479C59.3528 30.9479 59.794 30.5343 59.794 29.8357V29.5967L58.8472 29.6703C58.1487 29.7346 57.8821 29.9644 57.8821 30.3321C57.8821 30.7457 58.1579 30.9479 58.6634 30.9479ZM61.631 30.2953H62.6972C62.7064 30.6906 63.0005 30.9387 63.5153 30.9387C64.0392 30.9387 64.3241 30.7273 64.3241 30.3964C64.3241 30.1666 64.2047 30.0012 63.8002 29.9093L62.9822 29.7162C62.1641 29.5324 61.7688 29.1463 61.7688 28.4202C61.7688 27.5286 62.5226 26.9955 63.5704 26.9955C64.5907 26.9955 65.2801 27.5838 65.2893 28.4662H64.223C64.2138 28.0801 63.9565 27.8319 63.5245 27.8319C63.0833 27.8319 62.8259 28.0341 62.8259 28.3742C62.8259 28.6316 63.0281 28.7971 63.4142 28.889L64.2322 29.082C64.9951 29.2566 65.3812 29.6059 65.3812 30.3045C65.3812 31.2237 64.5999 31.7936 63.4785 31.7936C62.3479 31.7936 61.631 31.1869 61.631 30.2953ZM67.7792 31.6741H66.6578V28.0709H65.7846V27.1334H66.6578V25.7178H67.7792V27.1334H68.6616V28.0709H67.7792V31.6741Z" fill="#0C2503"/>
<rect x="86.3086" y="100.252" width="120.632" height="26.6322" rx="6.9424" fill="#FAFAFA"/>
<path d="M96.8075 117.068L94.2188 110.212H95.4944L96.9951 114.161C97.1451 114.573 97.2764 114.977 97.4265 115.53C97.5953 114.93 97.736 114.508 97.8673 114.161L99.3493 110.212H100.597L98.0456 117.068H96.8075ZM101.855 111.506C101.461 111.506 101.152 111.197 101.152 110.812C101.152 110.428 101.461 110.127 101.855 110.127C102.231 110.127 102.54 110.428 102.54 110.812C102.54 111.197 102.231 111.506 101.855 111.506ZM101.283 117.068V112.435H102.428V117.068H101.283ZM105.683 117.19C104.304 117.19 103.338 116.186 103.338 114.751C103.338 113.298 104.285 112.294 105.645 112.294C107.033 112.294 107.915 113.223 107.915 114.667V115.014L104.426 115.023C104.51 115.839 104.942 116.252 105.701 116.252C106.33 116.252 106.742 116.008 106.874 115.567H107.934C107.737 116.58 106.893 117.19 105.683 117.19ZM105.654 113.232C104.979 113.232 104.566 113.598 104.454 114.292H106.78C106.78 113.654 106.339 113.232 105.654 113.232ZM109.651 117.068L108.151 112.435H109.342L109.952 114.423C110.055 114.789 110.149 115.192 110.233 115.624C110.317 115.173 110.402 114.883 110.552 114.423L111.19 112.435H112.353L112.972 114.423C113.028 114.611 113.216 115.305 113.272 115.614C113.347 115.267 113.497 114.714 113.581 114.423L114.2 112.435H115.41L113.807 117.068H112.737L112.099 115.061C111.912 114.451 111.809 114.01 111.771 113.776C111.724 113.992 111.64 114.32 111.405 115.08L110.768 117.068H109.651ZM120.001 117.068H118.8V110.212H121.417C122.974 110.212 123.884 111 123.884 112.35C123.884 113.269 123.452 113.926 122.646 114.254L123.949 117.068H122.636L121.473 114.508H120.001V117.068ZM120.001 111.281V113.448H121.417C122.177 113.448 122.627 113.044 122.627 112.35C122.627 111.666 122.177 111.281 121.417 111.281H120.001ZM126.658 117.19C125.279 117.19 124.313 116.186 124.313 114.751C124.313 113.298 125.26 112.294 126.62 112.294C128.008 112.294 128.89 113.223 128.89 114.667V115.014L125.401 115.023C125.485 115.839 125.917 116.252 126.677 116.252C127.305 116.252 127.718 116.008 127.849 115.567H128.909C128.712 116.58 127.868 117.19 126.658 117.19ZM126.63 113.232C125.954 113.232 125.542 113.598 125.429 114.292H127.755C127.755 113.654 127.314 113.232 126.63 113.232ZM129.534 114.742C129.534 113.307 130.481 112.294 131.851 112.294C133.117 112.294 133.98 112.997 134.102 114.114H132.957C132.826 113.588 132.441 113.316 131.897 113.316C131.166 113.316 130.678 113.87 130.678 114.742C130.678 115.614 131.128 116.158 131.86 116.158C132.432 116.158 132.835 115.877 132.957 115.37H134.111C133.97 116.449 133.07 117.19 131.86 117.19C130.453 117.19 129.534 116.215 129.534 114.742ZM135.535 111.506C135.141 111.506 134.831 111.197 134.831 110.812C134.831 110.428 135.141 110.127 135.535 110.127C135.91 110.127 136.219 110.428 136.219 110.812C136.219 111.197 135.91 111.506 135.535 111.506ZM134.963 117.068V112.435H136.107V117.068H134.963ZM137.289 119.216V112.435H138.349L138.424 113.138C138.705 112.604 139.315 112.294 140.019 112.294C141.322 112.294 142.185 113.241 142.185 114.695C142.185 116.14 141.397 117.19 140.019 117.19C139.324 117.19 138.724 116.918 138.433 116.449V119.216H137.289ZM138.443 114.751C138.443 115.586 138.959 116.158 139.747 116.158C140.553 116.158 141.032 115.577 141.032 114.751C141.032 113.926 140.553 113.335 139.747 113.335C138.959 113.335 138.443 113.917 138.443 114.751ZM145.169 117.19C143.79 117.19 142.824 116.186 142.824 114.751C142.824 113.298 143.772 112.294 145.132 112.294C146.52 112.294 147.401 113.223 147.401 114.667V115.014L143.912 115.023C143.997 115.839 144.428 116.252 145.188 116.252C145.816 116.252 146.229 116.008 146.36 115.567H147.42C147.223 116.58 146.379 117.19 145.169 117.19ZM145.141 113.232C144.466 113.232 144.053 113.598 143.94 114.292H146.266C146.266 113.654 145.826 113.232 145.141 113.232ZM152.224 117.19C151.239 117.19 150.639 116.618 150.639 115.746C150.639 114.892 151.258 114.357 152.355 114.273L153.743 114.17V114.067C153.743 113.438 153.368 113.185 152.787 113.185C152.111 113.185 151.736 113.466 151.736 113.954H150.761C150.761 112.951 151.586 112.294 152.843 112.294C154.09 112.294 154.86 112.969 154.86 114.254V117.068H153.856L153.772 116.383C153.575 116.862 152.946 117.19 152.224 117.19ZM152.599 116.327C153.303 116.327 153.753 115.905 153.753 115.192V114.948L152.787 115.023C152.074 115.089 151.802 115.324 151.802 115.699C151.802 116.121 152.083 116.327 152.599 116.327ZM157.128 117.068H155.984V112.435H157.044L157.137 113.035C157.428 112.566 157.991 112.294 158.619 112.294C159.782 112.294 160.383 113.016 160.383 114.217V117.068H159.238V114.489C159.238 113.71 158.854 113.335 158.263 113.335C157.559 113.335 157.128 113.823 157.128 114.573V117.068ZM163.411 117.19C162.07 117.19 161.235 116.205 161.235 114.77C161.235 113.326 162.079 112.294 163.476 112.294C164.124 112.294 164.696 112.566 164.987 113.026V110.09H166.121V117.068H165.071L164.996 116.346C164.715 116.881 164.114 117.19 163.411 117.19ZM163.664 116.14C164.461 116.14 164.977 115.567 164.977 114.733C164.977 113.898 164.461 113.316 163.664 113.316C162.867 113.316 162.379 113.907 162.379 114.733C162.379 115.558 162.867 116.14 163.664 116.14ZM172.478 117.068H170.011V110.212H172.412C174.438 110.212 175.835 111.609 175.835 113.654C175.835 115.671 174.466 117.068 172.478 117.068ZM172.299 111.319H171.211V115.961H172.365C173.734 115.961 174.569 115.08 174.569 113.654C174.569 112.2 173.716 111.319 172.299 111.319ZM178.858 117.19C177.479 117.19 176.513 116.186 176.513 114.751C176.513 113.298 177.46 112.294 178.82 112.294C180.208 112.294 181.09 113.223 181.09 114.667V115.014L177.601 115.023C177.685 115.839 178.117 116.252 178.876 116.252C179.505 116.252 179.918 116.008 180.049 115.567H181.109C180.912 116.58 180.068 117.19 178.858 117.19ZM178.83 113.232C178.154 113.232 177.742 113.598 177.629 114.292H179.955C179.955 113.654 179.514 113.232 178.83 113.232ZM183.536 117.068H182.391V113.391H181.5V112.435H182.391V110.99H183.536V112.435H184.436V113.391H183.536V117.068ZM186.499 117.19C185.514 117.19 184.914 116.618 184.914 115.746C184.914 114.892 185.533 114.357 186.63 114.273L188.018 114.17V114.067C188.018 113.438 187.643 113.185 187.061 113.185C186.386 113.185 186.011 113.466 186.011 113.954H185.036C185.036 112.951 185.861 112.294 187.118 112.294C188.365 112.294 189.134 112.969 189.134 114.254V117.068H188.131L188.046 116.383C187.849 116.862 187.221 117.19 186.499 117.19ZM186.874 116.327C187.577 116.327 188.028 115.905 188.028 115.192V114.948L187.061 115.023C186.349 115.089 186.077 115.324 186.077 115.699C186.077 116.121 186.358 116.327 186.874 116.327ZM190.831 111.506C190.437 111.506 190.127 111.197 190.127 110.812C190.127 110.428 190.437 110.127 190.831 110.127C191.206 110.127 191.515 110.428 191.515 110.812C191.515 111.197 191.206 111.506 190.831 111.506ZM190.258 117.068V112.435H191.403V117.068H190.258ZM193.739 117.068H192.604V110.09H193.739V117.068ZM194.583 115.661H195.671C195.68 116.065 195.98 116.318 196.505 116.318C197.04 116.318 197.331 116.102 197.331 115.764C197.331 115.53 197.209 115.361 196.796 115.267L195.961 115.07C195.127 114.883 194.723 114.489 194.723 113.748C194.723 112.838 195.492 112.294 196.562 112.294C197.603 112.294 198.306 112.894 198.315 113.795H197.227C197.218 113.401 196.955 113.148 196.515 113.148C196.064 113.148 195.802 113.354 195.802 113.701C195.802 113.964 196.008 114.132 196.402 114.226L197.237 114.423C198.015 114.601 198.409 114.958 198.409 115.671C198.409 116.609 197.612 117.19 196.468 117.19C195.314 117.19 194.583 116.571 194.583 115.661Z" fill="#8C77EC"/>
</g>
</g>
<path d="M17.5273 150.362C17.5273 148.723 18.8564 147.394 20.4959 147.394H40.8552C42.4947 147.394 43.8238 148.723 43.8238 150.362V166.394C43.8238 168.033 42.4947 169.362 40.8552 169.362H20.4959C18.8564 169.362 17.5273 168.033 17.5273 166.394V150.362Z" fill="#0C2503"/>
<path d="M36.5523 162.489C37.0612 162.356 37.3664 161.837 37.234 161.328L35.0762 153.034C34.9438 152.525 34.4239 152.22 33.9149 152.352C33.406 152.485 33.1008 153.005 33.2332 153.514L35.1512 160.886L27.7792 162.804C27.2702 162.936 26.965 163.456 27.0974 163.965C27.2298 164.474 27.7498 164.779 28.2587 164.647L36.5523 162.489ZM25.6271 154.19C25.1736 153.924 24.5901 154.076 24.3239 154.529C24.0577 154.983 24.2095 155.566 24.663 155.832L25.6271 154.19ZM36.7946 160.746L25.6271 154.19L24.663 155.832L35.8304 162.389L36.7946 160.746Z" fill="#EDFAE7"/>
<path d="M54.3376 161.99C52.3398 161.99 51.0455 160.602 51.0455 158.454C51.0455 156.325 52.3867 154.909 54.3939 154.909C56.0165 154.909 57.2264 155.856 57.4609 157.329H56.1947C55.9602 156.532 55.2755 156.063 54.3658 156.063C53.0995 156.063 52.3023 156.982 52.3023 158.445C52.3023 159.899 53.1089 160.837 54.3658 160.837C55.2943 160.837 56.0071 160.349 56.2322 159.589H57.4797C57.2171 161.034 55.9602 161.99 54.3376 161.99ZM59.4954 161.878H58.3605V154.9H59.4954V161.878ZM60.4237 159.552C60.4237 158.107 61.4648 157.113 62.8998 157.113C64.3349 157.113 65.376 158.107 65.376 159.552C65.376 160.996 64.3349 161.99 62.8998 161.99C61.4648 161.99 60.4237 160.996 60.4237 159.552ZM61.568 159.552C61.568 160.396 62.112 160.968 62.8998 160.968C63.6877 160.968 64.2317 160.396 64.2317 159.552C64.2317 158.708 63.6877 158.136 62.8998 158.136C62.112 158.136 61.568 158.708 61.568 159.552ZM65.9266 160.471H67.0146C67.0239 160.874 67.3241 161.128 67.8493 161.128C68.3839 161.128 68.6747 160.912 68.6747 160.574C68.6747 160.34 68.5528 160.171 68.1401 160.077L67.3053 159.88C66.4706 159.693 66.0673 159.299 66.0673 158.558C66.0673 157.648 66.8364 157.104 67.9056 157.104C68.9467 157.104 69.6501 157.704 69.6595 158.605H68.5715C68.5621 158.211 68.2995 157.957 67.8587 157.957C67.4085 157.957 67.1459 158.164 67.1459 158.511C67.1459 158.773 67.3522 158.942 67.7461 159.036L68.5809 159.233C69.3594 159.411 69.7533 159.768 69.7533 160.48C69.7533 161.418 68.9561 162 67.8118 162C66.6581 162 65.9266 161.381 65.9266 160.471ZM72.6974 162C71.3186 162 70.3526 160.996 70.3526 159.561C70.3526 158.107 71.2999 157.104 72.6599 157.104C74.048 157.104 74.9297 158.032 74.9297 159.477V159.824L71.4406 159.833C71.525 160.649 71.9564 161.062 72.7162 161.062C73.3446 161.062 73.7573 160.818 73.8886 160.377H74.9484C74.7515 161.39 73.9073 162 72.6974 162ZM72.6693 158.042C71.9939 158.042 71.5813 158.408 71.4687 159.102H73.7948C73.7948 158.464 73.3539 158.042 72.6693 158.042ZM79.7054 161.878H78.5423V155.022H79.7054L81.9189 160.48L84.1324 155.022H85.3142V161.878H84.1511V159.768C84.1511 158.389 84.1511 157.986 84.2168 157.498L82.4722 161.878H81.3655L79.6303 157.507C79.696 157.92 79.7054 158.567 79.7054 159.421V161.878ZM88.7356 162C87.3569 162 86.3908 160.996 86.3908 159.561C86.3908 158.107 87.3381 157.104 88.6981 157.104C90.0863 157.104 90.9679 158.032 90.9679 159.477V159.824L87.4788 159.833C87.5632 160.649 87.9947 161.062 88.7544 161.062C89.3828 161.062 89.7955 160.818 89.9268 160.377H90.9867C90.7897 161.39 89.9456 162 88.7356 162ZM88.7075 158.042C88.0322 158.042 87.6195 158.408 87.507 159.102H89.833C89.833 158.464 89.3922 158.042 88.7075 158.042ZM93.2167 162C92.2319 162 91.6316 161.428 91.6316 160.555C91.6316 159.702 92.2506 159.167 93.348 159.083L94.7361 158.98V158.877C94.7361 158.248 94.361 157.995 93.7794 157.995C93.1041 157.995 92.729 158.276 92.729 158.764H91.7535C91.7535 157.76 92.5789 157.104 93.8357 157.104C95.0832 157.104 95.8523 157.779 95.8523 159.064V161.878H94.8487L94.7643 161.193C94.5673 161.672 93.9389 162 93.2167 162ZM93.5919 161.137C94.2953 161.137 94.7455 160.715 94.7455 160.002V159.758L93.7794 159.833C93.0666 159.899 92.7946 160.133 92.7946 160.509C92.7946 160.931 93.076 161.137 93.5919 161.137ZM98.13 161.878H96.9952V154.9H98.13V161.878ZM104.925 161.99C102.928 161.99 101.633 160.602 101.633 158.454C101.633 156.325 102.975 154.909 104.982 154.909C106.604 154.909 107.814 155.856 108.049 157.329H106.783C106.548 156.532 105.863 156.063 104.954 156.063C103.687 156.063 102.89 156.982 102.89 158.445C102.89 159.899 103.697 160.837 104.954 160.837C105.882 160.837 106.595 160.349 106.82 159.589H108.068C107.805 161.034 106.548 161.99 104.925 161.99ZM110.262 162C109.278 162 108.677 161.428 108.677 160.555C108.677 159.702 109.296 159.167 110.394 159.083L111.782 158.98V158.877C111.782 158.248 111.407 157.995 110.825 157.995C110.15 157.995 109.775 158.276 109.775 158.764H108.799C108.799 157.76 109.625 157.104 110.882 157.104C112.129 157.104 112.898 157.779 112.898 159.064V161.878H111.894L111.81 161.193C111.613 161.672 110.985 162 110.262 162ZM110.638 161.137C111.341 161.137 111.791 160.715 111.791 160.002V159.758L110.825 159.833C110.112 159.899 109.84 160.133 109.84 160.509C109.84 160.931 110.122 161.137 110.638 161.137ZM116.93 157.226V158.286H116.508C115.682 158.286 115.166 158.726 115.166 159.627V161.878H114.022V157.254H115.101L115.166 157.929C115.363 157.47 115.804 157.16 116.423 157.16C116.583 157.16 116.742 157.179 116.93 157.226ZM119.453 162C118.111 162 117.277 161.015 117.277 159.58C117.277 158.136 118.121 157.104 119.518 157.104C120.165 157.104 120.738 157.376 121.028 157.835V154.9H122.163V161.878H121.113L121.038 161.156C120.756 161.69 120.156 162 119.453 162ZM119.706 160.949C120.503 160.949 121.019 160.377 121.019 159.542C121.019 158.708 120.503 158.126 119.706 158.126C118.909 158.126 118.421 158.717 118.421 159.542C118.421 160.368 118.909 160.949 119.706 160.949Z" fill="#0A0B0A"/>
<rect x="166.797" y="142.991" width="35.5483" height="30.7372" rx="2.97082" fill="#FAFAFA"/>
<path d="M191.27 153.359L193.451 156.008C193.96 156.626 193.52 157.558 192.72 157.558H177.354H176.156C175.405 157.558 174.952 156.726 175.36 156.095L177.074 153.447C177.249 153.177 177.548 153.014 177.87 153.014H178.958H190.538C190.821 153.014 191.09 153.141 191.27 153.359Z" fill="#0C2503"/>
<path d="M190.985 158.627V165.163C190.985 165.686 190.561 166.111 190.038 166.111H178.302C177.778 166.111 177.354 165.686 177.354 165.163V157.558M177.354 157.558H176.156C175.405 157.558 174.952 156.726 175.36 156.095L177.074 153.447C177.249 153.177 177.548 153.014 177.87 153.014H190.538C190.821 153.014 191.09 153.141 191.27 153.359L193.451 156.008C193.96 156.626 193.52 157.558 192.72 157.558H177.354ZM178.958 150.608V157.023" stroke="#0C2503" stroke-width="2.03133" stroke-linecap="round"/>
<rect x="17.5273" y="192.215" width="33.1567" height="18.1567" rx="3.047" fill="#D6FBC4"/>
<path d="M23.807 204.293H23.16V199.52H23.807V201.573H26.1705V199.52H26.8174V204.293H26.1705V202.174H23.807V204.293ZM29.2118 204.372C28.2611 204.372 27.6075 203.686 27.6075 202.682C27.6075 201.672 28.2479 200.972 29.1854 200.972C30.103 200.972 30.7038 201.606 30.7038 202.564V202.795L28.2083 202.801C28.2545 203.481 28.611 203.857 29.225 203.857C29.7069 203.857 30.0238 203.659 30.1294 203.29H30.7104C30.552 203.983 30.0106 204.372 29.2118 204.372ZM29.1854 201.494C28.644 201.494 28.3007 201.818 28.2215 202.385H30.0832C30.0832 201.851 29.7333 201.494 29.1854 201.494ZM32.3088 204.372C31.6156 204.372 31.2063 203.983 31.2063 203.395C31.2063 202.801 31.6486 202.431 32.4078 202.372L33.4245 202.293V202.2C33.4245 201.659 33.101 201.468 32.6653 201.468C32.1437 201.468 31.8466 201.699 31.8466 202.088H31.3053C31.3053 201.415 31.8598 200.972 32.6917 200.972C33.4905 200.972 34.0318 201.395 34.0318 202.266V204.293H33.5037L33.4377 203.772C33.2726 204.141 32.8303 204.372 32.3088 204.372ZM32.487 203.891C33.0746 203.891 33.4311 203.508 33.4311 202.9V202.729L32.6058 202.795C32.0579 202.847 31.8334 203.059 31.8334 203.376C31.8334 203.719 32.0843 203.891 32.487 203.891ZM35.525 204.293H34.9045V199.434H35.525V204.293ZM37.3496 204.293H36.729V201.586H36.0953V201.065H36.729V200.055H37.3496V201.065H37.9834V201.586H37.3496V204.293ZM39.1609 204.287H38.5403V199.434H39.1609V201.56C39.3655 201.21 39.755 200.972 40.2568 200.972C41.082 200.972 41.4781 201.494 41.4781 202.319V204.293H40.8576V202.458C40.8576 201.804 40.5473 201.54 40.0851 201.54C39.4844 201.54 39.1609 201.976 39.1609 202.531V204.287ZM41.9629 205.739V205.231H42.3788C42.6759 205.231 42.9136 205.184 43.0654 204.775L43.1776 204.465L41.8771 201.065H42.5307L43.4681 203.666L44.4254 201.065H45.0658L43.5407 205.019C43.3229 205.574 42.9994 205.805 42.5042 205.805C42.2996 205.805 42.1279 205.779 41.9629 205.739Z" fill="#0A0B0A"/>
<rect x="55.2539" y="192.215" width="42.1567" height="18.1567" rx="3.047" fill="#EDFAE7"/>
<path d="M62.2136 204.293L60.398 199.52H61.0912L62.2532 202.57C62.3588 202.841 62.4512 203.111 62.5502 203.468C62.6625 203.092 62.7747 202.775 62.8539 202.564L64.0092 199.52H64.6826L62.8869 204.293H62.2136ZM66.068 204.372C65.1173 204.372 64.4637 203.686 64.4637 202.682C64.4637 201.672 65.1041 200.972 66.0416 200.972C66.9592 200.972 67.56 201.606 67.56 202.564V202.795L65.0645 202.801C65.1107 203.481 65.4672 203.857 66.0812 203.857C66.5631 203.857 66.88 203.659 66.9856 203.29H67.5666C67.4082 203.983 66.8668 204.372 66.068 204.372ZM66.0416 201.494C65.5002 201.494 65.1569 201.818 65.0777 202.385H66.9394C66.9394 201.851 66.5895 201.494 66.0416 201.494ZM68.0485 202.597C68.0485 201.685 68.636 200.972 69.5735 200.972C70.095 200.972 70.4978 201.21 70.7024 201.613L70.7486 201.065H71.3032V204.161C71.3032 205.178 70.676 205.825 69.6857 205.825C68.8077 205.825 68.2069 205.33 68.0881 204.511H68.7087C68.7879 204.986 69.1444 205.264 69.6857 205.264C70.2931 205.264 70.6892 204.868 70.6892 204.254V203.607C70.478 203.983 70.0554 204.207 69.5471 204.207C68.6294 204.207 68.0485 203.501 68.0485 202.597ZM68.6691 202.583C68.6691 203.191 69.0454 203.666 69.6527 203.666C70.2799 203.666 70.6628 203.217 70.6628 202.583C70.6628 201.963 70.2931 201.514 69.6593 201.514C69.0388 201.514 68.6691 201.989 68.6691 202.583ZM73.5917 204.372C72.6411 204.372 71.9875 203.686 71.9875 202.682C71.9875 201.672 72.6279 200.972 73.5653 200.972C74.483 200.972 75.0838 201.606 75.0838 202.564V202.795L72.5883 202.801C72.6345 203.481 72.991 203.857 73.6049 203.857C74.0869 203.857 74.4038 203.659 74.5094 203.29H75.0904C74.9319 203.983 74.3906 204.372 73.5917 204.372ZM73.5653 201.494C73.024 201.494 72.6807 201.818 72.6015 202.385H74.4632C74.4632 201.851 74.1133 201.494 73.5653 201.494ZM76.6557 204.293H76.0351V201.586H75.4014V201.065H76.0351V200.055H76.6557V201.065H77.2895V201.586H76.6557V204.293ZM78.7518 204.372C78.0586 204.372 77.6493 203.983 77.6493 203.395C77.6493 202.801 78.0916 202.431 78.8508 202.372L79.8675 202.293V202.2C79.8675 201.659 79.544 201.468 79.1083 201.468C78.5867 201.468 78.2897 201.699 78.2897 202.088H77.7483C77.7483 201.415 78.3029 200.972 79.1347 200.972C79.9335 200.972 80.4749 201.395 80.4749 202.266V204.293H79.9467L79.8807 203.772C79.7157 204.141 79.2733 204.372 78.7518 204.372ZM78.93 203.891C79.5176 203.891 79.8741 203.508 79.8741 202.9V202.729L79.0489 202.795C78.5009 202.847 78.2765 203.059 78.2765 203.376C78.2765 203.719 78.5273 203.891 78.93 203.891ZM83.1828 201.039V201.606H82.9055C82.318 201.606 81.9549 201.963 81.9549 202.583V204.293H81.3343V201.072H81.9153L81.9549 201.56C82.0869 201.223 82.4104 200.999 82.8527 200.999C82.9649 200.999 83.0574 201.012 83.1828 201.039ZM84.0685 200.299C83.8441 200.299 83.6592 200.114 83.6592 199.89C83.6592 199.659 83.8441 199.48 84.0685 199.48C84.293 199.48 84.4778 199.659 84.4778 199.89C84.4778 200.114 84.293 200.299 84.0685 200.299ZM83.7648 204.293V201.065H84.3854V204.293H83.7648ZM86.2304 204.372C85.5372 204.372 85.1279 203.983 85.1279 203.395C85.1279 202.801 85.5702 202.431 86.3294 202.372L87.3461 202.293V202.2C87.3461 201.659 87.0226 201.468 86.5869 201.468C86.0654 201.468 85.7683 201.699 85.7683 202.088H85.2269C85.2269 201.415 85.7815 200.972 86.6133 200.972C87.4121 200.972 87.9535 201.395 87.9535 202.266V204.293H87.4254L87.3593 203.772C87.1943 204.141 86.752 204.372 86.2304 204.372ZM86.4087 203.891C86.9962 203.891 87.3527 203.508 87.3527 202.9V202.729L86.5275 202.795C85.9796 202.847 85.7551 203.059 85.7551 203.376C85.7551 203.719 86.006 203.891 86.4087 203.891ZM89.4335 204.293H88.8129V201.065H89.3741L89.4401 201.56C89.6448 201.19 90.0541 200.972 90.5096 200.972C91.3612 200.972 91.7507 201.494 91.7507 202.319V204.293H91.1302V202.458C91.1302 201.804 90.8265 201.54 90.3511 201.54C89.7702 201.54 89.4335 201.956 89.4335 202.583V204.293Z" fill="#0A0B0A"/>
<rect x="101.98" y="192.215" width="48.1567" height="18.1567" rx="3.047" fill="#FFD600"/>
<path d="M108.26 204.293H107.613V199.52H108.26V201.573H110.624V199.52H111.271V204.293H110.624V202.174H108.26V204.293ZM112.576 200.299C112.351 200.299 112.166 200.114 112.166 199.89C112.166 199.659 112.351 199.48 112.576 199.48C112.8 199.48 112.985 199.659 112.985 199.89C112.985 200.114 112.8 200.299 112.576 200.299ZM112.272 204.293V201.065H112.892V204.293H112.272ZM113.589 202.597C113.589 201.685 114.176 200.972 115.114 200.972C115.635 200.972 116.038 201.21 116.243 201.613L116.289 201.065H116.843V204.161C116.843 205.178 116.216 205.825 115.226 205.825C114.348 205.825 113.747 205.33 113.628 204.511H114.249C114.328 204.986 114.685 205.264 115.226 205.264C115.833 205.264 116.23 204.868 116.23 204.254V203.607C116.018 203.983 115.596 204.207 115.087 204.207C114.17 204.207 113.589 203.501 113.589 202.597ZM114.209 202.583C114.209 203.191 114.586 203.666 115.193 203.666C115.82 203.666 116.203 203.217 116.203 202.583C116.203 201.963 115.833 201.514 115.2 201.514C114.579 201.514 114.209 201.989 114.209 202.583ZM118.36 204.287H117.739V199.434H118.36V201.56C118.564 201.21 118.954 200.972 119.456 200.972C120.281 200.972 120.677 201.494 120.677 202.319V204.293H120.056V202.458C120.056 201.804 119.746 201.54 119.284 201.54C118.683 201.54 118.36 201.976 118.36 202.531V204.287ZM125.302 202.59H124.094V204.293H123.447V199.52H125.302C126.24 199.52 126.841 200.134 126.841 201.052C126.841 201.943 126.233 202.59 125.302 202.59ZM125.19 200.101H124.094V202.009H125.164C125.804 202.009 126.161 201.633 126.161 201.045C126.161 200.444 125.797 200.101 125.19 200.101ZM129.316 201.039V201.606H129.039C128.451 201.606 128.088 201.963 128.088 202.583V204.293H127.468V201.072H128.049L128.088 201.56C128.22 201.223 128.544 200.999 128.986 200.999C129.098 200.999 129.191 201.012 129.316 201.039ZM129.571 202.676C129.571 201.679 130.284 200.979 131.254 200.979C132.218 200.979 132.931 201.679 132.931 202.676C132.931 203.673 132.218 204.372 131.254 204.372C130.284 204.372 129.571 203.673 129.571 202.676ZM130.198 202.676C130.198 203.349 130.627 203.818 131.254 203.818C131.875 203.818 132.311 203.349 132.311 202.676C132.311 202.002 131.875 201.534 131.254 201.534C130.627 201.534 130.198 202.002 130.198 202.676ZM134.497 204.293H133.876V201.586H133.243V201.065H133.876V200.055H134.497V201.065H135.131V201.586H134.497V204.293ZM137.049 204.372C136.098 204.372 135.444 203.686 135.444 202.682C135.444 201.672 136.085 200.972 137.022 200.972C137.94 200.972 138.541 201.606 138.541 202.564V202.795L136.045 202.801C136.091 203.481 136.448 203.857 137.062 203.857C137.544 203.857 137.861 203.659 137.966 203.29H138.547C138.389 203.983 137.847 204.372 137.049 204.372ZM137.022 201.494C136.481 201.494 136.137 201.818 136.058 202.385H137.92C137.92 201.851 137.57 201.494 137.022 201.494ZM139.537 200.299C139.313 200.299 139.128 200.114 139.128 199.89C139.128 199.659 139.313 199.48 139.537 199.48C139.762 199.48 139.947 199.659 139.947 199.89C139.947 200.114 139.762 200.299 139.537 200.299ZM139.234 204.293V201.065H139.854V204.293H139.234ZM141.376 204.293H140.755V201.065H141.316L141.382 201.56C141.587 201.19 141.996 200.972 142.452 200.972C143.303 200.972 143.693 201.494 143.693 202.319V204.293H143.072V202.458C143.072 201.804 142.769 201.54 142.293 201.54C141.712 201.54 141.376 201.956 141.376 202.583V204.293Z" fill="#0A0B0A"/>
<rect x="17.5273" y="215.45" width="50.1567" height="18.1567" rx="3.047" fill="#F4C790"/>
<path d="M23.807 222.755V226.927H25.9064V227.528H23.16V222.755H23.807ZM26.2279 225.911C26.2279 224.914 26.9409 224.214 27.9113 224.214C28.8752 224.214 29.5882 224.914 29.5882 225.911C29.5882 226.908 28.8752 227.607 27.9113 227.607C26.9409 227.607 26.2279 226.908 26.2279 225.911ZM26.855 225.911C26.855 226.584 27.2842 227.053 27.9113 227.053C28.5319 227.053 28.9676 226.584 28.9676 225.911C28.9676 225.237 28.5319 224.769 27.9113 224.769C27.2842 224.769 26.855 225.237 26.855 225.911ZM30.0639 225.917C30.0639 224.907 30.7043 224.207 31.6483 224.207C32.4603 224.207 33.0281 224.669 33.1403 225.389H32.5198C32.4141 224.98 32.084 224.762 31.6681 224.762C31.0806 224.762 30.6778 225.211 30.6778 225.911C30.6778 226.604 31.0542 227.053 31.6417 227.053C32.084 227.053 32.4141 226.822 32.5264 226.439H33.1469C33.0215 227.139 32.4207 227.607 31.6417 227.607C30.6911 227.607 30.0639 226.934 30.0639 225.917ZM34.7458 227.607C34.0526 227.607 33.6433 227.218 33.6433 226.63C33.6433 226.036 34.0856 225.666 34.8448 225.607L35.8615 225.528V225.435C35.8615 224.894 35.538 224.702 35.1023 224.702C34.5807 224.702 34.2836 224.934 34.2836 225.323H33.7423C33.7423 224.65 34.2968 224.207 35.1287 224.207C35.9275 224.207 36.4688 224.63 36.4688 225.501V227.528H35.9407L35.8747 227.007C35.7096 227.376 35.2673 227.607 34.7458 227.607ZM34.924 227.125C35.5116 227.125 35.8681 226.742 35.8681 226.135V225.963L35.0428 226.029C34.4949 226.082 34.2704 226.294 34.2704 226.61C34.2704 226.954 34.5213 227.125 34.924 227.125ZM37.962 227.528H37.3415V222.669H37.962V227.528ZM42.7669 227.601C41.4069 227.601 40.5025 226.624 40.5025 225.145C40.5025 223.673 41.4334 222.676 42.7999 222.676C43.876 222.676 44.7013 223.316 44.8795 224.293H44.1863C44.0081 223.673 43.4733 223.296 42.7801 223.296C41.8163 223.296 41.1825 224.023 41.1825 225.138C41.1825 226.254 41.8163 226.98 42.7801 226.98C43.4799 226.98 44.0345 226.604 44.2127 226.016H44.8993C44.6947 226.967 43.843 227.601 42.7669 227.601ZM47.8184 224.3H48.4324V227.528H47.8778L47.8118 227.04C47.627 227.376 47.1978 227.607 46.7225 227.607C45.9699 227.607 45.5474 227.099 45.5474 226.307V224.3H46.1679V226.102C46.1679 226.795 46.465 227.059 46.9404 227.059C47.5081 227.059 47.8184 226.696 47.8184 226.003V224.3ZM49.6364 223.534C49.412 223.534 49.2271 223.349 49.2271 223.125C49.2271 222.894 49.412 222.715 49.6364 222.715C49.8609 222.715 50.0457 222.894 50.0457 223.125C50.0457 223.349 49.8609 223.534 49.6364 223.534ZM49.3327 227.528V224.3H49.9533V227.528H49.3327ZM50.5902 226.591H51.1844C51.1844 226.921 51.4352 227.119 51.8445 227.119C52.2803 227.119 52.5311 226.941 52.5311 226.643C52.5311 226.426 52.4255 226.294 52.0888 226.208L51.521 226.076C50.9467 225.937 50.676 225.653 50.676 225.178C50.676 224.584 51.1778 224.207 51.8907 224.207C52.5971 224.207 53.0593 224.603 53.0725 225.217H52.4783C52.4651 224.894 52.2472 224.689 51.8709 224.689C51.4814 224.689 51.2636 224.861 51.2636 225.158C51.2636 225.376 51.422 225.521 51.7389 225.6L52.3067 225.739C52.8546 225.871 53.1253 226.122 53.1253 226.604C53.1253 227.218 52.5971 227.607 51.8313 227.607C51.0721 227.607 50.5902 227.205 50.5902 226.591ZM54.1172 223.534C53.8927 223.534 53.7079 223.349 53.7079 223.125C53.7079 222.894 53.8927 222.715 54.1172 222.715C54.3416 222.715 54.5265 222.894 54.5265 223.125C54.5265 223.349 54.3416 223.534 54.1172 223.534ZM53.8135 227.528V224.3H54.4341V227.528H53.8135ZM55.9556 227.528H55.335V224.3H55.8961L55.9622 224.795C56.1668 224.425 56.5761 224.207 57.0317 224.207C57.8833 224.207 58.2728 224.729 58.2728 225.554V227.528H57.6522V225.693C57.6522 225.039 57.3486 224.775 56.8732 224.775C56.2923 224.775 55.9556 225.191 55.9556 225.818V227.528ZM60.5253 227.607C59.5747 227.607 58.9211 226.921 58.9211 225.917C58.9211 224.907 59.5614 224.207 60.4989 224.207C61.4166 224.207 62.0173 224.841 62.0173 225.798V226.029L59.5218 226.036C59.5681 226.716 59.9245 227.092 60.5385 227.092C61.0205 227.092 61.3373 226.894 61.443 226.525H62.0239C61.8655 227.218 61.3241 227.607 60.5253 227.607ZM60.4989 224.729C59.9576 224.729 59.6143 225.052 59.535 225.62H61.3968C61.3968 225.085 61.0469 224.729 60.4989 224.729Z" fill="#0A0B0A"/>
<g filter="url(#filter2_d_1790_21331)">
<rect x="17.5273" y="256.459" width="189.228" height="175.69" rx="3.047" fill="#FAFAFA" shape-rendering="crispEdges"/>
<g filter="url(#filter3_d_1790_21331)">
<rect x="30.7383" y="264.076" width="69.2424" height="46.2424" rx="4.06266" fill="#EDFAE7" shape-rendering="crispEdges"/>
<path d="M40.7064 278.357C39.192 278.357 38.2109 277.304 38.2109 275.676C38.2109 274.062 39.2276 272.989 40.749 272.989C41.979 272.989 42.8961 273.707 43.0739 274.823H42.1141C41.9363 274.219 41.4173 273.863 40.7277 273.863C39.7679 273.863 39.1636 274.56 39.1636 275.669C39.1636 276.771 39.775 277.482 40.7277 277.482C41.4315 277.482 41.9719 277.112 42.1425 276.536H43.0881C42.889 277.631 41.9363 278.357 40.7064 278.357ZM43.5701 276.508C43.5701 275.413 44.3592 274.66 45.447 274.66C46.5348 274.66 47.324 275.413 47.324 276.508C47.324 277.603 46.5348 278.357 45.447 278.357C44.3592 278.357 43.5701 277.603 43.5701 276.508ZM44.4374 276.508C44.4374 277.148 44.8498 277.582 45.447 277.582C46.0442 277.582 46.4566 277.148 46.4566 276.508C46.4566 275.868 46.0442 275.434 45.447 275.434C44.8498 275.434 44.4374 275.868 44.4374 276.508ZM47.8053 276.508C47.8053 275.413 48.5945 274.66 49.6822 274.66C50.77 274.66 51.5592 275.413 51.5592 276.508C51.5592 277.603 50.77 278.357 49.6822 278.357C48.5945 278.357 47.8053 277.603 47.8053 276.508ZM48.6727 276.508C48.6727 277.148 49.085 277.582 49.6822 277.582C50.2795 277.582 50.6918 277.148 50.6918 276.508C50.6918 275.868 50.2795 275.434 49.6822 275.434C49.085 275.434 48.6727 275.868 48.6727 276.508ZM53.1212 278.271H52.2609V272.982H53.1212V276.231L54.4863 274.759H55.574L54.2374 276.153L55.5456 278.271H54.5503L53.6331 276.792L53.1212 277.326V278.271ZM57.6616 273.913V273.074H61.6145V273.913H60.0931V278.271H59.183V273.913H57.6616ZM62.6159 274.055C62.3173 274.055 62.0827 273.821 62.0827 273.529C62.0827 273.238 62.3173 273.01 62.6159 273.01C62.9003 273.01 63.1349 273.238 63.1349 273.529C63.1349 273.821 62.9003 274.055 62.6159 274.055ZM62.1822 278.271V274.759H63.0496V278.271H62.1822ZM64.8131 278.271H63.9457V274.759H64.742L64.8131 275.171C64.9908 274.88 65.3463 274.652 65.8511 274.652C66.3843 274.652 66.754 274.915 66.9389 275.321C67.1166 274.915 67.529 274.652 68.0622 274.652C68.9154 274.652 69.3846 275.164 69.3846 275.975V278.271H68.5243V276.202C68.5243 275.698 68.2542 275.434 67.8418 275.434C67.4223 275.434 67.1024 275.705 67.1024 276.281V278.271H66.235V276.195C66.235 275.705 65.972 275.442 65.5596 275.442C65.1472 275.442 64.8131 275.712 64.8131 276.281V278.271ZM71.8073 278.364C70.7622 278.364 70.0299 277.603 70.0299 276.515C70.0299 275.413 70.748 274.652 71.7789 274.652C72.8311 274.652 73.4994 275.356 73.4994 276.451V276.714L70.8546 276.721C70.9186 277.34 71.2457 277.653 71.8216 277.653C72.2979 277.653 72.6107 277.468 72.7103 277.134H73.5136C73.3643 277.902 72.7245 278.364 71.8073 278.364ZM71.786 275.363C71.2741 275.363 70.9613 275.641 70.876 276.167H72.6392C72.6392 275.683 72.305 275.363 71.786 275.363Z" fill="black"/>
<path d="M45.551 300.584C46.8979 300.584 48.1896 300.049 49.142 299.097C50.0943 298.145 50.6294 296.853 50.6294 295.506C50.6294 294.159 50.0943 292.868 49.142 291.915C48.1896 290.963 46.8979 290.428 45.551 290.428C44.2042 290.428 42.9125 290.963 41.9601 291.915C41.0077 292.868 40.4727 294.159 40.4727 295.506C40.4727 296.853 41.0077 298.145 41.9601 299.097C42.9125 300.049 44.2042 300.584 45.551 300.584ZM45.551 289.158C46.3847 289.158 47.2101 289.322 47.9803 289.641C48.7504 289.96 49.4502 290.428 50.0397 291.017C50.6291 291.607 51.0967 292.307 51.4157 293.077C51.7347 293.847 51.8989 294.672 51.8989 295.506C51.8989 297.19 51.2301 298.804 50.0397 299.995C48.8492 301.185 47.2346 301.854 45.551 301.854C42.0406 301.854 39.2031 298.997 39.2031 295.506C39.2031 293.823 39.8719 292.208 41.0624 291.017C42.2528 289.827 43.8675 289.158 45.551 289.158ZM45.8684 292.332V295.665L48.725 297.36L48.2489 298.14L44.9162 296.141V292.332H45.8684Z" fill="#030A00"/>
<path d="M63.1527 295.697H62.3391V294.938L64.0576 293.357H61.2788V292.324H65.5202V293.256L63.8931 294.756C64.9169 294.957 65.7121 295.706 65.7121 296.885C65.7121 298.257 64.6427 299.125 63.2898 299.125C61.9826 299.125 60.968 298.321 60.968 296.876H62.1197C62.1197 297.644 62.5951 298.083 63.3081 298.083C64.0393 298.083 64.5238 297.608 64.5238 296.867C64.5238 296.191 64.0851 295.697 63.1527 295.697ZM66.3825 295.679C66.3825 293.604 67.4977 292.196 69.2071 292.196C70.9164 292.196 72.0408 293.604 72.0408 295.679C72.0408 297.745 70.9804 299.125 69.2071 299.125C67.4337 299.125 66.3825 297.745 66.3825 295.679ZM67.5343 295.679C67.5343 297.224 68.1559 298.092 69.2071 298.092C70.2674 298.092 70.889 297.224 70.889 295.679C70.889 294.097 70.2674 293.229 69.2071 293.229C68.1559 293.229 67.5343 294.097 67.5343 295.679ZM74.1256 299.006H73.0104V294.49H74.0342L74.1256 295.021C74.3542 294.646 74.8112 294.353 75.4602 294.353C76.1458 294.353 76.6211 294.692 76.8588 295.213C77.0873 294.692 77.6175 294.353 78.3031 294.353C79.4 294.353 80.0033 295.011 80.0033 296.054V299.006H78.8972V296.346C78.8972 295.697 78.5499 295.359 78.0197 295.359C77.4804 295.359 77.069 295.706 77.069 296.447V299.006H75.9538V296.337C75.9538 295.706 75.6156 295.368 75.0854 295.368C74.5553 295.368 74.1256 295.715 74.1256 296.447V299.006ZM81.6557 293.585C81.2718 293.585 80.9701 293.284 80.9701 292.909C80.9701 292.534 81.2718 292.242 81.6557 292.242C82.0213 292.242 82.323 292.534 82.323 292.909C82.323 293.284 82.0213 293.585 81.6557 293.585ZM81.0981 299.006V294.49H82.2133V299.006H81.0981ZM84.4807 299.006H83.3655V294.49H84.3984L84.4898 295.075C84.7732 294.618 85.3216 294.353 85.9341 294.353C87.0676 294.353 87.6526 295.057 87.6526 296.227V299.006H86.5374V296.492C86.5374 295.734 86.1626 295.368 85.5867 295.368C84.9012 295.368 84.4807 295.843 84.4807 296.575V299.006ZM88.3474 297.635H89.4077C89.4169 298.028 89.7094 298.275 90.2213 298.275C90.7423 298.275 91.0257 298.065 91.0257 297.736C91.0257 297.507 90.9069 297.342 90.5047 297.251L89.6911 297.059C88.8776 296.876 88.4845 296.492 88.4845 295.77C88.4845 294.884 89.2341 294.353 90.2761 294.353C91.2908 294.353 91.9764 294.938 91.9855 295.816H90.9251C90.916 295.432 90.66 295.185 90.2304 295.185C89.7917 295.185 89.5357 295.386 89.5357 295.724C89.5357 295.98 89.7368 296.145 90.1207 296.236L90.9343 296.428C91.693 296.602 92.0769 296.949 92.0769 297.644C92.0769 298.558 91.2999 299.125 90.1847 299.125C89.0604 299.125 88.3474 298.522 88.3474 297.635Z" fill="black"/>
</g>
<g filter="url(#filter4_d_1790_21331)">
<rect x="111.152" y="264.076" width="82.3899" height="46.2424" rx="4.06266" fill="#EDFAE7" shape-rendering="crispEdges"/>
<path d="M121.12 278.357C119.606 278.357 118.625 277.304 118.625 275.676C118.625 274.062 119.642 272.989 121.163 272.989C122.393 272.989 123.31 273.707 123.488 274.823H122.528C122.35 274.219 121.831 273.863 121.142 273.863C120.182 273.863 119.578 274.56 119.578 275.669C119.578 276.771 120.189 277.482 121.142 277.482C121.846 277.482 122.386 277.112 122.557 276.536H123.502C123.303 277.631 122.35 278.357 121.12 278.357ZM125.166 278.364C124.419 278.364 123.964 277.93 123.964 277.269C123.964 276.622 124.434 276.217 125.266 276.153L126.318 276.074V275.996C126.318 275.52 126.033 275.328 125.593 275.328C125.081 275.328 124.796 275.541 124.796 275.911H124.057C124.057 275.15 124.683 274.652 125.635 274.652C126.581 274.652 127.164 275.164 127.164 276.138V278.271H126.403L126.339 277.752C126.19 278.115 125.713 278.364 125.166 278.364ZM125.45 277.71C125.984 277.71 126.325 277.39 126.325 276.849V276.664L125.593 276.721C125.052 276.771 124.846 276.949 124.846 277.233C124.846 277.553 125.059 277.71 125.45 277.71ZM128.89 278.271H128.03V272.982H128.89V278.271ZM129.594 276.508C129.594 275.413 130.383 274.66 131.471 274.66C132.559 274.66 133.348 275.413 133.348 276.508C133.348 277.603 132.559 278.357 131.471 278.357C130.383 278.357 129.594 277.603 129.594 276.508ZM130.461 276.508C130.461 277.148 130.874 277.582 131.471 277.582C132.068 277.582 132.481 277.148 132.481 276.508C132.481 275.868 132.068 275.434 131.471 275.434C130.874 275.434 130.461 275.868 130.461 276.508ZM136.239 274.745V275.548H135.92C135.294 275.548 134.903 275.882 134.903 276.565V278.271H134.036V274.766H134.853L134.903 275.278C135.052 274.93 135.386 274.695 135.856 274.695C135.976 274.695 136.097 274.709 136.239 274.745ZM137.26 274.055C136.962 274.055 136.727 273.821 136.727 273.529C136.727 273.238 136.962 273.01 137.26 273.01C137.545 273.01 137.779 273.238 137.779 273.529C137.779 273.821 137.545 274.055 137.26 274.055ZM136.827 278.271V274.759H137.694V278.271H136.827ZM140.161 278.364C139.116 278.364 138.384 277.603 138.384 276.515C138.384 275.413 139.102 274.652 140.133 274.652C141.185 274.652 141.853 275.356 141.853 276.451V276.714L139.209 276.721C139.273 277.34 139.6 277.653 140.176 277.653C140.652 277.653 140.965 277.468 141.064 277.134H141.868C141.718 277.902 141.079 278.364 140.161 278.364ZM140.14 275.363C139.628 275.363 139.315 275.641 139.23 276.167H140.993C140.993 275.683 140.659 275.363 140.14 275.363ZM142.277 277.205H143.102C143.109 277.511 143.337 277.702 143.735 277.702C144.14 277.702 144.361 277.539 144.361 277.283C144.361 277.105 144.268 276.977 143.955 276.906L143.323 276.757C142.69 276.615 142.384 276.316 142.384 275.754C142.384 275.065 142.967 274.652 143.778 274.652C144.567 274.652 145.1 275.107 145.107 275.79H144.282C144.275 275.491 144.076 275.299 143.742 275.299C143.401 275.299 143.202 275.456 143.202 275.719C143.202 275.918 143.358 276.046 143.657 276.117L144.29 276.266C144.88 276.401 145.178 276.672 145.178 277.212C145.178 277.923 144.574 278.364 143.707 278.364C142.832 278.364 142.277 277.894 142.277 277.205ZM147.755 279.899V274.759H148.558L148.615 275.292C148.828 274.887 149.291 274.652 149.824 274.652C150.812 274.652 151.466 275.371 151.466 276.472C151.466 277.567 150.869 278.364 149.824 278.364C149.298 278.364 148.843 278.157 148.622 277.802V279.899H147.755ZM148.629 276.515C148.629 277.148 149.02 277.582 149.618 277.582C150.229 277.582 150.592 277.141 150.592 276.515C150.592 275.89 150.229 275.442 149.618 275.442C149.02 275.442 148.629 275.882 148.629 276.515ZM153.728 278.364C152.683 278.364 151.951 277.603 151.951 276.515C151.951 275.413 152.669 274.652 153.7 274.652C154.752 274.652 155.42 275.356 155.42 276.451V276.714L152.775 276.721C152.839 277.34 153.166 277.653 153.742 277.653C154.219 277.653 154.531 277.468 154.631 277.134H155.434C155.285 277.902 154.645 278.364 153.728 278.364ZM153.707 275.363C153.195 275.363 152.882 275.641 152.797 276.167H154.56C154.56 275.683 154.226 275.363 153.707 275.363ZM158.318 274.745V275.548H157.998C157.373 275.548 156.982 275.882 156.982 276.565V278.271H156.114V274.766H156.932L156.982 275.278C157.131 274.93 157.465 274.695 157.934 274.695C158.055 274.695 158.176 274.709 158.318 274.745ZM160.651 274.524C160.651 273.614 161.405 272.982 162.5 272.982C163.552 272.982 164.22 273.565 164.249 274.503H163.339C163.317 274.055 162.997 273.792 162.485 273.792C161.924 273.792 161.561 274.062 161.561 274.496C161.561 274.866 161.76 275.072 162.194 275.171L163.011 275.349C163.9 275.541 164.334 275.996 164.334 276.771C164.334 277.738 163.58 278.364 162.436 278.364C161.326 278.364 160.601 277.774 160.58 276.842H161.49C161.497 277.283 161.853 277.546 162.436 277.546C163.04 277.546 163.424 277.283 163.424 276.849C163.424 276.501 163.246 276.295 162.82 276.202L161.995 276.017C161.113 275.826 160.651 275.321 160.651 274.524ZM166.6 278.364C165.555 278.364 164.823 277.603 164.823 276.515C164.823 275.413 165.541 274.652 166.572 274.652C167.624 274.652 168.292 275.356 168.292 276.451V276.714L165.648 276.721C165.712 277.34 166.039 277.653 166.615 277.653C167.091 277.653 167.404 277.468 167.503 277.134H168.307C168.157 277.902 167.518 278.364 166.6 278.364ZM166.579 275.363C166.067 275.363 165.754 275.641 165.669 276.167H167.432C167.432 275.683 167.098 275.363 166.579 275.363ZM171.191 274.745V275.548H170.871C170.245 275.548 169.854 275.882 169.854 276.565V278.271H168.987V274.766H169.804L169.854 275.278C170.003 274.93 170.338 274.695 170.807 274.695C170.928 274.695 171.048 274.709 171.191 274.745ZM172.877 278.271L171.484 274.759H172.408L173.019 276.373C173.169 276.792 173.29 277.155 173.332 277.347C173.382 277.127 173.51 276.757 173.659 276.373L174.299 274.759H175.195L173.73 278.271H172.877ZM176.127 274.055C175.829 274.055 175.594 273.821 175.594 273.529C175.594 273.238 175.829 273.01 176.127 273.01C176.412 273.01 176.646 273.238 176.646 273.529C176.646 273.821 176.412 274.055 176.127 274.055ZM175.694 278.271V274.759H176.561V278.271H175.694ZM178.325 278.271H177.457V274.759H178.261L178.332 275.214C178.552 274.859 178.979 274.652 179.455 274.652C180.337 274.652 180.792 275.2 180.792 276.11V278.271H179.924V276.316C179.924 275.726 179.633 275.442 179.185 275.442C178.652 275.442 178.325 275.811 178.325 276.38V278.271ZM181.445 276.437C181.445 275.413 182.113 274.645 183.116 274.645C183.642 274.645 184.054 274.866 184.26 275.243L184.31 274.759H185.113V278.093C185.113 279.267 184.409 279.999 183.272 279.999C182.262 279.999 181.573 279.423 181.466 278.485H182.333C182.39 278.94 182.739 279.21 183.272 279.21C183.869 279.21 184.253 278.833 184.253 278.25V277.667C184.033 277.994 183.599 278.2 183.094 278.2C182.099 278.2 181.445 277.454 181.445 276.437ZM182.319 276.416C182.319 277.006 182.696 277.447 183.265 277.447C183.862 277.447 184.232 277.027 184.232 276.416C184.232 275.818 183.869 275.406 183.265 275.406C182.689 275.406 182.319 275.84 182.319 276.416Z" fill="black"/>
<path d="M125.965 300.584C127.312 300.584 128.604 300.049 129.556 299.097C130.508 298.145 131.043 296.853 131.043 295.506C131.043 294.159 130.508 292.868 129.556 291.915C128.604 290.963 127.312 290.428 125.965 290.428C124.618 290.428 123.327 290.963 122.374 291.915C121.422 292.868 120.887 294.159 120.887 295.506C120.887 296.853 121.422 298.145 122.374 299.097C123.327 300.049 124.618 300.584 125.965 300.584ZM125.965 289.158C126.799 289.158 127.624 289.322 128.394 289.641C129.164 289.96 129.864 290.428 130.454 291.017C131.043 291.607 131.511 292.307 131.83 293.077C132.149 293.847 132.313 294.672 132.313 295.506C132.313 297.19 131.644 298.804 130.454 299.995C129.263 301.185 127.649 301.854 125.965 301.854C122.455 301.854 119.617 298.997 119.617 295.506C119.617 293.823 120.286 292.208 121.476 291.017C122.667 289.827 124.282 289.158 125.965 289.158ZM126.282 292.332V295.665L129.139 297.36L128.663 298.14L125.33 296.141V292.332H126.282Z" fill="#030A00"/>
<path d="M143.896 299.116C142.497 299.116 141.574 298.22 141.574 296.867H142.735C142.735 297.626 143.183 298.074 143.923 298.074C144.709 298.074 145.212 297.562 145.212 296.748C145.212 295.971 144.746 295.441 143.942 295.441C143.43 295.441 142.963 295.697 142.726 296.044L141.693 295.825L142.516 292.324H145.998V293.403H143.356L143 294.792C143.32 294.582 143.722 294.463 144.179 294.463C145.514 294.463 146.4 295.368 146.4 296.684C146.4 298.129 145.386 299.116 143.896 299.116ZM147.073 295.679C147.073 293.604 148.189 292.196 149.898 292.196C151.607 292.196 152.732 293.604 152.732 295.679C152.732 297.745 151.671 299.125 149.898 299.125C148.125 299.125 147.073 297.745 147.073 295.679ZM148.225 295.679C148.225 297.224 148.847 298.092 149.898 298.092C150.958 298.092 151.58 297.224 151.58 295.679C151.58 294.097 150.958 293.229 149.898 293.229C148.847 293.229 148.225 294.097 148.225 295.679ZM153.518 295.679C153.518 293.604 154.634 292.196 156.343 292.196C158.052 292.196 159.177 293.604 159.177 295.679C159.177 297.745 158.116 299.125 156.343 299.125C154.57 299.125 153.518 297.745 153.518 295.679ZM154.67 295.679C154.67 297.224 155.292 298.092 156.343 298.092C157.403 298.092 158.025 297.224 158.025 295.679C158.025 294.097 157.403 293.229 156.343 293.229C155.292 293.229 154.67 294.097 154.67 295.679ZM163.945 292.324V295.834L166.65 292.324H168.031L165.819 295.176L168.058 299.006H166.705L165.051 296.163L163.945 297.58V299.006H162.775V292.324H163.945ZM168.165 296.739C168.165 295.341 169.089 294.353 170.423 294.353C171.657 294.353 172.498 295.039 172.617 296.127H171.502C171.374 295.615 170.999 295.35 170.469 295.35C169.756 295.35 169.28 295.889 169.28 296.739C169.28 297.589 169.719 298.119 170.432 298.119C170.99 298.119 171.383 297.845 171.502 297.352H172.626C172.489 298.403 171.611 299.125 170.432 299.125C169.061 299.125 168.165 298.174 168.165 296.739ZM174.8 299.125C173.84 299.125 173.255 298.567 173.255 297.717C173.255 296.885 173.858 296.364 174.928 296.282L176.281 296.182V296.081C176.281 295.469 175.915 295.222 175.348 295.222C174.69 295.222 174.325 295.496 174.325 295.971H173.374C173.374 294.993 174.178 294.353 175.403 294.353C176.619 294.353 177.368 295.011 177.368 296.264V299.006H176.39L176.308 298.339C176.116 298.805 175.504 299.125 174.8 299.125ZM175.165 298.284C175.851 298.284 176.29 297.873 176.29 297.178V296.94L175.348 297.013C174.654 297.077 174.389 297.306 174.389 297.672C174.389 298.083 174.663 298.284 175.165 298.284ZM179.588 299.006H178.482V292.205H179.588V299.006Z" fill="black"/>
</g>
<g filter="url(#filter5_b_1790_21331)">
<rect x="30.3789" y="339.773" width="162.82" height="25.967" rx="7.91959" fill="#D6FBC4"/>
<path d="M50.2157 353.387H48.8334V355.551H47.7345V349.275H50.2157C51.4778 349.275 52.2934 350.099 52.2934 351.327C52.2934 352.537 51.4692 353.387 50.2157 353.387ZM50.0011 350.254H48.8334V352.409H49.9839C50.7394 352.409 51.143 352.005 51.143 351.318C51.143 350.631 50.7309 350.254 50.0011 350.254ZM55.7248 351.293V352.263H55.3385C54.583 352.263 54.1108 352.666 54.1108 353.49V355.551H53.0633V351.318H54.0507L54.1108 351.936C54.2911 351.516 54.6946 351.232 55.2612 351.232C55.4072 351.232 55.5531 351.25 55.7248 351.293ZM56.0423 353.422C56.0423 352.1 56.9953 351.19 58.3089 351.19C59.6225 351.19 60.5755 352.1 60.5755 353.422C60.5755 354.744 59.6225 355.654 58.3089 355.654C56.9953 355.654 56.0423 354.744 56.0423 353.422ZM57.0898 353.422C57.0898 354.195 57.5877 354.718 58.3089 354.718C59.0301 354.718 59.5281 354.195 59.5281 353.422C59.5281 352.649 59.0301 352.125 58.3089 352.125C57.5877 352.125 57.0898 352.649 57.0898 353.422ZM62.8062 355.551H61.7588V352.185H60.9431V351.31H61.7588V349.988H62.8062V351.31H63.6304V352.185H62.8062V355.551ZM66.1371 355.663C64.875 355.663 63.9907 354.744 63.9907 353.43C63.9907 352.1 64.8578 351.181 66.1027 351.181C67.3734 351.181 68.1804 352.031 68.1804 353.353V353.671L64.9866 353.679C65.0639 354.426 65.4588 354.804 66.1542 354.804C66.7295 354.804 67.1072 354.581 67.2274 354.177H68.1976C68.0173 355.105 67.2446 355.663 66.1371 355.663ZM66.1113 352.04C65.4932 352.04 65.1154 352.374 65.0124 353.01H67.1416C67.1416 352.426 66.7381 352.04 66.1113 352.04ZM69.5425 350.46C69.1819 350.46 68.8985 350.176 68.8985 349.824C68.8985 349.472 69.1819 349.198 69.5425 349.198C69.8859 349.198 70.1692 349.472 70.1692 349.824C70.1692 350.176 69.8859 350.46 69.5425 350.46ZM69.0187 355.551V351.31H70.0662V355.551H69.0187ZM72.1958 355.551H71.1484V351.31H72.1185L72.2044 351.859C72.4705 351.43 72.9857 351.181 73.5609 351.181C74.6255 351.181 75.175 351.842 75.175 352.941V355.551H74.1276V353.19C74.1276 352.477 73.7756 352.134 73.2347 352.134C72.5907 352.134 72.1958 352.58 72.1958 353.267V355.551Z" fill="#0A0B0A"/>
<path d="M158.494 356.141V355.246L160.249 353.412C160.597 353.047 160.864 352.757 161.049 352.542C161.24 352.322 161.373 352.134 161.449 351.978C161.524 351.821 161.562 351.662 161.562 351.499C161.562 351.227 161.475 351.013 161.301 350.856C161.133 350.7 160.916 350.622 160.649 350.622C160.371 350.622 160.131 350.703 159.928 350.865C159.725 351.021 159.577 351.253 159.484 351.56L158.45 351.239C158.52 350.897 158.662 350.601 158.876 350.352C159.09 350.097 159.351 349.903 159.658 349.77C159.971 349.631 160.301 349.561 160.649 349.561C161.066 349.561 161.431 349.637 161.744 349.787C162.063 349.938 162.309 350.149 162.483 350.422C162.663 350.694 162.753 351.013 162.753 351.378C162.753 351.61 162.709 351.838 162.622 352.064C162.535 352.29 162.405 352.522 162.231 352.76C162.057 352.992 161.831 353.252 161.553 353.542L160.032 355.141H162.839V356.141H158.494ZM166.357 356.245C165.841 356.245 165.389 356.106 165.001 355.828C164.613 355.55 164.308 355.159 164.088 354.655C163.874 354.15 163.767 353.565 163.767 352.899C163.767 352.227 163.874 351.641 164.088 351.143C164.303 350.645 164.604 350.257 164.992 349.978C165.38 349.7 165.832 349.561 166.348 349.561C166.875 349.561 167.33 349.7 167.713 349.978C168.101 350.257 168.405 350.648 168.625 351.152C168.846 351.65 168.956 352.232 168.956 352.899C168.956 353.565 168.846 354.15 168.625 354.655C168.411 355.153 168.11 355.544 167.721 355.828C167.333 356.106 166.878 356.245 166.357 356.245ZM166.366 355.167C166.661 355.167 166.913 355.078 167.122 354.898C167.33 354.713 167.49 354.452 167.6 354.116C167.716 353.774 167.774 353.368 167.774 352.899C167.774 352.429 167.716 352.027 167.6 351.691C167.49 351.349 167.327 351.088 167.113 350.908C166.904 350.729 166.649 350.639 166.348 350.639C166.058 350.639 165.809 350.729 165.601 350.908C165.392 351.088 165.23 351.349 165.114 351.691C165.004 352.027 164.949 352.429 164.949 352.899C164.949 353.362 165.004 353.765 165.114 354.107C165.23 354.443 165.392 354.704 165.601 354.889C165.815 355.075 166.07 355.167 166.366 355.167ZM172.259 358.053C171.905 358.053 171.578 357.995 171.276 357.879C170.975 357.763 170.714 357.601 170.494 357.392C170.28 357.19 170.123 356.949 170.025 356.671L171.085 356.271C171.155 356.491 171.291 356.668 171.494 356.801C171.702 356.941 171.957 357.01 172.259 357.01C172.49 357.01 172.693 356.967 172.867 356.88C173.047 356.793 173.186 356.665 173.284 356.497C173.383 356.335 173.432 356.138 173.432 355.906V354.828L173.649 355.089C173.487 355.373 173.27 355.587 172.997 355.732C172.725 355.877 172.415 355.95 172.067 355.95C171.627 355.95 171.233 355.848 170.885 355.645C170.538 355.443 170.265 355.164 170.068 354.811C169.871 354.458 169.773 354.061 169.773 353.62C169.773 353.174 169.871 352.777 170.068 352.429C170.265 352.082 170.535 351.809 170.877 351.612C171.219 351.41 171.607 351.308 172.041 351.308C172.395 351.308 172.705 351.384 172.971 351.534C173.244 351.679 173.47 351.891 173.649 352.169L173.493 352.456V351.413H174.571V355.906C174.571 356.318 174.469 356.686 174.266 357.01C174.069 357.335 173.797 357.59 173.449 357.775C173.108 357.96 172.711 358.053 172.259 358.053ZM172.206 354.898C172.45 354.898 172.661 354.846 172.841 354.741C173.026 354.631 173.171 354.481 173.276 354.29C173.38 354.098 173.432 353.878 173.432 353.629C173.432 353.386 173.377 353.168 173.267 352.977C173.163 352.78 173.018 352.626 172.832 352.516C172.653 352.406 172.444 352.351 172.206 352.351C171.969 352.351 171.755 352.406 171.563 352.516C171.372 352.626 171.221 352.78 171.111 352.977C171.007 353.168 170.955 353.386 170.955 353.629C170.955 353.872 171.007 354.09 171.111 354.281C171.221 354.472 171.369 354.623 171.555 354.733C171.746 354.843 171.963 354.898 172.206 354.898Z" fill="#FFC400"/>
</g>
<g filter="url(#filter6_b_1790_21331)">
<rect x="30.3789" y="369.168" width="163.522" height="25.967" rx="7.91959" fill="#E8E4FB"/>
<path d="M50.3874 385.051C48.5587 385.051 47.3739 383.78 47.3739 381.814C47.3739 379.865 48.6016 378.569 50.439 378.569C51.9243 378.569 53.0318 379.436 53.2464 380.784H52.0874C51.8727 380.054 51.246 379.625 50.4132 379.625C49.2541 379.625 48.5244 380.466 48.5244 381.805C48.5244 383.136 49.2627 383.995 50.4132 383.995C51.2632 383.995 51.9157 383.548 52.1217 382.853H53.2636C53.0232 384.175 51.8727 385.051 50.3874 385.051ZM55.2728 385.059C54.3713 385.059 53.8219 384.536 53.8219 383.737C53.8219 382.956 54.3885 382.467 55.393 382.389L56.6637 382.295V382.2C56.6637 381.625 56.3203 381.393 55.788 381.393C55.1698 381.393 54.8264 381.651 54.8264 382.097H53.9335C53.9335 381.179 54.689 380.578 55.8395 380.578C56.9814 380.578 57.6854 381.196 57.6854 382.372V384.948H56.7667L56.6895 384.321C56.5092 384.759 55.9339 385.059 55.2728 385.059ZM55.6163 384.269C56.2602 384.269 56.6723 383.883 56.6723 383.231V383.007L55.788 383.076C55.1355 383.136 54.8865 383.351 54.8865 383.694C54.8865 384.081 55.144 384.269 55.6163 384.269ZM61.3759 380.689V381.659H60.9896C60.234 381.659 59.7618 382.063 59.7618 382.887V384.948H58.7144V380.715H59.7017L59.7618 381.333C59.9421 380.913 60.3456 380.629 60.9123 380.629C61.0582 380.629 61.2042 380.646 61.3759 380.689ZM63.0551 384.948H62.0849V378.56H63.1323V381.325C63.4071 380.852 63.9737 380.569 64.6176 380.569C65.8282 380.569 66.5666 381.514 66.5666 382.853C66.5666 384.158 65.7681 385.059 64.5489 385.059C63.9136 385.059 63.3727 384.776 63.1237 384.287L63.0551 384.948ZM63.1409 382.81C63.1409 383.574 63.6131 384.098 64.3343 384.098C65.0727 384.098 65.5105 383.565 65.5105 382.81C65.5105 382.054 65.0727 381.514 64.3343 381.514C63.6131 381.514 63.1409 382.046 63.1409 382.81ZM67.1516 382.819C67.1516 381.496 68.1046 380.586 69.4182 380.586C70.7318 380.586 71.6848 381.496 71.6848 382.819C71.6848 384.141 70.7318 385.051 69.4182 385.051C68.1046 385.051 67.1516 384.141 67.1516 382.819ZM68.199 382.819C68.199 383.591 68.697 384.115 69.4182 384.115C70.1394 384.115 70.6373 383.591 70.6373 382.819C70.6373 382.046 70.1394 381.522 69.4182 381.522C68.697 381.522 68.199 382.046 68.199 382.819ZM73.5625 384.948H72.515V378.56H73.571V381.256C73.8372 380.844 74.3352 380.578 74.9447 380.578C75.9922 380.578 76.5417 381.239 76.5417 382.338V384.948H75.4942V382.587C75.4942 381.874 75.1422 381.531 74.6099 381.531C73.9488 381.531 73.5625 381.994 73.5625 382.63V384.948ZM77.1178 386.914V386.038H77.7445C78.1566 386.038 78.4142 385.944 78.5945 385.446L78.7147 385.128L77.0061 380.706H78.1137L79.2041 383.797L80.3545 380.706H81.4363L79.3586 385.892C79.0409 386.682 78.5945 387.008 77.899 387.008C77.6071 387.008 77.3496 386.974 77.1178 386.914ZM83.5813 385.059C82.3536 385.059 81.5894 384.158 81.5894 382.844C81.5894 381.522 82.3621 380.578 83.6414 380.578C84.2338 380.578 84.7575 380.827 85.0237 381.247V378.56H86.0625V384.948H85.1009L85.0323 384.287C84.7747 384.776 84.2252 385.059 83.5813 385.059ZM83.8131 384.098C84.5429 384.098 85.0151 383.574 85.0151 382.81C85.0151 382.046 84.5429 381.514 83.8131 381.514C83.0833 381.514 82.6369 382.054 82.6369 382.81C82.6369 383.565 83.0833 384.098 83.8131 384.098ZM89.8156 380.689V381.659H89.4293C88.6737 381.659 88.2015 382.063 88.2015 382.887V384.948H87.1541V380.715H88.1414L88.2015 381.333C88.3818 380.913 88.7854 380.629 89.352 380.629C89.498 380.629 89.6439 380.646 89.8156 380.689ZM91.619 385.059C90.7175 385.059 90.168 384.536 90.168 383.737C90.168 382.956 90.7347 382.467 91.7392 382.389L93.0099 382.295V382.2C93.0099 381.625 92.6664 381.393 92.1341 381.393C91.516 381.393 91.1725 381.651 91.1725 382.097H90.2796C90.2796 381.179 91.0352 380.578 92.1856 380.578C93.3275 380.578 94.0315 381.196 94.0315 382.372V384.948H93.1129L93.0356 384.321C92.8553 384.759 92.2801 385.059 91.619 385.059ZM91.9624 384.269C92.6063 384.269 93.0184 383.883 93.0184 383.231V383.007L92.1341 383.076C91.4816 383.136 91.2326 383.351 91.2326 383.694C91.2326 384.081 91.4902 384.269 91.9624 384.269ZM96.4442 384.948H95.3968V381.582H94.5812V380.706H95.3968V379.384H96.4442V380.706H97.2684V381.582H96.4442V384.948ZM99.7751 385.059C98.513 385.059 97.6287 384.141 97.6287 382.827C97.6287 381.496 98.4958 380.578 99.7408 380.578C101.011 380.578 101.818 381.428 101.818 382.75V383.068L98.6246 383.076C98.7019 383.823 99.0968 384.201 99.7923 384.201C100.368 384.201 100.745 383.978 100.865 383.574H101.836C101.655 384.501 100.883 385.059 99.7751 385.059ZM99.7493 381.436C99.1312 381.436 98.7534 381.771 98.6504 382.406H100.78C100.78 381.823 100.376 381.436 99.7493 381.436Z" fill="#0A0B0A"/>
<path d="M161.379 385.537V384.112H158.407V383.121L161.31 379.062H162.544V383.121H163.491V384.112H162.544V385.537H161.379ZM159.276 383.547L159.067 383.121H161.379V379.992L161.683 380.088L159.276 383.547ZM166.858 385.642C166.342 385.642 165.89 385.503 165.502 385.224C165.114 384.946 164.809 384.555 164.589 384.051C164.375 383.547 164.267 382.962 164.267 382.295C164.267 381.623 164.375 381.038 164.589 380.54C164.803 380.041 165.105 379.653 165.493 379.375C165.881 379.097 166.333 378.958 166.849 378.958C167.376 378.958 167.831 379.097 168.214 379.375C168.602 379.653 168.906 380.044 169.126 380.548C169.346 381.047 169.456 381.629 169.456 382.295C169.456 382.962 169.346 383.547 169.126 384.051C168.912 384.549 168.61 384.941 168.222 385.224C167.834 385.503 167.379 385.642 166.858 385.642ZM166.866 384.564C167.162 384.564 167.414 384.474 167.623 384.294C167.831 384.109 167.99 383.848 168.101 383.512C168.216 383.17 168.274 382.765 168.274 382.295C168.274 381.826 168.216 381.423 168.101 381.087C167.99 380.745 167.828 380.485 167.614 380.305C167.405 380.125 167.15 380.035 166.849 380.035C166.559 380.035 166.31 380.125 166.101 380.305C165.893 380.485 165.731 380.745 165.615 381.087C165.505 381.423 165.45 381.826 165.45 382.295C165.45 382.759 165.505 383.162 165.615 383.503C165.731 383.84 165.893 384.1 166.101 384.286C166.316 384.471 166.571 384.564 166.866 384.564ZM172.759 387.45C172.406 387.45 172.079 387.392 171.777 387.276C171.476 387.16 171.215 386.998 170.995 386.789C170.781 386.586 170.624 386.346 170.526 386.068L171.586 385.668C171.656 385.888 171.792 386.065 171.995 386.198C172.203 386.337 172.458 386.407 172.759 386.407C172.991 386.407 173.194 386.363 173.368 386.276C173.547 386.189 173.687 386.062 173.785 385.894C173.884 385.731 173.933 385.534 173.933 385.303V384.225L174.15 384.486C173.988 384.77 173.771 384.984 173.498 385.129C173.226 385.274 172.916 385.346 172.568 385.346C172.128 385.346 171.734 385.245 171.386 385.042C171.038 384.839 170.766 384.561 170.569 384.208C170.372 383.854 170.274 383.457 170.274 383.017C170.274 382.571 170.372 382.174 170.569 381.826C170.766 381.478 171.036 381.206 171.377 381.009C171.719 380.806 172.108 380.705 172.542 380.705C172.896 380.705 173.206 380.78 173.472 380.931C173.745 381.076 173.97 381.287 174.15 381.565L173.994 381.852V380.809H175.071V385.303C175.071 385.714 174.97 386.082 174.767 386.407C174.57 386.731 174.298 386.986 173.95 387.171C173.608 387.357 173.211 387.45 172.759 387.45ZM172.707 384.294C172.951 384.294 173.162 384.242 173.342 384.138C173.527 384.028 173.672 383.877 173.776 383.686C173.881 383.495 173.933 383.275 173.933 383.025C173.933 382.782 173.878 382.565 173.768 382.374C173.663 382.177 173.519 382.023 173.333 381.913C173.153 381.803 172.945 381.748 172.707 381.748C172.47 381.748 172.255 381.803 172.064 381.913C171.873 382.023 171.722 382.177 171.612 382.374C171.508 382.565 171.456 382.782 171.456 383.025C171.456 383.269 171.508 383.486 171.612 383.677C171.722 383.869 171.87 384.019 172.055 384.129C172.247 384.239 172.464 384.294 172.707 384.294Z" fill="#FFC400"/>
</g>
<g filter="url(#filter7_b_1790_21331)">
<rect x="30.3789" y="398.564" width="162.82" height="25.967" rx="7.91959" fill="#EDFAE7"/>
<rect x="30.3789" y="398.564" width="162.82" height="25.967" rx="7.91959" stroke="#EDFAE7" stroke-width="1.0732"/>
<path d="M48.8334 414.345H47.7345V408.069H48.8334V410.662H51.6152V408.069H52.7141V414.345H51.6152V411.683H48.8334V414.345ZM55.8495 414.456C54.5874 414.456 53.7031 413.538 53.7031 412.224C53.7031 410.893 54.5702 409.975 55.8151 409.975C57.0858 409.975 57.8928 410.825 57.8928 412.147V412.464L54.699 412.473C54.7763 413.22 55.1712 413.598 55.8666 413.598C56.4419 413.598 56.8196 413.375 56.9398 412.971H57.91C57.7297 413.898 56.957 414.456 55.8495 414.456ZM55.8237 410.833C55.2056 410.833 54.8278 411.168 54.7248 411.803H56.854C56.854 411.22 56.4505 410.833 55.8237 410.833ZM59.9513 414.456C59.0498 414.456 58.5003 413.933 58.5003 413.134C58.5003 412.353 59.067 411.863 60.0715 411.786L61.3422 411.692V411.597C61.3422 411.022 60.9987 410.79 60.4664 410.79C59.8483 410.79 59.5049 411.048 59.5049 411.494H58.612C58.612 410.576 59.3675 409.975 60.5179 409.975C61.6598 409.975 62.3638 410.593 62.3638 411.769V414.345H61.4452L61.3679 413.718C61.1876 414.156 60.6124 414.456 59.9513 414.456ZM60.2947 413.666C60.9386 413.666 61.3508 413.28 61.3508 412.628V412.404L60.4664 412.473C59.8139 412.533 59.5649 412.748 59.5649 413.091C59.5649 413.478 59.8225 413.666 60.2947 413.666ZM64.4489 414.345H63.41V407.957H64.4489V414.345ZM66.99 414.345H65.9426V410.979H65.1269V410.103H65.9426V408.781H66.99V410.103H67.8142V410.979H66.99V414.345ZM69.5128 414.345H68.4654V407.957H69.5214V410.653C69.7876 410.241 70.2855 409.975 70.8951 409.975C71.9425 409.975 72.492 410.636 72.492 411.735V414.345H71.4446V411.984C71.4446 411.271 71.0926 410.928 70.5603 410.928C69.8992 410.928 69.5128 411.391 69.5128 412.027V414.345ZM73.0681 416.311V415.435H73.6949C74.107 415.435 74.3645 415.341 74.5448 414.843L74.665 414.525L72.9565 410.103H74.064L75.1544 413.194L76.3049 410.103H77.3867L75.309 415.289C74.9913 416.079 74.5448 416.405 73.8494 416.405C73.5575 416.405 73.2999 416.371 73.0681 416.311ZM83.8845 411.778H81.5492V414.345H80.4502V408.069H84.3309V409.082H81.5492V410.79H83.8845V411.778ZM86.0853 414.456C85.1838 414.456 84.6344 413.933 84.6344 413.134C84.6344 412.353 85.201 411.863 86.2055 411.786L87.4762 411.692V411.597C87.4762 411.022 87.1328 410.79 86.6005 410.79C85.9823 410.79 85.6389 411.048 85.6389 411.494H84.746C84.746 410.576 85.5015 409.975 86.652 409.975C87.7939 409.975 88.4979 410.593 88.4979 411.769V414.345H87.5792L87.5019 413.718C87.3217 414.156 86.7464 414.456 86.0853 414.456ZM86.4288 413.666C87.0727 413.666 87.4848 413.28 87.4848 412.628V412.404L86.6005 412.473C85.948 412.533 85.699 412.748 85.699 413.091C85.699 413.478 85.9565 413.666 86.4288 413.666ZM90.9106 414.345H89.8631V410.979H89.0475V410.103H89.8631V408.781H90.9106V410.103H91.7348V410.979H90.9106V414.345ZM92.0597 413.057H93.0556C93.0642 413.426 93.3389 413.658 93.8197 413.658C94.3091 413.658 94.5753 413.46 94.5753 413.151C94.5753 412.937 94.4636 412.782 94.0859 412.696L93.3218 412.516C92.5576 412.344 92.1885 411.984 92.1885 411.305C92.1885 410.473 92.8925 409.975 93.8712 409.975C94.8242 409.975 95.4682 410.524 95.4767 411.348H94.4808C94.4722 410.988 94.2318 410.756 93.8283 410.756C93.4162 410.756 93.1758 410.945 93.1758 411.263C93.1758 411.503 93.3647 411.657 93.7253 411.743L94.4894 411.924C95.202 412.087 95.5626 412.413 95.5626 413.065C95.5626 413.924 94.8328 414.456 93.7854 414.456C92.7294 414.456 92.0597 413.89 92.0597 413.057Z" fill="#0A0B0A"/>
<path d="M159.597 414.934V409.467H158.346V408.459H160.78V414.934H159.597ZM164.676 415.038C164.161 415.038 163.709 414.899 163.32 414.621C162.932 414.343 162.628 413.952 162.408 413.448C162.193 412.944 162.086 412.358 162.086 411.692C162.086 411.02 162.193 410.435 162.408 409.936C162.622 409.438 162.923 409.05 163.312 408.772C163.7 408.493 164.152 408.354 164.668 408.354C165.195 408.354 165.65 408.493 166.032 408.772C166.42 409.05 166.725 409.441 166.945 409.945C167.165 410.443 167.275 411.026 167.275 411.692C167.275 412.358 167.165 412.944 166.945 413.448C166.73 413.946 166.429 414.337 166.041 414.621C165.653 414.899 165.198 415.038 164.676 415.038ZM164.685 413.961C164.98 413.961 165.232 413.871 165.441 413.691C165.65 413.506 165.809 413.245 165.919 412.909C166.035 412.567 166.093 412.161 166.093 411.692C166.093 411.223 166.035 410.82 165.919 410.484C165.809 410.142 165.647 409.881 165.432 409.702C165.224 409.522 164.969 409.432 164.668 409.432C164.378 409.432 164.129 409.522 163.92 409.702C163.711 409.881 163.549 410.142 163.433 410.484C163.323 410.82 163.268 411.223 163.268 411.692C163.268 412.156 163.323 412.558 163.433 412.9C163.549 413.236 163.711 413.497 163.92 413.682C164.134 413.868 164.389 413.961 164.685 413.961ZM170.578 416.846C170.225 416.846 169.897 416.788 169.596 416.672C169.295 416.557 169.034 416.394 168.814 416.186C168.599 415.983 168.443 415.742 168.344 415.464L169.405 415.064C169.474 415.285 169.61 415.461 169.813 415.595C170.022 415.734 170.277 415.803 170.578 415.803C170.81 415.803 171.013 415.76 171.186 415.673C171.366 415.586 171.505 415.458 171.604 415.29C171.702 415.128 171.751 414.931 171.751 414.699V413.622L171.969 413.882C171.806 414.166 171.589 414.381 171.317 414.526C171.044 414.67 170.734 414.743 170.387 414.743C169.946 414.743 169.552 414.641 169.205 414.439C168.857 414.236 168.585 413.958 168.388 413.604C168.191 413.251 168.092 412.854 168.092 412.413C168.092 411.967 168.191 411.57 168.388 411.223C168.585 410.875 168.854 410.603 169.196 410.406C169.538 410.203 169.926 410.101 170.361 410.101C170.714 410.101 171.024 410.177 171.291 410.327C171.563 410.472 171.789 410.684 171.969 410.962L171.812 411.249V410.206H172.89V414.699C172.89 415.111 172.789 415.479 172.586 415.803C172.389 416.128 172.116 416.383 171.769 416.568C171.427 416.754 171.03 416.846 170.578 416.846ZM170.526 413.691C170.769 413.691 170.981 413.639 171.16 413.535C171.346 413.425 171.491 413.274 171.595 413.083C171.699 412.892 171.751 412.671 171.751 412.422C171.751 412.179 171.696 411.961 171.586 411.77C171.482 411.573 171.337 411.42 171.152 411.31C170.972 411.2 170.763 411.144 170.526 411.144C170.288 411.144 170.074 411.2 169.883 411.31C169.691 411.42 169.541 411.573 169.431 411.77C169.326 411.961 169.274 412.179 169.274 412.422C169.274 412.666 169.326 412.883 169.431 413.074C169.541 413.265 169.689 413.416 169.874 413.526C170.065 413.636 170.282 413.691 170.526 413.691Z" fill="#FFC400"/>
</g>
</g>
</g>
</g>
<defs>
<filter id="filter0_d_1790_21331" x="0.701877" y="0.898926" width="222.167" height="449.526" filterUnits="userSpaceOnUse" color-interpolation-filters="sRGB">
<feFlood flood-opacity="0" result="BackgroundImageFix"/>
<feColorMatrix in="SourceAlpha" type="matrix" values="0 0 0 0 0 0 0 0 0 0 0 0 0 0 0 0 0 0 127 0" result="hardAlpha"/>
<feOffset dy="2.79812"/>
<feGaussianBlur stdDeviation="1.39906"/>
<feComposite in2="hardAlpha" operator="out"/>
<feColorMatrix type="matrix" values="0 0 0 0 0 0 0 0 0 0 0 0 0 0 0 0 0 0 0.03 0"/>
<feBlend mode="normal" in2="BackgroundImageFix" result="effect1_dropShadow_1790_21331"/>
<feBlend mode="normal" in="SourceGraphic" in2="effect1_dropShadow_1790_21331" result="shape"/>
</filter>
<filter id="filter1_d_1790_21331" x="14.4009" y="13.4932" width="195.401" height="119.586" filterUnits="userSpaceOnUse" color-interpolation-filters="sRGB">
<feFlood flood-opacity="0" result="BackgroundImageFix"/>
<feColorMatrix in="SourceAlpha" type="matrix" values="0 0 0 0 0 0 0 0 0 0 0 0 0 0 0 0 0 0 127 0" result="hardAlpha"/>
<feOffset dy="3.12644"/>
<feGaussianBlur stdDeviation="1.56322"/>
<feComposite in2="hardAlpha" operator="out"/>
<feColorMatrix type="matrix" values="0 0 0 0 0 0 0 0 0 0 0 0 0 0 0 0 0 0 0.03 0"/>
<feBlend mode="normal" in2="BackgroundImageFix" result="effect1_dropShadow_1790_21331"/>
<feBlend mode="normal" in="SourceGraphic" in2="effect1_dropShadow_1790_21331" result="shape"/>
</filter>
<filter id="filter2_d_1790_21331" x="15.496" y="256.459" width="193.289" height="179.752" filterUnits="userSpaceOnUse" color-interpolation-filters="sRGB">
<feFlood flood-opacity="0" result="BackgroundImageFix"/>
<feColorMatrix in="SourceAlpha" type="matrix" values="0 0 0 0 0 0 0 0 0 0 0 0 0 0 0 0 0 0 127 0" result="hardAlpha"/>
<feOffset dy="2.03133"/>
<feGaussianBlur stdDeviation="1.01567"/>
<feComposite in2="hardAlpha" operator="out"/>
<feColorMatrix type="matrix" values="0 0 0 0 0 0 0 0 0 0 0 0 0 0 0 0 0 0 0.03 0"/>
<feBlend mode="normal" in2="BackgroundImageFix" result="effect1_dropShadow_1790_21331"/>
<feBlend mode="normal" in="SourceGraphic" in2="effect1_dropShadow_1790_21331" result="shape"/>
</filter>
<filter id="filter3_d_1790_21331" x="28.707" y="264.076" width="73.3048" height="50.3051" filterUnits="userSpaceOnUse" color-interpolation-filters="sRGB">
<feFlood flood-opacity="0" result="BackgroundImageFix"/>
<feColorMatrix in="SourceAlpha" type="matrix" values="0 0 0 0 0 0 0 0 0 0 0 0 0 0 0 0 0 0 127 0" result="hardAlpha"/>
<feOffset dy="2.03133"/>
<feGaussianBlur stdDeviation="1.01567"/>
<feComposite in2="hardAlpha" operator="out"/>
<feColorMatrix type="matrix" values="0 0 0 0 0 0 0 0 0 0 0 0 0 0 0 0 0 0 0.03 0"/>
<feBlend mode="normal" in2="BackgroundImageFix" result="effect1_dropShadow_1790_21331"/>
<feBlend mode="normal" in="SourceGraphic" in2="effect1_dropShadow_1790_21331" result="shape"/>
</filter>
<filter id="filter4_d_1790_21331" x="109.121" y="264.076" width="86.4533" height="50.3051" filterUnits="userSpaceOnUse" color-interpolation-filters="sRGB">
<feFlood flood-opacity="0" result="BackgroundImageFix"/>
<feColorMatrix in="SourceAlpha" type="matrix" values="0 0 0 0 0 0 0 0 0 0 0 0 0 0 0 0 0 0 127 0" result="hardAlpha"/>
<feOffset dy="2.03133"/>
<feGaussianBlur stdDeviation="1.01567"/>
<feComposite in2="hardAlpha" operator="out"/>
<feColorMatrix type="matrix" values="0 0 0 0 0 0 0 0 0 0 0 0 0 0 0 0 0 0 0.03 0"/>
<feBlend mode="normal" in2="BackgroundImageFix" result="effect1_dropShadow_1790_21331"/>
<feBlend mode="normal" in="SourceGraphic" in2="effect1_dropShadow_1790_21331" result="shape"/>
</filter>
<filter id="filter5_b_1790_21331" x="28.2325" y="337.627" width="167.113" height="30.2598" filterUnits="userSpaceOnUse" color-interpolation-filters="sRGB">
<feFlood flood-opacity="0" result="BackgroundImageFix"/>
<feGaussianBlur in="BackgroundImageFix" stdDeviation="1.0732"/>
<feComposite in2="SourceAlpha" operator="in" result="effect1_backgroundBlur_1790_21331"/>
<feBlend mode="normal" in="SourceGraphic" in2="effect1_backgroundBlur_1790_21331" result="shape"/>
</filter>
<filter id="filter6_b_1790_21331" x="28.2325" y="367.022" width="167.816" height="30.2598" filterUnits="userSpaceOnUse" color-interpolation-filters="sRGB">
<feFlood flood-opacity="0" result="BackgroundImageFix"/>
<feGaussianBlur in="BackgroundImageFix" stdDeviation="1.0732"/>
<feComposite in2="SourceAlpha" operator="in" result="effect1_backgroundBlur_1790_21331"/>
<feBlend mode="normal" in="SourceGraphic" in2="effect1_backgroundBlur_1790_21331" result="shape"/>
</filter>
<filter id="filter7_b_1790_21331" x="27.6974" y="395.881" width="168.183" height="31.3331" filterUnits="userSpaceOnUse" color-interpolation-filters="sRGB">
<feFlood flood-opacity="0" result="BackgroundImageFix"/>
<feGaussianBlur in="BackgroundImageFix" stdDeviation="1.0732"/>
<feComposite in2="SourceAlpha" operator="in" result="effect1_backgroundBlur_1790_21331"/>
<feBlend mode="normal" in="SourceGraphic" in2="effect1_backgroundBlur_1790_21331" result="shape"/>
</filter>
<clipPath id="clip0_1790_21331">
<rect x="3.5" y="0.898926" width="216.568" height="443.929" rx="22.8525" fill="white"/>
</clipPath>
<clipPath id="clip1_1790_21331">
<rect x="17.5273" y="13.4932" width="189.149" height="113.333" rx="6.40344" fill="white"/>
</clipPath>
</defs>
</svg>
