<svg width="1072" height="1173" viewBox="0 0 1072 1173" fill="none" xmlns="http://www.w3.org/2000/svg">
<g clip-path="url(#clip0_1644_6730)">
<path d="M906.34 463.532L908.113 461.759L1198.87 171.002C1216.38 153.496 1216.38 125.103 1198.87 107.597C1181.36 90.0901 1152.97 90.0901 1135.46 107.597L844.708 398.353L842.935 400.126L906.34 463.532ZM1135.05 143.025C1148.07 129.054 1165.32 123.959 1173.58 131.646C1181.85 139.344 1177.99 156.918 1164.97 170.901C1151.96 184.873 1134.7 189.968 1126.44 182.281C1118.17 174.582 1122.03 157.008 1135.05 143.025Z" fill="#0A0B0A" stroke="black" stroke-width="1.12222" stroke-miterlimit="10"/>
<path d="M812.546 419.3L886.613 493.368L913.165 466.816L839.097 392.749L812.546 419.3Z" fill="#898483" stroke="black" stroke-width="1.12222" stroke-miterlimit="10"/>
<path d="M591.469 347.471C381.362 347.471 211.036 517.797 211.036 727.905C211.036 938.012 381.362 1108.34 591.469 1108.34C801.577 1108.34 971.902 938.012 971.902 727.905C971.902 517.797 801.577 347.471 591.469 347.471Z" fill="#898483" stroke="#EDFAE7" stroke-width="22.4444" stroke-miterlimit="10"/>
<path d="M582.489 385.627C398.413 385.627 249.189 534.851 249.189 718.927C249.189 903.004 398.413 1052.23 582.489 1052.23C766.566 1052.23 915.789 903.004 915.789 718.927C915.789 534.851 766.566 385.627 582.489 385.627Z" fill="#9F9C9C"/>
<path d="M763.696 951.676C766.367 949.903 768.869 947.894 771.147 945.638C789.507 927.526 873.741 837.972 864.999 727.905C864.999 727.905 860.959 669.527 835.338 625.985C834.407 624.402 833.801 622.663 833.61 620.845C832.241 608.467 824.565 556.676 790.102 536.005C790.102 536.005 764.964 518.981 754.673 504.908C750.599 499.342 745.505 494.617 739.445 491.329C694.107 466.64 522.923 385.807 402.015 497.849C402.015 497.849 318.768 588.749 299.691 675.16C297.727 681.927 295.078 691.545 292.396 703.216C286.314 729.678 283.261 742.909 285.102 754.838C287.548 770.729 295.46 775.801 311.339 798.739C319.397 810.399 330.148 827.581 340.618 850.552C342.997 855.771 346.229 860.54 350.146 864.726C354.994 869.9 361.076 875.499 368.573 880.808C381.714 890.111 394.507 895.228 404.226 898.123C408.075 899.268 411.688 901.075 414.976 903.375C436.994 918.795 464.231 935.28 496.786 949.97C548.521 973.324 595.89 984.142 631.88 989.383C631.868 989.383 701.783 992.615 763.696 951.676Z" fill="#EDA145"/>
<path d="M774.392 908.583C774.392 908.583 657.681 984.31 582.492 964.402C582.492 964.402 405.181 935.516 358.047 805.338C358.047 805.338 285.103 692.263 358.047 583.834C358.047 583.834 424.258 469.794 542.092 472.038C542.092 472.038 714.914 472.038 764.292 549.471C764.292 549.471 845.72 643.738 850.456 727.905C850.456 727.905 852.947 835.638 774.392 908.583Z" fill="#F4C790"/>
<path d="M626.843 620.011C618.113 632.813 619.313 648.835 629.524 655.798C639.735 662.76 655.089 658.027 663.819 645.225C672.548 632.424 671.348 616.401 661.137 609.439C650.926 602.476 635.572 607.209 626.843 620.011Z" fill="#EDA145"/>
<path d="M592.316 742.382C586.729 750.575 588.796 761.715 596.933 767.264C605.07 772.812 616.195 770.669 621.782 762.476C627.369 754.282 625.302 743.143 617.166 737.594C609.029 732.045 597.903 734.189 592.316 742.382Z" fill="#EDA145"/>
<path d="M548.561 676.994C543.75 684.05 545.498 693.623 552.468 698.375C559.437 703.128 568.987 701.26 573.799 694.204C578.611 687.147 576.862 677.575 569.893 672.822C562.924 668.07 553.373 669.937 548.561 676.994Z" fill="#EDA145"/>
<path d="M715.767 699.434C710.955 706.49 712.667 716.038 719.59 720.759C726.513 725.48 736.026 723.587 740.838 716.53C745.65 709.474 743.938 699.927 737.015 695.206C730.092 690.485 720.579 692.378 715.767 699.434Z" fill="#EDA145"/>
<path d="M635.761 768.896C631.749 774.78 633.282 782.813 639.187 786.839C645.091 790.865 653.129 789.359 657.142 783.476C661.154 777.592 659.62 769.559 653.716 765.533C647.812 761.506 639.773 763.012 635.761 768.896Z" fill="#EDA145"/>
<path d="M605.516 551.784C602.118 556.766 603.387 563.548 608.349 566.932C613.31 570.316 620.087 569.019 623.485 564.037C626.882 559.055 625.614 552.273 620.652 548.889C615.69 545.505 608.914 546.801 605.516 551.784Z" fill="#EDA145"/>
<path d="M667.239 556.271C663.841 561.253 665.109 568.035 670.071 571.419C675.033 574.803 681.81 573.507 685.207 568.524C688.605 563.542 687.337 556.76 682.375 553.376C677.413 549.992 670.636 551.289 667.239 556.271Z" fill="#EDA145"/>
<path d="M728.139 608.426C724.552 613.685 726.025 620.935 731.427 624.619C736.829 628.303 744.116 627.026 747.702 621.767C751.288 616.508 749.816 609.258 744.414 605.575C739.011 601.891 731.725 603.167 728.139 608.426Z" fill="#EDA145"/>
<path d="M648.109 814.928C644.942 819.572 646.053 825.845 650.589 828.939C655.126 832.033 661.372 830.776 664.539 826.131C667.706 821.487 666.596 815.214 662.059 812.12C657.522 809.026 651.276 810.283 648.109 814.928Z" fill="#EDA145"/>
<path d="M720.697 779.233C719.719 780.667 720.251 782.733 721.884 783.846C723.518 784.96 725.635 784.701 726.612 783.267C727.59 781.833 727.059 779.768 725.425 778.654C723.792 777.54 721.675 777.8 720.697 779.233Z" fill="#EDA145"/>
<path d="M776.806 776.988C775.829 778.421 776.36 780.487 777.994 781.601C779.627 782.714 781.744 782.455 782.722 781.021C783.7 779.588 783.168 777.522 781.534 776.408C779.901 775.294 777.784 775.554 776.806 776.988Z" fill="#EDA145"/>
<path d="M776.089 716.288C774.556 718.536 775.061 721.55 777.217 723.02C779.373 724.49 782.363 723.86 783.896 721.612C785.429 719.364 784.924 716.35 782.768 714.879C780.613 713.409 777.622 714.04 776.089 716.288Z" fill="#EDA145"/>
<path d="M684.787 825.245C683.809 826.679 684.341 828.744 685.974 829.858C687.608 830.972 689.725 830.712 690.702 829.279C691.68 827.845 691.148 825.78 689.515 824.666C687.881 823.552 685.765 823.811 684.787 825.245Z" fill="#EDA145"/>
<path d="M735.727 843.648C735.001 844.713 735.574 846.369 737.008 847.347C738.442 848.325 740.193 848.254 740.919 847.189C741.646 846.124 741.072 844.468 739.638 843.49C738.204 842.512 736.453 842.583 735.727 843.648Z" fill="#EDA145"/>
</g>
<defs>
<clipPath id="clip0_1644_6730">
<rect width="1212" height="1212" fill="white" transform="matrix(-1 0 0 -1 1212 1192)"/>
</clipPath>
</defs>
</svg>
