<svg width="1770" height="1041" viewBox="0 0 1770 1041" fill="none" xmlns="http://www.w3.org/2000/svg">
<g clip-path="url(#clip0_2161_22677)">
<g clip-path="url(#clip1_2161_22677)">
<path d="M47.3096 425.849C-101.052 313.557 -23.4683 329.21 -197.01 227.126C-298.64 167.344 -247.13 15.7225 -237.622 -101.804L-222.318 -290.992C-208.022 -467.706 -60.4388 -603.832 116.852 -603.832H761.212L1704.44 -644.497C1896.52 -652.778 2057.62 -500.379 2058 -308.115C2058.19 -204.494 2057.66 -119.579 2055.63 -104.304C2050.19 -63.471 2172.01 44.7374 1983.49 121.64C1794.98 198.543 1733.05 329.21 1713.31 329.21C1693.58 329.21 1469.67 702.154 1377.8 712.362C1285.92 722.571 1153.89 792.668 1087.2 823.293C1020.5 853.918 1052.53 845.125 1006.93 937C961.335 1028.88 979.682 1025 918.432 1025L832.671 1032.22C804.36 1032.22 773.235 995.02 761.212 976.418C716.976 921.973 624.421 809.001 608.087 792.668C587.671 772.251 480.824 696.029 404.601 650.432C328.379 604.835 353.56 630.015 47.3096 425.849Z" fill="#6D53E7"/>
</g>
</g>
<defs>
<clipPath id="clip0_2161_22677">
<rect width="1960" height="1040.39" fill="white" transform="translate(-183.5)"/>
</clipPath>
<clipPath id="clip1_2161_22677">
<rect width="1960" height="1299.86" fill="white" transform="translate(-183.5 -259.471)"/>
</clipPath>
</defs>
</svg>
