<svg width="17" height="17" viewBox="0 0 17 17" fill="none" xmlns="http://www.w3.org/2000/svg">
<path fill-rule="evenodd" clip-rule="evenodd" d="M5.94015 2.22527C4.8808 2.10688 3.78421 2.10688 2.72486 2.22527C2.46745 2.25404 2.26446 2.45787 2.2355 2.70541C2.109 3.78703 2.109 4.87971 2.2355 5.96133C2.26446 6.20887 2.46745 6.4127 2.72486 6.44147C3.78421 6.55987 4.8808 6.55987 5.94015 6.44147C6.19756 6.4127 6.40055 6.20887 6.42951 5.96133C6.55601 4.87971 6.55601 3.78703 6.42951 2.70541C6.40055 2.45787 6.19756 2.25404 5.94015 2.22527ZM2.58602 0.983008C3.73764 0.854297 4.92737 0.854297 6.07899 0.983008C6.90469 1.07529 7.57339 1.72528 7.67104 2.56021C7.80883 3.7383 7.80883 4.92844 7.67104 6.10653C7.57339 6.94146 6.90469 7.59145 6.07899 7.68373C4.92737 7.81244 3.73764 7.81244 2.58602 7.68373C1.76032 7.59145 1.09162 6.94146 0.993967 6.10653C0.856178 4.92844 0.856178 3.7383 0.993967 2.56021C1.09162 1.72528 1.76032 1.07529 2.58602 0.983008Z" fill="#4A5154"/>
<path fill-rule="evenodd" clip-rule="evenodd" d="M5.94015 10.5586C4.8808 10.4402 3.78421 10.4402 2.72486 10.5586C2.46745 10.5874 2.26446 10.7912 2.2355 11.0387C2.109 12.1204 2.109 13.213 2.2355 14.2947C2.26446 14.5422 2.46745 14.746 2.72486 14.7748C3.78421 14.8932 4.8808 14.8932 5.94015 14.7748C6.19756 14.746 6.40055 14.5422 6.42951 14.2947C6.55601 13.213 6.55601 12.1204 6.42951 11.0387C6.40055 10.7912 6.19756 10.5874 5.94015 10.5586ZM2.58602 9.31634C3.73764 9.18763 4.92737 9.18763 6.07899 9.31634C6.90469 9.40862 7.57339 10.0586 7.67104 10.8935C7.80883 12.0716 7.80883 13.2618 7.67104 14.4399C7.57339 15.2748 6.90469 15.9248 6.07899 16.0171C4.92737 16.1458 3.73764 16.1458 2.58602 16.0171C1.76032 15.9248 1.09162 15.2748 0.993967 14.4399C0.856178 13.2618 0.856178 12.0716 0.993967 10.8935C1.09162 10.0586 1.76032 9.40862 2.58602 9.31634Z" fill="#4A5154"/>
<path fill-rule="evenodd" clip-rule="evenodd" d="M14.2735 2.22527C13.2141 2.10688 12.1175 2.10688 11.0582 2.22527C10.8008 2.25404 10.5978 2.45787 10.5688 2.70541C10.4423 3.78703 10.4423 4.87971 10.5688 5.96133C10.5978 6.20887 10.8008 6.4127 11.0582 6.44147C12.1175 6.55987 13.2141 6.55987 14.2735 6.44147C14.5309 6.4127 14.7339 6.20887 14.7628 5.96133C14.8893 4.87971 14.8893 3.78703 14.7628 2.70541C14.7339 2.45787 14.5309 2.25404 14.2735 2.22527ZM10.9194 0.983008C12.071 0.854297 13.2607 0.854297 14.4123 0.983008C15.238 1.07529 15.9067 1.72528 16.0044 2.56021C16.1422 3.7383 16.1422 4.92844 16.0044 6.10653C15.9067 6.94146 15.238 7.59145 14.4123 7.68373C13.2607 7.81244 12.071 7.81244 10.9194 7.68373C10.0937 7.59145 9.42495 6.94146 9.3273 6.10653C9.18951 4.92844 9.18951 3.7383 9.3273 2.56021C9.42495 1.72528 10.0937 1.07529 10.9194 0.983008Z" fill="#4A5154"/>
<path fill-rule="evenodd" clip-rule="evenodd" d="M14.2735 10.5586C13.2141 10.4402 12.1175 10.4402 11.0582 10.5586C10.8008 10.5874 10.5978 10.7912 10.5688 11.0387C10.4423 12.1204 10.4423 13.213 10.5688 14.2947C10.5978 14.5422 10.8008 14.746 11.0582 14.7748C12.1175 14.8932 13.2141 14.8932 14.2735 14.7748C14.5309 14.746 14.7339 14.5422 14.7628 14.2947C14.8893 13.213 14.8893 12.1204 14.7628 11.0387C14.7339 10.7912 14.5309 10.5874 14.2735 10.5586ZM10.9194 9.31634C12.071 9.18763 13.2607 9.18763 14.4123 9.31634C15.238 9.40862 15.9067 10.0586 16.0044 10.8935C16.1422 12.0716 16.1422 13.2618 16.0044 14.4399C15.9067 15.2748 15.238 15.9248 14.4123 16.0171C13.2607 16.1458 12.071 16.1458 10.9194 16.0171C10.0937 15.9248 9.42495 15.2748 9.3273 14.4399C9.18951 13.2618 9.18951 12.0716 9.3273 10.8935C9.42495 10.0586 10.0937 9.40862 10.9194 9.31634Z" fill="#4A5154"/>
</svg>
