<svg width="28" height="31" viewBox="0 0 28 31" fill="none" xmlns="http://www.w3.org/2000/svg">
<rect y="0.976562" width="27.6" height="27.6" rx="13.8" fill="#D6FBC4"/>
<g filter="url(#filter0_di_1115_10709)">
<path d="M13.4554 5.16989C13.4902 4.74669 14.1098 4.74669 14.1446 5.1699C14.1769 5.56374 14.738 5.60387 14.8261 5.21864C14.9208 4.80469 15.534 4.89287 15.5082 5.31671C15.4842 5.71115 16.0339 5.83073 16.1759 5.46196C16.3285 5.0657 16.923 5.24025 16.8371 5.6561C16.7572 6.04311 17.2843 6.2397 17.4773 5.8949C17.6848 5.52438 18.2483 5.78176 18.1042 6.18116C17.97 6.55286 18.4638 6.82247 18.7039 6.50864C18.962 6.17142 19.4832 6.50638 19.2836 6.8812C19.0979 7.23002 19.5483 7.56715 19.8306 7.2907C20.1341 6.99363 20.6023 7.39936 20.3514 7.74197C20.118 8.0608 20.5158 8.4586 20.8346 8.22514C21.1772 7.97428 21.5829 8.44251 21.2859 8.74594C21.0094 9.0283 21.3466 9.47866 21.6954 9.29296C22.0702 9.09341 22.4052 9.61462 22.0679 9.87267C21.7541 10.1128 22.0237 10.6066 22.3954 10.4724C22.7948 10.3282 23.0522 10.8918 22.6817 11.0992C22.3369 11.2923 22.5335 11.8194 22.9205 11.7395C23.3363 11.6536 23.5109 12.2481 23.1146 12.4007C22.7458 12.5427 22.8654 13.0924 23.2599 13.0684C23.6837 13.0426 23.7719 13.6558 23.3579 13.7505C22.9727 13.8385 23.0128 14.3997 23.4067 14.432C23.8299 14.4668 23.8299 15.0864 23.4067 15.1211C23.0128 15.1535 22.9727 15.7146 23.3579 15.8027C23.7719 15.8974 23.6837 16.5106 23.2599 16.4848C22.8654 16.4608 22.7458 17.0105 23.1146 17.1525C23.5109 17.3051 23.3363 17.8996 22.9205 17.8137C22.5335 17.7338 22.3369 18.2609 22.6817 18.4539C23.0522 18.6614 22.7948 19.2249 22.3954 19.0808C22.0237 18.9466 21.7541 19.4403 22.0679 19.6805C22.4052 19.9386 22.0702 20.4598 21.6954 20.2602C21.3466 20.0745 21.0094 20.5249 21.2859 20.8072C21.5829 21.1107 21.1772 21.5789 20.8346 21.328C20.5158 21.0946 20.118 21.4924 20.3514 21.8112C20.6023 22.1538 20.1341 22.5595 19.8306 22.2625C19.5483 21.986 19.0979 22.3231 19.2836 22.672C19.4832 23.0468 18.962 23.3818 18.7039 23.0445C18.4638 22.7307 17.97 23.0003 18.1042 23.372C18.2483 23.7714 17.6848 24.0288 17.4773 23.6583C17.2843 23.3135 16.7572 23.5101 16.8371 23.8971C16.923 24.3129 16.3285 24.4875 16.1759 24.0912C16.0339 23.7224 15.4842 23.842 15.5082 24.2365C15.534 24.6603 14.9208 24.7485 14.8261 24.3345C14.738 23.9493 14.1769 23.9894 14.1446 24.3833C14.1098 24.8065 13.4902 24.8065 13.4554 24.3833C13.4231 23.9894 12.862 23.9493 12.7739 24.3345C12.6792 24.7485 12.066 24.6603 12.0918 24.2365C12.1158 23.842 11.5661 23.7224 11.4241 24.0912C11.2715 24.4875 10.677 24.3129 10.7629 23.8971C10.8428 23.5101 10.3157 23.3135 10.1227 23.6583C9.91522 24.0288 9.35165 23.7714 9.49583 23.372C9.63 23.0003 9.13625 22.7307 8.8961 23.0445C8.63804 23.3817 8.11683 23.0468 8.31638 22.672C8.50208 22.3232 8.05173 21.986 7.76936 22.2625C7.46594 22.5595 6.99771 22.1538 7.24857 21.8112C7.48202 21.4924 7.08423 21.0946 6.7654 21.328C6.42279 21.5789 6.01706 21.1107 6.31413 20.8072C6.59058 20.5249 6.25345 20.0745 5.90463 20.2602C5.52981 20.4598 5.19485 19.9386 5.53207 19.6805C5.8459 19.4403 5.57629 18.9466 5.20459 19.0808C4.80519 19.2249 4.54781 18.6614 4.91833 18.4539C5.26313 18.2609 5.06654 17.7338 4.67954 17.8137C4.26368 17.8996 4.08913 17.3051 4.48539 17.1525C4.85416 17.0105 4.73458 16.4608 4.34014 16.4848C3.9163 16.5106 3.82812 15.8974 4.24207 15.8027C4.6273 15.7146 4.58717 15.1535 4.19333 15.1211C3.77012 15.0864 3.77012 14.4668 4.19333 14.432C4.58717 14.3997 4.6273 13.8385 4.24207 13.7505C3.82812 13.6558 3.91629 13.0426 4.34014 13.0684C4.73458 13.0924 4.85416 12.5427 4.48539 12.4007C4.08912 12.2481 4.26368 11.6536 4.67954 11.7395C5.06654 11.8194 5.26314 11.2923 4.91833 11.0992C4.54781 10.8918 4.80519 10.3282 5.20459 10.4724C5.57629 10.6066 5.8459 10.1128 5.53207 9.87267C5.19485 9.61462 5.52981 9.09341 5.90463 9.29296C6.25345 9.47866 6.59058 9.0283 6.31413 8.74594C6.01706 8.44252 6.42279 7.97428 6.7654 8.22514C7.08423 8.4586 7.48202 8.0608 7.24857 7.74197C6.99771 7.39936 7.46594 6.99363 7.76936 7.2907C8.05173 7.56715 8.50208 7.23002 8.31638 6.8812C8.11683 6.50638 8.63804 6.17142 8.8961 6.50864C9.13625 6.82247 9.63 6.55286 9.49583 6.18116C9.35165 5.78176 9.91522 5.52438 10.1227 5.8949C10.3157 6.2397 10.8428 6.04311 10.7629 5.6561C10.677 5.24024 11.2715 5.06569 11.4241 5.46196C11.5661 5.83073 12.1158 5.71115 12.0918 5.31671C12.066 4.89287 12.6792 4.80469 12.7739 5.21864C12.862 5.60387 13.4231 5.56373 13.4554 5.16989Z" fill="#0C2503"/>
<path d="M12.5273 5.92479C12.9047 6.20249 13.466 6.16235 13.8 5.83377C14.134 6.16235 14.6953 6.20249 15.0727 5.92479C15.3566 6.29757 15.9064 6.41718 16.3195 6.19601C16.5474 6.6054 17.0746 6.80204 17.515 6.6419C17.6823 7.07956 18.1762 7.34925 18.6348 7.25341C18.7382 7.71042 19.1887 8.04764 19.6563 8.01806C19.6936 8.48513 20.0914 8.88302 20.5585 8.92028C20.5289 9.3879 20.8662 9.83838 21.3232 9.94173C21.2273 10.4004 21.497 10.8943 21.9347 11.0616C21.7745 11.5019 21.9712 12.0292 22.3806 12.2571C22.1594 12.6702 22.279 13.22 22.6518 13.5039C22.3741 13.8813 22.4142 14.4426 22.7428 14.7766C22.4142 15.1106 22.3741 15.6719 22.6518 16.0493C22.279 16.3331 22.1594 16.883 22.3806 17.2961C21.9712 17.524 21.7745 18.0512 21.9347 18.4916C21.497 18.6589 21.2273 19.1528 21.3232 19.6114C20.8661 19.7148 20.5289 20.1653 20.5585 20.6329C20.0914 20.6701 19.6936 21.068 19.6563 21.5351C19.1887 21.5055 18.7382 21.8427 18.6348 22.2998C18.1762 22.2039 17.6823 22.4736 17.515 22.9113C17.0746 22.7511 16.5474 22.9478 16.3195 23.3572C15.9064 23.136 15.3566 23.2556 15.0727 23.6284C14.6953 23.3507 14.134 23.3908 13.8 23.7194C13.466 23.3908 12.9047 23.3507 12.5273 23.6284C12.2434 23.2556 11.6936 23.136 11.2805 23.3572C11.0526 22.9478 10.5254 22.7511 10.085 22.9113C9.91768 22.4736 9.4238 22.2039 8.96515 22.2998C8.8618 21.8427 8.41133 21.5055 7.94371 21.5351C7.90645 21.068 7.50855 20.6701 7.04148 20.6329C7.07107 20.1653 6.73385 19.7148 6.27684 19.6114C6.37267 19.1528 6.10299 18.6589 5.66534 18.4916C5.82547 18.0512 5.62883 17.524 5.21944 17.2961C5.44061 16.883 5.321 16.3331 4.94822 16.0493C5.22593 15.6719 5.18578 15.1106 4.8572 14.7766C5.18579 14.4426 5.22593 13.8813 4.94822 13.5039C5.321 13.22 5.44061 12.6702 5.21944 12.2571C5.62883 12.0292 5.82547 11.5019 5.66534 11.0616C6.10299 10.8943 6.37267 10.4004 6.27683 9.94173C6.73385 9.83838 7.07106 9.3879 7.04148 8.92028C7.50855 8.88302 7.90645 8.48513 7.94371 8.01805C8.41133 8.04764 8.8618 7.71042 8.96515 7.25341C9.4238 7.34924 9.91768 7.07956 10.085 6.64191C10.5254 6.80204 11.0526 6.6054 11.2805 6.19601C11.6936 6.41718 12.2434 6.29757 12.5273 5.92479Z" stroke="white" stroke-width="1.24361"/>
</g>
<defs>
<filter id="filter0_di_1115_10709" x="1.03345" y="3.64446" width="25.5332" height="26.7413" filterUnits="userSpaceOnUse" color-interpolation-filters="sRGB">
<feFlood flood-opacity="0" result="BackgroundImageFix"/>
<feColorMatrix in="SourceAlpha" type="matrix" values="0 0 0 0 0 0 0 0 0 0 0 0 0 0 0 0 0 0 127 0" result="hardAlpha"/>
<feOffset dy="2.84253"/>
<feGaussianBlur stdDeviation="1.42126"/>
<feComposite in2="hardAlpha" operator="out"/>
<feColorMatrix type="matrix" values="0 0 0 0 0 0 0 0 0 0 0 0 0 0 0 0 0 0 0.13 0"/>
<feBlend mode="normal" in2="BackgroundImageFix" result="effect1_dropShadow_1115_10709"/>
<feBlend mode="normal" in="SourceGraphic" in2="effect1_dropShadow_1115_10709" result="shape"/>
<feColorMatrix in="SourceAlpha" type="matrix" values="0 0 0 0 0 0 0 0 0 0 0 0 0 0 0 0 0 0 127 0" result="hardAlpha"/>
<feOffset dx="-2.66487" dy="-1.42126"/>
<feGaussianBlur stdDeviation="0.604037"/>
<feComposite in2="hardAlpha" operator="arithmetic" k2="-1" k3="1"/>
<feColorMatrix type="matrix" values="0 0 0 0 0 0 0 0 0 0 0 0 0 0 0 0 0 0 0.25 0"/>
<feBlend mode="normal" in2="shape" result="effect2_innerShadow_1115_10709"/>
</filter>
</defs>
</svg>
