<svg width="24" height="26" viewBox="0 0 24 26" fill="none" xmlns="http://www.w3.org/2000/svg">
<rect x="0.609863" y="0.85471" width="23.2249" height="23.2249" rx="11.6125" fill="#030A00"/>
<g filter="url(#filter0_di_1095_7559)">
<path d="M11.5794 4.46313C11.7073 3.74513 12.7373 3.74513 12.8652 4.46313C12.974 5.07344 13.7922 5.20303 14.0842 4.6562C14.4278 4.01287 15.4074 4.33116 15.3072 5.05356C15.222 5.66759 15.9601 6.0437 16.4068 5.61387C16.9324 5.10819 17.7656 5.7136 17.4471 6.36968C17.1764 6.92734 17.7621 7.51313 18.3198 7.24238C18.9759 6.92384 19.5813 7.75713 19.0756 8.28266C18.6458 8.72936 19.0219 9.46751 19.6359 9.38233C20.3583 9.28212 20.6766 10.2617 20.0333 10.6053C19.4864 10.8973 19.616 11.7155 20.2263 11.8243C20.9444 11.9522 20.9444 12.9822 20.2263 13.1101C19.616 13.2189 19.4864 14.0371 20.0333 14.3291C20.6766 14.6726 20.3583 15.6522 19.6359 15.552C19.0219 15.4669 18.6458 16.205 19.0756 16.6517C19.5813 17.1772 18.9759 18.0105 18.3198 17.692C17.7621 17.4212 17.1764 18.007 17.4471 18.5647C17.7656 19.2208 16.9324 19.8262 16.4068 19.3205C15.9601 18.8907 15.222 19.2668 15.3072 19.8808C15.4074 20.6032 14.4278 20.9215 14.0842 20.2782C13.7922 19.7313 12.974 19.8609 12.8652 20.4712C12.7373 21.1892 11.7073 21.1892 11.5794 20.4712C11.4706 19.8609 10.6524 19.7313 10.3604 20.2782C10.0169 20.9215 9.03726 20.6032 9.13747 19.8808C9.22265 19.2668 8.4845 18.8907 8.0378 19.3205C7.51227 19.8262 6.67899 19.2208 6.99752 18.5647C7.26828 18.007 6.68248 17.4212 6.12482 17.692C5.46875 18.0105 4.86333 17.1772 5.36901 16.6517C5.79884 16.205 5.42274 15.4669 4.8087 15.552C4.08631 15.6522 3.76802 14.6726 4.41135 14.3291C4.95818 14.0371 4.82859 13.2189 4.21828 13.1101C3.50028 12.9822 3.50028 11.9522 4.21828 11.8243C4.82859 11.7155 4.95818 10.8973 4.41135 10.6053C3.76802 10.2617 4.08631 9.28212 4.8087 9.38233C5.42274 9.46751 5.79884 8.72936 5.36901 8.28266C4.86333 7.75713 5.46875 6.92384 6.12482 7.24238C6.68248 7.51313 7.26828 6.92734 6.99752 6.36968C6.67899 5.7136 7.51227 5.10818 8.0378 5.61387C8.4845 6.0437 9.22265 5.66759 9.13747 5.05356C9.03726 4.33116 10.0169 4.01287 10.3604 4.6562C10.6524 5.20303 11.4706 5.07344 11.5794 4.46313Z" fill="#D6FBC4"/>
<path d="M12.0945 4.55492C12.1039 4.50209 12.1234 4.48315 12.1355 4.47382C12.1531 4.46029 12.1833 4.44787 12.2223 4.44787C12.2614 4.44787 12.2915 4.46029 12.3091 4.47382C12.3212 4.48315 12.3407 4.50209 12.3501 4.55491C12.546 5.6542 14.0198 5.88764 14.5458 4.90267C14.5711 4.85534 14.5954 4.84335 14.6098 4.83822C14.6307 4.83078 14.6633 4.82829 14.7004 4.84036C14.7376 4.85243 14.7624 4.87357 14.7749 4.89187C14.7836 4.90449 14.7963 4.92852 14.7889 4.98167C14.6355 6.08767 15.965 6.76512 16.7696 5.9909C16.8083 5.9537 16.8352 5.94983 16.8505 5.9494C16.8726 5.94878 16.9043 5.95646 16.9359 5.97942C16.9675 6.00238 16.9846 6.03016 16.9909 6.05144C16.9952 6.06611 16.9998 6.09288 16.9764 6.14115C16.4887 7.14562 17.5439 8.20076 18.5483 7.71307C18.5966 7.68963 18.6234 7.69426 18.638 7.69858C18.6593 7.70484 18.6871 7.72195 18.7101 7.75355C18.733 7.78514 18.7407 7.81685 18.7401 7.83902C18.7397 7.85431 18.7358 7.8812 18.6986 7.91987C17.9244 8.72447 18.6018 10.054 19.7078 9.9006C19.761 9.89323 19.785 9.9059 19.7976 9.91455C19.8159 9.92708 19.8371 9.95193 19.8491 9.98908C19.8612 10.0262 19.8587 10.0588 19.8513 10.0796C19.8461 10.0941 19.8341 10.1184 19.7868 10.1437C18.8018 10.6697 19.0353 12.1435 20.1346 12.3394C20.1874 12.3488 20.2063 12.3683 20.2157 12.3804C20.2292 12.398 20.2416 12.4281 20.2416 12.4672C20.2416 12.5062 20.2292 12.5364 20.2157 12.554C20.2063 12.5661 20.1874 12.5856 20.1346 12.595C19.0353 12.7909 18.8018 14.2647 19.7868 14.7907C19.8341 14.8159 19.8461 14.8403 19.8513 14.8547C19.8587 14.8756 19.8612 14.9081 19.8491 14.9453C19.8371 14.9824 19.8159 15.0073 19.7976 15.0198C19.785 15.0285 19.761 15.0411 19.7078 15.0338C18.6018 14.8803 17.9244 16.2099 18.6986 17.0145C18.7358 17.0532 18.7397 17.08 18.7401 17.0953C18.7407 17.1175 18.733 17.1492 18.7101 17.1808C18.6871 17.2124 18.6593 17.2295 18.638 17.2358C18.6234 17.2401 18.5966 17.2447 18.5483 17.2213C17.5439 16.7336 16.4887 17.7887 16.9764 18.7932C16.9999 18.8415 16.9952 18.8682 16.9909 18.8829C16.9846 18.9042 16.9675 18.932 16.9359 18.9549C16.9043 18.9779 16.8726 18.9856 16.8505 18.985C16.8352 18.9845 16.8083 18.9807 16.7696 18.9435C15.965 18.1692 14.6355 18.8467 14.7889 19.9527C14.7963 20.0058 14.7836 20.0299 14.7749 20.0425C14.7624 20.0608 14.7376 20.0819 14.7004 20.094C14.6633 20.1061 14.6307 20.1036 14.6098 20.0961C14.5954 20.091 14.5711 20.079 14.5458 20.0317C14.0198 19.0467 12.546 19.2802 12.3501 20.3794C12.3407 20.4323 12.3212 20.4512 12.3091 20.4605C12.2915 20.4741 12.2614 20.4865 12.2223 20.4865C12.1833 20.4865 12.1531 20.4741 12.1355 20.4605C12.1234 20.4512 12.1039 20.4323 12.0945 20.3794C11.8986 19.2802 10.4248 19.0467 9.89884 20.0317C9.87357 20.079 9.84919 20.091 9.83479 20.0961C9.81389 20.1036 9.78136 20.1061 9.74422 20.094C9.70707 20.0819 9.68222 20.0608 9.66969 20.0425C9.66104 20.0299 9.64837 20.0058 9.65574 19.9527C9.80916 18.8467 8.47961 18.1692 7.675 18.9435C7.63634 18.9807 7.60946 18.9845 7.59417 18.985C7.572 18.9856 7.54029 18.9779 7.50869 18.9549C7.47709 18.932 7.45999 18.9042 7.45372 18.8829C7.44941 18.8682 7.44478 18.8415 7.46821 18.7932C7.9559 17.7887 6.90076 16.7336 5.89629 17.2213C5.84802 17.2447 5.82125 17.2401 5.80658 17.2358C5.78531 17.2295 5.75752 17.2124 5.73457 17.1808C5.71161 17.1492 5.70393 17.1175 5.70455 17.0953C5.70497 17.08 5.70884 17.0532 5.74605 17.0145C6.52026 16.2099 5.84283 14.8803 4.73681 15.0338C4.68366 15.0411 4.65964 15.0285 4.64702 15.0198C4.62872 15.0073 4.60758 14.9824 4.59551 14.9453C4.58344 14.9081 4.58593 14.8756 4.59337 14.8547C4.5985 14.8403 4.61049 14.8159 4.65782 14.7907C5.64278 14.2647 5.40935 12.7909 4.31006 12.595C4.25724 12.5856 4.2383 12.5661 4.22897 12.554C4.21544 12.5364 4.20302 12.5062 4.20302 12.4672C4.20302 12.4281 4.21544 12.398 4.22897 12.3804C4.2383 12.3683 4.25724 12.3488 4.31006 12.3394C5.40935 12.1435 5.64278 10.6697 4.65782 10.1437C4.61049 10.1184 4.5985 10.0941 4.59337 10.0796C4.58593 10.0588 4.58344 10.0262 4.59551 9.98908C4.60758 9.95193 4.62872 9.92708 4.64702 9.91455C4.65963 9.9059 4.68366 9.89323 4.73681 9.90061C5.84282 10.054 6.52026 8.72447 5.74605 7.91987C5.70884 7.8812 5.70497 7.85431 5.70455 7.83902C5.70393 7.81685 5.71161 7.78514 5.73457 7.75355C5.75752 7.72195 5.78531 7.70484 5.80658 7.69858C5.82125 7.69426 5.84802 7.68963 5.89629 7.71307C6.90076 8.20076 7.9559 7.14562 7.46821 6.14115C7.44478 6.09288 7.44941 6.06611 7.45372 6.05144C7.45999 6.03016 7.47709 6.00238 7.50869 5.97942C7.54029 5.95646 7.572 5.94878 7.59417 5.9494C7.60945 5.94983 7.63634 5.9537 7.67501 5.9909C8.47961 6.76512 9.80916 6.08768 9.65574 4.98166C9.64837 4.92852 9.66105 4.90449 9.66969 4.89187C9.68222 4.87357 9.70707 4.85243 9.74422 4.84036C9.78136 4.82829 9.81389 4.83078 9.83479 4.83822C9.84919 4.84335 9.87357 4.85534 9.89884 4.90267C10.4248 5.88764 11.8986 5.6542 12.0945 4.55492Z" stroke="white" stroke-width="1.04647"/>
</g>
<defs>
<filter id="filter0_di_1095_7559" x="1.28775" y="2.90806" width="21.8688" height="22.8855" filterUnits="userSpaceOnUse" color-interpolation-filters="sRGB">
<feFlood flood-opacity="0" result="BackgroundImageFix"/>
<feColorMatrix in="SourceAlpha" type="matrix" values="0 0 0 0 0 0 0 0 0 0 0 0 0 0 0 0 0 0 127 0" result="hardAlpha"/>
<feOffset dy="2.39194"/>
<feGaussianBlur stdDeviation="1.19597"/>
<feComposite in2="hardAlpha" operator="out"/>
<feColorMatrix type="matrix" values="0 0 0 0 0 0 0 0 0 0 0 0 0 0 0 0 0 0 0.13 0"/>
<feBlend mode="normal" in2="BackgroundImageFix" result="effect1_dropShadow_1095_7559"/>
<feBlend mode="normal" in="SourceGraphic" in2="effect1_dropShadow_1095_7559" result="shape"/>
<feColorMatrix in="SourceAlpha" type="matrix" values="0 0 0 0 0 0 0 0 0 0 0 0 0 0 0 0 0 0 127 0" result="hardAlpha"/>
<feOffset dx="-2.24244" dy="-1.19597"/>
<feGaussianBlur stdDeviation="0.508287"/>
<feComposite in2="hardAlpha" operator="arithmetic" k2="-1" k3="1"/>
<feColorMatrix type="matrix" values="0 0 0 0 0 0 0 0 0 0 0 0 0 0 0 0 0 0 0.25 0"/>
<feBlend mode="normal" in2="shape" result="effect2_innerShadow_1095_7559"/>
</filter>
</defs>
</svg>
