<svg width="24" height="26" viewBox="0 0 24 26" fill="none" xmlns="http://www.w3.org/2000/svg">
<rect x="0.354004" y="0.85471" width="23.2249" height="23.2249" rx="11.6125" fill="#030A00"/>
<g filter="url(#filter0_di_1095_7551)">
<path d="M10.2794 5.00669C10.8946 3.49265 13.0383 3.49265 13.6535 5.00669V5.00669C14.0358 5.94734 15.1134 6.39373 16.0489 5.99886V5.99886C17.5545 5.36329 19.0703 6.87917 18.4348 8.38477V8.38477C18.0399 9.32019 18.4863 10.3979 19.4269 10.7801V10.7801C20.941 11.3953 20.941 13.5391 19.4269 14.1543V14.1543C18.4863 14.5365 18.0399 15.6142 18.4348 16.5496V16.5496C19.0703 18.0552 17.5545 19.5711 16.0489 18.9355V18.9355C15.1134 18.5406 14.0358 18.987 13.6535 19.9277V19.9277C13.0383 21.4417 10.8946 21.4417 10.2794 19.9277V19.9277C9.89714 18.987 8.81947 18.5406 7.88405 18.9355V18.9355C6.37845 19.5711 4.86258 18.0552 5.49814 16.5496V16.5496C5.89302 15.6142 5.44663 14.5365 4.50597 14.1543V14.1543C2.99194 13.5391 2.99194 11.3953 4.50597 10.7801V10.7801C5.44663 10.3979 5.89302 9.32019 5.49814 8.38477V8.38477C4.86258 6.87917 6.37845 5.36329 7.88405 5.99886V5.99886C8.81947 6.39373 9.89714 5.94734 10.2794 5.00669V5.00669Z" fill="#D6FBC4"/>
<path d="M7.68056 6.4809C8.88475 6.98923 10.2721 6.41459 10.7641 5.20366C11.2025 4.12465 12.7304 4.12465 13.1688 5.20366C13.6608 6.41459 15.0482 6.98923 16.2523 6.4809C17.3253 6.02795 18.4057 7.10828 17.9527 8.18128C17.4444 9.38547 18.019 10.7728 19.23 11.2648C20.309 11.7033 20.309 13.2311 19.23 13.6695C18.019 14.1616 17.4444 15.5489 17.9527 16.7531C18.4057 17.8261 17.3253 18.9064 16.2523 18.4535C15.0482 17.9451 13.6608 18.5198 13.1688 19.7307C12.7304 20.8097 11.2025 20.8097 10.7641 19.7307C10.2721 18.5198 8.88475 17.9451 7.68056 18.4535C6.60757 18.9064 5.52724 17.8261 5.98019 16.7531C6.48852 15.5489 5.91387 14.1616 4.70294 13.6695C3.62393 13.2311 3.62393 11.7033 4.70294 11.2648C5.91387 10.7728 6.48852 9.38547 5.98019 8.18128C5.52724 7.10828 6.60757 6.02795 7.68056 6.4809Z" stroke="white" stroke-width="1.04647"/>
</g>
<defs>
<filter id="filter0_di_1095_7551" x="0.978668" y="2.85459" width="21.9758" height="22.9925" filterUnits="userSpaceOnUse" color-interpolation-filters="sRGB">
<feFlood flood-opacity="0" result="BackgroundImageFix"/>
<feColorMatrix in="SourceAlpha" type="matrix" values="0 0 0 0 0 0 0 0 0 0 0 0 0 0 0 0 0 0 127 0" result="hardAlpha"/>
<feOffset dy="2.39194"/>
<feGaussianBlur stdDeviation="1.19597"/>
<feComposite in2="hardAlpha" operator="out"/>
<feColorMatrix type="matrix" values="0 0 0 0 0 0 0 0 0 0 0 0 0 0 0 0 0 0 0.13 0"/>
<feBlend mode="normal" in2="BackgroundImageFix" result="effect1_dropShadow_1095_7551"/>
<feBlend mode="normal" in="SourceGraphic" in2="effect1_dropShadow_1095_7551" result="shape"/>
<feColorMatrix in="SourceAlpha" type="matrix" values="0 0 0 0 0 0 0 0 0 0 0 0 0 0 0 0 0 0 127 0" result="hardAlpha"/>
<feOffset dx="-2.24244" dy="-1.19597"/>
<feGaussianBlur stdDeviation="0.508287"/>
<feComposite in2="hardAlpha" operator="arithmetic" k2="-1" k3="1"/>
<feColorMatrix type="matrix" values="0 0 0 0 0 0 0 0 0 0 0 0 0 0 0 0 0 0 0.25 0"/>
<feBlend mode="normal" in2="shape" result="effect2_innerShadow_1095_7551"/>
</filter>
</defs>
</svg>
