<svg width="68" height="67" viewBox="0 0 68 67" fill="none" xmlns="http://www.w3.org/2000/svg">
<rect x="0.811035" y="10.0137" width="57.7695" height="57.7695" rx="28.8847" transform="rotate(-9.5741 0.811035 10.0137)" fill="#EDFAE7"/>
<g filter="url(#filter0_di_2163_23688)">
<path d="M22.4879 22.2073C25.5941 14.4501 35.821 12.7251 41.2998 19.0342C42.4642 20.375 43.9347 21.4211 45.5833 22.0812C53.3404 25.1874 55.0654 35.4143 48.7563 40.8931C47.4155 42.0575 46.3695 43.528 45.7093 45.1766C42.6031 52.9337 32.3762 54.6587 26.8974 48.3496C25.7331 47.0088 24.2626 45.9628 22.614 45.3026C14.8569 42.1964 13.1319 31.9695 19.4409 26.4907C20.7818 25.3263 21.8278 23.8558 22.4879 22.2073Z" fill="#D6FBC4"/>
<path d="M23.6962 22.6911C26.4404 15.838 35.4769 14.3138 40.3171 19.8876C41.6172 21.3847 43.2587 22.5524 45.0995 23.2894C51.9525 26.0336 53.4767 35.0702 47.903 39.9104C46.4059 41.2105 45.2382 42.852 44.5011 44.6928C41.7569 51.5458 32.7204 53.07 27.8801 47.4963C26.58 45.9992 24.9385 44.8315 23.0978 44.0944C16.2448 41.3502 14.7206 32.3136 20.2943 27.4734C21.7914 26.1733 22.9591 24.5318 23.6962 22.6911Z" stroke="#0C2503" stroke-width="2.603"/>
</g>
<path fill-rule="evenodd" clip-rule="evenodd" d="M37.9002 37.9677C37.3849 37.7606 36.9388 37.588 36.5528 37.4302C36.32 37.3369 36.1092 37.2495 35.9159 37.1629L35.8535 37.135L35.8311 37.1273L35.7033 37.0758C34.009 36.4066 33.6126 35.3897 33.009 34.01C32.7318 33.3803 32.5852 32.329 32.6403 31.6414C32.7598 30.1397 32.8006 29.0491 34.1817 27.8611L34.2859 27.7724L34.3045 27.7577L34.3561 27.7106C34.5107 27.5673 34.6826 27.4134 34.8702 27.2492C35.1849 26.9732 35.5478 26.6641 35.9685 26.2992C37.2522 25.1833 38.4383 24.1608 38.2565 26.4321C38.137 27.9337 38.0961 29.0244 36.7154 30.2142L36.6112 30.3029L36.5925 30.3176L36.5409 30.3647C36.3864 30.508 36.2163 30.6616 36.0269 30.8261C35.7122 31.1021 35.3493 31.4112 34.9304 31.7758C33.6467 32.8917 33.5631 32.5099 35.1293 33.1373C35.6446 33.3444 36.0907 33.5171 36.4767 33.6749C36.7095 33.7682 36.9203 33.8556 37.1136 33.9421L37.1778 33.9697L37.2002 33.9775L37.3277 34.0271C39.0224 34.6982 39.4166 35.7135 40.0239 37.0926C40.9388 39.1788 39.4829 38.602 37.9042 37.969L37.9002 37.9677ZM27.9129 29.4181C28.0123 30.0527 28.0931 30.6002 28.1697 31.0772C28.2161 31.3634 29.1549 36.9409 29.1993 37.1813L29.2144 37.2595L29.2191 37.2875L29.2434 37.4429C29.5602 39.5262 30.4815 40.2605 31.7153 41.3322C33.5834 42.9521 33.3102 41.1612 33.0052 39.2161C32.9058 38.5815 32.825 38.034 32.7484 37.5569C32.702 37.2707 31.7632 31.6932 31.7169 31.4532L31.7018 31.375L31.6971 31.347L31.6728 31.1916C31.356 29.1083 30.4347 28.374 29.2009 27.3023C27.3328 25.6824 27.606 27.4733 27.911 29.4184L27.9129 29.4181Z" fill="#0C2503"/>
<defs>
<filter id="filter0_di_2163_23688" x="9.64453" y="12.6589" width="48.9082" height="51.4368" filterUnits="userSpaceOnUse" color-interpolation-filters="sRGB">
<feFlood flood-opacity="0" result="BackgroundImageFix"/>
<feColorMatrix in="SourceAlpha" type="matrix" values="0 0 0 0 0 0 0 0 0 0 0 0 0 0 0 0 0 0 127 0" result="hardAlpha"/>
<feOffset dy="5.94971"/>
<feGaussianBlur stdDeviation="2.97486"/>
<feComposite in2="hardAlpha" operator="out"/>
<feColorMatrix type="matrix" values="0 0 0 0 0 0 0 0 0 0 0 0 0 0 0 0 0 0 0.13 0"/>
<feBlend mode="normal" in2="BackgroundImageFix" result="effect1_dropShadow_2163_23688"/>
<feBlend mode="normal" in="SourceGraphic" in2="effect1_dropShadow_2163_23688" result="shape"/>
<feColorMatrix in="SourceAlpha" type="matrix" values="0 0 0 0 0 0 0 0 0 0 0 0 0 0 0 0 0 0 127 0" result="hardAlpha"/>
<feOffset dx="-5.57785" dy="-2.97486"/>
<feGaussianBlur stdDeviation="1.26431"/>
<feComposite in2="hardAlpha" operator="arithmetic" k2="-1" k3="1"/>
<feColorMatrix type="matrix" values="0 0 0 0 0 0 0 0 0 0 0 0 0 0 0 0 0 0 0.25 0"/>
<feBlend mode="normal" in2="shape" result="effect2_innerShadow_2163_23688"/>
</filter>
</defs>
</svg>
