<svg width="263" height="262" viewBox="0 0 263 262" fill="none" xmlns="http://www.w3.org/2000/svg">
<path d="M233.657 80.1318C236.285 91.3035 228.289 103.43 215.791 105.266C213.129 111.562 195.887 150.527 152.204 165.199C122.779 175.084 86.7258 172.14 60.7847 152.82C54.3818 148.051 49.7537 143.149 46.6916 139.501C32.955 143.392 19.3953 134.274 17.4946 121.994C15.7854 110.948 23.8029 99.2506 36.3176 96.8311C39.5712 89.1312 55.1407 54.6053 92.8062 40.3425C122.59 29.0642 149.627 36.7277 162.382 40.3425C184.643 46.6532 200.469 57.5921 209.42 64.829C220.655 62.8628 231.269 69.9905 233.657 80.1318Z" fill="#CC7914" stroke="black" stroke-width="2.4244" stroke-miterlimit="10"/>
<path d="M85.168 64.7707L103.957 49.3127" stroke="black" stroke-width="2.4244" stroke-miterlimit="10" stroke-linecap="round"/>
<path d="M79.9922 163.556V249.103H170.757V156.779C170.755 156.779 118.21 184.095 79.9922 163.556Z" fill="#FF5555" stroke="black" stroke-width="3.6366" stroke-miterlimit="10" stroke-linecap="round"/>
<path d="M162.379 49.3127L179.481 64.7707" stroke="black" stroke-width="2.4244" stroke-miterlimit="10" stroke-linecap="round"/>
<path d="M158.976 133.314C160.62 128.426 153.306 122.53 151.945 121.434C145.751 116.44 138.769 115.895 134.49 115.616C128.785 115.245 117.783 114.532 112.185 121.677C109.53 125.064 107.593 130.856 110.003 134.284C113.191 138.82 122.365 136.912 123.337 136.708C129.495 135.426 130.177 132.349 134.49 132.587C139.445 132.861 139.998 137.002 145.642 138.163C150.757 139.215 157.631 137.317 158.976 133.314Z" fill="#0A0B0A"/>
<path d="M146.386 122.772C146.08 124.256 140.099 125.083 116.992 122.772C118.178 121.732 124.302 116.573 133.294 117.196C139.825 117.647 146.735 121.073 146.386 122.772Z" fill="#FAFAFA"/>
<path d="M73.7031 110.978C78.8453 110.018 83.9899 109.055 89.132 108.095C88.1404 107.368 79.6332 100.907 79.7156 90.5278C79.7981 80.0617 88.5841 69.4355 100.808 69.4355C112.998 69.4355 121.832 80.0059 121.9 90.5278C121.971 101.343 112.751 107.884 111.88 108.483" fill="#FAFAFA"/>
<path d="M73.7031 110.978C78.8453 110.018 83.9899 109.055 89.132 108.095C88.1404 107.368 79.6332 100.907 79.7156 90.5278C79.7981 80.0617 88.5841 69.4355 100.808 69.4355C112.998 69.4355 121.832 80.0059 121.9 90.5278C121.971 101.343 112.751 107.884 111.88 108.483" stroke="black" stroke-width="2.4244" stroke-miterlimit="10" stroke-linecap="round"/>
<path d="M196.573 109.28C191.43 108.32 186.286 107.358 181.144 106.398C182.135 105.67 190.642 99.2094 190.56 88.8306C190.478 78.3644 181.692 67.7383 169.468 67.7383C157.278 67.7383 148.443 78.3087 148.375 88.8306C148.305 99.6458 157.525 106.187 158.395 106.786" fill="#FAFAFA"/>
<path d="M196.573 109.28C191.43 108.32 186.286 107.358 181.144 106.398C182.135 105.67 190.642 99.2094 190.56 88.8306C190.478 78.3644 181.692 67.7383 169.468 67.7383C157.278 67.7383 148.443 78.3087 148.375 88.8306C148.305 99.6458 157.525 106.187 158.395 106.786" stroke="black" stroke-width="2.4244" stroke-miterlimit="10" stroke-linecap="round"/>
<path d="M99.1099 98.5282C103.528 98.5282 107.11 94.9462 107.11 90.5276C107.11 86.1091 103.528 82.5271 99.1099 82.5271C94.6913 82.5271 91.1094 86.1091 91.1094 90.5276C91.1094 94.9462 94.6913 98.5282 99.1099 98.5282Z" fill="#0A0B0A"/>
<path d="M168.692 98.5282C173.111 98.5282 176.692 94.9462 176.692 90.5276C176.692 86.1091 173.111 82.5271 168.692 82.5271C164.273 82.5271 160.691 86.1091 160.691 90.5276C160.691 94.9462 164.273 98.5282 168.692 98.5282Z" fill="#0A0B0A"/>
<path d="M113.542 109.494C113.542 109.494 91.3808 102.349 75.707 120.198" stroke="black" stroke-width="2.4244" stroke-miterlimit="10" stroke-linecap="round"/>
<path d="M154.832 109.438C154.832 109.438 176.002 100.281 193.661 115.286" stroke="black" stroke-width="2.4244" stroke-miterlimit="10" stroke-linecap="round"/>
<path d="M117.196 173.011C117.065 175.086 131.006 180.487 144.16 176.271C155.71 172.569 163.468 162.477 162.324 160.867C161.434 159.616 155.548 164.001 142.633 167.827C126.717 172.538 117.303 171.318 117.196 173.011Z" fill="#CC7914" stroke="black" stroke-width="3.6366" stroke-miterlimit="10" stroke-linecap="round"/>
<path d="M108.918 194.99V249.103" stroke="black" stroke-width="3.6366" stroke-miterlimit="10" stroke-linecap="round"/>
<path d="M125.707 131.801C125.707 131.801 134.622 125.192 142.501 131.801" stroke="#B30000" stroke-width="3.6366" stroke-miterlimit="10" stroke-linecap="round"/>
</svg>
