<svg width="344" height="90" viewBox="0 0 344 90" fill="none" xmlns="http://www.w3.org/2000/svg">
<g clip-path="url(#clip0_1645_7113)">
<path d="M64.0956 0.904785H24.9249C11.1808 0.904785 0.0390625 12.0466 0.0390625 25.7906V64.9613C0.0390625 78.7054 11.1808 89.8471 24.9249 89.8471H64.0956C77.8396 89.8471 88.9814 78.7054 88.9814 64.9613V25.7906C88.9814 12.0466 77.8396 0.904785 64.0956 0.904785Z" fill="#8C77EC"/>
<path fill-rule="evenodd" clip-rule="evenodd" d="M54.9384 62.0202C53.3085 61.0227 51.8937 60.1817 50.6745 59.4254C49.9378 58.9755 49.2728 58.5583 48.6664 58.154L48.4708 58.0236L48.3991 57.9845L47.9949 57.7368C42.6292 54.4965 41.8664 50.8193 40.608 45.7926C40.0278 43.4976 40.1321 39.8466 40.7124 37.5451C41.9772 32.5184 42.74 28.8413 48.1057 25.601L48.51 25.3597L48.5817 25.3206L48.7838 25.1902C49.3901 24.7925 50.0617 24.3687 50.7919 23.9189C52.0176 23.1626 53.4259 22.3215 55.0623 21.324C60.0564 18.2728 64.6659 15.4823 62.7491 23.0843C61.4843 28.1111 60.7215 31.7882 55.3557 35.035L54.9515 35.2763L54.8798 35.3154L54.6776 35.4458C54.0713 35.8435 53.4063 36.2673 52.6696 36.7171C51.4439 37.4734 50.0356 38.3144 48.4057 39.312C43.4115 42.3632 43.3463 41.0201 48.3013 44.0453C49.9313 45.0428 51.3461 45.8839 52.5653 46.6402C53.302 47.09 53.967 47.5073 54.5733 47.9115L54.7754 48.0419L54.8472 48.081L55.2514 48.3223C60.6171 51.5691 61.3734 55.2397 62.6448 60.2664C64.5551 67.8685 59.9456 65.078 54.9515 62.0268L54.9384 62.0202ZM25.9451 27.2961C25.9191 29.5063 25.8799 31.41 25.8669 33.0726C25.8604 34.0701 25.8539 53.5315 25.8669 54.3726L25.8734 54.6464V54.7442L25.8669 55.2853C25.7495 62.5353 28.4552 65.5539 32.0281 69.8961C37.4394 76.4615 37.5372 70.2286 37.6155 63.4546C37.6416 61.2444 37.6807 59.3406 37.6937 57.6781C37.7002 56.6806 37.7068 37.2191 37.6872 36.3781L37.6807 36.1043V36.0065L37.6872 35.4653C37.8046 28.2154 35.0989 25.1967 31.526 20.8546C26.1147 14.2892 26.0169 20.5221 25.9386 27.2961H25.9451Z" fill="white"/>
</g>
<mask id="path-3-outside-1_1645_7113" maskUnits="userSpaceOnUse" x="117.867" y="8.83301" width="226" height="73" fill="black">
<rect fill="white" x="117.867" y="8.83301" width="226" height="73"/>
<path d="M142.359 28.833C143.022 28.833 143.56 29.3706 143.56 30.0336V42.3858C143.56 43.5317 145.012 44.0263 145.711 43.1188L156.363 29.3006C156.59 29.0058 156.941 28.833 157.314 28.833H160.988C161.986 28.833 162.548 29.9806 161.936 30.7695L153.174 42.0668C152.873 42.4542 152.838 42.9855 153.086 43.4087L162.515 59.535C162.983 60.3354 162.406 61.3416 161.479 61.3416H157.68C157.253 61.3416 156.858 61.1144 156.643 60.7449L149.833 49.0444C149.406 48.3101 148.372 48.2398 147.849 48.9095L143.814 54.0784C143.649 54.2895 143.56 54.5495 143.56 54.8172V60.141C143.56 60.8041 143.022 61.3416 142.359 61.3416H139.068C138.405 61.3416 137.867 60.8041 137.867 60.141V30.0336C137.867 29.3706 138.405 28.833 139.068 28.833H142.359Z"/>
<path d="M164.093 50.3127C164.093 43.4641 169.029 38.7501 175.833 38.7501C182.637 38.7501 187.574 43.4641 187.574 50.3127C187.574 57.1613 182.637 61.8753 175.833 61.8753C169.029 61.8753 164.093 57.1613 164.093 50.3127ZM169.518 50.3127C169.518 54.3152 172.098 57.0279 175.833 57.0279C179.569 57.0279 182.148 54.3152 182.148 50.3127C182.148 46.3103 179.569 43.5975 175.833 43.5975C172.098 43.5975 169.518 46.3103 169.518 50.3127Z"/>
<path d="M197.3 60.141C197.3 60.8041 196.762 61.3416 196.099 61.3416H193.075C192.412 61.3416 191.874 60.8041 191.874 60.141V40.5734C191.874 39.9103 192.412 39.3727 193.075 39.3727H196.206C196.605 39.3727 196.945 39.6637 197.007 40.0583C197.123 40.8013 198.201 41.0615 198.78 40.582C200.238 39.3755 202.223 38.7057 204.371 38.7057C209.885 38.7057 212.731 42.13 212.731 47.8223V60.141C212.731 60.8041 212.194 61.3416 211.531 61.3416H208.507C207.843 61.3416 207.306 60.8041 207.306 60.141V49.112C207.306 45.4209 205.483 43.642 202.681 43.642C199.346 43.642 197.3 45.9545 197.3 49.5122V60.141Z"/>
<path d="M216.205 55.8669C216.1 55.2122 216.649 54.6709 217.312 54.6709H220.097C220.749 54.6709 221.251 55.2108 221.493 55.8164C221.987 57.0502 223.281 57.7839 225.228 57.7839C227.763 57.7839 229.142 56.7611 229.142 55.1601C229.142 54.0483 228.564 53.2478 226.607 52.8031L222.649 51.8692C218.691 50.9798 216.779 49.112 216.779 45.5987C216.779 41.285 220.425 38.7057 225.495 38.7057C229.95 38.7057 233.101 41.0235 233.706 44.6133C233.817 45.272 233.266 45.8211 232.598 45.8211H229.825C229.173 45.8211 228.67 45.2844 228.446 44.6721C228.008 43.4755 226.895 42.7526 225.273 42.7526C223.138 42.7526 221.893 43.7309 221.893 45.3764C221.893 46.6216 222.871 47.4221 224.739 47.8668L228.697 48.8007C232.388 49.6457 234.256 51.3356 234.256 54.7154C234.256 59.1625 230.476 61.9198 225.05 61.9198C220.102 61.9198 216.792 59.5181 216.205 55.8669Z"/>
<path d="M253.285 40.5734C253.285 39.9103 253.822 39.3727 254.485 39.3727H257.51C258.173 39.3727 258.71 39.9103 258.71 40.5734V60.141C258.71 60.8041 258.173 61.3416 257.51 61.3416H254.404C253.992 61.3416 253.644 61.0374 253.588 60.6294C253.484 59.8698 252.372 59.5731 251.768 60.0452C250.284 61.2053 248.249 61.9198 246.169 61.9198C241.1 61.9198 238.12 58.4955 238.12 53.1144V40.5734C238.12 39.9103 238.658 39.3727 239.321 39.3727H242.345C243.008 39.3727 243.546 39.9103 243.546 40.5734V51.2022C243.546 55.3825 245.191 57.0724 248.215 57.0724C251.639 57.0724 253.285 55.0712 253.285 50.8909V40.5734Z"/>
<path d="M269.74 60.141C269.74 60.8041 269.202 61.3416 268.539 61.3416H265.515C264.852 61.3416 264.314 60.8041 264.314 60.141V40.5734C264.314 39.9103 264.852 39.3727 265.515 39.3727H268.666C269.029 39.3727 269.34 39.6344 269.402 39.9925C269.519 40.672 270.505 40.8968 271.031 40.451C272.265 39.4049 274.019 38.7057 276.232 38.7057C278.466 38.7057 280.241 39.4435 281.517 40.6921C282.258 41.4178 283.818 41.4188 284.575 40.7091C285.918 39.4502 287.82 38.7057 290.063 38.7057C295.4 38.7057 298.335 41.9076 298.335 46.9774V60.141C298.335 60.8041 297.797 61.3416 297.134 61.3416H294.154C293.491 61.3416 292.954 60.8041 292.954 60.141V48.4004C292.954 45.243 291.264 43.5975 288.684 43.5975C286.061 43.5975 284.059 45.2874 284.059 48.8896V60.141C284.059 60.8041 283.522 61.3416 282.859 61.3416H279.835C279.171 61.3416 278.634 60.8041 278.634 60.141V48.356C278.634 45.2874 276.988 43.642 274.409 43.642C271.83 43.642 269.74 45.3319 269.74 48.8896V60.141Z"/>
<path d="M313.489 61.9198C306.952 61.9198 302.371 57.1613 302.371 50.3572C302.371 43.4641 306.863 38.7057 313.311 38.7057C319.893 38.7057 324.073 43.1083 324.073 49.9569V50.405C324.073 51.0668 323.538 51.6038 322.876 51.6056L308.858 51.6433C308.147 51.6452 307.584 52.2646 307.745 52.9568C308.443 55.9572 310.408 57.4726 313.578 57.4726C316.138 57.4726 317.944 56.6188 318.796 55.0523C319.05 54.5858 319.501 54.2262 320.032 54.2262H322.706C323.461 54.2262 324.033 54.9195 323.783 55.6319C322.396 59.5875 318.642 61.9198 313.489 61.9198ZM313.356 43.1528C310.632 43.1528 308.809 44.4078 307.997 46.8082C307.76 47.5089 308.335 48.1781 309.074 48.1781H317.492C318.155 48.1781 318.708 47.6341 318.575 46.9847C318.092 44.6388 316.153 43.1528 313.356 43.1528Z"/>
</mask>
<path d="M142.359 28.833C143.022 28.833 143.56 29.3706 143.56 30.0336V42.3858C143.56 43.5317 145.012 44.0263 145.711 43.1188L156.363 29.3006C156.59 29.0058 156.941 28.833 157.314 28.833H160.988C161.986 28.833 162.548 29.9806 161.936 30.7695L153.174 42.0668C152.873 42.4542 152.838 42.9855 153.086 43.4087L162.515 59.535C162.983 60.3354 162.406 61.3416 161.479 61.3416H157.68C157.253 61.3416 156.858 61.1144 156.643 60.7449L149.833 49.0444C149.406 48.3101 148.372 48.2398 147.849 48.9095L143.814 54.0784C143.649 54.2895 143.56 54.5495 143.56 54.8172V60.141C143.56 60.8041 143.022 61.3416 142.359 61.3416H139.068C138.405 61.3416 137.867 60.8041 137.867 60.141V30.0336C137.867 29.3706 138.405 28.833 139.068 28.833H142.359Z" fill="#0C2503"/>
<path d="M164.093 50.3127C164.093 43.4641 169.029 38.7501 175.833 38.7501C182.637 38.7501 187.574 43.4641 187.574 50.3127C187.574 57.1613 182.637 61.8753 175.833 61.8753C169.029 61.8753 164.093 57.1613 164.093 50.3127ZM169.518 50.3127C169.518 54.3152 172.098 57.0279 175.833 57.0279C179.569 57.0279 182.148 54.3152 182.148 50.3127C182.148 46.3103 179.569 43.5975 175.833 43.5975C172.098 43.5975 169.518 46.3103 169.518 50.3127Z" fill="#0C2503"/>
<path d="M197.3 60.141C197.3 60.8041 196.762 61.3416 196.099 61.3416H193.075C192.412 61.3416 191.874 60.8041 191.874 60.141V40.5734C191.874 39.9103 192.412 39.3727 193.075 39.3727H196.206C196.605 39.3727 196.945 39.6637 197.007 40.0583C197.123 40.8013 198.201 41.0615 198.78 40.582C200.238 39.3755 202.223 38.7057 204.371 38.7057C209.885 38.7057 212.731 42.13 212.731 47.8223V60.141C212.731 60.8041 212.194 61.3416 211.531 61.3416H208.507C207.843 61.3416 207.306 60.8041 207.306 60.141V49.112C207.306 45.4209 205.483 43.642 202.681 43.642C199.346 43.642 197.3 45.9545 197.3 49.5122V60.141Z" fill="#0C2503"/>
<path d="M216.205 55.8669C216.1 55.2122 216.649 54.6709 217.312 54.6709H220.097C220.749 54.6709 221.251 55.2108 221.493 55.8164C221.987 57.0502 223.281 57.7839 225.228 57.7839C227.763 57.7839 229.142 56.7611 229.142 55.1601C229.142 54.0483 228.564 53.2478 226.607 52.8031L222.649 51.8692C218.691 50.9798 216.779 49.112 216.779 45.5987C216.779 41.285 220.425 38.7057 225.495 38.7057C229.95 38.7057 233.101 41.0235 233.706 44.6133C233.817 45.272 233.266 45.8211 232.598 45.8211H229.825C229.173 45.8211 228.67 45.2844 228.446 44.6721C228.008 43.4755 226.895 42.7526 225.273 42.7526C223.138 42.7526 221.893 43.7309 221.893 45.3764C221.893 46.6216 222.871 47.4221 224.739 47.8668L228.697 48.8007C232.388 49.6457 234.256 51.3356 234.256 54.7154C234.256 59.1625 230.476 61.9198 225.05 61.9198C220.102 61.9198 216.792 59.5181 216.205 55.8669Z" fill="#0C2503"/>
<path d="M253.285 40.5734C253.285 39.9103 253.822 39.3727 254.485 39.3727H257.51C258.173 39.3727 258.71 39.9103 258.71 40.5734V60.141C258.71 60.8041 258.173 61.3416 257.51 61.3416H254.404C253.992 61.3416 253.644 61.0374 253.588 60.6294C253.484 59.8698 252.372 59.5731 251.768 60.0452C250.284 61.2053 248.249 61.9198 246.169 61.9198C241.1 61.9198 238.12 58.4955 238.12 53.1144V40.5734C238.12 39.9103 238.658 39.3727 239.321 39.3727H242.345C243.008 39.3727 243.546 39.9103 243.546 40.5734V51.2022C243.546 55.3825 245.191 57.0724 248.215 57.0724C251.639 57.0724 253.285 55.0712 253.285 50.8909V40.5734Z" fill="#0C2503"/>
<path d="M269.74 60.141C269.74 60.8041 269.202 61.3416 268.539 61.3416H265.515C264.852 61.3416 264.314 60.8041 264.314 60.141V40.5734C264.314 39.9103 264.852 39.3727 265.515 39.3727H268.666C269.029 39.3727 269.34 39.6344 269.402 39.9925C269.519 40.672 270.505 40.8968 271.031 40.451C272.265 39.4049 274.019 38.7057 276.232 38.7057C278.466 38.7057 280.241 39.4435 281.517 40.6921C282.258 41.4178 283.818 41.4188 284.575 40.7091C285.918 39.4502 287.82 38.7057 290.063 38.7057C295.4 38.7057 298.335 41.9076 298.335 46.9774V60.141C298.335 60.8041 297.797 61.3416 297.134 61.3416H294.154C293.491 61.3416 292.954 60.8041 292.954 60.141V48.4004C292.954 45.243 291.264 43.5975 288.684 43.5975C286.061 43.5975 284.059 45.2874 284.059 48.8896V60.141C284.059 60.8041 283.522 61.3416 282.859 61.3416H279.835C279.171 61.3416 278.634 60.8041 278.634 60.141V48.356C278.634 45.2874 276.988 43.642 274.409 43.642C271.83 43.642 269.74 45.3319 269.74 48.8896V60.141Z" fill="#0C2503"/>
<path d="M313.489 61.9198C306.952 61.9198 302.371 57.1613 302.371 50.3572C302.371 43.4641 306.863 38.7057 313.311 38.7057C319.893 38.7057 324.073 43.1083 324.073 49.9569V50.405C324.073 51.0668 323.538 51.6038 322.876 51.6056L308.858 51.6433C308.147 51.6452 307.584 52.2646 307.745 52.9568C308.443 55.9572 310.408 57.4726 313.578 57.4726C316.138 57.4726 317.944 56.6188 318.796 55.0523C319.05 54.5858 319.501 54.2262 320.032 54.2262H322.706C323.461 54.2262 324.033 54.9195 323.783 55.6319C322.396 59.5875 318.642 61.9198 313.489 61.9198ZM313.356 43.1528C310.632 43.1528 308.809 44.4078 307.997 46.8082C307.76 47.5089 308.335 48.1781 309.074 48.1781H317.492C318.155 48.1781 318.708 47.6341 318.575 46.9847C318.092 44.6388 316.153 43.1528 313.356 43.1528Z" fill="#0C2503"/>
<path d="M226.607 52.8031L222.195 71.4999L222.272 71.5181L222.349 71.5356L226.607 52.8031ZM222.649 51.8692L227.061 33.1725L226.961 33.1489L226.861 33.1265L222.649 51.8692ZM224.739 47.8668L220.29 66.5546L220.309 66.5591L220.327 66.5635L224.739 47.8668ZM228.697 48.8007L224.285 67.4974L224.348 67.5122L224.41 67.5265L228.697 48.8007ZM318.575 46.9847L299.759 50.8571L318.575 46.9847ZM318.796 55.0523L335.67 64.2331L318.796 55.0523ZM308.858 51.6433L308.806 32.4332L308.858 51.6433ZM307.745 52.9568L326.455 48.6008L307.745 52.9568ZM322.876 51.6056L322.928 70.8157L322.876 51.6056ZM281.517 40.6921L294.952 26.9615L281.517 40.6921ZM284.575 40.7091L297.714 54.7236L284.575 40.7091ZM271.031 40.451L258.61 25.7965L271.031 40.451ZM228.446 44.6721L246.485 38.0671L228.446 44.6721ZM323.783 55.6319L305.656 49.2738L323.783 55.6319ZM233.706 44.6133L214.763 47.8068L233.706 44.6133ZM221.493 55.8164L203.658 62.9523L221.493 55.8164ZM216.205 55.8669L197.238 58.9151L216.205 55.8669ZM143.814 54.0784L128.671 42.2575L143.814 54.0784ZM149.833 49.0444L133.23 58.7072L149.833 49.0444ZM156.643 60.7449L140.04 70.4078L156.643 60.7449ZM251.768 60.0452L239.938 44.9099L251.768 60.0452ZM162.515 59.535L145.932 69.2316H145.932L162.515 59.535ZM153.174 42.0668L168.353 53.8405L153.174 42.0668ZM153.086 43.4087L169.669 33.712L153.086 43.4087ZM161.936 30.7695L146.757 18.9958L161.936 30.7695ZM156.363 29.3006L171.577 41.0286L156.363 29.3006ZM198.78 40.582L211.028 55.381L198.78 40.582ZM124.349 30.0336V42.3858H162.77V30.0336H124.349ZM160.926 54.8468L171.577 41.0286L141.148 17.5727L130.496 31.3909L160.926 54.8468ZM157.314 48.0432H160.988V9.62283H157.314V48.0432ZM146.757 18.9958L137.994 30.2931L168.353 53.8405L177.116 42.5432L146.757 18.9958ZM136.503 53.1054L145.932 69.2316L179.099 49.8383L169.669 33.712L136.503 53.1054ZM161.479 42.1315H157.68V80.5518H161.479V42.1315ZM173.246 51.0821L166.436 39.3815L133.23 58.7072L140.04 70.4078L173.246 51.0821ZM132.706 37.0885L128.671 42.2575L158.956 65.8994L162.991 60.7304L132.706 37.0885ZM124.349 54.8172V60.141H162.77V54.8172H124.349ZM142.359 42.1315H139.068V80.5518H142.359V42.1315ZM157.077 60.141V30.0336H118.657V60.141H157.077ZM139.068 48.0432H142.359V9.62283H139.068V48.0432ZM183.303 50.3127C183.303 51.6708 182.721 53.8645 180.829 55.7108C178.984 57.5119 176.947 57.9603 175.833 57.9603V19.54C167.916 19.54 160.008 22.3454 153.994 28.2156C147.933 34.1311 144.883 42.1061 144.883 50.3127H183.303ZM175.833 57.9603C174.72 57.9603 172.683 57.5119 170.837 55.7108C168.946 53.8645 168.364 51.6708 168.364 50.3127H206.784C206.784 42.1061 203.734 34.1311 197.673 28.2156C191.658 22.3454 183.751 19.54 175.833 19.54V57.9603ZM168.364 50.3127C168.364 48.9547 168.946 46.761 170.837 44.9146C172.683 43.1135 174.72 42.6651 175.833 42.6651V81.0855C183.751 81.0855 191.658 78.2801 197.673 72.4099C203.734 66.4944 206.784 58.5194 206.784 50.3127H168.364ZM175.833 42.6651C176.947 42.6651 178.984 43.1135 180.829 44.9146C182.721 46.761 183.303 48.9547 183.303 50.3127H144.883C144.883 58.5194 147.933 66.4944 153.994 72.4099C160.008 78.2801 167.916 81.0855 175.833 81.0855V42.6651ZM150.308 50.3127C150.308 56.4725 152.349 63.1041 157.302 68.3536C162.335 73.6893 169.118 76.2381 175.833 76.2381V37.8177C178.813 37.8177 182.438 39.0102 185.248 41.9888C187.977 44.8814 188.729 48.1554 188.729 50.3127H150.308ZM175.833 76.2381C182.548 76.2381 189.331 73.6893 194.365 68.3536C199.317 63.1041 201.358 56.4725 201.358 50.3127H162.938C162.938 48.1554 163.689 44.8814 166.418 41.9888C169.228 39.0102 172.854 37.8177 175.833 37.8177V76.2381ZM201.358 50.3127C201.358 44.153 199.317 37.5214 194.365 32.2718C189.331 26.9362 182.548 24.3874 175.833 24.3874V62.8077C172.854 62.8077 169.228 61.6153 166.418 58.6366C163.689 55.744 162.938 52.47 162.938 50.3127H201.358ZM175.833 24.3874C169.118 24.3874 162.335 26.9362 157.302 32.2718C152.349 37.5214 150.308 44.153 150.308 50.3127H188.729C188.729 52.4701 187.977 55.744 185.248 58.6366C182.438 61.6153 178.813 62.8077 175.833 62.8077V24.3874ZM196.099 42.1315H193.075V80.5518H196.099V42.1315ZM211.084 60.141V40.5734H172.664V60.141H211.084ZM193.075 58.5829H196.206V20.1626H193.075V58.5829ZM211.028 55.381C208.604 57.3873 206.093 57.9158 204.371 57.9158V19.4955C198.354 19.4955 191.871 21.3637 186.532 25.783L211.028 55.381ZM204.371 57.9158C203.016 57.9158 199.354 57.3534 196.295 53.9297C193.544 50.8517 193.521 47.9344 193.521 47.8223H231.942C231.942 42.0179 230.496 34.5423 224.943 28.329C219.082 21.7701 211.24 19.4955 204.371 19.4955V57.9158ZM193.521 47.8223V60.141H231.942V47.8223H193.521ZM211.531 42.1315H208.507V80.5518H211.531V42.1315ZM226.516 60.141V49.112H188.096V60.141H226.516ZM226.516 49.112C226.516 44.3354 225.34 37.7808 220.397 32.2248C215.17 26.3488 208.28 24.4318 202.681 24.4318V62.8522C199.884 62.8522 195.306 61.8246 191.691 57.7608C188.361 54.017 188.096 50.1975 188.096 49.112H226.516ZM202.681 24.4318C196.343 24.4318 189.558 26.7759 184.515 32.3324C179.668 37.6728 178.09 44.1347 178.09 49.5122H216.51C216.51 51.332 215.955 54.8589 212.964 58.1536C209.778 61.6644 205.684 62.8522 202.681 62.8522V24.4318ZM178.09 49.5122V60.141H216.51V49.5122H178.09ZM217.312 73.8811H220.097V35.4608H217.312V73.8811ZM203.658 62.9523C208.153 74.1879 218.822 76.9941 225.228 76.9941V38.5738C226.552 38.5738 229.058 38.8101 231.905 40.3391C234.991 41.9963 237.794 44.843 239.329 48.6804L203.658 62.9523ZM225.228 76.9941C228.698 76.9941 234.013 76.352 239.036 72.8907C244.888 68.8577 248.352 62.2934 248.352 55.1601H209.932C209.932 49.6278 212.706 44.3754 217.236 41.254C220.936 38.7044 224.293 38.5738 225.228 38.5738V76.9941ZM248.352 55.1601C248.352 50.9447 247.089 45.114 242.288 40.2445C238.195 36.0929 233.438 34.6556 230.864 34.0707L222.349 71.5356C221.732 71.3953 218.243 70.5806 214.928 67.2185C210.906 63.1383 209.932 58.2637 209.932 55.1601H248.352ZM231.018 34.1064L227.061 33.1725L218.237 70.566L222.195 71.4999L231.018 34.1064ZM226.861 33.1265C226.902 33.1357 227.503 33.2694 228.41 33.707C229.356 34.1632 230.736 35.0013 232.113 36.4411C235.321 39.7955 235.989 43.634 235.989 45.5987H197.568C197.568 51.0767 199.192 57.6057 204.346 62.9947C209.003 67.8649 214.639 69.7584 218.437 70.612L226.861 33.1265ZM235.989 45.5987C235.989 49.4813 234.069 53.3703 230.919 55.7834C228.271 57.8124 225.987 57.9158 225.495 57.9158V19.4955C219.934 19.4955 213.291 20.8886 207.552 25.2857C201.312 30.0669 197.568 37.4025 197.568 45.5987H235.989ZM225.495 57.9158C224.457 57.9158 222.215 57.6378 219.779 55.8737C217.157 53.9756 215.306 51.0307 214.763 47.8068L252.649 41.4198C250.084 26.2072 236.693 19.4955 225.495 19.4955V57.9158ZM232.598 26.6109H229.825V65.0313H232.598V26.6109ZM246.485 38.0671C242.683 27.6848 233.09 23.5424 225.273 23.5424V61.9627C223.267 61.9627 220.293 61.5091 217.222 59.6159C214.004 57.6321 211.637 54.6378 210.407 51.2772L246.485 38.0671ZM225.273 23.5424C221.578 23.5424 216.034 24.3542 210.978 28.2917C205.293 32.7196 202.683 39.2025 202.683 45.3764H241.103C241.103 49.9049 239.115 55.0758 234.586 58.6032C230.687 61.6402 226.833 61.9627 225.273 61.9627V23.5424ZM202.683 45.3764C202.683 51.8578 205.571 57.5981 210.086 61.4833C213.863 64.7338 217.941 65.9954 220.29 66.5546L229.189 29.179C229.669 29.2935 232.324 29.9325 235.145 32.3602C236.694 33.6931 238.291 35.5696 239.459 38.0532C240.637 40.558 241.103 43.0965 241.103 45.3764H202.683ZM220.327 66.5635L224.285 67.4974L233.109 30.1039L229.151 29.17L220.327 66.5635ZM224.41 67.5265C224.372 67.5178 223.774 67.3831 222.874 66.955C221.937 66.5096 220.532 65.6785 219.117 64.2294C215.782 60.8144 215.046 56.8394 215.046 54.7154H253.466C253.466 49.2116 251.796 42.7017 246.604 37.3855C241.987 32.6581 236.475 30.8741 232.984 30.0749L224.41 67.5265ZM215.046 54.7154C215.046 50.8828 216.945 47.0829 219.995 44.7433C222.566 42.7714 224.731 42.7096 225.05 42.7096V81.1299C230.795 81.1299 237.563 79.6896 243.38 75.2272C249.676 70.3973 253.466 62.9951 253.466 54.7154H215.046ZM225.05 42.7096C225.573 42.7096 227.577 42.8337 229.961 44.4918C232.594 46.3231 234.613 49.3386 235.172 52.8187L197.238 58.9151C199.814 74.9439 214.152 81.1299 225.05 81.1299V42.7096ZM254.485 58.5829H257.51V20.1626H254.485V58.5829ZM239.5 40.5734V60.141H277.921V40.5734H239.5ZM257.51 42.1315H254.404V80.5518H257.51V42.1315ZM239.938 44.9099C241.013 44.0695 242.075 43.5463 243.022 43.2251C243.981 42.9001 245.033 42.7096 246.169 42.7096V81.1299C252.407 81.1299 258.636 79.0597 263.599 75.1805L239.938 44.9099ZM246.169 42.7096C248.178 42.7096 251.686 43.5388 254.51 46.6697C257.104 49.5465 257.33 52.3819 257.33 53.1144H218.91C218.91 59.228 220.626 66.4661 225.978 72.4002C231.558 78.5886 239.091 81.1299 246.169 81.1299V42.7096ZM257.33 53.1144V40.5734H218.91V53.1144H257.33ZM239.321 58.5829H242.345V20.1626H239.321V58.5829ZM224.335 40.5734V51.2022H262.756V40.5734H224.335ZM224.335 51.2022C224.335 55.2357 225.029 62.0654 230.003 68.02C235.6 74.7203 243.103 76.2826 248.215 76.2826V37.8622C250.303 37.8622 255.472 38.5796 259.49 43.3898C261.219 45.46 262.027 47.5089 262.396 48.8752C262.75 50.1867 262.756 51.0615 262.756 51.2022H224.335ZM248.215 76.2826C253.771 76.2826 261.337 74.4953 266.884 67.7358C271.792 61.7552 272.495 54.9472 272.495 50.8909H234.075C234.075 50.7463 234.081 49.9075 234.419 48.6488C234.769 47.3418 235.536 45.3708 237.184 43.3627C241.053 38.6488 246.084 37.8622 248.215 37.8622V76.2826ZM272.495 50.8909V40.5734H234.075V50.8909H272.495ZM268.539 42.1315H265.515V80.5518H268.539V42.1315ZM283.524 60.141V40.5734H245.104V60.141H283.524ZM265.515 58.5829H268.666V20.1626H265.515V58.5829ZM283.451 55.1055C280.938 57.2363 278.19 57.9158 276.232 57.9158V19.4955C269.848 19.4955 263.592 21.5735 258.61 25.7965L283.451 55.1055ZM276.232 57.9158C273.98 57.9158 270.761 57.0448 268.082 54.4227L294.952 26.9615C289.72 21.8422 282.952 19.4955 276.232 19.4955V57.9158ZM297.714 54.7236C295.094 57.1797 292.12 57.9158 290.063 57.9158V19.4955C283.52 19.4955 276.742 21.7207 271.436 26.6947L297.714 54.7236ZM290.063 57.9158C288.853 57.9158 285.486 57.4635 282.458 54.3633C279.503 51.3387 279.125 48.0951 279.125 46.9774H317.545C317.545 40.7899 315.699 33.4104 309.943 27.5175C304.113 21.5488 296.61 19.4955 290.063 19.4955V57.9158ZM279.125 46.9774V60.141H317.545V46.9774H279.125ZM297.134 42.1315H294.154V80.5518H297.134V42.1315ZM312.164 60.141V48.4004H273.744V60.141H312.164ZM312.164 48.4004C312.164 43.5223 310.83 37.1177 305.895 31.777C300.79 26.2532 294.164 24.3874 288.684 24.3874V62.8077C285.785 62.8077 281.293 61.7646 277.678 57.8529C274.232 54.1243 273.744 50.1211 273.744 48.4004H312.164ZM288.684 24.3874C283.197 24.3874 276.599 26.2474 271.454 31.6688C266.374 37.0219 264.849 43.5858 264.849 48.8896H303.27C303.27 50.5912 302.746 54.5091 299.322 58.1168C295.834 61.7926 291.548 62.8077 288.684 62.8077V24.3874ZM264.849 48.8896V60.141H303.27V48.8896H264.849ZM282.859 42.1315H279.835V80.5518H282.859V42.1315ZM297.844 60.141V48.356H259.424V60.141H297.844ZM297.844 48.356C297.844 43.5178 296.519 37.1428 291.604 31.8184C286.513 26.3025 279.896 24.4318 274.409 24.4318V62.8522C271.502 62.8522 266.997 61.8042 263.373 57.8782C259.926 54.1436 259.424 50.1256 259.424 48.356H297.844ZM274.409 24.4318C268.902 24.4318 262.43 26.3096 257.348 31.5256C252.242 36.7658 250.529 43.3186 250.529 48.8896H288.95C288.95 50.903 288.282 54.8319 284.866 58.3378C281.474 61.8193 277.337 62.8522 274.409 62.8522V24.4318ZM250.529 48.8896V60.141H288.95V48.8896H250.529ZM313.489 42.7096C315.058 42.7096 317.405 43.3778 319.324 45.373C321.192 47.3148 321.581 49.3826 321.581 50.3572H283.161C283.161 58.1359 285.841 65.9851 291.634 72.007C297.477 78.0825 305.383 81.1299 313.489 81.1299V42.7096ZM321.581 50.3572C321.581 51.1166 321.28 53.1256 319.418 55.1066C317.472 57.175 315.02 57.9158 313.311 57.9158V19.4955C305.154 19.4955 297.232 22.6155 291.429 28.7865C285.708 34.8699 283.161 42.7047 283.161 50.3572H321.581ZM313.311 57.9158C312.174 57.9158 309.553 57.4242 307.265 55.0272C305.069 52.7266 304.863 50.4389 304.863 49.9569H343.284C343.284 42.6264 340.988 34.7131 335.056 28.4989C329.033 22.1885 321.03 19.4955 313.311 19.4955V57.9158ZM304.863 49.9569V50.405H343.284V49.9569H304.863ZM322.824 32.3955L308.806 32.4332L308.909 70.8534L322.928 70.8157L322.824 32.3955ZM289.035 57.3127C290.136 62.0406 292.724 67.4688 297.982 71.5352C303.174 75.5512 308.959 76.6828 313.578 76.6828V38.2625C315.027 38.2625 318.245 38.6364 321.488 41.1445C324.796 43.7032 326.053 46.8734 326.455 48.6008L289.035 57.3127ZM313.578 76.6828C319.95 76.6828 330.153 74.3744 335.67 64.2331L301.922 45.8715C303.644 42.7064 306.23 40.5954 308.71 39.4389C310.995 38.374 312.829 38.2625 313.578 38.2625V76.6828ZM320.032 73.4364H322.706V35.016H320.032V73.4364ZM305.656 49.2738C306.44 47.0369 308.035 45.0926 310.001 43.8858C311.813 42.7738 313.218 42.7096 313.489 42.7096V81.1299C324.622 81.1299 337.166 75.5167 341.911 61.9901L305.656 49.2738ZM313.356 23.9426C309.044 23.9426 303.891 24.958 299.117 28.2228C294.249 31.5511 291.319 36.163 289.8 40.6511L326.194 52.9652C325.488 55.0529 323.875 57.8372 320.803 59.9379C317.823 61.9751 314.944 62.363 313.356 62.363V23.9426ZM309.074 67.3883H317.492V28.9679H309.074V67.3883ZM337.391 43.1122C334.779 30.422 323.744 23.9426 313.356 23.9426V62.363C311.363 62.363 308.34 61.8105 305.377 59.6094C302.296 57.3203 300.421 54.0728 299.759 50.8571L337.391 43.1122ZM317.492 67.3883C327.331 67.3883 340.545 58.44 337.391 43.1122L299.759 50.8571C298.449 44.4935 300.669 38.5585 304.35 34.6517C307.846 30.9411 312.634 28.9679 317.492 28.9679V67.3883ZM289.8 40.6511C284.542 56.192 297.812 67.3883 309.074 67.3883V28.9679C318.857 28.9679 330.978 38.8258 326.194 52.9652L289.8 40.6511ZM335.67 64.2331C333.714 67.8281 328.661 73.4364 320.032 73.4364V35.016C310.341 35.016 304.385 41.3435 301.922 45.8715L335.67 64.2331ZM308.806 32.4332C297.614 32.4633 285.666 42.8401 289.035 57.3127L326.455 48.6008C329.502 61.6892 318.68 70.8271 308.909 70.8534L308.806 32.4332ZM304.863 50.405C304.863 40.4775 312.897 32.4222 322.824 32.3955L322.928 70.8157C334.179 70.7855 343.284 61.6561 343.284 50.405H304.863ZM268.082 54.4227C273.039 59.273 279.018 60.4335 282.965 60.4489C286.924 60.4644 292.78 59.3491 297.714 54.7236L271.436 26.6947C275.613 22.7789 280.311 22.0179 283.115 22.0289C285.908 22.0398 290.737 22.8369 294.952 26.9615L268.082 54.4227ZM250.471 43.2564C252.176 53.146 259.933 57.8516 265.205 59.2295C270.384 60.5831 277.537 60.1186 283.451 55.1055L258.61 25.7965C263.999 21.2292 270.396 20.8752 274.921 22.0579C279.539 23.265 286.745 27.5185 288.333 36.7285L250.471 43.2564ZM268.666 58.5829C259.679 58.5829 251.998 52.1125 250.471 43.2564L288.333 36.7285C286.682 27.1563 278.38 20.1626 268.666 20.1626V58.5829ZM283.524 40.5734C283.524 50.5197 275.461 58.5829 265.515 58.5829V20.1626C254.242 20.1626 245.104 29.3008 245.104 40.5734H283.524ZM265.515 42.1315C275.461 42.1315 283.524 50.1946 283.524 60.141H245.104C245.104 71.4136 254.242 80.5518 265.515 80.5518V42.1315ZM268.539 80.5518C279.812 80.5518 288.95 71.4136 288.95 60.141H250.529C250.529 50.1946 258.593 42.1315 268.539 42.1315V80.5518ZM229.825 26.6109C235.096 26.6109 239.208 28.8522 241.792 31.1666C244.249 33.3677 245.686 35.8861 246.485 38.0671L210.407 51.2772C212 55.628 217.678 65.0313 229.825 65.0313V26.6109ZM322.706 73.4364C312.452 73.4364 300.812 63.0844 305.656 49.2738L341.911 61.9901C347.255 46.7546 334.47 35.016 322.706 35.016V73.4364ZM214.763 47.8068C212.546 34.6558 223.6 26.6109 232.598 26.6109V65.0313C242.932 65.0313 255.088 55.8882 252.649 41.4198L214.763 47.8068ZM279.125 60.141C279.125 50.1946 287.188 42.1315 297.134 42.1315V80.5518C308.407 80.5518 317.545 71.4136 317.545 60.141H279.125ZM211.084 40.5734C211.084 50.5197 203.021 58.5829 193.075 58.5829V20.1626C181.802 20.1626 172.664 29.3008 172.664 40.5734H211.084ZM193.075 42.1315C203.021 42.1315 211.084 50.1946 211.084 60.141H172.664C172.664 71.4136 181.802 80.5518 193.075 80.5518V42.1315ZM196.099 80.5518C207.372 80.5518 216.51 71.4136 216.51 60.141H178.09C178.09 50.1946 186.153 42.1315 196.099 42.1315V80.5518ZM157.077 30.0336C157.077 39.98 149.014 48.0432 139.068 48.0432V9.62283C127.795 9.62283 118.657 18.7611 118.657 30.0336H157.077ZM220.097 73.8811C214.787 73.8811 210.703 71.6094 208.192 69.3794C205.809 67.2626 204.434 64.8927 203.658 62.9523L239.329 48.6804C237.817 44.9021 232.257 35.4608 220.097 35.4608V73.8811ZM139.068 42.1315C149.014 42.1315 157.077 50.1946 157.077 60.141H118.657C118.657 71.4136 127.795 80.5518 139.068 80.5518V42.1315ZM217.312 35.4608C207.08 35.4608 194.915 44.4601 197.238 58.9151L235.172 52.8187C237.285 65.9643 226.218 73.8811 217.312 73.8811V35.4608ZM242.345 58.5829C232.399 58.5829 224.335 50.5197 224.335 40.5734H262.756C262.756 29.3008 253.618 20.1626 242.345 20.1626V58.5829ZM124.349 60.141C124.349 50.1946 132.412 42.1315 142.359 42.1315V80.5518C153.631 80.5518 162.77 71.4136 162.77 60.141H124.349ZM257.33 40.5734C257.33 50.5198 249.267 58.5829 239.321 58.5829V20.1626C228.048 20.1626 218.91 29.3008 218.91 40.5734H257.33ZM128.671 42.2575C125.871 45.8451 124.349 50.2659 124.349 54.8172H162.77C162.77 58.8331 161.427 62.7338 158.956 65.8994L128.671 42.2575ZM166.436 39.3815C159.171 26.8984 141.594 25.7035 132.706 37.0885L162.991 60.7304C155.149 70.776 139.64 69.7217 133.23 58.7072L166.436 39.3815ZM157.68 42.1315C164.092 42.1315 170.02 45.5404 173.246 51.0821L140.04 70.4078C143.695 76.6883 150.414 80.5518 157.68 80.5518V42.1315ZM279.835 42.1315C289.781 42.1315 297.844 50.1946 297.844 60.141H259.424C259.424 71.4136 268.562 80.5518 279.835 80.5518V42.1315ZM208.507 42.1315C218.453 42.1315 226.516 50.1946 226.516 60.141H188.096C188.096 71.4136 197.234 80.5518 208.507 80.5518V42.1315ZM272.622 58.0338C271.237 47.8795 263.426 42.9899 258.394 41.4779C253.403 39.978 246.167 40.0414 239.938 44.9099L263.599 75.1805C257.974 79.5769 251.596 79.5526 247.338 78.2729C243.039 76.9812 235.835 72.6197 234.554 63.2249L272.622 58.0338ZM145.932 69.2316C138.912 57.2256 147.571 42.1315 161.479 42.1315V80.5518C177.241 80.5518 187.055 63.4452 179.099 49.8383L145.932 69.2316ZM264.849 60.141C264.849 50.1946 272.912 42.1315 282.859 42.1315V80.5518C294.131 80.5518 303.27 71.4136 303.27 60.141H264.849ZM193.521 60.141C193.521 50.1946 201.584 42.1315 211.531 42.1315V80.5518C222.803 80.5518 231.942 71.4136 231.942 60.141H193.521ZM254.404 42.1315C263.599 42.1315 271.38 48.9235 272.622 58.0338L234.554 63.2249C235.908 73.1513 244.386 80.5518 254.404 80.5518V42.1315ZM137.994 30.2931C132.886 36.8793 132.295 45.91 136.503 53.1054L169.669 33.712C173.381 40.0609 172.86 48.0292 168.353 53.8405L137.994 30.2931ZM239.5 60.141C239.5 50.1946 247.563 42.1315 257.51 42.1315V80.5518C268.782 80.5518 277.921 71.4136 277.921 60.141H239.5ZM160.988 48.0432C146.012 48.0432 137.579 30.829 146.757 18.9958L177.116 42.5432C187.518 29.1323 177.96 9.62283 160.988 9.62283V48.0432ZM257.51 58.5829C247.563 58.5829 239.5 50.5198 239.5 40.5734H277.921C277.921 29.3008 268.782 20.1626 257.51 20.1626V58.5829ZM171.577 41.0286C168.168 45.452 162.899 48.0432 157.314 48.0432V9.62283C150.984 9.62283 145.012 12.5595 141.148 17.5727L171.577 41.0286ZM178.027 43.0239C179.592 53.04 187.381 57.859 192.627 59.3014C197.789 60.7208 205.002 60.3687 211.028 55.381L186.532 25.783C191.979 21.2748 198.363 21.0324 202.812 22.2558C207.346 23.5022 214.538 27.8196 215.987 37.0927L178.027 43.0239ZM254.485 20.1626C243.213 20.1626 234.075 29.3008 234.075 40.5734H272.495C272.495 50.5197 264.432 58.5829 254.485 58.5829V20.1626ZM124.349 42.3858C124.349 61.8647 149.034 70.2743 160.926 54.8468L130.496 31.3909C140.989 17.7784 162.77 25.1986 162.77 42.3858H124.349ZM294.154 42.1315C304.101 42.1315 312.164 50.1946 312.164 60.141H273.744C273.744 71.4136 282.882 80.5518 294.154 80.5518V42.1315ZM196.206 58.5829C187.141 58.5829 179.426 51.9803 178.027 43.0239L215.987 37.0927C214.464 27.347 206.07 20.1626 196.206 20.1626V58.5829ZM162.77 30.0336C162.77 18.7611 153.632 9.62283 142.359 9.62283V48.0432C132.412 48.0432 124.349 39.98 124.349 30.0336H162.77Z" fill="#EDFAE7" mask="url(#path-3-outside-1_1645_7113)"/>
<defs>
<clipPath id="clip0_1645_7113">
<rect width="88.9429" height="88.9424" fill="white" transform="translate(0.0429688 0.905273)"/>
</clipPath>
</defs>
</svg>
