<svg width="83" height="82" viewBox="0 0 83 82" fill="none" xmlns="http://www.w3.org/2000/svg">
<rect x="0.4375" y="27.4688" width="61.0113" height="61.0113" rx="30.5056" transform="rotate(-27.6903 0.4375 27.4688)" fill="#E8E4FB"/>
<g filter="url(#filter0_di_2164_23695)">
<path d="M29.1755 24.0133C28.625 20.5463 32.7901 18.3605 35.3305 20.7832C37.1082 22.4785 40.0173 21.9817 41.1317 19.7926C42.7241 16.6642 47.3785 17.344 48.0097 20.7972C48.4514 23.2136 51.0969 24.5217 53.2852 23.4056C56.4124 21.8107 59.7783 25.0965 58.2592 28.2612C57.1962 30.4758 58.5677 33.089 60.994 33.4723C64.4614 34.0201 65.2532 38.6568 62.164 40.3242C60.0024 41.491 59.5759 44.4112 61.3135 46.1476C63.7967 48.6288 61.7119 52.8454 58.2326 52.3786C55.798 52.0519 53.7364 54.1637 54.1217 56.5898C54.6721 60.0568 50.5071 62.2426 47.9667 59.8199C46.189 58.1246 43.2799 58.6214 42.1655 60.8105C40.573 63.9389 35.9186 63.2591 35.2874 59.8059C34.8457 57.3895 32.2002 56.0814 30.0119 57.1975C26.8848 58.7924 23.5189 55.5066 25.0379 52.3419C26.1009 50.1273 24.7295 47.5141 22.3032 47.1308C18.8358 46.583 18.044 41.9463 21.1331 40.2789C23.2948 39.1121 23.7213 36.1919 21.9837 34.4555C19.5005 31.9743 21.5853 27.7577 25.0645 28.2245C27.4992 28.5512 29.5607 26.4394 29.1755 24.0133Z" fill="#6D53E7"/>
<path d="M30.5331 23.7978C30.1888 21.6298 32.7933 20.263 34.3819 21.7779C36.8256 24.1084 40.8247 23.4255 42.3566 20.4162C43.3524 18.4599 46.2629 18.885 46.6576 21.0444C47.2648 24.3662 50.9015 26.1643 53.9097 24.6301C55.8652 23.6328 57.97 25.6874 57.0201 27.6664C55.5588 30.7107 57.444 34.303 60.7795 34.83C62.9477 35.1726 63.4428 38.072 61.5112 39.1146C58.5395 40.7186 57.9532 44.733 60.3419 47.1199C61.8947 48.6715 60.591 51.3081 58.4154 51.0162C55.0685 50.5672 52.2346 53.4703 52.7641 56.8053C53.1084 58.9733 50.5039 60.3401 48.9153 58.8252C46.4716 56.4947 42.4725 57.1776 40.9406 60.1869C39.9448 62.1432 37.0343 61.7181 36.6396 59.5587C36.0324 56.2369 32.3957 54.4388 29.3874 55.973C27.432 56.9703 25.3272 54.9157 26.2771 52.9367L25.0379 52.3419L26.2771 52.9367C27.7384 49.8924 25.8531 46.3001 22.5177 45.7731C20.3494 45.4305 19.8543 42.5311 21.786 41.4885C24.7576 39.8845 25.344 35.8701 22.9552 33.4832C21.4025 31.9316 22.7062 29.295 24.8818 29.5869C28.2286 30.0359 31.0626 27.1328 30.5331 23.7978Z" stroke="#A392F0" stroke-width="2.74906"/>
</g>
<path fill-rule="evenodd" clip-rule="evenodd" d="M46.8816 43.3431C46.2964 43.3045 45.7919 43.2777 45.3527 43.246C45.0883 43.2289 44.848 43.2103 44.6256 43.1869L44.5538 43.1794L44.5288 43.179L44.3836 43.1693C42.4631 43.054 41.7313 42.1634 40.6724 40.9767C40.1873 40.4357 39.6949 39.4286 39.5244 38.7203C39.1512 37.1737 38.834 36.0656 39.8302 34.4196L39.9056 34.2964L39.9196 34.2755L39.9559 34.2113C40.064 34.0167 40.186 33.8057 40.3203 33.5793C40.5456 33.1989 40.8084 32.7695 41.1108 32.265C42.0329 30.7234 42.8877 29.3076 43.451 31.6471C43.8242 33.1936 44.1414 34.3018 43.1462 35.9495L43.0707 36.0728L43.0568 36.0936L43.0205 36.1579C42.9124 36.3524 42.7921 36.5625 42.656 36.7898C42.4308 37.1702 42.168 37.5996 41.8673 38.1032C40.9452 39.6448 40.7359 39.2891 42.5141 39.4045C43.0993 39.4431 43.6038 39.4699 44.043 39.5016C44.3074 39.5188 44.5476 39.5373 44.7701 39.5607L44.8436 39.5673L44.8687 39.5677L45.013 39.5756C46.9344 39.6927 47.6634 40.5825 48.7259 41.7673C50.3294 43.5609 48.6786 43.46 46.8861 43.343L46.8816 43.3431ZM34.0491 38.0411C34.3573 38.6455 34.6182 39.1684 34.8518 39.6221C34.9923 39.8942 37.7663 45.1844 37.8898 45.4111L37.9306 45.4846L37.9445 45.5111L38.02 45.6591C39.0221 47.6463 40.188 48.0808 41.7784 48.7513C44.1855 49.7638 43.3231 48.0559 42.3782 46.2037C42.07 45.5993 41.8091 45.0763 41.5755 44.6226C41.435 44.3506 38.661 39.0604 38.5358 38.8346L38.4949 38.7611L38.481 38.7345L38.4056 38.5865C37.4034 36.5994 36.2375 36.1649 34.6472 35.4944C32.24 34.4819 33.1025 36.1898 34.0474 38.042L34.0491 38.0411Z" fill="#E8E4FB"/>
<defs>
<filter id="filter0_di_2164_23695" x="12.9215" y="15.1161" width="57.4544" height="60.2675" filterUnits="userSpaceOnUse" color-interpolation-filters="sRGB">
<feFlood flood-opacity="0" result="BackgroundImageFix"/>
<feColorMatrix in="SourceAlpha" type="matrix" values="0 0 0 0 0 0 0 0 0 0 0 0 0 0 0 0 0 0 127 0" result="hardAlpha"/>
<feOffset dy="6.28358"/>
<feGaussianBlur stdDeviation="3.14179"/>
<feComposite in2="hardAlpha" operator="out"/>
<feColorMatrix type="matrix" values="0 0 0 0 0 0 0 0 0 0 0 0 0 0 0 0 0 0 0.13 0"/>
<feBlend mode="normal" in2="BackgroundImageFix" result="effect1_dropShadow_2164_23695"/>
<feBlend mode="normal" in="SourceGraphic" in2="effect1_dropShadow_2164_23695" result="shape"/>
<feColorMatrix in="SourceAlpha" type="matrix" values="0 0 0 0 0 0 0 0 0 0 0 0 0 0 0 0 0 0 127 0" result="hardAlpha"/>
<feOffset dx="-5.89085" dy="-3.14179"/>
<feGaussianBlur stdDeviation="1.33526"/>
<feComposite in2="hardAlpha" operator="arithmetic" k2="-1" k3="1"/>
<feColorMatrix type="matrix" values="0 0 0 0 0 0 0 0 0 0 0 0 0 0 0 0 0 0 0.25 0"/>
<feBlend mode="normal" in2="shape" result="effect2_innerShadow_2164_23695"/>
</filter>
</defs>
</svg>
