<svg width="263" height="262" viewBox="0 0 263 262" fill="none" xmlns="http://www.w3.org/2000/svg">
<path d="M79.148 205.791C74.481 210.063 70.4565 213.476 67.4381 215.959C62.4341 220.076 61.268 220.752 59.9225 222.99C58.8169 224.827 57.8593 227.271 57.4981 238.021C57.3841 241.425 57.3187 245.966 57.4981 251.355C106.985 251.355 156.472 251.355 205.959 251.355C206.436 246.419 206.589 242.08 206.599 238.506C206.618 231.485 206.596 227.906 205.144 224.444C204.734 223.472 203.76 221.363 197.628 214.747C194.882 211.782 191.548 208.397 187.604 204.792C151.453 205.124 115.301 205.459 79.148 205.791Z" fill="#EDA145" stroke="black" stroke-width="2.4244" stroke-miterlimit="10" stroke-linecap="round"/>
<path d="M187.447 82.704C188.409 77.0964 189.229 68.9795 188.174 59.3425C187.425 52.4984 186.399 43.1499 181.386 34.6136C169.276 13.9964 141.873 11.6981 140.171 11.5817C122.373 10.3526 104.484 17.8658 94.1071 30.7345C87.52 38.9048 84.8435 48.1417 82.2275 57.1605C79.408 66.8848 78.4406 75.3532 78.1061 81.4045C77.0733 90.3457 74.6804 103.51 68.4084 118.255C62.6747 131.733 59.523 132.843 57.0137 142.499C50.7055 166.777 63.3099 187.945 64.287 189.533C72.6754 203.153 84.3271 209.556 89.9856 212.574C125.081 231.298 164.483 215.869 172.432 212.574C178.28 210.545 193.248 204.409 201.993 189.048C211.919 171.612 207.763 152.939 205.872 144.439C203.717 134.751 201.341 133.047 196.417 118.983C191.197 104.075 188.724 91.3009 187.447 82.704Z" fill="#B30000" stroke="black" stroke-width="2.4244" stroke-miterlimit="10" stroke-linecap="round"/>
<path d="M73.2578 77.4672C73.2578 77.4672 73.5003 60.7583 95.5623 64.8991" stroke="black" stroke-width="2.4244" stroke-miterlimit="10" stroke-linecap="round"/>
<path d="M168.535 64.2399C168.535 64.2399 185.632 56.9085 194.176 70.8537" stroke="black" stroke-width="2.4244" stroke-miterlimit="10" stroke-linecap="round"/>
<path d="M95.5614 130.862C109.487 130.862 120.775 119.574 120.775 105.648C120.775 91.7232 109.487 80.4346 95.5614 80.4346C81.6363 80.4346 70.3477 91.7232 70.3477 105.648C70.3477 119.574 81.6363 130.862 95.5614 130.862Z" fill="white" stroke="black" stroke-width="2.4244" stroke-miterlimit="10" stroke-linecap="round"/>
<path d="M172.417 130.862C186.342 130.862 197.631 119.574 197.631 105.648C197.631 91.7232 186.342 80.4346 172.417 80.4346C158.492 80.4346 147.203 91.7232 147.203 105.648C147.203 119.574 158.492 130.862 172.417 130.862Z" fill="white" stroke="black" stroke-width="2.4244" stroke-miterlimit="10" stroke-linecap="round"/>
<path d="M99.444 121.892C104.934 121.892 109.384 117.442 109.384 111.952C109.384 106.462 104.934 102.012 99.444 102.012C93.9542 102.012 89.5039 106.462 89.5039 111.952C89.5039 117.442 93.9542 121.892 99.444 121.892Z" fill="black"/>
<path d="M167.081 111.952C172.57 111.952 177.021 107.502 177.021 102.012C177.021 96.5223 172.57 92.072 167.081 92.072C161.591 92.072 157.141 96.5223 157.141 102.012C157.141 107.502 161.591 111.952 167.081 111.952Z" fill="black"/>
<path d="M104.289 151.227C106.745 148.815 110.673 145.753 115.199 146.136C120.074 146.548 121.047 150.568 126.099 151.227C132.448 152.057 134.015 146.114 141.024 146.136C148.066 146.158 149.669 152.173 155.686 151.227C161.19 150.364 162.688 144.89 167.081 145.283C170.264 145.566 172.587 148.721 174.015 151.227" stroke="black" stroke-width="2.4244" stroke-miterlimit="10" stroke-linecap="round"/>
<path d="M99.4414 153.4C99.4414 153.4 101.381 158.656 104.29 157.851" stroke="black" stroke-width="2.4244" stroke-miterlimit="10" stroke-linecap="round"/>
<path d="M177.02 157.936C177.02 157.936 181.325 157.027 181.354 153.4" stroke="black" stroke-width="2.4244" stroke-miterlimit="10" stroke-linecap="round"/>
<path d="M86.5898 234.384V251.355" stroke="black" stroke-width="2.4244" stroke-miterlimit="10" stroke-linecap="round"/>
<path d="M175.082 234.384V251.355" stroke="black" stroke-width="2.4244" stroke-miterlimit="10" stroke-linecap="round"/>
</svg>
