<svg width="262" height="262" viewBox="0 0 262 262" fill="none" xmlns="http://www.w3.org/2000/svg">
<g clip-path="url(#clip0_1689_13116)">
<path d="M108.173 160.495C119.354 160.495 128.417 150.889 128.417 139.039C128.417 127.19 119.354 117.583 108.173 117.583C96.9931 117.583 87.9297 127.19 87.9297 139.039C87.9297 150.889 96.9931 160.495 108.173 160.495Z" fill="white" stroke="black" stroke-width="2.4244" stroke-miterlimit="10"/>
<path d="M103.72 171.781C102.258 173.146 100.428 173.561 99.5575 172.69C98.658 171.791 99.1308 169.861 100.612 168.38C102.093 166.898 104.023 166.426 104.923 167.325C105.822 168.224 105.352 170.154 103.87 171.636C103.822 171.684 103.771 171.733 103.72 171.781Z" fill="#FF0000" stroke="black" stroke-width="2.4244" stroke-miterlimit="10"/>
<path d="M109.753 177.66C113.79 180.17 117.827 182.681 121.863 185.191C119.79 190.498 115.846 194.272 111.443 194.68C110.524 194.765 107.496 195.043 105.14 192.983C103.052 191.155 102.769 188.604 102.715 188.134C102.284 184.255 105.091 180.107 109.746 177.656C109.749 177.658 109.751 177.658 109.753 177.66Z" fill="#FF0000" stroke="black" stroke-width="2.4244" stroke-miterlimit="10"/>
<path d="M108.173 160.495C119.354 160.495 128.417 150.889 128.417 139.039C128.417 127.19 119.354 117.583 108.173 117.583C96.9931 117.583 87.9297 127.19 87.9297 139.039C87.9297 150.889 96.9931 160.495 108.173 160.495Z" fill="white" stroke="black" stroke-width="2.4244" stroke-miterlimit="10"/>
<path d="M175.394 170.319C176.875 171.8 177.346 173.73 176.446 174.63C175.595 175.481 173.82 175.102 172.378 173.803C172.296 173.73 172.216 173.655 172.136 173.575C170.654 172.094 170.181 170.164 171.081 169.264C171.98 168.365 173.91 168.838 175.394 170.319Z" fill="#FF0000" stroke="black" stroke-width="2.4244" stroke-miterlimit="10"/>
<path d="M167.573 160.495C179.155 160.495 188.544 150.564 188.544 138.312C188.544 126.061 179.155 116.129 167.573 116.129C155.991 116.129 146.602 126.061 146.602 138.312C146.602 150.564 155.991 160.495 167.573 160.495Z" fill="#FF0000" stroke="black" stroke-width="2.4244" stroke-miterlimit="10"/>
<path d="M173.754 239.005V262.078H87.9297L89.188 229.812C89.3164 226.495 90.3541 223.28 92.1845 220.512L97.7776 212.063C100.51 213.12 102.796 213.845 104.416 214.317C132.779 222.611 156.252 212.31 164.056 208.741C175.589 223.205 174.828 232.76 174.1 235.921C173.867 236.932 173.754 237.967 173.754 239.005Z" fill="#8C77EC" stroke="black" stroke-width="2.4244" stroke-miterlimit="10"/>
<path d="M141.264 30.5476C144.305 27.9098 148.596 28.7584 149.022 28.8505C152.911 29.6821 155.117 32.7611 156.781 35.1539C161.123 41.4016 159.173 44.1945 163.084 51.155C164.701 54.0352 167.203 58.467 172.054 60.6102C179.269 63.7983 186.916 59.8053 188.54 58.9131C207.533 48.8494 212.355 46.1704 212.299 46.0637C212.212 45.8965 200.148 52.0811 184.661 54.3067C181.119 54.8158 178.108 55.0171 174.964 53.5794C168.003 50.3986 166.001 41.7556 165.508 39.2754C165.293 36.851 164.602 32.8895 162.114 28.8505C161.508 27.8662 154.938 17.5334 144.901 17.9407C136.505 18.2801 128.5 26.0212 126.96 36.851C126.286 41.5107 124.39 50.1416 118.233 58.9131C110.363 70.1211 100.11 75.0354 95.6856 76.8537C84.8121 83.5838 68.879 95.8925 58.3498 116.148C55.0599 122.478 50.7347 131.012 49.8644 143.04C48.5794 160.813 55.712 174.142 58.3498 178.921C69.1505 198.488 86.9529 207.878 97.7754 212.063C100.508 213.12 102.794 213.844 104.413 214.317C132.777 222.611 156.25 212.31 164.054 208.741C172.253 204.991 186.341 198.549 196.541 182.8C208.234 164.745 207.286 146.082 206.665 139.646C204.396 118.973 196.499 106.814 191.449 100.613C182.29 89.366 168.549 80.5824 165.751 78.7932C152.817 70.526 147.594 70.5381 142.719 62.7921C137.448 54.4182 137.957 45.5086 138.355 38.5481C138.537 35.3455 139.048 32.4725 141.264 30.5476ZM87.9275 139.04C87.9275 127.189 96.9899 117.584 108.171 117.584C119.353 117.584 128.415 127.189 128.415 139.04C128.415 150.89 119.353 160.496 108.171 160.496C96.9899 160.496 87.9275 150.89 87.9275 139.04ZM109.747 177.655C109.75 177.658 109.752 177.658 109.754 177.66C113.791 180.17 117.828 182.681 121.864 185.19C119.791 190.497 115.847 194.272 111.444 194.68C110.525 194.764 107.497 195.043 105.141 192.983C103.053 191.155 102.77 188.604 102.716 188.134C102.285 184.255 105.092 180.107 109.747 177.655ZM99.5598 172.69C98.6603 171.791 99.1331 169.861 100.614 168.38C102.096 166.898 104.026 166.426 104.925 167.325C105.824 168.225 105.354 170.154 103.873 171.636C103.824 171.684 103.773 171.733 103.722 171.781C102.261 173.146 100.43 173.561 99.5598 172.69ZM176.445 174.63C175.594 175.481 173.819 175.103 172.377 173.803C172.294 173.73 172.214 173.655 172.134 173.575C170.653 172.094 170.18 170.164 171.08 169.265C171.979 168.365 173.909 168.838 175.393 170.319C176.874 171.801 177.344 173.73 176.445 174.63ZM167.569 116.129C179.15 116.129 188.54 126.062 188.54 138.312C188.54 150.563 179.15 160.496 167.569 160.496C155.988 160.496 146.598 150.563 146.598 138.312C146.598 126.062 155.988 116.129 167.569 116.129Z" fill="#8DCF38" stroke="black" stroke-width="2.4244" stroke-miterlimit="10"/>
<path d="M167.573 160.495C179.155 160.495 188.544 150.564 188.544 138.312C188.544 126.061 179.155 116.129 167.573 116.129C155.991 116.129 146.602 126.061 146.602 138.312C146.602 150.564 155.991 160.495 167.573 160.495Z" fill="white" stroke="black" stroke-width="2.4244" stroke-miterlimit="10"/>
<path d="M115.083 149.586C119.769 149.586 123.568 145.787 123.568 141.1C123.568 136.414 119.769 132.615 115.083 132.615C110.397 132.615 106.598 136.414 106.598 141.1C106.598 145.787 110.397 149.586 115.083 149.586Z" fill="black"/>
<path d="M171.083 148.131C175.769 148.131 179.568 144.332 179.568 139.646C179.568 134.959 175.769 131.16 171.083 131.16C166.397 131.16 162.598 134.959 162.598 139.646C162.598 144.332 166.397 148.131 171.083 148.131Z" fill="black"/>
<path d="M99.8086 110.553C99.8086 110.553 105.627 101.34 119.689 105.947" stroke="black" stroke-width="2.4244" stroke-miterlimit="10" stroke-linecap="round"/>
<path d="M165.023 97.2186C165.023 97.2186 180.782 93.0195 179.57 107.605" stroke="black" stroke-width="2.4244" stroke-miterlimit="10" stroke-linecap="round"/>
<path d="M173.751 172.617C173.29 173.022 172.832 173.417 172.376 173.803C151.643 191.358 134.18 190.493 121.864 185.19C116.979 183.088 112.903 180.288 109.754 177.66" stroke="black" stroke-width="2.4244" stroke-miterlimit="10"/>
<path d="M109.746 177.655C107.014 175.374 104.98 173.226 103.721 171.781C102.74 170.651 102.23 169.95 102.23 169.95" stroke="black" stroke-width="2.4244" stroke-miterlimit="10"/>
<path d="M121.863 185.191C119.79 190.498 115.846 194.272 111.443 194.68C110.524 194.765 107.496 195.043 105.14 192.983C103.052 191.155 102.769 188.604 102.715 188.134C102.284 184.255 105.091 180.107 109.746 177.656C109.749 177.658 109.751 177.658 109.753 177.66C113.79 180.17 117.827 182.681 121.863 185.191Z" fill="#FFC400" stroke="black" stroke-width="2.4244" stroke-miterlimit="10"/>
<path d="M103.87 171.636C103.822 171.684 103.771 171.733 103.72 171.781C102.258 173.146 100.428 173.561 99.5575 172.69C98.658 171.791 99.1308 169.861 100.612 168.38C102.093 166.898 104.023 166.426 104.923 167.325C105.822 168.224 105.352 170.154 103.87 171.636Z" fill="black" stroke="black" stroke-width="2.4244" stroke-miterlimit="10"/>
<path d="M176.446 174.63C175.595 175.481 173.82 175.102 172.378 173.803C172.296 173.73 172.216 173.655 172.136 173.575C170.654 172.094 170.181 170.164 171.081 169.264C171.98 168.365 173.91 168.838 175.394 170.319C176.875 171.8 177.346 173.73 176.446 174.63Z" fill="black" stroke="black" stroke-width="2.4244" stroke-miterlimit="10"/>
<path d="M115.082 235.409V262.078" stroke="black" stroke-width="2.4244" stroke-miterlimit="10" stroke-linecap="round"/>
<path d="M115.076 180.972C115.076 180.972 112.53 183.018 109.742 188.546L115.076 180.972Z" fill="#FF0000"/>
<path d="M115.076 180.972C115.076 180.972 112.53 183.018 109.742 188.546" stroke="black" stroke-width="1.2122" stroke-miterlimit="10" stroke-linecap="round"/>
</g>
<defs>
<clipPath id="clip0_1689_13116">
<rect width="261.835" height="261.835" fill="white" transform="translate(0.164062)"/>
</clipPath>
</defs>
</svg>
