<svg width="46" height="46" viewBox="0 0 46 46" fill="none" xmlns="http://www.w3.org/2000/svg">
<path d="M33.2579 0.500397H13.2416C6.21837 0.500397 0.524902 6.19387 0.524902 13.2171V33.2334C0.524902 40.2566 6.21837 45.9501 13.2416 45.9501H33.2579C40.2811 45.9501 45.9746 40.2566 45.9746 33.2334V13.2171C45.9746 6.19387 40.2811 0.500397 33.2579 0.500397Z" fill="#0C2503"/>
<path fill-rule="evenodd" clip-rule="evenodd" d="M28.5738 31.7305C27.7409 31.2208 27.018 30.791 26.3949 30.4046C26.0185 30.1747 25.6787 29.9615 25.3688 29.7549L25.2689 29.6883L25.2322 29.6683L25.0257 29.5417C22.2838 27.8859 21.894 26.0068 21.251 23.4382C20.9544 22.2655 21.0077 20.3998 21.3043 19.2237C21.9506 16.655 22.3404 14.776 25.0823 13.1202L25.2889 12.9969L25.3255 12.9769L25.4288 12.9103C25.7386 12.7071 26.0818 12.4905 26.4549 12.2607C27.0813 11.8742 27.8009 11.4444 28.6371 10.9347C31.1891 9.37548 33.5446 7.94956 32.5651 11.8342C31.9187 14.4029 31.5289 16.2819 28.787 17.941L28.5805 18.0643L28.5438 18.0843L28.4406 18.1509C28.1307 18.3542 27.7909 18.5707 27.4144 18.8006C26.7881 19.1871 26.0685 19.6168 25.2355 20.1266C22.6835 21.6858 22.6502 20.9994 25.1822 22.5453C26.0151 23.055 26.7381 23.4848 27.3611 23.8713C27.7376 24.1012 28.0774 24.3144 28.3872 24.5209L28.4905 24.5876L28.5272 24.6076L28.7337 24.7308C31.4756 26.39 31.8621 28.2657 32.5118 30.8343C33.4879 34.719 31.1325 33.2931 28.5805 31.7339L28.5738 31.7305ZM13.7582 13.9864C13.7449 15.1158 13.7249 16.0887 13.7182 16.9382C13.7149 17.448 13.7115 27.3928 13.7182 27.8226L13.7215 27.9625V28.0125L13.7182 28.289C13.6582 31.9937 15.0408 33.5363 16.8666 35.7551C19.6318 39.11 19.6818 35.925 19.7217 32.4635C19.7351 31.3341 19.7551 30.3612 19.7617 29.5117C19.7651 29.002 19.7684 19.0571 19.7584 18.6273L19.7551 18.4874V18.4374L19.7584 18.1609C19.8184 14.4562 18.4358 12.9136 16.61 10.6948C13.8448 7.33988 13.7948 10.5249 13.7549 13.9864H13.7582Z" fill="white"/>
</svg>
