<svg width="262" height="262" viewBox="0 0 262 262" fill="none" xmlns="http://www.w3.org/2000/svg">
<path d="M187.573 141.845C186.606 163.448 169.846 184.291 147.086 190.818C146.046 191.116 144.998 191.382 143.946 191.615C143.645 191.685 143.345 191.751 143.042 191.812C136.137 193.242 129.036 193.353 122.245 192.321C121.804 192.253 121.365 192.182 120.926 192.105C107.907 189.828 96.1757 183.331 89.3849 173.847C77.9248 157.841 79.8885 132.411 80.8995 119.305C81.8305 107.229 83.9518 102.533 80.8995 94.8112C75.4131 80.9243 63.0147 82.3086 54.8614 69.3235C47.0039 56.8111 46.4948 36.3759 57.6252 21.8367C71.0783 4.26708 93.5937 5.67808 95.2156 5.80658C96.3405 5.89628 115.731 7.75095 127.448 24.0187C134.697 34.0824 135.635 44.9776 135.933 48.99C136.605 58.0355 134.358 60.7435 134.273 65.299C134.273 65.299 134.295 67.2046 134.726 69.3235C136.302 77.0864 151.11 86.864 156.541 90.6897C162.687 95.0197 171.529 101.248 177.633 109.6C178.889 111.319 188.344 124.627 187.573 141.845Z" fill="#6D53E7" stroke="black" stroke-width="2.4244" stroke-miterlimit="10"/>
<path d="M124.055 179.927C124.055 179.927 130.329 173.643 139.435 179.927" stroke="black" stroke-width="2.4244" stroke-miterlimit="10" stroke-linecap="round"/>
<path d="M110.481 168.755C109.877 163.805 117.187 159.72 118.508 158.98C129.454 152.863 142.432 158.149 144.665 159.058C147.632 160.265 149.923 161.657 151.453 162.694C154.229 165.032 155.478 168.392 154.605 171.18C153.296 175.357 147.87 176.196 147.332 176.271C140.965 177.161 139.317 171.141 132.543 170.937C125.822 170.736 123.774 176.555 117.754 175.301C114.398 174.603 110.866 171.927 110.481 168.755Z" fill="#0A0B0A"/>
<path d="M120.417 170.695C119.6 169.034 125.053 162.035 131.744 162.384C138.04 162.711 142.567 169.4 141.791 170.695C141.337 171.451 138.797 170.845 137.146 170.453C133.875 169.674 133.657 168.671 131.744 168.668C129.39 168.666 129.053 170.186 125.751 170.937C124.289 171.27 120.936 171.75 120.417 170.695Z" fill="#B30000"/>
<path d="M107.083 146.936C115.786 146.936 122.841 139.881 122.841 131.177C122.841 122.474 115.786 115.419 107.083 115.419C98.3796 115.419 91.3242 122.474 91.3242 131.177C91.3242 139.881 98.3796 146.936 107.083 146.936Z" fill="white" stroke="black" stroke-width="2.4244" stroke-miterlimit="10"/>
<path d="M162.337 116.1C167.125 115.85 175.834 125.923 172.832 135.759C170.476 143.479 161.767 148.866 153.173 146.254C143.201 143.224 141.519 131.902 142.678 126.595C142.876 125.686 143.138 122.854 144.799 122.202C145.776 121.819 146.319 122.534 148.057 122.449C148.668 122.42 149.551 122.284 152.421 120.752C154.661 119.557 155.127 119.106 156.543 118.328C157.023 118.064 160.419 116.199 162.337 116.1Z" fill="white" stroke="black" stroke-width="2.4244" stroke-miterlimit="10"/>
<path d="M108.295 140.875C111.374 140.875 113.871 138.378 113.871 135.299C113.871 132.219 111.374 129.723 108.295 129.723C105.215 129.723 102.719 132.219 102.719 135.299C102.719 138.378 105.215 140.875 108.295 140.875Z" fill="#0A0B0A"/>
<path d="M154.842 139.178C157.921 139.178 160.418 136.681 160.418 133.602C160.418 130.522 157.921 128.026 154.842 128.026C151.762 128.026 149.266 130.522 149.266 133.602C149.266 136.681 151.762 139.178 154.842 139.178Z" fill="#0A0B0A"/>
<path d="M94.2344 111.54C94.2344 111.54 97.1437 101.57 107.084 105.828" stroke="black" stroke-width="2.4244" stroke-miterlimit="10" stroke-linecap="round"/>
<path d="M153.391 102.327C153.391 102.327 162.807 98.2248 167.19 108.155" stroke="black" stroke-width="2.4244" stroke-miterlimit="10" stroke-linecap="round"/>
<path d="M135.77 115.419C140.213 121.094 143.981 122.35 146.602 122.45C152.081 122.656 154.833 117.877 163.524 115.419C167.609 114.262 171.173 114.139 173.513 114.207" stroke="black" stroke-width="2.4244" stroke-miterlimit="10" stroke-linecap="round"/>
<path d="M143.043 191.812C142.005 192.728 142.71 196.231 140.056 199.788C139.607 200.389 137.129 203.589 133.2 203.793C129.093 204.006 126.217 200.792 125.752 200.273C122.83 197.007 123.262 193.419 122.246 192.321C129.037 193.353 136.138 193.242 143.043 191.812Z" fill="#6D53E7" stroke="black" stroke-width="2.4244" stroke-miterlimit="10"/>
<path d="M152.148 205.102V253.61H113.387V202.455C117.266 195.235 119.542 192.65 120.927 192.105C121.266 191.972 121.55 191.959 121.792 192.032C121.972 192.086 122.122 192.185 122.245 192.321C123.261 193.419 122.83 197.007 125.751 200.273C126.217 200.792 129.092 204.006 133.199 203.793C137.129 203.589 139.607 200.389 140.055 199.788C142.71 196.231 142.004 192.728 143.042 191.812C143.127 191.734 143.221 191.676 143.333 191.637C143.507 191.574 143.711 191.562 143.946 191.615C145.095 191.879 147.037 193.722 150.432 199.136C151.552 200.922 152.148 202.99 152.148 205.102Z" fill="#49FF08" stroke="black" stroke-width="2.4244" stroke-miterlimit="10" stroke-linecap="round"/>
<path d="M98.9981 253.609L88.418 243.912L113.389 202.455V219.241L100.904 240.45L113.389 253.609H98.9981Z" fill="#49FF08" stroke="black" stroke-width="2.4244" stroke-miterlimit="10" stroke-linecap="round"/>
<path d="M166.571 253.609L177.151 243.912L152.18 202.455V219.241L164.665 240.45L152.18 253.609H166.571Z" fill="#49FF08" stroke="black" stroke-width="2.4244" stroke-miterlimit="10" stroke-linecap="round"/>
</svg>
