<svg width="163" height="164" viewBox="0 0 163 164" fill="none" xmlns="http://www.w3.org/2000/svg">
<path d="M54.5508 75.1055C56.1606 77.2313 58.7903 78.5484 61.4563 78.565C64.1237 78.5801 66.7685 77.2946 68.4025 75.1884" stroke="black" stroke-width="0.150874" stroke-miterlimit="10"/>
<path d="M86.5002 79.069C84.8255 79.0585 83.1523 79.0524 81.4776 79.0479C81.5078 78.1744 81.4052 76.9975 81.025 75.6789C80.6312 74.3105 79.7622 73.0085 78.4586 72.4366C77.2728 71.9161 76.1337 72.242 74.7064 72.6298C72.9804 73.1005 71.6738 73.885 70.8018 74.5232C70.1063 76.044 69.4107 77.5648 68.7167 79.0856H68.7152C61.6679 79.1415 54.6221 79.2576 47.5763 79.4327C47.3998 78.5093 47.175 77.5965 46.7631 76.7546C46.2199 75.6457 45.2981 74.6605 44.1062 74.3346C43.2191 74.0917 42.264 74.2351 41.3965 74.5413C39.0806 75.356 37.2309 77.3793 36.6168 79.754H36.6153C33.4063 79.8611 30.1987 79.9818 26.9896 80.1161C26.9745 80.0512 26.9624 79.9848 26.9564 79.92C26.8327 78.6617 28.3218 76.5329 30.1308 75.439C32.157 74.2139 34.393 74.4025 35.5577 74.5987C36.3558 71.2312 38.8136 68.3012 41.9879 66.9252C44.0081 66.0517 46.2878 65.8193 48.4514 66.2101C49.69 66.4319 50.891 66.8573 51.9848 67.485C55.4081 69.4463 57.9715 73.274 61.9002 73.6542C65.4201 73.9952 68.3546 71.4348 71.3495 69.2381L71.351 69.2366C73.7483 67.4804 76.1819 65.9551 78.9867 66.3368C82.7057 66.8438 84.7274 71.0939 85.1076 71.8075C86.4293 74.2924 86.7521 77.1213 86.5002 79.069Z" fill="#EDA145"/>
<path d="M98.9472 67.1847C94.6911 69.742 91.6072 74.2063 90.7669 79.1037C89.3456 79.0901 87.9259 79.078 86.5047 79.069C86.7566 77.1212 86.4338 74.2923 85.1121 71.8074C84.7319 71.0938 82.7102 66.8437 78.9912 66.3368C76.1864 65.9551 73.7528 67.4804 71.3555 69.2366C73.5341 65.4089 77.1566 62.4171 81.3312 61.0079C81.63 60.9068 81.9302 60.8148 82.235 60.7303C85.2117 59.9035 88.4525 59.8869 91.3749 60.8374C91.5167 60.8827 91.657 60.931 91.7973 60.9823C92.4431 61.2161 93.0722 61.4982 93.6772 61.8317C94.673 62.3809 95.5918 63.0613 96.411 63.8458C97.4249 64.8175 98.2864 65.9475 98.9472 67.1847Z" fill="#CC7914"/>
<path d="M81.3324 61.0077C77.1577 62.4169 73.5352 65.4087 71.3566 69.2364L71.3551 69.2379C68.3603 71.4346 65.4258 73.9949 61.9059 73.654C57.9771 73.2738 55.4138 69.4461 51.9905 67.4847C50.8967 66.8571 49.6957 66.4316 48.457 66.2099C49.0651 65.3936 49.8918 64.7705 50.8212 64.3571C52.9591 63.4036 55.6401 63.565 57.4551 65.0783C58.5143 65.9609 59.3561 67.2403 60.6959 67.5677C62.6693 68.0505 64.3697 66.2566 65.8543 64.8686C69.4918 61.4679 76.0367 60.4435 81.3324 61.0077Z" fill="#F4C790"/>
<path d="M50.8178 64.3572C49.8884 64.7706 49.0617 65.3937 48.4536 66.2099C46.2901 65.8191 44.0104 66.0515 41.9902 66.925C38.8158 68.301 36.3581 71.231 35.56 74.5985C34.3952 74.4023 32.1593 74.2137 30.1331 75.4388C28.3241 76.5327 26.835 78.6615 26.9587 79.9198C26.9647 79.9846 26.9768 80.051 26.9919 80.1159C25.3308 80.1838 23.6696 80.2562 22.01 80.3317C21.0761 77.3534 22.9651 74.0614 25.195 71.7666C31.678 65.0964 41.7805 62.2042 50.8178 64.3572Z" fill="#CC7914"/>
<path d="M105.373 64.9543C103.571 65.1942 101.808 65.7132 100.174 66.5129C99.7526 66.718 99.3422 66.9429 98.9424 67.1842C98.2816 65.9471 97.4201 64.817 96.4062 63.8454C97.5604 63.1378 98.9092 62.7456 100.263 62.7591C101.353 62.7697 102.435 63.0443 103.411 63.5331C104.137 63.8952 104.804 64.375 105.373 64.9543Z" fill="#F4C790"/>
<path d="M139.403 80.5185C138.896 80.4943 138.387 80.4702 137.881 80.446C136.67 76.288 134.021 72.4528 130.16 70.5276C127.156 69.0309 123.406 68.9359 120.411 70.3315C119.216 69.0189 117.823 67.8888 116.278 67.0108C113.004 65.149 109.109 64.455 105.379 64.9543C104.811 64.375 104.144 63.8952 103.418 63.5331C105.385 62.2416 107.635 61.1116 110.01 60.226C109.842 59.9951 109.66 59.7779 109.462 59.5727C115.536 57.7396 123.638 57.4801 128.338 59.7749C136.037 63.5346 139.468 71.9609 139.403 80.5185Z" fill="#F4C790"/>
<path d="M110.007 60.2264C107.633 61.112 105.383 62.242 103.416 63.5335C102.439 63.0447 101.358 62.7701 100.267 62.7595C98.9136 62.746 97.5648 63.1382 96.4106 63.8458C95.5913 63.0613 94.6725 62.3808 93.6768 61.8317C93.0718 61.4982 92.4426 61.2161 91.7969 60.9822C92.764 59.8733 94.1052 58.8655 95.1538 58.5471C97.8152 57.74 100.54 56.9237 103.321 57.0384C105.585 57.1335 107.925 57.9633 109.46 59.5731C109.657 59.7783 109.84 59.9955 110.007 60.2264Z" fill="#CC7914"/>
<path d="M47.5766 79.4326C43.9225 79.5231 40.2698 79.6303 36.6172 79.754C37.2312 77.3792 39.081 75.356 41.3969 74.5413C42.2644 74.235 43.2194 74.0917 44.1066 74.3346C45.2985 74.6605 46.2203 75.6457 46.7634 76.7546C47.1753 77.5965 47.4001 78.5093 47.5766 79.4326Z" fill="#CC7914"/>
<path d="M81.4796 79.0477C77.2265 79.0386 72.9734 79.0507 68.7188 79.0854C69.4128 77.5646 70.1083 76.0438 70.8038 74.523C71.6759 73.8848 72.9824 73.1002 74.7084 72.6295C76.1357 72.2418 77.2748 71.9159 78.4607 72.4364C79.7642 73.0082 80.6332 74.3102 81.027 75.6787C81.4072 76.9973 81.5098 78.1741 81.4796 79.0477Z" fill="#CC7914"/>
<path d="M124.862 79.8973C122.594 79.8143 120.326 79.7359 118.059 79.665C117.531 75.9052 114.827 72.5106 111.257 71.1934C107.526 69.816 103.038 70.7816 100.203 73.5712C98.2746 74.9396 96.7976 76.9281 96.0432 79.1656C94.284 79.1415 92.5248 79.1203 90.7656 79.1037C91.606 74.2064 94.6899 69.742 98.946 67.1847C99.3458 66.9433 99.7562 66.7185 100.177 66.5133C101.811 65.7137 103.575 65.1947 105.376 64.9548C109.106 64.4554 113.001 65.1494 116.275 67.0112C117.82 67.8893 119.213 69.0194 120.408 70.332C121.963 72.0414 123.185 74.0585 123.971 76.2296C124.321 77.1922 124.587 78.1834 124.757 79.1928C124.797 79.4266 124.831 79.662 124.862 79.8973Z" fill="#EDA145"/>
<path d="M118.058 79.6648C110.721 79.434 103.383 79.2665 96.043 79.1654C96.7973 76.928 98.2744 74.9394 100.203 73.571C103.037 70.7814 107.526 69.8158 111.257 71.1933C114.827 72.5104 117.53 75.905 118.058 79.6648Z" fill="#CC7914"/>
<path d="M132.392 80.1977C130.506 80.1148 127.302 79.5248 124.755 79.1929C124.584 78.1836 124.319 77.1923 123.969 76.2298C125.613 75.3517 128.207 75.1057 129.667 75.8013C131.095 76.4817 132.142 78.4431 132.392 80.1977Z" fill="#CC7914"/>
<path d="M137.872 80.4464C136.051 80.3604 134.228 80.2774 132.407 80.1989C132.401 80.1989 132.395 80.1989 132.389 80.1974C132.139 78.4428 131.092 76.4814 129.664 75.801C128.204 75.1054 125.61 75.3514 123.966 76.2294C123.18 74.0584 121.958 72.0412 120.402 70.3318C123.397 68.9362 127.148 69.0313 130.152 70.5279C134.013 72.4531 136.662 76.2883 137.872 80.4464Z" fill="#EDA145"/>
<mask id="mask0_1811_12010" style="mask-type:luminance" maskUnits="userSpaceOnUse" x="16" y="77" width="66" height="66">
<path d="M81.4159 77.9172H16.9688V142.352H81.4159V77.9172Z" fill="white"/>
</mask>
<g mask="url(#mask0_1811_12010)">
<path d="M81.4161 142.34C80.3359 142.338 78.6944 142.338 76.6908 142.34C71.2382 142.346 71.2352 142.364 70.2816 142.34C66.3801 142.24 63.4275 141.845 61.531 141.586C60.2169 141.406 58.3913 141.014 54.7417 140.228C52.2628 139.694 50.6183 139.357 50.0646 138.116C49.6949 137.286 50.1053 136.726 49.612 135.702C49.0598 134.558 47.975 134.066 47.3489 133.74C46.8238 133.467 45.2879 132.049 42.2192 129.214C42.2192 129.214 39.2635 126.485 36.486 123.028C32.9978 118.688 30.9217 114.56 29.3587 111.047C28.9951 110.228 28.6586 109.442 28.3388 108.695C27.3189 106.313 26.5027 104.409 25.8449 102.505C25.8433 102.503 25.8433 102.5 25.8433 102.499C25.3304 101.019 24.9125 99.5387 24.567 97.8323C23.9801 94.9401 22.8877 92.1519 22.4547 89.2325C22.4019 88.8749 22.3536 88.5249 22.2948 88.1854V88.1839C22.2782 88.0889 22.2616 87.9938 22.242 87.9003C22.07 87.0298 21.7879 86.2422 21.0969 85.6115C20.1313 84.7289 18.9937 84.7289 18.1382 84.2703C18.1367 84.2703 18.1367 84.2703 18.1367 84.2688C17.9285 84.1586 17.7384 84.0198 17.5709 83.8358V83.8343C17.4819 83.7377 17.4005 83.626 17.325 83.4993C17.2586 83.3877 17.2013 83.2655 17.1515 83.1387C16.9207 82.5443 16.8875 81.8125 17.1741 81.2362C17.7067 80.1605 19.1838 79.9432 22.4547 79.5766C25.9821 79.1813 27.7459 78.9837 28.3388 78.9731C32.3143 78.9022 36.2823 78.5431 40.2578 78.5205C45.8386 78.4888 48.9466 78.4541 50.9864 78.4239C51.6442 78.4149 53.0926 78.3787 55.0811 78.3636C57.7893 78.3425 59.7748 78.3666 60.1731 78.3696C62.6158 78.3938 68.3067 78.3108 81.5972 77.917" fill="#E9E9E9"/>
</g>
<mask id="mask1_1811_12010" style="mask-type:luminance" maskUnits="userSpaceOnUse" x="16" y="77" width="66" height="66">
<path d="M81.4159 77.9172H16.9688V142.352H81.4159V77.9172Z" fill="white"/>
</mask>
<g mask="url(#mask1_1811_12010)">
<path d="M37.082 86.9697C38.7854 86.929 38.6587 86.9667 44.5835 86.9697C45.4193 86.9697 47.1362 86.9727 49.1942 86.9712C49.1972 87.0919 49.2364 87.2126 49.3134 87.3167L57.032 97.7134L37.6855 91.1942C37.8967 88.1299 37.3687 87.3197 37.082 86.9697Z" fill="#B3D4CA"/>
</g>
<mask id="mask2_1811_12010" style="mask-type:luminance" maskUnits="userSpaceOnUse" x="16" y="77" width="66" height="66">
<path d="M81.4159 77.9172H16.9688V142.352H81.4159V77.9172Z" fill="white"/>
</mask>
<g mask="url(#mask2_1811_12010)">
<path d="M57.4737 99.1284L49.4653 106.167C49.1243 105.794 48.723 105.423 48.2523 105.074C47.3289 104.392 46.1566 103.528 44.6313 103.716C44.3477 103.751 42.9521 103.959 42.2173 105.074C41.6802 105.889 41.7647 106.782 41.9156 108.391C41.9729 109.009 42.0333 109.607 42.3079 110.355C42.3079 110.355 42.7409 111.538 43.5752 112.467C40.8157 112.265 43.7608 112.472 34.8245 111.713C29.9845 111.301 29.8155 111.299 29.3569 111.047C28.9933 110.228 28.6568 109.442 28.337 108.695C27.3171 106.313 26.5008 104.409 25.843 102.505C25.8415 102.503 25.8415 102.5 25.8415 102.499C25.5217 101.147 25.1203 99.6021 24.5651 97.8324C23.9782 94.9401 22.8859 92.152 22.4529 89.2326C22.4001 88.875 22.3518 88.525 22.293 88.1855V88.184C22.9176 87.4493 23.6689 87.6424 28.9405 87.4221C28.6432 88.3304 28.7187 89.1059 28.7896 89.8361C28.9254 91.2256 29.3946 92.2214 29.8457 93.1553C30.4024 94.308 30.7434 95.0156 31.5053 95.7202C32.0469 96.2211 33.266 97.3496 34.6737 97.078C35.9093 96.8396 36.5837 95.6613 36.9368 95.0443C37.3471 94.3261 37.4905 93.614 37.59 92.5141L57.4737 99.1284Z" fill="#B3D4CA"/>
</g>
<mask id="mask3_1811_12010" style="mask-type:luminance" maskUnits="userSpaceOnUse" x="16" y="77" width="66" height="66">
<path d="M81.4159 77.9172H16.9688V142.352H81.4159V77.9172Z" fill="white"/>
</mask>
<g mask="url(#mask3_1811_12010)">
<path d="M57.8118 100.441L55.7282 113.311C55.3133 113.282 54.8848 113.252 54.4383 113.222C53.5949 113.164 52.845 113.113 52.1646 113.066C52.1344 112.009 51.9383 110.414 51.119 108.695C50.944 108.332 50.674 107.775 50.25 107.155L57.8118 100.441Z" fill="#B3D4CA"/>
</g>
<mask id="mask4_1811_12010" style="mask-type:luminance" maskUnits="userSpaceOnUse" x="16" y="77" width="66" height="66">
<path d="M81.4159 77.9172H16.9688V142.352H81.4159V77.9172Z" fill="white"/>
</mask>
<g mask="url(#mask4_1811_12010)">
<path d="M58.9818 100.77L65.1917 112.419L64.4313 113.913C63.0101 113.81 60.7032 113.652 57.0234 113.4L58.9818 100.77Z" fill="#B3D4CA"/>
</g>
<mask id="mask5_1811_12010" style="mask-type:luminance" maskUnits="userSpaceOnUse" x="16" y="77" width="66" height="66">
<path d="M81.4159 77.9172H16.9688V142.352H81.4159V77.9172Z" fill="white"/>
</mask>
<g mask="url(#mask5_1811_12010)">
<path d="M58.2872 97.3722L50.5625 86.9695H51.1056C57.5736 86.9589 57.8723 86.9197 60.0193 86.9695C62.9794 87.0374 62.3819 87.1113 66.9594 87.2712C69.5892 87.3633 71.6395 87.404 73.1468 87.4191C73.1377 87.4251 73.1287 87.4327 73.1196 87.4387L58.8651 97.9863L58.7866 98.0451L58.2872 97.3722Z" fill="#B3D4CA"/>
</g>
<mask id="mask6_1811_12010" style="mask-type:luminance" maskUnits="userSpaceOnUse" x="16" y="77" width="66" height="66">
<path d="M81.4159 77.9172H16.9688V142.352H81.4159V77.9172Z" fill="white"/>
</mask>
<g mask="url(#mask6_1811_12010)">
<path d="M74.5046 92.2504L65.8264 111.045L59.4414 99.0639L73.8393 88.4092C74.1063 88.21 74.1637 87.8328 73.9645 87.5643C73.9238 87.51 73.877 87.4632 73.8227 87.427C75.0432 87.4345 75.8157 87.427 76.1642 87.4224C76.2487 87.4209 76.3332 87.4209 76.4162 87.4194L74.9572 90.7417L74.5046 92.2504Z" fill="#B3D4CA"/>
</g>
<mask id="mask7_1811_12010" style="mask-type:luminance" maskUnits="userSpaceOnUse" x="16" y="77" width="66" height="66">
<path d="M81.4159 77.9172H16.9688V142.352H81.4159V77.9172Z" fill="white"/>
</mask>
<g mask="url(#mask7_1811_12010)">
<path d="M77.7087 87.5219L77.4492 87.4012C77.6167 87.3982 77.7796 87.3952 77.9411 87.3906C77.8626 87.4329 77.7857 87.4766 77.7087 87.5219Z" fill="#A1969D"/>
</g>
<mask id="mask8_1811_12010" style="mask-type:luminance" maskUnits="userSpaceOnUse" x="16" y="77" width="66" height="66">
<path d="M81.4159 77.9172H16.9688V142.352H81.4159V77.9172Z" fill="white"/>
</mask>
<g mask="url(#mask8_1811_12010)">
<path d="M81.4141 114.489C79.4316 114.568 76.4579 114.631 72.8324 114.489C71.117 114.423 70.1605 114.344 67.5217 114.144L66.5078 111.864L74.2808 95.9438C74.2808 95.9469 74.2823 95.9484 74.2823 95.9514C74.9613 99.3083 77.935 101.745 81.3583 101.755C81.3764 106 81.3945 110.245 81.4141 114.489Z" fill="#B3D4CA"/>
</g>
<mask id="mask9_1811_12010" style="mask-type:luminance" maskUnits="userSpaceOnUse" x="16" y="77" width="66" height="66">
<path d="M81.4159 77.9172H16.9688V142.352H81.4159V77.9172Z" fill="white"/>
</mask>
<g mask="url(#mask9_1811_12010)">
<path d="M81.3635 101.755C77.9401 101.745 74.9664 99.3082 74.2875 95.9512C74.2875 95.9482 74.286 95.9467 74.286 95.9437L66.513 111.864L67.5268 114.144C67.2885 114.125 67.0365 114.106 66.768 114.086H66.7664C66.3244 114.053 65.8416 114.015 65.306 113.976C65.0616 113.958 64.7734 113.937 64.4355 113.913L65.1959 112.419L58.9859 100.77L57.0276 113.4C56.8299 113.385 56.6293 113.371 56.4241 113.358H56.4226C56.1978 113.342 55.9684 113.326 55.7331 113.311L57.8166 100.441L50.2548 107.155C50.6788 107.775 50.9489 108.332 51.1239 108.696C51.9431 110.414 52.1393 112.009 52.1694 113.066C48.5153 112.817 46.8662 112.709 43.5802 112.467C42.7459 111.538 42.3129 110.355 42.3129 110.355C42.0383 109.607 41.9779 109.009 41.9206 108.391C41.7697 106.782 41.6852 105.889 42.2223 105.075C42.9571 103.96 44.3527 103.751 44.6363 103.717C46.1616 103.528 47.3339 104.393 48.2573 105.075C48.728 105.423 49.1293 105.794 49.4703 106.167L57.4787 99.1286L37.595 92.5143C37.4955 93.6142 37.3521 94.3263 36.9418 95.0445C36.5887 95.6616 35.9143 96.8399 34.6787 97.0783C33.271 97.3498 32.0519 96.2213 31.5103 95.7204C30.7484 95.0158 30.4074 94.3082 29.8507 93.1555C29.3996 92.2216 28.9304 91.2259 28.7946 89.8363C28.7237 89.1061 28.6482 88.3306 28.9455 87.4223C33.7116 87.2232 33.2393 87.0603 37.0926 86.9697C37.3793 87.3198 37.9073 88.1299 37.6961 91.1942L57.0426 97.7134L49.324 87.3167C49.247 87.2126 49.2078 87.0919 49.2048 86.9712C49.6453 86.9712 50.1025 86.9712 50.5687 86.9697L58.2934 97.3725L58.7928 98.0454L58.8712 97.9865L73.1258 87.439C73.1348 87.4329 73.1439 87.4254 73.1529 87.4193C73.3913 87.4224 73.6146 87.4239 73.8258 87.4269C73.8273 87.4269 73.8273 87.4269 73.8273 87.4269C73.8816 87.4631 73.9284 87.5099 73.9692 87.5642C74.1683 87.8327 74.111 88.2099 73.8439 88.4091L59.4461 99.0638L65.831 111.045L74.5093 92.2503L74.9619 90.7416L76.4208 87.4193C76.7769 87.4148 77.1194 87.4088 77.4528 87.4012H77.4543L77.7138 87.5219C77.7908 87.4767 77.8677 87.4329 77.9462 87.3907C79.2965 87.3575 80.4356 87.3122 81.2986 87.2715C81.3197 92.0994 81.3408 96.9274 81.3635 101.755Z" fill="#E9E9E9"/>
</g>
<mask id="mask10_1811_12010" style="mask-type:luminance" maskUnits="userSpaceOnUse" x="16" y="77" width="66" height="66">
<path d="M81.4159 77.9172H16.9688V142.352H81.4159V77.9172Z" fill="white"/>
</mask>
<g mask="url(#mask10_1811_12010)">
<path d="M59.4494 99.0643L59.0586 99.3524L59.4297 99.0281L59.4494 99.0643Z" fill="white"/>
</g>
<mask id="mask11_1811_12010" style="mask-type:luminance" maskUnits="userSpaceOnUse" x="16" y="77" width="66" height="66">
<path d="M81.4159 77.9172H16.9688V142.352H81.4159V77.9172Z" fill="white"/>
</mask>
<g mask="url(#mask11_1811_12010)">
<path d="M59.4494 99.0643L59.0586 99.3524L59.4297 99.0281L59.4494 99.0643Z" fill="white"/>
</g>
<mask id="mask12_1811_12010" style="mask-type:luminance" maskUnits="userSpaceOnUse" x="16" y="77" width="66" height="66">
<path d="M81.4159 77.9172H16.9688V142.352H81.4159V77.9172Z" fill="white"/>
</mask>
<g mask="url(#mask12_1811_12010)">
<path d="M81.4393 82.4433C81.4559 82.8763 81.0591 83.2474 80.6321 83.2339C66.88 82.9744 52.7703 82.4101 39.0182 82.6168C33.9911 82.7511 28.9806 83.0724 23.9746 83.5447C23.7256 83.5598 23.1961 83.5975 22.7932 83.6261C23.8418 84.9584 23.4541 86.9469 22.1762 87.9004C22.0057 87.0299 21.7266 86.2423 21.0446 85.6116C20.0896 84.729 18.9656 84.729 18.1207 84.2704C18.1177 84.2719 18.1131 84.2734 18.1101 84.2749C18.1131 84.2734 18.1146 84.2719 18.1192 84.2689C17.914 84.1587 17.7254 84.0199 17.5594 83.8359V83.8344C17.4719 83.7378 17.3905 83.6261 17.3165 83.4994C17.2517 83.3878 17.1943 83.2656 17.1445 83.1388C17.6484 82.6802 18.6035 82.6319 19.1753 82.5338C20.5588 82.3709 21.9996 82.3241 23.3877 82.2728C25.7594 82.1672 28.2941 81.9756 30.6598 81.8956C38.6923 81.5079 47.5833 81.7221 55.661 81.8277C63.7011 81.9303 72.6238 82.0027 80.6246 81.7251C81.038 81.7116 81.4257 82.0269 81.4393 82.4433Z" fill="#BDBDBD"/>
</g>
<mask id="mask13_1811_12010" style="mask-type:luminance" maskUnits="userSpaceOnUse" x="81" y="77" width="65" height="66">
<path d="M145.861 77.9177H81.4141V142.353H145.861V77.9177Z" fill="white"/>
</mask>
<g mask="url(#mask13_1811_12010)">
<path d="M81.4115 142.341C82.4918 142.339 84.1333 142.339 86.1369 142.341C91.5895 142.347 91.5925 142.365 92.546 142.341C96.4476 142.241 99.4002 141.846 101.297 141.587C102.611 141.407 104.436 141.015 108.086 140.229C110.565 139.695 112.209 139.358 112.763 138.117C113.133 137.287 112.722 136.727 113.216 135.703C113.768 134.559 114.853 134.067 115.479 133.741C116.004 133.468 117.54 132.05 120.608 129.215C120.608 129.215 123.564 126.486 126.342 123.029C129.83 118.689 131.906 114.561 133.469 111.048C133.833 110.229 134.169 109.443 134.489 108.696C135.509 106.314 136.325 104.41 136.983 102.506C136.984 102.504 136.984 102.501 136.984 102.5C137.497 101.02 137.915 99.5397 138.261 97.8333C138.848 94.941 139.94 92.1529 140.373 89.2335C140.426 88.8759 140.474 88.5259 140.533 88.1864V88.1849C140.549 88.0899 140.566 87.9948 140.586 87.9013C140.758 87.0307 141.04 86.2432 141.731 85.6125C142.696 84.7299 143.834 84.7299 144.689 84.2713C144.691 84.2713 144.691 84.2713 144.691 84.2698C144.899 84.1596 145.089 84.0208 145.257 83.8367V83.8352C145.346 83.7387 145.427 83.627 145.503 83.5003C145.569 83.3886 145.626 83.2664 145.676 83.1397C145.907 82.5453 145.94 81.8135 145.653 81.2372C145.121 80.1615 143.644 79.9442 140.373 79.5776C136.845 79.1823 135.082 78.9846 134.489 78.9741C130.513 78.9032 126.545 78.5441 122.57 78.5215C116.989 78.4898 113.881 78.4551 111.841 78.4249C111.183 78.4159 109.735 78.3796 107.746 78.3646C105.038 78.3434 103.053 78.3676 102.655 78.3706C100.212 78.3947 94.5209 78.3117 81.2305 77.918" fill="#E9E9E9"/>
</g>
<mask id="mask14_1811_12010" style="mask-type:luminance" maskUnits="userSpaceOnUse" x="81" y="77" width="65" height="66">
<path d="M145.861 77.9177H81.4141V142.353H145.861V77.9177Z" fill="white"/>
</mask>
<g mask="url(#mask14_1811_12010)">
<path d="M125.739 86.9702C124.036 86.9295 124.162 86.9672 118.238 86.9702C117.402 86.9702 115.685 86.9732 113.627 86.9717C113.624 87.0924 113.585 87.2131 113.508 87.3172L105.789 97.7139L125.136 91.1947C124.924 88.1304 125.452 87.3202 125.739 86.9702Z" fill="#B3D4CA"/>
</g>
<mask id="mask15_1811_12010" style="mask-type:luminance" maskUnits="userSpaceOnUse" x="81" y="77" width="65" height="66">
<path d="M145.861 77.9177H81.4141V142.353H145.861V77.9177Z" fill="white"/>
</mask>
<g mask="url(#mask15_1811_12010)">
<path d="M105.355 99.1294L113.364 106.168C113.705 105.795 114.106 105.424 114.577 105.075C115.5 104.393 116.672 103.529 118.198 103.717C118.481 103.752 119.877 103.96 120.612 105.075C121.149 105.89 121.064 106.783 120.914 108.392C120.856 109.01 120.796 109.608 120.521 110.356C120.521 110.356 120.088 111.539 119.254 112.468C122.013 112.266 119.068 112.473 128.005 111.714C132.845 111.302 133.014 111.3 133.472 111.048C133.836 110.229 134.172 109.443 134.492 108.696C135.512 106.314 136.328 104.41 136.986 102.506C136.988 102.504 136.988 102.501 136.988 102.5C137.307 101.148 137.709 99.6031 138.264 97.8334C138.851 94.9411 139.943 92.153 140.376 89.2336C140.429 88.876 140.477 88.526 140.536 88.1865V88.185C139.912 87.4503 139.16 87.6434 133.889 87.4231C134.186 88.3314 134.11 89.1068 134.04 89.8371C133.904 91.2266 133.435 92.2224 132.983 93.1563C132.427 94.309 132.086 95.0166 131.324 95.7211C130.782 96.222 129.563 97.3506 128.155 97.079C126.92 96.8406 126.245 95.6623 125.892 95.0452C125.482 94.3271 125.339 93.6149 125.239 92.5151L105.355 99.1294Z" fill="#B3D4CA"/>
</g>
<mask id="mask16_1811_12010" style="mask-type:luminance" maskUnits="userSpaceOnUse" x="81" y="77" width="65" height="66">
<path d="M145.861 77.9177H81.4141V142.353H145.861V77.9177Z" fill="white"/>
</mask>
<g mask="url(#mask16_1811_12010)">
<path d="M105.016 100.442L107.099 113.311C107.514 113.282 107.943 113.252 108.389 113.222C109.233 113.165 109.982 113.114 110.663 113.067C110.693 112.009 110.889 110.414 111.708 108.696C111.883 108.332 112.153 107.776 112.577 107.156L105.016 100.442Z" fill="#B3D4CA"/>
</g>
<mask id="mask17_1811_12010" style="mask-type:luminance" maskUnits="userSpaceOnUse" x="81" y="77" width="65" height="66">
<path d="M145.861 77.9177H81.4141V142.353H145.861V77.9177Z" fill="white"/>
</mask>
<g mask="url(#mask17_1811_12010)">
<path d="M103.851 100.771L97.6406 112.42L98.401 113.913C99.8223 113.811 102.129 113.652 105.809 113.4L103.851 100.771Z" fill="#B3D4CA"/>
</g>
<mask id="mask18_1811_12010" style="mask-type:luminance" maskUnits="userSpaceOnUse" x="81" y="77" width="65" height="66">
<path d="M145.861 77.9177H81.4141V142.353H145.861V77.9177Z" fill="white"/>
</mask>
<g mask="url(#mask18_1811_12010)">
<path d="M104.539 97.373L112.264 86.9702H111.721C105.253 86.9597 104.954 86.9204 102.807 86.9702C99.847 87.0381 100.445 87.112 95.867 87.272C93.2373 87.364 91.1869 87.4047 89.6797 87.4198C89.6887 87.4259 89.6978 87.4334 89.7068 87.4394L103.961 97.987L104.04 98.0459L104.539 97.373Z" fill="#B3D4CA"/>
</g>
<mask id="mask19_1811_12010" style="mask-type:luminance" maskUnits="userSpaceOnUse" x="81" y="77" width="65" height="66">
<path d="M145.861 77.9177H81.4141V142.353H145.861V77.9177Z" fill="white"/>
</mask>
<g mask="url(#mask19_1811_12010)">
<path d="M88.3217 92.2506L97 111.045L103.385 99.0641L88.9871 88.4094C88.72 88.2103 88.6627 87.8331 88.8619 87.5645C88.9026 87.5102 88.9494 87.4634 89.0037 87.4272C87.7831 87.4348 87.0106 87.4272 86.6621 87.4227C86.5776 87.4212 86.4931 87.4212 86.4102 87.4197L87.8691 90.7419L88.3217 92.2506Z" fill="#B3D4CA"/>
</g>
<mask id="mask20_1811_12010" style="mask-type:luminance" maskUnits="userSpaceOnUse" x="81" y="77" width="65" height="66">
<path d="M145.861 77.9177H81.4141V142.353H145.861V77.9177Z" fill="white"/>
</mask>
<g mask="url(#mask20_1811_12010)">
<path d="M85.1152 87.5226L85.3747 87.4019C85.2072 87.3989 85.0442 87.3959 84.8828 87.3914C84.9613 87.4336 85.0382 87.4774 85.1152 87.5226Z" fill="#A1969D"/>
</g>
<mask id="mask21_1811_12010" style="mask-type:luminance" maskUnits="userSpaceOnUse" x="81" y="77" width="65" height="66">
<path d="M145.861 77.9177H81.4141V142.353H145.861V77.9177Z" fill="white"/>
</mask>
<g mask="url(#mask21_1811_12010)">
<path d="M81.4141 114.489C83.3965 114.568 86.3703 114.631 89.9958 114.489C91.7112 114.423 92.6677 114.345 95.3065 114.144L96.3204 111.864L88.5474 95.9441C88.5474 95.9471 88.5459 95.9486 88.5459 95.9516C87.8669 99.3086 84.8932 101.745 81.4699 101.756C81.4518 106 81.4337 110.245 81.4141 114.489Z" fill="#B3D4CA"/>
</g>
<mask id="mask22_1811_12010" style="mask-type:luminance" maskUnits="userSpaceOnUse" x="81" y="77" width="65" height="66">
<path d="M145.861 77.9177H81.4141V142.353H145.861V77.9177Z" fill="white"/>
</mask>
<g mask="url(#mask22_1811_12010)">
<path d="M81.4648 101.756C84.8882 101.745 87.8619 99.3087 88.5408 95.9517C88.5408 95.9487 88.5423 95.9472 88.5423 95.9442L96.3153 111.864L95.3015 114.144C95.5398 114.126 95.7918 114.106 96.0604 114.087H96.0619C96.5039 114.054 96.9867 114.016 97.5223 113.977C97.7667 113.958 98.0549 113.937 98.3929 113.913L97.6325 112.42L103.842 100.771L105.801 113.4C105.998 113.385 106.199 113.372 106.404 113.358H106.406C106.631 113.343 106.86 113.326 107.095 113.311L105.012 100.442L112.573 107.156C112.15 107.776 111.879 108.332 111.704 108.696C110.885 110.414 110.689 112.009 110.659 113.067C114.313 112.818 115.962 112.709 119.248 112.468C120.082 111.538 120.515 110.356 120.515 110.356C120.79 109.607 120.85 109.01 120.908 108.391C121.059 106.783 121.143 105.89 120.606 105.075C119.871 103.96 118.476 103.752 118.192 103.717C116.667 103.529 115.494 104.393 114.571 105.075C114.1 105.424 113.699 105.795 113.358 106.167L105.35 99.1291L125.233 92.5148C125.333 93.6147 125.476 94.3268 125.887 95.045C126.24 95.662 126.914 96.8404 128.15 97.0787C129.557 97.3503 130.776 96.2218 131.318 95.7209C132.08 95.0163 132.421 94.3087 132.978 93.156C133.429 92.2221 133.898 91.2264 134.034 89.8368C134.105 89.1066 134.18 88.3311 133.883 87.4228C129.117 87.2237 129.589 87.0607 125.736 86.9702C125.449 87.3202 124.921 88.1304 125.132 91.1947L105.786 97.7139L113.504 87.3172C113.581 87.2131 113.621 87.0924 113.624 86.9717C113.183 86.9717 112.726 86.9717 112.26 86.9702L104.535 97.3729L104.036 98.0458L103.957 97.987L89.7025 87.4394C89.6935 87.4334 89.6844 87.4259 89.6754 87.4198C89.437 87.4228 89.2137 87.4243 89.0025 87.4274C89.001 87.4274 89.001 87.4274 89.001 87.4274C88.9467 87.4636 88.8999 87.5103 88.8592 87.5647C88.66 87.8332 88.7173 88.2104 88.9844 88.4096L103.382 99.0642L96.9973 111.045L88.319 92.2508L87.8664 90.7421L86.4075 87.4198C86.0514 87.4153 85.7089 87.4093 85.3755 87.4017H85.374L85.1145 87.5224C85.0375 87.4772 84.9606 87.4334 84.8821 87.3912C83.5318 87.358 82.3927 87.3127 81.5297 87.272C81.5086 92.0999 81.4875 96.9279 81.4648 101.756Z" fill="#E9E9E9"/>
</g>
<mask id="mask23_1811_12010" style="mask-type:luminance" maskUnits="userSpaceOnUse" x="81" y="77" width="65" height="66">
<path d="M145.861 77.9177H81.4141V142.353H145.861V77.9177Z" fill="white"/>
</mask>
<g mask="url(#mask23_1811_12010)">
<path d="M103.383 99.064L103.774 99.3522L103.402 99.0278L103.383 99.064Z" fill="white"/>
</g>
<mask id="mask24_1811_12010" style="mask-type:luminance" maskUnits="userSpaceOnUse" x="81" y="77" width="65" height="66">
<path d="M145.861 77.9177H81.4141V142.353H145.861V77.9177Z" fill="white"/>
</mask>
<g mask="url(#mask24_1811_12010)">
<path d="M103.383 99.064L103.774 99.3522L103.402 99.0278L103.383 99.064Z" fill="white"/>
</g>
<mask id="mask25_1811_12010" style="mask-type:luminance" maskUnits="userSpaceOnUse" x="81" y="77" width="65" height="66">
<path d="M145.861 77.9177H81.4141V142.353H145.861V77.9177Z" fill="white"/>
</mask>
<g mask="url(#mask25_1811_12010)">
<path d="M81.3833 82.444C81.3667 82.877 81.7635 83.2482 82.1905 83.2346C95.9426 82.9751 110.052 82.4108 123.804 82.6175C128.832 82.7518 133.842 83.0732 138.848 83.5454C139.097 83.5605 139.627 83.5982 140.029 83.6269C138.981 84.9591 139.369 86.9476 140.646 87.9011C140.817 87.0306 141.096 86.243 141.778 85.6124C142.733 84.7298 143.857 84.7298 144.702 84.2711C144.705 84.2726 144.709 84.2741 144.712 84.2756C144.709 84.2741 144.708 84.2726 144.703 84.2696C144.909 84.1595 145.097 84.0207 145.263 83.8366V83.8351C145.351 83.7385 145.432 83.6269 145.506 83.5001C145.571 83.3885 145.628 83.2663 145.678 83.1396C145.174 82.6809 144.219 82.6326 143.647 82.5346C142.264 82.3716 140.823 82.3248 139.435 82.2735C137.063 82.1679 134.529 81.9763 132.163 81.8964C124.13 81.5086 115.239 81.7229 107.162 81.8285C99.1215 81.9311 90.1989 82.0035 82.198 81.7259C81.7846 81.7123 81.3969 82.0276 81.3833 82.444Z" fill="#BDBDBD"/>
</g>
<path d="M49.6992 135.556C58.9206 136.627 70.1788 137.3 81.4128 137.302C92.4176 137.303 103.99 136.612 113.132 135.577" stroke="#BDBDBD" stroke-width="1.50874" stroke-miterlimit="10"/>
<path d="M62.5149 60.5067C61.7047 59.6181 60.3891 57.9389 59.6302 55.4736C59.2877 54.3616 58.654 52.3022 59.1942 49.8822C59.6468 47.8499 60.712 46.5253 62.5149 44.2848C64.6709 41.6053 65.6003 41.3865 66.4089 39.3527C66.7333 38.5365 67.3353 36.9599 66.8691 35.2264C66.513 33.9062 65.8854 33.787 64.9424 32.1289C63.5197 29.632 63.3145 27.043 63.5227 26.9736C63.6676 26.9253 63.9346 28.1293 65.0119 29.6124C66.0966 31.1075 66.8193 31.2554 68.1681 32.6087C69.1533 33.5969 70.5006 34.9472 71.0905 37.0202C71.2097 37.4397 71.9068 40.0272 70.6711 42.5422C70.2819 43.3343 69.1382 44.3995 66.8676 46.4981C64.3495 48.8246 64.0161 48.977 63.476 49.8807C62.5662 51.403 62.3987 52.8348 62.2131 54.4175C62.0532 55.7949 61.9642 57.9192 62.5149 60.5067Z" fill="#FAFAFA"/>
<path d="M80.5284 26.9734C80.9765 27.153 80.4726 28.3087 81.1545 30.1735C81.2496 30.4315 81.6117 31.3759 82.4128 32.34C83.3905 33.5183 83.9034 33.3825 84.6488 34.2968C85.732 35.626 85.7562 37.2736 85.7667 37.9314C85.7743 38.4609 85.7773 40.1477 84.6488 41.7756C84.4179 42.1076 83.7133 43.1018 82.44 43.74C81.4698 44.2273 81.1334 44.0237 79.4451 44.6875C77.956 45.2729 77.6165 45.6667 77.5094 45.8009C76.7324 46.768 76.9376 47.9977 76.8214 47.9946C76.6992 47.9916 76.2345 46.6157 76.8214 45.4313C77.3887 44.2877 78.3483 44.5064 79.7559 43.0777C80.1708 42.6567 80.9116 41.8873 81.2933 40.6622C81.4427 40.1824 81.7701 38.8849 81.2933 37.4848C80.797 36.0258 79.9852 36.0907 78.988 34.4371C78.6168 33.8201 77.6603 32.2344 77.9394 30.3968C78.2472 28.3811 79.943 26.7381 80.5284 26.9734Z" fill="#FAFAFA"/>
<path d="M96.8334 49.8839C96.678 50.0423 94.7906 48.9168 93.3875 46.9162C92.013 44.9579 91.6705 42.9664 91.5709 41.9857C91.4985 41.2796 91.3039 39.1236 92.3389 36.8137C92.8383 35.7003 93.0676 35.7908 94.8539 33.2486C96.2073 31.3235 96.8832 30.3624 97.5093 28.9849C97.7371 28.4855 98.5036 26.6147 98.7676 24.0227C98.831 23.4026 98.9155 22.526 98.837 21.4367C98.5805 17.8912 96.859 15.9072 97.2302 15.6356C97.6315 15.3414 100.003 17.4054 101.563 20.109C101.805 20.5285 102.545 21.8607 103.058 23.7541C103.372 24.9113 103.733 26.2405 103.59 28.0073C103.544 28.561 103.345 30.4303 102.192 32.4113C101.634 33.3693 101.559 33.143 99.8871 35.3307C98.9366 36.5739 99.1765 36.3657 97.5802 38.5518C96.3793 40.1963 96.0549 40.572 95.6234 41.4712C95.293 42.1607 94.9535 42.8819 94.8208 43.9033C94.7755 44.2533 94.6472 45.4679 95.1225 46.9193C95.7486 48.8293 96.9647 49.7512 96.8334 49.8839Z" fill="#FAFAFA"/>
</svg>
