<svg width="45" height="45" viewBox="0 0 45 45" fill="none" xmlns="http://www.w3.org/2000/svg">
<path d="M31.9394 0H12.4084C5.55544 0 0 5.55544 0 12.4084V31.9394C0 38.7924 5.55544 44.3478 12.4084 44.3478H31.9394C38.7924 44.3478 44.3478 38.7924 44.3478 31.9394V12.4084C44.3478 5.55544 38.7924 0 31.9394 0Z" fill="#8C77EC"/>
<path fill-rule="evenodd" clip-rule="evenodd" d="M27.3693 30.4731C26.5566 29.9757 25.8512 29.5564 25.2433 29.1793C24.8759 28.955 24.5444 28.7469 24.242 28.5454L24.1445 28.4803L24.1087 28.4608L23.9072 28.3373C21.2318 26.7216 20.8514 24.8882 20.224 22.3818C19.9347 21.2375 19.9867 19.417 20.276 18.2695C20.9067 15.7631 21.287 13.9296 23.9625 12.314L24.164 12.1937L24.1998 12.1742L24.3005 12.1092C24.6029 11.9109 24.9377 11.6996 25.3018 11.4752C25.913 11.0981 26.6151 10.6788 27.4311 10.1814C29.9212 8.66002 32.2196 7.26867 31.2638 11.0591C30.6332 13.5655 30.2528 15.399 27.5774 17.0179L27.3758 17.1382L27.3401 17.1577L27.2393 17.2227C26.937 17.421 26.6054 17.6323 26.238 17.8566C25.6269 18.2337 24.9247 18.6531 24.112 19.1505C21.6219 20.6718 21.5893 20.0022 24.06 21.5106C24.8727 22.0079 25.5781 22.4273 26.186 22.8044C26.5534 23.0287 26.8849 23.2367 27.1873 23.4383L27.2881 23.5033L27.3238 23.5228L27.5254 23.6431C30.2008 25.262 30.5779 27.0922 31.2118 29.5986C32.1643 33.3891 29.866 31.9977 27.3758 30.4763L27.3693 30.4731ZM12.9129 13.1592C12.8999 14.2612 12.8804 15.2104 12.8739 16.0394C12.8706 16.5368 12.8674 26.2405 12.8739 26.6599L12.8771 26.7964V26.8452L12.8739 27.115C12.8154 30.7299 14.1645 32.235 15.9459 34.4001C18.6441 37.6737 18.6929 34.5659 18.7319 31.1883C18.7449 30.0862 18.7644 29.137 18.7709 28.308C18.7741 27.8107 18.7774 18.1069 18.7676 17.6876L18.7644 17.551V17.5023L18.7676 17.2325C18.8261 13.6175 17.477 12.1124 15.6956 9.94735C12.9974 6.67377 12.9486 9.78156 12.9096 13.1592H12.9129Z" fill="white"/>
</svg>
