<svg width="32" height="32" viewBox="0 0 32 32" fill="none" xmlns="http://www.w3.org/2000/svg">
<rect y="0.847656" width="32" height="30.3047" rx="4.28571" fill="#FAFAFA"/>
<path d="M16.3828 16.2627L30.2497 11.209" stroke="#0C2503" stroke-width="1.66564" stroke-linecap="round"/>
<path d="M25.8663 14.9655C27.2461 14.9655 28.387 16.0926 28.1463 17.4513C27.6464 20.2722 26.3031 22.8942 24.268 24.9484C21.6449 27.596 18.0873 29.0834 14.3777 29.0834C10.6681 29.0834 7.11042 27.596 4.48734 24.9484C2.45221 22.8942 1.10899 20.2722 0.609083 17.4513C0.368304 16.0926 1.50923 14.9655 2.88909 14.9655L14.3777 14.9655H25.8663Z" fill="#FAFAFA"/>
<path d="M1.20308 14.4207L1.17898 14.4508C0.80469 14.9184 1.13754 15.6112 1.73641 15.6112H27.9378C27.7703 15.6112 27.6345 15.4754 27.6345 15.3079V15.1714C27.6345 15.0348 27.5711 14.906 27.4628 14.8227L26.8641 14.3624C26.7737 14.2929 26.6628 14.2552 26.5488 14.2552H26.4691C26.2274 14.2552 26.0314 14.0592 26.0314 13.8175V13.2914C26.0314 12.9291 25.7936 12.6097 25.4465 12.5059L25.313 12.4659C25.0451 12.3858 24.8616 12.1393 24.8616 11.8597C24.8616 11.6139 24.7193 11.3904 24.4966 11.2864L24.3834 11.2336C24.3269 11.2072 24.2735 11.1745 24.2243 11.1361L23.5338 10.5975C23.4148 10.5047 23.3452 10.3621 23.3452 10.2112C23.3452 10.1114 23.3147 10.014 23.2579 9.93202L22.8898 9.40103C22.7951 9.2644 22.6394 9.18288 22.4732 9.18288C22.2893 9.18288 22.1199 9.08335 22.0304 8.92276L21.8832 8.65876C21.8191 8.54374 21.7854 8.41221 21.7854 8.28053C21.7854 8.10203 21.7226 7.92646 21.6079 7.7897C21.4244 7.57092 21.1337 7.47356 20.8554 7.53768L20.5049 7.61846C20.4057 7.64132 20.3043 7.65285 20.2025 7.65285H19.6191H18.6904C18.5333 7.65285 18.406 7.52548 18.406 7.36837C18.406 7.21125 18.2786 7.08388 18.1215 7.08388H18.0195C17.883 7.08388 17.7567 7.01194 17.6871 6.8946L17.6672 6.86106C17.588 6.72757 17.4443 6.64573 17.2891 6.64573C17.1983 6.64573 17.1097 6.61761 17.0355 6.56524L16.9329 6.49279C16.7919 6.39327 16.6236 6.33984 16.451 6.33984H15.55C15.4659 6.33984 15.3866 6.37925 15.3358 6.4463L15.1894 6.63979C15.0811 6.78277 14.8532 6.70622 14.8532 6.52689C14.8532 6.42359 14.7694 6.33984 14.6661 6.33984H13.0384C12.7485 6.33984 12.5136 6.57482 12.5136 6.86468V7.28921C12.5136 7.37886 12.4677 7.46227 12.3919 7.51026C12.2683 7.5886 12.1045 7.55034 12.0284 7.42536L11.9436 7.28622C11.8671 7.16056 11.7305 7.08388 11.5834 7.08388H10.6176C10.3614 7.08388 10.1159 7.18631 9.93563 7.36837L9.76169 7.54408C9.69278 7.61369 9.59891 7.65285 9.50096 7.65285C9.29835 7.65285 9.13409 7.81711 9.13409 8.01972V8.09342C9.13409 8.30878 8.95951 8.48336 8.74416 8.48336H8.70398C8.51081 8.48336 8.35422 8.63995 8.35422 8.83312C8.35422 9.02629 8.19762 9.18288 8.00446 9.18288H6.63863C6.37386 9.18288 6.1432 9.3634 6.07958 9.62041C6.01595 9.87742 5.78529 10.0579 5.52052 10.0579H5.4131C5.12206 10.0579 4.86022 10.2348 4.75152 10.5048L4.43994 11.2786C4.39658 11.3863 4.29214 11.4568 4.17606 11.4568C4.01895 11.4568 3.89159 11.5842 3.89159 11.7413V12.1541C3.89159 12.4658 3.68473 12.7396 3.38492 12.8248L2.72282 13.013C2.58383 13.0525 2.46712 13.1473 2.39995 13.2752L2.26838 13.5258C2.18773 13.6794 1.98935 13.7253 1.84941 13.6228C1.73028 13.5355 1.56413 13.5542 1.46735 13.6657L1.42302 13.7168C1.36665 13.7818 1.33561 13.8649 1.33561 13.9509V14.0431C1.33561 14.1804 1.28887 14.3136 1.20308 14.4207Z" fill="#0C2503" stroke="#0C2503" stroke-width="0.620543" stroke-linecap="round"/>
<path d="M27.5319 14.9655C27.9919 14.9655 28.3673 15.3388 28.3404 15.798C28.1392 19.2387 26.696 22.4977 24.268 24.9484C21.6449 27.596 18.0873 29.0834 14.3777 29.0834C10.6681 29.0834 7.11042 27.596 4.48734 24.9484C2.05932 22.4977 0.616153 19.2387 0.41494 15.798C0.388087 15.3388 0.763492 14.9655 1.22345 14.9655L14.3777 14.9655H27.5319Z" fill="#0C2503"/>
<path d="M0.484375 15.4063L0.605526 15.2283C0.631348 15.1903 0.665004 15.1584 0.704225 15.1346V15.1346C0.754463 15.104 0.812117 15.0879 0.870899 15.0879H5.48559H27.5822C27.8012 15.0879 28.014 15.161 28.1867 15.2957L28.2443 15.3406C28.2707 15.3611 28.2944 15.3849 28.3148 15.4114V15.4114" stroke="#FAFAFA" stroke-width="0.536267" stroke-linecap="round"/>
<path d="M10.1959 28.6415C10.1956 28.2506 10.5124 27.9335 10.9033 27.9335H17.8643C18.2553 27.9335 18.5722 28.2505 18.5722 28.6415V29.1419C18.5722 30.0799 17.8118 30.8404 16.8737 30.8404H11.8944C10.9563 30.8404 10.1959 30.0799 10.1959 29.1419V28.6415Z" fill="#0C2503"/>
</svg>
