<svg width="29" height="29" viewBox="0 0 29 29" fill="none" xmlns="http://www.w3.org/2000/svg">
<path d="M15.293 14.9755L28.0532 10.3682" stroke="#A392F0" stroke-width="1.02967" stroke-linecap="round"/>
<path d="M24.7871 13.7937C25.6401 13.7937 26.3412 14.4877 26.2391 15.3346C25.896 18.1805 24.6095 20.8471 22.5618 22.8948C20.1481 25.3086 16.8743 26.6646 13.4607 26.6646C10.0472 26.6646 6.7734 25.3086 4.35964 22.8948C2.31193 20.8471 1.02546 18.1805 0.682365 15.3346C0.580265 14.4877 1.28134 13.7937 2.13435 13.7937L13.4607 13.7937H24.7871Z" fill="#0C2503"/>
<path d="M1.33058 13.2963L1.30779 13.3245C0.964586 13.7492 1.26688 14.3821 1.81294 14.3821H25.9314C25.7773 14.3821 25.6524 14.2572 25.6524 14.1031V13.9819C25.6524 13.857 25.594 13.7392 25.4947 13.6635L24.9432 13.2434C24.8601 13.1802 24.7586 13.1459 24.6541 13.1459H24.5762C24.3558 13.1459 24.1772 12.9673 24.1772 12.7469V12.272C24.1772 11.939 23.9582 11.6457 23.639 11.5511L23.5123 11.5135C23.2682 11.4412 23.1007 11.2169 23.1007 10.9622C23.1007 10.7382 22.9706 10.5345 22.7672 10.4404L22.6602 10.3909C22.6085 10.367 22.5597 10.3374 22.5147 10.3026L21.8778 9.81042C21.769 9.72638 21.7053 9.59668 21.7053 9.45923C21.7053 9.3682 21.6773 9.27937 21.6252 9.20479L21.2871 8.72166C21.1994 8.59628 21.056 8.52161 20.903 8.52161C20.7337 8.52161 20.5775 8.43028 20.4944 8.28269L20.3599 8.04352C20.301 7.93885 20.27 7.82037 20.27 7.70028C20.27 7.5355 20.2116 7.37548 20.1051 7.24971C19.937 7.05113 19.6722 6.96282 19.4186 7.02074L19.0915 7.09541C19.0004 7.11622 18.9072 7.12672 18.8137 7.12672H18.2766H17.4196C17.2764 7.12672 17.1602 7.0106 17.1602 6.86736C17.1602 6.72412 17.0441 6.608 16.9009 6.608H16.804C16.6787 6.608 16.5627 6.54224 16.4983 6.43478L16.4814 6.40642C16.4079 6.28368 16.2753 6.20856 16.1322 6.20856C16.0488 6.20856 15.9674 6.18291 15.899 6.13508L15.8047 6.06912C15.6749 5.97836 15.5204 5.92969 15.3621 5.92969H14.5316C14.4545 5.92969 14.3818 5.96563 14.335 6.02689L14.1987 6.20527C14.0991 6.33559 13.891 6.26517 13.891 6.10116C13.891 6.00646 13.8142 5.92969 13.7195 5.92969H12.2165C11.9523 5.92969 11.7381 6.14391 11.7381 6.40816V6.79318C11.7381 6.87612 11.6954 6.95323 11.6252 6.99733C11.5117 7.0686 11.3618 7.0336 11.2917 6.91944L11.2138 6.79289C11.1432 6.678 11.018 6.608 10.8831 6.608H9.99164C9.7569 6.608 9.53177 6.70131 9.36585 6.86736L9.20579 7.02756C9.14235 7.09105 9.05627 7.12672 8.96652 7.12672C8.77971 7.12672 8.62827 7.27816 8.62827 7.46497V7.52505C8.62827 7.72322 8.46762 7.88387 8.26945 7.88387H8.2295C8.05339 7.88387 7.91063 8.02663 7.91063 8.20274C7.91063 8.37885 7.76787 8.52161 7.59176 8.52161H6.32833C6.0867 8.52161 5.87608 8.68607 5.8175 8.92049C5.75893 9.15491 5.54831 9.31938 5.30668 9.31938H5.20392C4.93612 9.31938 4.69503 9.48164 4.59421 9.72973L4.3091 10.4313C4.26894 10.5301 4.17292 10.5947 4.06625 10.5947C3.92148 10.5947 3.80412 10.7121 3.80412 10.8568V11.2297C3.80412 11.5141 3.61499 11.7638 3.34121 11.8409L2.72823 12.0135C2.60055 12.0495 2.49316 12.1361 2.43105 12.2533L2.31105 12.4798C2.2363 12.6208 2.05401 12.6631 1.92482 12.5693C1.81499 12.4896 1.66249 12.5067 1.57307 12.6088L1.53347 12.654C1.48102 12.7139 1.45211 12.7908 1.45211 12.8704V12.9525C1.45211 13.0776 1.40921 13.199 1.33058 13.2963Z" fill="#D1C9F7" stroke="#D1C9F7" stroke-width="0.383609" stroke-linecap="round"/>
<path d="M25.8168 13.7937C26.1011 13.7937 26.3327 14.0244 26.3213 14.3085C26.1923 17.535 24.854 20.6027 22.5618 22.8948C20.1481 25.3086 16.8743 26.6646 13.4607 26.6646C10.0472 26.6646 6.7734 25.3086 4.35964 22.8948C2.06749 20.6027 0.72917 17.535 0.600132 14.3085C0.58877 14.0244 0.820343 13.7937 1.10468 13.7937L13.4607 13.7937H25.8168Z" fill="#8C77EC"/>
<path d="M9.65625 25.9902H17.3647V26.6356V28.6403H9.65676V26.6356L9.65625 25.9902Z" fill="#A392F0"/>
</svg>
