<svg width="294" height="244" viewBox="0 0 294 244" fill="none" xmlns="http://www.w3.org/2000/svg">
<g filter="url(#filter0_d_2251_27379)">
<g clip-path="url(#clip0_2251_27379)">
<rect x="4.29492" y="0.52832" width="285.714" height="235.945" rx="27.6498" fill="white"/>
<g filter="url(#filter1_d_2251_27379)">
<rect x="18.1199" y="19.4219" width="258.065" height="152.074" rx="7.74768" fill="#EDFAE7"/>
<path d="M46.2132 84.9235C43.0296 84.9235 40.967 82.7114 40.967 79.2886C40.967 75.8957 43.1043 73.6388 46.3029 73.6388C48.8887 73.6388 50.8168 75.1484 51.1904 77.495H49.1726C48.799 76.2246 47.7079 75.4772 46.2581 75.4772C44.2403 75.4772 42.9698 76.942 42.9698 79.2737C42.9698 81.5904 44.2552 83.0851 46.2581 83.0851C47.7378 83.0851 48.8737 82.3078 49.2324 81.0972H51.2203C50.8018 83.3989 48.799 84.9235 46.2132 84.9235ZM57.3005 77.3306V79.0196H56.6279C55.3126 79.0196 54.4905 79.7221 54.4905 81.157V84.7441H52.667V77.3755H54.3859L54.4905 78.4516C54.8044 77.7192 55.5069 77.226 56.4933 77.226C56.7474 77.226 57.0015 77.2559 57.3005 77.3306ZM61.5898 84.9384C59.3926 84.9384 57.8531 83.3392 57.8531 81.0523C57.8531 78.7356 59.3627 77.1363 61.53 77.1363C63.7421 77.1363 65.1471 78.616 65.1471 80.9178V81.4708L59.5869 81.4858C59.7215 82.7861 60.409 83.4438 61.6197 83.4438C62.6211 83.4438 63.2788 83.0552 63.488 82.3527H65.177C64.8631 83.9669 63.5179 84.9384 61.5898 84.9384ZM61.5449 78.631C60.4688 78.631 59.8111 79.2139 59.6318 80.3199H63.3385C63.3385 79.3036 62.636 78.631 61.5449 78.631ZM68.7306 84.9384C67.1613 84.9384 66.2047 84.0267 66.2047 82.6367C66.2047 81.2765 67.1911 80.4246 68.9399 80.29L71.152 80.1256V79.9612C71.152 78.9598 70.5541 78.5562 69.6274 78.5562C68.5513 78.5562 67.9534 79.0046 67.9534 79.7819H66.399C66.399 78.1826 67.7143 77.1363 69.7171 77.1363C71.705 77.1363 72.9306 78.2125 72.9306 80.2602V84.7441H71.3314L71.1968 83.653C70.883 84.4153 69.8815 84.9384 68.7306 84.9384ZM69.3285 83.5634C70.4495 83.5634 71.1669 82.8908 71.1669 81.7548V81.3662L69.6274 81.4858C68.4915 81.5904 68.0581 81.9641 68.0581 82.5619C68.0581 83.2345 68.5064 83.5634 69.3285 83.5634ZM77.1309 84.7441H75.3074V78.8851H73.8875V77.3605H75.3074V75.0587H77.1309V77.3605H78.5658V78.8851H77.1309V84.7441ZM80.6111 75.8808C79.9834 75.8808 79.4901 75.3876 79.4901 74.7747C79.4901 74.1619 79.9834 73.6836 80.6111 73.6836C81.209 73.6836 81.7022 74.1619 81.7022 74.7747C81.7022 75.3876 81.209 75.8808 80.6111 75.8808ZM79.6994 84.7441V77.3605H81.5229V84.7441H79.6994ZM85.4994 84.7441L82.5698 77.3605H84.5129L85.7983 80.7534C86.1122 81.6352 86.3663 82.3975 86.4559 82.8011C86.5606 82.3377 86.8296 81.5605 87.1435 80.7534L88.4887 77.3605H90.372L87.2929 84.7441H85.4994ZM94.3585 84.9384C92.1613 84.9384 90.6218 83.3392 90.6218 81.0523C90.6218 78.7356 92.1314 77.1363 94.2987 77.1363C96.5108 77.1363 97.9158 78.616 97.9158 80.9178V81.4708L92.3556 81.4858C92.4902 82.7861 93.1777 83.4438 94.3884 83.4438C95.3898 83.4438 96.0475 83.0552 96.2567 82.3527H97.9457C97.6318 83.9669 96.2866 84.9384 94.3585 84.9384ZM94.3137 78.631C93.2375 78.631 92.5798 79.2139 92.4005 80.3199H96.1073C96.1073 79.3036 95.4048 78.631 94.3137 78.631ZM105.526 84.7441H103.673V73.8182H105.526L109.054 82.5171L112.581 73.8182H114.464V84.7441H112.611V81.3812C112.611 79.184 112.611 78.5413 112.716 77.7641L109.935 84.7441H108.172L105.407 77.779C105.511 78.4367 105.526 79.468 105.526 80.8281V84.7441ZM119.917 84.9384C117.719 84.9384 116.18 83.3392 116.18 81.0523C116.18 78.7356 117.69 77.1363 119.857 77.1363C122.069 77.1363 123.474 78.616 123.474 80.9178V81.4708L117.914 81.4858C118.048 82.7861 118.736 83.4438 119.947 83.4438C120.948 83.4438 121.606 83.0552 121.815 82.3527H123.504C123.19 83.9669 121.845 84.9384 119.917 84.9384ZM119.872 78.631C118.796 78.631 118.138 79.2139 117.959 80.3199H121.665C121.665 79.3036 120.963 78.631 119.872 78.631ZM127.057 84.9384C125.488 84.9384 124.532 84.0267 124.532 82.6367C124.532 81.2765 125.518 80.4246 127.267 80.29L129.479 80.1256V79.9612C129.479 78.9598 128.881 78.5562 127.954 78.5562C126.878 78.5562 126.28 79.0046 126.28 79.7819H124.726C124.726 78.1826 126.041 77.1363 128.044 77.1363C130.032 77.1363 131.257 78.2125 131.257 80.2602V84.7441H129.658L129.524 83.653C129.21 84.4153 128.208 84.9384 127.057 84.9384ZM127.655 83.5634C128.776 83.5634 129.494 82.8908 129.494 81.7548V81.3662L127.954 81.4858C126.818 81.5904 126.385 81.9641 126.385 82.5619C126.385 83.2345 126.833 83.5634 127.655 83.5634ZM134.887 84.7441H133.079V73.6239H134.887V84.7441ZM145.417 80.9776H143.011V84.7441H141.098V73.8182H145.417C147.614 73.8182 149.034 75.253 149.034 77.3904C149.034 79.4979 147.6 80.9776 145.417 80.9776ZM145.044 75.5221H143.011V79.2737H145.014C146.329 79.2737 147.032 78.5712 147.032 77.3755C147.032 76.1797 146.314 75.5221 145.044 75.5221ZM155.008 77.3306V79.0196H154.336C153.02 79.0196 152.198 79.7221 152.198 81.157V84.7441H150.375V77.3755H152.094L152.198 78.4516C152.512 77.7192 153.215 77.226 154.201 77.226C154.455 77.226 154.709 77.2559 155.008 77.3306ZM159.297 84.9384C157.1 84.9384 155.561 83.3392 155.561 81.0523C155.561 78.7356 157.07 77.1363 159.238 77.1363C161.45 77.1363 162.855 78.616 162.855 80.9178V81.4708L157.295 81.4858C157.429 82.7861 158.117 83.4438 159.327 83.4438C160.329 83.4438 160.986 83.0552 161.196 82.3527H162.885C162.571 83.9669 161.226 84.9384 159.297 84.9384ZM159.253 78.631C158.176 78.631 157.519 79.2139 157.339 80.3199H161.046C161.046 79.3036 160.344 78.631 159.253 78.631ZM164.314 88.1669V77.3605H166.003L166.123 78.4815C166.571 77.6295 167.543 77.1363 168.664 77.1363C170.741 77.1363 172.116 78.6459 172.116 80.9626C172.116 83.2644 170.861 84.9384 168.664 84.9384C167.558 84.9384 166.601 84.505 166.138 83.7577V88.1669H164.314ZM166.153 81.0523C166.153 82.3826 166.975 83.2943 168.23 83.2943C169.516 83.2943 170.278 82.3676 170.278 81.0523C170.278 79.737 169.516 78.7954 168.23 78.7954C166.975 78.7954 166.153 79.7221 166.153 81.0523ZM179.779 84.7441H177.866V73.8182H179.779V78.332H184.622V73.8182H186.535V84.7441H184.622V80.1107H179.779V84.7441ZM190.887 84.9384C189.318 84.9384 188.361 84.0267 188.361 82.6367C188.361 81.2765 189.348 80.4246 191.096 80.29L193.309 80.1256V79.9612C193.309 78.9598 192.711 78.5562 191.784 78.5562C190.708 78.5562 190.11 79.0046 190.11 79.7819H188.555C188.555 78.1826 189.871 77.1363 191.874 77.1363C193.862 77.1363 195.087 78.2125 195.087 80.2602V84.7441H193.488L193.353 83.653C193.039 84.4153 192.038 84.9384 190.887 84.9384ZM191.485 83.5634C192.606 83.5634 193.323 82.8908 193.323 81.7548V81.3662L191.784 81.4858C190.648 81.5904 190.215 81.9641 190.215 82.5619C190.215 83.2345 190.663 83.5634 191.485 83.5634ZM196.445 81.0374C196.445 78.7505 197.955 77.1363 200.137 77.1363C202.155 77.1363 203.53 78.2573 203.724 80.036H201.901C201.691 79.1989 201.079 78.7655 200.212 78.7655C199.046 78.7655 198.269 79.6473 198.269 81.0374C198.269 82.4274 198.986 83.2943 200.152 83.2943C201.064 83.2943 201.706 82.8459 201.901 82.0388H203.739C203.515 83.7577 202.08 84.9384 200.152 84.9384C197.91 84.9384 196.445 83.384 196.445 81.0374ZM206.935 84.7441H205.126V73.6239H206.935V80.4545L209.804 77.3605H212.091L209.281 80.29L212.031 84.7441H209.939L208.011 81.6352L206.935 82.7562V84.7441ZM212.556 82.5021H214.29C214.305 83.1449 214.783 83.5484 215.62 83.5484C216.472 83.5484 216.936 83.2046 216.936 82.6666C216.936 82.2929 216.741 82.0239 216.084 81.8744L214.753 81.5605C213.423 81.2616 212.78 80.6338 212.78 79.453C212.78 78.0032 214.006 77.1363 215.71 77.1363C217.369 77.1363 218.49 78.0929 218.505 79.5278H216.771C216.756 78.9 216.338 78.4965 215.635 78.4965C214.918 78.4965 214.499 78.8253 214.499 79.3783C214.499 79.7968 214.828 80.0658 215.456 80.2153L216.786 80.5292C218.027 80.8132 218.654 81.3812 218.654 82.5171C218.654 84.0118 217.384 84.9384 215.561 84.9384C213.722 84.9384 212.556 83.952 212.556 82.5021ZM221.418 79.4829C220.76 79.4829 220.207 78.9449 220.207 78.3021C220.207 77.6445 220.76 77.1064 221.418 77.1064C222.076 77.1064 222.629 77.6445 222.629 78.3021C222.629 78.9449 222.076 79.4829 221.418 79.4829ZM221.418 84.9235C220.76 84.9235 220.207 84.3854 220.207 83.7427C220.207 83.0851 220.76 82.547 221.418 82.547C222.076 82.547 222.629 83.0851 222.629 83.7427C222.629 84.3854 222.076 84.9235 221.418 84.9235ZM40.967 94.8673C40.967 92.9541 42.5513 91.6239 44.8531 91.6239C47.0652 91.6239 48.4702 92.8495 48.5299 94.8224H46.6168C46.5719 93.8808 45.8993 93.3278 44.8232 93.3278C43.6424 93.3278 42.8801 93.8957 42.8801 94.8075C42.8801 95.5847 43.2986 96.0182 44.2104 96.2274L45.9292 96.6011C47.7976 97.0046 48.7093 97.9612 48.7093 99.5904C48.7093 101.623 47.125 102.938 44.7186 102.938C42.3869 102.938 40.8623 101.698 40.8175 99.7399H42.7307C42.7456 100.667 43.4929 101.22 44.7186 101.22C45.989 101.22 46.7961 100.667 46.7961 99.7548C46.7961 99.0224 46.4225 98.589 45.5257 98.3947L43.7919 98.0061C41.9385 97.6025 40.967 96.5413 40.967 94.8673ZM52.3682 102.938C50.7988 102.938 49.8422 102.027 49.8422 100.637C49.8422 99.2765 50.8287 98.4246 52.5774 98.29L54.7895 98.1256V97.9612C54.7895 96.9598 54.1917 96.5562 53.265 96.5562C52.1888 96.5562 51.591 97.0046 51.591 97.7819H50.0365C50.0365 96.1826 51.3518 95.1363 53.3547 95.1363C55.3426 95.1363 56.5682 96.2125 56.5682 98.2602V102.744H54.9689L54.8344 101.653C54.5205 102.415 53.5191 102.938 52.3682 102.938ZM52.9661 101.563C54.087 101.563 54.8045 100.891 54.8045 99.7548V99.3662L53.265 99.4858C52.129 99.5904 51.6956 99.9641 51.6956 100.562C51.6956 101.235 52.144 101.563 52.9661 101.563ZM60.1602 102.744L57.2306 95.3605H59.1737L60.4591 98.7534C60.773 99.6352 61.0271 100.398 61.1167 100.801C61.2214 100.338 61.4904 99.5605 61.8043 98.7534L63.1495 95.3605H65.0328L61.9538 102.744H60.1602ZM69.0193 102.938C66.8222 102.938 65.2826 101.339 65.2826 99.0523C65.2826 96.7356 66.7923 95.1363 68.9595 95.1363C71.1716 95.1363 72.5766 96.616 72.5766 98.9178V99.4708L67.0165 99.4858C67.151 100.786 67.8385 101.444 69.0492 101.444C70.0506 101.444 70.7083 101.055 70.9175 100.353H72.6065C72.2926 101.967 70.9474 102.938 69.0193 102.938ZM68.9745 96.631C67.8983 96.631 67.2407 97.2139 67.0613 98.3199H70.7681C70.7681 97.3036 70.0656 96.631 68.9745 96.631ZM77.377 93.5819V91.8182H85.6874V93.5819H82.4888V102.744H80.5756V93.5819H77.377ZM87.7925 93.8808C87.1647 93.8808 86.6715 93.3876 86.6715 92.7747C86.6715 92.1619 87.1647 91.6836 87.7925 91.6836C88.3904 91.6836 88.8836 92.1619 88.8836 92.7747C88.8836 93.3876 88.3904 93.8808 87.7925 93.8808ZM86.8808 102.744V95.3605H88.7042V102.744H86.8808ZM92.4117 102.744H90.5882V95.3605H92.2622L92.4117 96.2274C92.7854 95.6146 93.5327 95.1363 94.5939 95.1363C95.7149 95.1363 96.4921 95.6893 96.8807 96.5413C97.2544 95.6893 98.1213 95.1363 99.2423 95.1363C101.036 95.1363 102.022 96.2125 102.022 97.9164V102.744H100.214V98.3947C100.214 97.3335 99.6459 96.7804 98.779 96.7804C97.8971 96.7804 97.2245 97.3484 97.2245 98.5591V102.744H95.401V98.3797C95.401 97.3484 94.848 96.7954 93.9811 96.7954C93.1142 96.7954 92.4117 97.3634 92.4117 98.5591V102.744ZM107.116 102.938C104.919 102.938 103.379 101.339 103.379 99.0523C103.379 96.7356 104.889 95.1363 107.056 95.1363C109.268 95.1363 110.673 96.616 110.673 98.9178V99.4708L105.113 99.4858C105.247 100.786 105.935 101.444 107.146 101.444C108.147 101.444 108.805 101.055 109.014 100.353H110.703C110.389 101.967 109.044 102.938 107.116 102.938ZM107.071 96.631C105.995 96.631 105.337 97.2139 105.158 98.3199H108.864C108.864 97.3036 108.162 96.631 107.071 96.631ZM118.358 102.938C116.789 102.938 115.832 102.027 115.832 100.637C115.832 99.2765 116.819 98.4246 118.567 98.29L120.779 98.1256V97.9612C120.779 96.9598 120.182 96.5562 119.255 96.5562C118.179 96.5562 117.581 97.0046 117.581 97.7819H116.026C116.026 96.1826 117.342 95.1363 119.345 95.1363C121.332 95.1363 122.558 96.2125 122.558 98.2602V102.744H120.959L120.824 101.653C120.51 102.415 119.509 102.938 118.358 102.938ZM118.956 101.563C120.077 101.563 120.794 100.891 120.794 99.7548V99.3662L119.255 99.4858C118.119 99.5904 117.685 99.9641 117.685 100.562C117.685 101.235 118.134 101.563 118.956 101.563ZM126.173 102.744H124.349V95.3605H126.038L126.188 96.3171C126.651 95.5698 127.548 95.1363 128.549 95.1363C130.403 95.1363 131.359 96.2872 131.359 98.2004V102.744H129.536V98.6338C129.536 97.3933 128.923 96.7954 127.982 96.7954C126.861 96.7954 126.173 97.5726 126.173 98.7683V102.744ZM136.185 102.938C134.048 102.938 132.718 101.369 132.718 99.0822C132.718 96.7804 134.063 95.1363 136.29 95.1363C137.321 95.1363 138.233 95.5698 138.696 96.3021V91.6239H140.505V102.744H138.831L138.711 101.593C138.263 102.445 137.306 102.938 136.185 102.938ZM136.589 101.264C137.859 101.264 138.681 100.353 138.681 99.0224C138.681 97.6922 137.859 96.7655 136.589 96.7655C135.318 96.7655 134.541 97.7071 134.541 99.0224C134.541 100.338 135.318 101.264 136.589 101.264ZM153.488 102.744H146.703V91.8182H153.488V93.5819H148.616V96.3918H152.98V98.0808H148.616V100.98H153.488V102.744ZM157.491 102.938C155.921 102.938 154.965 102.027 154.965 100.637C154.965 99.2765 155.951 98.4246 157.7 98.29L159.912 98.1256V97.9612C159.912 96.9598 159.314 96.5562 158.388 96.5562C157.311 96.5562 156.714 97.0046 156.714 97.7819H155.159C155.159 96.1826 156.474 95.1363 158.477 95.1363C160.465 95.1363 161.691 96.2125 161.691 98.2602V102.744H160.092L159.957 101.653C159.643 102.415 158.642 102.938 157.491 102.938ZM158.089 101.563C159.21 101.563 159.927 100.891 159.927 99.7548V99.3662L158.388 99.4858C157.252 99.5904 156.818 99.9641 156.818 100.562C156.818 101.235 157.267 101.563 158.089 101.563ZM165.891 102.744H164.068V96.8851H162.648V95.3605H164.068V93.0587H165.891V95.3605H167.326V96.8851H165.891V102.744ZM172.757 102.744V91.8182H177.107C179.259 91.8182 180.574 92.9392 180.574 94.7626C180.574 95.9733 180.036 96.8402 179.005 97.2737C180.156 97.6473 180.739 98.5142 180.739 99.7847C180.739 101.653 179.438 102.744 177.181 102.744H172.757ZM176.942 93.5071H174.67V96.4815H176.987C178.033 96.4815 178.616 95.9285 178.616 94.957C178.616 94.0153 178.018 93.5071 176.942 93.5071ZM177.107 98.0957H174.67V101.055H177.107C178.183 101.055 178.781 100.532 178.781 99.5456C178.781 98.6189 178.168 98.0957 177.107 98.0957ZM185.527 102.938C183.33 102.938 181.79 101.339 181.79 99.0523C181.79 96.7356 183.3 95.1363 185.467 95.1363C187.679 95.1363 189.084 96.616 189.084 98.9178V99.4708L183.524 99.4858C183.659 100.786 184.346 101.444 185.557 101.444C186.558 101.444 187.216 101.055 187.425 100.353H189.114C188.8 101.967 187.455 102.938 185.527 102.938ZM185.482 96.631C184.406 96.631 183.748 97.2139 183.569 98.3199H187.276C187.276 97.3036 186.573 96.631 185.482 96.631ZM192.982 102.744H191.158V96.8851H189.738V95.3605H191.158V93.0587H192.982V95.3605H194.417V96.8851H192.982V102.744ZM198.266 102.744H196.442V96.8851H195.022V95.3605H196.442V93.0587H198.266V95.3605H199.701V96.8851H198.266V102.744ZM204.064 102.938C201.867 102.938 200.328 101.339 200.328 99.0523C200.328 96.7356 201.837 95.1363 204.005 95.1363C206.217 95.1363 207.622 96.616 207.622 98.9178V99.4708L202.061 99.4858C202.196 100.786 202.884 101.444 204.094 101.444C205.096 101.444 205.753 101.055 205.963 100.353H207.652C207.338 101.967 205.992 102.938 204.064 102.938ZM204.02 96.631C202.943 96.631 202.286 97.2139 202.106 98.3199H205.813C205.813 97.3036 205.111 96.631 204.02 96.631ZM213.714 95.3306V97.0196H213.042C211.727 97.0196 210.905 97.7221 210.905 99.157V102.744H209.081V95.3755H210.8L210.905 96.4516C211.218 95.7192 211.921 95.226 212.907 95.226C213.161 95.226 213.416 95.2559 213.714 95.3306Z" fill="#0C2503"/>
<path d="M42.3133 125.961H41.2745V118.297H42.3133L46.2355 124.222V118.297H47.2743V125.961H46.2355L42.3133 120.035V125.961ZM52.4725 120.777H53.4584V125.961H52.5679L52.4619 125.177C52.1651 125.717 51.4761 126.088 50.7129 126.088C49.5044 126.088 48.826 125.272 48.826 124V120.777H49.8224V123.671C49.8224 124.784 50.2994 125.208 51.0627 125.208C51.9743 125.208 52.4725 124.625 52.4725 123.512V120.777ZM56.367 125.961H55.3705V121.615H54.3529V120.777H55.3705V119.155H56.367V120.777H57.3846V121.615H56.367V125.961ZM61.247 120.735V121.647H60.8018C59.8583 121.647 59.2753 122.219 59.2753 123.215V125.961H58.2788V120.788H59.2117L59.2753 121.572C59.4873 121.032 60.0067 120.671 60.7169 120.671C60.8972 120.671 61.0456 120.693 61.247 120.735ZM62.6692 119.548C62.3088 119.548 62.0119 119.251 62.0119 118.89C62.0119 118.519 62.3088 118.233 62.6692 118.233C63.0296 118.233 63.3264 118.519 63.3264 118.89C63.3264 119.251 63.0296 119.548 62.6692 119.548ZM62.1816 125.961V120.777H63.178V125.961H62.1816ZM66.0875 125.961H65.091V121.615H64.0734V120.777H65.091V119.155H66.0875V120.777H67.1051V121.615H66.0875V125.961ZM68.487 119.548C68.1266 119.548 67.8298 119.251 67.8298 118.89C67.8298 118.519 68.1266 118.233 68.487 118.233C68.8474 118.233 69.1442 118.519 69.1442 118.89C69.1442 119.251 68.8474 119.548 68.487 119.548ZM67.9994 125.961V120.777H68.9958V125.961H67.9994ZM70.1032 123.364C70.1032 121.763 71.2481 120.64 72.8064 120.64C74.354 120.64 75.4989 121.763 75.4989 123.364C75.4989 124.964 74.354 126.088 72.8064 126.088C71.2481 126.088 70.1032 124.964 70.1032 123.364ZM71.1103 123.364C71.1103 124.445 71.7993 125.198 72.8064 125.198C73.8028 125.198 74.5024 124.445 74.5024 123.364C74.5024 122.283 73.8028 121.53 72.8064 121.53C71.7993 121.53 71.1103 122.283 71.1103 123.364ZM80.0606 120.777H81.0465V125.961H80.156L80.05 125.177C79.7532 125.717 79.0642 126.088 78.301 126.088C77.0925 126.088 76.4141 125.272 76.4141 124V120.777H77.4105V123.671C77.4105 124.784 77.8875 125.208 78.6508 125.208C79.5624 125.208 80.0606 124.625 80.0606 123.512V120.777ZM81.9647 124.456H82.9187C82.9187 124.986 83.3215 125.304 83.9787 125.304C84.6784 125.304 85.0812 125.017 85.0812 124.54C85.0812 124.191 84.9116 123.979 84.371 123.841L83.4593 123.629C82.5371 123.406 82.1025 122.95 82.1025 122.187C82.1025 121.233 82.9081 120.629 84.0529 120.629C85.1872 120.629 85.9292 121.265 85.9504 122.251H84.9964C84.9752 121.731 84.6254 121.403 84.0211 121.403C83.3957 121.403 83.0459 121.678 83.0459 122.155C83.0459 122.505 83.3003 122.738 83.8091 122.866L84.7208 123.088C85.6006 123.3 86.0352 123.703 86.0352 124.477C86.0352 125.463 85.1872 126.088 83.9575 126.088C82.7385 126.088 81.9647 125.442 81.9647 124.456ZM90.9398 125.961H90.0388V118.159H91.0352V121.668C91.3745 120.989 92.0741 120.629 92.9221 120.629C94.4062 120.629 95.2966 121.795 95.2966 123.396C95.2966 124.964 94.3638 126.088 92.8585 126.088C92.0423 126.088 91.3533 125.728 91.014 125.017L90.9398 125.961ZM91.0458 123.353C91.0458 124.434 91.6607 125.187 92.6783 125.187C93.696 125.187 94.3002 124.424 94.3002 123.353C94.3002 122.293 93.696 121.53 92.6783 121.53C91.6607 121.53 91.0458 122.293 91.0458 123.353ZM98.6316 126.088C97.1052 126.088 96.0557 124.986 96.0557 123.374C96.0557 121.753 97.084 120.629 98.5892 120.629C100.063 120.629 101.027 121.647 101.027 123.184V123.555L97.0204 123.565C97.0946 124.657 97.667 125.261 98.6528 125.261C99.4267 125.261 99.9355 124.943 100.105 124.35H101.038C100.784 125.463 99.9143 126.088 98.6316 126.088ZM98.5892 121.466C97.72 121.466 97.1688 121.986 97.0416 122.897H100.031C100.031 122.039 99.4691 121.466 98.5892 121.466ZM103.604 126.088C102.491 126.088 101.834 125.463 101.834 124.519C101.834 123.565 102.544 122.972 103.763 122.876L105.396 122.749V122.601C105.396 121.731 104.876 121.424 104.177 121.424C103.339 121.424 102.862 121.795 102.862 122.42H101.993C101.993 121.339 102.884 120.629 104.219 120.629C105.502 120.629 106.371 121.307 106.371 122.707V125.961H105.523L105.417 125.124C105.152 125.717 104.442 126.088 103.604 126.088ZM103.891 125.314C104.834 125.314 105.406 124.699 105.406 123.724V123.449L104.081 123.555C103.202 123.639 102.841 123.979 102.841 124.487C102.841 125.039 103.244 125.314 103.891 125.314ZM108.748 125.961H107.751V120.777H108.652L108.758 121.572C109.087 120.979 109.744 120.629 110.475 120.629C111.843 120.629 112.468 121.466 112.468 122.791V125.961H111.472V123.014C111.472 121.965 110.984 121.541 110.221 121.541C109.288 121.541 108.748 122.208 108.748 123.215V125.961ZM116.408 123.374C116.408 121.753 117.436 120.629 118.952 120.629C120.256 120.629 121.167 121.371 121.348 122.526H120.351C120.182 121.869 119.652 121.519 118.984 121.519C118.04 121.519 117.394 122.24 117.394 123.364C117.394 124.477 117.998 125.198 118.941 125.198C119.652 125.198 120.182 124.827 120.362 124.212H121.358C121.157 125.336 120.192 126.088 118.941 126.088C117.415 126.088 116.408 125.007 116.408 123.374ZM123.925 126.088C122.812 126.088 122.155 125.463 122.155 124.519C122.155 123.565 122.865 122.972 124.084 122.876L125.717 122.749V122.601C125.717 121.731 125.197 121.424 124.498 121.424C123.66 121.424 123.183 121.795 123.183 122.42H122.314C122.314 121.339 123.205 120.629 124.54 120.629C125.823 120.629 126.692 121.307 126.692 122.707V125.961H125.844L125.738 125.124C125.473 125.717 124.763 126.088 123.925 126.088ZM124.212 125.314C125.155 125.314 125.727 124.699 125.727 123.724V123.449L124.402 123.555C123.523 123.639 123.162 123.979 123.162 124.487C123.162 125.039 123.565 125.314 124.212 125.314ZM129.09 125.961H128.093V118.159H129.09V123.215L131.39 120.777H132.641L130.659 122.844L132.63 125.961H131.485L129.97 123.565L129.09 124.487V125.961ZM135.495 126.088C133.969 126.088 132.919 124.986 132.919 123.374C132.919 121.753 133.947 120.629 135.453 120.629C136.926 120.629 137.891 121.647 137.891 123.184V123.555L133.884 123.565C133.958 124.657 134.53 125.261 135.516 125.261C136.29 125.261 136.799 124.943 136.969 124.35H137.901C137.647 125.463 136.778 126.088 135.495 126.088ZM135.453 121.466C134.583 121.466 134.032 121.986 133.905 122.897H136.894C136.894 122.039 136.333 121.466 135.453 121.466ZM142.899 125.95H141.902V118.159H142.899V121.572C143.227 121.011 143.853 120.629 144.658 120.629C145.984 120.629 146.62 121.466 146.62 122.791V125.961H145.623V123.014C145.623 121.965 145.125 121.541 144.383 121.541C143.418 121.541 142.899 122.24 142.899 123.131V125.95ZM148.487 119.548C148.127 119.548 147.83 119.251 147.83 118.89C147.83 118.519 148.127 118.233 148.487 118.233C148.848 118.233 149.145 118.519 149.145 118.89C149.145 119.251 148.848 119.548 148.487 119.548ZM148 125.961V120.777H148.996V125.961H148ZM150.114 123.237C150.114 121.774 151.058 120.629 152.563 120.629C153.4 120.629 154.047 121.011 154.376 121.657L154.45 120.777H155.34V125.749C155.34 127.381 154.333 128.42 152.743 128.42C151.333 128.42 150.369 127.625 150.178 126.311H151.174C151.301 127.074 151.874 127.519 152.743 127.519C153.718 127.519 154.354 126.883 154.354 125.897V124.858C154.015 125.463 153.337 125.823 152.52 125.823C151.047 125.823 150.114 124.689 150.114 123.237ZM151.111 123.215C151.111 124.191 151.715 124.954 152.69 124.954C153.697 124.954 154.312 124.233 154.312 123.215C154.312 122.219 153.718 121.498 152.701 121.498C151.704 121.498 151.111 122.261 151.111 123.215ZM157.775 125.95H156.778V118.159H157.775V121.572C158.103 121.011 158.729 120.629 159.534 120.629C160.859 120.629 161.495 121.466 161.495 122.791V125.961H160.499V123.014C160.499 121.965 160.001 121.541 159.259 121.541C158.294 121.541 157.775 122.24 157.775 123.131V125.95ZM166.262 119.548C165.901 119.548 165.604 119.251 165.604 118.89C165.604 118.519 165.901 118.233 166.262 118.233C166.622 118.233 166.919 118.519 166.919 118.89C166.919 119.251 166.622 119.548 166.262 119.548ZM165.774 125.961V120.777H166.771V125.961H165.774ZM169.214 125.961H168.217V120.777H169.118L169.224 121.572C169.553 120.979 170.21 120.629 170.941 120.629C172.309 120.629 172.934 121.466 172.934 122.791V125.961H171.938V123.014C171.938 121.965 171.45 121.541 170.687 121.541C169.754 121.541 169.214 122.208 169.214 123.215V125.961ZM177.213 128.282V120.777H178.114L178.188 121.71C178.538 121 179.238 120.629 180.065 120.629C181.549 120.629 182.471 121.742 182.471 123.332C182.471 124.911 181.602 126.099 180.065 126.099C179.238 126.099 178.549 125.749 178.209 125.113V128.282H177.213ZM178.22 123.374C178.22 124.434 178.835 125.198 179.853 125.198C180.87 125.198 181.474 124.434 181.474 123.374C181.474 122.304 180.87 121.541 179.853 121.541C178.835 121.541 178.22 122.293 178.22 123.374ZM186.537 120.735V121.647H186.092C185.149 121.647 184.566 122.219 184.566 123.215V125.961H183.569V120.788H184.502L184.566 121.572C184.778 121.032 185.297 120.671 186.007 120.671C186.188 120.671 186.336 120.693 186.537 120.735ZM186.946 123.364C186.946 121.763 188.091 120.64 189.649 120.64C191.197 120.64 192.342 121.763 192.342 123.364C192.342 124.964 191.197 126.088 189.649 126.088C188.091 126.088 186.946 124.964 186.946 123.364ZM187.953 123.364C187.953 124.445 188.642 125.198 189.649 125.198C190.646 125.198 191.346 124.445 191.346 123.364C191.346 122.283 190.646 121.53 189.649 121.53C188.642 121.53 187.953 122.283 187.953 123.364ZM194.856 125.961H193.86V121.615H192.842V120.777H193.86V119.155H194.856V120.777H195.874V121.615H194.856V125.961ZM198.953 126.088C197.426 126.088 196.377 124.986 196.377 123.374C196.377 121.753 197.405 120.629 198.911 120.629C200.384 120.629 201.349 121.647 201.349 123.184V123.555L197.342 123.565C197.416 124.657 197.988 125.261 198.974 125.261C199.748 125.261 200.257 124.943 200.426 124.35H201.359C201.105 125.463 200.236 126.088 198.953 126.088ZM198.911 121.466C198.041 121.466 197.49 121.986 197.363 122.897H200.352C200.352 122.039 199.79 121.466 198.911 121.466ZM202.949 119.548C202.589 119.548 202.292 119.251 202.292 118.89C202.292 118.519 202.589 118.233 202.949 118.233C203.31 118.233 203.606 118.519 203.606 118.89C203.606 119.251 203.31 119.548 202.949 119.548ZM202.462 125.961V120.777H203.458V125.961H202.462ZM205.901 125.961H204.905V120.777H205.806L205.912 121.572C206.24 120.979 206.898 120.629 207.629 120.629C208.996 120.629 209.622 121.466 209.622 122.791V125.961H208.625V123.014C208.625 121.965 208.138 121.541 207.375 121.541C206.442 121.541 205.901 122.208 205.901 123.215V125.961ZM215.416 126.088C214.303 126.088 213.646 125.463 213.646 124.519C213.646 123.565 214.356 122.972 215.575 122.876L217.208 122.749V122.601C217.208 121.731 216.688 121.424 215.989 121.424C215.151 121.424 214.674 121.795 214.674 122.42H213.805C213.805 121.339 214.696 120.629 216.031 120.629C217.314 120.629 218.183 121.307 218.183 122.707V125.961H217.335L217.229 125.124C216.964 125.717 216.254 126.088 215.416 126.088ZM215.703 125.314C216.646 125.314 217.219 124.699 217.219 123.724V123.449L215.893 123.555C215.014 123.639 214.653 123.979 214.653 124.487C214.653 125.039 215.056 125.314 215.703 125.314ZM220.56 125.961H219.563V120.777H220.464L220.57 121.572C220.899 120.979 221.556 120.629 222.287 120.629C223.655 120.629 224.28 121.466 224.28 122.791V125.961H223.284V123.014C223.284 121.965 222.796 121.541 222.033 121.541C221.1 121.541 220.56 122.208 220.56 123.215V125.961ZM227.738 126.088C226.233 126.088 225.321 124.964 225.321 123.385C225.321 121.795 226.243 120.629 227.781 120.629C228.576 120.629 229.243 120.979 229.593 121.615V118.159H230.579V125.961H229.689L229.604 125.017C229.265 125.728 228.565 126.088 227.738 126.088ZM227.94 125.187C228.957 125.187 229.583 124.434 229.583 123.353C229.583 122.293 228.957 121.53 227.94 121.53C226.922 121.53 226.328 122.293 226.328 123.353C226.328 124.424 226.922 125.187 227.94 125.187ZM44.6136 139.961V135.615H42.3133V139.961H41.3169V135.615H40.5536V134.777H41.3169V133.95C41.3169 132.678 42.0059 132.159 42.9069 132.159C43.0977 132.159 43.331 132.17 43.5218 132.201V133.06H43.0765C42.4723 133.06 42.3133 133.389 42.3133 133.95V134.777H45.6101V139.961H44.6136ZM45.1118 133.505C44.7514 133.505 44.4758 133.23 44.4758 132.869C44.4758 132.509 44.7514 132.233 45.1118 132.233C45.4617 132.233 45.7373 132.509 45.7373 132.869C45.7373 133.23 45.4617 133.505 45.1118 133.505ZM47.9273 139.961H47.0262V132.159H48.0227V135.668C48.3619 134.989 49.0615 134.629 49.9095 134.629C51.3936 134.629 52.284 135.795 52.284 137.396C52.284 138.964 51.3512 140.088 49.8459 140.088C49.0297 140.088 48.3407 139.728 48.0015 139.017L47.9273 139.961ZM48.0333 137.353C48.0333 138.434 48.6481 139.187 49.6657 139.187C50.6834 139.187 51.2876 138.424 51.2876 137.353C51.2876 136.293 50.6834 135.53 49.6657 135.53C48.6481 135.53 48.0333 136.293 48.0333 137.353ZM55.619 140.088C54.0926 140.088 53.0431 138.986 53.0431 137.374C53.0431 135.753 54.0714 134.629 55.5766 134.629C57.0501 134.629 58.0147 135.647 58.0147 137.184V137.555L54.0078 137.565C54.082 138.657 54.6544 139.261 55.6402 139.261C56.4141 139.261 56.9229 138.943 57.0925 138.35H58.0253C57.7709 139.463 56.9017 140.088 55.619 140.088ZM55.5766 135.466C54.7074 135.466 54.1562 135.986 54.029 136.897H57.0183C57.0183 136.039 56.4565 135.466 55.5766 135.466ZM62.0958 134.735V135.647H61.6506C60.7072 135.647 60.1242 136.219 60.1242 137.215V139.961H59.1277V134.788H60.0605L60.1242 135.572C60.3362 135.032 60.8556 134.671 61.5658 134.671C61.746 134.671 61.8944 134.693 62.0958 134.735ZM62.9339 140.088C62.5205 140.088 62.1707 139.749 62.1707 139.346C62.1707 138.933 62.5205 138.593 62.9339 138.593C63.3368 138.593 63.6866 138.933 63.6866 139.346C63.6866 139.749 63.3368 140.088 62.9339 140.088Z" fill="#7B7B7B"/>
<path d="M34.1168 41.5303H32.7377V33.4006H34.1168L36.7414 39.8732L39.366 33.4006H40.7673V41.5303H39.3883V39.028C39.3883 37.3932 39.3883 36.9149 39.4661 36.3366L37.3976 41.5303H36.0852L34.0278 36.3478C34.1057 36.8371 34.1168 37.6045 34.1168 38.6165V41.5303ZM44.8242 41.6749C43.1894 41.6749 42.0439 40.4849 42.0439 38.7833C42.0439 37.0595 43.1672 35.8695 44.7798 35.8695C46.4257 35.8695 47.4711 36.9705 47.4711 38.6832V39.0947L43.334 39.1058C43.4341 40.0734 43.9457 40.5627 44.8465 40.5627C45.5916 40.5627 46.0809 40.2736 46.2366 39.7509H47.4933C47.2598 40.952 46.2589 41.6749 44.8242 41.6749ZM44.7909 36.9817C43.9901 36.9817 43.5008 37.4154 43.3673 38.2384H46.1254C46.1254 37.4821 45.6027 36.9817 44.7909 36.9817ZM50.1375 41.6749C48.9698 41.6749 48.258 40.9965 48.258 39.9622C48.258 38.9501 48.992 38.3162 50.2932 38.2161L51.9392 38.0938V37.9715C51.9392 37.2263 51.4943 36.9261 50.8048 36.9261C50.0041 36.9261 49.5592 37.2597 49.5592 37.838H48.4026C48.4026 36.648 49.3813 35.8695 50.8715 35.8695C52.3507 35.8695 53.2626 36.6703 53.2626 38.1939V41.5303H52.0726L51.9725 40.7184C51.739 41.2856 50.9939 41.6749 50.1375 41.6749ZM50.5824 40.6517C51.4165 40.6517 51.9503 40.1512 51.9503 39.306V39.0169L50.8048 39.1058C49.9596 39.1837 49.6371 39.4617 49.6371 39.9066C49.6371 40.407 49.9707 40.6517 50.5824 40.6517ZM55.9634 41.5303H54.6178V33.256H55.9634V41.5303ZM56.9641 39.8621H58.2542C58.2653 40.3403 58.6212 40.6406 59.2439 40.6406C59.8779 40.6406 60.2226 40.3848 60.2226 39.9844C60.2226 39.7064 60.078 39.5062 59.5887 39.395L58.5989 39.1614C57.6091 38.939 57.1309 38.4719 57.1309 37.5933C57.1309 36.5146 58.0429 35.8695 59.3107 35.8695C60.5451 35.8695 61.3792 36.5813 61.3904 37.6489H60.1003C60.0892 37.1818 59.7778 36.8816 59.2551 36.8816C58.7212 36.8816 58.4099 37.1262 58.4099 37.5377C58.4099 37.8491 58.6545 38.0493 59.1216 38.1605L60.1114 38.3941C61.0345 38.6054 61.5016 39.028 61.5016 39.8732C61.5016 40.9853 60.5563 41.6749 59.1995 41.6749C57.8315 41.6749 56.9641 40.9408 56.9641 39.8621Z" fill="#6D53E7"/>
</g>
<path d="M18.6225 194.232C18.3449 192.215 19.755 190.355 21.7721 190.077L45.9873 186.745C48.0043 186.467 49.8645 187.878 50.1421 189.895L52.7606 208.922C53.0382 210.939 51.6281 212.799 49.611 213.077L25.3958 216.41C23.3788 216.687 21.5186 215.277 21.241 213.26L18.6225 194.232Z" fill="#0C2503"/>
<path d="M42.9115 196.746C42.9762 196.114 42.5155 195.548 41.8825 195.483L31.5675 194.429C30.9345 194.365 30.369 194.825 30.3043 195.458C30.2396 196.091 30.7003 196.657 31.3333 196.722L40.5022 197.658L39.5653 206.827C39.5007 207.46 39.9614 208.026 40.5943 208.09C41.2273 208.155 41.7929 207.694 41.8576 207.061L42.9115 196.746ZM28.8899 205.632C28.3966 206.034 28.3225 206.759 28.7243 207.253C29.1262 207.746 29.8518 207.82 30.3451 207.418L28.8899 205.632ZM41.0378 195.736L28.8899 205.632L30.3451 207.418L42.493 197.523L41.0378 195.736Z" fill="#EDFAE7"/>
<path d="M70.0466 201.424C70.0466 203.943 68.3898 205.713 66.0066 205.713C63.6348 205.713 62.0007 203.954 62.0007 201.424C62.0007 198.904 63.6462 197.134 66.018 197.134C68.3898 197.134 70.0466 198.893 70.0466 201.424ZM68.5146 201.424C68.5146 199.653 67.5386 198.53 66.018 198.53C64.4973 198.53 63.5214 199.653 63.5214 201.424C63.5214 203.194 64.4973 204.317 66.018 204.317C67.5386 204.317 68.5146 203.171 68.5146 201.424ZM71.1943 208.176V199.971H72.4766L72.5674 200.822C72.9079 200.175 73.6455 199.801 74.4966 199.801C76.074 199.801 77.1181 200.947 77.1181 202.706C77.1181 204.454 76.1648 205.725 74.4966 205.725C73.6569 205.725 72.9306 205.396 72.5788 204.828V208.176H71.1943ZM72.5901 202.774C72.5901 203.784 73.2143 204.476 74.1675 204.476C75.1435 204.476 75.7222 203.773 75.7222 202.774C75.7222 201.775 75.1435 201.061 74.1675 201.061C73.2143 201.061 72.5901 201.764 72.5901 202.774ZM80.7284 205.725C79.0602 205.725 77.8913 204.51 77.8913 202.774C77.8913 201.015 79.0375 199.801 80.683 199.801C82.3626 199.801 83.4293 200.924 83.4293 202.672V203.092L79.2077 203.103C79.3099 204.091 79.8319 204.59 80.7511 204.59C81.5114 204.59 82.0108 204.295 82.1696 203.761H83.452C83.2137 204.987 82.1923 205.725 80.7284 205.725ZM80.6944 200.936C79.8773 200.936 79.378 201.378 79.2418 202.218H82.0562C82.0562 201.446 81.5228 200.936 80.6944 200.936ZM85.9218 205.577H84.5373V199.971H85.8197L85.9332 200.697C86.285 200.13 86.9659 199.801 87.7262 199.801C89.1334 199.801 89.8597 200.675 89.8597 202.127V205.577H88.4752V202.456C88.4752 201.514 88.0099 201.061 87.295 201.061C86.4439 201.061 85.9218 201.651 85.9218 202.559V205.577ZM94.4829 205.577V197.282H97.7853C99.4194 197.282 100.418 198.133 100.418 199.517C100.418 200.436 100.01 201.095 99.2265 201.424C100.1 201.707 100.543 202.366 100.543 203.33C100.543 204.749 99.5556 205.577 97.842 205.577H94.4829ZM97.6605 198.564H95.9355V200.822H97.6945C98.4889 200.822 98.9315 200.402 98.9315 199.665C98.9315 198.95 98.4775 198.564 97.6605 198.564ZM97.7853 202.048H95.9355V204.295H97.7853C98.6024 204.295 99.0563 203.898 99.0563 203.149C99.0563 202.445 98.591 202.048 97.7853 202.048ZM103.066 205.577H101.693V197.134H103.066V205.577ZM104.19 202.763C104.19 201.015 105.449 199.812 107.186 199.812C108.922 199.812 110.181 201.015 110.181 202.763C110.181 204.51 108.922 205.713 107.186 205.713C105.449 205.713 104.19 204.51 104.19 202.763ZM105.574 202.763C105.574 203.784 106.232 204.476 107.186 204.476C108.139 204.476 108.797 203.784 108.797 202.763C108.797 201.741 108.139 201.049 107.186 201.049C106.232 201.049 105.574 201.741 105.574 202.763ZM110.961 202.649C110.961 201.015 112.028 199.79 113.628 199.79C114.468 199.79 115.126 200.141 115.455 200.743L115.534 199.971H116.817V205.293C116.817 207.166 115.693 208.335 113.878 208.335C112.266 208.335 111.165 207.416 110.995 205.918H112.38C112.47 206.644 113.027 207.075 113.878 207.075C114.831 207.075 115.444 206.474 115.444 205.543V204.613C115.092 205.135 114.4 205.464 113.594 205.464C112.005 205.464 110.961 204.272 110.961 202.649ZM112.357 202.615C112.357 203.557 112.958 204.261 113.866 204.261C114.82 204.261 115.41 203.591 115.41 202.615C115.41 201.662 114.831 201.004 113.866 201.004C112.947 201.004 112.357 201.696 112.357 202.615Z" fill="#0A0B0A"/>
<path d="M42.2362 16.182C42.2341 14.4069 41.4778 12.7052 40.1333 11.45C38.7888 10.1949 36.9659 9.48886 35.0644 9.48689C34.775 9.48739 34.4858 9.50395 34.1985 9.53648C33.6406 8.34193 32.7214 7.32533 31.5537 6.61136C30.3859 5.89739 29.0203 5.51709 27.6244 5.51709C26.2285 5.51709 24.8629 5.89739 23.6951 6.61136C22.5274 7.32533 21.6082 8.34193 21.0503 9.53648C20.7647 9.50414 20.4773 9.48758 20.1897 9.48689C18.5478 9.48786 16.9561 10.0147 15.6802 10.9794C14.4044 11.9441 13.5218 13.2883 13.1798 14.7874C12.8378 16.2865 13.0571 17.8498 13.8012 19.2161C14.5452 20.5824 15.7689 21.669 17.2679 22.2944V28.0844C17.2679 28.5448 17.4637 28.9863 17.8124 29.3118C18.1611 29.6373 18.6341 29.8202 19.1272 29.8202H36.1269C36.62 29.8202 37.093 29.6373 37.4417 29.3118C37.7904 28.9863 37.9863 28.5448 37.9863 28.0844V22.2944C39.2506 21.7666 40.3245 20.9088 41.0786 19.8243C41.8326 18.7398 42.2346 17.4749 42.2362 16.182ZM36.3925 28.0844C36.3925 28.1502 36.3646 28.2132 36.3147 28.2597C36.2649 28.3062 36.1974 28.3324 36.1269 28.3324H19.1272C19.0567 28.3324 18.9892 28.3062 18.9394 28.2597C18.8896 28.2132 18.8616 28.1502 18.8616 28.0844V22.7606C19.2994 22.8378 19.7441 22.8769 20.1897 22.8771H35.0644C35.5101 22.8769 35.9547 22.8378 36.3925 22.7606V28.0844ZM35.0644 21.3893H32.8983L33.7124 18.3467C33.7379 18.252 33.7431 18.1535 33.7278 18.0568C33.7125 17.9602 33.6769 17.8673 33.6231 17.7835C33.5694 17.6997 33.4984 17.6266 33.4144 17.5683C33.3304 17.5101 33.2349 17.4679 33.1334 17.4441C33.0319 17.4204 32.9263 17.4155 32.8228 17.4298C32.7193 17.4441 32.6198 17.4773 32.53 17.5275C32.4402 17.5777 32.3619 17.6439 32.2996 17.7224C32.2372 17.8008 32.192 17.89 32.1665 17.9847L31.2541 21.3893H28.4239V18.1657C28.4239 17.9684 28.34 17.7792 28.1905 17.6397C28.0411 17.5002 27.8384 17.4218 27.6271 17.4218C27.4157 17.4218 27.213 17.5002 27.0636 17.6397C26.9142 17.7792 26.8302 17.9684 26.8302 18.1657V21.3893H24L23.0876 17.9847C23.0621 17.89 23.0169 17.8008 22.9546 17.7224C22.8922 17.6439 22.8139 17.5777 22.7241 17.5275C22.6343 17.4773 22.5348 17.4441 22.4313 17.4298C22.3278 17.4155 22.2222 17.4204 22.1207 17.4441C22.0192 17.4679 21.9237 17.5101 21.8397 17.5683C21.7557 17.6266 21.6847 17.6997 21.631 17.7835C21.5772 17.8673 21.5416 17.9602 21.5263 18.0568C21.511 18.1535 21.5162 18.252 21.5417 18.3467L22.3558 21.3893H20.1897C18.7103 21.3893 17.2915 20.8407 16.2454 19.8641C15.1993 18.8876 14.6116 17.5631 14.6116 16.182C14.6116 14.8009 15.1993 13.4764 16.2454 12.4999C17.2915 11.5233 18.7103 10.9747 20.1897 10.9747C20.3225 10.9747 20.4553 10.9747 20.5775 10.9883C20.4969 11.3927 20.456 11.8032 20.4553 12.2145C20.4553 12.4118 20.5393 12.601 20.6887 12.7405C20.8381 12.88 21.0408 12.9584 21.2522 12.9584C21.4635 12.9584 21.6662 12.88 21.8156 12.7405C21.9651 12.601 22.049 12.4118 22.049 12.2145C22.049 10.8335 22.6367 9.50896 23.6828 8.5324C24.7289 7.55584 26.1477 7.00722 27.6271 7.00722C29.1064 7.00722 30.5252 7.55584 31.5713 8.5324C32.6174 9.50896 33.2051 10.8335 33.2051 12.2145C33.2051 12.4118 33.289 12.601 33.4385 12.7405C33.5879 12.88 33.7906 12.9584 34.002 12.9584C34.2133 12.9584 34.416 12.88 34.5654 12.7405C34.7149 12.601 34.7988 12.4118 34.7988 12.2145C34.7981 11.8032 34.7572 11.3927 34.6766 10.9883C34.8094 10.9809 34.9343 10.9747 35.0644 10.9747C36.5438 10.9747 37.9626 11.5233 39.0087 12.4999C40.0548 13.4764 40.6425 14.8009 40.6425 16.182C40.6425 17.5631 40.0548 18.8876 39.0087 19.8641C37.9626 20.8407 36.5438 21.3893 35.0644 21.3893Z" fill="#0C2503"/>
<path d="M35.0644 21.3893H32.8983L33.7124 18.3467C33.7379 18.252 33.7431 18.1535 33.7278 18.0568C33.7125 17.9602 33.6769 17.8673 33.6231 17.7835C33.5694 17.6997 33.4984 17.6266 33.4144 17.5683C33.3304 17.5101 33.2349 17.4679 33.1334 17.4441C33.0319 17.4204 32.9263 17.4155 32.8228 17.4298C32.7193 17.4441 32.6198 17.4773 32.53 17.5275C32.4402 17.5777 32.3619 17.6439 32.2996 17.7224C32.2372 17.8008 32.192 17.89 32.1665 17.9847L31.2541 21.3893H28.4239V18.1657C28.4239 17.9684 28.34 17.7792 28.1905 17.6397C28.0411 17.5002 27.8384 17.4218 27.6271 17.4218C27.4157 17.4218 27.213 17.5002 27.0636 17.6397C26.9142 17.7792 26.8302 17.9684 26.8302 18.1657V21.3893H24L23.0876 17.9847C23.0621 17.89 23.0169 17.8008 22.9546 17.7224C22.8922 17.6439 22.8139 17.5777 22.7241 17.5275C22.6343 17.4773 22.5348 17.4441 22.4313 17.4298C22.3278 17.4155 22.2222 17.4204 22.1207 17.4441C22.0192 17.4679 21.9237 17.5101 21.8397 17.5683C21.7557 17.6266 21.6847 17.6997 21.631 17.7835C21.5772 17.8673 21.5416 17.9602 21.5263 18.0568C21.511 18.1535 21.5162 18.252 21.5417 18.3467L22.3558 21.3893H20.1897C18.7103 21.3893 17.2915 20.8407 16.2454 19.8641C15.1993 18.8876 14.6116 17.5631 14.6116 16.182C14.6116 14.8009 15.1993 13.4764 16.2454 12.4999C17.2915 11.5233 18.7103 10.9747 20.1897 10.9747C20.3225 10.9747 20.4553 10.9747 20.5775 10.9883C20.4969 11.3927 20.456 11.8032 20.4553 12.2145C20.4553 12.4118 20.5393 12.601 20.6887 12.7405C20.8381 12.88 21.0408 12.9584 21.2522 12.9584C21.4635 12.9584 21.6662 12.88 21.8156 12.7405C21.9651 12.601 22.049 12.4118 22.049 12.2145C22.049 10.8335 22.6367 9.50896 23.6828 8.5324C24.7289 7.55584 26.1477 7.00722 27.6271 7.00722C29.1064 7.00722 30.5252 7.55584 31.5713 8.5324C32.6174 9.50896 33.2051 10.8335 33.2051 12.2145C33.2051 12.4118 33.289 12.601 33.4385 12.7405C33.5879 12.88 33.7906 12.9584 34.002 12.9584C34.2133 12.9584 34.416 12.88 34.5654 12.7405C34.7149 12.601 34.7988 12.4118 34.7988 12.2145C34.7981 11.8032 34.7572 11.3927 34.6766 10.9883C34.8094 10.9809 34.9343 10.9747 35.0644 10.9747C36.5438 10.9747 37.9626 11.5233 39.0087 12.4999C40.0548 13.4764 40.6425 14.8009 40.6425 16.182C40.6425 17.5631 40.0548 18.8876 39.0087 19.8641C37.9626 20.8407 36.5438 21.3893 35.0644 21.3893Z" fill="#D6FBC4"/>
<path d="M36.3925 28.0844C36.3925 28.1502 36.3646 28.2132 36.3147 28.2597C36.2649 28.3062 36.1974 28.3324 36.1269 28.3324H19.1272C19.0567 28.3324 18.9892 28.3062 18.9394 28.2597C18.8896 28.2132 18.8616 28.1502 18.8616 28.0844V22.7606C19.2994 22.8378 19.7441 22.8769 20.1897 22.8771H35.0644C35.5101 22.8769 35.9547 22.8378 36.3925 22.7606V28.0844Z" fill="#0C2503"/>
<path d="M42.2362 16.182C42.2341 14.4069 41.4778 12.7052 40.1333 11.45C38.7888 10.1949 36.9659 9.48886 35.0644 9.48689C34.775 9.48739 34.4858 9.50395 34.1985 9.53648C33.6406 8.34193 32.7214 7.32533 31.5537 6.61136C30.3859 5.89739 29.0203 5.51709 27.6244 5.51709C26.2285 5.51709 24.8629 5.89739 23.6951 6.61136C22.5274 7.32533 21.6082 8.34193 21.0503 9.53648C20.7647 9.50414 20.4773 9.48758 20.1897 9.48689C18.5478 9.48786 16.9561 10.0147 15.6802 10.9794C14.4044 11.9441 13.5218 13.2883 13.1798 14.7874C12.8378 16.2865 13.0571 17.8498 13.8012 19.2161C14.5452 20.5824 15.7689 21.669 17.2679 22.2944V28.0844C17.2679 28.5448 17.4637 28.9863 17.8124 29.3118C18.1611 29.6373 18.6341 29.8202 19.1272 29.8202H36.1269C36.62 29.8202 37.093 29.6373 37.4417 29.3118C37.7904 28.9863 37.9863 28.5448 37.9863 28.0844V22.2944C39.2506 21.7666 40.3245 20.9088 41.0786 19.8243C41.8326 18.7398 42.2346 17.4749 42.2362 16.182ZM36.3925 28.0844C36.3925 28.1502 36.3646 28.2132 36.3147 28.2597C36.2649 28.3062 36.1974 28.3324 36.1269 28.3324H19.1272C19.0567 28.3324 18.9892 28.3062 18.9394 28.2597C18.8896 28.2132 18.8616 28.1502 18.8616 28.0844V22.7606C19.2994 22.8378 19.7441 22.8769 20.1897 22.8771H35.0644C35.5101 22.8769 35.9547 22.8378 36.3925 22.7606V28.0844ZM35.0644 21.3893H32.8983L33.7124 18.3467C33.7379 18.252 33.7431 18.1535 33.7278 18.0568C33.7125 17.9602 33.6769 17.8673 33.6231 17.7835C33.5694 17.6997 33.4984 17.6266 33.4144 17.5683C33.3304 17.5101 33.2349 17.4679 33.1334 17.4441C33.0319 17.4204 32.9263 17.4155 32.8228 17.4298C32.7193 17.4441 32.6198 17.4773 32.53 17.5275C32.4402 17.5777 32.3619 17.6439 32.2996 17.7224C32.2372 17.8008 32.192 17.89 32.1665 17.9847L31.2541 21.3893H28.4239V18.1657C28.4239 17.9684 28.34 17.7792 28.1905 17.6397C28.0411 17.5002 27.8384 17.4218 27.6271 17.4218C27.4157 17.4218 27.213 17.5002 27.0636 17.6397C26.9142 17.7792 26.8302 17.9684 26.8302 18.1657V21.3893H24L23.0876 17.9847C23.0621 17.89 23.0169 17.8008 22.9546 17.7224C22.8922 17.6439 22.8139 17.5777 22.7241 17.5275C22.6343 17.4773 22.5348 17.4441 22.4313 17.4298C22.3278 17.4155 22.2222 17.4204 22.1207 17.4441C22.0192 17.4679 21.9237 17.5101 21.8397 17.5683C21.7557 17.6266 21.6847 17.6997 21.631 17.7835C21.5772 17.8673 21.5416 17.9602 21.5263 18.0568C21.511 18.1535 21.5162 18.252 21.5417 18.3467L22.3558 21.3893H20.1897C18.7103 21.3893 17.2915 20.8407 16.2454 19.8641C15.1993 18.8876 14.6116 17.5631 14.6116 16.182C14.6116 14.8009 15.1993 13.4764 16.2454 12.4999C17.2915 11.5233 18.7103 10.9747 20.1897 10.9747C20.3225 10.9747 20.4553 10.9747 20.5775 10.9883C20.4969 11.3927 20.456 11.8032 20.4553 12.2145C20.4553 12.4118 20.5393 12.601 20.6887 12.7405C20.8381 12.88 21.0408 12.9584 21.2522 12.9584C21.4635 12.9584 21.6662 12.88 21.8156 12.7405C21.9651 12.601 22.049 12.4118 22.049 12.2145C22.049 10.8335 22.6367 9.50896 23.6828 8.5324C24.7289 7.55584 26.1477 7.00722 27.6271 7.00722C29.1064 7.00722 30.5252 7.55584 31.5713 8.5324C32.6174 9.50896 33.2051 10.8335 33.2051 12.2145C33.2051 12.4118 33.289 12.601 33.4385 12.7405C33.5879 12.88 33.7906 12.9584 34.002 12.9584C34.2133 12.9584 34.416 12.88 34.5654 12.7405C34.7149 12.601 34.7988 12.4118 34.7988 12.2145C34.7981 11.8032 34.7572 11.3927 34.6766 10.9883C34.8094 10.9809 34.9343 10.9747 35.0644 10.9747C36.5438 10.9747 37.9626 11.5233 39.0087 12.4999C40.0548 13.4764 40.6425 14.8009 40.6425 16.182C40.6425 17.5631 40.0548 18.8876 39.0087 19.8641C37.9626 20.8407 36.5438 21.3893 35.0644 21.3893Z" stroke="#0C2503" stroke-width="0.996659"/>
<path d="M35.0644 21.3893H32.8983L33.7124 18.3467C33.7379 18.252 33.7431 18.1535 33.7278 18.0568C33.7125 17.9602 33.6769 17.8673 33.6231 17.7835C33.5694 17.6997 33.4984 17.6266 33.4144 17.5683C33.3304 17.5101 33.2349 17.4679 33.1334 17.4441C33.0319 17.4204 32.9263 17.4155 32.8228 17.4298C32.7193 17.4441 32.6198 17.4773 32.53 17.5275C32.4402 17.5777 32.3619 17.6439 32.2996 17.7224C32.2372 17.8008 32.192 17.89 32.1665 17.9847L31.2541 21.3893H28.4239V18.1657C28.4239 17.9684 28.34 17.7792 28.1905 17.6397C28.0411 17.5002 27.8384 17.4218 27.6271 17.4218C27.4157 17.4218 27.213 17.5002 27.0636 17.6397C26.9142 17.7792 26.8302 17.9684 26.8302 18.1657V21.3893H24L23.0876 17.9847C23.0621 17.89 23.0169 17.8008 22.9546 17.7224C22.8922 17.6439 22.8139 17.5777 22.7241 17.5275C22.6343 17.4773 22.5348 17.4441 22.4313 17.4298C22.3278 17.4155 22.2222 17.4204 22.1207 17.4441C22.0192 17.4679 21.9237 17.5101 21.8397 17.5683C21.7557 17.6266 21.6847 17.6997 21.631 17.7835C21.5772 17.8673 21.5416 17.9602 21.5263 18.0568C21.511 18.1535 21.5162 18.252 21.5417 18.3467L22.3558 21.3893H20.1897C18.7103 21.3893 17.2915 20.8407 16.2454 19.8641C15.1993 18.8876 14.6116 17.5631 14.6116 16.182C14.6116 14.8009 15.1993 13.4764 16.2454 12.4999C17.2915 11.5233 18.7103 10.9747 20.1897 10.9747C20.3225 10.9747 20.4553 10.9747 20.5775 10.9883C20.4969 11.3927 20.456 11.8032 20.4553 12.2145C20.4553 12.4118 20.5393 12.601 20.6887 12.7405C20.8381 12.88 21.0408 12.9584 21.2522 12.9584C21.4635 12.9584 21.6662 12.88 21.8156 12.7405C21.9651 12.601 22.049 12.4118 22.049 12.2145C22.049 10.8335 22.6367 9.50896 23.6828 8.5324C24.7289 7.55584 26.1477 7.00722 27.6271 7.00722C29.1064 7.00722 30.5252 7.55584 31.5713 8.5324C32.6174 9.50896 33.2051 10.8335 33.2051 12.2145C33.2051 12.4118 33.289 12.601 33.4385 12.7405C33.5879 12.88 33.7906 12.9584 34.002 12.9584C34.2133 12.9584 34.416 12.88 34.5654 12.7405C34.7149 12.601 34.7988 12.4118 34.7988 12.2145C34.7981 11.8032 34.7572 11.3927 34.6766 10.9883C34.8094 10.9809 34.9343 10.9747 35.0644 10.9747C36.5438 10.9747 37.9626 11.5233 39.0087 12.4999C40.0548 13.4764 40.6425 14.8009 40.6425 16.182C40.6425 17.5631 40.0548 18.8876 39.0087 19.8641C37.9626 20.8407 36.5438 21.3893 35.0644 21.3893Z" stroke="#0C2503" stroke-width="0.996659"/>
<path d="M36.3925 28.0844C36.3925 28.1502 36.3646 28.2132 36.3147 28.2597C36.2649 28.3062 36.1974 28.3324 36.1269 28.3324H19.1272C19.0567 28.3324 18.9892 28.3062 18.9394 28.2597C18.8896 28.2132 18.8616 28.1502 18.8616 28.0844V22.7606C19.2994 22.8378 19.7441 22.8769 20.1897 22.8771H35.0644C35.5101 22.8769 35.9547 22.8378 36.3925 22.7606V28.0844Z" stroke="#0C2503" stroke-width="0.996659"/>
</g>
</g>
<defs>
<filter id="filter0_d_2251_27379" x="0.909404" y="0.52832" width="292.485" height="242.716" filterUnits="userSpaceOnUse" color-interpolation-filters="sRGB">
<feFlood flood-opacity="0" result="BackgroundImageFix"/>
<feColorMatrix in="SourceAlpha" type="matrix" values="0 0 0 0 0 0 0 0 0 0 0 0 0 0 0 0 0 0 127 0" result="hardAlpha"/>
<feOffset dy="3.38552"/>
<feGaussianBlur stdDeviation="1.69276"/>
<feComposite in2="hardAlpha" operator="out"/>
<feColorMatrix type="matrix" values="0 0 0 0 0 0 0 0 0 0 0 0 0 0 0 0 0 0 0.03 0"/>
<feBlend mode="normal" in2="BackgroundImageFix" result="effect1_dropShadow_2251_27379"/>
<feBlend mode="normal" in="SourceGraphic" in2="effect1_dropShadow_2251_27379" result="shape"/>
</filter>
<filter id="filter1_d_2251_27379" x="14.3371" y="19.4219" width="265.63" height="159.639" filterUnits="userSpaceOnUse" color-interpolation-filters="sRGB">
<feFlood flood-opacity="0" result="BackgroundImageFix"/>
<feColorMatrix in="SourceAlpha" type="matrix" values="0 0 0 0 0 0 0 0 0 0 0 0 0 0 0 0 0 0 127 0" result="hardAlpha"/>
<feOffset dy="3.78275"/>
<feGaussianBlur stdDeviation="1.89138"/>
<feComposite in2="hardAlpha" operator="out"/>
<feColorMatrix type="matrix" values="0 0 0 0 0 0 0 0 0 0 0 0 0 0 0 0 0 0 0.03 0"/>
<feBlend mode="normal" in2="BackgroundImageFix" result="effect1_dropShadow_2251_27379"/>
<feBlend mode="normal" in="SourceGraphic" in2="effect1_dropShadow_2251_27379" result="shape"/>
</filter>
<clipPath id="clip0_2251_27379">
<rect x="4.29492" y="0.52832" width="285.714" height="235.945" rx="27.6498" fill="white"/>
</clipPath>
</defs>
</svg>
