<svg width="290" height="244" viewBox="0 0 290 244" fill="none" xmlns="http://www.w3.org/2000/svg">
<g filter="url(#filter0_d_2251_27340)">
<g clip-path="url(#clip0_2251_27340)">
<rect y="0.52832" width="285.714" height="235.945" rx="27.6498" fill="white"/>
<g filter="url(#filter1_d_2251_27340)">
<rect x="13.8247" y="19.4219" width="258.065" height="152.074" rx="7.74768" fill="#EDFAE7"/>
<path d="M36.3427 75.5819V73.8182H44.653V75.5819H41.4545V84.7441H39.5413V75.5819H36.3427ZM47.6699 84.7441H45.8464V73.6239H47.6849V78.3171C48.1482 77.5997 49.0151 77.1363 50.0763 77.1363C51.8998 77.1363 52.8564 78.2872 52.8564 80.2004V84.7441H51.0329V80.6338C51.0329 79.3933 50.4201 78.7954 49.4934 78.7954C48.3425 78.7954 47.6699 79.6025 47.6699 80.7086V84.7441ZM57.9512 84.9384C55.7541 84.9384 54.2146 83.3392 54.2146 81.0523C54.2146 78.7356 55.7242 77.1363 57.8914 77.1363C60.1035 77.1363 61.5085 78.616 61.5085 80.9178V81.4708L55.9484 81.4858C56.0829 82.7861 56.7704 83.4438 57.9811 83.4438C58.9825 83.4438 59.6402 83.0552 59.8494 82.3527H61.5384C61.2245 83.9669 59.8793 84.9384 57.9512 84.9384ZM57.9064 78.631C56.8302 78.631 56.1726 79.2139 55.9932 80.3199H59.7C59.7 79.3036 58.9975 78.631 57.9064 78.631ZM67.1908 80.7534V73.8182H69.104V80.6338C69.104 82.2032 69.9559 83.0701 71.5104 83.0701C73.0648 83.0701 73.9317 82.1883 73.9317 80.6338V73.8182H75.8449V80.7534C75.8449 83.3093 74.1709 84.9235 71.5104 84.9235C68.8648 84.9235 67.1908 83.3242 67.1908 80.7534ZM79.7676 84.7441H77.959V73.6239H79.7676V84.7441ZM84.1914 84.7441H82.3679V78.8851H80.948V77.3605H82.3679V75.0587H84.1914V77.3605H85.6263V78.8851H84.1914V84.7441ZM87.6716 75.8808C87.0439 75.8808 86.5506 75.3876 86.5506 74.7747C86.5506 74.1619 87.0439 73.6836 87.6716 73.6836C88.2695 73.6836 88.7627 74.1619 88.7627 74.7747C88.7627 75.3876 88.2695 75.8808 87.6716 75.8808ZM86.7599 84.7441V77.3605H88.5834V84.7441H86.7599ZM92.2908 84.7441H90.4673V77.3605H92.1414L92.2908 78.2274C92.6645 77.6146 93.4118 77.1363 94.473 77.1363C95.594 77.1363 96.3713 77.6893 96.7599 78.5413C97.1335 77.6893 98.0004 77.1363 99.1214 77.1363C100.915 77.1363 101.902 78.2125 101.902 79.9164V84.7441H100.093V80.3947C100.093 79.3335 99.525 78.7804 98.6581 78.7804C97.7762 78.7804 97.1036 79.3484 97.1036 80.5591V84.7441H95.2802V80.3797C95.2802 79.3484 94.7271 78.7954 93.8602 78.7954C92.9933 78.7954 92.2908 79.3634 92.2908 80.5591V84.7441ZM105.889 84.9384C104.319 84.9384 103.363 84.0267 103.363 82.6367C103.363 81.2765 104.349 80.4246 106.098 80.29L108.31 80.1256V79.9612C108.31 78.9598 107.712 78.5562 106.786 78.5562C105.709 78.5562 105.112 79.0046 105.112 79.7819H103.557C103.557 78.1826 104.872 77.1363 106.875 77.1363C108.863 77.1363 110.089 78.2125 110.089 80.2602V84.7441H108.489L108.355 83.653C108.041 84.4153 107.04 84.9384 105.889 84.9384ZM106.487 83.5634C107.608 83.5634 108.325 82.8908 108.325 81.7548V81.3662L106.786 81.4858C105.65 81.5904 105.216 81.9641 105.216 82.5619C105.216 83.2345 105.665 83.5634 106.487 83.5634ZM114.289 84.7441H112.466V78.8851H111.046V77.3605H112.466V75.0587H114.289V77.3605H115.724V78.8851H114.289V84.7441ZM120.088 84.9384C117.891 84.9384 116.351 83.3392 116.351 81.0523C116.351 78.7356 117.861 77.1363 120.028 77.1363C122.24 77.1363 123.645 78.616 123.645 80.9178V81.4708L118.085 81.4858C118.219 82.7861 118.907 83.4438 120.118 83.4438C121.119 83.4438 121.777 83.0552 121.986 82.3527H123.675C123.361 83.9669 122.016 84.9384 120.088 84.9384ZM120.043 78.631C118.967 78.631 118.309 79.2139 118.13 80.3199H121.836C121.836 79.3036 121.134 78.631 120.043 78.631ZM134.185 75.4324C132.018 75.4324 130.777 77.0018 130.777 79.3634C130.777 81.7997 132.182 83.1299 134.2 83.1299C136.098 83.1299 137.249 82.0836 137.249 80.3349V80.29H133.946V78.6011H139.028V84.7441H137.413L137.294 83.4886C136.696 84.3256 135.455 84.9086 133.976 84.9086C130.912 84.9086 128.774 82.6815 128.774 79.3185C128.774 76.0004 130.942 73.6388 134.23 73.6388C136.726 73.6388 138.654 75.0886 138.968 77.3157H136.95C136.606 76.0303 135.5 75.4324 134.185 75.4324ZM145.832 77.3605H147.655V84.7441H145.966L145.832 83.7577C145.383 84.4602 144.427 84.9384 143.44 84.9384C141.736 84.9384 140.735 83.7876 140.735 81.979V77.3605H142.558V81.3363C142.558 82.7413 143.111 83.3093 144.128 83.3093C145.279 83.3093 145.832 82.6367 145.832 81.2317V77.3605ZM150.45 75.8808C149.823 75.8808 149.329 75.3876 149.329 74.7747C149.329 74.1619 149.823 73.6836 150.45 73.6836C151.048 73.6836 151.541 74.1619 151.541 74.7747C151.541 75.3876 151.048 75.8808 150.45 75.8808ZM149.539 84.7441V77.3605H151.362V84.7441H149.539ZM156.28 84.9384C154.143 84.9384 152.813 83.3691 152.813 81.0822C152.813 78.7804 154.158 77.1363 156.385 77.1363C157.416 77.1363 158.328 77.5698 158.791 78.3021V73.6239H160.6V84.7441H158.926L158.806 83.5933C158.358 84.4452 157.401 84.9384 156.28 84.9384ZM156.684 83.2644C157.954 83.2644 158.776 82.3527 158.776 81.0224C158.776 79.6922 157.954 78.7655 156.684 78.7655C155.413 78.7655 154.636 79.7071 154.636 81.0224C154.636 82.3377 155.413 83.2644 156.684 83.2644ZM165.803 84.9384C163.606 84.9384 162.067 83.3392 162.067 81.0523C162.067 78.7356 163.576 77.1363 165.744 77.1363C167.956 77.1363 169.361 78.616 169.361 80.9178V81.4708L163.8 81.4858C163.935 82.7861 164.623 83.4438 165.833 83.4438C166.835 83.4438 167.492 83.0552 167.702 82.3527H169.391C169.077 83.9669 167.731 84.9384 165.803 84.9384ZM165.758 78.631C164.682 78.631 164.025 79.2139 163.845 80.3199H167.552C167.552 79.3036 166.85 78.631 165.758 78.631ZM177.36 84.7441H175.536V78.8851H174.116V77.3605H175.536V75.0587H177.36V77.3605H178.795V78.8851H177.36V84.7441ZM179.422 81.0374C179.422 78.7356 181.081 77.1513 183.368 77.1513C185.654 77.1513 187.313 78.7356 187.313 81.0374C187.313 83.3392 185.654 84.9235 183.368 84.9235C181.081 84.9235 179.422 83.3392 179.422 81.0374ZM181.245 81.0374C181.245 82.3826 182.112 83.2943 183.368 83.2943C184.623 83.2943 185.49 82.3826 185.49 81.0374C185.49 79.6922 184.623 78.7804 183.368 78.7804C182.112 78.7804 181.245 79.6922 181.245 81.0374ZM37.2993 102.744V91.8182H41.6488C43.8011 91.8182 45.1164 92.9392 45.1164 94.7626C45.1164 95.9733 44.5783 96.8402 43.547 97.2737C44.6979 97.6473 45.2808 98.5142 45.2808 99.7847C45.2808 101.653 43.9804 102.744 41.7235 102.744H37.2993ZM41.4844 93.5071H39.2125V96.4815H41.5292C42.5755 96.4815 43.1584 95.9285 43.1584 94.957C43.1584 94.0153 42.5605 93.5071 41.4844 93.5071ZM41.6488 98.0957H39.2125V101.055H41.6488C42.7249 101.055 43.3228 100.532 43.3228 99.5456C43.3228 98.6189 42.71 98.0957 41.6488 98.0957ZM48.9632 102.938C47.3938 102.938 46.4372 102.027 46.4372 100.637C46.4372 99.2765 47.4236 98.4246 49.1724 98.29L51.3845 98.1256V97.9612C51.3845 96.9598 50.7866 96.5562 49.8599 96.5562C48.7838 96.5562 48.1859 97.0046 48.1859 97.7819H46.6315C46.6315 96.1826 47.9468 95.1363 49.9496 95.1363C51.9375 95.1363 53.1632 96.2125 53.1632 98.2602V102.744H51.5639L51.4293 101.653C51.1155 102.415 50.114 102.938 48.9632 102.938ZM49.561 101.563C50.682 101.563 51.3995 100.891 51.3995 99.7548V99.3662L49.8599 99.4858C48.724 99.5904 48.2906 99.9641 48.2906 100.562C48.2906 101.235 48.739 101.563 49.561 101.563ZM56.793 102.744H54.9844V91.6239H56.793V102.744ZM60.9029 102.938C59.3335 102.938 58.377 102.027 58.377 100.637C58.377 99.2765 59.3634 98.4246 61.1122 98.29L63.3243 98.1256V97.9612C63.3243 96.9598 62.7264 96.5562 61.7997 96.5562C60.7236 96.5562 60.1257 97.0046 60.1257 97.7819H58.5713C58.5713 96.1826 59.8866 95.1363 61.8894 95.1363C63.8773 95.1363 65.1029 96.2125 65.1029 98.2602V102.744H63.5036L63.3691 101.653C63.0552 102.415 62.0538 102.938 60.9029 102.938ZM61.5008 101.563C62.6218 101.563 63.3392 100.891 63.3392 99.7548V99.3662L61.7997 99.4858C60.6638 99.5904 60.2303 99.9641 60.2303 100.562C60.2303 101.235 60.6787 101.563 61.5008 101.563ZM68.7178 102.744H66.8943V95.3605H68.5833L68.7327 96.3171C69.1961 95.5698 70.0929 95.1363 71.0943 95.1363C72.9477 95.1363 73.9043 96.2872 73.9043 98.2004V102.744H72.0808V98.6338C72.0808 97.3933 71.468 96.7954 70.5263 96.7954C69.4053 96.7954 68.7178 97.5726 68.7178 98.7683V102.744ZM75.2624 99.0374C75.2624 96.7505 76.772 95.1363 78.9542 95.1363C80.972 95.1363 82.3471 96.2573 82.5414 98.036H80.7179C80.5087 97.1989 79.8959 96.7655 79.029 96.7655C77.8631 96.7655 77.0859 97.6473 77.0859 99.0374C77.0859 100.427 77.8034 101.294 78.9692 101.294C79.8809 101.294 80.5236 100.846 80.7179 100.039H82.5564C82.3322 101.758 80.8973 102.938 78.9692 102.938C76.7272 102.938 75.2624 101.384 75.2624 99.0374ZM87.2168 102.938C85.0197 102.938 83.4802 101.339 83.4802 99.0523C83.4802 96.7356 84.9898 95.1363 87.157 95.1363C89.3691 95.1363 90.7741 96.616 90.7741 98.9178V99.4708L85.214 99.4858C85.3485 100.786 86.036 101.444 87.2467 101.444C88.2481 101.444 88.9058 101.055 89.115 100.353H90.804C90.4901 101.967 89.1449 102.938 87.2168 102.938ZM87.172 96.631C86.0958 96.631 85.4382 97.2139 85.2588 98.3199H88.9656C88.9656 97.3036 88.2631 96.631 87.172 96.631ZM95.2677 102.938C93.1303 102.938 91.8 101.369 91.8 99.0822C91.8 96.7804 93.1452 95.1363 95.3723 95.1363C96.4036 95.1363 97.3154 95.5698 97.7787 96.3021V91.6239H99.5872V102.744H97.9132L97.7936 101.593C97.3452 102.445 96.3887 102.938 95.2677 102.938ZM95.6712 101.264C96.9417 101.264 97.7637 100.353 97.7637 99.0224C97.7637 97.6922 96.9417 96.7655 95.6712 96.7655C94.4008 96.7655 93.6235 97.7071 93.6235 99.0224C93.6235 100.338 94.4008 101.264 95.6712 101.264ZM112.571 102.744H105.785V91.8182H112.571V93.5819H107.698V96.3918H112.063V98.0808H107.698V100.98H112.571V102.744ZM116.573 102.938C115.004 102.938 114.047 102.027 114.047 100.637C114.047 99.2765 115.034 98.4246 116.783 98.29L118.995 98.1256V97.9612C118.995 96.9598 118.397 96.5562 117.47 96.5562C116.394 96.5562 115.796 97.0046 115.796 97.7819H114.242C114.242 96.1826 115.557 95.1363 117.56 95.1363C119.548 95.1363 120.773 96.2125 120.773 98.2602V102.744H119.174L119.039 101.653C118.726 102.415 117.724 102.938 116.573 102.938ZM117.171 101.563C118.292 101.563 119.01 100.891 119.01 99.7548V99.3662L117.47 99.4858C116.334 99.5904 115.901 99.9641 115.901 100.562C115.901 101.235 116.349 101.563 117.171 101.563ZM124.973 102.744H123.15V96.8851H121.73V95.3605H123.15V93.0587H124.973V95.3605H126.408V96.8851H124.973V102.744ZM128.454 93.8808C127.826 93.8808 127.333 93.3876 127.333 92.7747C127.333 92.1619 127.826 91.6836 128.454 91.6836C129.052 91.6836 129.545 92.1619 129.545 92.7747C129.545 93.3876 129.052 93.8808 128.454 93.8808ZM127.542 102.744V95.3605H129.365V102.744H127.542ZM133.073 102.744H131.249V95.3605H132.938L133.088 96.3171C133.551 95.5698 134.448 95.1363 135.449 95.1363C137.303 95.1363 138.259 96.2872 138.259 98.2004V102.744H136.436V98.6338C136.436 97.3933 135.823 96.7954 134.881 96.7954C133.76 96.7954 133.073 97.5726 133.073 98.7683V102.744ZM139.632 98.8879C139.632 96.7356 141.037 95.1214 143.145 95.1214C144.251 95.1214 145.118 95.5847 145.551 96.3769L145.656 95.3605H147.345V102.37C147.345 104.837 145.865 106.376 143.474 106.376C141.351 106.376 139.902 105.165 139.677 103.193H141.501C141.62 104.149 142.353 104.717 143.474 104.717C144.729 104.717 145.536 103.925 145.536 102.699V101.474C145.073 102.161 144.161 102.595 143.1 102.595C141.008 102.595 139.632 101.025 139.632 98.8879ZM141.471 98.8431C141.471 100.084 142.263 101.01 143.459 101.01C144.714 101.01 145.492 100.128 145.492 98.8431C145.492 97.5876 144.729 96.7207 143.459 96.7207C142.248 96.7207 141.471 97.6324 141.471 98.8431ZM150.607 97.4829C149.95 97.4829 149.396 96.9449 149.396 96.3021C149.396 95.6445 149.95 95.1064 150.607 95.1064C151.265 95.1064 151.818 95.6445 151.818 96.3021C151.818 96.9449 151.265 97.4829 150.607 97.4829ZM150.607 102.924C149.95 102.924 149.396 102.385 149.396 101.743C149.396 101.085 149.95 100.547 150.607 100.547C151.265 100.547 151.818 101.085 151.818 101.743C151.818 102.385 151.265 102.924 150.607 102.924ZM160.443 102.744L157.185 91.8182H159.173L160.907 97.5876C161.071 98.1854 161.235 98.7982 161.4 99.7548C161.579 98.7833 161.744 98.2153 161.938 97.5876L163.657 91.8182H165.764L167.453 97.5876C167.633 98.2004 167.797 98.8281 167.976 99.7548C168.186 98.7384 168.335 98.1555 168.499 97.6025L170.263 91.8182H172.206L168.888 102.744H167.035L164.703 94.7925L162.326 102.744H160.443ZM175.198 102.744H173.374V91.6239H175.213V96.3171C175.676 95.5997 176.543 95.1363 177.604 95.1363C179.428 95.1363 180.384 96.2872 180.384 98.2004V102.744H178.561V98.6338C178.561 97.3933 177.948 96.7954 177.021 96.7954C175.87 96.7954 175.198 97.6025 175.198 98.7086V102.744ZM184.373 102.938C182.804 102.938 181.847 102.027 181.847 100.637C181.847 99.2765 182.834 98.4246 184.582 98.29L186.794 98.1256V97.9612C186.794 96.9598 186.197 96.5562 185.27 96.5562C184.194 96.5562 183.596 97.0046 183.596 97.7819H182.041C182.041 96.1826 183.357 95.1363 185.36 95.1363C187.347 95.1363 188.573 96.2125 188.573 98.2602V102.744H186.974L186.839 101.653C186.525 102.415 185.524 102.938 184.373 102.938ZM184.971 101.563C186.092 101.563 186.809 100.891 186.809 99.7548V99.3662L185.27 99.4858C184.134 99.5904 183.701 99.9641 183.701 100.562C183.701 101.235 184.149 101.563 184.971 101.563ZM192.773 102.744H190.95V96.8851H189.53V95.3605H190.95V93.0587H192.773V95.3605H194.208V96.8851H192.773V102.744ZM202.27 98.4395L198.578 91.8182H200.716L202.868 95.794C203.032 96.0929 203.137 96.332 203.257 96.6011C203.391 96.332 203.451 96.1527 203.645 95.794L205.783 91.8182H207.86L204.183 98.4395V102.744H202.27V98.4395ZM206.965 99.0374C206.965 96.7356 208.624 95.1513 210.911 95.1513C213.198 95.1513 214.857 96.7356 214.857 99.0374C214.857 101.339 213.198 102.924 210.911 102.924C208.624 102.924 206.965 101.339 206.965 99.0374ZM208.788 99.0374C208.788 100.383 209.655 101.294 210.911 101.294C212.166 101.294 213.033 100.383 213.033 99.0374C213.033 97.6922 212.166 96.7804 210.911 96.7804C209.655 96.7804 208.788 97.6922 208.788 99.0374ZM221.134 95.3605H222.958V102.744H221.269L221.134 101.758C220.686 102.46 219.729 102.938 218.743 102.938C217.039 102.938 216.037 101.788 216.037 99.979V95.3605H217.861V99.3363C217.861 100.741 218.414 101.309 219.43 101.309C220.581 101.309 221.134 100.637 221.134 99.2317V95.3605ZM229.474 95.3306V97.0196H228.802C227.487 97.0196 226.664 97.7221 226.664 99.157V102.744H224.841V95.3755H226.56L226.664 96.4516C226.978 95.7192 227.681 95.226 228.667 95.226C228.921 95.226 229.175 95.2559 229.474 95.3306ZM41.6189 116.978H39.2125V120.744H37.2993V109.818H41.6189C43.816 109.818 45.236 111.253 45.236 113.39C45.236 115.498 43.8011 116.978 41.6189 116.978ZM41.2452 111.522H39.2125V115.274H41.2153C42.5306 115.274 43.2331 114.571 43.2331 113.375C43.2331 112.18 42.5157 111.522 41.2452 111.522ZM48.4147 120.744H46.6061V109.624H48.4147V120.744ZM52.5247 120.938C50.9553 120.938 49.9987 120.027 49.9987 118.637C49.9987 117.277 50.9851 116.425 52.7339 116.29L54.946 116.126V115.961C54.946 114.96 54.3481 114.556 53.4214 114.556C52.3453 114.556 51.7474 115.005 51.7474 115.782H50.193C50.193 114.183 51.5083 113.136 53.5111 113.136C55.499 113.136 56.7247 114.212 56.7247 116.26V120.744H55.1254L54.9908 119.653C54.677 120.415 53.6755 120.938 52.5247 120.938ZM53.1225 119.563C54.2435 119.563 54.961 118.891 54.961 117.755V117.366L53.4214 117.486C52.2855 117.59 51.8521 117.964 51.8521 118.562C51.8521 119.235 52.3005 119.563 53.1225 119.563ZM60.9249 120.744H59.1014V114.885H57.6815V113.361H59.1014V111.059H60.9249V113.361H62.3598V114.885H60.9249V120.744ZM66.7236 120.938C64.5264 120.938 62.9869 119.339 62.9869 117.052C62.9869 114.736 64.4965 113.136 66.6638 113.136C68.8759 113.136 70.2809 114.616 70.2809 116.918V117.471L64.7207 117.486C64.8553 118.786 65.5428 119.444 66.7535 119.444C67.7549 119.444 68.4126 119.055 68.6218 118.353H70.3108C69.9969 119.967 68.6517 120.938 66.7236 120.938ZM66.6787 114.631C65.6026 114.631 64.9449 115.214 64.7656 116.32H68.4723C68.4723 115.304 67.7699 114.631 66.6787 114.631ZM75.4101 112.867C75.4101 110.954 76.9945 109.624 79.2963 109.624C81.5084 109.624 82.9133 110.849 82.9731 112.822H81.06C81.0151 111.881 80.3425 111.328 79.2664 111.328C78.0856 111.328 77.3233 111.896 77.3233 112.807C77.3233 113.585 77.7418 114.018 78.6536 114.227L80.3724 114.601C82.2407 115.005 83.1525 115.961 83.1525 117.59C83.1525 119.623 81.5682 120.938 79.1617 120.938C76.8301 120.938 75.3055 119.698 75.2607 117.74H77.1738C77.1888 118.667 77.9361 119.22 79.1617 119.22C80.4322 119.22 81.2393 118.667 81.2393 117.755C81.2393 117.022 80.8657 116.589 79.9689 116.395L78.2351 116.006C76.3817 115.603 75.4101 114.541 75.4101 112.867ZM86.4377 120.744H84.6142V109.624H86.4527V114.317C86.916 113.6 87.7829 113.136 88.8441 113.136C90.6676 113.136 91.6242 114.287 91.6242 116.2V120.744H89.8007V116.634C89.8007 115.393 89.1879 114.795 88.2612 114.795C87.1103 114.795 86.4377 115.603 86.4377 116.709V120.744ZM92.9823 117.037C92.9823 114.736 94.6414 113.151 96.9283 113.151C99.2151 113.151 100.874 114.736 100.874 117.037C100.874 119.339 99.2151 120.924 96.9283 120.924C94.6414 120.924 92.9823 119.339 92.9823 117.037ZM94.8058 117.037C94.8058 118.383 95.6727 119.294 96.9283 119.294C98.1838 119.294 99.0507 118.383 99.0507 117.037C99.0507 115.692 98.1838 114.78 96.9283 114.78C95.6727 114.78 94.8058 115.692 94.8058 117.037ZM107.152 113.361H108.975V120.744H107.286L107.152 119.758C106.703 120.46 105.747 120.938 104.76 120.938C103.056 120.938 102.055 119.788 102.055 117.979V113.361H103.878V117.336C103.878 118.741 104.431 119.309 105.448 119.309C106.598 119.309 107.152 118.637 107.152 117.232V113.361ZM112.697 120.744H110.888V109.624H112.697V120.744ZM117.644 120.938C115.506 120.938 114.176 119.369 114.176 117.082C114.176 114.78 115.521 113.136 117.748 113.136C118.78 113.136 119.691 113.57 120.155 114.302V109.624H121.963V120.744H120.289L120.17 119.593C119.721 120.445 118.765 120.938 117.644 120.938ZM118.047 119.264C119.318 119.264 120.14 118.353 120.14 117.022C120.14 115.692 119.318 114.765 118.047 114.765C116.777 114.765 116 115.707 116 117.022C116 118.338 116.777 119.264 118.047 119.264ZM130.074 109.818V118.98H134.648V120.744H128.161V109.818H130.074ZM135.355 117.037C135.355 114.736 137.015 113.151 139.301 113.151C141.588 113.151 143.247 114.736 143.247 117.037C143.247 119.339 141.588 120.924 139.301 120.924C137.015 120.924 135.355 119.339 135.355 117.037ZM137.179 117.037C137.179 118.383 138.046 119.294 139.301 119.294C140.557 119.294 141.424 118.383 141.424 117.037C141.424 115.692 140.557 114.78 139.301 114.78C138.046 114.78 137.179 115.692 137.179 117.037ZM144.259 117.037C144.259 114.736 145.918 113.151 148.205 113.151C150.492 113.151 152.151 114.736 152.151 117.037C152.151 119.339 150.492 120.924 148.205 120.924C145.918 120.924 144.259 119.339 144.259 117.037ZM146.083 117.037C146.083 118.383 146.95 119.294 148.205 119.294C149.461 119.294 150.328 118.383 150.328 117.037C150.328 115.692 149.461 114.78 148.205 114.78C146.95 114.78 146.083 115.692 146.083 117.037ZM155.435 120.744H153.626V109.624H155.435V116.454L158.305 113.361H160.591L157.781 116.29L160.532 120.744H158.439L156.511 117.635L155.435 118.756V120.744ZM167.85 109.818V118.98H172.423V120.744H165.937V109.818H167.85ZM174.622 111.881C173.994 111.881 173.501 111.388 173.501 110.775C173.501 110.162 173.994 109.684 174.622 109.684C175.22 109.684 175.713 110.162 175.713 110.775C175.713 111.388 175.22 111.881 174.622 111.881ZM173.71 120.744V113.361H175.534V120.744H173.71ZM179.256 120.744H177.447V109.624H179.256V116.454L182.126 113.361H184.413L181.603 116.29L184.353 120.744H182.26L180.332 117.635L179.256 118.756V120.744ZM188.428 120.938C186.23 120.938 184.691 119.339 184.691 117.052C184.691 114.736 186.201 113.136 188.368 113.136C190.58 113.136 191.985 114.616 191.985 116.918V117.471L186.425 117.486C186.559 118.786 187.247 119.444 188.458 119.444C189.459 119.444 190.117 119.055 190.326 118.353H192.015C191.701 119.967 190.356 120.938 188.428 120.938ZM188.383 114.631C187.307 114.631 186.649 115.214 186.47 116.32H190.176C190.176 115.304 189.474 114.631 188.383 114.631Z" fill="#0C2503"/>
<path d="M38.0179 143.961H36.9791V136.297H38.0179L41.9401 142.222V136.297H42.9789V143.961H41.9401L38.0179 138.035V143.961ZM48.1771 138.777H49.163V143.961H48.2725L48.1665 143.177C47.8697 143.717 47.1807 144.088 46.4174 144.088C45.209 144.088 44.5306 143.272 44.5306 142V138.777H45.527V141.671C45.527 142.784 46.004 143.208 46.7673 143.208C47.6789 143.208 48.1771 142.625 48.1771 141.512V138.777ZM52.0715 143.961H51.0751V139.615H50.0575V138.777H51.0751V137.155H52.0715V138.777H53.0892V139.615H52.0715V143.961ZM56.9516 138.735V139.647H56.5063C55.5629 139.647 54.9799 140.219 54.9799 141.215V143.961H53.9834V138.788H54.9163L54.9799 139.572C55.1919 139.032 55.7113 138.671 56.4215 138.671C56.6017 138.671 56.7502 138.693 56.9516 138.735ZM58.3738 137.548C58.0133 137.548 57.7165 137.251 57.7165 136.89C57.7165 136.519 58.0133 136.233 58.3738 136.233C58.7342 136.233 59.031 136.519 59.031 136.89C59.031 137.251 58.7342 137.548 58.3738 137.548ZM57.8861 143.961V138.777H58.8826V143.961H57.8861ZM61.7921 143.961H60.7956V139.615H59.778V138.777H60.7956V137.155H61.7921V138.777H62.8097V139.615H61.7921V143.961ZM64.1916 137.548C63.8312 137.548 63.5344 137.251 63.5344 136.89C63.5344 136.519 63.8312 136.233 64.1916 136.233C64.552 136.233 64.8488 136.519 64.8488 136.89C64.8488 137.251 64.552 137.548 64.1916 137.548ZM63.704 143.961V138.777H64.7004V143.961H63.704ZM65.8078 141.364C65.8078 139.763 66.9527 138.64 68.5109 138.64C70.0586 138.64 71.2035 139.763 71.2035 141.364C71.2035 142.964 70.0586 144.088 68.5109 144.088C66.9527 144.088 65.8078 142.964 65.8078 141.364ZM66.8149 141.364C66.8149 142.445 67.5039 143.198 68.5109 143.198C69.5074 143.198 70.207 142.445 70.207 141.364C70.207 140.283 69.5074 139.53 68.5109 139.53C67.5039 139.53 66.8149 140.283 66.8149 141.364ZM75.7652 138.777H76.7511V143.961H75.8606L75.7546 143.177C75.4578 143.717 74.7688 144.088 74.0055 144.088C72.7971 144.088 72.1187 143.272 72.1187 142V138.777H73.1151V141.671C73.1151 142.784 73.5921 143.208 74.3554 143.208C75.267 143.208 75.7652 142.625 75.7652 141.512V138.777ZM77.6692 142.456H78.6233C78.6233 142.986 79.0261 143.304 79.6833 143.304C80.383 143.304 80.7858 143.017 80.7858 142.54C80.7858 142.191 80.6162 141.979 80.0755 141.841L79.1639 141.629C78.2417 141.406 77.807 140.95 77.807 140.187C77.807 139.233 78.6127 138.629 79.7575 138.629C80.8918 138.629 81.6338 139.265 81.655 140.251H80.701C80.6798 139.731 80.33 139.403 79.7257 139.403C79.1003 139.403 78.7505 139.678 78.7505 140.155C78.7505 140.505 79.0049 140.738 79.5137 140.866L80.4254 141.088C81.3052 141.3 81.7398 141.703 81.7398 142.477C81.7398 143.463 80.8918 144.088 79.6621 144.088C78.4431 144.088 77.6692 143.442 77.6692 142.456ZM86.6444 143.961H85.7434V136.159H86.7398V139.668C87.079 138.989 87.7787 138.629 88.6267 138.629C90.1108 138.629 91.0012 139.795 91.0012 141.396C91.0012 142.964 90.0684 144.088 88.5631 144.088C87.7469 144.088 87.0578 143.728 86.7186 143.017L86.6444 143.961ZM86.7504 141.353C86.7504 142.434 87.3653 143.187 88.3829 143.187C89.4005 143.187 90.0048 142.424 90.0048 141.353C90.0048 140.293 89.4005 139.53 88.3829 139.53C87.3653 139.53 86.7504 140.293 86.7504 141.353ZM94.3362 144.088C92.8098 144.088 91.7603 142.986 91.7603 141.374C91.7603 139.753 92.7886 138.629 94.2938 138.629C95.7673 138.629 96.7319 139.647 96.7319 141.184V141.555L92.725 141.565C92.7992 142.657 93.3716 143.261 94.3574 143.261C95.1313 143.261 95.6401 142.943 95.8097 142.35H96.7425C96.4881 143.463 95.6189 144.088 94.3362 144.088ZM94.2938 139.466C93.4246 139.466 92.8734 139.986 92.7462 140.897H95.7355C95.7355 140.039 95.1737 139.466 94.2938 139.466ZM99.309 144.088C98.1959 144.088 97.5387 143.463 97.5387 142.519C97.5387 141.565 98.2489 140.972 99.468 140.876L101.1 140.749V140.601C101.1 139.731 100.581 139.424 99.8814 139.424C99.044 139.424 98.567 139.795 98.567 140.42H97.6977C97.6977 139.339 98.5882 138.629 99.9238 138.629C101.206 138.629 102.076 139.307 102.076 140.707V143.961H101.228L101.122 143.124C100.857 143.717 100.146 144.088 99.309 144.088ZM99.5952 143.314C100.539 143.314 101.111 142.699 101.111 141.724V141.449L99.786 141.555C98.9062 141.639 98.5458 141.979 98.5458 142.487C98.5458 143.039 98.9486 143.314 99.5952 143.314ZM104.452 143.961H103.456V138.777H104.357L104.463 139.572C104.791 138.979 105.449 138.629 106.18 138.629C107.547 138.629 108.173 139.466 108.173 140.791V143.961H107.176V141.014C107.176 139.965 106.689 139.541 105.926 139.541C104.993 139.541 104.452 140.208 104.452 141.215V143.961ZM112.112 141.374C112.112 139.753 113.141 138.629 114.656 138.629C115.96 138.629 116.872 139.371 117.052 140.526H116.056C115.886 139.869 115.356 139.519 114.688 139.519C113.745 139.519 113.098 140.24 113.098 141.364C113.098 142.477 113.702 143.198 114.646 143.198C115.356 143.198 115.886 142.827 116.066 142.212H117.063C116.861 143.336 115.897 144.088 114.646 144.088C113.119 144.088 112.112 143.007 112.112 141.374ZM119.63 144.088C118.517 144.088 117.86 143.463 117.86 142.519C117.86 141.565 118.57 140.972 119.789 140.876L121.421 140.749V140.601C121.421 139.731 120.902 139.424 120.202 139.424C119.365 139.424 118.888 139.795 118.888 140.42H118.019C118.019 139.339 118.909 138.629 120.245 138.629C121.527 138.629 122.397 139.307 122.397 140.707V143.961H121.549L121.443 143.124C121.178 143.717 120.467 144.088 119.63 144.088ZM119.916 143.314C120.86 143.314 121.432 142.699 121.432 141.724V141.449L120.107 141.555C119.227 141.639 118.867 141.979 118.867 142.487C118.867 143.039 119.27 143.314 119.916 143.314ZM124.794 143.961H123.798V136.159H124.794V141.215L127.095 138.777H128.345L126.363 140.844L128.335 143.961H127.19L125.674 141.565L124.794 142.487V143.961ZM131.2 144.088C129.673 144.088 128.624 142.986 128.624 141.374C128.624 139.753 129.652 138.629 131.157 138.629C132.631 138.629 133.595 139.647 133.595 141.184V141.555L129.588 141.565C129.663 142.657 130.235 143.261 131.221 143.261C131.995 143.261 132.504 142.943 132.673 142.35H133.606C133.352 143.463 132.482 144.088 131.2 144.088ZM131.157 139.466C130.288 139.466 129.737 139.986 129.61 140.897H132.599C132.599 140.039 132.037 139.466 131.157 139.466ZM138.603 143.95H137.607V136.159H138.603V139.572C138.932 139.011 139.557 138.629 140.363 138.629C141.688 138.629 142.324 139.466 142.324 140.791V143.961H141.328V141.014C141.328 139.965 140.829 139.541 140.087 139.541C139.123 139.541 138.603 140.24 138.603 141.131V143.95ZM144.192 137.548C143.831 137.548 143.535 137.251 143.535 136.89C143.535 136.519 143.831 136.233 144.192 136.233C144.552 136.233 144.849 136.519 144.849 136.89C144.849 137.251 144.552 137.548 144.192 137.548ZM143.704 143.961V138.777H144.701V143.961H143.704ZM145.819 141.237C145.819 139.774 146.762 138.629 148.267 138.629C149.105 138.629 149.752 139.011 150.08 139.657L150.154 138.777H151.045V143.749C151.045 145.381 150.038 146.42 148.448 146.42C147.038 146.42 146.073 145.625 145.882 144.311H146.879C147.006 145.074 147.578 145.519 148.448 145.519C149.423 145.519 150.059 144.883 150.059 143.897V142.858C149.72 143.463 149.041 143.823 148.225 143.823C146.752 143.823 145.819 142.689 145.819 141.237ZM146.815 141.215C146.815 142.191 147.419 142.954 148.395 142.954C149.402 142.954 150.017 142.233 150.017 141.215C150.017 140.219 149.423 139.498 148.405 139.498C147.409 139.498 146.815 140.261 146.815 141.215ZM153.479 143.95H152.483V136.159H153.479V139.572C153.808 139.011 154.433 138.629 155.239 138.629C156.564 138.629 157.2 139.466 157.2 140.791V143.961H156.204V141.014C156.204 139.965 155.705 139.541 154.963 139.541C153.999 139.541 153.479 140.24 153.479 141.131V143.95ZM161.966 137.548C161.606 137.548 161.309 137.251 161.309 136.89C161.309 136.519 161.606 136.233 161.966 136.233C162.327 136.233 162.624 136.519 162.624 136.89C162.624 137.251 162.327 137.548 161.966 137.548ZM161.479 143.961V138.777H162.475V143.961H161.479ZM164.918 143.961H163.922V138.777H164.823L164.929 139.572C165.257 138.979 165.915 138.629 166.646 138.629C168.014 138.629 168.639 139.466 168.639 140.791V143.961H167.643V141.014C167.643 139.965 167.155 139.541 166.392 139.541C165.459 139.541 164.918 140.208 164.918 141.215V143.961ZM172.918 146.282V138.777H173.819L173.893 139.71C174.243 139 174.942 138.629 175.769 138.629C177.253 138.629 178.175 139.742 178.175 141.332C178.175 142.911 177.306 144.099 175.769 144.099C174.942 144.099 174.253 143.749 173.914 143.113V146.282H172.918ZM173.925 141.374C173.925 142.434 174.54 143.198 175.557 143.198C176.575 143.198 177.179 142.434 177.179 141.374C177.179 140.304 176.575 139.541 175.557 139.541C174.54 139.541 173.925 140.293 173.925 141.374ZM182.242 138.735V139.647H181.797C180.853 139.647 180.27 140.219 180.27 141.215V143.961H179.274V138.788H180.207L180.27 139.572C180.482 139.032 181.002 138.671 181.712 138.671C181.892 138.671 182.04 138.693 182.242 138.735ZM182.651 141.364C182.651 139.763 183.796 138.64 185.354 138.64C186.902 138.64 188.047 139.763 188.047 141.364C188.047 142.964 186.902 144.088 185.354 144.088C183.796 144.088 182.651 142.964 182.651 141.364ZM183.658 141.364C183.658 142.445 184.347 143.198 185.354 143.198C186.35 143.198 187.05 142.445 187.05 141.364C187.05 140.283 186.35 139.53 185.354 139.53C184.347 139.53 183.658 140.283 183.658 141.364ZM190.561 143.961H189.564V139.615H188.547V138.777H189.564V137.155H190.561V138.777H191.578V139.615H190.561V143.961ZM194.658 144.088C193.131 144.088 192.082 142.986 192.082 141.374C192.082 139.753 193.11 138.629 194.615 138.629C196.089 138.629 197.053 139.647 197.053 141.184V141.555L193.046 141.565C193.12 142.657 193.693 143.261 194.679 143.261C195.453 143.261 195.961 142.943 196.131 142.35H197.064C196.809 143.463 195.94 144.088 194.658 144.088ZM194.615 139.466C193.746 139.466 193.195 139.986 193.067 140.897H196.057C196.057 140.039 195.495 139.466 194.615 139.466ZM198.654 137.548C198.293 137.548 197.997 137.251 197.997 136.89C197.997 136.519 198.293 136.233 198.654 136.233C199.014 136.233 199.311 136.519 199.311 136.89C199.311 137.251 199.014 137.548 198.654 137.548ZM198.166 143.961V138.777H199.163V143.961H198.166ZM201.606 143.961H200.609V138.777H201.51L201.616 139.572C201.945 138.979 202.602 138.629 203.334 138.629C204.701 138.629 205.326 139.466 205.326 140.791V143.961H204.33V141.014C204.33 139.965 203.842 139.541 203.079 139.541C202.146 139.541 201.606 140.208 201.606 141.215V143.961ZM211.121 144.088C210.008 144.088 209.351 143.463 209.351 142.519C209.351 141.565 210.061 140.972 211.28 140.876L212.912 140.749V140.601C212.912 139.731 212.393 139.424 211.693 139.424C210.856 139.424 210.379 139.795 210.379 140.42H209.51C209.51 139.339 210.4 138.629 211.736 138.629C213.019 138.629 213.888 139.307 213.888 140.707V143.961H213.04L212.934 143.124C212.669 143.717 211.958 144.088 211.121 144.088ZM211.407 143.314C212.351 143.314 212.923 142.699 212.923 141.724V141.449L211.598 141.555C210.718 141.639 210.358 141.979 210.358 142.487C210.358 143.039 210.761 143.314 211.407 143.314ZM216.264 143.961H215.268V138.777H216.169L216.275 139.572C216.603 138.979 217.261 138.629 217.992 138.629C219.359 138.629 219.985 139.466 219.985 140.791V143.961H218.988V141.014C218.988 139.965 218.501 139.541 217.738 139.541C216.805 139.541 216.264 140.208 216.264 141.215V143.961ZM223.443 144.088C221.937 144.088 221.026 142.964 221.026 141.385C221.026 139.795 221.948 138.629 223.485 138.629C224.28 138.629 224.948 138.979 225.298 139.615V136.159H226.284V143.961H225.393L225.308 143.017C224.969 143.728 224.27 144.088 223.443 144.088ZM223.644 143.187C224.662 143.187 225.287 142.434 225.287 141.353C225.287 140.293 224.662 139.53 223.644 139.53C222.626 139.53 222.033 140.293 222.033 141.353C222.033 142.424 222.626 143.187 223.644 143.187ZM40.3182 157.961V153.615H38.0179V157.961H37.0215V153.615H36.2582V152.777H37.0215V151.95C37.0215 150.678 37.7105 150.159 38.6115 150.159C38.8023 150.159 39.0355 150.17 39.2264 150.201V151.06H38.7811C38.1769 151.06 38.0179 151.389 38.0179 151.95V152.777H41.3146V157.961H40.3182ZM40.8164 151.505C40.456 151.505 40.1804 151.23 40.1804 150.869C40.1804 150.509 40.456 150.233 40.8164 150.233C41.1662 150.233 41.4419 150.509 41.4419 150.869C41.4419 151.23 41.1662 151.505 40.8164 151.505ZM43.6318 157.961H42.7308V150.159H43.7272V153.668C44.0665 152.989 44.7661 152.629 45.6141 152.629C47.0982 152.629 47.9886 153.795 47.9886 155.396C47.9886 156.964 47.0558 158.088 45.5505 158.088C44.7343 158.088 44.0453 157.728 43.706 157.017L43.6318 157.961ZM43.7378 155.353C43.7378 156.434 44.3527 157.187 45.3703 157.187C46.388 157.187 46.9922 156.424 46.9922 155.353C46.9922 154.293 46.388 153.53 45.3703 153.53C44.3527 153.53 43.7378 154.293 43.7378 155.353ZM51.3236 158.088C49.7972 158.088 48.7477 156.986 48.7477 155.374C48.7477 153.753 49.776 152.629 51.2812 152.629C52.7547 152.629 53.7193 153.647 53.7193 155.184V155.555L49.7124 155.565C49.7866 156.657 50.359 157.261 51.3448 157.261C52.1187 157.261 52.6275 156.943 52.7971 156.35H53.7299C53.4755 157.463 52.6063 158.088 51.3236 158.088ZM51.2812 153.466C50.412 153.466 49.8608 153.986 49.7336 154.897H52.7229C52.7229 154.039 52.1611 153.466 51.2812 153.466ZM57.8004 152.735V153.647H57.3552C56.4118 153.647 55.8287 154.219 55.8287 155.215V157.961H54.8323V152.788H55.7651L55.8287 153.572C56.0408 153.032 56.5602 152.671 57.2704 152.671C57.4506 152.671 57.599 152.693 57.8004 152.735ZM58.6385 158.088C58.2251 158.088 57.8753 157.749 57.8753 157.346C57.8753 156.933 58.2251 156.593 58.6385 156.593C59.0413 156.593 59.3912 156.933 59.3912 157.346C59.3912 157.749 59.0413 158.088 58.6385 158.088Z" fill="#7B7B7B"/>
<path d="M29.8436 41.5303H28.4423V33.4006H29.8547L33.6693 39.1614V33.4006H35.0706V41.5303H33.6693L29.8436 35.7694V41.5303ZM40.3956 36.0364H41.7524V41.5303H40.4957L40.3956 40.7963C40.062 41.319 39.3502 41.6749 38.6162 41.6749C37.3484 41.6749 36.6033 40.8185 36.6033 39.4728V36.0364H37.9601V38.9946C37.9601 40.04 38.3716 40.4626 39.1278 40.4626C39.9841 40.4626 40.3956 39.9622 40.3956 38.9168V36.0364ZM45.0222 41.5303H43.6654V37.1707H42.6089V36.0364H43.6654V34.3237H45.0222V36.0364H46.0898V37.1707H45.0222V41.5303ZM50.3809 36.0141V37.2708H49.8804C48.9018 37.2708 48.2901 37.7935 48.2901 38.8612V41.5303H46.9333V36.0475H48.2123L48.2901 36.8482C48.5236 36.3033 49.0463 35.9363 49.7804 35.9363C49.9694 35.9363 50.1585 35.9585 50.3809 36.0141ZM51.9777 34.9353C51.5106 34.9353 51.1436 34.5683 51.1436 34.1124C51.1436 33.6564 51.5106 33.3005 51.9777 33.3005C52.4225 33.3005 52.7895 33.6564 52.7895 34.1124C52.7895 34.5683 52.4225 34.9353 51.9777 34.9353ZM51.2993 41.5303V36.0364H52.6561V41.5303H51.2993ZM55.9263 41.5303H54.5695V37.1707H53.5129V36.0364H54.5695V34.3237H55.9263V36.0364H56.9939V37.1707H55.9263V41.5303ZM58.5158 34.9353C58.0487 34.9353 57.6817 34.5683 57.6817 34.1124C57.6817 33.6564 58.0487 33.3005 58.5158 33.3005C58.9606 33.3005 59.3276 33.6564 59.3276 34.1124C59.3276 34.5683 58.9606 34.9353 58.5158 34.9353ZM57.8374 41.5303V36.0364H59.1942V41.5303H57.8374ZM60.2735 38.7722C60.2735 37.0595 61.5079 35.8807 63.2095 35.8807C64.911 35.8807 66.1455 37.0595 66.1455 38.7722C66.1455 40.4849 64.911 41.6637 63.2095 41.6637C61.5079 41.6637 60.2735 40.4849 60.2735 38.7722ZM61.6303 38.7722C61.6303 39.7731 62.2753 40.4515 63.2095 40.4515C64.1437 40.4515 64.7887 39.7731 64.7887 38.7722C64.7887 37.7713 64.1437 37.0929 63.2095 37.0929C62.2753 37.0929 61.6303 37.7713 61.6303 38.7722ZM68.5778 41.5303H67.221V36.0364H68.4777L68.5889 36.7481C68.9336 36.1921 69.6009 35.8695 70.3461 35.8695C71.7251 35.8695 72.4369 36.7259 72.4369 38.1494V41.5303H71.0801V38.4719C71.0801 37.5489 70.6241 37.104 69.9234 37.104C69.0893 37.104 68.5778 37.6823 68.5778 38.572V41.5303Z" fill="#6D53E7"/>
</g>
<path d="M14.3273 194.232C14.0497 192.215 15.4599 190.355 17.4769 190.077L41.6921 186.745C43.7092 186.467 45.5694 187.878 45.8469 189.895L48.4655 208.922C48.7431 210.939 47.3329 212.799 45.3159 213.077L21.1007 216.41C19.0836 216.687 17.2234 215.277 16.9458 213.26L14.3273 194.232Z" fill="#0C2503"/>
<path d="M38.6163 196.746C38.681 196.114 38.2203 195.548 37.5873 195.483L27.2724 194.429C26.6394 194.365 26.0738 194.825 26.0091 195.458C25.9445 196.091 26.4052 196.657 27.0382 196.722L36.207 197.658L35.2702 206.827C35.2055 207.46 35.6662 208.026 36.2992 208.09C36.9322 208.155 37.4977 207.694 37.5624 207.061L38.6163 196.746ZM24.5947 205.632C24.1014 206.034 24.0273 206.759 24.4291 207.253C24.831 207.746 25.5567 207.82 26.05 207.418L24.5947 205.632ZM36.7426 195.736L24.5947 205.632L26.05 207.418L38.1978 197.523L36.7426 195.736Z" fill="#EDFAE7"/>
<path d="M65.7514 201.424C65.7514 203.943 64.0946 205.713 61.7115 205.713C59.3397 205.713 57.7055 203.954 57.7055 201.424C57.7055 198.904 59.351 197.134 61.7228 197.134C64.0946 197.134 65.7514 198.893 65.7514 201.424ZM64.2194 201.424C64.2194 199.653 63.2435 198.53 61.7228 198.53C60.2021 198.53 59.2262 199.653 59.2262 201.424C59.2262 203.194 60.2021 204.317 61.7228 204.317C63.2435 204.317 64.2194 203.171 64.2194 201.424ZM66.8991 208.176V199.971H68.1815L68.2723 200.822C68.6127 200.175 69.3503 199.801 70.2015 199.801C71.7789 199.801 72.8229 200.947 72.8229 202.706C72.8229 204.454 71.8697 205.725 70.2015 205.725C69.3617 205.725 68.6354 205.396 68.2836 204.828V208.176H66.8991ZM68.295 202.774C68.295 203.784 68.9191 204.476 69.8724 204.476C70.8483 204.476 71.4271 203.773 71.4271 202.774C71.4271 201.775 70.8483 201.061 69.8724 201.061C68.9191 201.061 68.295 201.764 68.295 202.774ZM76.4332 205.725C74.7651 205.725 73.5962 204.51 73.5962 202.774C73.5962 201.015 74.7424 199.801 76.3879 199.801C78.0674 199.801 79.1341 200.924 79.1341 202.672V203.092L74.9126 203.103C75.0147 204.091 75.5367 204.59 76.4559 204.59C77.2163 204.59 77.7156 204.295 77.8745 203.761H79.1568C78.9185 204.987 77.8972 205.725 76.4332 205.725ZM76.3992 200.936C75.5821 200.936 75.0828 201.378 74.9466 202.218H77.761C77.761 201.446 77.2276 200.936 76.3992 200.936ZM81.6267 205.577H80.2422V199.971H81.5245L81.638 200.697C81.9898 200.13 82.6707 199.801 83.431 199.801C84.8382 199.801 85.5645 200.675 85.5645 202.127V205.577H84.18V202.456C84.18 201.514 83.7147 201.061 82.9998 201.061C82.1487 201.061 81.6267 201.651 81.6267 202.559V205.577ZM90.1878 205.577V197.282H93.4901C95.1243 197.282 96.1229 198.133 96.1229 199.517C96.1229 200.436 95.7144 201.095 94.9313 201.424C95.8052 201.707 96.2477 202.366 96.2477 203.33C96.2477 204.749 95.2604 205.577 93.5469 205.577H90.1878ZM93.3653 198.564H91.6404V200.822H93.3993C94.1937 200.822 94.6363 200.402 94.6363 199.665C94.6363 198.95 94.1824 198.564 93.3653 198.564ZM93.4901 202.048H91.6404V204.295H93.4901C94.3072 204.295 94.7611 203.898 94.7611 203.149C94.7611 202.445 94.2958 202.048 93.4901 202.048ZM98.7712 205.577H97.3981V197.134H98.7712V205.577ZM99.8944 202.763C99.8944 201.015 101.154 199.812 102.89 199.812C104.627 199.812 105.886 201.015 105.886 202.763C105.886 204.51 104.627 205.713 102.89 205.713C101.154 205.713 99.8944 204.51 99.8944 202.763ZM101.279 202.763C101.279 203.784 101.937 204.476 102.89 204.476C103.844 204.476 104.502 203.784 104.502 202.763C104.502 201.741 103.844 201.049 102.89 201.049C101.937 201.049 101.279 201.741 101.279 202.763ZM106.666 202.649C106.666 201.015 107.733 199.79 109.333 199.79C110.173 199.79 110.831 200.141 111.16 200.743L111.239 199.971H112.522V205.293C112.522 207.166 111.398 208.335 109.582 208.335C107.971 208.335 106.87 207.416 106.7 205.918H108.085C108.175 206.644 108.731 207.075 109.582 207.075C110.536 207.075 111.149 206.474 111.149 205.543V204.613C110.797 205.135 110.104 205.464 109.299 205.464C107.71 205.464 106.666 204.272 106.666 202.649ZM108.062 202.615C108.062 203.557 108.663 204.261 109.571 204.261C110.524 204.261 111.114 203.591 111.114 202.615C111.114 201.662 110.536 201.004 109.571 201.004C108.652 201.004 108.062 201.696 108.062 202.615Z" fill="#0A0B0A"/>
<path d="M24.5425 16.7147L39.3494 11.3682" stroke="#0C2503" stroke-width="1.19484" stroke-linecap="round"/>
<path d="M35.5561 15.3435C36.546 15.3435 37.3595 16.1489 37.241 17.1316C36.8429 20.434 35.3501 23.5285 32.9739 25.9047C30.173 28.7057 26.3742 30.2793 22.4131 30.2793C18.452 30.2793 14.6531 28.7057 11.8522 25.9047C9.47608 23.5285 7.98327 20.434 7.58514 17.1316C7.46667 16.1489 8.28021 15.3435 9.27005 15.3435L22.4131 15.3435H35.5561Z" fill="#0C2503"/>
<path d="M8.33753 14.7662L8.31109 14.7989C7.91283 15.2918 8.26362 16.0263 8.89729 16.0263H36.8842C36.7054 16.0263 36.5604 15.8813 36.5604 15.7024V15.5619C36.5604 15.4169 36.4927 15.2803 36.3774 15.1924L35.7374 14.7049C35.6411 14.6315 35.5232 14.5917 35.4021 14.5917H35.3116C35.0559 14.5917 34.8486 14.3844 34.8486 14.1287V13.5776C34.8486 13.1912 34.5945 12.8508 34.2241 12.741L34.0771 12.6975C33.7938 12.6135 33.5995 12.3532 33.5995 12.0577C33.5995 11.7977 33.4484 11.5613 33.2124 11.4522L33.0883 11.3947C33.0283 11.367 32.9717 11.3326 32.9194 11.2922L32.1804 10.7211C32.0542 10.6236 31.9803 10.4731 31.9803 10.3136C31.9803 10.2079 31.9478 10.1049 31.8872 10.0183L31.495 9.45767C31.3932 9.31218 31.2268 9.22553 31.0493 9.22553C30.8528 9.22553 30.6715 9.11955 30.5752 8.94828L30.419 8.67074C30.3507 8.54928 30.3148 8.41179 30.3148 8.27243C30.3148 8.08122 30.247 7.89553 30.1234 7.74959C29.9284 7.51914 29.6211 7.41666 29.3267 7.48387L28.9472 7.57052C28.8415 7.59467 28.7333 7.60685 28.6248 7.60685H28.0016H27.0072C26.8409 7.60685 26.7062 7.47211 26.7062 7.30589C26.7062 7.13966 26.5714 7.00492 26.4052 7.00492H26.2928C26.1475 7.00492 26.0128 6.9286 25.9381 6.80391L25.9184 6.77098C25.8331 6.62856 25.6793 6.54138 25.5133 6.54138C25.4165 6.54138 25.322 6.51162 25.2427 6.45612L25.1332 6.37958C24.9827 6.27426 24.8034 6.21777 24.6196 6.21777H23.6559C23.5665 6.21777 23.4821 6.25948 23.4278 6.33057L23.2697 6.53756C23.1541 6.68879 22.9126 6.60708 22.9126 6.41675C22.9126 6.30686 22.8235 6.21777 22.7136 6.21777H20.9696C20.6629 6.21777 20.4143 6.46636 20.4143 6.77301V7.21981C20.4143 7.31605 20.3648 7.40553 20.2833 7.4567C20.1516 7.5394 19.9778 7.4988 19.8963 7.36632L19.806 7.21946C19.724 7.08614 19.5787 7.00492 19.4222 7.00492H18.3878C18.1154 7.00492 17.8542 7.11319 17.6616 7.30589L17.4759 7.49178C17.4023 7.56546 17.3024 7.60685 17.1982 7.60685C16.9815 7.60685 16.8057 7.78258 16.8057 7.99935V8.0691C16.8057 8.29906 16.6193 8.48548 16.3894 8.48548H16.343C16.1387 8.48548 15.973 8.65114 15.973 8.8555C15.973 9.05986 15.8073 9.22553 15.603 9.22553H14.1369C13.8565 9.22553 13.6121 9.41638 13.5441 9.68841C13.4762 9.96044 13.2318 10.1513 12.9514 10.1513H12.8321C12.5214 10.1513 12.2416 10.3396 12.1246 10.6275L11.7938 11.4416C11.7472 11.5562 11.6358 11.6312 11.512 11.6312C11.344 11.6312 11.2078 11.7674 11.2078 11.9354V12.3681C11.2078 12.6981 10.9883 12.9879 10.6706 13.0774L9.95936 13.2776C9.8112 13.3194 9.68659 13.4199 9.61452 13.5559L9.47526 13.8187C9.38852 13.9824 9.17699 14.0314 9.02708 13.9226C8.89963 13.8301 8.72268 13.8499 8.61891 13.9684L8.57295 14.0209C8.5121 14.0904 8.47855 14.1796 8.47855 14.272V14.3673C8.47855 14.5125 8.42877 14.6533 8.33753 14.7662Z" fill="#D6FBC4" stroke="#D6FBC4" stroke-width="0.445145" stroke-linecap="round"/>
<path d="M36.751 15.3435C37.0809 15.3435 37.3496 15.6112 37.3365 15.9409C37.1867 19.685 35.6337 23.2448 32.9739 25.9047C30.173 28.7057 26.3742 30.2793 22.4131 30.2793C18.452 30.2793 14.6531 28.7057 11.8522 25.9047C9.19244 23.2449 7.63945 19.685 7.48972 15.9409C7.47654 15.6112 7.74526 15.3435 8.07521 15.3435L22.4131 15.3435H36.751Z" fill="#0C2503"/>
<path d="M18.0027 28.4247H26.9475V29.1737V31.5H18.0033V29.1737L18.0027 28.4247Z" fill="#0C2503"/>
</g>
</g>
<defs>
<filter id="filter0_d_2251_27340" x="-3.38552" y="0.52832" width="292.485" height="242.716" filterUnits="userSpaceOnUse" color-interpolation-filters="sRGB">
<feFlood flood-opacity="0" result="BackgroundImageFix"/>
<feColorMatrix in="SourceAlpha" type="matrix" values="0 0 0 0 0 0 0 0 0 0 0 0 0 0 0 0 0 0 127 0" result="hardAlpha"/>
<feOffset dy="3.38552"/>
<feGaussianBlur stdDeviation="1.69276"/>
<feComposite in2="hardAlpha" operator="out"/>
<feColorMatrix type="matrix" values="0 0 0 0 0 0 0 0 0 0 0 0 0 0 0 0 0 0 0.03 0"/>
<feBlend mode="normal" in2="BackgroundImageFix" result="effect1_dropShadow_2251_27340"/>
<feBlend mode="normal" in="SourceGraphic" in2="effect1_dropShadow_2251_27340" result="shape"/>
</filter>
<filter id="filter1_d_2251_27340" x="10.042" y="19.4219" width="265.63" height="159.639" filterUnits="userSpaceOnUse" color-interpolation-filters="sRGB">
<feFlood flood-opacity="0" result="BackgroundImageFix"/>
<feColorMatrix in="SourceAlpha" type="matrix" values="0 0 0 0 0 0 0 0 0 0 0 0 0 0 0 0 0 0 127 0" result="hardAlpha"/>
<feOffset dy="3.78275"/>
<feGaussianBlur stdDeviation="1.89138"/>
<feComposite in2="hardAlpha" operator="out"/>
<feColorMatrix type="matrix" values="0 0 0 0 0 0 0 0 0 0 0 0 0 0 0 0 0 0 0.03 0"/>
<feBlend mode="normal" in2="BackgroundImageFix" result="effect1_dropShadow_2251_27340"/>
<feBlend mode="normal" in="SourceGraphic" in2="effect1_dropShadow_2251_27340" result="shape"/>
</filter>
<clipPath id="clip0_2251_27340">
<rect y="0.52832" width="285.714" height="235.945" rx="27.6498" fill="white"/>
</clipPath>
</defs>
</svg>
