<svg width="27" height="27" viewBox="0 0 27 27" fill="none" xmlns="http://www.w3.org/2000/svg">
<g clip-path="url(#clip0_1115_10725)">
<path d="M25.2173 12.9915C25.2156 11.5405 24.5974 10.1494 23.4983 9.12333C22.3992 8.0973 20.9091 7.52018 19.3547 7.51857C19.1181 7.51898 18.8818 7.53251 18.6469 7.55911C18.1908 6.58262 17.4394 5.75159 16.4849 5.16796C15.5303 4.58432 14.414 4.27344 13.2728 4.27344C12.1317 4.27344 11.0154 4.58432 10.0608 5.16796C9.10625 5.75159 8.35486 6.58262 7.89881 7.55911C7.66537 7.53267 7.43045 7.51914 7.1953 7.51857C5.85317 7.51936 4.55197 7.95003 3.50903 8.73864C2.4661 9.52725 1.7446 10.626 1.46503 11.8515C1.18546 13.0769 1.36477 14.3548 1.97299 15.4717C2.58121 16.5886 3.58152 17.4769 4.80684 17.9881V22.7212C4.80684 23.0975 4.96697 23.4584 5.25202 23.7245C5.53706 23.9906 5.92366 24.1401 6.32677 24.1401H20.2233C20.6264 24.1401 21.013 23.9906 21.298 23.7245C21.5831 23.4584 21.7432 23.0975 21.7432 22.7212V17.9881C22.7768 17.5567 23.6546 16.8555 24.271 15.969C24.8874 15.0824 25.2161 14.0484 25.2173 12.9915ZM20.4404 22.7212C20.4404 22.775 20.4175 22.8265 20.3768 22.8645C20.3361 22.9025 20.2809 22.9239 20.2233 22.9239H6.32677C6.26918 22.9239 6.21395 22.9025 6.17323 22.8645C6.13251 22.8265 6.10964 22.775 6.10964 22.7212V18.3692C6.46757 18.4324 6.83103 18.4643 7.1953 18.4645H19.3547C19.719 18.4643 20.0825 18.4324 20.4404 18.3692V22.7212ZM19.3547 17.2482H17.584L18.2495 14.7611C18.2703 14.6836 18.2746 14.6031 18.2621 14.5241C18.2496 14.4451 18.2205 14.3692 18.1765 14.3007C18.1326 14.2321 18.0746 14.1724 18.0059 14.1248C17.9372 14.0772 17.8592 14.0427 17.7762 14.0233C17.6932 14.0038 17.6069 13.9998 17.5223 14.0115C17.4377 14.0232 17.3564 14.0504 17.283 14.0914C17.2096 14.1324 17.1456 14.1866 17.0946 14.2507C17.0436 14.3148 17.0066 14.3877 16.9858 14.4652L16.24 17.2482H13.9264V14.6131C13.9264 14.4518 13.8578 14.2972 13.7356 14.1831C13.6135 14.0691 13.4478 14.005 13.275 14.005C13.1023 14.005 12.9366 14.0691 12.8144 14.1831C12.6923 14.2972 12.6236 14.4518 12.6236 14.6131V17.2482H10.3101L9.56422 14.4652C9.5434 14.3877 9.50645 14.3148 9.45546 14.2507C9.40448 14.1866 9.34046 14.1324 9.26707 14.0914C9.19368 14.0504 9.11235 14.0232 9.02772 14.0115C8.9431 13.9998 8.85683 14.0038 8.77386 14.0233C8.69088 14.0427 8.61282 14.0772 8.54412 14.1248C8.47543 14.1724 8.41745 14.2321 8.37349 14.3007C8.32954 14.3692 8.30047 14.4451 8.28795 14.5241C8.27542 14.6031 8.27969 14.6836 8.30051 14.7611L8.96602 17.2482H7.1953C5.98597 17.2482 4.82617 16.7998 3.97104 16.0015C3.11592 15.2032 2.63551 14.1205 2.63551 12.9915C2.63551 11.8626 3.11592 10.7798 3.97104 9.98154C4.82617 9.18325 5.98597 8.73478 7.1953 8.73478C7.30387 8.73478 7.41243 8.73478 7.51231 8.74592C7.44647 9.07652 7.41304 9.41202 7.41243 9.74828C7.41243 9.90956 7.48106 10.0642 7.60322 10.1783C7.72538 10.2923 7.89107 10.3564 8.06383 10.3564C8.23659 10.3564 8.40228 10.2923 8.52444 10.1783C8.6466 10.0642 8.71523 9.90956 8.71523 9.74828C8.71523 8.61933 9.19564 7.53661 10.0508 6.73832C10.9059 5.94002 12.0657 5.49155 13.275 5.49155C14.4844 5.49155 15.6442 5.94002 16.4993 6.73832C17.3544 7.53661 17.8348 8.61933 17.8348 9.74828C17.8348 9.90956 17.9034 10.0642 18.0256 10.1783C18.1478 10.2923 18.3134 10.3564 18.4862 10.3564C18.659 10.3564 18.8247 10.2923 18.9468 10.1783C19.069 10.0642 19.1376 9.90956 19.1376 9.74828C19.137 9.41202 19.1036 9.07652 19.0377 8.74592C19.1463 8.73984 19.2483 8.73478 19.3547 8.73478C20.5641 8.73478 21.7239 9.18325 22.579 9.98154C23.4341 10.7798 23.9145 11.8626 23.9145 12.9915C23.9145 14.1205 23.4341 15.2032 22.579 16.0015C21.7239 16.7998 20.5641 17.2482 19.3547 17.2482Z" fill="#0C2503"/>
<path d="M19.3547 17.2482H17.584L18.2495 14.7611C18.2703 14.6836 18.2746 14.6031 18.2621 14.5241C18.2496 14.4451 18.2205 14.3692 18.1765 14.3007C18.1326 14.2321 18.0746 14.1724 18.0059 14.1248C17.9372 14.0772 17.8592 14.0427 17.7762 14.0233C17.6932 14.0038 17.6069 13.9998 17.5223 14.0115C17.4377 14.0232 17.3564 14.0504 17.283 14.0914C17.2096 14.1324 17.1456 14.1866 17.0946 14.2507C17.0436 14.3148 17.0066 14.3877 16.9858 14.4652L16.24 17.2482H13.9264V14.6131C13.9264 14.4518 13.8578 14.2972 13.7356 14.1831C13.6135 14.0691 13.4478 14.005 13.275 14.005C13.1023 14.005 12.9366 14.0691 12.8144 14.1831C12.6923 14.2972 12.6236 14.4518 12.6236 14.6131V17.2482H10.3101L9.56422 14.4652C9.5434 14.3877 9.50645 14.3148 9.45546 14.2507C9.40448 14.1866 9.34046 14.1324 9.26707 14.0914C9.19368 14.0504 9.11235 14.0232 9.02772 14.0115C8.9431 13.9998 8.85683 14.0038 8.77386 14.0233C8.69088 14.0427 8.61282 14.0772 8.54412 14.1248C8.47543 14.1724 8.41745 14.2321 8.37349 14.3007C8.32954 14.3692 8.30047 14.4451 8.28795 14.5241C8.27542 14.6031 8.27969 14.6836 8.30051 14.7611L8.96602 17.2482H7.1953C5.98597 17.2482 4.82617 16.7998 3.97104 16.0015C3.11592 15.2032 2.63551 14.1205 2.63551 12.9915C2.63551 11.8626 3.11592 10.7798 3.97104 9.98154C4.82617 9.18325 5.98597 8.73478 7.1953 8.73478C7.30387 8.73478 7.41243 8.73478 7.51231 8.74592C7.44647 9.07652 7.41304 9.41202 7.41243 9.74828C7.41243 9.90956 7.48106 10.0642 7.60322 10.1783C7.72538 10.2923 7.89107 10.3564 8.06383 10.3564C8.23659 10.3564 8.40228 10.2923 8.52444 10.1783C8.6466 10.0642 8.71523 9.90956 8.71523 9.74828C8.71523 8.61933 9.19564 7.53661 10.0508 6.73832C10.9059 5.94002 12.0657 5.49155 13.275 5.49155C14.4844 5.49155 15.6442 5.94002 16.4993 6.73832C17.3544 7.53661 17.8348 8.61933 17.8348 9.74828C17.8348 9.90956 17.9034 10.0642 18.0256 10.1783C18.1478 10.2923 18.3134 10.3564 18.4862 10.3564C18.659 10.3564 18.8247 10.2923 18.9468 10.1783C19.069 10.0642 19.1376 9.90956 19.1376 9.74828C19.137 9.41202 19.1036 9.07652 19.0377 8.74592C19.1463 8.73984 19.2483 8.73478 19.3547 8.73478C20.5641 8.73478 21.7239 9.18325 22.579 9.98154C23.4341 10.7798 23.9145 11.8626 23.9145 12.9915C23.9145 14.1205 23.4341 15.2032 22.579 16.0015C21.7239 16.7998 20.5641 17.2482 19.3547 17.2482Z" fill="#D6FBC4"/>
<path d="M20.4404 22.7212C20.4404 22.775 20.4175 22.8265 20.3768 22.8645C20.3361 22.9025 20.2809 22.9239 20.2233 22.9239H6.32677C6.26918 22.9239 6.21395 22.9025 6.17323 22.8645C6.13251 22.8265 6.10964 22.775 6.10964 22.7212V18.3692C6.46757 18.4324 6.83103 18.4643 7.1953 18.4645H19.3547C19.719 18.4643 20.0825 18.4324 20.4404 18.3692V22.7212Z" fill="#0C2503"/>
<path d="M25.2173 12.9915C25.2156 11.5405 24.5974 10.1494 23.4983 9.12333C22.3992 8.0973 20.9091 7.52018 19.3547 7.51857C19.1181 7.51898 18.8818 7.53251 18.6469 7.55911C18.1908 6.58262 17.4394 5.75159 16.4849 5.16796C15.5303 4.58432 14.414 4.27344 13.2728 4.27344C12.1317 4.27344 11.0154 4.58432 10.0608 5.16796C9.10625 5.75159 8.35486 6.58262 7.89881 7.55911C7.66537 7.53267 7.43045 7.51914 7.1953 7.51857C5.85317 7.51936 4.55197 7.95003 3.50903 8.73864C2.4661 9.52725 1.7446 10.626 1.46503 11.8515C1.18546 13.0769 1.36477 14.3548 1.97299 15.4717C2.58121 16.5886 3.58152 17.4769 4.80684 17.9881V22.7212C4.80684 23.0975 4.96697 23.4584 5.25202 23.7245C5.53706 23.9906 5.92366 24.1401 6.32677 24.1401H20.2233C20.6264 24.1401 21.013 23.9906 21.298 23.7245C21.5831 23.4584 21.7432 23.0975 21.7432 22.7212V17.9881C22.7768 17.5567 23.6546 16.8555 24.271 15.969C24.8874 15.0824 25.2161 14.0484 25.2173 12.9915ZM20.4404 22.7212C20.4404 22.775 20.4175 22.8265 20.3768 22.8645C20.3361 22.9025 20.2809 22.9239 20.2233 22.9239H6.32677C6.26918 22.9239 6.21395 22.9025 6.17323 22.8645C6.13251 22.8265 6.10964 22.775 6.10964 22.7212V18.3692C6.46757 18.4324 6.83103 18.4643 7.1953 18.4645H19.3547C19.719 18.4643 20.0825 18.4324 20.4404 18.3692V22.7212ZM19.3547 17.2482H17.584L18.2495 14.7611C18.2703 14.6836 18.2746 14.6031 18.2621 14.5241C18.2496 14.4451 18.2205 14.3692 18.1765 14.3007C18.1326 14.2321 18.0746 14.1724 18.0059 14.1248C17.9372 14.0772 17.8592 14.0427 17.7762 14.0233C17.6932 14.0038 17.6069 13.9998 17.5223 14.0115C17.4377 14.0232 17.3564 14.0504 17.283 14.0914C17.2096 14.1324 17.1456 14.1866 17.0946 14.2507C17.0436 14.3148 17.0066 14.3877 16.9858 14.4652L16.24 17.2482H13.9264V14.6131C13.9264 14.4518 13.8578 14.2972 13.7356 14.1831C13.6135 14.0691 13.4478 14.005 13.275 14.005C13.1023 14.005 12.9366 14.0691 12.8144 14.1831C12.6923 14.2972 12.6236 14.4518 12.6236 14.6131V17.2482H10.3101L9.56422 14.4652C9.5434 14.3877 9.50645 14.3148 9.45546 14.2507C9.40448 14.1866 9.34046 14.1324 9.26707 14.0914C9.19368 14.0504 9.11235 14.0232 9.02772 14.0115C8.9431 13.9998 8.85683 14.0038 8.77386 14.0233C8.69088 14.0427 8.61282 14.0772 8.54412 14.1248C8.47543 14.1724 8.41745 14.2321 8.37349 14.3007C8.32954 14.3692 8.30047 14.4451 8.28795 14.5241C8.27542 14.6031 8.27969 14.6836 8.30051 14.7611L8.96602 17.2482H7.1953C5.98597 17.2482 4.82617 16.7998 3.97104 16.0015C3.11592 15.2032 2.63551 14.1205 2.63551 12.9915C2.63551 11.8626 3.11592 10.7798 3.97104 9.98154C4.82617 9.18325 5.98597 8.73478 7.1953 8.73478C7.30387 8.73478 7.41243 8.73478 7.51231 8.74592C7.44647 9.07652 7.41304 9.41202 7.41243 9.74828C7.41243 9.90956 7.48106 10.0642 7.60322 10.1783C7.72538 10.2923 7.89107 10.3564 8.06383 10.3564C8.23659 10.3564 8.40228 10.2923 8.52444 10.1783C8.6466 10.0642 8.71523 9.90956 8.71523 9.74828C8.71523 8.61933 9.19564 7.53661 10.0508 6.73832C10.9059 5.94002 12.0657 5.49155 13.275 5.49155C14.4844 5.49155 15.6442 5.94002 16.4993 6.73832C17.3544 7.53661 17.8348 8.61933 17.8348 9.74828C17.8348 9.90956 17.9034 10.0642 18.0256 10.1783C18.1478 10.2923 18.3134 10.3564 18.4862 10.3564C18.659 10.3564 18.8247 10.2923 18.9468 10.1783C19.069 10.0642 19.1376 9.90956 19.1376 9.74828C19.137 9.41202 19.1036 9.07652 19.0377 8.74592C19.1463 8.73984 19.2483 8.73478 19.3547 8.73478C20.5641 8.73478 21.7239 9.18325 22.579 9.98154C23.4341 10.7798 23.9145 11.8626 23.9145 12.9915C23.9145 14.1205 23.4341 15.2032 22.579 16.0015C21.7239 16.7998 20.5641 17.2482 19.3547 17.2482Z" stroke="#0C2503" stroke-width="0.814724"/>
<path d="M19.3547 17.2482H17.584L18.2495 14.7611C18.2703 14.6836 18.2746 14.6031 18.2621 14.5241C18.2496 14.4451 18.2205 14.3692 18.1765 14.3007C18.1326 14.2321 18.0746 14.1724 18.0059 14.1248C17.9372 14.0772 17.8592 14.0427 17.7762 14.0233C17.6932 14.0038 17.6069 13.9998 17.5223 14.0115C17.4377 14.0232 17.3564 14.0504 17.283 14.0914C17.2096 14.1324 17.1456 14.1866 17.0946 14.2507C17.0436 14.3148 17.0066 14.3877 16.9858 14.4652L16.24 17.2482H13.9264V14.6131C13.9264 14.4518 13.8578 14.2972 13.7356 14.1831C13.6135 14.0691 13.4478 14.005 13.275 14.005C13.1023 14.005 12.9366 14.0691 12.8144 14.1831C12.6923 14.2972 12.6236 14.4518 12.6236 14.6131V17.2482H10.3101L9.56422 14.4652C9.5434 14.3877 9.50645 14.3148 9.45546 14.2507C9.40448 14.1866 9.34046 14.1324 9.26707 14.0914C9.19368 14.0504 9.11235 14.0232 9.02772 14.0115C8.9431 13.9998 8.85683 14.0038 8.77386 14.0233C8.69088 14.0427 8.61282 14.0772 8.54412 14.1248C8.47543 14.1724 8.41745 14.2321 8.37349 14.3007C8.32954 14.3692 8.30047 14.4451 8.28795 14.5241C8.27542 14.6031 8.27969 14.6836 8.30051 14.7611L8.96602 17.2482H7.1953C5.98597 17.2482 4.82617 16.7998 3.97104 16.0015C3.11592 15.2032 2.63551 14.1205 2.63551 12.9915C2.63551 11.8626 3.11592 10.7798 3.97104 9.98154C4.82617 9.18325 5.98597 8.73478 7.1953 8.73478C7.30387 8.73478 7.41243 8.73478 7.51231 8.74592C7.44647 9.07652 7.41304 9.41202 7.41243 9.74828C7.41243 9.90956 7.48106 10.0642 7.60322 10.1783C7.72538 10.2923 7.89107 10.3564 8.06383 10.3564C8.23659 10.3564 8.40228 10.2923 8.52444 10.1783C8.6466 10.0642 8.71523 9.90956 8.71523 9.74828C8.71523 8.61933 9.19564 7.53661 10.0508 6.73832C10.9059 5.94002 12.0657 5.49155 13.275 5.49155C14.4844 5.49155 15.6442 5.94002 16.4993 6.73832C17.3544 7.53661 17.8348 8.61933 17.8348 9.74828C17.8348 9.90956 17.9034 10.0642 18.0256 10.1783C18.1478 10.2923 18.3134 10.3564 18.4862 10.3564C18.659 10.3564 18.8247 10.2923 18.9468 10.1783C19.069 10.0642 19.1376 9.90956 19.1376 9.74828C19.137 9.41202 19.1036 9.07652 19.0377 8.74592C19.1463 8.73984 19.2483 8.73478 19.3547 8.73478C20.5641 8.73478 21.7239 9.18325 22.579 9.98154C23.4341 10.7798 23.9145 11.8626 23.9145 12.9915C23.9145 14.1205 23.4341 15.2032 22.579 16.0015C21.7239 16.7998 20.5641 17.2482 19.3547 17.2482Z" stroke="#0C2503" stroke-width="0.814724"/>
<path d="M20.4404 22.7212C20.4404 22.775 20.4175 22.8265 20.3768 22.8645C20.3361 22.9025 20.2809 22.9239 20.2233 22.9239H6.32677C6.26918 22.9239 6.21395 22.9025 6.17323 22.8645C6.13251 22.8265 6.10964 22.775 6.10964 22.7212V18.3692C6.46757 18.4324 6.83103 18.4643 7.1953 18.4645H19.3547C19.719 18.4643 20.0825 18.4324 20.4404 18.3692V22.7212Z" stroke="#0C2503" stroke-width="0.814724"/>
</g>
<defs>
<clipPath id="clip0_1115_10725">
<rect width="26.1818" height="27" fill="white" transform="translate(0.18335)"/>
</clipPath>
</defs>
</svg>
