<svg width="294" height="244" viewBox="0 0 294 244" fill="none" xmlns="http://www.w3.org/2000/svg">
<g filter="url(#filter0_d_2251_27362)">
<g clip-path="url(#clip0_2251_27362)">
<rect x="4.14746" y="0.52832" width="285.714" height="235.945" rx="27.6498" fill="white"/>
<g filter="url(#filter1_d_2251_27362)">
<rect x="17.9702" y="19.4219" width="258.065" height="152.074" rx="7.74768" fill="#EDFAE7"/>
<path d="M44.6407 85.1232C42.3539 85.1232 40.8443 83.6584 40.8443 81.4463H42.7425C42.7425 82.6869 43.4749 83.4193 44.6855 83.4193C45.9709 83.4193 46.793 82.5823 46.793 81.252C46.793 79.9816 46.0307 79.1147 44.7154 79.1147C43.8784 79.1147 43.1161 79.5332 42.7275 80.1011L41.0386 79.7424L42.3838 74.0179H48.0784V75.7816H43.7588L43.1759 78.0535C43.6991 77.7097 44.3567 77.5154 45.104 77.5154C47.2863 77.5154 48.7361 78.9951 48.7361 81.1474C48.7361 83.509 47.077 85.1232 44.6407 85.1232ZM53.8051 77.067C53.8051 75.1538 55.3894 73.8236 57.6912 73.8236C59.9033 73.8236 61.3083 75.0492 61.3681 77.0221H59.4549C59.4101 76.0805 58.7375 75.5275 57.6613 75.5275C56.4805 75.5275 55.7182 76.0954 55.7182 77.0072C55.7182 77.7844 56.1368 78.2179 57.0485 78.4271L58.7674 78.8008C60.6357 79.2043 61.5474 80.1609 61.5474 81.7901C61.5474 83.8229 59.9631 85.1382 57.5567 85.1382C55.225 85.1382 53.7005 83.8976 53.6556 81.9396H55.5688C55.5837 82.8663 56.3311 83.4193 57.5567 83.4193C58.8271 83.4193 59.6343 82.8663 59.6343 81.9545C59.6343 81.2221 59.2606 80.7887 58.3638 80.5944L56.63 80.2058C54.7766 79.8022 53.8051 78.741 53.8051 77.067ZM68.0163 77.5602H69.8398V84.9438H68.1508L68.0163 83.9574C67.5679 84.6599 66.6113 85.1382 65.6248 85.1382C63.9209 85.1382 62.9195 83.9873 62.9195 82.1787V77.5602H64.743V81.536C64.743 82.941 65.296 83.509 66.3124 83.509C67.4633 83.509 68.0163 82.8364 68.0163 81.4314V77.5602ZM71.7232 88.3666V77.5602H73.4121L73.5317 78.6812C73.9801 77.8293 74.9516 77.336 76.0726 77.336C78.1502 77.336 79.5253 78.8456 79.5253 81.1624C79.5253 83.4641 78.2698 85.1382 76.0726 85.1382C74.9666 85.1382 74.01 84.7047 73.5466 83.9574V88.3666H71.7232ZM73.5616 81.252C73.5616 82.5823 74.3837 83.494 75.6392 83.494C76.9246 83.494 77.6869 82.5673 77.6869 81.252C77.6869 79.9367 76.9246 78.9951 75.6392 78.9951C74.3837 78.9951 73.5616 79.9218 73.5616 81.252ZM84.2804 85.1382C82.0833 85.1382 80.5438 83.5389 80.5438 81.252C80.5438 78.9353 82.0534 77.336 84.2206 77.336C86.4327 77.336 87.8377 78.8157 87.8377 81.1175V81.6705L82.2776 81.6855C82.4121 82.9858 83.0996 83.6435 84.3103 83.6435C85.3117 83.6435 85.9694 83.2549 86.1786 82.5524H87.8676C87.5537 84.1666 86.2085 85.1382 84.2804 85.1382ZM84.2356 78.8307C83.1594 78.8307 82.5018 79.4136 82.3224 80.5196H86.0292C86.0292 79.5033 85.3267 78.8307 84.2356 78.8307ZM93.9306 77.5303V79.2193H93.258C91.9427 79.2193 91.1206 79.9218 91.1206 81.3567V84.9438H89.2971V77.5752H91.016L91.1206 78.6513C91.4345 77.9189 92.137 77.4257 93.1234 77.4257C93.3775 77.4257 93.6316 77.4556 93.9306 77.5303ZM94.7244 77.5602H95.7856V76.6634C95.7856 74.6606 96.8468 73.8236 98.4461 73.8236C98.7301 73.8236 99.0738 73.8385 99.3877 73.8983V75.4527H98.745C97.8183 75.4527 97.5941 75.931 97.5941 76.6634V77.5602H99.3578V79.0848H97.5941V84.9438H95.7856V79.0848H94.7244V77.5602ZM99.8693 81.2371C99.8693 78.9353 101.528 77.351 103.815 77.351C106.102 77.351 107.761 78.9353 107.761 81.2371C107.761 83.5389 106.102 85.1232 103.815 85.1232C101.528 85.1232 99.8693 83.5389 99.8693 81.2371ZM101.693 81.2371C101.693 82.5823 102.56 83.494 103.815 83.494C105.071 83.494 105.938 82.5823 105.938 81.2371C105.938 79.8919 105.071 78.9801 103.815 78.9801C102.56 78.9801 101.693 79.8919 101.693 81.2371ZM108.773 81.2371C108.773 78.9353 110.432 77.351 112.719 77.351C115.006 77.351 116.665 78.9353 116.665 81.2371C116.665 83.5389 115.006 85.1232 112.719 85.1232C110.432 85.1232 108.773 83.5389 108.773 81.2371ZM110.597 81.2371C110.597 82.5823 111.463 83.494 112.719 83.494C113.974 83.494 114.841 82.5823 114.841 81.2371C114.841 79.8919 113.974 78.9801 112.719 78.9801C111.463 78.9801 110.597 79.8919 110.597 81.2371ZM121.144 85.1382C119.007 85.1382 117.677 83.5688 117.677 81.2819C117.677 78.9801 119.022 77.336 121.249 77.336C122.28 77.336 123.192 77.7695 123.655 78.5019V73.8236H125.464V84.9438H123.79L123.67 83.793C123.222 84.6449 122.265 85.1382 121.144 85.1382ZM121.548 83.4641C122.818 83.4641 123.64 82.5524 123.64 81.2221C123.64 79.8919 122.818 78.9652 121.548 78.9652C120.277 78.9652 119.5 79.9068 119.5 81.2221C119.5 82.5374 120.277 83.4641 121.548 83.4641ZM126.796 82.7019H128.53C128.545 83.3446 129.023 83.7481 129.86 83.7481C130.712 83.7481 131.176 83.4043 131.176 82.8663C131.176 82.4926 130.981 82.2236 130.324 82.0741L128.993 81.7602C127.663 81.4613 127.021 80.8335 127.021 79.6527C127.021 78.2029 128.246 77.336 129.95 77.336C131.609 77.336 132.73 78.2926 132.745 79.7275H131.011C130.996 79.0997 130.578 78.6962 129.875 78.6962C129.158 78.6962 128.739 79.025 128.739 79.578C128.739 79.9965 129.068 80.2656 129.696 80.415L131.026 80.7289C132.267 81.0129 132.895 81.5809 132.895 82.7168C132.895 84.2115 131.624 85.1382 129.801 85.1382C127.962 85.1382 126.796 84.1517 126.796 82.7019ZM140.823 84.9438H138.999V79.0848H137.579V77.5602H138.999V75.2584H140.823V77.5602H142.257V79.0848H140.823V84.9438ZM142.885 81.2371C142.885 78.9353 144.544 77.351 146.831 77.351C149.117 77.351 150.776 78.9353 150.776 81.2371C150.776 83.5389 149.117 85.1232 146.831 85.1232C144.544 85.1232 142.885 83.5389 142.885 81.2371ZM144.708 81.2371C144.708 82.5823 145.575 83.494 146.831 83.494C148.086 83.494 148.953 82.5823 148.953 81.2371C148.953 79.8919 148.086 78.9801 146.831 78.9801C145.575 78.9801 144.708 79.8919 144.708 81.2371ZM155.892 77.067C155.892 75.1538 157.476 73.8236 159.778 73.8236C161.99 73.8236 163.395 75.0492 163.455 77.0221H161.541C161.497 76.0805 160.824 75.5275 159.748 75.5275C158.567 75.5275 157.805 76.0954 157.805 77.0072C157.805 77.7844 158.223 78.2179 159.135 78.4271L160.854 78.8008C162.722 79.2043 163.634 80.1609 163.634 81.7901C163.634 83.8229 162.05 85.1382 159.643 85.1382C157.312 85.1382 155.787 83.8976 155.742 81.9396H157.655C157.67 82.8663 158.418 83.4193 159.643 83.4193C160.914 83.4193 161.721 82.8663 161.721 81.9545C161.721 81.2221 161.347 80.7887 160.45 80.5944L158.717 80.2058C156.863 79.8022 155.892 78.741 155.892 77.067ZM170.103 77.5602H171.926V84.9438H170.237L170.103 83.9574C169.654 84.6599 168.698 85.1382 167.711 85.1382C166.007 85.1382 165.006 83.9873 165.006 82.1787V77.5602H166.83V81.536C166.83 82.941 167.383 83.509 168.399 83.509C169.55 83.509 170.103 82.8364 170.103 81.4314V77.5602ZM173.81 88.3666V77.5602H175.499L175.618 78.6812C176.067 77.8293 177.038 77.336 178.159 77.336C180.237 77.336 181.612 78.8456 181.612 81.1624C181.612 83.4641 180.356 85.1382 178.159 85.1382C177.053 85.1382 176.097 84.7047 175.633 83.9574V88.3666H173.81ZM175.648 81.252C175.648 82.5823 176.47 83.494 177.726 83.494C179.011 83.494 179.773 82.5673 179.773 81.252C179.773 79.9367 179.011 78.9951 177.726 78.9951C176.47 78.9951 175.648 79.9218 175.648 81.252ZM186.367 85.1382C184.17 85.1382 182.63 83.5389 182.63 81.252C182.63 78.9353 184.14 77.336 186.307 77.336C188.519 77.336 189.924 78.8157 189.924 81.1175V81.6705L184.364 81.6855C184.499 82.9858 185.186 83.6435 186.397 83.6435C187.398 83.6435 188.056 83.2549 188.265 82.5524H189.954C189.64 84.1666 188.295 85.1382 186.367 85.1382ZM186.322 78.8307C185.246 78.8307 184.588 79.4136 184.409 80.5196H188.116C188.116 79.5033 187.413 78.8307 186.322 78.8307ZM196.017 77.5303V79.2193H195.345C194.029 79.2193 193.207 79.9218 193.207 81.3567V84.9438H191.384V77.5752H193.103L193.207 78.6513C193.521 77.9189 194.224 77.4257 195.21 77.4257C195.464 77.4257 195.718 77.4556 196.017 77.5303ZM196.57 81.2371C196.57 78.9503 198.079 77.336 200.262 77.336C202.279 77.336 203.655 78.457 203.849 80.2357H202.025C201.816 79.3987 201.203 78.9652 200.336 78.9652C199.171 78.9652 198.393 79.847 198.393 81.2371C198.393 82.6271 199.111 83.494 200.277 83.494C201.188 83.494 201.831 83.0456 202.025 82.2385H203.864C203.64 83.9574 202.205 85.1382 200.277 85.1382C198.035 85.1382 196.57 83.5837 196.57 81.2371ZM207.044 84.9438H205.221V73.8236H207.059V78.5168C207.523 77.7994 208.39 77.336 209.451 77.336C211.274 77.336 212.231 78.4869 212.231 80.4001V84.9438H210.407V80.8335C210.407 79.593 209.795 78.9951 208.868 78.9951C207.717 78.9951 207.044 79.8022 207.044 80.9083V84.9438ZM216.22 85.1382C214.65 85.1382 213.694 84.2264 213.694 82.8364C213.694 81.4762 214.68 80.6243 216.429 80.4898L218.641 80.3253V80.1609C218.641 79.1595 218.043 78.7559 217.117 78.7559C216.04 78.7559 215.442 79.2043 215.442 79.9816H213.888C213.888 78.3823 215.203 77.336 217.206 77.336C219.194 77.336 220.42 78.4122 220.42 80.4599V84.9438H218.82L218.686 83.8527C218.372 84.615 217.371 85.1382 216.22 85.1382ZM216.818 83.7631C217.939 83.7631 218.656 83.0905 218.656 81.9545V81.5659L217.117 81.6855C215.981 81.7901 215.547 82.1638 215.547 82.7616C215.547 83.4342 215.996 83.7631 216.818 83.7631ZM226.845 77.5303V79.2193H226.172C224.857 79.2193 224.035 79.9218 224.035 81.3567V84.9438H222.211V77.5752H223.93L224.035 78.6513C224.348 77.9189 225.051 77.4257 226.037 77.4257C226.292 77.4257 226.546 77.4556 226.845 77.5303ZM227.471 81.0876C227.471 78.9353 228.876 77.3211 230.983 77.3211C232.089 77.3211 232.956 77.7844 233.389 78.5766L233.494 77.5602H235.183V84.5702C235.183 87.0364 233.703 88.5759 231.312 88.5759C229.189 88.5759 227.74 87.3652 227.515 85.3922H229.339C229.458 86.3488 230.191 86.9168 231.312 86.9168C232.567 86.9168 233.374 86.1246 233.374 84.899V83.6734C232.911 84.3609 231.999 84.7944 230.938 84.7944C228.846 84.7944 227.471 83.225 227.471 81.0876ZM229.309 81.0428C229.309 82.2833 230.101 83.21 231.297 83.21C232.552 83.21 233.33 82.3282 233.33 81.0428C233.33 79.7873 232.567 78.9204 231.297 78.9204C230.086 78.9204 229.309 79.8321 229.309 81.0428ZM240.373 85.1382C238.176 85.1382 236.637 83.5389 236.637 81.252C236.637 78.9353 238.146 77.336 240.314 77.336C242.526 77.336 243.931 78.8157 243.931 81.1175V81.6705L238.371 81.6855C238.505 82.9858 239.193 83.6435 240.403 83.6435C241.405 83.6435 242.062 83.2549 242.272 82.5524H243.961C243.647 84.1666 242.301 85.1382 240.373 85.1382ZM240.329 78.8307C239.252 78.8307 238.595 79.4136 238.415 80.5196H242.122C242.122 79.5033 241.42 78.8307 240.329 78.8307ZM44.0727 98.6392L40.3809 92.0179H42.5183L44.6706 95.9937C44.835 96.2926 44.9396 96.5317 45.0592 96.8008C45.1937 96.5317 45.2535 96.3524 45.4478 95.9937L47.5852 92.0179H49.6628L45.9859 98.6392V102.944H44.0727V98.6392ZM48.7676 99.2371C48.7676 96.9353 50.4267 95.351 52.7135 95.351C55.0003 95.351 56.6594 96.9353 56.6594 99.2371C56.6594 101.539 55.0003 103.123 52.7135 103.123C50.4267 103.123 48.7676 101.539 48.7676 99.2371ZM50.5911 99.2371C50.5911 100.582 51.458 101.494 52.7135 101.494C53.969 101.494 54.8359 100.582 54.8359 99.2371C54.8359 97.8919 53.969 96.9801 52.7135 96.9801C51.458 96.9801 50.5911 97.8919 50.5911 99.2371ZM62.9368 95.5602H64.7602V102.944H63.0713L62.9368 101.957C62.4884 102.66 61.5318 103.138 60.5453 103.138C58.8414 103.138 57.84 101.987 57.84 100.179V95.5602H59.6635V99.536C59.6635 100.941 60.2165 101.509 61.2328 101.509C62.3837 101.509 62.9368 100.836 62.9368 99.4314V95.5602ZM71.2771 95.5303V97.2193H70.6045C69.2892 97.2193 68.4671 97.9218 68.4671 99.3567V102.944H66.6436V95.5752H68.3625L68.4671 96.6513C68.781 95.9189 69.4835 95.4257 70.47 95.4257C70.7241 95.4257 70.9782 95.4556 71.2771 95.5303ZM82.7876 98.4748H78.7221V102.944H76.809V92.0179H83.5649V93.7816H78.7221V96.7559H82.7876V98.4748ZM85.9321 94.0805C85.3044 94.0805 84.8111 93.5873 84.8111 92.9745C84.8111 92.3616 85.3044 91.8833 85.9321 91.8833C86.53 91.8833 87.0232 92.3616 87.0232 92.9745C87.0232 93.5873 86.53 94.0805 85.9321 94.0805ZM85.0204 102.944V95.5602H86.8439V102.944H85.0204ZM91.2389 102.944H89.4154V97.0848H87.9955V95.5602H89.4154V93.2584H91.2389V95.5602H92.6738V97.0848H91.2389V102.944ZM95.6309 102.944H93.8074V95.5602H95.4963L95.6458 96.5168C96.1092 95.7695 97.0059 95.336 98.0074 95.336C99.8608 95.336 100.817 96.4869 100.817 98.4001V102.944H98.9938V98.8335C98.9938 97.593 98.381 96.9951 97.4394 96.9951C96.3184 96.9951 95.6309 97.7723 95.6309 98.968V102.944ZM105.912 103.138C103.715 103.138 102.175 101.539 102.175 99.252C102.175 96.9353 103.685 95.336 105.852 95.336C108.064 95.336 109.469 96.8157 109.469 99.1175V99.6705L103.909 99.6855C104.044 100.986 104.731 101.643 105.942 101.643C106.943 101.643 107.601 101.255 107.81 100.552H109.499C109.185 102.167 107.84 103.138 105.912 103.138ZM105.867 96.8307C104.791 96.8307 104.134 97.4136 103.954 98.5196H107.661C107.661 97.5033 106.958 96.8307 105.867 96.8307ZM110.361 100.702H112.095C112.11 101.345 112.588 101.748 113.425 101.748C114.277 101.748 114.74 101.404 114.74 100.866C114.74 100.493 114.546 100.224 113.888 100.074L112.558 99.7602C111.228 99.4613 110.585 98.8335 110.585 97.6527C110.585 96.2029 111.811 95.336 113.515 95.336C115.174 95.336 116.295 96.2926 116.31 97.7275H114.576C114.561 97.0997 114.142 96.6962 113.44 96.6962C112.722 96.6962 112.304 97.025 112.304 97.578C112.304 97.9965 112.633 98.2656 113.261 98.415L114.591 98.7289C115.831 99.0129 116.459 99.5809 116.459 100.717C116.459 102.211 115.189 103.138 113.365 103.138C111.527 103.138 110.361 102.152 110.361 100.702ZM117.28 100.702H119.013C119.028 101.345 119.507 101.748 120.344 101.748C121.196 101.748 121.659 101.404 121.659 100.866C121.659 100.493 121.465 100.224 120.807 100.074L119.477 99.7602C118.146 99.4613 117.504 98.8335 117.504 97.6527C117.504 96.2029 118.729 95.336 120.433 95.336C122.092 95.336 123.213 96.2926 123.228 97.7275H121.494C121.48 97.0997 121.061 96.6962 120.359 96.6962C119.641 96.6962 119.223 97.025 119.223 97.578C119.223 97.9965 119.551 98.2656 120.179 98.415L121.509 98.7289C122.75 99.0129 123.378 99.5809 123.378 100.717C123.378 102.211 122.107 103.138 120.284 103.138C118.445 103.138 117.28 102.152 117.28 100.702Z" fill="#0C2503"/>
<path d="M42.1607 126.161H41.1219V118.497H42.1607L46.0829 124.422V118.497H47.1217V126.161H46.0829L42.1607 120.235V126.161ZM52.3199 120.977H53.3058V126.161H52.4153L52.3093 125.376C52.0125 125.917 51.3235 126.288 50.5603 126.288C49.3518 126.288 48.6734 125.472 48.6734 124.2V120.977H49.6698V123.871C49.6698 124.984 50.1468 125.408 50.9101 125.408C51.8217 125.408 52.3199 124.825 52.3199 123.712V120.977ZM56.2144 126.161H55.2179V121.814H54.2003V120.977H55.2179V119.355H56.2144V120.977H57.232V121.814H56.2144V126.161ZM61.0944 120.935V121.846H60.6492C59.7057 121.846 59.1227 122.419 59.1227 123.415V126.161H58.1263V120.988H59.0591L59.1227 121.772C59.3347 121.231 59.8541 120.871 60.5644 120.871C60.7446 120.871 60.893 120.892 61.0944 120.935ZM62.5166 119.747C62.1562 119.747 61.8594 119.451 61.8594 119.09C61.8594 118.719 62.1562 118.433 62.5166 118.433C62.877 118.433 63.1738 118.719 63.1738 119.09C63.1738 119.451 62.877 119.747 62.5166 119.747ZM62.029 126.161V120.977H63.0254V126.161H62.029ZM65.9349 126.161H64.9385V121.814H63.9208V120.977H64.9385V119.355H65.9349V120.977H66.9525V121.814H65.9349V126.161ZM68.3344 119.747C67.974 119.747 67.6772 119.451 67.6772 119.09C67.6772 118.719 67.974 118.433 68.3344 118.433C68.6948 118.433 68.9916 118.719 68.9916 119.09C68.9916 119.451 68.6948 119.747 68.3344 119.747ZM67.8468 126.161V120.977H68.8432V126.161H67.8468ZM69.9507 123.564C69.9507 121.963 71.0955 120.839 72.6538 120.839C74.2014 120.839 75.3463 121.963 75.3463 123.564C75.3463 125.164 74.2014 126.288 72.6538 126.288C71.0955 126.288 69.9507 125.164 69.9507 123.564ZM70.9577 123.564C70.9577 124.645 71.6467 125.397 72.6538 125.397C73.6502 125.397 74.3498 124.645 74.3498 123.564C74.3498 122.482 73.6502 121.73 72.6538 121.73C71.6467 121.73 70.9577 122.482 70.9577 123.564ZM79.908 120.977H80.8939V126.161H80.0034L79.8974 125.376C79.6006 125.917 78.9116 126.288 78.1484 126.288C76.9399 126.288 76.2615 125.472 76.2615 124.2V120.977H77.2579V123.871C77.2579 124.984 77.7349 125.408 78.4982 125.408C79.4098 125.408 79.908 124.825 79.908 123.712V120.977ZM81.8121 124.655H82.7661C82.7661 125.185 83.1689 125.503 83.8262 125.503C84.5258 125.503 84.9286 125.217 84.9286 124.74C84.9286 124.39 84.759 124.178 84.2184 124.041L83.3067 123.829C82.3845 123.606 81.9499 123.15 81.9499 122.387C81.9499 121.433 82.7555 120.829 83.9004 120.829C85.0346 120.829 85.7766 121.465 85.7978 122.45H84.8438C84.8226 121.931 84.4728 121.602 83.8686 121.602C83.2431 121.602 82.8933 121.878 82.8933 122.355C82.8933 122.705 83.1477 122.938 83.6565 123.065L84.5682 123.288C85.448 123.5 85.8826 123.903 85.8826 124.677C85.8826 125.662 85.0346 126.288 83.8049 126.288C82.5859 126.288 81.8121 125.641 81.8121 124.655ZM90.7873 126.161H89.8862V118.359H90.8827V121.867C91.2219 121.189 91.9215 120.829 92.7695 120.829C94.2536 120.829 95.144 121.995 95.144 123.595C95.144 125.164 94.2112 126.288 92.7059 126.288C91.8897 126.288 91.2007 125.927 90.8615 125.217L90.7873 126.161ZM90.8933 123.553C90.8933 124.634 91.5081 125.387 92.5257 125.387C93.5434 125.387 94.1476 124.624 94.1476 123.553C94.1476 122.493 93.5434 121.73 92.5257 121.73C91.5081 121.73 90.8933 122.493 90.8933 123.553ZM98.479 126.288C96.9526 126.288 95.9031 125.185 95.9031 123.574C95.9031 121.952 96.9314 120.829 98.4366 120.829C99.9101 120.829 100.875 121.846 100.875 123.383V123.754L96.8678 123.765C96.942 124.857 97.5144 125.461 98.5002 125.461C99.2741 125.461 99.7829 125.143 99.9525 124.549H100.885C100.631 125.662 99.7617 126.288 98.479 126.288ZM98.4366 121.666C97.5674 121.666 97.0162 122.185 96.889 123.097H99.8783C99.8783 122.238 99.3165 121.666 98.4366 121.666ZM103.452 126.288C102.339 126.288 101.682 125.662 101.682 124.719C101.682 123.765 102.392 123.171 103.611 123.076L105.243 122.949V122.8C105.243 121.931 104.724 121.624 104.024 121.624C103.187 121.624 102.71 121.995 102.71 122.62H101.841C101.841 121.539 102.731 120.829 104.067 120.829C105.349 120.829 106.219 121.507 106.219 122.906V126.161H105.37L105.264 125.323C104.999 125.917 104.289 126.288 103.452 126.288ZM103.738 125.514C104.681 125.514 105.254 124.899 105.254 123.924V123.648L103.929 123.754C103.049 123.839 102.689 124.178 102.689 124.687C102.689 125.238 103.091 125.514 103.738 125.514ZM108.595 126.161H107.599V120.977H108.5L108.606 121.772C108.934 121.178 109.591 120.829 110.323 120.829C111.69 120.829 112.316 121.666 112.316 122.991V126.161H111.319V123.214C111.319 122.164 110.832 121.74 110.068 121.74C109.136 121.74 108.595 122.408 108.595 123.415V126.161ZM116.255 123.574C116.255 121.952 117.283 120.829 118.799 120.829C120.103 120.829 121.015 121.571 121.195 122.726H120.199C120.029 122.069 119.499 121.719 118.831 121.719C117.888 121.719 117.241 122.44 117.241 123.564C117.241 124.677 117.845 125.397 118.789 125.397C119.499 125.397 120.029 125.026 120.209 124.412H121.206C121.004 125.535 120.04 126.288 118.789 126.288C117.262 126.288 116.255 125.207 116.255 123.574ZM123.773 126.288C122.66 126.288 122.003 125.662 122.003 124.719C122.003 123.765 122.713 123.171 123.932 123.076L125.564 122.949V122.8C125.564 121.931 125.045 121.624 124.345 121.624C123.508 121.624 123.031 121.995 123.031 122.62H122.162C122.162 121.539 123.052 120.829 124.388 120.829C125.67 120.829 126.54 121.507 126.54 122.906V126.161H125.691L125.585 125.323C125.32 125.917 124.61 126.288 123.773 126.288ZM124.059 125.514C125.002 125.514 125.575 124.899 125.575 123.924V123.648L124.25 123.754C123.37 123.839 123.01 124.178 123.01 124.687C123.01 125.238 123.412 125.514 124.059 125.514ZM128.937 126.161H127.941V118.359H128.937V123.415L131.237 120.977H132.488L130.506 123.044L132.478 126.161H131.333L129.817 123.765L128.937 124.687V126.161ZM135.343 126.288C133.816 126.288 132.767 125.185 132.767 123.574C132.767 121.952 133.795 120.829 135.3 120.829C136.774 120.829 137.738 121.846 137.738 123.383V123.754L133.731 123.765C133.805 124.857 134.378 125.461 135.364 125.461C136.138 125.461 136.646 125.143 136.816 124.549H137.749C137.494 125.662 136.625 126.288 135.343 126.288ZM135.3 121.666C134.431 121.666 133.88 122.185 133.752 123.097H136.742C136.742 122.238 136.18 121.666 135.3 121.666ZM142.746 126.15H141.75V118.359H142.746V121.772C143.075 121.21 143.7 120.829 144.506 120.829C145.831 120.829 146.467 121.666 146.467 122.991V126.161H145.471V123.214C145.471 122.164 144.972 121.74 144.23 121.74C143.266 121.74 142.746 122.44 142.746 123.33V126.15ZM148.335 119.747C147.974 119.747 147.677 119.451 147.677 119.09C147.677 118.719 147.974 118.433 148.335 118.433C148.695 118.433 148.992 118.719 148.992 119.09C148.992 119.451 148.695 119.747 148.335 119.747ZM147.847 126.161V120.977H148.844V126.161H147.847ZM149.962 123.436C149.962 121.973 150.905 120.829 152.41 120.829C153.248 120.829 153.894 121.21 154.223 121.857L154.297 120.977H155.188V125.949C155.188 127.581 154.181 128.62 152.59 128.62C151.181 128.62 150.216 127.825 150.025 126.51H151.022C151.149 127.274 151.721 127.719 152.59 127.719C153.566 127.719 154.202 127.083 154.202 126.097V125.058C153.863 125.662 153.184 126.023 152.368 126.023C150.894 126.023 149.962 124.889 149.962 123.436ZM150.958 123.415C150.958 124.39 151.562 125.154 152.537 125.154C153.545 125.154 154.159 124.433 154.159 123.415C154.159 122.419 153.566 121.698 152.548 121.698C151.552 121.698 150.958 122.461 150.958 123.415ZM157.622 126.15H156.626V118.359H157.622V121.772C157.951 121.21 158.576 120.829 159.382 120.829C160.707 120.829 161.343 121.666 161.343 122.991V126.161H160.346V123.214C160.346 122.164 159.848 121.74 159.106 121.74C158.141 121.74 157.622 122.44 157.622 123.33V126.15ZM166.109 119.747C165.749 119.747 165.452 119.451 165.452 119.09C165.452 118.719 165.749 118.433 166.109 118.433C166.47 118.433 166.766 118.719 166.766 119.09C166.766 119.451 166.47 119.747 166.109 119.747ZM165.621 126.161V120.977H166.618V126.161H165.621ZM169.061 126.161H168.065V120.977H168.966L169.072 121.772C169.4 121.178 170.057 120.829 170.789 120.829C172.156 120.829 172.782 121.666 172.782 122.991V126.161H171.785V123.214C171.785 122.164 171.298 121.74 170.534 121.74C169.602 121.74 169.061 122.408 169.061 123.415V126.161ZM177.06 128.482V120.977H177.961L178.036 121.91C178.386 121.2 179.085 120.829 179.912 120.829C181.396 120.829 182.318 121.942 182.318 123.532C182.318 125.111 181.449 126.298 179.912 126.298C179.085 126.298 178.396 125.949 178.057 125.313V128.482H177.06ZM178.068 123.574C178.068 124.634 178.682 125.397 179.7 125.397C180.718 125.397 181.322 124.634 181.322 123.574C181.322 122.503 180.718 121.74 179.7 121.74C178.682 121.74 178.068 122.493 178.068 123.574ZM186.385 120.935V121.846H185.94C184.996 121.846 184.413 122.419 184.413 123.415V126.161H183.417V120.988H184.349L184.413 121.772C184.625 121.231 185.144 120.871 185.855 120.871C186.035 120.871 186.183 120.892 186.385 120.935ZM186.794 123.564C186.794 121.963 187.939 120.839 189.497 120.839C191.045 120.839 192.189 121.963 192.189 123.564C192.189 125.164 191.045 126.288 189.497 126.288C187.939 126.288 186.794 125.164 186.794 123.564ZM187.801 123.564C187.801 124.645 188.49 125.397 189.497 125.397C190.493 125.397 191.193 124.645 191.193 123.564C191.193 122.482 190.493 121.73 189.497 121.73C188.49 121.73 187.801 122.482 187.801 123.564ZM194.704 126.161H193.707V121.814H192.689V120.977H193.707V119.355H194.704V120.977H195.721V121.814H194.704V126.161ZM198.8 126.288C197.274 126.288 196.224 125.185 196.224 123.574C196.224 121.952 197.253 120.829 198.758 120.829C200.231 120.829 201.196 121.846 201.196 123.383V123.754L197.189 123.765C197.263 124.857 197.836 125.461 198.822 125.461C199.595 125.461 200.104 125.143 200.274 124.549H201.207C200.952 125.662 200.083 126.288 198.8 126.288ZM198.758 121.666C197.889 121.666 197.337 122.185 197.21 123.097H200.2C200.2 122.238 199.638 121.666 198.758 121.666ZM202.797 119.747C202.436 119.747 202.139 119.451 202.139 119.09C202.139 118.719 202.436 118.433 202.797 118.433C203.157 118.433 203.454 118.719 203.454 119.09C203.454 119.451 203.157 119.747 202.797 119.747ZM202.309 126.161V120.977H203.305V126.161H202.309ZM205.749 126.161H204.752V120.977H205.653L205.759 121.772C206.088 121.178 206.745 120.829 207.476 120.829C208.844 120.829 209.469 121.666 209.469 122.991V126.161H208.473V123.214C208.473 122.164 207.985 121.74 207.222 121.74C206.289 121.74 205.749 122.408 205.749 123.415V126.161ZM215.264 126.288C214.151 126.288 213.494 125.662 213.494 124.719C213.494 123.765 214.204 123.171 215.423 123.076L217.055 122.949V122.8C217.055 121.931 216.536 121.624 215.836 121.624C214.999 121.624 214.522 121.995 214.522 122.62H213.653C213.653 121.539 214.543 120.829 215.879 120.829C217.161 120.829 218.031 121.507 218.031 122.906V126.161H217.183L217.077 125.323C216.812 125.917 216.101 126.288 215.264 126.288ZM215.55 125.514C216.493 125.514 217.066 124.899 217.066 123.924V123.648L215.741 123.754C214.861 123.839 214.501 124.178 214.501 124.687C214.501 125.238 214.903 125.514 215.55 125.514ZM220.407 126.161H219.411V120.977H220.312L220.418 121.772C220.746 121.178 221.403 120.829 222.135 120.829C223.502 120.829 224.128 121.666 224.128 122.991V126.161H223.131V123.214C223.131 122.164 222.644 121.74 221.88 121.74C220.948 121.74 220.407 122.408 220.407 123.415V126.161ZM227.586 126.288C226.08 126.288 225.169 125.164 225.169 123.585C225.169 121.995 226.091 120.829 227.628 120.829C228.423 120.829 229.091 121.178 229.441 121.814V118.359H230.426V126.161H229.536L229.451 125.217C229.112 125.927 228.412 126.288 227.586 126.288ZM227.787 125.387C228.805 125.387 229.43 124.634 229.43 123.553C229.43 122.493 228.805 121.73 227.787 121.73C226.769 121.73 226.176 122.493 226.176 123.553C226.176 124.624 226.769 125.387 227.787 125.387ZM44.461 140.161V135.814H42.1607V140.161H41.1643V135.814H40.4011V134.977H41.1643V134.15C41.1643 132.878 41.8533 132.359 42.7544 132.359C42.9452 132.359 43.1784 132.369 43.3692 132.401V133.26H42.924C42.3197 133.26 42.1607 133.588 42.1607 134.15V134.977H45.4575V140.161H44.461ZM44.9592 133.705C44.5988 133.705 44.3232 133.429 44.3232 133.069C44.3232 132.709 44.5988 132.433 44.9592 132.433C45.3091 132.433 45.5847 132.709 45.5847 133.069C45.5847 133.429 45.3091 133.705 44.9592 133.705ZM47.7747 140.161H46.8736V132.359H47.8701V135.867C48.2093 135.189 48.9089 134.829 49.7569 134.829C51.241 134.829 52.1315 135.995 52.1315 137.595C52.1315 139.164 51.1986 140.288 49.6933 140.288C48.8771 140.288 48.1881 139.927 47.8489 139.217L47.7747 140.161ZM47.8807 137.553C47.8807 138.634 48.4955 139.387 49.5131 139.387C50.5308 139.387 51.135 138.624 51.135 137.553C51.135 136.493 50.5308 135.73 49.5131 135.73C48.4955 135.73 47.8807 136.493 47.8807 137.553ZM55.4665 140.288C53.94 140.288 52.8905 139.185 52.8905 137.574C52.8905 135.952 53.9188 134.829 55.4241 134.829C56.8975 134.829 57.8622 135.846 57.8622 137.383V137.754L53.8552 137.765C53.9294 138.857 54.5018 139.461 55.4877 139.461C56.2615 139.461 56.7703 139.143 56.9399 138.549H57.8728C57.6183 139.662 56.7491 140.288 55.4665 140.288ZM55.4241 135.666C54.5548 135.666 54.0036 136.185 53.8764 137.097H56.8657C56.8657 136.238 56.3039 135.666 55.4241 135.666ZM61.9432 134.935V135.846H61.498C60.5546 135.846 59.9716 136.419 59.9716 137.415V140.161H58.9751V134.988H59.908L59.9716 135.772C60.1836 135.231 60.703 134.871 61.4132 134.871C61.5934 134.871 61.7418 134.892 61.9432 134.935ZM62.7813 140.288C62.3679 140.288 62.0181 139.949 62.0181 139.546C62.0181 139.132 62.3679 138.793 62.7813 138.793C63.1842 138.793 63.534 139.132 63.534 139.546C63.534 139.949 63.1842 140.288 62.7813 140.288Z" fill="#7B7B7B"/>
<path d="M37.0344 38.205H34.0094V41.5303H32.5859V33.4006H37.6127V34.7129H34.0094V36.9261H37.0344V38.205ZM39.3741 34.9353C38.907 34.9353 38.54 34.5683 38.54 34.1124C38.54 33.6564 38.907 33.3005 39.3741 33.3005C39.819 33.3005 40.186 33.6564 40.186 34.1124C40.186 34.5683 39.819 34.9353 39.3741 34.9353ZM38.6957 41.5303V36.0364H40.0525V41.5303H38.6957ZM43.3227 41.5303H41.9659V37.1707H40.9094V36.0364H41.9659V34.3237H43.3227V36.0364H44.3904V37.1707H43.3227V41.5303ZM46.5906 41.5303H45.2338V36.0364H46.4905L46.6018 36.7481C46.9465 36.1921 47.6138 35.8695 48.3589 35.8695C49.738 35.8695 50.4497 36.7259 50.4497 38.1494V41.5303H49.0929V38.4719C49.0929 37.5489 48.6369 37.104 47.9363 37.104C47.1022 37.104 46.5906 37.6823 46.5906 38.572V41.5303ZM54.2406 41.6749C52.6058 41.6749 51.4603 40.4849 51.4603 38.7833C51.4603 37.0595 52.5835 35.8695 54.1961 35.8695C55.8421 35.8695 56.8875 36.9705 56.8875 38.6832V39.0947L52.7503 39.1058C52.8504 40.0734 53.362 40.5627 54.2628 40.5627C55.008 40.5627 55.4973 40.2736 55.653 39.7509H56.9097C56.6762 40.952 55.6752 41.6749 54.2406 41.6749ZM54.2072 36.9817C53.4065 36.9817 52.9172 37.4154 52.7837 38.2384H55.5418C55.5418 37.4821 55.0191 36.9817 54.2072 36.9817ZM57.5508 39.8621H58.8408C58.8519 40.3403 59.2078 40.6406 59.8306 40.6406C60.4645 40.6406 60.8093 40.3848 60.8093 39.9844C60.8093 39.7064 60.6647 39.5062 60.1754 39.395L59.1856 39.1614C58.1958 38.939 57.7176 38.4719 57.7176 37.5933C57.7176 36.5146 58.6295 35.8695 59.8973 35.8695C61.1318 35.8695 61.9659 36.5813 61.977 37.6489H60.687C60.6758 37.1818 60.3644 36.8816 59.8417 36.8816C59.3079 36.8816 58.9965 37.1262 58.9965 37.5377C58.9965 37.8491 59.2412 38.0493 59.7083 38.1605L60.6981 38.3941C61.6211 38.6054 62.0882 39.028 62.0882 39.8732C62.0882 40.9853 61.1429 41.6749 59.7861 41.6749C58.4182 41.6749 57.5508 40.9408 57.5508 39.8621ZM62.6987 39.8621H63.9888C63.9999 40.3403 64.3558 40.6406 64.9786 40.6406C65.6125 40.6406 65.9572 40.3848 65.9572 39.9844C65.9572 39.7064 65.8127 39.5062 65.3233 39.395L64.3335 39.1614C63.3437 38.939 62.8655 38.4719 62.8655 37.5933C62.8655 36.5146 63.7775 35.8695 65.0453 35.8695C66.2798 35.8695 67.1138 36.5813 67.125 37.6489H65.8349C65.8238 37.1818 65.5124 36.8816 64.9897 36.8816C64.4559 36.8816 64.1445 37.1262 64.1445 37.5377C64.1445 37.8491 64.3891 38.0493 64.8562 38.1605L65.846 38.3941C66.7691 38.6054 67.2362 39.028 67.2362 39.8732C67.2362 40.9853 66.2909 41.6749 64.9341 41.6749C63.5662 41.6749 62.6987 40.9408 62.6987 39.8621Z" fill="#6D53E7"/>
</g>
<path d="M18.4728 194.232C18.1952 192.215 19.6054 190.355 21.6224 190.077L45.8376 186.745C47.8547 186.467 49.7149 187.878 49.9924 189.895L52.611 208.922C52.8886 210.939 51.4784 212.799 49.4614 213.077L25.2462 216.41C23.2291 216.687 21.3689 215.277 21.0914 213.26L18.4728 194.232Z" fill="#0C2503"/>
<path d="M42.7618 196.746C42.8265 196.114 42.3658 195.548 41.7328 195.483L31.4179 194.429C30.7849 194.365 30.2193 194.825 30.1547 195.458C30.09 196.091 30.5507 196.657 31.1837 196.722L40.3525 197.658L39.4157 206.827C39.351 207.46 39.8117 208.026 40.4447 208.09C41.0777 208.155 41.6432 207.694 41.7079 207.061L42.7618 196.746ZM28.7403 205.632C28.2469 206.034 28.1728 206.759 28.5746 207.253C28.9765 207.746 29.7022 207.82 30.1955 207.418L28.7403 205.632ZM40.8881 195.736L28.7403 205.632L30.1955 207.418L42.3433 197.523L40.8881 195.736Z" fill="#EDFAE7"/>
<path d="M69.8969 201.424C69.8969 203.943 68.2401 205.713 65.857 205.713C63.4852 205.713 61.851 203.954 61.851 201.424C61.851 198.904 63.4965 197.134 65.8683 197.134C68.2401 197.134 69.8969 198.893 69.8969 201.424ZM68.3649 201.424C68.3649 199.653 67.389 198.53 65.8683 198.53C64.3476 198.53 63.3717 199.653 63.3717 201.424C63.3717 203.194 64.3476 204.317 65.8683 204.317C67.389 204.317 68.3649 203.171 68.3649 201.424ZM71.0446 208.176V199.971H72.327L72.4178 200.822C72.7582 200.175 73.4958 199.801 74.347 199.801C75.9244 199.801 76.9684 200.947 76.9684 202.706C76.9684 204.454 76.0152 205.725 74.347 205.725C73.5072 205.725 72.7809 205.396 72.4291 204.828V208.176H71.0446ZM72.4405 202.774C72.4405 203.784 73.0646 204.476 74.0179 204.476C74.9938 204.476 75.5726 203.773 75.5726 202.774C75.5726 201.775 74.9938 201.061 74.0179 201.061C73.0646 201.061 72.4405 201.764 72.4405 202.774ZM80.5788 205.725C78.9106 205.725 77.7417 204.51 77.7417 202.774C77.7417 201.015 78.8879 199.801 80.5334 199.801C82.2129 199.801 83.2796 200.924 83.2796 202.672V203.092L79.0581 203.103C79.1602 204.091 79.6822 204.59 80.6015 204.59C81.3618 204.59 81.8611 204.295 82.02 203.761H83.3023C83.064 204.987 82.0427 205.725 80.5788 205.725ZM80.5447 200.936C79.7276 200.936 79.2283 201.378 79.0921 202.218H81.9065C81.9065 201.446 81.3731 200.936 80.5447 200.936ZM85.7722 205.577H84.3877V199.971H85.67L85.7835 200.697C86.1353 200.13 86.8162 199.801 87.5766 199.801C88.9837 199.801 89.71 200.675 89.71 202.127V205.577H88.3255V202.456C88.3255 201.514 87.8603 201.061 87.1453 201.061C86.2942 201.061 85.7722 201.651 85.7722 202.559V205.577ZM94.3333 205.577V197.282H97.6356C99.2698 197.282 100.268 198.133 100.268 199.517C100.268 200.436 99.8599 201.095 99.0769 201.424C99.9507 201.707 100.393 202.366 100.393 203.33C100.393 204.749 99.406 205.577 97.6924 205.577H94.3333ZM97.5108 198.564H95.7859V200.822H97.5448C98.3392 200.822 98.7818 200.402 98.7818 199.665C98.7818 198.95 98.3279 198.564 97.5108 198.564ZM97.6356 202.048H95.7859V204.295H97.6356C98.4527 204.295 98.9066 203.898 98.9066 203.149C98.9066 202.445 98.4414 202.048 97.6356 202.048ZM102.917 205.577H101.544V197.134H102.917V205.577ZM104.04 202.763C104.04 201.015 105.3 199.812 107.036 199.812C108.772 199.812 110.032 201.015 110.032 202.763C110.032 204.51 108.772 205.713 107.036 205.713C105.3 205.713 104.04 204.51 104.04 202.763ZM105.424 202.763C105.424 203.784 106.083 204.476 107.036 204.476C107.989 204.476 108.647 203.784 108.647 202.763C108.647 201.741 107.989 201.049 107.036 201.049C106.083 201.049 105.424 201.741 105.424 202.763ZM110.811 202.649C110.811 201.015 111.878 199.79 113.478 199.79C114.318 199.79 114.976 200.141 115.305 200.743L115.385 199.971H116.667V205.293C116.667 207.166 115.544 208.335 113.728 208.335C112.117 208.335 111.016 207.416 110.846 205.918H112.23C112.321 206.644 112.877 207.075 113.728 207.075C114.681 207.075 115.294 206.474 115.294 205.543V204.613C114.942 205.135 114.25 205.464 113.444 205.464C111.856 205.464 110.811 204.272 110.811 202.649ZM112.207 202.615C112.207 203.557 112.809 204.261 113.717 204.261C114.67 204.261 115.26 203.591 115.26 202.615C115.26 201.662 114.681 201.004 113.717 201.004C112.797 201.004 112.207 201.696 112.207 202.615Z" fill="#0A0B0A"/>
<path d="M34.8203 6.52996C34.4817 6.19155 34.074 5.9302 33.6252 5.76375C33.1763 5.5973 32.6968 5.52967 32.2194 5.56547C31.742 5.60128 31.2779 5.73968 30.8589 5.97122C30.4399 6.20276 30.0757 6.522 29.7914 6.90713C28.9453 6.75641 28.0732 6.87954 27.3019 7.25862C26.5306 7.6377 25.9003 8.25296 25.5028 9.0149C25.1053 9.77685 24.9612 10.6458 25.0916 11.4952C25.2219 12.3447 25.6198 13.1304 26.2275 13.7382L27.9206 15.4346L26.1303 17.2249L28.4201 19.5148L30.2121 17.7245L31.9069 19.4192C32.5146 20.0269 33.3004 20.4248 34.1498 20.5552C34.9993 20.6855 35.8682 20.5414 36.6301 20.1439C37.3921 19.7464 38.0073 19.1161 38.3864 18.3449C38.7655 17.5736 38.8886 16.7015 38.7379 15.8554C39.123 15.571 39.4423 15.2069 39.6738 14.7878C39.9054 14.3688 40.0438 13.9048 40.0796 13.4274C40.1154 12.95 40.0477 12.4704 39.8813 12.0216C39.7148 11.5727 39.4535 11.165 39.1151 10.8264L38.1126 9.82226L38.991 8.94387C39.2878 8.6388 39.4525 8.22916 39.4496 7.80357C39.4466 7.37798 39.2763 6.97066 38.9753 6.66971C38.6744 6.36877 38.2671 6.1984 37.8415 6.19546C37.4159 6.19252 37.0062 6.35725 36.7012 6.65401L35.8228 7.5324L34.8203 6.52996ZM35.2729 12.4742C35.4303 12.6314 35.5188 12.8446 35.519 13.067C35.5192 13.2895 35.4309 13.5028 35.2738 13.6602C35.1166 13.8176 34.9034 13.9061 34.681 13.9063C34.4585 13.9064 34.2452 13.8182 34.0878 13.6611L31.9555 11.5271C31.8028 11.369 31.7183 11.1573 31.7202 10.9375C31.7222 10.7178 31.8103 10.5075 31.9657 10.3521C32.1211 10.1967 32.3313 10.1086 32.5511 10.1067C32.7709 10.1048 32.9826 10.1892 33.1407 10.3419L35.2729 12.4742ZM17.5374 16.7153C18.295 15.9578 19.3225 15.5323 20.3939 15.5323C21.4652 15.5323 22.4927 15.9578 23.2503 16.7153L28.9297 22.3964C29.5374 23.0041 29.9353 23.7899 30.0657 24.6393C30.196 25.4888 30.0519 26.3577 29.6544 27.1196C29.2569 27.8816 28.6266 28.4968 27.8554 28.8759C27.0841 29.255 26.212 29.3781 25.3659 29.2274C25.0815 29.6125 24.7174 29.9318 24.2983 30.1633C23.8793 30.3949 23.4153 30.5333 22.9379 30.5691C22.4604 30.6049 21.9809 30.5373 21.5321 30.3708C21.0832 30.2043 20.6755 29.943 20.3369 29.6046L19.3328 28.6021L18.4259 29.509C18.2774 29.667 18.0986 29.7935 17.9003 29.8811C17.702 29.9686 17.4881 30.0155 17.2714 30.0189C17.0546 30.0222 16.8394 29.9821 16.6384 29.9007C16.4375 29.8193 16.2549 29.6984 16.1016 29.5452C15.9482 29.392 15.8272 29.2095 15.7457 29.0086C15.6642 28.8077 15.6238 28.5925 15.627 28.3757C15.6302 28.159 15.6769 27.945 15.7644 27.7467C15.8518 27.5483 15.9782 27.3695 16.136 27.2209L17.0429 26.3123L16.0405 25.3098C15.7021 24.9712 15.4407 24.5635 15.2742 24.1147C15.1078 23.6658 15.0402 23.1863 15.076 22.7089C15.1118 22.2315 15.2502 21.7674 15.4817 21.3484C15.7133 20.9294 16.0325 20.5652 16.4176 20.2809C16.3021 19.6402 16.3438 18.981 16.5392 18.3599C16.7345 17.7389 17.0759 17.1745 17.5374 16.7153ZM22.4742 26.4615C22.6313 26.3043 22.7196 26.0911 22.7196 25.8689C22.7196 25.6466 22.6313 25.4335 22.4742 25.2763L20.3402 23.144C20.1822 22.9913 19.9704 22.9069 19.7507 22.9088C19.5309 22.9107 19.3207 22.9988 19.1653 23.1542C19.0099 23.3096 18.9217 23.5199 18.9198 23.7396C18.9179 23.9594 19.0024 24.1711 19.1551 24.3292L21.2874 26.4615C21.3652 26.5395 21.4577 26.6015 21.5595 26.6437C21.6614 26.686 21.7705 26.7077 21.8808 26.7077C21.991 26.7077 22.1002 26.686 22.202 26.6437C22.3038 26.6015 22.3963 26.5395 22.4742 26.4615Z" fill="#0C2503"/>
</g>
</g>
<defs>
<filter id="filter0_d_2251_27362" x="0.761943" y="0.52832" width="292.485" height="242.716" filterUnits="userSpaceOnUse" color-interpolation-filters="sRGB">
<feFlood flood-opacity="0" result="BackgroundImageFix"/>
<feColorMatrix in="SourceAlpha" type="matrix" values="0 0 0 0 0 0 0 0 0 0 0 0 0 0 0 0 0 0 127 0" result="hardAlpha"/>
<feOffset dy="3.38552"/>
<feGaussianBlur stdDeviation="1.69276"/>
<feComposite in2="hardAlpha" operator="out"/>
<feColorMatrix type="matrix" values="0 0 0 0 0 0 0 0 0 0 0 0 0 0 0 0 0 0 0.03 0"/>
<feBlend mode="normal" in2="BackgroundImageFix" result="effect1_dropShadow_2251_27362"/>
<feBlend mode="normal" in="SourceGraphic" in2="effect1_dropShadow_2251_27362" result="shape"/>
</filter>
<filter id="filter1_d_2251_27362" x="14.1875" y="19.4219" width="265.63" height="159.639" filterUnits="userSpaceOnUse" color-interpolation-filters="sRGB">
<feFlood flood-opacity="0" result="BackgroundImageFix"/>
<feColorMatrix in="SourceAlpha" type="matrix" values="0 0 0 0 0 0 0 0 0 0 0 0 0 0 0 0 0 0 127 0" result="hardAlpha"/>
<feOffset dy="3.78275"/>
<feGaussianBlur stdDeviation="1.89138"/>
<feComposite in2="hardAlpha" operator="out"/>
<feColorMatrix type="matrix" values="0 0 0 0 0 0 0 0 0 0 0 0 0 0 0 0 0 0 0.03 0"/>
<feBlend mode="normal" in2="BackgroundImageFix" result="effect1_dropShadow_2251_27362"/>
<feBlend mode="normal" in="SourceGraphic" in2="effect1_dropShadow_2251_27362" result="shape"/>
</filter>
<clipPath id="clip0_2251_27362">
<rect x="4.14746" y="0.52832" width="285.714" height="235.945" rx="27.6498" fill="white"/>
</clipPath>
</defs>
</svg>
