<svg width="291" height="244" viewBox="0 0 291 244" fill="none" xmlns="http://www.w3.org/2000/svg">
<g filter="url(#filter0_d_2251_27420)">
<g clip-path="url(#clip0_2251_27420)">
<rect x="3.44238" y="0.52832" width="285.714" height="235.945" rx="27.6498" fill="white"/>
<g filter="url(#filter1_d_2251_27420)">
<rect x="17.2654" y="19.4219" width="258.065" height="152.074" rx="7.74768" fill="#EDFAE7"/>
<path d="M42.6509 84.7441H40.7378V73.8182H42.6509V78.332H47.4936V73.8182H49.4068V84.7441H47.4936V80.1107H42.6509V84.7441ZM51.1285 81.0374C51.1285 78.7356 52.7876 77.1513 55.0744 77.1513C57.3612 77.1513 59.0203 78.7356 59.0203 81.0374C59.0203 83.3392 57.3612 84.9235 55.0744 84.9235C52.7876 84.9235 51.1285 83.3392 51.1285 81.0374ZM52.952 81.0374C52.952 82.3826 53.8189 83.2943 55.0744 83.2943C56.3299 83.2943 57.1968 82.3826 57.1968 81.0374C57.1968 79.6922 56.3299 78.7804 55.0744 78.7804C53.8189 78.7804 52.952 79.6922 52.952 81.0374ZM61.73 84.7441L59.3385 77.3605H61.2367L62.2082 80.5292C62.3727 81.1121 62.5221 81.7548 62.6566 82.4424C62.7912 81.7249 62.9257 81.2616 63.1648 80.5292L64.1812 77.3605H66.0346L67.0211 80.5292C67.1107 80.8281 67.4097 81.9342 67.4993 82.4274C67.6189 81.8744 67.8581 80.9925 67.9926 80.5292L68.9791 77.3605H70.9072L68.3513 84.7441H66.6474L65.631 81.5456C65.3321 80.574 65.1677 79.8715 65.1079 79.4979C65.0332 79.8416 64.8986 80.3648 64.525 81.5755L63.5086 84.7441H61.73ZM78.551 84.7441H76.7275V78.8851H75.3076V77.3605H76.7275V75.0587H78.551V77.3605H79.9858V78.8851H78.551V84.7441ZM80.613 81.0374C80.613 78.7356 82.2721 77.1513 84.5589 77.1513C86.8458 77.1513 88.5048 78.7356 88.5048 81.0374C88.5048 83.3392 86.8458 84.9235 84.5589 84.9235C82.2721 84.9235 80.613 83.3392 80.613 81.0374ZM82.4365 81.0374C82.4365 82.3826 83.3034 83.2943 84.5589 83.2943C85.8144 83.2943 86.6814 82.3826 86.6814 81.0374C86.6814 79.6922 85.8144 78.7804 84.5589 78.7804C83.3034 78.7804 82.4365 79.6922 82.4365 81.0374ZM98.8663 84.9235C95.6827 84.9235 93.6201 82.7114 93.6201 79.2886C93.6201 75.8957 95.7575 73.6388 98.956 73.6388C101.542 73.6388 103.47 75.1484 103.844 77.495H101.826C101.452 76.2246 100.361 75.4772 98.9112 75.4772C96.8934 75.4772 95.6229 76.942 95.6229 79.2737C95.6229 81.5904 96.9083 83.0851 98.9112 83.0851C100.391 83.0851 101.527 82.3078 101.886 81.0972H103.873C103.455 83.3989 101.452 84.9235 98.8663 84.9235ZM107.071 84.7441H105.247V73.6239H107.086V78.3171C107.549 77.5997 108.416 77.1363 109.477 77.1363C111.301 77.1363 112.257 78.2872 112.257 80.2004V84.7441H110.434V80.6338C110.434 79.3933 109.821 78.7954 108.894 78.7954C107.743 78.7954 107.071 79.6025 107.071 80.7086V84.7441ZM113.615 81.0374C113.615 78.7356 115.274 77.1513 117.561 77.1513C119.848 77.1513 121.507 78.7356 121.507 81.0374C121.507 83.3392 119.848 84.9235 117.561 84.9235C115.274 84.9235 113.615 83.3392 113.615 81.0374ZM115.439 81.0374C115.439 82.3826 116.306 83.2943 117.561 83.2943C118.817 83.2943 119.684 82.3826 119.684 81.0374C119.684 79.6922 118.817 78.7804 117.561 78.7804C116.306 78.7804 115.439 79.6922 115.439 81.0374ZM122.519 81.0374C122.519 78.7356 124.178 77.1513 126.465 77.1513C128.752 77.1513 130.411 78.7356 130.411 81.0374C130.411 83.3392 128.752 84.9235 126.465 84.9235C124.178 84.9235 122.519 83.3392 122.519 81.0374ZM124.343 81.0374C124.343 82.3826 125.209 83.2943 126.465 83.2943C127.72 83.2943 128.587 82.3826 128.587 81.0374C128.587 79.6922 127.72 78.7804 126.465 78.7804C125.209 78.7804 124.343 79.6922 124.343 81.0374ZM131.288 82.5021H133.022C133.037 83.1449 133.515 83.5484 134.352 83.5484C135.204 83.5484 135.668 83.2046 135.668 82.6666C135.668 82.2929 135.473 82.0239 134.816 81.8744L133.485 81.5605C132.155 81.2616 131.512 80.6338 131.512 79.453C131.512 78.0032 132.738 77.1363 134.442 77.1363C136.101 77.1363 137.222 78.0929 137.237 79.5278H135.503C135.488 78.9 135.07 78.4965 134.367 78.4965C133.65 78.4965 133.231 78.8253 133.231 79.3783C133.231 79.7968 133.56 80.0658 134.188 80.2153L135.518 80.5292C136.759 80.8132 137.386 81.3812 137.386 82.5171C137.386 84.0118 136.116 84.9384 134.293 84.9384C132.454 84.9384 131.288 83.952 131.288 82.5021ZM142.078 84.9384C139.881 84.9384 138.341 83.3392 138.341 81.0523C138.341 78.7356 139.851 77.1363 142.018 77.1363C144.23 77.1363 145.635 78.616 145.635 80.9178V81.4708L140.075 81.4858C140.21 82.7861 140.897 83.4438 142.108 83.4438C143.109 83.4438 143.767 83.0552 143.976 82.3527H145.665C145.351 83.9669 144.006 84.9384 142.078 84.9384ZM142.033 78.631C140.957 78.631 140.299 79.2139 140.12 80.3199H143.827C143.827 79.3036 143.124 78.631 142.033 78.631ZM153.634 84.7441H151.811V78.8851H150.391V77.3605H151.811V75.0587H153.634V77.3605H155.069V78.8851H153.634V84.7441ZM158.026 84.7441H156.203V73.6239H158.041V78.3171C158.505 77.5997 159.372 77.1363 160.433 77.1363C162.256 77.1363 163.213 78.2872 163.213 80.2004V84.7441H161.389V80.6338C161.389 79.3933 160.777 78.7954 159.85 78.7954C158.699 78.7954 158.026 79.6025 158.026 80.7086V84.7441ZM168.308 84.9384C166.11 84.9384 164.571 83.3392 164.571 81.0523C164.571 78.7356 166.081 77.1363 168.248 77.1363C170.46 77.1363 171.865 78.616 171.865 80.9178V81.4708L166.305 81.4858C166.439 82.7861 167.127 83.4438 168.338 83.4438C169.339 83.4438 169.997 83.0552 170.206 82.3527H171.895C171.581 83.9669 170.236 84.9384 168.308 84.9384ZM168.263 78.631C167.187 78.631 166.529 79.2139 166.35 80.3199H170.056C170.056 79.3036 169.354 78.631 168.263 78.631ZM181.942 80.9776H179.535V84.7441H177.622V73.8182H181.942C184.139 73.8182 185.559 75.253 185.559 77.3904C185.559 79.4979 184.124 80.9776 181.942 80.9776ZM181.568 75.5221H179.535V79.2737H181.538C182.853 79.2737 183.556 78.5712 183.556 77.3755C183.556 76.1797 182.838 75.5221 181.568 75.5221ZM189.837 84.9384C187.64 84.9384 186.101 83.3392 186.101 81.0523C186.101 78.7356 187.61 77.1363 189.777 77.1363C191.99 77.1363 193.394 78.616 193.394 80.9178V81.4708L187.834 81.4858C187.969 82.7861 188.656 83.4438 189.867 83.4438C190.869 83.4438 191.526 83.0552 191.735 82.3527H193.424C193.111 83.9669 191.765 84.9384 189.837 84.9384ZM189.792 78.631C188.716 78.631 188.059 79.2139 187.879 80.3199H191.586C191.586 79.3036 190.883 78.631 189.792 78.631ZM199.487 77.3306V79.0196H198.815C197.499 79.0196 196.677 79.7221 196.677 81.157V84.7441H194.854V77.3755H196.573L196.677 78.4516C196.991 77.7192 197.694 77.226 198.68 77.226C198.934 77.226 199.188 77.2559 199.487 77.3306ZM200.281 77.3605H201.342V76.4637C201.342 74.4609 202.404 73.6239 204.003 73.6239C204.287 73.6239 204.631 73.6388 204.944 73.6986V75.253H204.302C203.375 75.253 203.151 75.7313 203.151 76.4637V77.3605H204.915V78.8851H203.151V84.7441H201.342V78.8851H200.281V77.3605ZM209.163 84.9384C206.966 84.9384 205.426 83.3392 205.426 81.0523C205.426 78.7356 206.936 77.1363 209.103 77.1363C211.315 77.1363 212.72 78.616 212.72 80.9178V81.4708L207.16 81.4858C207.294 82.7861 207.982 83.4438 209.193 83.4438C210.194 83.4438 210.852 83.0552 211.061 82.3527H212.75C212.436 83.9669 211.091 84.9384 209.163 84.9384ZM209.118 78.631C208.042 78.631 207.384 79.2139 207.205 80.3199H210.911C210.911 79.3036 210.209 78.631 209.118 78.631ZM213.746 81.0374C213.746 78.7505 215.256 77.1363 217.438 77.1363C219.456 77.1363 220.831 78.2573 221.025 80.036H219.201C218.992 79.1989 218.379 78.7655 217.512 78.7655C216.347 78.7655 215.569 79.6473 215.569 81.0374C215.569 82.4274 216.287 83.2943 217.453 83.2943C218.364 83.2943 219.007 82.8459 219.201 82.0388H221.04C220.816 83.7577 219.381 84.9384 217.453 84.9384C215.211 84.9384 213.746 83.384 213.746 81.0374ZM224.908 84.7441H223.085V78.8851H221.665V77.3605H223.085V75.0587H224.908V77.3605H226.343V78.8851H224.908V84.7441ZM42.6509 102.744H40.7378V91.8182H44.9079C47.389 91.8182 48.8388 93.0737 48.8388 95.226C48.8388 96.6908 48.1513 97.737 46.8659 98.2602L48.9435 102.744H46.8509L44.9976 98.6637H42.6509V102.744ZM42.6509 93.5221V96.9747H44.9079C46.1186 96.9747 46.836 96.332 46.836 95.226C46.836 94.1349 46.1186 93.5221 44.9079 93.5221H42.6509ZM53.2595 102.938C51.0624 102.938 49.5229 101.339 49.5229 99.0523C49.5229 96.7356 51.0325 95.1363 53.1998 95.1363C55.4119 95.1363 56.8168 96.616 56.8168 98.9178V99.4708L51.2567 99.4858C51.3912 100.786 52.0788 101.444 53.2894 101.444C54.2909 101.444 54.9485 101.055 55.1578 100.353H56.8467C56.5329 101.967 55.1877 102.938 53.2595 102.938ZM53.2147 96.631C52.1385 96.631 51.4809 97.2139 51.3015 98.3199H55.0083C55.0083 97.3036 54.3058 96.631 53.2147 96.631ZM57.7083 100.502H59.4421C59.457 101.145 59.9353 101.548 60.7723 101.548C61.6243 101.548 62.0876 101.205 62.0876 100.667C62.0876 100.293 61.8933 100.024 61.2357 99.8744L59.9054 99.5605C58.5752 99.2616 57.9325 98.6338 57.9325 97.453C57.9325 96.0032 59.1581 95.1363 60.862 95.1363C62.5211 95.1363 63.6421 96.0929 63.657 97.5278H61.9232C61.9083 96.9 61.4898 96.4965 60.7873 96.4965C60.0698 96.4965 59.6513 96.8253 59.6513 97.3783C59.6513 97.7968 59.9801 98.0658 60.6079 98.2153L61.9382 98.5292C63.1787 98.8132 63.8065 99.3812 63.8065 100.517C63.8065 102.012 62.536 102.938 60.7125 102.938C58.8741 102.938 57.7083 101.952 57.7083 100.502ZM67.7059 102.744H65.8824V96.8851H64.4625V95.3605H65.8824V93.0587H67.7059V95.3605H69.1408V96.8851H67.7059V102.744ZM72.4278 102.938C70.8584 102.938 69.9018 102.027 69.9018 100.637C69.9018 99.2765 70.8883 98.4246 72.637 98.29L74.8491 98.1256V97.9612C74.8491 96.9598 74.2513 96.5562 73.3246 96.5562C72.2484 96.5562 71.6505 97.0046 71.6505 97.7819H70.0961C70.0961 96.1826 71.4114 95.1363 73.4142 95.1363C75.4021 95.1363 76.6278 96.2125 76.6278 98.2602V102.744H75.0285L74.894 101.653C74.5801 102.415 73.5787 102.938 72.4278 102.938ZM73.0256 101.563C74.1466 101.563 74.8641 100.891 74.8641 99.7548V99.3662L73.3246 99.4858C72.1886 99.5904 71.7552 99.9641 71.7552 100.562C71.7552 101.235 72.2036 101.563 73.0256 101.563ZM83.4263 95.3605H85.2497V102.744H83.5608L83.4263 101.758C82.9779 102.46 82.0213 102.938 81.0348 102.938C79.3309 102.938 78.3295 101.788 78.3295 99.979V95.3605H80.1529V99.3363C80.1529 100.741 80.706 101.309 81.7223 101.309C82.8732 101.309 83.4263 100.637 83.4263 99.2317V95.3605ZM91.7666 95.3306V97.0196H91.094C89.7787 97.0196 88.9566 97.7221 88.9566 99.157V102.744H87.1331V95.3755H88.852L88.9566 96.4516C89.2705 95.7192 89.973 95.226 90.9595 95.226C91.2136 95.226 91.4677 95.2559 91.7666 95.3306ZM94.9061 102.938C93.3367 102.938 92.3801 102.027 92.3801 100.637C92.3801 99.2765 93.3666 98.4246 95.1153 98.29L97.3274 98.1256V97.9612C97.3274 96.9598 96.7296 96.5562 95.8029 96.5562C94.7267 96.5562 94.1289 97.0046 94.1289 97.7819H92.5744C92.5744 96.1826 93.8897 95.1363 95.8926 95.1363C97.8805 95.1363 99.1061 96.2125 99.1061 98.2602V102.744H97.5068L97.3723 101.653C97.0584 102.415 96.057 102.938 94.9061 102.938ZM95.5039 101.563C96.6249 101.563 97.3424 100.891 97.3424 99.7548V99.3662L95.8029 99.4858C94.6669 99.5904 94.2335 99.9641 94.2335 100.562C94.2335 101.235 94.6819 101.563 95.5039 101.563ZM102.721 102.744H100.897V95.3605H102.586L102.736 96.3171C103.199 95.5698 104.096 95.1363 105.097 95.1363C106.951 95.1363 107.907 96.2872 107.907 98.2004V102.744H106.084V98.6338C106.084 97.3933 105.471 96.7954 104.529 96.7954C103.408 96.7954 102.721 97.5726 102.721 98.7683V102.744ZM112.21 102.744H110.387V96.8851H108.967V95.3605H110.387V93.0587H112.21V95.3605H113.645V96.8851H112.21V102.744ZM116.154 97.4829C115.496 97.4829 114.943 96.9449 114.943 96.3021C114.943 95.6445 115.496 95.1064 116.154 95.1064C116.811 95.1064 117.364 95.6445 117.364 96.3021C117.364 96.9449 116.811 97.4829 116.154 97.4829ZM116.154 102.924C115.496 102.924 114.943 102.385 114.943 101.743C114.943 101.085 115.496 100.547 116.154 100.547C116.811 100.547 117.364 101.085 117.364 101.743C117.364 102.385 116.811 102.924 116.154 102.924ZM122.761 93.5819V91.8182H131.072V93.5819H127.873V102.744H125.96V93.5819H122.761ZM133.177 93.8808C132.549 93.8808 132.056 93.3876 132.056 92.7747C132.056 92.1619 132.549 91.6836 133.177 91.6836C133.775 91.6836 134.268 92.1619 134.268 92.7747C134.268 93.3876 133.775 93.8808 133.177 93.8808ZM132.265 102.744V95.3605H134.088V102.744H132.265ZM135.972 106.167V95.3605H137.661L137.781 96.4815C138.229 95.6295 139.201 95.1363 140.322 95.1363C142.399 95.1363 143.775 96.6459 143.775 98.9626C143.775 101.264 142.519 102.938 140.322 102.938C139.216 102.938 138.259 102.505 137.796 101.758V106.167H135.972ZM137.811 99.0523C137.811 100.383 138.633 101.294 139.888 101.294C141.174 101.294 141.936 100.368 141.936 99.0523C141.936 97.737 141.174 96.7954 139.888 96.7954C138.633 96.7954 137.811 97.7221 137.811 99.0523ZM144.658 100.502H146.392C146.407 101.145 146.886 101.548 147.723 101.548C148.574 101.548 149.038 101.205 149.038 100.667C149.038 100.293 148.844 100.024 148.186 99.8744L146.856 99.5605C145.525 99.2616 144.883 98.6338 144.883 97.453C144.883 96.0032 146.108 95.1363 147.812 95.1363C149.471 95.1363 150.592 96.0929 150.607 97.5278H148.873C148.858 96.9 148.44 96.4965 147.737 96.4965C147.02 96.4965 146.602 96.8253 146.602 97.3783C146.602 97.7968 146.93 98.0658 147.558 98.2153L148.888 98.5292C150.129 98.8132 150.757 99.3812 150.757 100.517C150.757 102.012 149.486 102.938 147.663 102.938C145.824 102.938 144.658 101.952 144.658 100.502ZM155.441 95.3605H156.503V94.4637C156.503 92.4609 157.564 91.6239 159.163 91.6239C159.447 91.6239 159.791 91.6388 160.105 91.6986V93.253H159.462C158.535 93.253 158.311 93.7313 158.311 94.4637V95.3605H160.075V96.8851H158.311V102.744H156.503V96.8851H155.441V95.3605ZM160.586 99.0374C160.586 96.7356 162.245 95.1513 164.532 95.1513C166.819 95.1513 168.478 96.7356 168.478 99.0374C168.478 101.339 166.819 102.924 164.532 102.924C162.245 102.924 160.586 101.339 160.586 99.0374ZM162.41 99.0374C162.41 100.383 163.277 101.294 164.532 101.294C165.788 101.294 166.655 100.383 166.655 99.0374C166.655 97.6922 165.788 96.7804 164.532 96.7804C163.277 96.7804 162.41 97.6922 162.41 99.0374ZM174.557 95.3306V97.0196H173.884C172.569 97.0196 171.747 97.7221 171.747 99.157V102.744H169.923V95.3755H171.642L171.747 96.4516C172.061 95.7192 172.763 95.226 173.75 95.226C174.004 95.226 174.258 95.2559 174.557 95.3306ZM182.002 102.744H180.089V91.8182H182.002V96.332H186.845V91.8182H188.758V102.744H186.845V98.1107H182.002V102.744ZM194.216 102.938C192.019 102.938 190.479 101.339 190.479 99.0523C190.479 96.7356 191.989 95.1363 194.156 95.1363C196.368 95.1363 197.773 96.616 197.773 98.9178V99.4708L192.213 99.4858C192.348 100.786 193.035 101.444 194.246 101.444C195.247 101.444 195.905 101.055 196.114 100.353H197.803C197.489 101.967 196.144 102.938 194.216 102.938ZM194.171 96.631C193.095 96.631 192.437 97.2139 192.258 98.3199H195.965C195.965 97.3036 195.262 96.631 194.171 96.631ZM201.357 102.938C199.788 102.938 198.831 102.027 198.831 100.637C198.831 99.2765 199.817 98.4246 201.566 98.29L203.778 98.1256V97.9612C203.778 96.9598 203.18 96.5562 202.254 96.5562C201.178 96.5562 200.58 97.0046 200.58 97.7819H199.025C199.025 96.1826 200.341 95.1363 202.343 95.1363C204.331 95.1363 205.557 96.2125 205.557 98.2602V102.744H203.958L203.823 101.653C203.509 102.415 202.508 102.938 201.357 102.938ZM201.955 101.563C203.076 101.563 203.793 100.891 203.793 99.7548V99.3662L202.254 99.4858C201.118 99.5904 200.684 99.9641 200.684 100.562C200.684 101.235 201.133 101.563 201.955 101.563ZM209.187 102.744H207.378V91.6239H209.187V102.744ZM213.611 102.744H211.787V96.8851H210.367V95.3605H211.787V93.0587H213.611V95.3605H215.045V96.8851H213.611V102.744ZM218.003 102.744H216.179V91.6239H218.018V96.3171C218.481 95.5997 219.348 95.1363 220.409 95.1363C222.232 95.1363 223.189 96.2872 223.189 98.2004V102.744H221.366V98.6338C221.366 97.3933 220.753 96.7954 219.826 96.7954C218.675 96.7954 218.003 97.6025 218.003 98.7086V102.744ZM224.966 99.5605V97.9463H229.779V99.5605H224.966ZM45.3563 120.924C42.1727 120.924 40.11 118.711 40.11 115.289C40.11 111.896 42.2474 109.639 45.446 109.639C48.0317 109.639 49.9598 111.148 50.3335 113.495H48.3157C47.942 112.225 46.8509 111.477 45.4011 111.477C43.3833 111.477 42.1129 112.942 42.1129 115.274C42.1129 117.59 43.3983 119.085 45.4011 119.085C46.8808 119.085 48.0168 118.308 48.3755 117.097H50.3634C49.9449 119.399 47.942 120.924 45.3563 120.924ZM51.3766 117.037C51.3766 114.736 53.0357 113.151 55.3225 113.151C57.6094 113.151 59.2684 114.736 59.2684 117.037C59.2684 119.339 57.6094 120.924 55.3225 120.924C53.0357 120.924 51.3766 119.339 51.3766 117.037ZM53.2001 117.037C53.2001 118.383 54.067 119.294 55.3225 119.294C56.578 119.294 57.4449 118.383 57.4449 117.037C57.4449 115.692 56.578 114.78 55.3225 114.78C54.067 114.78 53.2001 115.692 53.2001 117.037ZM62.5373 120.744H60.7138V113.361H62.4028L62.5523 114.317C63.0156 113.57 63.9124 113.136 64.9138 113.136C66.7672 113.136 67.7238 114.287 67.7238 116.2V120.744H65.9003V116.634C65.9003 115.393 65.2875 114.795 64.3458 114.795C63.2248 114.795 62.5373 115.573 62.5373 116.768V120.744ZM68.8598 118.502H70.5936C70.6086 119.145 71.0869 119.548 71.9239 119.548C72.7759 119.548 73.2392 119.205 73.2392 118.667C73.2392 118.293 73.0449 118.024 72.3872 117.874L71.057 117.561C69.7267 117.262 69.084 116.634 69.084 115.453C69.084 114.003 70.3097 113.136 72.0136 113.136C73.6727 113.136 74.7936 114.093 74.8086 115.528H73.0748C73.0598 114.9 72.6413 114.496 71.9388 114.496C71.2214 114.496 70.8029 114.825 70.8029 115.378C70.8029 115.797 71.1317 116.066 71.7595 116.215L73.0897 116.529C74.3303 116.813 74.9581 117.381 74.9581 118.517C74.9581 120.012 73.6876 120.938 71.8641 120.938C70.0257 120.938 68.8598 119.952 68.8598 118.502ZM75.913 117.037C75.913 114.751 77.4226 113.136 79.6048 113.136C81.6226 113.136 82.9977 114.257 83.192 116.036H81.3685C81.1593 115.199 80.5465 114.765 79.6796 114.765C78.5137 114.765 77.7365 115.647 77.7365 117.037C77.7365 118.427 78.4539 119.294 79.6198 119.294C80.5315 119.294 81.1742 118.846 81.3685 118.039H83.207C82.9828 119.758 81.5479 120.938 79.6198 120.938C77.3778 120.938 75.913 119.384 75.913 117.037ZM85.4759 111.881C84.8482 111.881 84.3549 111.388 84.3549 110.775C84.3549 110.162 84.8482 109.684 85.4759 109.684C86.0738 109.684 86.567 110.162 86.567 110.775C86.567 111.388 86.0738 111.881 85.4759 111.881ZM84.5642 120.744V113.361H86.3877V120.744H84.5642ZM87.8382 117.037C87.8382 114.736 89.4973 113.151 91.7841 113.151C94.0709 113.151 95.73 114.736 95.73 117.037C95.73 119.339 94.0709 120.924 91.7841 120.924C89.4973 120.924 87.8382 119.339 87.8382 117.037ZM89.6617 117.037C89.6617 118.383 90.5286 119.294 91.7841 119.294C93.0396 119.294 93.9065 118.383 93.9065 117.037C93.9065 115.692 93.0396 114.78 91.7841 114.78C90.5286 114.78 89.6617 115.692 89.6617 117.037ZM102.007 113.361H103.831V120.744H102.142L102.007 119.758C101.559 120.46 100.602 120.938 99.6159 120.938C97.912 120.938 96.9106 119.788 96.9106 117.979V113.361H98.734V117.336C98.734 118.741 99.2871 119.309 100.303 119.309C101.454 119.309 102.007 118.637 102.007 117.232V113.361ZM105 118.502H106.734C106.749 119.145 107.227 119.548 108.064 119.548C108.916 119.548 109.38 119.205 109.38 118.667C109.38 118.293 109.185 118.024 108.528 117.874L107.197 117.561C105.867 117.262 105.224 116.634 105.224 115.453C105.224 114.003 106.45 113.136 108.154 113.136C109.813 113.136 110.934 114.093 110.949 115.528H109.215C109.2 114.9 108.782 114.496 108.079 114.496C107.362 114.496 106.943 114.825 106.943 115.378C106.943 115.797 107.272 116.066 107.9 116.215L109.23 116.529C110.471 116.813 111.099 117.381 111.099 118.517C111.099 120.012 109.828 120.938 108.005 120.938C106.166 120.938 105 119.952 105 118.502ZM120.716 120.744H116.785V109.818H120.611C123.839 109.818 126.066 112.045 126.066 115.304C126.066 118.517 123.884 120.744 120.716 120.744ZM120.432 111.582H118.698V118.98H120.536C122.718 118.98 124.049 117.575 124.049 115.304C124.049 112.987 122.688 111.582 120.432 111.582ZM128.491 111.881C127.863 111.881 127.37 111.388 127.37 110.775C127.37 110.162 127.863 109.684 128.491 109.684C129.089 109.684 129.582 110.162 129.582 110.775C129.582 111.388 129.089 111.881 128.491 111.881ZM127.58 120.744V113.361H129.403V120.744H127.58ZM133.11 120.744H131.287V113.361H132.976L133.125 114.317C133.589 113.57 134.486 113.136 135.487 113.136C137.34 113.136 138.297 114.287 138.297 116.2V120.744H136.473V116.634C136.473 115.393 135.861 114.795 134.919 114.795C133.798 114.795 133.11 115.573 133.11 116.768V120.744ZM143.392 120.938C141.195 120.938 139.655 119.339 139.655 117.052C139.655 114.736 141.165 113.136 143.332 113.136C145.544 113.136 146.949 114.616 146.949 116.918V117.471L141.389 117.486C141.523 118.786 142.211 119.444 143.422 119.444C144.423 119.444 145.081 119.055 145.29 118.353H146.979C146.665 119.967 145.32 120.938 143.392 120.938ZM143.347 114.631C142.271 114.631 141.613 115.214 141.434 116.32H145.14C145.14 115.304 144.438 114.631 143.347 114.631ZM153.042 113.331V115.02H152.369C151.054 115.02 150.232 115.722 150.232 117.157V120.744H148.408V113.375H150.127L150.232 114.452C150.546 113.719 151.248 113.226 152.235 113.226C152.489 113.226 152.743 113.256 153.042 113.331ZM153.708 118.502H155.442C155.457 119.145 155.935 119.548 156.772 119.548C157.624 119.548 158.088 119.205 158.088 118.667C158.088 118.293 157.893 118.024 157.236 117.874L155.905 117.561C154.575 117.262 153.932 116.634 153.932 115.453C153.932 114.003 155.158 113.136 156.862 113.136C158.521 113.136 159.642 114.093 159.657 115.528H157.923C157.908 114.9 157.49 114.496 156.787 114.496C156.07 114.496 155.651 114.825 155.651 115.378C155.651 115.797 155.98 116.066 156.608 116.215L157.938 116.529C159.179 116.813 159.806 117.381 159.806 118.517C159.806 120.012 158.536 120.938 156.712 120.938C154.874 120.938 153.708 119.952 153.708 118.502Z" fill="#0C2503"/>
<path d="M41.4564 143.961H40.4175V136.297H41.4564L45.3786 142.222V136.297H46.4174V143.961H45.3786L41.4564 138.035V143.961ZM51.6156 138.777H52.6014V143.961H51.711L51.605 143.177C51.3082 143.717 50.6192 144.088 49.8559 144.088C48.6475 144.088 47.969 143.272 47.969 142V138.777H48.9655V141.671C48.9655 142.784 49.4425 143.208 50.2057 143.208C51.1174 143.208 51.6156 142.625 51.6156 141.512V138.777ZM55.51 143.961H54.5136V139.615H53.4959V138.777H54.5136V137.155H55.51V138.777H56.5277V139.615H55.51V143.961ZM60.39 138.735V139.647H59.9448C59.0014 139.647 58.4184 140.219 58.4184 141.215V143.961H57.4219V138.788H58.3548L58.4184 139.572C58.6304 139.032 59.1498 138.671 59.86 138.671C60.0402 138.671 60.1886 138.693 60.39 138.735ZM61.8122 137.548C61.4518 137.548 61.155 137.251 61.155 136.89C61.155 136.519 61.4518 136.233 61.8122 136.233C62.1727 136.233 62.4695 136.519 62.4695 136.89C62.4695 137.251 62.1727 137.548 61.8122 137.548ZM61.3246 143.961V138.777H62.3211V143.961H61.3246ZM65.2306 143.961H64.2341V139.615H63.2165V138.777H64.2341V137.155H65.2306V138.777H66.2482V139.615H65.2306V143.961ZM67.6301 137.548C67.2697 137.548 66.9728 137.251 66.9728 136.89C66.9728 136.519 67.2697 136.233 67.6301 136.233C67.9905 136.233 68.2873 136.519 68.2873 136.89C68.2873 137.251 67.9905 137.548 67.6301 137.548ZM67.1424 143.961V138.777H68.1389V143.961H67.1424ZM69.2463 141.364C69.2463 139.763 70.3912 138.64 71.9494 138.64C73.4971 138.64 74.6419 139.763 74.6419 141.364C74.6419 142.964 73.4971 144.088 71.9494 144.088C70.3912 144.088 69.2463 142.964 69.2463 141.364ZM70.2533 141.364C70.2533 142.445 70.9424 143.198 71.9494 143.198C72.9459 143.198 73.6455 142.445 73.6455 141.364C73.6455 140.283 72.9459 139.53 71.9494 139.53C70.9424 139.53 70.2533 140.283 70.2533 141.364ZM79.2037 138.777H80.1895V143.961H79.2991L79.1931 143.177C78.8963 143.717 78.2073 144.088 77.444 144.088C76.2356 144.088 75.5571 143.272 75.5571 142V138.777H76.5536V141.671C76.5536 142.784 77.0306 143.208 77.7938 143.208C78.7055 143.208 79.2037 142.625 79.2037 141.512V138.777ZM81.1077 142.456H82.0618C82.0618 142.986 82.4646 143.304 83.1218 143.304C83.8214 143.304 84.2243 143.017 84.2243 142.54C84.2243 142.191 84.0546 141.979 83.514 141.841L82.6024 141.629C81.6801 141.406 81.2455 140.95 81.2455 140.187C81.2455 139.233 82.0512 138.629 83.196 138.629C84.3303 138.629 85.0723 139.265 85.0935 140.251H84.1394C84.1182 139.731 83.7684 139.403 83.1642 139.403C82.5388 139.403 82.189 139.678 82.189 140.155C82.189 140.505 82.4434 140.738 82.9522 140.866L83.8638 141.088C84.7437 141.3 85.1783 141.703 85.1783 142.477C85.1783 143.463 84.3303 144.088 83.1006 144.088C81.8816 144.088 81.1077 143.442 81.1077 142.456ZM90.0829 143.961H89.1819V136.159H90.1783V139.668C90.5175 138.989 91.2172 138.629 92.0652 138.629C93.5493 138.629 94.4397 139.795 94.4397 141.396C94.4397 142.964 93.5069 144.088 92.0016 144.088C91.1854 144.088 90.4963 143.728 90.1571 143.017L90.0829 143.961ZM90.1889 141.353C90.1889 142.434 90.8037 143.187 91.8214 143.187C92.839 143.187 93.4433 142.424 93.4433 141.353C93.4433 140.293 92.839 139.53 91.8214 139.53C90.8037 139.53 90.1889 140.293 90.1889 141.353ZM97.7747 144.088C96.2482 144.088 95.1988 142.986 95.1988 141.374C95.1988 139.753 96.227 138.629 97.7323 138.629C99.2058 138.629 100.17 139.647 100.17 141.184V141.555L96.1634 141.565C96.2376 142.657 96.8101 143.261 97.7959 143.261C98.5697 143.261 99.0786 142.943 99.2482 142.35H100.181C99.9266 143.463 99.0574 144.088 97.7747 144.088ZM97.7323 139.466C96.8631 139.466 96.3118 139.986 96.1846 140.897H99.174C99.174 140.039 98.6121 139.466 97.7323 139.466ZM102.747 144.088C101.634 144.088 100.977 143.463 100.977 142.519C100.977 141.565 101.687 140.972 102.906 140.876L104.539 140.749V140.601C104.539 139.731 104.02 139.424 103.32 139.424C102.482 139.424 102.005 139.795 102.005 140.42H101.136C101.136 139.339 102.027 138.629 103.362 138.629C104.645 138.629 105.514 139.307 105.514 140.707V143.961H104.666L104.56 143.124C104.295 143.717 103.585 144.088 102.747 144.088ZM103.034 143.314C103.977 143.314 104.55 142.699 104.55 141.724V141.449L103.224 141.555C102.345 141.639 101.984 141.979 101.984 142.487C101.984 143.039 102.387 143.314 103.034 143.314ZM107.891 143.961H106.894V138.777H107.795L107.901 139.572C108.23 138.979 108.887 138.629 109.618 138.629C110.986 138.629 111.611 139.466 111.611 140.791V143.961H110.615V141.014C110.615 139.965 110.127 139.541 109.364 139.541C108.431 139.541 107.891 140.208 107.891 141.215V143.961ZM115.551 141.374C115.551 139.753 116.579 138.629 118.095 138.629C119.399 138.629 120.31 139.371 120.491 140.526H119.494C119.325 139.869 118.795 139.519 118.127 139.519C117.183 139.519 116.537 140.24 116.537 141.364C116.537 142.477 117.141 143.198 118.084 143.198C118.795 143.198 119.325 142.827 119.505 142.212H120.501C120.3 143.336 119.335 144.088 118.084 144.088C116.558 144.088 115.551 143.007 115.551 141.374ZM123.068 144.088C121.955 144.088 121.298 143.463 121.298 142.519C121.298 141.565 122.008 140.972 123.227 140.876L124.86 140.749V140.601C124.86 139.731 124.341 139.424 123.641 139.424C122.803 139.424 122.326 139.795 122.326 140.42H121.457C121.457 139.339 122.348 138.629 123.683 138.629C124.966 138.629 125.835 139.307 125.835 140.707V143.961H124.987L124.881 143.124C124.616 143.717 123.906 144.088 123.068 144.088ZM123.355 143.314C124.298 143.314 124.871 142.699 124.871 141.724V141.449L123.545 141.555C122.666 141.639 122.305 141.979 122.305 142.487C122.305 143.039 122.708 143.314 123.355 143.314ZM128.233 143.961H127.236V136.159H128.233V141.215L130.533 138.777H131.784L129.802 140.844L131.773 143.961H130.628L129.113 141.565L128.233 142.487V143.961ZM134.638 144.088C133.112 144.088 132.062 142.986 132.062 141.374C132.062 139.753 133.091 138.629 134.596 138.629C136.069 138.629 137.034 139.647 137.034 141.184V141.555L133.027 141.565C133.101 142.657 133.674 143.261 134.659 143.261C135.433 143.261 135.942 142.943 136.112 142.35H137.044C136.79 143.463 135.921 144.088 134.638 144.088ZM134.596 139.466C133.727 139.466 133.175 139.986 133.048 140.897H136.037C136.037 140.039 135.476 139.466 134.596 139.466ZM142.042 143.95H141.045V136.159H142.042V139.572C142.37 139.011 142.996 138.629 143.802 138.629C145.127 138.629 145.763 139.466 145.763 140.791V143.961H144.766V141.014C144.766 139.965 144.268 139.541 143.526 139.541C142.561 139.541 142.042 140.24 142.042 141.131V143.95ZM147.63 137.548C147.27 137.548 146.973 137.251 146.973 136.89C146.973 136.519 147.27 136.233 147.63 136.233C147.991 136.233 148.288 136.519 148.288 136.89C148.288 137.251 147.991 137.548 147.63 137.548ZM147.143 143.961V138.777H148.139V143.961H147.143ZM149.257 141.237C149.257 139.774 150.201 138.629 151.706 138.629C152.543 138.629 153.19 139.011 153.519 139.657L153.593 138.777H154.483V143.749C154.483 145.381 153.476 146.42 151.886 146.42C150.476 146.42 149.512 145.625 149.321 144.311H150.317C150.444 145.074 151.017 145.519 151.886 145.519C152.861 145.519 153.497 144.883 153.497 143.897V142.858C153.158 143.463 152.48 143.823 151.664 143.823C150.19 143.823 149.257 142.689 149.257 141.237ZM150.254 141.215C150.254 142.191 150.858 142.954 151.833 142.954C152.84 142.954 153.455 142.233 153.455 141.215C153.455 140.219 152.861 139.498 151.844 139.498C150.847 139.498 150.254 140.261 150.254 141.215ZM156.918 143.95H155.921V136.159H156.918V139.572C157.246 139.011 157.872 138.629 158.677 138.629C160.002 138.629 160.638 139.466 160.638 140.791V143.961H159.642V141.014C159.642 139.965 159.144 139.541 158.402 139.541C157.437 139.541 156.918 140.24 156.918 141.131V143.95ZM165.405 137.548C165.044 137.548 164.748 137.251 164.748 136.89C164.748 136.519 165.044 136.233 165.405 136.233C165.765 136.233 166.062 136.519 166.062 136.89C166.062 137.251 165.765 137.548 165.405 137.548ZM164.917 143.961V138.777H165.914V143.961H164.917ZM168.357 143.961H167.36V138.777H168.261L168.367 139.572C168.696 138.979 169.353 138.629 170.085 138.629C171.452 138.629 172.077 139.466 172.077 140.791V143.961H171.081V141.014C171.081 139.965 170.593 139.541 169.83 139.541C168.897 139.541 168.357 140.208 168.357 141.215V143.961ZM176.356 146.282V138.777H177.257L177.331 139.71C177.681 139 178.381 138.629 179.208 138.629C180.692 138.629 181.614 139.742 181.614 141.332C181.614 142.911 180.745 144.099 179.208 144.099C178.381 144.099 177.692 143.749 177.353 143.113V146.282H176.356ZM177.363 141.374C177.363 142.434 177.978 143.198 178.996 143.198C180.013 143.198 180.617 142.434 180.617 141.374C180.617 140.304 180.013 139.541 178.996 139.541C177.978 139.541 177.363 140.293 177.363 141.374ZM185.68 138.735V139.647H185.235C184.292 139.647 183.709 140.219 183.709 141.215V143.961H182.712V138.788H183.645L183.709 139.572C183.921 139.032 184.44 138.671 185.15 138.671C185.331 138.671 185.479 138.693 185.68 138.735ZM186.089 141.364C186.089 139.763 187.234 138.64 188.793 138.64C190.34 138.64 191.485 139.763 191.485 141.364C191.485 142.964 190.34 144.088 188.793 144.088C187.234 144.088 186.089 142.964 186.089 141.364ZM187.096 141.364C187.096 142.445 187.785 143.198 188.793 143.198C189.789 143.198 190.489 142.445 190.489 141.364C190.489 140.283 189.789 139.53 188.793 139.53C187.785 139.53 187.096 140.283 187.096 141.364ZM193.999 143.961H193.003V139.615H191.985V138.777H193.003V137.155H193.999V138.777H195.017V139.615H193.999V143.961ZM198.096 144.088C196.57 144.088 195.52 142.986 195.52 141.374C195.52 139.753 196.548 138.629 198.054 138.629C199.527 138.629 200.492 139.647 200.492 141.184V141.555L196.485 141.565C196.559 142.657 197.131 143.261 198.117 143.261C198.891 143.261 199.4 142.943 199.569 142.35H200.502C200.248 143.463 199.379 144.088 198.096 144.088ZM198.054 139.466C197.184 139.466 196.633 139.986 196.506 140.897H199.495C199.495 140.039 198.933 139.466 198.054 139.466ZM202.092 137.548C201.732 137.548 201.435 137.251 201.435 136.89C201.435 136.519 201.732 136.233 202.092 136.233C202.453 136.233 202.75 136.519 202.75 136.89C202.75 137.251 202.453 137.548 202.092 137.548ZM201.605 143.961V138.777H202.601V143.961H201.605ZM205.044 143.961H204.048V138.777H204.949L205.055 139.572C205.383 138.979 206.041 138.629 206.772 138.629C208.14 138.629 208.765 139.466 208.765 140.791V143.961H207.768V141.014C207.768 139.965 207.281 139.541 206.518 139.541C205.585 139.541 205.044 140.208 205.044 141.215V143.961ZM214.559 144.088C213.446 144.088 212.789 143.463 212.789 142.519C212.789 141.565 213.499 140.972 214.719 140.876L216.351 140.749V140.601C216.351 139.731 215.832 139.424 215.132 139.424C214.294 139.424 213.817 139.795 213.817 140.42H212.948C212.948 139.339 213.839 138.629 215.174 138.629C216.457 138.629 217.326 139.307 217.326 140.707V143.961H216.478L216.372 143.124C216.107 143.717 215.397 144.088 214.559 144.088ZM214.846 143.314C215.789 143.314 216.362 142.699 216.362 141.724V141.449L215.037 141.555C214.157 141.639 213.796 141.979 213.796 142.487C213.796 143.039 214.199 143.314 214.846 143.314ZM219.703 143.961H218.706V138.777H219.607L219.713 139.572C220.042 138.979 220.699 138.629 221.43 138.629C222.798 138.629 223.423 139.466 223.423 140.791V143.961H222.427V141.014C222.427 139.965 221.939 139.541 221.176 139.541C220.243 139.541 219.703 140.208 219.703 141.215V143.961ZM226.881 144.088C225.376 144.088 224.464 142.964 224.464 141.385C224.464 139.795 225.387 138.629 226.924 138.629C227.719 138.629 228.386 138.979 228.736 139.615V136.159H229.722V143.961H228.832L228.747 143.017C228.408 143.728 227.708 144.088 226.881 144.088ZM227.083 143.187C228.1 143.187 228.726 142.434 228.726 141.353C228.726 140.293 228.1 139.53 227.083 139.53C226.065 139.53 225.471 140.293 225.471 141.353C225.471 142.424 226.065 143.187 227.083 143.187ZM43.7567 157.961V153.615H41.4564V157.961H40.4599V153.615H39.6967V152.777H40.4599V151.95C40.4599 150.678 41.149 150.159 42.05 150.159C42.2408 150.159 42.474 150.17 42.6648 150.201V151.06H42.2196C41.6154 151.06 41.4564 151.389 41.4564 151.95V152.777H44.7531V157.961H43.7567ZM44.2549 151.505C43.8945 151.505 43.6189 151.23 43.6189 150.869C43.6189 150.509 43.8945 150.233 44.2549 150.233C44.6047 150.233 44.8803 150.509 44.8803 150.869C44.8803 151.23 44.6047 151.505 44.2549 151.505ZM47.0703 157.961H46.1693V150.159H47.1657V153.668C47.5049 152.989 48.2046 152.629 49.0526 152.629C50.5367 152.629 51.4271 153.795 51.4271 155.396C51.4271 156.964 50.4943 158.088 48.989 158.088C48.1728 158.088 47.4837 157.728 47.1445 157.017L47.0703 157.961ZM47.1763 155.353C47.1763 156.434 47.7911 157.187 48.8088 157.187C49.8264 157.187 50.4307 156.424 50.4307 155.353C50.4307 154.293 49.8264 153.53 48.8088 153.53C47.7911 153.53 47.1763 154.293 47.1763 155.353ZM54.7621 158.088C53.2356 158.088 52.1862 156.986 52.1862 155.374C52.1862 153.753 53.2144 152.629 54.7197 152.629C56.1932 152.629 57.1578 153.647 57.1578 155.184V155.555L53.1508 155.565C53.225 156.657 53.7975 157.261 54.7833 157.261C55.5571 157.261 56.066 156.943 56.2356 156.35H57.1684C56.914 157.463 56.0448 158.088 54.7621 158.088ZM54.7197 153.466C53.8505 153.466 53.2992 153.986 53.172 154.897H56.1614C56.1614 154.039 55.5995 153.466 54.7197 153.466ZM61.2389 152.735V153.647H60.7937C59.8502 153.647 59.2672 154.219 59.2672 155.215V157.961H58.2708V152.788H59.2036L59.2672 153.572C59.4792 153.032 59.9986 152.671 60.7089 152.671C60.8891 152.671 61.0375 152.693 61.2389 152.735ZM62.077 158.088C61.6636 158.088 61.3138 157.749 61.3138 157.346C61.3138 156.933 61.6636 156.593 62.077 156.593C62.4798 156.593 62.8296 156.933 62.8296 157.346C62.8296 157.749 62.4798 158.088 62.077 158.088Z" fill="#7B7B7B"/>
<path d="M39.2992 37.4599C39.2992 39.9288 37.6755 41.6637 35.34 41.6637C33.0157 41.6637 31.4142 39.9399 31.4142 37.4599C31.4142 34.991 33.0268 33.256 35.3511 33.256C37.6755 33.256 39.2992 34.9798 39.2992 37.4599ZM37.7978 37.4599C37.7978 35.725 36.8414 34.624 35.3511 34.624C33.8609 34.624 32.9045 35.725 32.9045 37.4599C32.9045 39.1948 33.8609 40.2958 35.3511 40.2958C36.8414 40.2958 37.7978 39.1726 37.7978 37.4599ZM42.2923 41.5303H40.9355V37.1707H39.879V36.0364H40.9355V34.3237H42.2923V36.0364H43.3599V37.1707H42.2923V41.5303ZM45.5602 41.5303H44.2034V33.256H45.5713V36.7481C45.9161 36.2143 46.5611 35.8695 47.3508 35.8695C48.7075 35.8695 49.4193 36.7259 49.4193 38.1494V41.5303H48.0625V38.4719C48.0625 37.5489 47.6065 37.104 46.917 37.104C46.0607 37.104 45.5602 37.7045 45.5602 38.5275V41.5303ZM53.2102 41.6749C51.5754 41.6749 50.4299 40.4849 50.4299 38.7833C50.4299 37.0595 51.5531 35.8695 53.1657 35.8695C54.8117 35.8695 55.8571 36.9705 55.8571 38.6832V39.0947L51.7199 39.1058C51.82 40.0734 52.3316 40.5627 53.2324 40.5627C53.9776 40.5627 54.4669 40.2736 54.6226 39.7509H55.8793C55.6458 40.952 54.6448 41.6749 53.2102 41.6749ZM53.1768 36.9817C52.3761 36.9817 51.8868 37.4154 51.7533 38.2384H54.5114C54.5114 37.4821 53.9887 36.9817 53.1768 36.9817ZM60.3906 36.0141V37.2708H59.8901C58.9114 37.2708 58.2998 37.7935 58.2998 38.8612V41.5303H56.943V36.0475H58.2219L58.2998 36.8482C58.5333 36.3033 59.056 35.9363 59.79 35.9363C59.9791 35.9363 60.1681 35.9585 60.3906 36.0141ZM60.8863 39.8621H62.1764C62.1875 40.3403 62.5434 40.6406 63.1662 40.6406C63.8001 40.6406 64.1449 40.3848 64.1449 39.9844C64.1449 39.7064 64.0003 39.5062 63.5109 39.395L62.5211 39.1614C61.5314 38.939 61.0531 38.4719 61.0531 37.5933C61.0531 36.5146 61.9651 35.8695 63.2329 35.8695C64.4674 35.8695 65.3015 36.5813 65.3126 37.6489H64.0225C64.0114 37.1818 63.7 36.8816 63.1773 36.8816C62.6435 36.8816 62.3321 37.1262 62.3321 37.5377C62.3321 37.8491 62.5768 38.0493 63.0438 38.1605L64.0336 38.3941C64.9567 38.6054 65.4238 39.028 65.4238 39.8732C65.4238 40.9853 64.4785 41.6749 63.1217 41.6749C61.7538 41.6749 60.8863 40.9408 60.8863 39.8621Z" fill="#6D53E7"/>
</g>
<path d="M17.768 194.232C17.4904 192.215 18.9005 190.355 20.9176 190.077L45.1328 186.745C47.1499 186.467 49.01 187.878 49.2876 189.895L51.9061 208.922C52.1837 210.939 50.7736 212.799 48.7565 213.077L24.5413 216.41C22.5243 216.687 20.6641 215.277 20.3865 213.26L17.768 194.232Z" fill="#0C2503"/>
<path d="M42.057 196.746C42.1217 196.114 41.661 195.548 41.028 195.483L30.713 194.429C30.0801 194.365 29.5145 194.825 29.4498 195.458C29.3851 196.091 29.8458 196.657 30.4788 196.722L39.6477 197.658L38.7109 206.827C38.6462 207.46 39.1069 208.026 39.7399 208.09C40.3728 208.155 40.9384 207.694 41.0031 207.061L42.057 196.746ZM28.0354 205.632C27.5421 206.034 27.468 206.759 27.8698 207.253C28.2717 207.746 28.9973 207.82 29.4907 207.418L28.0354 205.632ZM40.1833 195.736L28.0354 205.632L29.4907 207.418L41.6385 197.523L40.1833 195.736Z" fill="#EDFAE7"/>
<path d="M69.1921 201.424C69.1921 203.943 67.5353 205.713 65.1521 205.713C62.7803 205.713 61.1462 203.954 61.1462 201.424C61.1462 198.904 62.7917 197.134 65.1635 197.134C67.5353 197.134 69.1921 198.893 69.1921 201.424ZM67.6601 201.424C67.6601 199.653 66.6841 198.53 65.1635 198.53C63.6428 198.53 62.6669 199.653 62.6669 201.424C62.6669 203.194 63.6428 204.317 65.1635 204.317C66.6841 204.317 67.6601 203.171 67.6601 201.424ZM70.3398 208.176V199.971H71.6221L71.7129 200.822C72.0534 200.175 72.791 199.801 73.6421 199.801C75.2195 199.801 76.2636 200.947 76.2636 202.706C76.2636 204.454 75.3103 205.725 73.6421 205.725C72.8024 205.725 72.0761 205.396 71.7243 204.828V208.176H70.3398ZM71.7356 202.774C71.7356 203.784 72.3598 204.476 73.313 204.476C74.289 204.476 74.8677 203.773 74.8677 202.774C74.8677 201.775 74.289 201.061 73.313 201.061C72.3598 201.061 71.7356 201.764 71.7356 202.774ZM79.8739 205.725C78.2057 205.725 77.0369 204.51 77.0369 202.774C77.0369 201.015 78.183 199.801 79.8285 199.801C81.5081 199.801 82.5748 200.924 82.5748 202.672V203.092L78.3533 203.103C78.4554 204.091 78.9774 204.59 79.8966 204.59C80.657 204.59 81.1563 204.295 81.3151 203.761H82.5975C82.3592 204.987 81.3378 205.725 79.8739 205.725ZM79.8399 200.936C79.0228 200.936 78.5235 201.378 78.3873 202.218H81.2017C81.2017 201.446 80.6683 200.936 79.8399 200.936ZM85.0673 205.577H83.6829V199.971H84.9652L85.0787 200.697C85.4305 200.13 86.1114 199.801 86.8717 199.801C88.2789 199.801 89.0052 200.675 89.0052 202.127V205.577H87.6207V202.456C87.6207 201.514 87.1554 201.061 86.4405 201.061C85.5894 201.061 85.0673 201.651 85.0673 202.559V205.577ZM93.6284 205.577V197.282H96.9308C98.5649 197.282 99.5636 198.133 99.5636 199.517C99.5636 200.436 99.155 201.095 98.372 201.424C99.2458 201.707 99.6884 202.366 99.6884 203.33C99.6884 204.749 98.7011 205.577 96.9875 205.577H93.6284ZM96.806 198.564H95.081V200.822H96.84C97.6344 200.822 98.077 200.402 98.077 199.665C98.077 198.95 97.623 198.564 96.806 198.564ZM96.9308 202.048H95.081V204.295H96.9308C97.7479 204.295 98.2018 203.898 98.2018 203.149C98.2018 202.445 97.7365 202.048 96.9308 202.048ZM102.212 205.577H100.839V197.134H102.212V205.577ZM103.335 202.763C103.335 201.015 104.595 199.812 106.331 199.812C108.067 199.812 109.327 201.015 109.327 202.763C109.327 204.51 108.067 205.713 106.331 205.713C104.595 205.713 103.335 204.51 103.335 202.763ZM104.72 202.763C104.72 203.784 105.378 204.476 106.331 204.476C107.284 204.476 107.943 203.784 107.943 202.763C107.943 201.741 107.284 201.049 106.331 201.049C105.378 201.049 104.72 201.741 104.72 202.763ZM110.107 202.649C110.107 201.015 111.173 199.79 112.773 199.79C113.613 199.79 114.271 200.141 114.601 200.743L114.68 199.971H115.962V205.293C115.962 207.166 114.839 208.335 113.023 208.335C111.412 208.335 110.311 207.416 110.141 205.918H111.525C111.616 206.644 112.172 207.075 113.023 207.075C113.976 207.075 114.589 206.474 114.589 205.543V204.613C114.237 205.135 113.545 205.464 112.739 205.464C111.151 205.464 110.107 204.272 110.107 202.649ZM111.502 202.615C111.502 203.557 112.104 204.261 113.012 204.261C113.965 204.261 114.555 203.591 114.555 202.615C114.555 201.662 113.976 201.004 113.012 201.004C112.093 201.004 111.502 201.696 111.502 202.615Z" fill="#0A0B0A"/>
<path d="M14.696 18.9582L13.3067 12.9257C13.2353 12.6154 13.3366 12.2906 13.5718 12.0759L25.5979 1.10091C26.0851 0.656294 26.8701 0.883927 27.0438 1.52021L28.6593 7.43596C28.7468 7.75667 28.6467 8.09938 28.4002 8.3225L16.148 19.4143C15.6486 19.8664 14.8472 19.6147 14.696 18.9582Z" fill="#0C2503"/>
<path d="M13.7247 34.411L12.6397 29.6996C12.5838 29.4573 12.663 29.2037 12.8467 29.036L22.239 20.4645C22.6195 20.1173 23.2326 20.295 23.3683 20.792L24.63 25.4122C24.6984 25.6626 24.6202 25.9303 24.4277 26.1046L14.8587 34.7673C14.4686 35.1204 13.8428 34.9237 13.7247 34.411Z" fill="#0C2503"/>
<path d="M29.0333 29.1304L28.3459 26.1457C28.3106 25.9921 28.3607 25.8315 28.4771 25.7252L34.4272 20.2952C34.6682 20.0752 35.0566 20.1878 35.1426 20.5026L35.9418 23.4295C35.9852 23.5882 35.9356 23.7578 35.8137 23.8682L29.7517 29.356C29.5046 29.5797 29.1081 29.4552 29.0333 29.1304Z" fill="#0C2503"/>
</g>
</g>
<defs>
<filter id="filter0_d_2251_27420" x="0.0568645" y="0.52832" width="292.485" height="242.716" filterUnits="userSpaceOnUse" color-interpolation-filters="sRGB">
<feFlood flood-opacity="0" result="BackgroundImageFix"/>
<feColorMatrix in="SourceAlpha" type="matrix" values="0 0 0 0 0 0 0 0 0 0 0 0 0 0 0 0 0 0 127 0" result="hardAlpha"/>
<feOffset dy="3.38552"/>
<feGaussianBlur stdDeviation="1.69276"/>
<feComposite in2="hardAlpha" operator="out"/>
<feColorMatrix type="matrix" values="0 0 0 0 0 0 0 0 0 0 0 0 0 0 0 0 0 0 0.03 0"/>
<feBlend mode="normal" in2="BackgroundImageFix" result="effect1_dropShadow_2251_27420"/>
<feBlend mode="normal" in="SourceGraphic" in2="effect1_dropShadow_2251_27420" result="shape"/>
</filter>
<filter id="filter1_d_2251_27420" x="13.4826" y="19.4219" width="265.63" height="159.639" filterUnits="userSpaceOnUse" color-interpolation-filters="sRGB">
<feFlood flood-opacity="0" result="BackgroundImageFix"/>
<feColorMatrix in="SourceAlpha" type="matrix" values="0 0 0 0 0 0 0 0 0 0 0 0 0 0 0 0 0 0 127 0" result="hardAlpha"/>
<feOffset dy="3.78275"/>
<feGaussianBlur stdDeviation="1.89138"/>
<feComposite in2="hardAlpha" operator="out"/>
<feColorMatrix type="matrix" values="0 0 0 0 0 0 0 0 0 0 0 0 0 0 0 0 0 0 0.03 0"/>
<feBlend mode="normal" in2="BackgroundImageFix" result="effect1_dropShadow_2251_27420"/>
<feBlend mode="normal" in="SourceGraphic" in2="effect1_dropShadow_2251_27420" result="shape"/>
</filter>
<clipPath id="clip0_2251_27420">
<rect x="3.44238" y="0.52832" width="285.714" height="235.945" rx="27.6498" fill="white"/>
</clipPath>
</defs>
</svg>
