<svg width="34" height="34" viewBox="0 0 34 34" fill="none" xmlns="http://www.w3.org/2000/svg">
<path d="M17.8945 17.2584L33.1507 11.793" stroke="#6D53E7" stroke-width="1.23107" stroke-linecap="round"/>
<path d="M29.2466 15.8579C30.2664 15.8579 31.1048 16.6877 30.9808 17.7C30.568 21.0705 29.0308 24.2283 26.586 26.654C23.7001 29.5173 19.7861 31.1259 15.7048 31.1259C11.6235 31.1259 7.70945 29.5173 4.82356 26.654C2.37878 24.2283 0.841567 21.0705 0.428764 17.7C0.304784 16.6877 1.14316 15.8579 2.16301 15.8579L15.7048 15.8579H29.2466Z" fill="#BAADF4"/>
<path d="M1.20186 15.2664L1.17401 15.3006C0.764898 15.8029 1.12234 16.555 1.77018 16.555H30.6141C30.4299 16.555 30.2805 16.4056 30.2805 16.2213V16.081C30.2805 15.9324 30.2108 15.7924 30.0923 15.7028L29.4323 15.204C29.3331 15.1291 29.2122 15.0885 29.0879 15.0885H28.9901C28.7287 15.0885 28.5168 14.8766 28.5168 14.6152V14.0567C28.5168 13.659 28.2548 13.3088 27.8733 13.1966L27.7181 13.151C27.4286 13.0659 27.2298 12.8002 27.2298 12.4984C27.2298 12.2326 27.0749 11.9911 26.8333 11.8802L26.7025 11.8202C26.6411 11.792 26.583 11.757 26.5294 11.7159L25.7664 11.1309C25.6372 11.0318 25.5614 10.8782 25.5614 10.7154C25.5614 10.6073 25.528 10.5019 25.4657 10.4136L25.0622 9.84145C24.9568 9.69192 24.7852 9.60297 24.6023 9.60297C24.3996 9.60297 24.2126 9.49404 24.1127 9.31777L23.9526 9.03557C23.8823 8.91162 23.8454 8.77155 23.8454 8.62906C23.8454 8.43297 23.7749 8.24266 23.6476 8.0935C23.4474 7.8588 23.1326 7.75343 22.8317 7.82159L22.4361 7.9112C22.3273 7.93585 22.216 7.9483 22.1044 7.9483H21.462H20.435C20.2651 7.9483 20.1273 7.81055 20.1273 7.64063C20.1273 7.47072 19.9896 7.33297 19.8197 7.33297H19.7008C19.5513 7.33297 19.4128 7.25477 19.3356 7.12683L19.3166 7.0954C19.2281 6.94876 19.0693 6.85913 18.898 6.85913C18.7984 6.85913 18.7011 6.82869 18.6193 6.77188L18.5066 6.69372C18.3515 6.58603 18.1671 6.52832 17.9782 6.52832H16.984C16.8921 6.52832 16.8054 6.57097 16.7494 6.64377L16.5849 6.85737C16.4659 7.01192 16.2186 6.92775 16.2186 6.73268C16.2186 6.61981 16.1271 6.52832 16.0143 6.52832H14.2122C13.8987 6.52832 13.6446 6.78244 13.6446 7.09591V7.55058C13.6446 7.65019 13.5932 7.74275 13.5086 7.79542C13.3732 7.87979 13.195 7.83817 13.1109 7.70254L13.0181 7.5527C12.9334 7.41609 12.7841 7.33297 12.6234 7.33297H11.5548C11.2752 7.33297 11.0068 7.44357 10.8084 7.64063L10.617 7.83066C10.5411 7.90601 10.4385 7.9483 10.3316 7.9483C10.1079 7.9483 9.92652 8.12965 9.92652 8.35336V8.41745C9.92652 8.65439 9.73445 8.84646 9.49752 8.84646H9.44677C9.23786 8.84646 9.06851 9.01581 9.06851 9.22472C9.06851 9.43362 8.89916 9.60297 8.69026 9.60297H7.1731C6.88622 9.60297 6.63604 9.79795 6.56598 10.0761C6.49592 10.3543 6.24574 10.5493 5.95886 10.5493H5.83207C5.51192 10.5493 5.22353 10.7428 5.10218 11.0391L4.76293 11.8673C4.71465 11.9852 4.59993 12.0622 4.47256 12.0622C4.29926 12.0622 4.15878 12.2027 4.15878 12.376V12.8147C4.15878 13.1524 3.93389 13.4487 3.60868 13.5396L2.87206 13.7453C2.71964 13.7879 2.59125 13.8909 2.51669 14.0305L2.3743 14.2971C2.28438 14.4655 2.0667 14.516 1.91182 14.4045C1.78029 14.3097 1.59836 14.3301 1.49108 14.4517L1.44493 14.5039C1.38165 14.5756 1.34672 14.668 1.34672 14.7636V14.8591C1.34672 15.0075 1.29556 15.1513 1.20186 15.2664Z" fill="#D1C9F7" stroke="#D1C9F7" stroke-width="0.458642" stroke-linecap="round"/>
<path d="M30.4776 15.8579C30.8176 15.8579 31.0945 16.1337 31.0807 16.4733C30.9253 20.299 29.3254 23.9361 26.586 26.654C23.7001 29.5173 19.7861 31.1259 15.7048 31.1259C11.6235 31.1259 7.70945 29.5173 4.82356 26.654C2.08423 23.9361 0.484325 20.299 0.328902 16.4733C0.315102 16.1337 0.591991 15.8579 0.931942 15.8579L15.7048 15.8579H30.4776Z" fill="#BAADF4"/>
<path d="M11.1562 30.3246H20.3725V31.0903V33.4683H11.1569V31.0903L11.1562 30.3246Z" fill="#6D53E7"/>
</svg>
