<svg width="117" height="117" viewBox="0 0 117 117" fill="none" xmlns="http://www.w3.org/2000/svg">
<g opacity="0.5">
<path d="M37.4069 38.9383L46.3363 26.5369C46.7957 25.899 47.5631 25.558 48.3444 25.6449L88.2901 30.0835C89.9084 30.2634 90.7644 32.0904 89.8669 33.4489L81.5225 46.0797C81.0701 46.7644 80.2712 47.1368 79.4559 47.0429L38.9253 42.3748C37.2733 42.1845 36.4352 40.2878 37.4069 38.9383Z" fill="#FFC400"/>
<path d="M7.15603 62.301L14.1299 52.6156C14.4886 52.1173 15.088 51.851 15.6982 51.9188L46.8958 55.3855C48.1597 55.5259 48.8282 56.9528 48.1273 58.0138L41.6103 67.8784C41.2569 68.4132 40.633 68.704 39.9963 68.6307L8.34186 64.9849C7.05162 64.8363 6.39712 63.355 7.15603 62.301Z" fill="#FFC400"/>
<path d="M41.8829 82.1031L46.3008 75.9674C46.5281 75.6517 46.9078 75.483 47.2944 75.526L67.0582 77.7221C67.8588 77.8111 68.2824 78.715 67.8383 79.3872L63.7097 85.6365C63.4859 85.9753 63.0907 86.1595 62.6873 86.113L42.6341 83.8034C41.8167 83.7093 41.4021 82.7708 41.8829 82.1031Z" fill="#FFC400"/>
</g>
</svg>
