<svg width="142" height="154" viewBox="0 0 142 154" fill="none" xmlns="http://www.w3.org/2000/svg">
<g opacity="0.5">
<path d="M19.5515 81.7532L13.4273 55.1607C13.1122 53.7928 13.5588 52.3612 14.5957 51.4149L67.6089 3.03494C69.7565 1.07499 73.2169 2.07844 73.9828 4.88328L81.104 30.961C81.4901 32.3747 81.0487 33.8855 79.9622 34.869L25.9521 83.7637C23.7506 85.7567 20.2179 84.647 19.5515 81.7532Z" fill="#FFC400"/>
<path d="M15.2697 149.872L10.4867 129.104C10.2406 128.035 10.5894 126.917 11.3992 126.178L52.8025 88.3933C54.4799 86.8626 57.1824 87.6463 57.7806 89.8369L63.3422 110.204C63.6437 111.308 63.299 112.488 62.4505 113.256L20.2686 151.442C18.5492 152.999 15.7902 152.132 15.2697 149.872Z" fill="#FFC400"/>
<path d="M82.7535 126.595L79.7234 113.438C79.5676 112.761 79.7885 112.053 80.3015 111.584L106.531 87.6475C107.593 86.6778 109.305 87.1743 109.684 88.562L113.208 101.464C113.399 102.164 113.18 102.911 112.643 103.398L85.9203 127.589C84.8311 128.575 83.0832 128.026 82.7535 126.595Z" fill="#FFC400"/>
</g>
</svg>
