<svg width="13" height="17" viewBox="0 0 13 17" fill="none" xmlns="http://www.w3.org/2000/svg">
<path fill-rule="evenodd" clip-rule="evenodd" d="M7.3343 1.00008C7.3343 0.539844 6.9612 0.166748 6.50097 0.166748C6.04073 0.166748 5.66763 0.539844 5.66763 1.00008V1.62508H5.20312C3.34889 1.62508 1.81423 3.06676 1.69848 4.91737L1.51431 7.86191C1.44409 8.98458 1.06719 10.0665 0.424636 10.9897C-0.155932 11.8239 0.360918 12.9761 1.37003 13.0972L4.2093 13.4379V14.3334C4.2093 15.5991 5.23531 16.6251 6.50097 16.6251C7.76662 16.6251 8.79263 15.5991 8.79263 14.3334V13.4379L11.6319 13.0972C12.641 12.9761 13.1579 11.8239 12.5773 10.9897C11.9347 10.0665 11.5578 8.98458 11.4876 7.86191L11.3034 4.91737C11.1877 3.06676 9.65303 1.62508 7.79881 1.62508H7.3343V1.00008ZM5.20312 2.87508C4.00895 2.87508 3.02059 3.80356 2.94604 4.9954L2.76187 7.93994C2.67738 9.29089 2.22383 10.5928 1.45063 11.7038C1.40866 11.7641 1.44602 11.8473 1.51896 11.8561L4.63367 12.2299C5.87408 12.3787 7.12784 12.3787 8.36825 12.2299L11.483 11.8561C11.5559 11.8473 11.5933 11.7641 11.5513 11.7038C10.7781 10.5928 10.3245 9.29089 10.24 7.93994L10.0559 4.9954C9.98134 3.80356 8.99297 2.87508 7.79881 2.87508H5.20312ZM6.50097 15.3751C5.92567 15.3751 5.4593 14.9087 5.4593 14.3334V13.7084H7.54263V14.3334C7.54263 14.9087 7.07626 15.3751 6.50097 15.3751Z" fill="#4A5154"/>
</svg>
