<svg width="308" height="420" viewBox="0 0 308 420" fill="none" xmlns="http://www.w3.org/2000/svg">
<rect x="1.78263" y="1.89524" width="304.233" height="415.682" rx="22.1903" fill="#D1C9F7"/>
<rect x="1.78263" y="1.89524" width="304.233" height="415.682" rx="22.1903" stroke="#030A00" stroke-width="3.21599"/>
<g clip-path="url(#clip0_1569_4092)">
<path d="M66.5041 31.2265C66.5015 29.0281 65.5649 26.9206 63.8998 25.3661C62.2346 23.8117 59.977 22.9373 57.6222 22.9349C57.2637 22.9355 56.9056 22.956 56.5498 22.9963C55.8589 21.5169 54.7205 20.2579 53.2743 19.3737C51.8281 18.4895 50.1368 18.0185 48.4081 18.0185C46.6793 18.0185 44.9881 18.4895 43.5418 19.3737C42.0956 20.2579 40.9572 21.5169 40.2663 22.9963C39.9126 22.9562 39.5568 22.9357 39.2005 22.9349C37.1671 22.9361 35.1958 23.5886 33.6157 24.7833C32.0357 25.9781 30.9426 27.6427 30.5191 29.4993C30.0955 31.3559 30.3672 33.2919 31.2886 34.984C32.2101 36.6761 33.7256 38.0218 35.5819 38.7964V45.967C35.5819 46.5372 35.8245 47.084 36.2564 47.4871C36.6882 47.8902 37.2739 48.1167 37.8847 48.1167H58.938C59.5488 48.1167 60.1345 47.8902 60.5663 47.4871C60.9981 47.084 61.2407 46.5372 61.2407 45.967V38.7964C62.8066 38.1428 64.1366 37.0804 65.0704 35.7373C66.0043 34.3942 66.5022 32.8277 66.5041 31.2265ZM59.267 45.967C59.267 46.0485 59.2323 46.1266 59.1706 46.1842C59.109 46.2418 59.0253 46.2741 58.938 46.2741H37.8847C37.7974 46.2741 37.7137 46.2418 37.652 46.1842C37.5904 46.1266 37.5557 46.0485 37.5557 45.967V39.3737C38.098 39.4694 38.6486 39.5177 39.2005 39.518H57.6222C58.1741 39.5177 58.7247 39.4694 59.267 39.3737V45.967ZM57.6222 37.6755H54.9395L55.9478 33.9074C55.9793 33.79 55.9858 33.668 55.9668 33.5484C55.9479 33.4287 55.9038 33.3136 55.8372 33.2098C55.7706 33.106 55.6828 33.0155 55.5787 32.9434C55.4746 32.8713 55.3564 32.819 55.2307 32.7896C55.105 32.7601 54.9743 32.7541 54.8461 32.7718C54.7178 32.7895 54.5946 32.8306 54.4834 32.8928C54.3722 32.955 54.2753 33.037 54.198 33.1341C54.1208 33.2313 54.0648 33.3417 54.0333 33.459L52.9033 37.6755H49.3982V33.6832C49.3982 33.4389 49.2942 33.2046 49.1092 33.0318C48.9241 32.859 48.6731 32.7619 48.4113 32.7619C48.1496 32.7619 47.8986 32.859 47.7135 33.0318C47.5284 33.2046 47.4245 33.4389 47.4245 33.6832V37.6755H43.9194L42.7894 33.459C42.7579 33.3417 42.7019 33.2313 42.6247 33.1341C42.5474 33.037 42.4504 32.955 42.3392 32.8928C42.2281 32.8306 42.1048 32.7895 41.9766 32.7718C41.8484 32.7541 41.7177 32.7601 41.592 32.7896C41.4663 32.819 41.348 32.8713 41.244 32.9434C41.1399 33.0155 41.0521 33.106 40.9855 33.2098C40.9189 33.3136 40.8748 33.4287 40.8559 33.5484C40.8369 33.668 40.8434 33.79 40.8749 33.9074L41.8831 37.6755H39.2005C37.3683 37.6755 35.6112 36.996 34.3157 35.7866C33.0202 34.5772 32.2923 32.9368 32.2923 31.2265C32.2923 29.5161 33.0202 27.8757 34.3157 26.6663C35.6112 25.4569 37.3683 24.7774 39.2005 24.7774C39.365 24.7774 39.5294 24.7774 39.6808 24.7943C39.581 25.2952 39.5304 25.8035 39.5294 26.3129C39.5294 26.5573 39.6334 26.7916 39.8185 26.9644C40.0036 27.1371 40.2546 27.2342 40.5163 27.2342C40.7781 27.2342 41.0291 27.1371 41.2142 26.9644C41.3992 26.7916 41.5032 26.5573 41.5032 26.3129C41.5032 24.6025 42.231 22.9622 43.5265 21.7528C44.8221 20.5434 46.5792 19.8639 48.4113 19.8639C50.2435 19.8639 52.0006 20.5434 53.2961 21.7528C54.5917 22.9622 55.3195 24.6025 55.3195 26.3129C55.3195 26.5573 55.4235 26.7916 55.6085 26.9644C55.7936 27.1371 56.0446 27.2342 56.3064 27.2342C56.5681 27.2342 56.8191 27.1371 57.0042 26.9644C57.1893 26.7916 57.2932 26.5573 57.2932 26.3129C57.2923 25.8035 57.2417 25.2952 57.1419 24.7943C57.3064 24.7851 57.461 24.7774 57.6222 24.7774C59.4543 24.7774 61.2115 25.4569 62.507 26.6663C63.8025 27.8757 64.5303 29.5161 64.5303 31.2265C64.5303 32.9368 63.8025 34.5772 62.507 35.7866C61.2115 36.996 59.4543 37.6755 57.6222 37.6755Z" fill="#0C2503"/>
<path d="M57.6222 37.6755H54.9395L55.9478 33.9074C55.9793 33.79 55.9858 33.668 55.9668 33.5484C55.9479 33.4287 55.9038 33.3136 55.8372 33.2098C55.7706 33.106 55.6828 33.0155 55.5787 32.9434C55.4746 32.8713 55.3564 32.819 55.2307 32.7896C55.105 32.7601 54.9743 32.7541 54.8461 32.7718C54.7178 32.7895 54.5946 32.8306 54.4834 32.8928C54.3722 32.955 54.2753 33.037 54.198 33.1341C54.1208 33.2313 54.0648 33.3417 54.0333 33.459L52.9033 37.6755H49.3982V33.6832C49.3982 33.4389 49.2942 33.2046 49.1092 33.0318C48.9241 32.859 48.6731 32.7619 48.4113 32.7619C48.1496 32.7619 47.8986 32.859 47.7135 33.0318C47.5284 33.2046 47.4245 33.4389 47.4245 33.6832V37.6755H43.9194L42.7894 33.459C42.7579 33.3417 42.7019 33.2313 42.6247 33.1341C42.5474 33.037 42.4504 32.955 42.3392 32.8928C42.2281 32.8306 42.1048 32.7895 41.9766 32.7718C41.8484 32.7541 41.7177 32.7601 41.592 32.7896C41.4663 32.819 41.348 32.8713 41.244 32.9434C41.1399 33.0155 41.0521 33.106 40.9855 33.2098C40.9189 33.3136 40.8748 33.4287 40.8559 33.5484C40.8369 33.668 40.8434 33.79 40.8749 33.9074L41.8831 37.6755H39.2005C37.3683 37.6755 35.6112 36.996 34.3157 35.7866C33.0202 34.5772 32.2923 32.9368 32.2923 31.2265C32.2923 29.5161 33.0202 27.8757 34.3157 26.6663C35.6112 25.4569 37.3683 24.7774 39.2005 24.7774C39.365 24.7774 39.5294 24.7774 39.6808 24.7943C39.581 25.2952 39.5304 25.8035 39.5294 26.3129C39.5294 26.5573 39.6334 26.7916 39.8185 26.9644C40.0036 27.1371 40.2546 27.2342 40.5163 27.2342C40.7781 27.2342 41.0291 27.1371 41.2142 26.9644C41.3992 26.7916 41.5032 26.5573 41.5032 26.3129C41.5032 24.6025 42.231 22.9622 43.5265 21.7528C44.8221 20.5434 46.5792 19.8639 48.4113 19.8639C50.2435 19.8639 52.0006 20.5434 53.2961 21.7528C54.5917 22.9622 55.3195 24.6025 55.3195 26.3129C55.3195 26.5573 55.4235 26.7916 55.6085 26.9644C55.7936 27.1371 56.0446 27.2342 56.3064 27.2342C56.5681 27.2342 56.8191 27.1371 57.0042 26.9644C57.1893 26.7916 57.2932 26.5573 57.2932 26.3129C57.2923 25.8035 57.2417 25.2952 57.1419 24.7943C57.3064 24.7851 57.461 24.7774 57.6222 24.7774C59.4543 24.7774 61.2115 25.4569 62.507 26.6663C63.8025 27.8757 64.5303 29.5161 64.5303 31.2265C64.5303 32.9368 63.8025 34.5772 62.507 35.7866C61.2115 36.996 59.4543 37.6755 57.6222 37.6755Z" fill="#D6FBC4"/>
<path d="M59.267 45.967C59.267 46.0485 59.2323 46.1266 59.1706 46.1842C59.109 46.2418 59.0253 46.2741 58.938 46.2741H37.8847C37.7974 46.2741 37.7137 46.2418 37.652 46.1842C37.5904 46.1266 37.5557 46.0485 37.5557 45.967V39.3737C38.098 39.4694 38.6486 39.5177 39.2005 39.518H57.6222C58.1741 39.5177 58.7247 39.4694 59.267 39.3737V45.967Z" fill="#0C2503"/>
<path d="M66.5041 31.2265C66.5015 29.0281 65.5649 26.9206 63.8998 25.3661C62.2346 23.8117 59.977 22.9373 57.6222 22.9349C57.2637 22.9355 56.9056 22.956 56.5498 22.9963C55.8589 21.5169 54.7205 20.2579 53.2743 19.3737C51.8281 18.4895 50.1368 18.0185 48.4081 18.0185C46.6793 18.0185 44.9881 18.4895 43.5418 19.3737C42.0956 20.2579 40.9572 21.5169 40.2663 22.9963C39.9126 22.9562 39.5568 22.9357 39.2005 22.9349C37.1671 22.9361 35.1958 23.5886 33.6157 24.7833C32.0357 25.9781 30.9426 27.6427 30.5191 29.4993C30.0955 31.3559 30.3672 33.2919 31.2886 34.984C32.2101 36.6761 33.7256 38.0218 35.5819 38.7964V45.967C35.5819 46.5372 35.8245 47.084 36.2564 47.4871C36.6882 47.8902 37.2739 48.1167 37.8847 48.1167H58.938C59.5488 48.1167 60.1345 47.8902 60.5663 47.4871C60.9981 47.084 61.2407 46.5372 61.2407 45.967V38.7964C62.8066 38.1428 64.1366 37.0804 65.0704 35.7373C66.0043 34.3942 66.5022 32.8277 66.5041 31.2265ZM59.267 45.967C59.267 46.0485 59.2323 46.1266 59.1706 46.1842C59.109 46.2418 59.0253 46.2741 58.938 46.2741H37.8847C37.7974 46.2741 37.7137 46.2418 37.652 46.1842C37.5904 46.1266 37.5557 46.0485 37.5557 45.967V39.3737C38.098 39.4694 38.6486 39.5177 39.2005 39.518H57.6222C58.1741 39.5177 58.7247 39.4694 59.267 39.3737V45.967ZM57.6222 37.6755H54.9395L55.9478 33.9074C55.9793 33.79 55.9858 33.668 55.9668 33.5484C55.9479 33.4287 55.9038 33.3136 55.8372 33.2098C55.7706 33.106 55.6828 33.0155 55.5787 32.9434C55.4746 32.8713 55.3564 32.819 55.2307 32.7896C55.105 32.7601 54.9743 32.7541 54.8461 32.7718C54.7178 32.7895 54.5946 32.8306 54.4834 32.8928C54.3722 32.955 54.2753 33.037 54.198 33.1341C54.1208 33.2313 54.0648 33.3417 54.0333 33.459L52.9033 37.6755H49.3982V33.6832C49.3982 33.4389 49.2942 33.2046 49.1092 33.0318C48.9241 32.859 48.6731 32.7619 48.4113 32.7619C48.1496 32.7619 47.8986 32.859 47.7135 33.0318C47.5284 33.2046 47.4245 33.4389 47.4245 33.6832V37.6755H43.9194L42.7894 33.459C42.7579 33.3417 42.7019 33.2313 42.6247 33.1341C42.5474 33.037 42.4504 32.955 42.3392 32.8928C42.2281 32.8306 42.1048 32.7895 41.9766 32.7718C41.8484 32.7541 41.7177 32.7601 41.592 32.7896C41.4663 32.819 41.348 32.8713 41.244 32.9434C41.1399 33.0155 41.0521 33.106 40.9855 33.2098C40.9189 33.3136 40.8748 33.4287 40.8559 33.5484C40.8369 33.668 40.8434 33.79 40.8749 33.9074L41.8831 37.6755H39.2005C37.3683 37.6755 35.6112 36.996 34.3157 35.7866C33.0202 34.5772 32.2923 32.9368 32.2923 31.2265C32.2923 29.5161 33.0202 27.8757 34.3157 26.6663C35.6112 25.4569 37.3683 24.7774 39.2005 24.7774C39.365 24.7774 39.5294 24.7774 39.6808 24.7943C39.581 25.2952 39.5304 25.8035 39.5294 26.3129C39.5294 26.5573 39.6334 26.7916 39.8185 26.9644C40.0036 27.1371 40.2546 27.2342 40.5163 27.2342C40.7781 27.2342 41.0291 27.1371 41.2142 26.9644C41.3992 26.7916 41.5032 26.5573 41.5032 26.3129C41.5032 24.6025 42.231 22.9622 43.5265 21.7528C44.8221 20.5434 46.5792 19.8639 48.4113 19.8639C50.2435 19.8639 52.0006 20.5434 53.2961 21.7528C54.5917 22.9622 55.3195 24.6025 55.3195 26.3129C55.3195 26.5573 55.4235 26.7916 55.6085 26.9644C55.7936 27.1371 56.0446 27.2342 56.3064 27.2342C56.5681 27.2342 56.8191 27.1371 57.0042 26.9644C57.1893 26.7916 57.2932 26.5573 57.2932 26.3129C57.2923 25.8035 57.2417 25.2952 57.1419 24.7943C57.3064 24.7851 57.461 24.7774 57.6222 24.7774C59.4543 24.7774 61.2115 25.4569 62.507 26.6663C63.8025 27.8757 64.5303 29.5161 64.5303 31.2265C64.5303 32.9368 63.8025 34.5772 62.507 35.7866C61.2115 36.996 59.4543 37.6755 57.6222 37.6755Z" stroke="#0C2503" stroke-width="1.23432"/>
<path d="M57.6222 37.6755H54.9395L55.9478 33.9074C55.9793 33.79 55.9858 33.668 55.9668 33.5484C55.9479 33.4287 55.9038 33.3136 55.8372 33.2098C55.7706 33.106 55.6828 33.0155 55.5787 32.9434C55.4746 32.8713 55.3564 32.819 55.2307 32.7896C55.105 32.7601 54.9743 32.7541 54.8461 32.7718C54.7178 32.7895 54.5946 32.8306 54.4834 32.8928C54.3722 32.955 54.2753 33.037 54.198 33.1341C54.1208 33.2313 54.0648 33.3417 54.0333 33.459L52.9033 37.6755H49.3982V33.6832C49.3982 33.4389 49.2942 33.2046 49.1092 33.0318C48.9241 32.859 48.6731 32.7619 48.4113 32.7619C48.1496 32.7619 47.8986 32.859 47.7135 33.0318C47.5284 33.2046 47.4245 33.4389 47.4245 33.6832V37.6755H43.9194L42.7894 33.459C42.7579 33.3417 42.7019 33.2313 42.6247 33.1341C42.5474 33.037 42.4504 32.955 42.3392 32.8928C42.2281 32.8306 42.1048 32.7895 41.9766 32.7718C41.8484 32.7541 41.7177 32.7601 41.592 32.7896C41.4663 32.819 41.348 32.8713 41.244 32.9434C41.1399 33.0155 41.0521 33.106 40.9855 33.2098C40.9189 33.3136 40.8748 33.4287 40.8559 33.5484C40.8369 33.668 40.8434 33.79 40.8749 33.9074L41.8831 37.6755H39.2005C37.3683 37.6755 35.6112 36.996 34.3157 35.7866C33.0202 34.5772 32.2923 32.9368 32.2923 31.2265C32.2923 29.5161 33.0202 27.8757 34.3157 26.6663C35.6112 25.4569 37.3683 24.7774 39.2005 24.7774C39.365 24.7774 39.5294 24.7774 39.6808 24.7943C39.581 25.2952 39.5304 25.8035 39.5294 26.3129C39.5294 26.5573 39.6334 26.7916 39.8185 26.9644C40.0036 27.1371 40.2546 27.2342 40.5163 27.2342C40.7781 27.2342 41.0291 27.1371 41.2142 26.9644C41.3992 26.7916 41.5032 26.5573 41.5032 26.3129C41.5032 24.6025 42.231 22.9622 43.5265 21.7528C44.8221 20.5434 46.5792 19.8639 48.4113 19.8639C50.2435 19.8639 52.0006 20.5434 53.2961 21.7528C54.5917 22.9622 55.3195 24.6025 55.3195 26.3129C55.3195 26.5573 55.4235 26.7916 55.6085 26.9644C55.7936 27.1371 56.0446 27.2342 56.3064 27.2342C56.5681 27.2342 56.8191 27.1371 57.0042 26.9644C57.1893 26.7916 57.2932 26.5573 57.2932 26.3129C57.2923 25.8035 57.2417 25.2952 57.1419 24.7943C57.3064 24.7851 57.461 24.7774 57.6222 24.7774C59.4543 24.7774 61.2115 25.4569 62.507 26.6663C63.8025 27.8757 64.5303 29.5161 64.5303 31.2265C64.5303 32.9368 63.8025 34.5772 62.507 35.7866C61.2115 36.996 59.4543 37.6755 57.6222 37.6755Z" stroke="#0C2503" stroke-width="1.23432"/>
<path d="M59.267 45.967C59.267 46.0485 59.2323 46.1266 59.1706 46.1842C59.109 46.2418 59.0253 46.2741 58.938 46.2741H37.8847C37.7974 46.2741 37.7137 46.2418 37.652 46.1842C37.5904 46.1266 37.5557 46.0485 37.5557 45.967V39.3737C38.098 39.4694 38.6486 39.5177 39.2005 39.518H57.6222C58.1741 39.5177 58.7247 39.4694 59.267 39.3737V45.967Z" stroke="#0C2503" stroke-width="1.23432"/>
</g>
<path d="M32.3589 85.535H29.3648L35.308 69.0788H38.257L44.2002 85.535H41.1611L39.8329 81.7305H33.6871L32.3589 85.535ZM36.4111 73.9864L34.5426 79.2992H38.9999L37.1089 73.9864C36.9738 73.5587 36.8163 73.0634 36.7712 72.7257C36.7037 73.0409 36.5686 73.5362 36.4111 73.9864ZM49.1452 69.0788V85.535H46.2637V69.0788H49.1452ZM52.3653 80.74V78.3087H59.6142V80.74H52.3653ZM69.3238 79.862H65.6994V85.535H62.8179V69.0788H69.3238C72.6331 69.0788 74.7717 71.24 74.7717 74.4592C74.7717 77.6333 72.6106 79.862 69.3238 79.862ZM68.761 71.6452H65.6994V77.2957H68.716C70.6971 77.2957 71.7551 76.2376 71.7551 74.4367C71.7551 72.6357 70.6745 71.6452 68.761 71.6452ZM75.588 79.9521C75.588 76.4852 78.0868 74.099 81.5311 74.099C84.9754 74.099 87.4742 76.4852 87.4742 79.9521C87.4742 83.4189 84.9754 85.8052 81.5311 85.8052C78.0868 85.8052 75.588 83.4189 75.588 79.9521ZM78.3344 79.9521C78.3344 81.9782 79.6401 83.3514 81.5311 83.3514C83.4221 83.3514 84.7278 81.9782 84.7278 79.9521C84.7278 77.926 83.4221 76.5528 81.5311 76.5528C79.6401 76.5528 78.3344 77.926 78.3344 79.9521ZM91.5554 85.535L87.9535 74.4141H90.8125L92.2758 79.1867C92.5234 80.0646 92.7485 81.0326 92.9512 82.0682C93.1538 80.9876 93.3564 80.2898 93.7166 79.1867L95.2474 74.4141H98.0388L99.5246 79.1867C99.6597 79.6369 100.11 81.3028 100.245 82.0457C100.425 81.2127 100.785 79.8845 100.988 79.1867L102.474 74.4141H105.378L101.528 85.535H98.9618L97.431 80.7175C96.9808 79.2542 96.7332 78.1961 96.6431 77.6333C96.5305 78.1511 96.3279 78.939 95.7651 80.7625L94.2343 85.535H91.5554ZM111.466 85.8277C108.157 85.8277 105.838 83.4189 105.838 79.9746C105.838 76.4852 108.112 74.0765 111.376 74.0765C114.708 74.0765 116.824 76.3051 116.824 79.772V80.6049L108.45 80.6274C108.652 82.586 109.688 83.5765 111.511 83.5765C113.02 83.5765 114.01 82.9912 114.325 81.9331H116.869C116.396 84.3644 114.37 85.8277 111.466 85.8277ZM111.399 76.3277C109.778 76.3277 108.787 77.2056 108.517 78.8715H114.1C114.1 77.3407 113.042 76.3277 111.399 76.3277ZM126.001 74.3691V76.913H124.988C123.007 76.913 121.769 77.971 121.769 80.1322V85.535H119.022V74.4367H121.611L121.769 76.0575C122.241 74.9544 123.3 74.2115 124.785 74.2115C125.168 74.2115 125.551 74.2566 126.001 74.3691ZM132.461 85.8277C129.152 85.8277 126.833 83.4189 126.833 79.9746C126.833 76.4852 129.107 74.0765 132.371 74.0765C135.703 74.0765 137.819 76.3051 137.819 79.772V80.6049L129.445 80.6274C129.647 82.586 130.683 83.5765 132.506 83.5765C134.015 83.5765 135.005 82.9912 135.32 81.9331H137.864C137.391 84.3644 135.365 85.8277 132.461 85.8277ZM132.394 76.3277C130.773 76.3277 129.782 77.2056 129.512 78.8715H135.095C135.095 77.3407 134.037 76.3277 132.394 76.3277ZM144.587 85.8277C141.368 85.8277 139.364 83.4639 139.364 80.0196C139.364 76.5528 141.39 74.0765 144.745 74.0765C146.298 74.0765 147.671 74.7293 148.369 75.8324V68.7862H151.093V85.535H148.572L148.392 83.8016C147.716 85.0848 146.276 85.8277 144.587 85.8277ZM145.195 83.3064C147.109 83.3064 148.347 81.9331 148.347 79.9296C148.347 77.926 147.109 76.5303 145.195 76.5303C143.281 76.5303 142.111 77.9485 142.111 79.9296C142.111 81.9106 143.281 83.3064 145.195 83.3064ZM163.265 85.535H160.428V69.0788H163.287L171.009 80.74V69.0788H173.845V85.535H171.009L163.265 73.8739V85.535ZM184.624 74.4141H187.371V85.535H184.827L184.624 84.0492C183.949 85.1073 182.508 85.8277 181.022 85.8277C178.456 85.8277 176.948 84.0943 176.948 81.3703V74.4141H179.694V80.4023C179.694 82.5184 180.527 83.3739 182.058 83.3739C183.791 83.3739 184.624 82.3609 184.624 80.2447V74.4141ZM193.989 85.535H191.243V76.7104H189.104V74.4141H191.243V70.9473H193.989V74.4141H196.151V76.7104H193.989V85.535ZM204.837 74.3691V76.913H203.824C201.843 76.913 200.604 77.971 200.604 80.1322V85.535H197.858V74.4367H200.447L200.604 76.0575C201.077 74.9544 202.135 74.2115 203.621 74.2115C204.004 74.2115 204.386 74.2566 204.837 74.3691ZM208.069 72.1855C207.123 72.1855 206.38 71.4426 206.38 70.5196C206.38 69.5966 207.123 68.8762 208.069 68.8762C208.969 68.8762 209.712 69.5966 209.712 70.5196C209.712 71.4426 208.969 72.1855 208.069 72.1855ZM206.696 85.535V74.4141H209.442V85.535H206.696ZM216.062 85.535H213.315V76.7104H211.177V74.4141H213.315V70.9473H216.062V74.4141H218.223V76.7104H216.062V85.535ZM221.303 72.1855C220.358 72.1855 219.615 71.4426 219.615 70.5196C219.615 69.5966 220.358 68.8762 221.303 68.8762C222.204 68.8762 222.947 69.5966 222.947 70.5196C222.947 71.4426 222.204 72.1855 221.303 72.1855ZM219.93 85.535V74.4141H222.677V85.535H219.93ZM224.861 79.9521C224.861 76.4852 227.36 74.099 230.804 74.099C234.249 74.099 236.748 76.4852 236.748 79.9521C236.748 83.4189 234.249 85.8052 230.804 85.8052C227.36 85.8052 224.861 83.4189 224.861 79.9521ZM227.608 79.9521C227.608 81.9782 228.913 83.3514 230.804 83.3514C232.695 83.3514 234.001 81.9782 234.001 79.9521C234.001 77.926 232.695 76.5528 230.804 76.5528C228.913 76.5528 227.608 77.926 227.608 79.9521ZM241.671 85.535H238.925V74.4141H241.468L241.694 75.8549C242.391 74.7293 243.742 74.0765 245.25 74.0765C248.042 74.0765 249.483 75.8099 249.483 78.6914V85.535H246.736V79.3443C246.736 77.4758 245.813 76.5753 244.395 76.5753C242.707 76.5753 241.671 77.7459 241.671 79.5469V85.535Z" fill="#030A00"/>
<path d="M38.5851 110.742C38.5851 113.572 36.7326 115.553 34.0955 115.553C31.4713 115.553 29.6446 113.572 29.6446 110.742C29.6446 107.925 31.4842 105.931 34.1084 105.931C36.7455 105.931 38.5851 107.912 38.5851 110.742ZM37.2601 110.742C37.2601 108.581 35.9994 107.153 34.1084 107.153C32.2174 107.153 30.9696 108.581 30.9696 110.742C30.9696 112.903 32.2174 114.344 34.1084 114.344C35.9994 114.344 37.2601 112.891 37.2601 110.742ZM44.3397 109.109H45.536V115.399H44.4554L44.3268 114.447C43.9666 115.103 43.1305 115.553 42.2043 115.553C40.7378 115.553 39.9145 114.563 39.9145 113.019V109.109H41.1237V112.62C41.1237 113.971 41.7026 114.486 42.6288 114.486C43.7351 114.486 44.3397 113.778 44.3397 112.427V109.109ZM50.8923 109.057V110.163H50.3521C49.2072 110.163 48.4997 110.858 48.4997 112.067V115.399H47.2904V109.121H48.4225L48.4997 110.073C48.7569 109.417 49.3873 108.98 50.2492 108.98C50.4678 108.98 50.6479 109.006 50.8923 109.057ZM56.1357 115.399H54.8236L58.2197 106.098H59.6218L63.0308 115.399H61.7058L60.8697 113.083H56.959L56.1357 115.399ZM58.76 108.105L57.3449 111.99H60.4966L59.0687 108.105C59.0044 107.925 58.9401 107.706 58.9143 107.565C58.8886 107.693 58.8243 107.912 58.76 108.105ZM65.5278 106.098V115.399H64.2671V106.098H65.5278ZM74.6103 109.057V110.163H74.07C72.9251 110.163 72.2176 110.858 72.2176 112.067V115.399H71.0084V109.121H72.1404L72.2176 110.073C72.4748 109.417 73.1052 108.98 73.9671 108.98C74.1858 108.98 74.3659 109.006 74.6103 109.057ZM78.2326 115.553C76.3802 115.553 75.1066 114.216 75.1066 112.26C75.1066 110.292 76.3544 108.928 78.1811 108.928C79.9692 108.928 81.1398 110.163 81.1398 112.029V112.479L76.2773 112.492C76.3673 113.817 77.062 114.55 78.2583 114.55C79.1974 114.55 79.8148 114.164 80.0207 113.444H81.1527C80.844 114.794 79.7891 115.553 78.2326 115.553ZM78.1811 109.945C77.1263 109.945 76.4573 110.575 76.303 111.681H79.9306C79.9306 110.639 79.2488 109.945 78.1811 109.945ZM82.0788 112.26C82.0788 110.292 83.3266 108.928 85.1661 108.928C86.7484 108.928 87.8547 109.829 88.0734 111.231H86.8642C86.6584 110.433 86.0152 110.009 85.2047 110.009C84.0598 110.009 83.2751 110.884 83.2751 112.247C83.2751 113.598 84.0084 114.473 85.1533 114.473C86.0152 114.473 86.6584 114.023 86.8771 113.276H88.0863C87.8419 114.64 86.6712 115.553 85.1533 115.553C83.3009 115.553 82.0788 114.241 82.0788 112.26ZM88.9505 112.247C88.9505 110.305 90.3398 108.941 92.2308 108.941C94.1089 108.941 95.4982 110.305 95.4982 112.247C95.4982 114.19 94.1089 115.553 92.2308 115.553C90.3398 115.553 88.9505 114.19 88.9505 112.247ZM90.1725 112.247C90.1725 113.559 91.0087 114.473 92.2308 114.473C93.44 114.473 94.289 113.559 94.289 112.247C94.289 110.935 93.44 110.022 92.2308 110.022C91.0087 110.022 90.1725 110.935 90.1725 112.247ZM98.046 115.399H96.8368V109.109H97.9173L98.0331 109.932C98.3547 109.34 99.0236 108.928 99.9113 108.928C100.889 108.928 101.584 109.417 101.905 110.202C102.201 109.417 102.96 108.928 103.938 108.928C105.378 108.928 106.253 109.829 106.253 111.283V115.399H105.07V111.578C105.07 110.588 104.517 110.022 103.668 110.022C102.754 110.022 102.15 110.665 102.15 111.668V115.399H100.953V111.566C100.953 110.575 100.413 110.035 99.5639 110.035C98.6506 110.035 98.046 110.665 98.046 111.668V115.399ZM109.139 115.399H107.929V109.109H109.01L109.126 109.932C109.447 109.34 110.116 108.928 111.004 108.928C111.982 108.928 112.676 109.417 112.998 110.202C113.294 109.417 114.053 108.928 115.03 108.928C116.471 108.928 117.346 109.829 117.346 111.283V115.399H116.162V111.578C116.162 110.588 115.609 110.022 114.76 110.022C113.847 110.022 113.242 110.665 113.242 111.668V115.399H112.046V111.566C112.046 110.575 111.506 110.035 110.657 110.035C109.743 110.035 109.139 110.665 109.139 111.668V115.399ZM121.736 115.553C119.884 115.553 118.61 114.216 118.61 112.26C118.61 110.292 119.858 108.928 121.685 108.928C123.473 108.928 124.644 110.163 124.644 112.029V112.479L119.781 112.492C119.871 113.817 120.566 114.55 121.762 114.55C122.701 114.55 123.319 114.164 123.524 113.444H124.656C124.348 114.794 123.293 115.553 121.736 115.553ZM121.685 109.945C120.63 109.945 119.961 110.575 119.807 111.681H123.434C123.434 110.639 122.753 109.945 121.685 109.945ZM127.203 115.399H125.994V109.109H127.088L127.216 110.073C127.615 109.353 128.413 108.928 129.3 108.928C130.96 108.928 131.719 109.945 131.719 111.553V115.399H130.509V111.823C130.509 110.549 129.918 110.035 128.992 110.035C127.86 110.035 127.203 110.845 127.203 112.067V115.399ZM135.915 115.553C134.088 115.553 132.982 114.19 132.982 112.273C132.982 110.343 134.101 108.928 135.966 108.928C136.931 108.928 137.742 109.353 138.166 110.125V105.931H139.362V115.399H138.282L138.179 114.254C137.767 115.116 136.918 115.553 135.915 115.553ZM136.159 114.46C137.394 114.46 138.153 113.547 138.153 112.234C138.153 110.948 137.394 110.022 136.159 110.022C134.924 110.022 134.204 110.948 134.204 112.234C134.204 113.534 134.924 114.46 136.159 114.46ZM140.592 113.572H141.75C141.75 114.216 142.239 114.601 143.036 114.601C143.885 114.601 144.374 114.254 144.374 113.675C144.374 113.251 144.168 112.993 143.512 112.826L142.406 112.569C141.287 112.299 140.76 111.746 140.76 110.819C140.76 109.662 141.737 108.928 143.127 108.928C144.503 108.928 145.403 109.7 145.429 110.897H144.271C144.246 110.266 143.821 109.867 143.088 109.867C142.329 109.867 141.904 110.202 141.904 110.781C141.904 111.205 142.213 111.488 142.831 111.643L143.937 111.913C145.005 112.17 145.532 112.659 145.532 113.598C145.532 114.794 144.503 115.553 143.011 115.553C141.531 115.553 140.592 114.769 140.592 113.572ZM151.6 115.399H150.391V109.109H151.471L151.587 109.932C151.908 109.34 152.577 108.928 153.465 108.928C154.443 108.928 155.137 109.417 155.459 110.202C155.755 109.417 156.514 108.928 157.491 108.928C158.932 108.928 159.807 109.829 159.807 111.283V115.399H158.623V111.578C158.623 110.588 158.07 110.022 157.221 110.022C156.308 110.022 155.703 110.665 155.703 111.668V115.399H154.507V111.566C154.507 110.575 153.967 110.035 153.118 110.035C152.204 110.035 151.6 110.665 151.6 111.668V115.399ZM164.197 115.553C162.345 115.553 161.072 114.216 161.072 112.26C161.072 110.292 162.319 108.928 164.146 108.928C165.934 108.928 167.105 110.163 167.105 112.029V112.479L162.242 112.492C162.332 113.817 163.027 114.55 164.223 114.55C165.162 114.55 165.78 114.164 165.986 113.444H167.118C166.809 114.794 165.754 115.553 164.197 115.553ZM164.146 109.945C163.091 109.945 162.422 110.575 162.268 111.681H165.896C165.896 110.639 165.214 109.945 164.146 109.945ZM170.232 115.553C168.881 115.553 168.084 114.794 168.084 113.649C168.084 112.492 168.946 111.771 170.425 111.656L172.406 111.501V111.321C172.406 110.266 171.776 109.893 170.927 109.893C169.91 109.893 169.332 110.343 169.332 111.102H168.277C168.277 109.79 169.357 108.928 170.978 108.928C172.535 108.928 173.59 109.752 173.59 111.45V115.399H172.56L172.432 114.383C172.11 115.103 171.248 115.553 170.232 115.553ZM170.579 114.614C171.724 114.614 172.419 113.868 172.419 112.685V112.35L170.811 112.479C169.743 112.582 169.306 112.993 169.306 113.611C169.306 114.28 169.795 114.614 170.579 114.614ZM176.499 115.399H175.29V105.931H176.499V115.399ZM177.765 113.572H178.922C178.922 114.216 179.411 114.601 180.209 114.601C181.058 114.601 181.547 114.254 181.547 113.675C181.547 113.251 181.341 112.993 180.685 112.826L179.578 112.569C178.459 112.299 177.932 111.746 177.932 110.819C177.932 109.662 178.91 108.928 180.299 108.928C181.675 108.928 182.576 109.7 182.601 110.897H181.444C181.418 110.266 180.993 109.867 180.26 109.867C179.501 109.867 179.077 110.202 179.077 110.781C179.077 111.205 179.385 111.488 180.003 111.643L181.109 111.913C182.177 112.17 182.704 112.659 182.704 113.598C182.704 114.794 181.675 115.553 180.183 115.553C178.704 115.553 177.765 114.769 177.765 113.572ZM185.784 114.897C185.784 115.823 185.089 116.595 184.176 116.711V116.171C184.703 116.081 185.076 115.733 185.076 115.335C184.986 115.386 184.883 115.412 184.729 115.412C184.304 115.412 183.944 115.103 183.944 114.627C183.944 114.113 184.292 113.74 184.806 113.74C185.346 113.74 185.784 114.19 185.784 114.897ZM190.644 112.093C190.644 110.318 191.789 108.928 193.615 108.928C194.632 108.928 195.416 109.392 195.815 110.176L195.905 109.109H196.986V115.142C196.986 117.123 195.764 118.383 193.834 118.383C192.123 118.383 190.953 117.419 190.721 115.823H191.93C192.085 116.75 192.779 117.29 193.834 117.29C195.018 117.29 195.789 116.518 195.789 115.322V114.061C195.378 114.794 194.555 115.232 193.564 115.232C191.776 115.232 190.644 113.855 190.644 112.093ZM191.853 112.067C191.853 113.251 192.586 114.177 193.77 114.177C194.992 114.177 195.738 113.302 195.738 112.067C195.738 110.858 195.018 109.983 193.783 109.983C192.573 109.983 191.853 110.909 191.853 112.067ZM201.445 115.553C199.593 115.553 198.319 114.216 198.319 112.26C198.319 110.292 199.567 108.928 201.394 108.928C203.182 108.928 204.352 110.163 204.352 112.029V112.479L199.49 112.492C199.58 113.817 200.275 114.55 201.471 114.55C202.41 114.55 203.027 114.164 203.233 113.444H204.365C204.057 114.794 203.002 115.553 201.445 115.553ZM201.394 109.945C200.339 109.945 199.67 110.575 199.516 111.681H203.143C203.143 110.639 202.461 109.945 201.394 109.945ZM206.912 115.399H205.703V109.109H206.796L206.925 110.073C207.324 109.353 208.121 108.928 209.009 108.928C210.669 108.928 211.427 109.945 211.427 111.553V115.399H210.218V111.823C210.218 110.549 209.627 110.035 208.7 110.035C207.568 110.035 206.912 110.845 206.912 112.067V115.399ZM215.817 115.553C213.964 115.553 212.691 114.216 212.691 112.26C212.691 110.292 213.938 108.928 215.765 108.928C217.553 108.928 218.724 110.163 218.724 112.029V112.479L213.861 112.492C213.951 113.817 214.646 114.55 215.842 114.55C216.781 114.55 217.399 114.164 217.605 113.444H218.737C218.428 114.794 217.373 115.553 215.817 115.553ZM215.765 109.945C214.71 109.945 214.041 110.575 213.887 111.681H217.515C217.515 110.639 216.833 109.945 215.765 109.945ZM223.676 109.057V110.163H223.136C221.991 110.163 221.284 110.858 221.284 112.067V115.399H220.074V109.121H221.207L221.284 110.073C221.541 109.417 222.171 108.98 223.033 108.98C223.252 108.98 223.432 109.006 223.676 109.057ZM226.399 115.553C225.048 115.553 224.251 114.794 224.251 113.649C224.251 112.492 225.112 111.771 226.592 111.656L228.573 111.501V111.321C228.573 110.266 227.942 109.893 227.093 109.893C226.077 109.893 225.498 110.343 225.498 111.102H224.443C224.443 109.79 225.524 108.928 227.145 108.928C228.701 108.928 229.756 109.752 229.756 111.45V115.399H228.727L228.599 114.383C228.277 115.103 227.415 115.553 226.399 115.553ZM226.746 114.614C227.891 114.614 228.586 113.868 228.586 112.685V112.35L226.978 112.479C225.91 112.582 225.473 112.993 225.473 113.611C225.473 114.28 225.961 114.614 226.746 114.614ZM233.106 115.399H231.896V110.125H230.662V109.109H231.896V107.14H233.106V109.109H234.341V110.125H233.106V115.399ZM238.077 115.553C236.225 115.553 234.951 114.216 234.951 112.26C234.951 110.292 236.199 108.928 238.026 108.928C239.814 108.928 240.985 110.163 240.985 112.029V112.479L236.122 112.492C236.212 113.817 236.907 114.55 238.103 114.55C239.042 114.55 239.66 114.164 239.865 113.444H240.997C240.689 114.794 239.634 115.553 238.077 115.553ZM238.026 109.945C236.971 109.945 236.302 110.575 236.148 111.681H239.775C239.775 110.639 239.094 109.945 238.026 109.945ZM31.0854 130.399H29.9919V120.931H31.2011V125.189C31.6128 124.366 32.4618 123.928 33.4909 123.928C35.2919 123.928 36.3725 125.343 36.3725 127.286C36.3725 129.19 35.2404 130.553 33.4137 130.553C32.4232 130.553 31.5871 130.116 31.1754 129.254L31.0854 130.399ZM31.214 127.234C31.214 128.547 31.9601 129.46 33.1951 129.46C34.43 129.46 35.1632 128.534 35.1632 127.234C35.1632 125.948 34.43 125.022 33.1951 125.022C31.9601 125.022 31.214 125.948 31.214 127.234ZM38.9402 130.399H37.731V120.931H38.9402V130.399ZM40.3086 127.247C40.3086 125.305 41.6979 123.941 43.5889 123.941C45.4671 123.941 46.8564 125.305 46.8564 127.247C46.8564 129.19 45.4671 130.553 43.5889 130.553C41.6979 130.553 40.3086 129.19 40.3086 127.247ZM41.5307 127.247C41.5307 128.559 42.3669 129.473 43.5889 129.473C44.7981 129.473 45.6472 128.559 45.6472 127.247C45.6472 125.935 44.7981 125.022 43.5889 125.022C42.3669 125.022 41.5307 125.935 41.5307 127.247ZM47.7962 127.093C47.7962 125.318 48.941 123.928 50.7677 123.928C51.784 123.928 52.5687 124.392 52.9675 125.176L53.0575 124.109H54.1381V130.142C54.1381 132.123 52.916 133.383 50.9864 133.383C49.2755 133.383 48.1049 132.419 47.8733 130.823H49.0826C49.2369 131.75 49.9316 132.29 50.9864 132.29C52.1699 132.29 52.9417 131.518 52.9417 130.322V129.061C52.5301 129.794 51.7068 130.232 50.7163 130.232C48.9282 130.232 47.7962 128.855 47.7962 127.093ZM49.0054 127.067C49.0054 128.251 49.7386 129.177 50.9221 129.177C52.1442 129.177 52.8903 128.302 52.8903 127.067C52.8903 125.858 52.1699 124.983 50.935 124.983C49.7257 124.983 49.0054 125.909 49.0054 127.067ZM55.3686 128.572H56.5264C56.5264 129.216 57.0152 129.601 57.8128 129.601C58.6618 129.601 59.1506 129.254 59.1506 128.675C59.1506 128.251 58.9448 127.993 58.2887 127.826L57.1824 127.569C56.0633 127.299 55.5358 126.746 55.5358 125.819C55.5358 124.662 56.5135 123.928 57.9028 123.928C59.2792 123.928 60.1797 124.7 60.2054 125.897H59.0477C59.022 125.266 58.5975 124.867 57.8642 124.867C57.1052 124.867 56.6807 125.202 56.6807 125.781C56.6807 126.205 56.9895 126.488 57.6069 126.643L58.7132 126.913C59.7809 127.17 60.3084 127.659 60.3084 128.598C60.3084 129.794 59.2792 130.553 57.787 130.553C56.3077 130.553 55.3686 129.769 55.3686 128.572ZM63.3878 129.897C63.3878 130.823 62.6931 131.595 61.7798 131.711V131.171C62.3072 131.081 62.6803 130.733 62.6803 130.335C62.5902 130.386 62.4873 130.412 62.3329 130.412C61.9084 130.412 61.5482 130.103 61.5482 129.627C61.5482 129.113 61.8956 128.74 62.4101 128.74C62.9504 128.74 63.3878 129.19 63.3878 129.897ZM70.4218 130.399H69.2126V125.125H67.9777V124.109H69.2126V122.14H70.4218V124.109H71.6568V125.125H70.4218V130.399ZM76.3439 124.057V125.163H75.8036C74.6587 125.163 73.9512 125.858 73.9512 127.067V130.399H72.742V124.121H73.874L73.9512 125.073C74.2085 124.417 74.8388 123.98 75.7007 123.98C75.9194 123.98 76.0995 124.006 76.3439 124.057ZM79.0663 130.553C77.7156 130.553 76.918 129.794 76.918 128.649C76.918 127.492 77.7799 126.771 79.2593 126.656L81.2403 126.501V126.321C81.2403 125.266 80.61 124.893 79.761 124.893C78.7447 124.893 78.1658 125.343 78.1658 126.102H77.111C77.111 124.79 78.1916 123.928 79.8124 123.928C81.369 123.928 82.4238 124.752 82.4238 126.45V130.399H81.3947L81.2661 129.383C80.9445 130.103 80.0826 130.553 79.0663 130.553ZM79.4136 129.614C80.5585 129.614 81.2532 128.868 81.2532 127.685V127.35L79.6452 127.479C78.5775 127.582 78.1401 127.993 78.1401 128.611C78.1401 129.28 78.6289 129.614 79.4136 129.614ZM83.6868 127.26C83.6868 125.292 84.9346 123.928 86.7741 123.928C88.3564 123.928 89.4627 124.829 89.6814 126.231H88.4722C88.2664 125.433 87.6232 125.009 86.8127 125.009C85.6678 125.009 84.8831 125.884 84.8831 127.247C84.8831 128.598 85.6164 129.473 86.7613 129.473C87.6232 129.473 88.2664 129.023 88.485 128.276H89.6943C89.4498 129.64 88.2792 130.553 86.7613 130.553C84.9089 130.553 83.6868 129.241 83.6868 127.26ZM92.205 130.399H90.9958V120.931H92.205V127.067L94.9965 124.109H96.5145L94.1089 126.617L96.5016 130.399H95.1123L93.2728 127.492L92.205 128.611V130.399ZM97.0257 128.572H98.1835C98.1835 129.216 98.6723 129.601 99.4699 129.601C100.319 129.601 100.808 129.254 100.808 128.675C100.808 128.251 100.602 127.993 99.9458 127.826L98.8395 127.569C97.7204 127.299 97.1929 126.746 97.1929 125.819C97.1929 124.662 98.1706 123.928 99.5599 123.928C100.936 123.928 101.837 124.7 101.863 125.897H100.705C100.679 125.266 100.255 124.867 99.5213 124.867C98.7623 124.867 98.3378 125.202 98.3378 125.781C98.3378 126.205 98.6466 126.488 99.264 126.643L100.37 126.913C101.438 127.17 101.965 127.659 101.965 128.598C101.965 129.794 100.936 130.553 99.4441 130.553C97.9648 130.553 97.0257 129.769 97.0257 128.572ZM106.219 133.216V132.226H107.03C107.609 132.226 108.072 132.136 108.368 131.338L108.586 130.733L106.052 124.109H107.326L109.152 129.177L111.018 124.109H112.265L109.294 131.814C108.869 132.895 108.239 133.345 107.274 133.345C106.875 133.345 106.541 133.293 106.219 133.216ZM112.58 127.247C112.58 125.305 113.97 123.941 115.861 123.941C117.739 123.941 119.128 125.305 119.128 127.247C119.128 129.19 117.739 130.553 115.861 130.553C113.97 130.553 112.58 129.19 112.58 127.247ZM113.803 127.247C113.803 128.559 114.639 129.473 115.861 129.473C117.07 129.473 117.919 128.559 117.919 127.247C117.919 125.935 117.07 125.022 115.861 125.022C114.639 125.022 113.803 125.935 113.803 127.247ZM124.664 124.109H125.86V130.399H124.78L124.651 129.447C124.291 130.103 123.455 130.553 122.529 130.553C121.062 130.553 120.239 129.563 120.239 128.019V124.109H121.448V127.62C121.448 128.971 122.027 129.486 122.953 129.486C124.059 129.486 124.664 128.778 124.664 127.427V124.109ZM131.217 124.057V125.163H130.676C129.532 125.163 128.824 125.858 128.824 127.067V130.399H127.615V124.121H128.747L128.824 125.073C129.081 124.417 129.712 123.98 130.574 123.98C130.792 123.98 130.972 124.006 131.217 124.057ZM135.868 133.216V124.109H136.962L137.052 125.241C137.476 124.379 138.325 123.928 139.329 123.928C141.13 123.928 142.249 125.279 142.249 127.209C142.249 129.125 141.194 130.566 139.329 130.566C138.325 130.566 137.489 130.142 137.078 129.37V133.216H135.868ZM137.09 127.26C137.09 128.547 137.837 129.473 139.071 129.473C140.306 129.473 141.04 128.547 141.04 127.26C141.04 125.961 140.306 125.035 139.071 125.035C137.837 125.035 137.09 125.948 137.09 127.26ZM147.184 124.057V125.163H146.643C145.498 125.163 144.791 125.858 144.791 127.067V130.399H143.582V124.121H144.714L144.791 125.073C145.048 124.417 145.678 123.98 146.54 123.98C146.759 123.98 146.939 124.006 147.184 124.057ZM147.68 127.247C147.68 125.305 149.069 123.941 150.96 123.941C152.838 123.941 154.228 125.305 154.228 127.247C154.228 129.19 152.838 130.553 150.96 130.553C149.069 130.553 147.68 129.19 147.68 127.247ZM148.902 127.247C148.902 128.559 149.738 129.473 150.96 129.473C152.169 129.473 153.018 128.559 153.018 127.247C153.018 125.935 152.169 125.022 150.96 125.022C149.738 125.022 148.902 125.935 148.902 127.247ZM155.167 127.093C155.167 125.318 156.312 123.928 158.139 123.928C159.155 123.928 159.94 124.392 160.339 125.176L160.429 124.109H161.509V130.142C161.509 132.123 160.287 133.383 158.358 133.383C156.647 133.383 155.476 132.419 155.245 130.823H156.454C156.608 131.75 157.303 132.29 158.358 132.29C159.541 132.29 160.313 131.518 160.313 130.322V129.061C159.901 129.794 159.078 130.232 158.088 130.232C156.3 130.232 155.167 128.855 155.167 127.093ZM156.377 127.067C156.377 128.251 157.11 129.177 158.293 129.177C159.515 129.177 160.262 128.302 160.262 127.067C160.262 125.858 159.541 124.983 158.306 124.983C157.097 124.983 156.377 125.909 156.377 127.067ZM166.856 124.057V125.163H166.316C165.171 125.163 164.464 125.858 164.464 127.067V130.399H163.254V124.121H164.387L164.464 125.073C164.721 124.417 165.351 123.98 166.213 123.98C166.432 123.98 166.612 124.006 166.856 124.057ZM170.479 130.553C168.626 130.553 167.353 129.216 167.353 127.26C167.353 125.292 168.601 123.928 170.427 123.928C172.215 123.928 173.386 125.163 173.386 127.029V127.479L168.523 127.492C168.613 128.817 169.308 129.55 170.504 129.55C171.444 129.55 172.061 129.164 172.267 128.444H173.399C173.09 129.794 172.035 130.553 170.479 130.553ZM170.427 124.945C169.372 124.945 168.703 125.575 168.549 126.681H172.177C172.177 125.639 171.495 124.945 170.427 124.945ZM174.222 128.572H175.38C175.38 129.216 175.869 129.601 176.666 129.601C177.515 129.601 178.004 129.254 178.004 128.675C178.004 128.251 177.798 127.993 177.142 127.826L176.036 127.569C174.917 127.299 174.389 126.746 174.389 125.819C174.389 124.662 175.367 123.928 176.756 123.928C178.133 123.928 179.033 124.7 179.059 125.897H177.901C177.875 125.266 177.451 124.867 176.718 124.867C175.959 124.867 175.534 125.202 175.534 125.781C175.534 126.205 175.843 126.488 176.46 126.643L177.567 126.913C178.634 127.17 179.162 127.659 179.162 128.598C179.162 129.794 178.133 130.553 176.64 130.553C175.161 130.553 174.222 129.769 174.222 128.572ZM179.988 128.572H181.146C181.146 129.216 181.635 129.601 182.432 129.601C183.281 129.601 183.77 129.254 183.77 128.675C183.77 128.251 183.564 127.993 182.908 127.826L181.802 127.569C180.683 127.299 180.155 126.746 180.155 125.819C180.155 124.662 181.133 123.928 182.522 123.928C183.899 123.928 184.799 124.7 184.825 125.897H183.667C183.642 125.266 183.217 124.867 182.484 124.867C181.725 124.867 181.3 125.202 181.3 125.781C181.3 126.205 181.609 126.488 182.227 126.643L183.333 126.913C184.401 127.17 184.928 127.659 184.928 128.598C184.928 129.794 183.899 130.553 182.407 130.553C180.927 130.553 179.988 129.769 179.988 128.572ZM188.007 129.897C188.007 130.823 187.313 131.595 186.399 131.711V131.171C186.927 131.081 187.3 130.733 187.3 130.335C187.21 130.386 187.107 130.412 186.953 130.412C186.528 130.412 186.168 130.103 186.168 129.627C186.168 129.113 186.515 128.74 187.03 128.74C187.57 128.74 188.007 129.19 188.007 129.897ZM195.106 130.553C193.755 130.553 192.957 129.794 192.957 128.649C192.957 127.492 193.819 126.771 195.299 126.656L197.28 126.501V126.321C197.28 125.266 196.649 124.893 195.8 124.893C194.784 124.893 194.205 125.343 194.205 126.102H193.15C193.15 124.79 194.231 123.928 195.852 123.928C197.408 123.928 198.463 124.752 198.463 126.45V130.399H197.434L197.305 129.383C196.984 130.103 196.122 130.553 195.106 130.553ZM195.453 129.614C196.598 129.614 197.293 128.868 197.293 127.685V127.35L195.685 127.479C194.617 127.582 194.18 127.993 194.18 128.611C194.18 129.28 194.668 129.614 195.453 129.614ZM201.347 130.399H200.138V124.109H201.231L201.36 125.073C201.759 124.353 202.556 123.928 203.444 123.928C205.103 123.928 205.862 124.945 205.862 126.553V130.399H204.653V126.823C204.653 125.549 204.061 125.035 203.135 125.035C202.003 125.035 201.347 125.845 201.347 127.067V130.399ZM210.058 130.553C208.232 130.553 207.126 129.19 207.126 127.273C207.126 125.343 208.245 123.928 210.11 123.928C211.075 123.928 211.885 124.353 212.31 125.125V120.931H213.506V130.399H212.425L212.323 129.254C211.911 130.116 211.062 130.553 210.058 130.553ZM210.303 129.46C211.538 129.46 212.297 128.547 212.297 127.234C212.297 125.948 211.538 125.022 210.303 125.022C209.068 125.022 208.348 125.948 208.348 127.234C208.348 128.534 209.068 129.46 210.303 129.46ZM218.356 127.247C218.356 125.305 219.746 123.941 221.637 123.941C223.515 123.941 224.904 125.305 224.904 127.247C224.904 129.19 223.515 130.553 221.637 130.553C219.746 130.553 218.356 129.19 218.356 127.247ZM219.578 127.247C219.578 128.559 220.415 129.473 221.637 129.473C222.846 129.473 223.695 128.559 223.695 127.247C223.695 125.935 222.846 125.022 221.637 125.022C220.415 125.022 219.578 125.935 219.578 127.247ZM225.536 124.109H226.462V123.105C226.462 121.561 227.298 120.931 228.456 120.931C228.688 120.931 228.958 120.944 229.189 120.983V122.025H228.649C227.864 122.025 227.671 122.423 227.671 123.105V124.109H230.463V123.105C230.463 121.561 231.299 120.931 232.444 120.931C232.676 120.931 232.959 120.944 233.19 120.983V122.025H232.65C231.865 122.025 231.659 122.423 231.659 123.105V124.109H233.152V125.125H231.659V130.399H230.463V125.125H227.671V130.399H226.462V125.125H225.536V124.109ZM236.796 130.553C234.943 130.553 233.67 129.216 233.67 127.26C233.67 125.292 234.918 123.928 236.744 123.928C238.533 123.928 239.703 125.163 239.703 127.029V127.479L234.841 127.492C234.931 128.817 235.625 129.55 236.822 129.55C237.761 129.55 238.378 129.164 238.584 128.444H239.716C239.407 129.794 238.352 130.553 236.796 130.553ZM236.744 124.945C235.69 124.945 235.021 125.575 234.866 126.681H238.494C238.494 125.639 237.812 124.945 236.744 124.945ZM244.656 124.057V125.163H244.115C242.971 125.163 242.263 125.858 242.263 127.067V130.399H241.054V124.121H242.186L242.263 125.073C242.52 124.417 243.151 123.98 244.012 123.98C244.231 123.98 244.411 124.006 244.656 124.057ZM245.275 128.572H246.433C246.433 129.216 246.922 129.601 247.719 129.601C248.568 129.601 249.057 129.254 249.057 128.675C249.057 128.251 248.851 127.993 248.195 127.826L247.089 127.569C245.97 127.299 245.443 126.746 245.443 125.819C245.443 124.662 246.42 123.928 247.809 123.928C249.186 123.928 250.086 124.7 250.112 125.897H248.954C248.929 125.266 248.504 124.867 247.771 124.867C247.012 124.867 246.587 125.202 246.587 125.781C246.587 126.205 246.896 126.488 247.514 126.643L248.62 126.913C249.688 127.17 250.215 127.659 250.215 128.598C250.215 129.794 249.186 130.553 247.694 130.553C246.214 130.553 245.275 129.769 245.275 128.572ZM31.2011 145.386H29.9919V135.931H31.2011V140.073C31.5999 139.392 32.3589 138.928 33.3366 138.928C34.9446 138.928 35.7164 139.945 35.7164 141.553V145.399H34.5072V141.823C34.5072 140.549 33.9026 140.035 33.0021 140.035C31.8315 140.035 31.2011 140.884 31.2011 141.964V145.386ZM40.1055 145.553C38.2531 145.553 36.9796 144.216 36.9796 142.26C36.9796 140.292 38.2274 138.928 40.0541 138.928C41.8422 138.928 43.0128 140.163 43.0128 142.029V142.479L38.1502 142.492C38.2402 143.817 38.9349 144.55 40.1312 144.55C41.0703 144.55 41.6878 144.164 41.8936 143.444H43.0256C42.7169 144.794 41.6621 145.553 40.1055 145.553ZM40.0541 139.945C38.9992 139.945 38.3303 140.575 38.1759 141.681H41.8036C41.8036 140.639 41.1218 139.945 40.0541 139.945ZM46.1401 145.553C44.7894 145.553 43.9918 144.794 43.9918 143.649C43.9918 142.492 44.8537 141.771 46.3331 141.656L48.3141 141.501V141.321C48.3141 140.266 47.6838 139.893 46.8348 139.893C45.8185 139.893 45.2396 140.343 45.2396 141.102H44.1848C44.1848 139.79 45.2654 138.928 46.8862 138.928C48.4428 138.928 49.4976 139.752 49.4976 141.45V145.399H48.4685L48.3399 144.383C48.0183 145.103 47.1564 145.553 46.1401 145.553ZM46.4874 144.614C47.6323 144.614 48.327 143.868 48.327 142.685V142.35L46.719 142.479C45.6513 142.582 45.2139 142.993 45.2139 143.611C45.2139 144.28 45.7027 144.614 46.4874 144.614ZM52.4072 145.399H51.198V135.931H52.4072V145.399ZM55.9625 145.399H54.7532V140.125H53.5183V139.109H54.7532V137.14H55.9625V139.109H57.1974V140.125H55.9625V145.399ZM59.4918 145.386H58.2826V135.931H59.4918V140.073C59.8906 139.392 60.6496 138.928 61.6272 138.928C63.2352 138.928 64.0071 139.945 64.0071 141.553V145.399H62.7978V141.823C62.7978 140.549 62.1932 140.035 61.2928 140.035C60.1221 140.035 59.4918 140.884 59.4918 141.964V145.386ZM64.9516 148.216V147.226H65.7621C66.341 147.226 66.8041 147.136 67.0999 146.338L67.3186 145.733L64.7844 139.109H66.0579L67.8846 144.177L69.7499 139.109H70.9977L68.0261 146.814C67.6016 147.895 66.9713 148.345 66.0065 148.345C65.6077 148.345 65.2732 148.293 64.9516 148.216ZM78.1949 145.553C76.3425 145.553 75.0689 144.216 75.0689 142.26C75.0689 140.292 76.3168 138.928 78.1434 138.928C79.9315 138.928 81.1021 140.163 81.1021 142.029V142.479L76.2396 142.492C76.3296 143.817 77.0243 144.55 78.2206 144.55C79.1597 144.55 79.7772 144.164 79.983 143.444H81.115C80.8063 144.794 79.7514 145.553 78.1949 145.553ZM78.1434 139.945C77.0886 139.945 76.4197 140.575 76.2653 141.681H79.8929C79.8929 140.639 79.2111 139.945 78.1434 139.945ZM84.2295 145.553C82.8788 145.553 82.0812 144.794 82.0812 143.649C82.0812 142.492 82.9431 141.771 84.4225 141.656L86.4035 141.501V141.321C86.4035 140.266 85.7732 139.893 84.9241 139.893C83.9079 139.893 83.329 140.343 83.329 141.102H82.2742C82.2742 139.79 83.3547 138.928 84.9756 138.928C86.5321 138.928 87.587 139.752 87.587 141.45V145.399H86.5579L86.4292 144.383C86.1076 145.103 85.2457 145.553 84.2295 145.553ZM84.5768 144.614C85.7217 144.614 86.4164 143.868 86.4164 142.685V142.35L84.8084 142.479C83.7407 142.582 83.3033 142.993 83.3033 143.611C83.3033 144.28 83.7921 144.614 84.5768 144.614ZM90.9363 145.399H89.7271V140.125H88.4922V139.109H89.7271V137.14H90.9363V139.109H92.1713V140.125H90.9363V145.399ZM93.8482 137.616C93.4108 137.616 93.0506 137.256 93.0506 136.819C93.0506 136.368 93.4108 136.021 93.8482 136.021C94.2856 136.021 94.6458 136.368 94.6458 136.819C94.6458 137.256 94.2856 137.616 93.8482 137.616ZM93.2565 145.399V139.109H94.4657V145.399H93.2565ZM97.4304 145.399H96.2212V139.109H97.3147L97.4433 140.073C97.8421 139.353 98.6396 138.928 99.5273 138.928C101.187 138.928 101.946 139.945 101.946 141.553V145.399H100.736V141.823C100.736 140.549 100.145 140.035 99.2185 140.035C98.0865 140.035 97.4304 140.845 97.4304 142.067V145.399ZM103.222 142.093C103.222 140.318 104.367 138.928 106.193 138.928C107.21 138.928 107.994 139.392 108.393 140.176L108.483 139.109H109.564V145.142C109.564 147.123 108.342 148.383 106.412 148.383C104.701 148.383 103.53 147.419 103.299 145.823H104.508C104.662 146.75 105.357 147.29 106.412 147.29C107.595 147.29 108.367 146.518 108.367 145.322V144.061C107.956 144.794 107.132 145.232 106.142 145.232C104.354 145.232 103.222 143.855 103.222 142.093ZM104.431 142.067C104.431 143.251 105.164 144.177 106.348 144.177C107.57 144.177 108.316 143.302 108.316 142.067C108.316 140.858 107.595 139.983 106.361 139.983C105.151 139.983 104.431 140.909 104.431 142.067ZM115.418 137.616C114.981 137.616 114.62 137.256 114.62 136.819C114.62 136.368 114.981 136.021 115.418 136.021C115.855 136.021 116.216 136.368 116.216 136.819C116.216 137.256 115.855 137.616 115.418 137.616ZM114.826 145.399V139.109H116.035V145.399H114.826ZM119 145.399H117.791V139.109H118.884L119.013 140.073C119.412 139.353 120.209 138.928 121.097 138.928C122.756 138.928 123.515 139.945 123.515 141.553V145.399H122.306V141.823C122.306 140.549 121.714 140.035 120.788 140.035C119.656 140.035 119 140.845 119 142.067V145.399ZM124.6 143.572H125.758C125.758 144.216 126.247 144.601 127.044 144.601C127.893 144.601 128.382 144.254 128.382 143.675C128.382 143.251 128.176 142.993 127.52 142.826L126.414 142.569C125.295 142.299 124.768 141.746 124.768 140.819C124.768 139.662 125.745 138.928 127.135 138.928C128.511 138.928 129.411 139.7 129.437 140.897H128.279C128.254 140.266 127.829 139.867 127.096 139.867C126.337 139.867 125.912 140.202 125.912 140.781C125.912 141.205 126.221 141.488 126.839 141.643L127.945 141.913C129.013 142.17 129.54 142.659 129.54 143.598C129.54 144.794 128.511 145.553 127.019 145.553C125.539 145.553 124.6 144.769 124.6 143.572ZM131.473 137.616C131.035 137.616 130.675 137.256 130.675 136.819C130.675 136.368 131.035 136.021 131.473 136.021C131.91 136.021 132.27 136.368 132.27 136.819C132.27 137.256 131.91 137.616 131.473 137.616ZM130.881 145.399V139.109H132.09V145.399H130.881ZM133.447 142.093C133.447 140.318 134.592 138.928 136.419 138.928C137.435 138.928 138.22 139.392 138.618 140.176L138.708 139.109H139.789V145.142C139.789 147.123 138.567 148.383 136.637 148.383C134.926 148.383 133.756 147.419 133.524 145.823H134.733C134.888 146.75 135.582 147.29 136.637 147.29C137.821 147.29 138.593 146.518 138.593 145.322V144.061C138.181 144.794 137.358 145.232 136.367 145.232C134.579 145.232 133.447 143.855 133.447 142.093ZM134.656 142.067C134.656 143.251 135.389 144.177 136.573 144.177C137.795 144.177 138.541 143.302 138.541 142.067C138.541 140.858 137.821 139.983 136.586 139.983C135.377 139.983 134.656 140.909 134.656 142.067ZM142.743 145.386H141.534V135.931H142.743V140.073C143.142 139.392 143.901 138.928 144.879 138.928C146.487 138.928 147.258 139.945 147.258 141.553V145.399H146.049V141.823C146.049 140.549 145.445 140.035 144.544 140.035C143.374 140.035 142.743 140.884 142.743 141.964V145.386ZM150.709 145.399H149.499V140.125H148.264V139.109H149.499V137.14H150.709V139.109H151.943V140.125H150.709V145.399ZM152.514 143.572H153.672C153.672 144.216 154.161 144.601 154.958 144.601C155.807 144.601 156.296 144.254 156.296 143.675C156.296 143.251 156.09 142.993 155.434 142.826L154.328 142.569C153.209 142.299 152.681 141.746 152.681 140.819C152.681 139.662 153.659 138.928 155.048 138.928C156.425 138.928 157.325 139.7 157.351 140.897H156.193C156.167 140.266 155.743 139.867 155.01 139.867C154.251 139.867 153.826 140.202 153.826 140.781C153.826 141.205 154.135 141.488 154.752 141.643L155.859 141.913C156.926 142.17 157.454 142.659 157.454 143.598C157.454 144.794 156.425 145.553 154.933 145.553C153.453 145.553 152.514 144.769 152.514 143.572ZM159.62 145.553C159.118 145.553 158.694 145.142 158.694 144.653C158.694 144.151 159.118 143.74 159.62 143.74C160.109 143.74 160.533 144.151 160.533 144.653C160.533 145.142 160.109 145.553 159.62 145.553Z" fill="#030A00"/>
<g clip-path="url(#clip1_1569_4092)">
<rect x="29.1172" y="161.263" width="249.561" height="241.842" rx="9.76091" fill="#FAFAFA"/>
<g clip-path="url(#clip2_1569_4092)">
<path d="M132.49 310.375C143.146 310.375 151.785 301.219 151.785 289.925C151.785 278.631 143.146 269.475 132.49 269.475C121.834 269.475 113.195 278.631 113.195 289.925C113.195 301.219 121.834 310.375 132.49 310.375Z" fill="white" stroke="black" stroke-width="2.31075" stroke-miterlimit="10"/>
<path d="M128.254 321.132C126.86 322.433 125.116 322.828 124.286 321.998C123.429 321.141 123.879 319.302 125.291 317.89C126.703 316.478 128.542 316.027 129.4 316.884C130.257 317.742 129.809 319.581 128.397 320.993C128.351 321.039 128.302 321.085 128.254 321.132Z" fill="#FF0000" stroke="black" stroke-width="2.31075" stroke-miterlimit="10"/>
<path d="M134.004 326.736C137.851 329.127 141.698 331.521 145.546 333.913C143.57 338.971 139.81 342.569 135.614 342.957C134.738 343.038 131.852 343.304 129.606 341.339C127.617 339.597 127.346 337.166 127.295 336.718C126.884 333.021 129.56 329.067 133.997 326.731C133.999 326.733 134.001 326.733 134.004 326.736Z" fill="#FF0000" stroke="black" stroke-width="2.31075" stroke-miterlimit="10"/>
<path d="M132.49 310.375C143.146 310.375 151.785 301.219 151.785 289.925C151.785 278.631 143.146 269.475 132.49 269.475C121.834 269.475 113.195 278.631 113.195 289.925C113.195 301.219 121.834 310.375 132.49 310.375Z" fill="white" stroke="black" stroke-width="2.31075" stroke-miterlimit="10"/>
<path d="M196.565 319.738C197.977 321.15 198.425 322.99 197.568 323.847C196.757 324.658 195.065 324.298 193.69 323.059C193.612 322.99 193.535 322.918 193.459 322.842C192.047 321.43 191.597 319.591 192.454 318.733C193.311 317.876 195.151 318.327 196.565 319.738Z" fill="#FF0000" stroke="black" stroke-width="2.31075" stroke-miterlimit="10"/>
<path d="M189.113 310.375C200.152 310.375 209.101 300.909 209.101 289.232C209.101 277.555 200.152 268.089 189.113 268.089C178.074 268.089 169.125 277.555 169.125 289.232C169.125 300.909 178.074 310.375 189.113 310.375Z" fill="#FF0000" stroke="black" stroke-width="2.31075" stroke-miterlimit="10"/>
<path d="M194.996 385.204V407.196H113.195L114.395 376.442C114.517 373.281 115.506 370.217 117.251 367.578L122.582 359.525C125.186 360.532 127.365 361.223 128.908 361.674C155.942 369.579 178.314 359.761 185.753 356.359C196.745 370.145 196.019 379.252 195.326 382.265C195.104 383.229 194.996 384.215 194.996 385.204Z" fill="#8C77EC" stroke="black" stroke-width="2.31075" stroke-miterlimit="10"/>
<path d="M164.035 186.519C166.933 184.005 171.023 184.814 171.429 184.902C175.136 185.694 177.238 188.629 178.824 190.91C182.962 196.865 181.104 199.527 184.832 206.161C186.373 208.906 188.758 213.13 193.381 215.173C200.258 218.211 207.546 214.406 209.094 213.555C227.197 203.963 231.793 201.41 231.74 201.308C231.657 201.149 220.158 207.043 205.397 209.165C202.021 209.65 199.151 209.842 196.154 208.472C189.52 205.44 187.611 197.202 187.142 194.838C186.937 192.527 186.278 188.752 183.907 184.902C183.33 183.964 177.067 174.115 167.501 174.504C159.499 174.827 151.869 182.205 150.401 192.527C149.759 196.969 147.952 205.195 142.083 213.555C134.582 224.238 124.81 228.922 120.593 230.655C110.229 237.069 95.0429 248.801 85.0073 268.107C81.8716 274.141 77.7492 282.274 76.9197 293.738C75.695 310.678 82.4932 323.383 85.0073 327.937C95.3017 346.587 112.269 355.537 122.585 359.525C125.189 360.533 127.368 361.223 128.911 361.674C155.945 369.579 178.318 359.761 185.756 356.359C193.571 352.785 206.999 346.645 216.72 331.634C227.865 314.426 226.961 296.638 226.37 290.503C224.207 270.799 216.681 259.211 211.867 253.3C203.137 242.58 190.04 234.209 187.373 232.503C175.046 224.624 170.068 224.635 165.421 217.252C160.398 209.271 160.883 200.779 161.262 194.145C161.435 191.092 161.923 188.354 164.035 186.519ZM113.198 289.925C113.198 278.63 121.836 269.475 132.493 269.475C143.15 269.475 151.788 278.63 151.788 289.925C151.788 301.22 143.15 310.375 132.493 310.375C121.836 310.375 113.198 301.22 113.198 289.925ZM133.995 326.731C133.997 326.733 134 326.733 134.002 326.736C137.849 329.127 141.697 331.521 145.544 333.913C143.569 338.971 139.809 342.569 135.613 342.957C134.737 343.038 131.851 343.304 129.605 341.339C127.615 339.597 127.345 337.166 127.294 336.718C126.883 333.021 129.558 329.067 133.995 326.731ZM124.285 321.999C123.428 321.141 123.879 319.302 125.291 317.89C126.702 316.478 128.542 316.028 129.399 316.885C130.256 317.742 129.808 319.581 128.396 320.993C128.35 321.04 128.301 321.086 128.253 321.132C126.86 322.433 125.115 322.828 124.285 321.999ZM197.566 323.847C196.755 324.658 195.064 324.298 193.689 323.059C193.61 322.99 193.534 322.918 193.458 322.842C192.046 321.43 191.595 319.591 192.452 318.733C193.31 317.876 195.149 318.327 196.563 319.739C197.975 321.15 198.423 322.99 197.566 323.847ZM189.106 268.089C200.145 268.089 209.094 277.556 209.094 289.232C209.094 300.908 200.145 310.375 189.106 310.375C178.068 310.375 169.118 300.908 169.118 289.232C169.118 277.556 178.068 268.089 189.106 268.089Z" fill="#BAADF4" stroke="black" stroke-width="2.31075" stroke-miterlimit="10"/>
<path d="M189.113 310.375C200.152 310.375 209.101 300.909 209.101 289.232C209.101 277.555 200.152 268.089 189.113 268.089C178.074 268.089 169.125 277.555 169.125 289.232C169.125 300.909 178.074 310.375 189.113 310.375Z" fill="white" stroke="black" stroke-width="2.31075" stroke-miterlimit="10"/>
<path d="M139.076 299.977C143.543 299.977 147.164 296.356 147.164 291.889C147.164 287.423 143.543 283.802 139.076 283.802C134.609 283.802 130.988 287.423 130.988 291.889C130.988 296.356 134.609 299.977 139.076 299.977Z" fill="black"/>
<path d="M192.459 298.59C196.925 298.59 200.546 294.97 200.546 290.503C200.546 286.036 196.925 282.415 192.459 282.415C187.992 282.415 184.371 286.036 184.371 290.503C184.371 294.97 187.992 298.59 192.459 298.59Z" fill="black"/>
<path d="M124.52 262.774C124.52 262.774 130.065 253.993 143.468 258.383" stroke="black" stroke-width="2.31075" stroke-miterlimit="10" stroke-linecap="round"/>
<path d="M186.68 250.065C186.68 250.065 201.7 246.063 200.544 259.964" stroke="black" stroke-width="2.31075" stroke-miterlimit="10" stroke-linecap="round"/>
<path d="M194.997 321.929C194.558 322.315 194.121 322.691 193.687 323.059C173.925 339.791 157.281 338.966 145.542 333.912C140.886 331.909 137.002 329.24 134 326.735" stroke="black" stroke-width="2.31075" stroke-miterlimit="10"/>
<path d="M133.995 326.731C131.391 324.556 129.452 322.509 128.253 321.132C127.317 320.055 126.832 319.387 126.832 319.387" stroke="black" stroke-width="2.31075" stroke-miterlimit="10"/>
<path d="M145.546 333.913C143.57 338.971 139.81 342.569 135.614 342.957C134.738 343.038 131.852 343.304 129.606 341.339C127.617 339.597 127.346 337.166 127.295 336.718C126.884 333.021 129.56 329.067 133.997 326.731C133.999 326.733 134.001 326.733 134.004 326.736C137.851 329.127 141.698 331.521 145.546 333.913Z" fill="#FFC400" stroke="black" stroke-width="2.31075" stroke-miterlimit="10"/>
<path d="M128.397 320.993C128.351 321.039 128.302 321.085 128.254 321.132C126.86 322.433 125.116 322.828 124.286 321.998C123.429 321.141 123.879 319.302 125.291 317.89C126.703 316.478 128.542 316.027 129.4 316.884C130.257 317.742 129.809 319.581 128.397 320.993Z" fill="black" stroke="black" stroke-width="2.31075" stroke-miterlimit="10"/>
<path d="M197.568 323.847C196.757 324.658 195.065 324.298 193.69 323.059C193.612 322.99 193.535 322.918 193.459 322.842C192.047 321.43 191.597 319.591 192.454 318.733C193.311 317.876 195.151 318.327 196.565 319.738C197.977 321.15 198.425 322.99 197.568 323.847Z" fill="black" stroke="black" stroke-width="2.31075" stroke-miterlimit="10"/>
<path d="M139.082 381.777V407.196" stroke="black" stroke-width="2.31075" stroke-miterlimit="10" stroke-linecap="round"/>
<path d="M139.076 329.892C139.076 329.892 136.65 331.842 133.992 337.111Z" fill="#FF0000"/>
<path d="M139.076 329.892C139.076 329.892 136.65 331.842 133.992 337.111" stroke="black" stroke-width="1.15537" stroke-miterlimit="10" stroke-linecap="round"/>
</g>
</g>
<rect x="29.1172" y="161.263" width="249.561" height="241.842" rx="9.76091" stroke="#2B2928" stroke-width="3.88726"/>
<defs>
<clipPath id="clip0_1569_4092">
<rect width="38.5919" height="34.3039" fill="white" transform="translate(29.1172 16.3672)"/>
</clipPath>
<clipPath id="clip1_1569_4092">
<rect x="29.1172" y="161.263" width="249.561" height="241.842" rx="9.76091" fill="white"/>
</clipPath>
<clipPath id="clip2_1569_4092">
<rect width="249.561" height="249.561" fill="white" transform="translate(29.5469 157.404)"/>
</clipPath>
</defs>
</svg>
