<svg width="27" height="25" viewBox="0 0 27 25" fill="none" xmlns="http://www.w3.org/2000/svg">
<path d="M14.3193 13.0558L26.009 8.83496" stroke="#0C2503" stroke-width="0.943279" stroke-linecap="round"/>
<path d="M23.0137 11.9736C23.7952 11.9736 24.4374 12.6094 24.3439 13.3852C24.0296 15.9923 22.8511 18.4352 20.9752 20.3111C18.7639 22.5223 15.7648 23.7646 12.6377 23.7646C9.5105 23.7646 6.51142 22.5223 4.30018 20.3111C2.42428 18.4352 1.24575 15.9923 0.931438 13.3852C0.837904 12.6094 1.48016 11.9736 2.2616 11.9736L12.6377 11.9736H23.0137Z" fill="#0C2503"/>
<path d="M1.52551 11.5176L1.50464 11.5434C1.19023 11.9325 1.46716 12.5123 1.9674 12.5123H24.0623C23.9211 12.5123 23.8066 12.3978 23.8066 12.2566V12.1457C23.8066 12.0312 23.7532 11.9234 23.6622 11.854L23.1569 11.4692C23.0808 11.4112 22.9878 11.3798 22.8922 11.3798H22.8208C22.6189 11.3798 22.4553 11.2161 22.4553 11.0143V10.5792C22.4553 10.2742 22.2546 10.0055 21.9622 9.91878L21.8462 9.88439C21.6225 9.8181 21.4691 9.61262 21.4691 9.37936C21.4691 9.17407 21.3498 8.98749 21.1635 8.9013L21.0655 8.85595C21.0182 8.83406 20.9735 8.80691 20.9322 8.77503L20.3488 8.32418C20.2491 8.24718 20.1908 8.12837 20.1908 8.00245C20.1908 7.91906 20.1651 7.83768 20.1173 7.76936L19.8077 7.32676C19.7273 7.21191 19.5959 7.1435 19.4558 7.1435C19.3006 7.1435 19.1575 7.05983 19.0815 6.92462L18.9582 6.70552C18.9042 6.60964 18.8759 6.5011 18.8759 6.39108C18.8759 6.24012 18.8224 6.09353 18.7248 5.97832C18.5708 5.79639 18.3283 5.71549 18.0959 5.76855L17.7963 5.83696C17.7128 5.85602 17.6274 5.86564 17.5417 5.86564H17.0497H16.2646C16.1334 5.86564 16.027 5.75927 16.027 5.62805C16.027 5.49682 15.9207 5.39045 15.7894 5.39045H15.7007C15.5859 5.39045 15.4796 5.3302 15.4207 5.23176L15.4051 5.20577C15.3378 5.09334 15.2163 5.02452 15.0853 5.02452C15.0088 5.02452 14.9342 5.00102 14.8716 4.9572L14.7852 4.89678C14.6664 4.81364 14.5248 4.76904 14.3797 4.76904H13.619C13.5483 4.76904 13.4817 4.80197 13.4388 4.85809L13.314 5.0215C13.2228 5.14089 13.0321 5.07638 13.0321 4.92613C13.0321 4.83937 12.9617 4.76904 12.875 4.76904H11.4981C11.256 4.76904 11.0598 4.96529 11.0598 5.20737V5.56008C11.0598 5.63606 11.0207 5.70671 10.9564 5.74711C10.8524 5.81239 10.7151 5.78034 10.6508 5.67576L10.5795 5.55982C10.5148 5.45457 10.4001 5.39045 10.2766 5.39045H9.45989C9.24484 5.39045 9.03861 5.47592 8.88661 5.62805L8.73997 5.7748C8.68186 5.83296 8.603 5.86564 8.52078 5.86564C8.34964 5.86564 8.21091 6.00438 8.21091 6.17551V6.23055C8.21091 6.4121 8.06374 6.55927 7.8822 6.55927H7.8456C7.68427 6.55927 7.55348 6.69005 7.55348 6.85138C7.55348 7.01271 7.4227 7.1435 7.26137 7.1435H6.10394C5.88258 7.1435 5.68964 7.29416 5.63598 7.50891C5.58231 7.72367 5.38937 7.87433 5.16801 7.87433H5.07387C4.82854 7.87433 4.60768 8.02298 4.51532 8.25025L4.25413 8.89293C4.21734 8.98346 4.12937 9.04266 4.03166 9.04266C3.89903 9.04266 3.79152 9.15018 3.79152 9.28281V9.62437C3.79152 9.88493 3.61826 10.1137 3.36745 10.1843L2.8059 10.3424C2.68893 10.3753 2.59055 10.4547 2.53366 10.5621L2.42372 10.7695C2.35524 10.8988 2.18825 10.9375 2.0699 10.8516C1.96928 10.7785 1.82958 10.7942 1.74766 10.8877L1.71138 10.9292C1.66333 10.984 1.63684 11.0545 1.63684 11.1274V11.2027C1.63684 11.3173 1.59755 11.4284 1.52551 11.5176Z" fill="#D6FBC4" stroke="#D6FBC4" stroke-width="0.351423" stroke-linecap="round"/>
<path d="M23.957 11.9736C24.2175 11.9736 24.4296 12.1849 24.4192 12.4452C24.301 15.401 23.075 18.2113 20.9752 20.3111C18.7639 22.5223 15.7648 23.7646 12.6377 23.7646C9.5105 23.7646 6.51142 22.5223 4.30018 20.3111C2.20035 18.2113 0.974317 15.401 0.856105 12.4452C0.845696 12.1849 1.05784 11.9736 1.31832 11.9736L12.6377 11.9736H23.957Z" fill="#0C2503"/>
<path d="M9.15137 22.3002H16.2131V22.8915V24.728H9.15184V22.8915L9.15137 22.3002Z" fill="#0C2503"/>
</svg>
