<svg width="26" height="27" viewBox="0 0 26 27" fill="none" xmlns="http://www.w3.org/2000/svg">
<path d="M3.9459 14.138L2.88121 9.51488C2.82644 9.27706 2.90407 9.02818 3.08433 8.86367L12.3007 0.4528C12.6741 0.112063 13.2757 0.286512 13.4088 0.774135L14.6468 5.30775C14.7139 5.55353 14.6372 5.81617 14.4483 5.98716L5.05865 14.4875C4.67592 14.834 4.06177 14.6411 3.9459 14.138Z" fill="#0C2503"/>
<path d="M3.20152 25.9808L2.36999 22.3701C2.32721 22.1844 2.38784 21.99 2.52863 21.8615L9.72661 15.2927C10.0182 15.0265 10.488 15.1628 10.592 15.5436L11.5589 19.0844C11.6114 19.2763 11.5514 19.4815 11.4039 19.615L4.07057 26.2538C3.77166 26.5244 3.292 26.3737 3.20152 25.9808Z" fill="#0C2503"/>
<path d="M14.9334 21.9337L14.4067 19.6463C14.3796 19.5287 14.418 19.4055 14.5072 19.3241L19.0671 15.1627C19.2518 14.9941 19.5495 15.0805 19.6154 15.3217L20.2279 17.5648C20.2611 17.6864 20.2231 17.8163 20.1297 17.9009L15.484 22.1066C15.2946 22.2781 14.9908 22.1826 14.9334 21.9337Z" fill="#0C2503"/>
</svg>
