<svg width="956" height="1207" viewBox="0 0 956 1207" fill="none" xmlns="http://www.w3.org/2000/svg">
<path d="M749.514 424.534L750.742 422.417L952.1 75.3403C964.224 54.4425 957.076 27.7243 936.136 15.6731C915.196 3.62187 888.385 10.7955 876.261 31.6933L674.902 378.77L673.674 380.887L749.514 424.534ZM884.789 65.1378C893.564 48.7008 908.569 39.5483 918.305 44.6954C928.053 49.8503 928.833 67.3635 920.06 83.811C911.296 100.245 896.28 109.401 886.545 104.253C876.796 99.0986 876.017 81.5854 884.789 65.1378Z" fill="#1C0D5F" stroke="black" stroke-width="1.12222" stroke-miterlimit="10"/>
<path d="M649.805 406.608L738.397 457.594L756.785 425.9L668.193 374.913L649.805 406.608Z" fill="#BAADF4" stroke="#1C0D5F" stroke-width="1.12222" stroke-miterlimit="10"/>
<path d="M422.953 394.872C224.545 447.958 106.588 651.277 159.49 848.997C212.392 1046.72 416.119 1163.96 614.528 1110.88C812.936 1057.79 930.892 854.474 877.99 656.755C825.089 459.035 621.361 341.786 422.953 394.872Z" fill="#E8E4FB" stroke="#A392F0" stroke-width="22.4444" stroke-miterlimit="10"/>
<path d="M424.08 433.047C250.253 479.556 146.911 657.685 193.259 830.908C239.606 1004.13 418.093 1106.85 591.92 1060.35C765.747 1013.84 869.089 835.707 822.741 662.484C776.394 489.26 597.907 386.538 424.08 433.047Z" fill="#E8E4FB"/>
<path d="M737.72 919.938C739.795 917.594 741.653 915.072 743.236 912.373C756.013 890.69 813.008 785.134 777.04 683.765C777.04 683.765 758.526 629.849 723.369 595.348C722.091 594.094 721.081 592.61 720.443 590.947C716.033 579.645 695.745 532.847 657.995 522.103C657.995 522.103 629.971 512.433 616.71 501.791C611.462 497.582 605.461 494.423 598.91 492.86C549.881 481.082 367.876 448.266 281.911 584.251C281.911 584.251 226.187 690.825 229.929 776.962C229.778 783.826 229.698 793.546 230.104 805.206C231.023 831.645 231.472 844.867 236.214 855.628C242.525 869.963 251.273 872.738 272.044 890.312C282.589 899.248 297.067 912.7 312.738 931.672C316.299 935.982 320.552 939.653 325.304 942.603C331.185 946.246 338.338 949.979 346.754 953.08C361.506 958.515 374.875 960.098 384.782 960.367C388.705 960.472 392.572 961.259 396.256 962.593C420.931 971.54 450.801 980.172 485.243 985.77C539.977 994.676 587.432 992.888 622.737 988.726C622.727 988.729 689.562 974.106 737.72 919.938Z" fill="#FBC333"/>
<path d="M736.969 876.683C736.969 876.683 645.824 977.434 569.809 977.697C569.809 977.697 395.098 995.314 317.812 884.72C317.812 884.72 220.459 796.742 262.041 676.275C262.041 676.275 295.852 552.23 407.689 524.57C407.689 524.57 570.888 480.904 637.013 541.296C637.013 541.296 737.642 609.431 763.306 687.439C763.306 687.439 792.784 788.191 736.969 876.683Z" fill="#F4C790"/>
<path d="M524.978 642.405C519.958 656.658 525.126 671.432 536.521 675.404C547.916 679.377 561.224 671.043 566.244 656.79C571.264 642.538 566.096 627.764 554.701 623.791C543.306 619.819 529.998 628.152 524.978 642.405Z" fill="#EDA145"/>
<path d="M523.186 766.285C519.973 775.407 524.73 785.368 533.81 788.533C542.891 791.699 552.857 786.871 556.07 777.749C559.283 768.627 554.526 758.667 545.446 755.501C536.365 752.335 526.399 757.164 523.186 766.285Z" fill="#EDA145"/>
<path d="M465.403 715.807C462.636 723.663 466.698 732.23 474.476 734.941C482.254 737.652 490.802 733.482 493.569 725.626C496.336 717.77 492.274 709.203 484.497 706.492C476.719 703.781 468.171 707.951 465.403 715.807Z" fill="#EDA145"/>
<path d="M628.949 694.678C626.182 702.534 630.202 711.086 637.928 713.779C645.655 716.473 654.161 712.288 656.928 704.432C659.696 696.576 655.676 688.024 647.949 685.33C640.223 682.637 631.716 686.822 628.949 694.678Z" fill="#EDA145"/>
<path d="M570.887 780.259C568.579 786.809 572.05 793.982 578.64 796.279C585.229 798.576 592.441 795.127 594.748 788.577C597.055 782.027 593.584 774.854 586.995 772.557C580.406 770.26 573.194 773.708 570.887 780.259Z" fill="#EDA145"/>
<path d="M487.661 583.589C485.707 589.136 488.612 595.198 494.15 597.129C499.687 599.059 505.76 596.127 507.714 590.58C509.668 585.033 506.763 578.971 501.225 577.041C495.688 575.11 489.615 578.042 487.661 583.589Z" fill="#EDA145"/>
<path d="M547.076 572.217C545.122 577.764 548.027 583.826 553.565 585.756C559.103 587.686 565.176 584.755 567.13 579.207C569.084 573.66 566.178 567.599 560.641 565.668C555.103 563.738 549.03 566.67 547.076 572.217Z" fill="#EDA145"/>
<path d="M617.717 605.91C615.655 611.765 618.871 618.215 624.9 620.317C630.929 622.419 637.488 619.376 639.55 613.521C641.613 607.666 638.397 601.216 632.368 599.114C626.339 597.013 619.78 600.055 617.717 605.91Z" fill="#EDA145"/>
<path d="M594.138 820.456C592.317 825.627 594.945 831.25 600.008 833.015C605.071 834.78 610.652 832.019 612.474 826.848C614.295 821.678 611.667 816.055 606.604 814.29C601.54 812.525 595.959 815.286 594.138 820.456Z" fill="#EDA145"/>
<path d="M653.696 768.526C653.134 770.123 654.156 771.932 655.979 772.567C657.802 773.203 659.736 772.424 660.298 770.828C660.86 769.232 659.838 767.422 658.015 766.787C656.192 766.151 654.258 766.93 653.696 768.526Z" fill="#EDA145"/>
<path d="M706.116 752.236C705.554 753.833 706.576 755.642 708.399 756.277C710.222 756.913 712.155 756.134 712.718 754.538C713.28 752.941 712.258 751.132 710.435 750.497C708.612 749.861 706.678 750.64 706.116 752.236Z" fill="#EDA145"/>
<path d="M690.156 695.297C689.274 697.8 690.51 700.509 692.916 701.347C695.322 702.186 697.987 700.837 698.869 698.334C699.75 695.832 698.514 693.123 696.109 692.284C693.703 691.445 691.038 692.794 690.156 695.297Z" fill="#EDA145"/>
<path d="M631.371 820.899C630.809 822.495 631.831 824.305 633.654 824.94C635.477 825.576 637.41 824.797 637.973 823.2C638.535 821.604 637.513 819.795 635.69 819.159C633.867 818.524 631.933 819.303 631.371 820.899Z" fill="#EDA145"/>
<path d="M684.108 825.346C683.691 826.532 684.649 827.946 686.249 828.503C687.849 829.061 689.485 828.552 689.903 827.366C690.321 826.181 689.362 824.767 687.762 824.209C686.162 823.651 684.526 824.161 684.108 825.346Z" fill="#EDA145"/>
</svg>
