<svg width="169" height="169" viewBox="0 0 169 169" fill="none" xmlns="http://www.w3.org/2000/svg">
<g clip-path="url(#clip0_1645_7162)">
<path d="M84.4588 2.6398C39.4119 2.6398 2.8942 39.1575 2.8942 84.2044C2.8942 129.251 39.4119 165.769 84.4588 165.769C129.506 165.769 166.023 129.251 166.023 84.2044C166.023 39.1575 129.506 2.6398 84.4588 2.6398Z" fill="#898483" stroke="#EDFAE7" stroke-width="4.81207" stroke-miterlimit="10"/>
<path d="M82.5368 10.8203C43.071 10.8203 11.0775 42.8137 11.0775 82.2796C11.0775 121.745 43.071 153.739 82.5368 153.739C122.003 153.739 153.996 121.745 153.996 82.2796C153.996 42.8137 122.003 10.8203 82.5368 10.8203Z" fill="#9F9C9C"/>
<path d="M121.387 132.181C121.96 131.8 122.496 131.37 122.985 130.886C126.921 127.003 144.981 107.803 143.106 84.2042C143.106 84.2042 142.24 71.688 136.747 62.3526C136.547 62.0133 136.417 61.6404 136.377 61.2506C136.083 58.5967 134.437 47.4929 127.048 43.061C127.048 43.061 121.659 39.411 119.453 36.3938C118.579 35.2004 117.487 34.1875 116.188 33.4825C106.467 28.1893 69.7654 10.8586 43.8428 34.8804C43.8428 34.8804 25.9948 54.3693 21.9046 72.8958C21.4835 74.3466 20.9157 76.4086 20.3406 78.9109C19.0366 84.5843 18.3821 87.421 18.7767 89.9787C19.3012 93.3856 20.9975 94.4731 24.402 99.3911C26.1296 101.891 28.4346 105.575 30.6794 110.5C31.1895 111.619 31.8824 112.641 32.7221 113.539C33.7615 114.648 35.0656 115.848 36.6728 116.986C39.4903 118.981 42.2332 120.078 44.3168 120.699C45.1421 120.944 45.9168 121.332 46.6218 121.825C51.3424 125.131 57.1819 128.665 64.1618 131.815C75.2536 136.822 85.4095 139.141 93.1256 140.265C93.1232 140.265 108.113 140.958 121.387 132.181Z" fill="#EDA145"/>
<path d="M123.678 122.942C123.678 122.942 98.6555 139.177 82.535 134.909C82.535 134.909 44.5197 128.716 34.4143 100.806C34.4143 100.806 18.7751 76.5628 34.4143 53.3156C34.4143 53.3156 48.6099 28.8655 73.8733 29.3467C73.8733 29.3467 110.926 29.3467 121.513 45.9484C121.513 45.9484 138.971 66.1591 139.986 84.2043C139.986 84.2043 140.521 107.302 123.678 122.942Z" fill="#F4C790"/>
<path d="M92.0389 61.072C90.1673 63.8167 90.4247 67.2518 92.6139 68.7446C94.803 70.2375 98.0949 69.2226 99.9666 66.478C101.838 63.7333 101.581 60.2981 99.3917 58.8053C97.2025 57.3125 93.9106 58.3273 92.0389 61.072Z" fill="#EDA145"/>
<path d="M84.6387 87.3084C83.4408 89.065 83.884 91.4534 85.6285 92.643C87.373 93.8326 89.7583 93.373 90.9561 91.6164C92.154 89.8598 91.7108 87.4714 89.9663 86.2818C88.2218 85.0922 85.8365 85.5518 84.6387 87.3084Z" fill="#EDA145"/>
<path d="M75.2601 73.2889C74.2285 74.8017 74.6034 76.8542 76.0976 77.8731C77.5918 78.892 79.6395 78.4916 80.6711 76.9787C81.7028 75.4659 81.3278 73.4134 79.8336 72.3945C78.3394 71.3756 76.2918 71.776 75.2601 73.2889Z" fill="#EDA145"/>
<path d="M111.104 78.1003C110.073 79.6132 110.44 81.6602 111.924 82.6723C113.408 83.6845 115.448 83.2786 116.48 81.7658C117.511 80.2529 117.144 78.206 115.66 77.1938C114.176 76.1816 112.136 76.5875 111.104 78.1003Z" fill="#EDA145"/>
<path d="M93.9561 92.9929C93.0959 94.2543 93.4247 95.9767 94.6906 96.8399C95.9564 97.7031 97.6799 97.3802 98.5401 96.1188C99.4003 94.8573 99.0715 93.135 97.8056 92.2718C96.5398 91.4086 94.8163 91.7314 93.9561 92.9929Z" fill="#EDA145"/>
<path d="M87.4692 46.4443C86.7407 47.5125 87.0126 48.9666 88.0765 49.6921C89.1403 50.4175 90.5932 50.1396 91.3217 49.0714C92.0501 48.0032 91.7782 46.5491 90.7144 45.8237C89.6505 45.0982 88.1976 45.3761 87.4692 46.4443Z" fill="#EDA145"/>
<path d="M100.704 47.4064C99.9751 48.4746 100.247 49.9287 101.311 50.6541C102.375 51.3795 103.828 51.1017 104.556 50.0334C105.284 48.9652 105.013 47.5112 103.949 46.7857C102.885 46.0603 101.432 46.3381 100.704 47.4064Z" fill="#EDA145"/>
<path d="M113.765 58.5884C112.996 59.7159 113.312 61.2702 114.47 62.0601C115.628 62.8499 117.191 62.5762 117.959 61.4486C118.728 60.3211 118.413 58.7668 117.254 57.977C116.096 57.1872 114.534 57.4609 113.765 58.5884Z" fill="#EDA145"/>
<path d="M96.6035 102.862C95.9245 103.858 96.1625 105.203 97.1352 105.866C98.1079 106.529 99.447 106.26 100.126 105.264C100.805 104.268 100.567 102.923 99.5942 102.26C98.6215 101.597 97.2825 101.866 96.6035 102.862Z" fill="#EDA145"/>
<path d="M112.169 95.2092C111.959 95.5166 112.073 95.9594 112.423 96.1982C112.773 96.4371 113.227 96.3815 113.437 96.0741C113.646 95.7667 113.532 95.3239 113.182 95.085C112.832 94.8462 112.378 94.9018 112.169 95.2092Z" fill="#EDA145"/>
<path d="M124.192 94.7276C123.982 95.035 124.096 95.4778 124.447 95.7167C124.797 95.9555 125.251 95.8999 125.46 95.5925C125.67 95.2851 125.556 94.8423 125.206 94.6035C124.855 94.3646 124.402 94.4202 124.192 94.7276Z" fill="#EDA145"/>
<path d="M124.04 81.7138C123.711 82.1958 123.819 82.842 124.282 83.1572C124.744 83.4724 125.385 83.3372 125.714 82.8552C126.042 82.3733 125.934 81.727 125.472 81.4119C125.01 81.0967 124.368 81.2319 124.04 81.7138Z" fill="#EDA145"/>
<path d="M104.465 105.074C104.256 105.381 104.37 105.824 104.72 106.063C105.07 106.302 105.524 106.246 105.734 105.939C105.943 105.632 105.829 105.189 105.479 104.95C105.129 104.711 104.675 104.767 104.465 105.074Z" fill="#EDA145"/>
<path d="M115.386 109.02C115.23 109.248 115.353 109.603 115.661 109.813C115.968 110.022 116.344 110.007 116.499 109.779C116.655 109.55 116.532 109.195 116.225 108.986C115.917 108.776 115.542 108.791 115.386 109.02Z" fill="#EDA145"/>
</g>
<defs>
<clipPath id="clip0_1645_7162">
<rect width="168.303" height="168.089" fill="white" transform="matrix(-1 0 0 -1 168.617 168.269)"/>
</clipPath>
</defs>
</svg>
