<svg width="245" height="246" viewBox="0 0 245 246" fill="none" xmlns="http://www.w3.org/2000/svg">
<path d="M191.588 26.5633L214.746 49.7215L223.048 41.4199L199.89 18.2617L191.588 26.5633Z" fill="#898483" stroke="black" stroke-width="0.350877" stroke-miterlimit="10"/>
<path d="M122.467 4.10519C56.7738 4.10519 3.51926 57.3598 3.51926 123.053C3.51926 188.745 56.7738 242 122.467 242C188.16 242 241.414 188.745 241.414 123.053C241.414 57.3598 188.16 4.10519 122.467 4.10519Z" fill="#898483" stroke="#EDFAE7" stroke-width="7.01755" stroke-miterlimit="10"/>
<path d="M119.661 16.035C62.1067 16.035 15.45 62.6917 15.45 120.246C15.45 177.799 62.1067 224.456 119.661 224.456C177.214 224.456 223.871 177.799 223.871 120.246C223.871 62.6917 177.214 16.035 119.661 16.035Z" fill="#9F9C9C"/>
<path d="M176.319 193.018C177.155 192.463 177.937 191.835 178.649 191.13C184.39 185.467 210.726 157.467 207.993 123.053C207.993 123.053 206.73 104.8 198.719 91.1859C198.428 90.6912 198.239 90.1473 198.179 89.5789C197.751 85.7087 195.351 69.5158 184.576 63.0526C184.576 63.0526 176.716 57.7298 173.498 53.3298C172.225 51.5894 170.632 50.1122 168.737 49.0842C154.562 41.3649 101.039 16.0912 63.2352 51.1228C63.2352 51.1228 37.2072 79.5438 31.2422 106.561C30.6282 108.677 29.8001 111.684 28.9615 115.333C27.0598 123.607 26.1054 127.744 26.6808 131.474C27.4457 136.442 29.9194 138.028 34.8844 145.2C37.4037 148.846 40.7651 154.218 44.0387 161.4C44.7826 163.032 45.7931 164.523 47.0177 165.832C48.5335 167.449 50.4352 169.2 52.7791 170.86C56.8879 173.768 60.8879 175.368 63.9265 176.274C65.13 176.632 66.2598 177.196 67.2879 177.916C74.1721 182.737 82.6879 187.891 92.8668 192.484C109.042 199.786 123.853 203.168 135.105 204.807C135.102 204.807 156.962 205.818 176.319 193.018Z" fill="#EDA145"/>
<path d="M179.66 179.544C179.66 179.544 143.169 203.221 119.66 196.996C119.66 196.996 64.2215 187.965 49.4846 147.263C49.4846 147.263 26.6776 111.909 49.4846 78.007C49.4846 78.007 70.1864 42.3508 107.028 43.0526C107.028 43.0526 161.064 43.0526 176.502 67.2631C176.502 67.2631 201.962 96.7368 203.443 123.053C203.443 123.053 204.221 156.737 179.66 179.544Z" fill="#F4C790"/>
<path d="M133.528 89.3182C130.799 93.3208 131.174 98.3304 134.367 100.507C137.559 102.684 142.36 101.204 145.089 97.2019C147.819 93.1993 147.443 88.1897 144.251 86.0127C141.058 83.8357 136.258 85.3156 133.528 89.3182Z" fill="#EDA145"/>
<path d="M122.734 127.579C120.987 130.141 121.633 133.624 124.177 135.359C126.721 137.094 130.2 136.423 131.946 133.862C133.693 131.3 133.047 127.817 130.503 126.082C127.959 124.347 124.48 125.018 122.734 127.579Z" fill="#EDA145"/>
<path d="M109.053 107.134C107.548 109.341 108.095 112.334 110.274 113.82C112.453 115.306 115.439 114.722 116.944 112.515C118.448 110.309 117.902 107.316 115.722 105.83C113.543 104.344 110.557 104.928 109.053 107.134Z" fill="#EDA145"/>
<path d="M161.332 114.151C159.827 116.357 160.362 119.342 162.527 120.818C164.692 122.294 167.666 121.703 169.17 119.496C170.675 117.29 170.14 114.305 167.975 112.829C165.811 111.353 162.836 111.945 161.332 114.151Z" fill="#EDA145"/>
<path d="M136.313 135.869C135.059 137.709 135.538 140.22 137.384 141.479C139.23 142.738 141.744 142.267 142.998 140.428C144.253 138.588 143.773 136.076 141.927 134.817C140.081 133.559 137.568 134.029 136.313 135.869Z" fill="#EDA145"/>
<path d="M126.861 67.986C125.798 69.5439 126.195 71.6644 127.746 72.7223C129.298 73.7802 131.417 73.375 132.479 71.8172C133.541 70.2593 133.145 68.1389 131.593 67.0809C130.042 66.023 127.923 66.4282 126.861 67.986Z" fill="#EDA145"/>
<path d="M146.158 69.3891C145.095 70.9469 145.492 73.0674 147.043 74.1254C148.595 75.1833 150.713 74.7781 151.776 73.2203C152.838 71.6624 152.442 69.542 150.89 68.484C149.339 67.4261 147.22 67.8313 146.158 69.3891Z" fill="#EDA145"/>
<path d="M165.197 85.6961C164.076 87.3404 164.536 89.6071 166.225 90.7589C167.914 91.9108 170.192 91.5115 171.314 89.8673C172.435 88.223 171.974 85.9563 170.285 84.8045C168.596 83.6527 166.318 84.0519 165.197 85.6961Z" fill="#EDA145"/>
<path d="M140.176 150.261C139.185 151.714 139.532 153.675 140.951 154.642C142.37 155.61 144.322 155.216 145.312 153.764C146.303 152.312 145.956 150.351 144.537 149.384C143.118 148.416 141.166 148.809 140.176 150.261Z" fill="#EDA145"/>
<path d="M162.874 139.101C162.569 139.549 162.735 140.195 163.246 140.543C163.756 140.892 164.418 140.811 164.724 140.362C165.03 139.914 164.863 139.268 164.353 138.92C163.842 138.572 163.18 138.653 162.874 139.101Z" fill="#EDA145"/>
<path d="M180.417 138.399C180.112 138.847 180.278 139.493 180.789 139.841C181.299 140.19 181.961 140.108 182.267 139.66C182.572 139.212 182.406 138.566 181.896 138.218C181.385 137.87 180.723 137.951 180.417 138.399Z" fill="#EDA145"/>
<path d="M180.191 119.42C179.712 120.123 179.87 121.066 180.544 121.525C181.218 121.985 182.153 121.788 182.632 121.085C183.111 120.382 182.954 119.44 182.28 118.98C181.606 118.52 180.671 118.718 180.191 119.42Z" fill="#EDA145"/>
<path d="M151.648 153.487C151.342 153.936 151.508 154.581 152.019 154.93C152.53 155.278 153.192 155.197 153.497 154.748C153.803 154.3 153.637 153.654 153.126 153.306C152.615 152.958 151.953 153.039 151.648 153.487Z" fill="#EDA145"/>
<path d="M167.575 159.241C167.348 159.574 167.527 160.092 167.975 160.398C168.424 160.703 168.971 160.681 169.198 160.348C169.425 160.015 169.246 159.498 168.798 159.192C168.349 158.886 167.802 158.908 167.575 159.241Z" fill="#EDA145"/>
</svg>
