<svg width="18" height="18" viewBox="0 0 18 18" fill="none" xmlns="http://www.w3.org/2000/svg">
<path fill-rule="evenodd" clip-rule="evenodd" d="M5.8763 6.50033C5.8763 4.77444 7.27541 3.37533 9.0013 3.37533C10.7272 3.37533 12.1263 4.77444 12.1263 6.50033C12.1263 8.22622 10.7272 9.62533 9.0013 9.62533C7.27541 9.62533 5.8763 8.22622 5.8763 6.50033ZM9.0013 4.62533C7.96577 4.62533 7.1263 5.46479 7.1263 6.50033C7.1263 7.53586 7.96577 8.37533 9.0013 8.37533C10.0368 8.37533 10.8763 7.53586 10.8763 6.50033C10.8763 5.46479 10.0368 4.62533 9.0013 4.62533Z" fill="#0C2503" stroke-width="2"/>
<path fill-rule="evenodd" clip-rule="evenodd" d="M0.0429688 9.00033C0.0429688 4.05278 4.05375 0.0419922 9.0013 0.0419922C13.9489 0.0419922 17.9596 4.05278 17.9596 9.00033C17.9596 13.9479 13.9489 17.9587 9.0013 17.9587C4.05375 17.9587 0.0429688 13.9479 0.0429688 9.00033ZM9.0013 1.29199C4.74411 1.29199 1.29297 4.74313 1.29297 9.00033C1.29297 11.1216 2.14986 13.0428 3.53639 14.4366C3.68672 13.6257 3.98209 12.8611 4.57494 12.2462C5.46174 11.3266 6.87977 10.8753 9.00126 10.8753C11.1227 10.8753 12.5408 11.3266 13.4276 12.2462C14.0205 12.8611 14.3158 13.6257 14.4661 14.4367C15.8527 13.0429 16.7096 11.1217 16.7096 9.00033C16.7096 4.74313 13.2585 1.29199 9.0013 1.29199ZM13.3294 15.3798C13.2445 14.3699 13.0252 13.6297 12.5278 13.1139C11.9865 12.5526 10.9837 12.1253 9.00126 12.1253C7.0188 12.1253 6.01598 12.5526 5.47476 13.1139C4.97736 13.6297 4.75806 14.3699 4.67316 15.3798C5.907 16.2185 7.39691 16.7087 9.0013 16.7087C10.6057 16.7087 12.0955 16.2185 13.3294 15.3798Z" stroke-width="2" fill="#0C2503" />
</svg>
