<svg width="21" height="19" viewBox="0 0 21 19" fill="none" xmlns="http://www.w3.org/2000/svg">
<path d="M12.1877 7.49462L19.2712 4.91345" stroke="#0C2503" stroke-width="1.73913" stroke-linecap="round"/>
<mask id="path-2-outside-1_1583_10954" maskUnits="userSpaceOnUse" x="0.197754" y="5.44971" width="18" height="12" fill="black">
<rect fill="white" x="0.197754" y="5.44971" width="18" height="12"/>
<path d="M15.2113 7.6603C15.9161 7.6603 16.4989 8.23599 16.3758 8.92997C16.1205 10.3707 15.4343 11.7098 14.3948 12.759C13.0549 14.1112 11.2375 14.8709 9.3426 14.8709C7.44767 14.8709 5.63035 14.1112 4.29043 12.759C3.25087 11.7098 2.56473 10.3707 2.30936 8.92997C2.18635 8.23599 2.76911 7.6603 3.47391 7.6603L9.3426 7.6603H15.2113Z"/>
</mask>
<path d="M15.2113 7.6603C15.9161 7.6603 16.4989 8.23599 16.3758 8.92997C16.1205 10.3707 15.4343 11.7098 14.3948 12.759C13.0549 14.1112 11.2375 14.8709 9.3426 14.8709C7.44767 14.8709 5.63035 14.1112 4.29043 12.759C3.25087 11.7098 2.56473 10.3707 2.30936 8.92997C2.18635 8.23599 2.76911 7.6603 3.47391 7.6603L9.3426 7.6603H15.2113Z" stroke="#0C2503" stroke-width="3.47826" mask="url(#path-2-outside-1_1583_10954)"/>
<mask id="path-3-outside-2_1583_10954" maskUnits="userSpaceOnUse" x="0.122192" y="1.25403" width="18" height="9" fill="black">
<rect fill="white" x="0.122192" y="1.25403" width="18" height="9"/>
<path d="M2.60905 7.38127L2.59673 7.39666C2.40555 7.63542 2.57554 7.9893 2.88141 7.9893H16.2656C16.1801 7.9893 16.1107 7.91994 16.1107 7.83437V7.76468C16.1107 7.69491 16.0783 7.62911 16.023 7.58659L15.7172 7.35148C15.671 7.31598 15.6144 7.29673 15.5561 7.29673H15.5154C15.3919 7.29673 15.2918 7.19665 15.2918 7.0732V6.8045C15.2918 6.61943 15.1704 6.4563 14.993 6.40327L14.9248 6.38285C14.788 6.34193 14.6943 6.21606 14.6943 6.07326C14.6943 5.94772 14.6216 5.83355 14.5078 5.78045L14.45 5.75345C14.4211 5.73997 14.3939 5.72327 14.3687 5.70368L14.016 5.4286C13.9552 5.38118 13.9196 5.30838 13.9196 5.23127C13.9196 5.18032 13.9041 5.13058 13.8751 5.0887L13.6871 4.81752C13.6387 4.74772 13.5591 4.70609 13.4742 4.70609C13.3803 4.70609 13.2937 4.65524 13.248 4.57322L13.1728 4.43839C13.1401 4.37965 13.1229 4.31249 13.1229 4.24523C13.1229 4.15405 13.0908 4.06437 13.0322 3.99451C12.9384 3.88278 12.79 3.83306 12.6479 3.86581L12.4688 3.90707C12.4181 3.91874 12.3663 3.92464 12.3143 3.92464H12.0163H11.5419C11.4617 3.92464 11.3966 3.85958 11.3966 3.77934C11.3966 3.69909 11.3315 3.63404 11.2513 3.63404H11.1992C11.1295 3.63404 11.0649 3.5973 11.0294 3.53736L11.0192 3.52025C10.9788 3.45206 10.9054 3.41026 10.8261 3.41026C10.7797 3.41026 10.7344 3.3959 10.6965 3.36915L10.6441 3.33214C10.5721 3.28132 10.4861 3.25403 10.398 3.25403H9.93769C9.89474 3.25403 9.85426 3.27415 9.82833 3.3084L9.75349 3.40724C9.6982 3.48027 9.58178 3.44117 9.58178 3.34957C9.58178 3.2968 9.539 3.25403 9.48624 3.25403H8.6547C8.50666 3.25403 8.38665 3.37404 8.38665 3.52208V3.73889C8.38665 3.78469 8.36321 3.8273 8.32452 3.85181C8.26138 3.89182 8.1777 3.87229 8.1388 3.80845L8.09551 3.73739C8.0564 3.6732 7.98668 3.63404 7.91152 3.63404H7.41812C7.28728 3.63404 7.16186 3.68635 7.0698 3.77934L6.98094 3.86908C6.94574 3.90464 6.89779 3.92464 6.84776 3.92464C6.74426 3.92464 6.66036 4.00854 6.66036 4.11205V4.14962C6.66036 4.25963 6.57118 4.34881 6.46117 4.34881H6.44062C6.34196 4.34881 6.26198 4.42879 6.26198 4.52745C6.26198 4.62611 6.182 4.70609 6.08334 4.70609H5.38559C5.25036 4.70609 5.13255 4.79829 5.10005 4.92955C5.06755 5.06082 4.94974 5.15302 4.81451 5.15302H4.7596C4.61093 5.15302 4.47718 5.24335 4.42164 5.38125L4.2625 5.77646C4.24035 5.83146 4.187 5.86749 4.1277 5.86749C4.04744 5.86749 3.98238 5.93255 3.98238 6.01281V6.22361C3.98238 6.3828 3.87673 6.52266 3.7236 6.56617L3.38535 6.66228C3.31435 6.68245 3.25474 6.73086 3.22042 6.79621L3.15322 6.92418C3.11202 7.00265 3.01069 7.0261 2.9392 6.97373C2.87835 6.92915 2.79348 6.93869 2.74404 6.99566L2.7214 7.02174C2.6926 7.05493 2.67674 7.09739 2.67674 7.14134V7.18842C2.67674 7.25853 2.65287 7.32655 2.60905 7.38127Z"/>
</mask>
<path d="M2.60905 7.38127L2.59673 7.39666C2.40555 7.63542 2.57554 7.9893 2.88141 7.9893H16.2656C16.1801 7.9893 16.1107 7.91994 16.1107 7.83437V7.76468C16.1107 7.69491 16.0783 7.62911 16.023 7.58659L15.7172 7.35148C15.671 7.31598 15.6144 7.29673 15.5561 7.29673H15.5154C15.3919 7.29673 15.2918 7.19665 15.2918 7.0732V6.8045C15.2918 6.61943 15.1704 6.4563 14.993 6.40327L14.9248 6.38285C14.788 6.34193 14.6943 6.21606 14.6943 6.07326C14.6943 5.94772 14.6216 5.83355 14.5078 5.78045L14.45 5.75345C14.4211 5.73997 14.3939 5.72327 14.3687 5.70368L14.016 5.4286C13.9552 5.38118 13.9196 5.30838 13.9196 5.23127C13.9196 5.18032 13.9041 5.13058 13.8751 5.0887L13.6871 4.81752C13.6387 4.74772 13.5591 4.70609 13.4742 4.70609C13.3803 4.70609 13.2937 4.65524 13.248 4.57322L13.1728 4.43839C13.1401 4.37965 13.1229 4.31249 13.1229 4.24523C13.1229 4.15405 13.0908 4.06437 13.0322 3.99451C12.9384 3.88278 12.79 3.83306 12.6479 3.86581L12.4688 3.90707C12.4181 3.91874 12.3663 3.92464 12.3143 3.92464H12.0163H11.5419C11.4617 3.92464 11.3966 3.85958 11.3966 3.77934C11.3966 3.69909 11.3315 3.63404 11.2513 3.63404H11.1992C11.1295 3.63404 11.0649 3.5973 11.0294 3.53736L11.0192 3.52025C10.9788 3.45206 10.9054 3.41026 10.8261 3.41026C10.7797 3.41026 10.7344 3.3959 10.6965 3.36915L10.6441 3.33214C10.5721 3.28132 10.4861 3.25403 10.398 3.25403H9.93769C9.89474 3.25403 9.85426 3.27415 9.82833 3.3084L9.75349 3.40724C9.6982 3.48027 9.58178 3.44117 9.58178 3.34957C9.58178 3.2968 9.539 3.25403 9.48624 3.25403H8.6547C8.50666 3.25403 8.38665 3.37404 8.38665 3.52208V3.73889C8.38665 3.78469 8.36321 3.8273 8.32452 3.85181C8.26138 3.89182 8.1777 3.87229 8.1388 3.80845L8.09551 3.73739C8.0564 3.6732 7.98668 3.63404 7.91152 3.63404H7.41812C7.28728 3.63404 7.16186 3.68635 7.0698 3.77934L6.98094 3.86908C6.94574 3.90464 6.89779 3.92464 6.84776 3.92464C6.74426 3.92464 6.66036 4.00854 6.66036 4.11205V4.14962C6.66036 4.25963 6.57118 4.34881 6.46117 4.34881H6.44062C6.34196 4.34881 6.26198 4.42879 6.26198 4.52745C6.26198 4.62611 6.182 4.70609 6.08334 4.70609H5.38559C5.25036 4.70609 5.13255 4.79829 5.10005 4.92955C5.06755 5.06082 4.94974 5.15302 4.81451 5.15302H4.7596C4.61093 5.15302 4.47718 5.24335 4.42164 5.38125L4.2625 5.77646C4.24035 5.83146 4.187 5.86749 4.1277 5.86749C4.04744 5.86749 3.98238 5.93255 3.98238 6.01281V6.22361C3.98238 6.3828 3.87673 6.52266 3.7236 6.56617L3.38535 6.66228C3.31435 6.68245 3.25474 6.73086 3.22042 6.79621L3.15322 6.92418C3.11202 7.00265 3.01069 7.0261 2.9392 6.97373C2.87835 6.92915 2.79348 6.93869 2.74404 6.99566L2.7214 7.02174C2.6926 7.05493 2.67674 7.09739 2.67674 7.14134V7.18842C2.67674 7.25853 2.65287 7.32655 2.60905 7.38127Z" fill="#0C2503"/>
<path d="M2.59673 7.39666L3.95429 8.48367L3.9543 8.48366L2.59673 7.39666ZM2.60905 7.38127L1.25149 6.29425L1.25148 6.29427L2.60905 7.38127ZM2.7214 7.02174L4.03489 8.16162L4.03489 8.16162L2.7214 7.02174ZM2.74404 6.99566L1.43055 5.85578L1.43055 5.85578L2.74404 6.99566ZM3.15322 6.92418L1.61346 6.11565L1.61346 6.11565L3.15322 6.92418ZM3.22042 6.79621L4.76018 7.60474L4.76018 7.60474L3.22042 6.79621ZM3.38535 6.66228L2.91003 4.98936L2.91003 4.98936L3.38535 6.66228ZM3.7236 6.56617L3.24827 4.89326L3.24827 4.89326L3.7236 6.56617ZM4.2625 5.77646L2.64926 5.12682L2.64926 5.12682L4.2625 5.77646ZM4.42164 5.38125L6.03488 6.0309L6.03488 6.03089L4.42164 5.38125ZM6.98094 3.86908L8.21681 5.09269L8.21681 5.09269L6.98094 3.86908ZM7.0698 3.77934L5.83393 2.55573L5.83393 2.55573L7.0698 3.77934ZM8.09551 3.73739L9.58069 2.8325L9.58068 2.8325L8.09551 3.73739ZM8.1388 3.80845L6.65362 4.71333L6.65363 4.71334L8.1388 3.80845ZM9.75349 3.40724L11.14 4.45703L11.14 4.45703L9.75349 3.40724ZM9.82833 3.3084L8.44178 2.25861L8.44178 2.25861L9.82833 3.3084ZM10.6441 3.33214L9.64117 4.75294L9.64117 4.75295L10.6441 3.33214ZM10.6965 3.36915L11.6995 1.94835L11.6995 1.94834L10.6965 3.36915ZM11.0192 3.52025L12.5149 2.63275L12.5149 2.63273L11.0192 3.52025ZM11.0294 3.53736L9.53375 4.42486L9.53376 4.42487L11.0294 3.53736ZM12.4688 3.90707L12.0783 2.21235L12.0783 2.21235L12.4688 3.90707ZM12.6479 3.86581L12.2574 2.17108L12.2574 2.17108L12.6479 3.86581ZM13.1728 4.43839L11.6538 5.28526L11.6538 5.28527L13.1728 4.43839ZM13.248 4.57322L11.729 5.42009L11.729 5.4201L13.248 4.57322ZM13.6871 4.81752L15.1163 3.82665L15.1163 3.82664L13.6871 4.81752ZM13.8751 5.0887L12.4458 6.07957L12.4458 6.07959L13.8751 5.0887ZM14.016 5.4286L12.9465 6.80001L12.9465 6.80001L14.016 5.4286ZM14.3687 5.70368L15.4382 4.33227L15.4382 4.33226L14.3687 5.70368ZM14.45 5.75345L15.1857 4.17761L15.1857 4.1776L14.45 5.75345ZM14.5078 5.78045L13.7721 7.35629L13.7721 7.35629L14.5078 5.78045ZM14.9248 6.38285L14.4264 8.04904L14.4264 8.04904L14.9248 6.38285ZM14.993 6.40327L15.4915 4.73708L15.4915 4.73708L14.993 6.40327ZM15.7172 7.35148L14.6572 8.73027H14.6572L15.7172 7.35148ZM16.023 7.58659L17.083 6.20781L17.083 6.20781L16.023 7.58659ZM13.0322 3.99451L14.3646 2.87682L14.3646 2.87681L13.0322 3.99451ZM8.32452 3.85181L9.25538 5.32085L9.25539 5.32085L8.32452 3.85181ZM5.10005 4.92955L6.7882 5.34754V5.34754L5.10005 4.92955ZM2.9392 6.97373L3.96698 5.57079L3.96698 5.57079L2.9392 6.97373ZM3.9543 8.48366L3.96662 8.46828L1.25148 6.29427L1.23916 6.30965L3.9543 8.48366ZM4.41587 7.18842V7.14134H0.937613V7.18842H4.41587ZM4.03489 8.16162L4.05752 8.13554L1.43055 5.85578L1.40792 5.88186L4.03489 8.16162ZM4.69298 7.73271L4.76018 7.60474L1.68066 5.98768L1.61346 6.11565L4.69298 7.73271ZM3.86067 8.33519L4.19892 8.23908L3.24827 4.89326L2.91003 4.98936L3.86067 8.33519ZM5.72152 6.22361V6.01281H2.24325V6.22361H5.72152ZM5.87573 6.4261L6.03488 6.0309L2.80841 4.73161L2.64926 5.12682L5.87573 6.4261ZM4.7596 6.89215H4.81451V3.41389H4.7596V6.89215ZM5.38559 6.44522H6.08334V2.96696H5.38559V6.44522ZM6.44062 6.08794H6.46117V2.60968H6.44062V6.08794ZM8.39949 4.14962V4.11205H4.92123V4.14962H8.39949ZM8.21681 5.09269L8.30567 5.00294L5.83393 2.55573L5.74507 2.64548L8.21681 5.09269ZM7.41812 5.37317H7.91152V1.89491H7.41812V5.37317ZM6.61033 4.64227L6.65362 4.71333L9.62398 2.90356L9.58069 2.8325L6.61033 4.64227ZM10.1258 3.73889V3.52208H6.64752V3.73889H10.1258ZM8.6547 4.99316H9.48624V1.5149H8.6547V4.99316ZM11.14 4.45703L11.2149 4.35819L8.44178 2.25861L8.36694 2.35745L11.14 4.45703ZM9.93769 4.99316H10.398V1.5149H9.93769V4.99316ZM9.64117 4.75295L9.69359 4.78995L11.6995 1.94834L11.6471 1.91134L9.64117 4.75295ZM9.52359 4.40774L9.53375 4.42486L12.525 2.64987L12.5149 2.63275L9.52359 4.40774ZM11.1992 5.37317H11.2513V1.89491H11.1992V5.37317ZM11.5419 5.66377H12.0163V2.18551H11.5419V5.66377ZM12.0163 5.66377H12.3143V2.18551H12.0163V5.66377ZM12.8593 5.60179L13.0384 5.56053L12.2574 2.17108L12.0783 2.21235L12.8593 5.60179ZM11.6538 5.28527L11.729 5.42009L14.767 3.72634L14.6918 3.59152L11.6538 5.28527ZM12.2578 5.80839L12.4458 6.07957L15.3043 4.09783L15.1163 3.82665L12.2578 5.80839ZM12.9465 6.80001L13.2993 7.0751L15.4382 4.33226L15.0855 4.05718L12.9465 6.80001ZM13.7143 7.32929L13.7721 7.35629L15.2436 4.20461L15.1857 4.17761L13.7143 7.32929ZM14.4264 8.04904L14.4946 8.06945L15.4915 4.73708L15.4232 4.71667L14.4264 8.04904ZM13.5527 6.8045V7.0732H17.031V6.8045H13.5527ZM15.5154 9.03586H15.5561V5.5576H15.5154V9.03586ZM14.6572 8.73027L14.963 8.96538L17.083 6.20781L16.7771 5.9727L14.6572 8.73027ZM14.3716 7.76468V7.83437H17.8498V7.76468H14.3716ZM16.2656 6.25017H2.88141V9.72843H16.2656V6.25017ZM13.5527 7.0732C13.5527 8.15715 14.4314 9.03586 15.5154 9.03586V5.5576C16.3524 5.5576 17.031 6.23615 17.031 7.0732H13.5527ZM14.4946 8.06945C13.9357 7.90224 13.5527 7.38796 13.5527 6.8045H17.031C17.031 5.85091 16.4051 5.01037 15.4915 4.73708L14.4946 8.06945ZM12.9551 6.07326C12.9551 6.98458 13.5533 7.78786 14.4264 8.04904L15.4232 4.71667C16.0227 4.89599 16.4334 5.44753 16.4334 6.07326H12.9551ZM13.7721 7.35629C13.2737 7.1236 12.9551 6.62331 12.9551 6.07326H16.4334C16.4334 5.27214 15.9694 4.54351 15.2435 4.2046L13.7721 7.35629ZM13.2992 7.07509C13.4276 7.17517 13.5668 7.26045 13.7143 7.3293L15.1857 4.1776C15.2754 4.21949 15.3602 4.27138 15.4382 4.33227L13.2992 7.07509ZM12.1805 5.23127C12.1805 5.84428 12.4631 6.42305 12.9465 6.80001L15.0855 4.05719C15.4473 4.33931 15.6588 4.77248 15.6588 5.23127H12.1805ZM12.4458 6.07959C12.2731 5.83042 12.1805 5.53445 12.1805 5.23127H15.6588C15.6588 4.82619 15.5351 4.43074 15.3043 4.09782L12.4458 6.07959ZM13.4742 6.44522C12.9889 6.44522 12.5343 6.20726 12.2578 5.8084L15.1163 3.82664C14.743 3.28819 14.1294 2.96696 13.4742 2.96696V6.44522ZM11.729 5.4201C12.0818 6.05295 12.7496 6.44522 13.4742 6.44522V2.96696C14.011 2.96696 14.5056 3.25754 14.767 3.72633L11.729 5.4201ZM11.3838 4.24523C11.3838 4.60433 11.4745 4.96362 11.6538 5.28526L14.6918 3.59153C14.8057 3.79567 14.862 4.02064 14.862 4.24523H11.3838ZM11.6998 5.1122C11.4915 4.86389 11.3838 4.55627 11.3838 4.24523H14.862C14.862 3.75182 14.6901 3.26486 14.3646 2.87682L11.6998 5.1122ZM13.0384 5.56053C12.5434 5.67459 12.0262 5.50139 11.6998 5.11221L14.3646 2.87681C13.8507 2.26418 13.0366 1.99153 12.2574 2.17108L13.0384 5.56053ZM12.3143 5.66377C12.4977 5.66377 12.6805 5.64298 12.8593 5.60179L12.0783 2.21235C12.1557 2.19451 12.2349 2.18551 12.3143 2.18551V5.66377ZM9.65747 3.77934C9.65747 4.82008 10.5012 5.66377 11.5419 5.66377V2.18551C12.4221 2.18551 13.1357 2.89909 13.1357 3.77934H9.65747ZM11.2513 5.37317C10.3711 5.37317 9.65747 4.65959 9.65747 3.77934H13.1357C13.1357 2.73859 12.292 1.89491 11.2513 1.89491V5.37317ZM9.53376 4.42487C9.88261 5.01276 10.5156 5.37317 11.1992 5.37317V1.89491C11.7434 1.89491 12.2473 2.18183 12.525 2.64985L9.53376 4.42487ZM10.8261 5.14939C10.2914 5.14939 9.79643 4.86752 9.52361 4.40776L12.5149 2.63273C12.1611 2.0366 11.5193 1.67113 10.8261 1.67113V5.14939ZM9.69358 4.78994C10.0249 5.02383 10.4205 5.14939 10.8261 5.14939V1.67113C11.1388 1.67113 11.4439 1.76797 11.6995 1.94835L9.69358 4.78994ZM10.398 4.99316C10.127 4.99316 9.86259 4.90925 9.64117 4.75294L11.6471 1.91134C11.2816 1.65339 10.8453 1.5149 10.398 1.5149V4.99316ZM11.2149 4.3582C10.9121 4.75815 10.4394 4.99316 9.93769 4.99316V1.5149C9.35011 1.5149 8.79646 1.79016 8.44178 2.25861L11.2149 4.3582ZM7.84265 3.34957C7.84265 5.1085 10.0783 5.85935 11.14 4.45703L8.36695 2.35745C9.3181 1.10118 11.3209 1.77383 11.3209 3.34957H7.84265ZM10.1258 3.52208C10.1258 4.33454 9.46716 4.99316 8.6547 4.99316V1.5149C7.54617 1.5149 6.64752 2.41354 6.64752 3.52208H10.1258ZM9.25539 5.32085C9.79734 4.97743 10.1258 4.38049 10.1258 3.73889H6.64752C6.64752 3.18889 6.92907 2.67717 7.39365 2.38278L9.25539 5.32085ZM6.65363 4.71334C7.1985 5.60763 8.37081 5.88137 9.25538 5.32085L7.39366 2.38278C8.15195 1.90228 9.15689 2.13694 9.62398 2.90356L6.65363 4.71334ZM7.91152 5.37317C7.38 5.37317 6.88689 5.09618 6.61033 4.64227L9.58068 2.8325C9.22592 2.25022 8.59336 1.89491 7.91152 1.89491V5.37317ZM8.30566 5.00294C8.07109 5.23987 7.75153 5.37317 7.41812 5.37317V1.89491C6.82302 1.89491 6.25263 2.13284 5.83393 2.55573L8.30566 5.00294ZM6.84776 5.66377C7.36204 5.66377 7.85497 5.45815 8.21681 5.09269L5.74507 2.64548C6.03651 2.35112 6.43354 2.18551 6.84776 2.18551V5.66377ZM8.39949 4.11205C8.39949 4.96904 7.70476 5.66377 6.84776 5.66377V2.18551C5.78377 2.18551 4.92123 3.04805 4.92123 4.11205H8.39949ZM6.46117 6.08794C7.53167 6.08794 8.39949 5.22013 8.39949 4.14962H4.92123C4.92123 3.29914 5.61068 2.60968 6.46117 2.60968V6.08794ZM8.00111 4.52745C8.00111 5.38929 7.30245 6.08794 6.44062 6.08794V2.60968C5.38146 2.60968 4.52285 3.4683 4.52285 4.52745H8.00111ZM6.08334 6.44522C7.14249 6.44522 8.00111 5.58661 8.00111 4.52745H4.52285C4.52285 3.66561 5.22151 2.96696 6.08334 2.96696V6.44522ZM6.7882 5.34754C6.62855 5.99234 6.04986 6.44522 5.38559 6.44522V2.96696C4.45087 2.96696 3.63655 3.60424 3.4119 4.51157L6.7882 5.34754ZM4.81451 6.89215C5.74923 6.89215 6.56355 6.25487 6.7882 5.34754L3.4119 4.51157C3.57155 3.86677 4.15024 3.41389 4.81451 3.41389V6.89215ZM6.03488 6.03089C5.82532 6.55129 5.3206 6.89215 4.7596 6.89215V3.41389C3.90127 3.41389 3.12903 3.93541 2.8084 4.73161L6.03488 6.03089ZM4.1277 7.60662C4.89666 7.60662 5.58849 7.1394 5.87573 6.4261L2.64926 5.12682C2.8922 4.52353 3.47733 4.12836 4.1277 4.12836V7.60662ZM5.72152 6.01281C5.72152 6.89305 5.00794 7.60662 4.1277 7.60662V4.12836C3.08695 4.12836 2.24325 4.97206 2.24325 6.01281H5.72152ZM4.19892 8.23908C5.09989 7.98309 5.72152 7.16024 5.72152 6.22361H2.24325C2.24325 5.60537 2.65357 5.06223 3.24827 4.89326L4.19892 8.23908ZM4.76018 7.60474C4.57304 7.96114 4.24789 8.22517 3.86068 8.33519L2.91003 4.98936C2.38081 5.13973 1.93644 5.50059 1.68066 5.98768L4.76018 7.60474ZM1.91142 8.37667C2.84053 9.05733 4.15752 8.75244 4.69298 7.73271L1.61346 6.11565C2.06652 5.25285 3.18084 4.99488 3.96698 5.57079L1.91142 8.37667ZM4.05752 8.13554C3.51384 8.76203 2.58057 8.86689 1.91142 8.37667L3.96698 5.57079C3.17612 4.99142 2.07312 5.11535 1.43055 5.85578L4.05752 8.13554ZM14.3716 7.83437C14.3716 8.88043 15.2196 9.72843 16.2656 9.72843V6.25017C17.1406 6.25017 17.8498 6.95945 17.8498 7.83437H14.3716ZM4.41587 7.14134C4.41587 7.51621 4.28059 7.87849 4.03489 8.16162L1.40792 5.88186C1.10461 6.23136 0.937613 6.67858 0.937613 7.14134H4.41587ZM14.963 8.96538C14.5901 8.6787 14.3716 8.23503 14.3716 7.76468H17.8498C17.8498 7.1548 17.5665 6.57953 17.083 6.20781L14.963 8.96538ZM3.9666 8.46829C4.25742 8.1051 4.41587 7.65369 4.41587 7.18842H0.937613C0.937613 6.86336 1.04831 6.548 1.25149 6.29425L3.9666 8.46829ZM9.48624 4.99316C8.57851 4.99316 7.84265 4.2573 7.84265 3.34957H11.3209C11.3209 2.33631 10.4995 1.5149 9.48624 1.5149V4.99316ZM15.5561 9.03586C15.231 9.03586 14.915 8.92842 14.6572 8.73027L16.7771 5.9727C16.427 5.70353 15.9977 5.5576 15.5561 5.5576V9.03586ZM1.23917 6.30964C0.136294 7.687 1.11692 9.72843 2.88141 9.72843V6.25017C4.03416 6.25017 4.6748 7.58384 3.95429 8.48367L1.23917 6.30964Z" fill="#0C2503" mask="url(#path-3-outside-2_1583_10954)"/>
<mask id="path-5-outside-3_1583_10954" maskUnits="userSpaceOnUse" x="0.197754" y="5.44971" width="19" height="12" fill="black">
<rect fill="white" x="0.197754" y="5.44971" width="19" height="12"/>
<path d="M16.0621 7.6603C16.297 7.6603 16.4887 7.85097 16.475 8.0855C16.3722 9.8428 15.635 11.5073 14.3948 12.759C13.0549 14.1112 11.2375 14.8709 9.3426 14.8709C7.44767 14.8709 5.63035 14.1112 4.29043 12.759C3.05016 11.5073 2.31297 9.8428 2.21018 8.0855C2.19646 7.85097 2.38821 7.6603 2.62314 7.6603L9.3426 7.6603H16.0621Z"/>
</mask>
<path d="M16.0621 7.6603C16.297 7.6603 16.4887 7.85097 16.475 8.0855C16.3722 9.8428 15.635 11.5073 14.3948 12.759C13.0549 14.1112 11.2375 14.8709 9.3426 14.8709C7.44767 14.8709 5.63035 14.1112 4.29043 12.759C3.05016 11.5073 2.31297 9.8428 2.21018 8.0855C2.19646 7.85097 2.38821 7.6603 2.62314 7.6603L9.3426 7.6603H16.0621Z" stroke="#0C2503" stroke-width="3.47826" mask="url(#path-5-outside-3_1583_10954)"/>
<path d="M2.24182 7.88587L2.3037 7.79497C2.3169 7.77559 2.33409 7.75927 2.35413 7.7471V7.7471C2.37979 7.73151 2.40924 7.72327 2.43926 7.72327H4.79654H16.0839C16.1958 7.72327 16.3045 7.76062 16.3927 7.8294L16.4221 7.85233C16.4356 7.86283 16.4477 7.87497 16.4581 7.88848V7.88848" stroke="#EDFAE7" stroke-width="0.869565" stroke-linecap="round"/>
<path d="M7.17418 16.3556C7.17398 16.0048 7.45834 15.7203 7.80917 15.7203H11.7559C12.1068 15.7203 12.3912 16.0047 12.3912 16.3556V17.4614C12.3912 17.9406 12.0028 18.329 11.5237 18.329H8.04175C7.5626 18.329 7.17418 17.9406 7.17418 17.4614V16.3556Z" fill="#0C2503"/>
</svg>
