<svg width="1291" height="256" viewBox="0 0 1291 256" fill="none" xmlns="http://www.w3.org/2000/svg">
<path d="M4.04073 51.6943C4.04073 41.176 12.7512 33.8625 25.406 33.8625C37.5677 33.8625 45.2921 40.6008 45.6208 51.4478H35.1025C34.856 46.2708 31.1582 43.2303 25.2416 43.2303C18.7499 43.2303 14.559 46.353 14.559 51.3656C14.559 55.6386 16.8599 58.0217 21.8725 59.1721L31.3225 61.2265C41.5943 63.4452 46.6069 68.7043 46.6069 77.6613C46.6069 88.8369 37.8964 96.0683 24.6664 96.0683C11.8473 96.0683 3.46551 89.2478 3.21898 78.483H13.7373C13.8194 83.5778 17.9281 86.6182 24.6664 86.6182C31.6512 86.6182 36.0886 83.5778 36.0886 78.5652C36.0886 74.5387 34.0343 72.1556 29.1038 71.0874L19.5716 68.9508C9.38204 66.7321 4.04073 60.8978 4.04073 51.6943ZM64.6685 95H54.6432V33.8625H64.7507V59.6652C67.298 55.7208 72.0641 53.1734 77.8985 53.1734C87.9237 53.1734 93.1829 59.5008 93.1829 70.0191V95H83.1576V72.4021C83.1576 65.5817 79.7885 62.2947 74.6937 62.2947C68.3663 62.2947 64.6685 66.7321 64.6685 72.813V95ZM100.65 74.6208C100.65 61.966 109.771 53.2556 122.344 53.2556C134.916 53.2556 144.038 61.966 144.038 74.6208C144.038 87.2756 134.916 95.9861 122.344 95.9861C109.771 95.9861 100.65 87.2756 100.65 74.6208ZM110.675 74.6208C110.675 82.0165 115.441 87.0291 122.344 87.0291C129.246 87.0291 134.012 82.0165 134.012 74.6208C134.012 67.2252 129.246 62.2126 122.344 62.2126C115.441 62.2126 110.675 67.2252 110.675 74.6208ZM158.935 95L145.787 54.406H156.223L161.565 71.8269C162.468 75.0317 163.29 78.5652 164.03 82.3452C164.769 78.4008 165.509 75.8534 166.824 71.8269L172.411 54.406H182.601L188.025 71.8269C188.518 73.4704 190.161 79.5513 190.654 82.263C191.312 79.2226 192.626 74.3743 193.366 71.8269L198.789 54.406H209.39L195.338 95H185.97L180.382 77.4148C178.739 72.0734 177.835 68.2113 177.506 66.1569C177.095 68.0469 176.356 70.923 174.301 77.5791L168.714 95H158.935ZM211.071 74.6208C211.071 62.0482 219.371 53.1734 231.368 53.1734C242.462 53.1734 250.022 59.3365 251.09 69.1152H241.065C239.914 64.5134 236.545 62.1304 231.779 62.1304C225.369 62.1304 221.096 66.9787 221.096 74.6208C221.096 82.263 225.041 87.0291 231.45 87.0291C236.463 87.0291 239.996 84.5639 241.065 80.1265H251.172C249.939 89.5765 242.051 96.0683 231.45 96.0683C219.124 96.0683 211.071 87.5222 211.071 74.6208ZM270.713 96.0683C262.085 96.0683 256.826 91.0556 256.826 83.4135C256.826 75.9356 262.25 71.2517 271.864 70.5121L284.026 69.6082V68.7043C284.026 63.1986 280.739 60.9799 275.644 60.9799C269.727 60.9799 266.44 63.4452 266.44 67.7182H257.894C257.894 58.9256 265.126 53.1734 276.137 53.1734C287.066 53.1734 293.804 59.0899 293.804 70.3478V95H285.012L284.272 89.0013C282.547 93.1922 277.041 96.0683 270.713 96.0683ZM274 88.5083C280.163 88.5083 284.108 84.8104 284.108 78.5652V76.4287L275.644 77.0861C269.399 77.6613 267.016 79.7156 267.016 83.0026C267.016 86.7004 269.481 88.5083 274 88.5083ZM300.53 82.6739H310.063C310.145 86.2074 312.774 88.4261 317.376 88.4261C322.06 88.4261 324.607 86.5361 324.607 83.5778C324.607 81.5235 323.539 80.0443 319.923 79.2226L312.61 77.4969C305.297 75.8534 301.763 72.4021 301.763 65.9104C301.763 57.9395 308.501 53.1734 317.869 53.1734C326.99 53.1734 333.154 58.4325 333.236 66.3213H323.704C323.621 62.8699 321.32 60.6512 317.458 60.6512C313.514 60.6512 311.213 62.4591 311.213 65.4995C311.213 67.8004 313.021 69.2795 316.472 70.1013L323.786 71.8269C330.606 73.3882 334.057 76.5108 334.057 82.7561C334.057 90.9735 327.073 96.0683 317.047 96.0683C306.94 96.0683 300.53 90.6448 300.53 82.6739ZM346.703 46.2708C343.252 46.2708 340.54 43.559 340.54 40.1899C340.54 36.8208 343.252 34.1912 346.703 34.1912C349.99 34.1912 352.702 36.8208 352.702 40.1899C352.702 43.559 349.99 46.2708 346.703 46.2708ZM341.691 95V54.406H351.716V95H341.691ZM372.099 95H362.074V54.406H371.359L372.181 59.6652C374.728 55.5565 379.659 53.1734 385.165 53.1734C395.354 53.1734 400.613 59.5008 400.613 70.0191V95H390.588V72.4021C390.588 65.5817 387.219 62.2947 382.042 62.2947C375.879 62.2947 372.099 66.5678 372.099 73.1417V95ZM408.162 73.7991C408.162 61.966 415.887 53.0912 427.473 53.0912C433.554 53.0912 438.32 55.6386 440.703 59.9939L441.279 54.406H450.564V92.9456C450.564 106.504 442.429 114.968 429.281 114.968C417.612 114.968 409.642 108.312 408.409 97.4652H418.434C419.092 102.724 423.118 105.847 429.281 105.847C436.184 105.847 440.621 101.492 440.621 94.7535V88.0152C438.074 91.7952 433.061 94.1783 427.227 94.1783C415.722 94.1783 408.162 85.55 408.162 73.7991ZM418.27 73.5526C418.27 80.373 422.625 85.4678 429.199 85.4678C436.102 85.4678 440.375 80.6195 440.375 73.5526C440.375 66.65 436.184 61.8839 429.199 61.8839C422.543 61.8839 418.27 66.8965 418.27 73.5526Z" fill="black"/>
<rect x="466.602" y="36.9418" width="113.41" height="53.1163" rx="26.5581" stroke="black" stroke-width="5.7423"/>
<path d="M592.425 113.818V105.436H598.423C602.368 105.436 604.833 104.532 606.559 99.7661L607.709 96.7257L591.356 54.406H601.957L612.393 83.9887L623.404 54.406H633.758L613.872 104.039C610.832 111.599 606.559 114.722 599.903 114.722C597.109 114.722 594.643 114.393 592.425 113.818ZM635.224 74.6208C635.224 61.966 644.345 53.2556 656.918 53.2556C669.491 53.2556 678.612 61.966 678.612 74.6208C678.612 87.2756 669.491 95.9861 656.918 95.9861C644.345 95.9861 635.224 87.2756 635.224 74.6208ZM645.249 74.6208C645.249 82.0165 650.015 87.0291 656.918 87.0291C663.82 87.0291 668.587 82.0165 668.587 74.6208C668.587 67.2252 663.82 62.2126 656.918 62.2126C650.015 62.2126 645.249 67.2252 645.249 74.6208ZM713.124 54.406H723.149V95H713.863L713.124 89.5765C710.658 93.4387 705.399 96.0683 699.976 96.0683C690.608 96.0683 685.102 89.7409 685.102 79.7978V54.406H695.128V76.2643C695.128 83.9887 698.168 87.1113 703.756 87.1113C710.083 87.1113 713.124 83.4135 713.124 75.6891V54.406ZM758.977 54.2417V63.5273H755.28C748.048 63.5273 743.529 67.3895 743.529 75.2782V95H733.503V54.4882H742.953L743.529 60.4047C745.254 56.3782 749.117 53.6665 754.54 53.6665C755.937 53.6665 757.334 53.8308 758.977 54.2417Z" fill="black"/>
<path d="M820.66 64.0979L860.417 49.855" stroke="#0C2503" stroke-width="3.20815" stroke-linecap="round"/>
<path d="M850.239 60.4471C852.897 60.4471 855.082 62.6096 854.758 65.2476C853.683 74.0312 849.677 82.2604 843.306 88.5816C835.785 96.0434 825.585 100.235 814.949 100.235C804.314 100.235 794.114 96.0434 786.593 88.5816C780.222 82.2604 776.216 74.0312 775.14 65.2477C774.817 62.6096 777.002 60.4471 779.66 60.4471L814.949 60.4471H850.239Z" fill="#0C2503"/>
<path d="M777.153 58.9057L777.08 58.9948C776.014 60.3039 776.946 62.2638 778.634 62.2638H853.801C853.32 62.2638 852.931 61.8745 852.931 61.3943V61.0286C852.931 60.6414 852.75 60.2766 852.441 60.0431L850.721 58.7432C850.462 58.5479 850.147 58.4422 849.823 58.4422H849.568C848.887 58.4422 848.335 57.89 848.335 57.2088V55.7532C848.335 54.7169 847.652 53.8045 846.658 53.5121L846.254 53.3931C845.499 53.1713 844.981 52.4789 844.981 51.6925C844.981 50.9997 844.578 50.3704 843.948 50.0814L843.607 49.925C843.447 49.8515 843.296 49.7604 843.156 49.6533L841.168 48.1289C840.831 47.8706 840.633 47.4704 840.633 47.0459C840.633 46.7643 840.546 46.4896 840.384 46.2595L839.333 44.7685C839.058 44.3788 838.611 44.147 838.134 44.147C837.606 44.147 837.118 43.8631 836.858 43.4038L836.441 42.6684C836.258 42.3454 836.161 41.9804 836.161 41.609C836.161 41.098 835.978 40.6021 835.646 40.2134C835.124 39.6017 834.304 39.3271 833.52 39.5048L832.489 39.7383C832.205 39.8025 831.915 39.835 831.625 39.835H829.95H827.274C826.831 39.835 826.472 39.476 826.472 39.0332C826.472 38.5904 826.113 38.2314 825.671 38.2314H825.361C824.971 38.2314 824.61 38.0276 824.409 37.6942L824.36 37.6123C824.129 37.2302 823.715 36.9966 823.269 36.9966C823.009 36.9966 822.756 36.9173 822.542 36.7692L822.249 36.5656C821.844 36.2849 821.364 36.1345 820.872 36.1345H818.281C818.041 36.1345 817.816 36.2457 817.669 36.4354L817.241 36.992C816.931 37.3948 816.286 37.1754 816.286 36.6671C816.286 36.373 816.048 36.1345 815.754 36.1345H811.058C810.241 36.1345 809.578 36.7967 809.578 37.6136V38.7985C809.578 39.0581 809.444 39.2993 809.224 39.4366C808.871 39.6564 808.407 39.548 808.188 39.1945L807.946 38.804C807.725 38.448 807.336 38.2314 806.917 38.2314H804.133C803.404 38.2314 802.705 38.5196 802.187 39.0332L801.689 39.5284C801.491 39.7248 801.224 39.835 800.945 39.835C800.362 39.835 799.889 40.3076 799.889 40.8905V41.0576C799.889 41.675 799.389 42.1756 798.771 42.1756H798.639C798.095 42.1756 797.653 42.6169 797.653 43.1613C797.653 43.7057 797.212 44.147 796.668 44.147H792.714C791.966 44.147 791.314 44.6551 791.132 45.3801C790.949 46.1051 790.297 46.6132 789.55 46.6132H789.219C788.385 46.6132 787.633 47.1175 787.317 47.8895L786.433 50.0479C786.307 50.355 786.008 50.5557 785.676 50.5557C785.225 50.5557 784.859 50.9218 784.859 51.3734V52.5168C784.859 53.3968 784.273 54.169 783.425 54.4057L781.505 54.9419C781.108 55.0529 780.774 55.3214 780.579 55.6852L780.208 56.3799C779.974 56.8187 779.407 56.9503 779.003 56.6596C778.66 56.4127 778.186 56.4659 777.907 56.7826L777.786 56.9189C777.622 57.1057 777.53 57.3463 777.53 57.5955V57.8444C777.53 58.2311 777.397 58.6059 777.153 58.9057Z" fill="#EDFAE7" stroke="#EDFAE7" stroke-width="1.19521" stroke-linecap="round"/>
<path d="M853.447 60.4471C854.333 60.4471 855.055 61.1659 855.019 62.0511C854.614 72.0206 850.444 81.4988 843.306 88.5816C835.785 96.0434 825.585 100.235 814.949 100.235C804.314 100.235 794.114 96.0434 786.593 88.5816C779.455 81.4988 775.285 72.0206 774.88 62.0511C774.844 61.1659 775.566 60.4471 776.452 60.4471L814.949 60.4471H853.447Z" fill="#0C2503"/>
<path d="M803.094 98.1485H827.111V100.144V106.341H803.095V100.144L803.094 98.1485Z" fill="#0C2503"/>
<path d="M874.336 10.4561C874.199 7.46587 877.057 5.23643 879.924 6.09775L903.74 13.2532C904.146 13.375 904.567 13.4369 904.99 13.4369H921.831H939.253C939.677 13.4369 940.099 13.499 940.505 13.6213L962.865 20.3545C963.833 20.646 964.873 20.5906 965.804 20.1979L981.033 13.7779C981.567 13.5528 982.14 13.4369 982.72 13.4369H1006.31H1044.41C1044.65 13.4369 1044.88 13.4561 1045.12 13.4943L1088.77 20.6639C1089.34 20.7573 1089.92 20.7365 1090.48 20.6027L1120.01 13.5555C1120.34 13.4767 1120.68 13.4369 1121.02 13.4369H1151.39L1191.7 17.2929C1192.01 17.3228 1192.33 17.3188 1192.64 17.2809L1224.22 13.4369L1284.84 1.06349C1287.54 0.514119 1290.05 2.571 1290.05 5.31829V121.74C1290.05 124.468 1287.57 126.52 1284.89 126.004L1243.25 117.973C1242.99 117.923 1242.74 117.849 1242.49 117.753L1208.82 104.59C1208.6 104.504 1208.37 104.436 1208.14 104.387L1168.15 95.8867C1167.85 95.8236 1167.55 95.7918 1167.25 95.7918H1107.69L1063.41 101.353C1063.02 101.402 1062.63 101.398 1062.24 101.341L1024.98 95.8802C1024.58 95.8216 1024.17 95.8191 1023.77 95.873L982.802 101.376C982.551 101.41 982.303 101.465 982.061 101.542L958.597 109.023C958.171 109.159 957.726 109.229 957.278 109.229H939.892H905.116C904.61 109.229 904.108 109.317 903.633 109.49L884.848 116.315C882.095 117.315 879.162 115.359 879.027 112.433L874.336 10.4561Z" fill="#B0D2C1"/>
<path d="M897.751 87.7705H887.255V27.8285H910.133C923.745 27.8285 931.699 34.7165 931.699 46.5245C931.699 54.5605 927.927 60.3005 920.875 63.1705L932.273 87.7705H920.793L910.625 65.3845H897.751V87.7705ZM897.751 37.1765V56.1185H910.133C916.775 56.1185 920.711 52.5925 920.711 46.5245C920.711 40.5385 916.775 37.1765 910.133 37.1765H897.751ZM955.952 88.8365C943.898 88.8365 935.452 80.0625 935.452 67.5165C935.452 54.8065 943.734 46.0325 955.624 46.0325C967.76 46.0325 975.468 54.1505 975.468 66.7785V69.8125L944.964 69.8945C945.702 77.0285 949.474 80.6365 956.116 80.6365C961.61 80.6365 965.218 78.5045 966.366 74.6505H975.632C973.91 83.5065 966.53 88.8365 955.952 88.8365ZM955.706 54.2325C949.802 54.2325 946.194 57.4305 945.21 63.4985H965.546C965.546 57.9225 961.692 54.2325 955.706 54.2325ZM980.359 75.4705H989.871C989.953 78.9965 992.577 81.2105 997.169 81.2105C1001.84 81.2105 1004.38 79.3245 1004.38 76.3725C1004.38 74.3225 1003.32 72.8465 999.711 72.0265L992.413 70.3045C985.115 68.6645 981.589 65.2205 981.589 58.7425C981.589 50.7885 988.313 46.0325 997.661 46.0325C1006.76 46.0325 1012.91 51.2805 1012.99 59.1525H1003.48C1003.4 55.7085 1001.1 53.4945 997.251 53.4945C993.315 53.4945 991.019 55.2985 991.019 58.3325C991.019 60.6285 992.823 62.1045 996.267 62.9245L1003.56 64.6465C1010.37 66.2045 1013.81 69.3205 1013.81 75.5525C1013.81 83.7525 1006.84 88.8365 996.841 88.8365C986.755 88.8365 980.359 83.4245 980.359 75.4705ZM1035.21 87.7705H1025.2V55.6265H1017.41V47.2625H1025.2V34.6345H1035.21V47.2625H1043.08V55.6265H1035.21V87.7705ZM1061.11 88.8365C1052.5 88.8365 1047.25 83.8345 1047.25 76.2085C1047.25 68.7465 1052.67 64.0725 1062.26 63.3345L1074.4 62.4325V61.5305C1074.4 56.0365 1071.12 53.8225 1066.03 53.8225C1060.13 53.8225 1056.85 56.2825 1056.85 60.5465H1048.32C1048.32 51.7725 1055.54 46.0325 1066.52 46.0325C1077.43 46.0325 1084.15 51.9365 1084.15 63.1705V87.7705H1075.38L1074.64 81.7845C1072.92 85.9665 1067.43 88.8365 1061.11 88.8365ZM1064.39 81.2925C1070.54 81.2925 1074.48 77.6025 1074.48 71.3705V69.2385L1066.03 69.8945C1059.8 70.4685 1057.42 72.5185 1057.42 75.7985C1057.42 79.4885 1059.88 81.2925 1064.39 81.2925ZM1121.45 47.2625H1131.46V87.7705H1122.19L1121.45 82.3585C1118.99 86.2125 1113.74 88.8365 1108.33 88.8365C1098.98 88.8365 1093.49 82.5225 1093.49 72.6005V47.2625H1103.49V69.0745C1103.49 76.7825 1106.53 79.8985 1112.1 79.8985C1118.42 79.8985 1121.45 76.2085 1121.45 68.5005V47.2625ZM1167.21 47.0985V56.3645H1163.52C1156.3 56.3645 1151.79 60.2185 1151.79 68.0905V87.7705H1141.79V47.3445H1151.22L1151.79 53.2485C1153.52 49.2305 1157.37 46.5245 1162.78 46.5245C1164.18 46.5245 1165.57 46.6885 1167.21 47.0985ZM1184.43 88.8365C1175.82 88.8365 1170.57 83.8345 1170.57 76.2085C1170.57 68.7465 1175.99 64.0725 1185.58 63.3345L1197.72 62.4325V61.5305C1197.72 56.0365 1194.44 53.8225 1189.35 53.8225C1183.45 53.8225 1180.17 56.2825 1180.17 60.5465H1171.64C1171.64 51.7725 1178.86 46.0325 1189.84 46.0325C1200.75 46.0325 1207.47 51.9365 1207.47 63.1705V87.7705H1198.7L1197.96 81.7845C1196.24 85.9665 1190.75 88.8365 1184.43 88.8365ZM1187.71 81.2925C1193.86 81.2925 1197.8 77.6025 1197.8 71.3705V69.2385L1189.35 69.8945C1183.12 70.4685 1180.74 72.5185 1180.74 75.7985C1180.74 79.4885 1183.2 81.2925 1187.71 81.2925ZM1227.31 87.7705H1217.3V47.2625H1226.57L1227.39 52.5105C1229.93 48.4105 1234.85 46.0325 1240.34 46.0325C1250.51 46.0325 1255.76 52.3465 1255.76 62.8425V87.7705H1245.76V65.2205C1245.76 58.4145 1242.39 55.1345 1237.23 55.1345C1231.08 55.1345 1227.31 59.3985 1227.31 65.9585V87.7705ZM1279.37 87.7705H1269.36V55.6265H1261.57V47.2625H1269.36V34.6345H1279.37V47.2625H1287.24V55.6265H1279.37V87.7705Z" fill="black"/>
<g clip-path="url(#clip0_1597_20752)">
<path d="M300.109 191.257C298.852 186.515 295.631 182.499 291.153 180.092C286.675 177.685 281.305 177.083 276.222 178.417C275.449 178.623 274.688 178.871 273.942 179.16C271.61 176.361 268.436 174.291 264.812 173.206C261.188 172.121 257.27 172.067 253.539 173.051C249.808 174.034 246.426 176.013 243.808 178.745C241.19 181.476 239.45 184.841 238.801 188.427C238.015 188.541 237.235 188.7 236.466 188.901C232.078 190.06 228.195 192.59 225.465 196.068C222.735 199.545 221.323 203.76 221.466 208.008C221.608 212.256 223.296 216.279 226.247 219.406C229.199 222.534 233.235 224.576 237.682 225.191L241.763 240.666C242.088 241.896 242.922 242.938 244.084 243.563C245.245 244.187 246.638 244.342 247.956 243.995L293.392 232.014C294.71 231.667 295.845 230.845 296.547 229.729C297.25 228.613 297.462 227.295 297.138 226.065L293.057 210.589C296.065 208.288 298.33 205.238 299.582 201.808C300.833 198.378 301.016 194.714 300.109 191.257ZM292.878 227.188C292.925 227.364 292.894 227.552 292.794 227.711C292.694 227.871 292.531 227.988 292.343 228.038L246.907 240.018C246.719 240.068 246.52 240.046 246.354 239.957C246.188 239.868 246.069 239.719 246.023 239.543L242.271 225.314C243.495 225.212 244.711 225.003 245.902 224.689L285.659 214.206C286.85 213.891 288.011 213.474 289.126 212.959L292.878 227.188ZM284.61 210.229L278.821 211.756L278.852 203.05C278.854 202.779 278.798 202.512 278.689 202.265C278.58 202.017 278.42 201.794 278.217 201.608C278.014 201.422 277.773 201.276 277.507 201.18C277.242 201.084 276.957 201.038 276.669 201.046C276.381 201.054 276.095 201.115 275.828 201.227C275.562 201.338 275.319 201.497 275.115 201.694C274.91 201.892 274.748 202.124 274.636 202.377C274.525 202.631 274.467 202.901 274.465 203.172L274.426 212.915L266.862 214.909L264.59 206.294C264.451 205.766 264.093 205.32 263.596 205.052C263.098 204.785 262.501 204.718 261.936 204.867C261.371 205.016 260.885 205.368 260.584 205.847C260.282 206.325 260.191 206.89 260.33 207.417L262.602 216.033L255.038 218.027L250.2 209.571C250.065 209.335 249.881 209.129 249.659 208.963C249.437 208.798 249.181 208.676 248.906 208.605C248.631 208.534 248.341 208.515 248.055 208.55C247.768 208.585 247.489 208.672 247.235 208.807C246.98 208.942 246.755 209.123 246.571 209.337C246.388 209.552 246.25 209.798 246.165 210.059C246.08 210.321 246.051 210.595 246.078 210.864C246.105 211.133 246.188 211.393 246.323 211.628L250.643 219.186L244.854 220.713C240.9 221.755 236.721 221.289 233.237 219.416C229.753 217.543 227.249 214.417 226.275 210.726C225.302 207.035 225.939 203.081 228.047 199.733C230.155 196.386 233.56 193.92 237.514 192.877C237.869 192.784 238.224 192.69 238.56 192.64C238.63 193.778 238.81 194.904 239.098 196.004C239.237 196.531 239.595 196.978 240.092 197.245C240.59 197.513 241.187 197.579 241.752 197.43C242.317 197.281 242.803 196.929 243.104 196.451C243.405 195.973 243.496 195.408 243.357 194.88C242.384 191.189 243.021 187.235 245.129 183.888C247.237 180.54 250.642 178.074 254.596 177.032C258.55 175.989 262.729 176.455 266.213 178.328C269.697 180.201 272.201 183.327 273.175 187.018C273.314 187.545 273.671 187.992 274.169 188.26C274.667 188.527 275.264 188.594 275.829 188.445C276.394 188.296 276.88 187.944 277.181 187.465C277.482 186.987 277.573 186.422 277.434 185.895C277.142 184.796 276.744 183.728 276.244 182.704C276.593 182.59 276.923 182.486 277.27 182.394C281.224 181.351 285.403 181.818 288.887 183.691C292.371 185.563 294.876 188.689 295.849 192.381C296.822 196.072 296.185 200.026 294.077 203.373C291.97 206.721 288.564 209.187 284.61 210.229Z" fill="#0C2503"/>
<path d="M284.61 210.229L278.821 211.756L278.852 203.05C278.854 202.779 278.798 202.512 278.689 202.265C278.58 202.017 278.42 201.794 278.217 201.608C278.014 201.422 277.773 201.276 277.507 201.18C277.242 201.084 276.957 201.038 276.669 201.046C276.381 201.054 276.095 201.115 275.828 201.227C275.562 201.338 275.319 201.497 275.115 201.694C274.91 201.892 274.748 202.124 274.636 202.377C274.525 202.631 274.467 202.901 274.465 203.172L274.426 212.915L266.862 214.909L264.59 206.294C264.451 205.766 264.093 205.32 263.596 205.052C263.098 204.785 262.501 204.718 261.936 204.867C261.371 205.016 260.885 205.368 260.584 205.847C260.282 206.325 260.191 206.89 260.33 207.417L262.602 216.033L255.038 218.027L250.2 209.571C250.065 209.335 249.881 209.129 249.659 208.963C249.437 208.798 249.181 208.676 248.906 208.605C248.631 208.534 248.341 208.515 248.055 208.55C247.768 208.585 247.489 208.672 247.235 208.807C246.98 208.942 246.755 209.123 246.571 209.337C246.388 209.552 246.25 209.798 246.165 210.059C246.08 210.321 246.051 210.595 246.078 210.864C246.105 211.133 246.188 211.393 246.323 211.628L250.643 219.186L244.854 220.713C240.9 221.755 236.721 221.289 233.237 219.416C229.753 217.543 227.249 214.417 226.275 210.726C225.302 207.035 225.939 203.081 228.047 199.733C230.155 196.386 233.56 193.92 237.514 192.877C237.869 192.784 238.224 192.69 238.56 192.64C238.63 193.778 238.81 194.904 239.098 196.004C239.237 196.531 239.595 196.978 240.092 197.245C240.59 197.513 241.187 197.579 241.752 197.43C242.317 197.281 242.803 196.929 243.104 196.451C243.405 195.973 243.496 195.408 243.357 194.88C242.384 191.189 243.021 187.235 245.129 183.888C247.237 180.54 250.642 178.074 254.596 177.032C258.55 175.989 262.729 176.455 266.213 178.328C269.697 180.201 272.201 183.327 273.175 187.018C273.314 187.545 273.671 187.992 274.169 188.26C274.667 188.527 275.264 188.594 275.829 188.445C276.394 188.296 276.88 187.944 277.181 187.465C277.482 186.987 277.573 186.422 277.434 185.895C277.142 184.796 276.744 183.728 276.244 182.704C276.593 182.59 276.923 182.486 277.27 182.394C281.224 181.351 285.403 181.818 288.887 183.691C292.371 185.563 294.876 188.689 295.849 192.381C296.822 196.072 296.185 200.026 294.077 203.373C291.97 206.721 288.564 209.187 284.61 210.229Z" fill="#D6FBC4"/>
<path d="M292.878 227.188C292.925 227.364 292.894 227.552 292.794 227.711C292.694 227.871 292.531 227.988 292.343 228.038L246.907 240.018C246.719 240.068 246.52 240.046 246.354 239.957C246.188 239.868 246.069 239.719 246.023 239.543L242.271 225.314C243.495 225.212 244.711 225.003 245.902 224.689L285.659 214.206C286.85 213.891 288.011 213.474 289.126 212.959L292.878 227.188Z" fill="#0C2503"/>
<path d="M300.109 191.257C298.852 186.515 295.631 182.499 291.153 180.092C286.675 177.685 281.305 177.083 276.222 178.417C275.449 178.623 274.688 178.871 273.942 179.16C271.61 176.361 268.436 174.291 264.812 173.206C261.188 172.121 257.27 172.067 253.539 173.051C249.808 174.034 246.426 176.013 243.808 178.745C241.19 181.476 239.45 184.841 238.801 188.427C238.015 188.541 237.235 188.7 236.466 188.901C232.078 190.06 228.195 192.59 225.465 196.068C222.735 199.545 221.323 203.76 221.466 208.008C221.608 212.256 223.296 216.279 226.247 219.406C229.199 222.534 233.235 224.576 237.682 225.191L241.763 240.666C242.088 241.896 242.922 242.938 244.084 243.563C245.245 244.187 246.638 244.342 247.956 243.995L293.392 232.014C294.71 231.667 295.845 230.845 296.547 229.729C297.25 228.613 297.462 227.295 297.138 226.065L293.057 210.589C296.065 208.288 298.33 205.238 299.582 201.808C300.833 198.378 301.016 194.714 300.109 191.257ZM292.878 227.188C292.925 227.364 292.894 227.552 292.794 227.711C292.694 227.871 292.531 227.988 292.343 228.038L246.907 240.018C246.719 240.068 246.52 240.046 246.354 239.957C246.188 239.868 246.069 239.719 246.023 239.543L242.271 225.314C243.495 225.212 244.711 225.003 245.902 224.689L285.659 214.206C286.85 213.891 288.011 213.474 289.126 212.959L292.878 227.188ZM284.61 210.229L278.821 211.756L278.852 203.05C278.854 202.779 278.798 202.512 278.689 202.265C278.58 202.017 278.42 201.794 278.217 201.608C278.014 201.422 277.773 201.276 277.507 201.18C277.242 201.084 276.957 201.038 276.669 201.046C276.381 201.054 276.095 201.115 275.828 201.227C275.562 201.338 275.319 201.497 275.115 201.694C274.91 201.892 274.748 202.124 274.636 202.377C274.525 202.631 274.467 202.901 274.465 203.172L274.426 212.915L266.862 214.909L264.59 206.294C264.451 205.766 264.093 205.32 263.596 205.052C263.098 204.785 262.501 204.718 261.936 204.867C261.371 205.016 260.885 205.368 260.584 205.847C260.282 206.325 260.191 206.89 260.33 207.417L262.602 216.033L255.038 218.027L250.2 209.571C250.065 209.335 249.881 209.129 249.659 208.963C249.437 208.798 249.181 208.676 248.906 208.605C248.631 208.534 248.341 208.515 248.055 208.55C247.768 208.585 247.489 208.672 247.235 208.807C246.98 208.942 246.755 209.123 246.571 209.337C246.388 209.552 246.25 209.798 246.165 210.059C246.08 210.321 246.051 210.595 246.078 210.864C246.105 211.133 246.188 211.393 246.323 211.628L250.643 219.186L244.854 220.713C240.9 221.755 236.721 221.289 233.237 219.416C229.753 217.543 227.249 214.417 226.275 210.726C225.302 207.035 225.939 203.081 228.047 199.733C230.155 196.386 233.56 193.92 237.514 192.877C237.869 192.784 238.224 192.69 238.56 192.64C238.63 193.778 238.81 194.904 239.098 196.004C239.237 196.531 239.595 196.978 240.092 197.245C240.59 197.513 241.187 197.579 241.752 197.43C242.317 197.281 242.803 196.929 243.104 196.451C243.405 195.973 243.496 195.408 243.357 194.88C242.384 191.189 243.021 187.235 245.129 183.888C247.237 180.54 250.642 178.074 254.596 177.032C258.55 175.989 262.729 176.455 266.213 178.328C269.697 180.201 272.201 183.327 273.175 187.018C273.314 187.545 273.671 187.992 274.169 188.26C274.667 188.527 275.264 188.594 275.829 188.445C276.394 188.296 276.88 187.944 277.181 187.465C277.482 186.987 277.573 186.422 277.434 185.895C277.142 184.796 276.744 183.728 276.244 182.704C276.593 182.59 276.923 182.486 277.27 182.394C281.224 181.351 285.403 181.818 288.887 183.691C292.371 185.563 294.876 188.689 295.849 192.381C296.822 196.072 296.185 200.026 294.077 203.373C291.97 206.721 288.564 209.187 284.61 210.229Z" stroke="#0C2503" stroke-width="2.75486"/>
<path d="M284.61 210.229L278.821 211.756L278.852 203.05C278.854 202.779 278.798 202.512 278.689 202.265C278.58 202.017 278.42 201.794 278.217 201.608C278.014 201.422 277.773 201.276 277.507 201.18C277.242 201.084 276.957 201.038 276.669 201.046C276.381 201.054 276.095 201.115 275.828 201.227C275.562 201.338 275.319 201.497 275.115 201.694C274.91 201.892 274.748 202.124 274.636 202.377C274.525 202.631 274.467 202.901 274.465 203.172L274.426 212.915L266.862 214.909L264.59 206.294C264.451 205.766 264.093 205.32 263.596 205.052C263.098 204.785 262.501 204.718 261.936 204.867C261.371 205.016 260.885 205.368 260.584 205.847C260.282 206.325 260.191 206.89 260.33 207.417L262.602 216.033L255.038 218.027L250.2 209.571C250.065 209.335 249.881 209.129 249.659 208.963C249.437 208.798 249.181 208.676 248.906 208.605C248.631 208.534 248.341 208.515 248.055 208.55C247.768 208.585 247.489 208.672 247.235 208.807C246.98 208.942 246.755 209.123 246.571 209.337C246.388 209.552 246.25 209.798 246.165 210.059C246.08 210.321 246.051 210.595 246.078 210.864C246.105 211.133 246.188 211.393 246.323 211.628L250.643 219.186L244.854 220.713C240.9 221.755 236.721 221.289 233.237 219.416C229.753 217.543 227.249 214.417 226.275 210.726C225.302 207.035 225.939 203.081 228.047 199.733C230.155 196.386 233.56 193.92 237.514 192.877C237.869 192.784 238.224 192.69 238.56 192.64C238.63 193.778 238.81 194.904 239.098 196.004C239.237 196.531 239.595 196.978 240.092 197.245C240.59 197.513 241.187 197.579 241.752 197.43C242.317 197.281 242.803 196.929 243.104 196.451C243.405 195.973 243.496 195.408 243.357 194.88C242.384 191.189 243.021 187.235 245.129 183.888C247.237 180.54 250.642 178.074 254.596 177.032C258.55 175.989 262.729 176.455 266.213 178.328C269.697 180.201 272.201 183.327 273.175 187.018C273.314 187.545 273.671 187.992 274.169 188.26C274.667 188.527 275.264 188.594 275.829 188.445C276.394 188.296 276.88 187.944 277.181 187.465C277.482 186.987 277.573 186.422 277.434 185.895C277.142 184.796 276.744 183.728 276.244 182.704C276.593 182.59 276.923 182.486 277.27 182.394C281.224 181.351 285.403 181.818 288.887 183.691C292.371 185.563 294.876 188.689 295.849 192.381C296.822 196.072 296.185 200.026 294.077 203.373C291.97 206.721 288.564 209.187 284.61 210.229Z" stroke="#0C2503" stroke-width="2.75486"/>
<path d="M292.878 227.188C292.925 227.364 292.894 227.552 292.794 227.711C292.694 227.871 292.531 227.988 292.343 228.038L246.907 240.018C246.719 240.068 246.52 240.046 246.354 239.957C246.188 239.868 246.069 239.719 246.023 239.543L242.271 225.314C243.495 225.212 244.711 225.003 245.902 224.689L285.659 214.206C286.85 213.891 288.011 213.474 289.126 212.959L292.878 227.188Z" stroke="#0C2503" stroke-width="2.75486"/>
</g>
<path d="M342.612 238H332.587V197.406H341.791L342.612 202.172C344.667 198.803 348.775 196.173 354.61 196.173C360.773 196.173 365.046 199.214 367.182 203.898C369.237 199.214 374.003 196.173 380.166 196.173C390.027 196.173 395.45 202.09 395.45 211.458V238H385.507V214.087C385.507 208.253 382.385 205.213 377.618 205.213C372.77 205.213 369.072 208.335 369.072 214.991V238H359.047V214.005C359.047 208.335 356.007 205.295 351.241 205.295C346.475 205.295 342.612 208.417 342.612 214.991V238ZM417.371 239.068C408.743 239.068 403.484 234.056 403.484 226.413C403.484 218.936 408.908 214.252 418.522 213.512L430.684 212.608V211.704C430.684 206.199 427.397 203.98 422.302 203.98C416.385 203.98 413.098 206.445 413.098 210.718H404.552C404.552 201.926 411.784 196.173 422.795 196.173C433.724 196.173 440.462 202.09 440.462 213.348V238H431.67L430.93 232.001C429.205 236.192 423.699 239.068 417.371 239.068ZM420.658 231.508C426.821 231.508 430.766 227.81 430.766 221.565V219.429L422.302 220.086C416.057 220.661 413.674 222.716 413.674 226.003C413.674 229.7 416.139 231.508 420.658 231.508ZM466.992 239.068C455.242 239.068 447.928 230.44 447.928 217.867C447.928 205.213 455.324 196.173 467.568 196.173C473.238 196.173 478.25 198.556 480.798 202.583V176.863H490.741V238H481.537L480.88 231.673C478.415 236.357 473.155 239.068 466.992 239.068ZM469.211 229.865C476.196 229.865 480.715 224.852 480.715 217.539C480.715 210.225 476.196 205.13 469.211 205.13C462.226 205.13 457.953 210.307 457.953 217.539C457.953 224.77 462.226 229.865 469.211 229.865ZM519.349 239.068C507.269 239.068 498.805 230.276 498.805 217.703C498.805 204.966 507.105 196.173 519.02 196.173C531.182 196.173 538.906 204.309 538.906 216.963V220.004L508.337 220.086C509.077 227.235 512.857 230.851 519.513 230.851C525.019 230.851 528.634 228.714 529.785 224.852H539.071C537.345 233.727 529.949 239.068 519.349 239.068ZM519.102 204.391C513.186 204.391 509.57 207.596 508.584 213.676H528.963C528.963 208.089 525.101 204.391 519.102 204.391Z" fill="black"/>
<rect x="553.176" y="179.942" width="113.41" height="53.1163" rx="26.5581" stroke="black" stroke-width="5.7423"/>
<path d="M735.889 239.413H741.596V233.706V232.965C742.247 233.874 742.996 234.725 743.844 235.507C747.519 238.899 752.489 240.481 757.893 240.481C760.961 240.481 764.155 239.917 767.065 238.767L767.145 239.413H772.191H780.984H786.691V233.715C787.264 234.339 787.887 234.927 788.558 235.477C792.681 238.862 798.197 240.481 804.227 240.481C810.14 240.481 815.72 238.984 819.965 235.728C821.173 234.801 822.244 233.752 823.163 232.594V233.706V239.413H828.87H838.895H844.602V233.706V227.455C845.667 229.392 846.97 231.173 848.499 232.763C853.278 237.731 859.937 240.481 867.414 240.481C873.654 240.481 879.389 238.906 883.941 235.623C886.066 234.091 887.86 232.237 889.288 230.115V233.706V239.413H894.995H905.02H910.727V233.706V213.984C910.727 211.126 911.521 209.858 912.135 209.268C912.791 208.639 914.124 207.94 916.771 207.94H920.469H924.454C924.74 211.228 925.088 214.191 925.484 216.625L926.034 220.015C924.025 222.179 922.78 225.065 922.78 228.283C922.78 235.15 928.561 240.481 935.225 240.481C941.818 240.481 947.506 235.06 947.506 228.283C947.506 225.054 946.24 222.128 944.201 219.943L944.785 216.731C946.019 209.939 946.849 198.554 946.849 187.442V173.637V167.93H941.142H929.309H923.602V173.637V187.442C923.602 187.577 923.602 187.713 923.602 187.848L921.853 187.411C919.784 186.894 917.922 186.665 916.031 186.665C913.746 186.665 911.6 187.026 909.645 187.702L909.624 187.487H904.445H894.995H889.288V193.194V198.47C888.31 196.696 887.121 195.059 885.717 193.588C881.031 188.679 874.481 186.172 867.085 186.172C859.662 186.172 853.067 188.944 848.352 193.958C846.884 195.519 845.631 197.261 844.602 199.152V193.112V187.405H841.978C844.206 185.253 845.589 182.227 845.589 178.896C845.589 172.324 840.271 167.19 833.883 167.19C827.432 167.19 822.013 172.224 822.013 178.896C822.013 182.26 823.406 185.269 825.646 187.405H823.163V193.112V194.935C822.249 193.54 821.133 192.271 819.83 191.157C815.906 187.802 810.681 186.172 805.049 186.172C799.466 186.172 794.113 187.586 790.012 190.729C787.497 192.656 785.586 195.141 784.444 198.047C783.402 195.818 781.985 193.815 780.171 192.099C775.762 187.928 769.769 186.172 763.317 186.172C756.872 186.172 750.95 187.854 746.51 191.391C741.949 195.025 739.367 200.312 739.367 206.424V212.131H741.228C739.969 213.986 739.115 216.066 738.668 218.302H735.889H714.807V213.775H733.095H738.802V208.068V198.782V193.075H733.095H714.807V189.04H735.889H741.596V183.333V173.637V167.93H735.889H698.582H692.875V173.637V233.706V239.413H698.582H735.889ZM787.043 215.673H786.691V215.256C786.805 215.396 786.922 215.535 787.043 215.673Z" fill="black" stroke="#E8E4FB" stroke-width="11.414"/>
<path d="M680.235 240.218L725.239 204.159C738.481 193.549 756.933 192.319 771.466 201.079L797.004 216.473C812.265 225.672 831.747 223.814 844.994 211.895L861.226 197.291C873.679 186.086 891.746 183.707 906.676 191.304L958.24 217.542" stroke="#FFC400" stroke-width="16.6991" stroke-linecap="round"/>
<path d="M735.862 233.591H698.555V173.522H735.862V183.218H709.073V198.667H733.068V207.952H709.073V223.894H735.862V233.591Z" fill="black"/>
<path d="M757.866 234.659C749.237 234.659 743.978 229.646 743.978 222.004C743.978 214.526 749.402 209.842 759.016 209.103L771.178 208.199V207.295C771.178 201.789 767.891 199.571 762.796 199.571C756.88 199.571 753.593 202.036 753.593 206.309H745.047C745.047 197.516 752.278 191.764 763.289 191.764C774.218 191.764 780.957 197.681 780.957 208.939V233.591H772.164L771.424 227.592C769.699 231.783 764.193 234.659 757.866 234.659ZM761.153 227.099C767.316 227.099 771.26 223.401 771.26 217.156V215.019L762.796 215.677C756.551 216.252 754.168 218.306 754.168 221.593C754.168 225.291 756.633 227.099 761.153 227.099Z" fill="black"/>
<path d="M787.683 221.265H797.215C797.297 224.798 799.927 227.017 804.528 227.017C809.212 227.017 811.76 225.127 811.76 222.169C811.76 220.114 810.691 218.635 807.076 217.813L799.762 216.088C792.449 214.444 788.915 210.993 788.915 204.501C788.915 196.53 795.654 191.764 805.021 191.764C814.143 191.764 820.306 197.023 820.388 204.912H810.856C810.774 201.461 808.473 199.242 804.611 199.242C800.666 199.242 798.365 201.05 798.365 204.09C798.365 206.391 800.173 207.87 803.624 208.692L810.938 210.418C817.758 211.979 821.21 215.102 821.21 221.347C821.21 229.564 814.225 234.659 804.2 234.659C794.092 234.659 787.683 229.236 787.683 221.265Z" fill="black"/>
<path d="M833.856 184.862C830.404 184.862 827.692 182.15 827.692 178.781C827.692 175.412 830.404 172.782 833.856 172.782C837.143 172.782 839.854 175.412 839.854 178.781C839.854 182.15 837.143 184.862 833.856 184.862ZM828.843 233.591V192.997H838.868V233.591H828.843Z" fill="black"/>
<path d="M867.386 234.659C855.307 234.659 846.843 225.866 846.843 213.294C846.843 200.557 855.142 191.764 867.058 191.764C879.219 191.764 886.944 199.899 886.944 212.554V215.595L856.375 215.677C857.115 222.826 860.895 226.442 867.551 226.442C873.056 226.442 876.672 224.305 877.823 220.443H887.108C885.383 229.318 877.987 234.659 867.386 234.659ZM867.14 199.982C861.223 199.982 857.608 203.186 856.622 209.267H877.001C877.001 203.679 873.139 199.982 867.14 199.982Z" fill="black"/>
<path d="M920.441 192.832V202.118H916.743C909.512 202.118 904.993 205.98 904.993 213.869V233.591H894.967V193.079H904.417L904.993 198.996C906.718 194.969 910.58 192.257 916.004 192.257C917.401 192.257 918.798 192.422 920.441 192.832Z" fill="black"/>
<path d="M939.142 215.595H931.089C930.021 209.021 929.281 198.009 929.281 187.327V173.522H941.115V187.327C941.115 198.256 940.293 209.267 939.142 215.595ZM935.198 234.659C931.5 234.659 928.46 231.701 928.46 228.167C928.46 224.552 931.5 221.593 935.198 221.593C938.731 221.593 941.772 224.552 941.772 228.167C941.772 231.701 938.731 234.659 935.198 234.659Z" fill="black"/>
<rect x="969.383" y="179.942" width="113.41" height="53.1163" rx="26.5581" stroke="black" stroke-width="5.7423"/>
<defs>
<clipPath id="clip0_1597_20752">
<rect width="86.1328" height="76.5625" fill="white" transform="translate(210.965 180.465) rotate(-14.7718)"/>
</clipPath>
</defs>
</svg>
