<svg width="38" height="32" viewBox="0 0 38 32" fill="none" xmlns="http://www.w3.org/2000/svg">
<path d="M31.0246 7.5419L34.8903 12.236C35.7924 13.3315 35.0132 14.9828 33.594 14.9828H6.36287H4.23912C2.90828 14.9828 2.10626 13.5085 2.82924 12.3912L5.86657 7.69716C6.17602 7.21892 6.70682 6.93015 7.27645 6.93015H9.20498H29.7283C30.2301 6.93015 30.7056 7.15455 31.0246 7.5419Z" fill="#0C2503"/>
<path d="M30.5208 16.8775V28.4614C30.5208 29.3888 29.7689 30.1407 28.8415 30.1407H8.04216C7.11471 30.1407 6.36287 29.3888 6.36287 28.4614V14.9828M6.36287 14.9828H4.23912C2.90828 14.9828 2.10626 13.5085 2.82924 12.3912L5.86657 7.69716C6.17602 7.21892 6.70682 6.93015 7.27645 6.93015H29.7283C30.2301 6.93015 30.7056 7.15455 31.0246 7.5419L34.8903 12.236C35.7924 13.3315 35.0132 14.9828 33.594 14.9828H6.36287ZM9.20498 2.66699V14.0354" stroke="#0C2503" stroke-width="3.6" stroke-linecap="round"/>
</svg>
