<svg width="905" height="898" viewBox="0 0 905 898" fill="none" xmlns="http://www.w3.org/2000/svg">
<path d="M897.554 193.523C908.394 239.603 875.414 289.623 823.864 297.193C812.884 323.163 741.764 483.883 561.584 544.403C440.214 585.173 291.504 573.033 184.504 493.343C158.094 473.673 139.004 453.453 126.374 438.403C69.7143 454.453 13.7843 416.843 5.94431 366.193C-1.10569 320.633 31.9643 272.383 83.5843 262.403C97.0043 230.643 161.224 88.2329 316.584 29.4029C439.434 -17.1171 550.954 14.4929 603.564 29.4029C695.384 55.4329 760.664 100.553 797.584 130.403C843.924 122.293 887.704 151.693 897.554 193.523Z" fill="#CC7914" stroke="black" stroke-width="10" stroke-miterlimit="10"/>
<path d="M285.086 130.163L362.586 66.4028" stroke="black" stroke-width="10" stroke-miterlimit="10" stroke-linecap="round"/>
<path d="M263.723 537.623V890.483H638.103V509.673C638.093 509.673 421.363 622.343 263.723 537.623Z" fill="#FF5555" stroke="black" stroke-width="15" stroke-miterlimit="10" stroke-linecap="round"/>
<path d="M603.555 66.4028L674.095 130.163" stroke="black" stroke-width="10" stroke-miterlimit="10" stroke-linecap="round"/>
<path d="M589.525 412.885C596.305 392.725 566.135 368.405 560.525 363.885C534.975 343.285 506.175 341.035 488.525 339.885C464.995 338.355 419.615 335.415 396.525 364.885C385.575 378.855 377.585 402.745 387.525 416.885C400.675 435.595 438.515 427.725 442.525 426.885C467.925 421.595 470.735 408.905 488.525 409.885C508.965 411.015 511.245 428.095 534.525 432.885C555.625 437.225 583.975 429.395 589.525 412.885Z" fill="#0A0B0A"/>
<path d="M537.584 369.403C536.324 375.523 511.654 378.933 416.344 369.403C421.234 365.113 446.494 343.833 483.584 346.403C510.524 348.263 539.024 362.393 537.584 369.403Z" fill="#FAFAFA"/>
<path d="M237.773 320.753C258.983 316.793 280.203 312.823 301.413 308.863C297.323 305.863 262.233 279.213 262.573 236.403C262.913 193.233 299.153 149.403 349.573 149.403C399.853 149.403 436.293 193.003 436.573 236.403C436.863 281.013 398.833 307.993 395.243 310.463" fill="#FAFAFA"/>
<path d="M237.773 320.753C258.983 316.793 280.203 312.823 301.413 308.863C297.323 305.863 262.233 279.213 262.573 236.403C262.913 193.233 299.153 149.403 349.573 149.403C399.853 149.403 436.293 193.003 436.573 236.403C436.863 281.013 398.833 307.993 395.243 310.463" stroke="black" stroke-width="10" stroke-miterlimit="10" stroke-linecap="round"/>
<path d="M744.583 313.753C723.373 309.793 702.153 305.823 680.943 301.863C685.033 298.863 720.123 272.213 719.783 229.403C719.443 186.233 683.203 142.403 632.783 142.403C582.503 142.403 546.063 186.003 545.783 229.403C545.493 274.013 583.523 300.993 587.113 303.463" fill="#FAFAFA"/>
<path d="M744.583 313.753C723.373 309.793 702.153 305.823 680.943 301.863C685.033 298.863 720.123 272.213 719.783 229.403C719.443 186.233 683.203 142.403 632.783 142.403C582.503 142.403 546.063 186.003 545.783 229.403C545.493 274.013 583.523 300.993 587.113 303.463" stroke="black" stroke-width="10" stroke-miterlimit="10" stroke-linecap="round"/>
<path d="M342.586 269.403C360.811 269.403 375.586 254.628 375.586 236.403C375.586 218.177 360.811 203.403 342.586 203.403C324.361 203.403 309.586 218.177 309.586 236.403C309.586 254.628 324.361 269.403 342.586 269.403Z" fill="#0A0B0A"/>
<path d="M629.586 269.403C647.811 269.403 662.586 254.628 662.586 236.403C662.586 218.177 647.811 203.403 629.586 203.403C611.361 203.403 596.586 218.177 596.586 236.403C596.586 254.628 611.361 269.403 629.586 269.403Z" fill="#0A0B0A"/>
<path d="M402.115 314.633C402.115 314.633 310.705 285.163 246.055 358.783" stroke="black" stroke-width="10" stroke-miterlimit="10" stroke-linecap="round"/>
<path d="M572.426 314.403C572.426 314.403 659.746 276.633 732.586 338.523" stroke="black" stroke-width="10" stroke-miterlimit="10" stroke-linecap="round"/>
<path d="M417.203 576.623C416.663 585.183 474.163 607.463 528.423 590.073C576.063 574.803 608.063 533.173 603.343 526.533C599.673 521.373 575.393 539.463 522.123 555.243C456.473 574.673 417.643 569.643 417.203 576.623Z" fill="#CC7914" stroke="black" stroke-width="15" stroke-miterlimit="10" stroke-linecap="round"/>
<path d="M383.055 667.283V890.483" stroke="black" stroke-width="15" stroke-miterlimit="10" stroke-linecap="round"/>
<path d="M452.305 406.643C452.305 406.643 489.075 379.383 521.575 406.643" stroke="#B30000" stroke-width="15" stroke-miterlimit="10" stroke-linecap="round"/>
</svg>
