<svg width="298" height="277" viewBox="0 0 298 277" fill="none" xmlns="http://www.w3.org/2000/svg">
<mask id="mask0_2175_23995" style="mask-type:alpha" maskUnits="userSpaceOnUse" x="0" y="159" width="119" height="25">
<path d="M0.40625 181.568C1.5893 182.14 3.2636 182.915 4.82967 183.488C5.76734 182.631 6.72655 181.809 7.71186 181.01C28.5529 164.113 57.9566 162.061 83.6172 164.606C92.0093 165.437 100.334 166.712 108.64 168.138L118.619 165.279C102.855 162.421 87.0729 159.714 71.0332 159.309C45.926 158.676 18.9055 163.644 0.40625 181.568Z" fill="#68DACB"/>
</mask>
<g mask="url(#mask0_2175_23995)">
<path d="M2.95215 183.5C13.4521 167.5 56.9521 151.9 118.952 167.5" stroke="#68DACB" stroke-width="102"/>
</g>
<mask id="mask1_2175_23995" style="mask-type:alpha" maskUnits="userSpaceOnUse" x="124" y="131" width="97" height="46">
<path d="M133.654 167.975L124.399 170.942C138.618 173.488 152.848 175.914 167.293 176.701C180.228 177.406 194.274 177.079 205.857 170.529C211.163 167.529 215.603 163.288 218.107 157.665C220.7 151.859 221.025 144.88 216.884 139.705C213.781 135.829 209.328 133.779 204.82 131.843C203.884 132.977 202.588 134.466 201.68 135.492C206.283 137.459 212.133 139.484 214.512 144.255C217.235 149.712 214.495 156.532 210.858 160.875C207.011 165.482 201.243 168.275 195.595 169.965C182.541 173.875 168.277 172.648 154.942 171.128C147.821 170.317 140.734 169.201 133.654 167.975Z" fill="#68DACB"/>
</mask>
<g mask="url(#mask1_2175_23995)">
<path d="M126.452 168.5C153.952 174.667 211.452 181.5 217.452 153.5C220.452 139.5 209.452 137.5 200.452 131.124" stroke="#68DACB" stroke-width="102"/>
</g>
<mask id="mask2_2175_23995" style="mask-type:alpha" maskUnits="userSpaceOnUse" x="183" y="72" width="99" height="61">
<path d="M190.067 101.91C192.99 96.1109 198.05 91.5397 203.384 87.9849C213.844 81.0218 226.571 78.3715 238.937 77.5385C252.218 76.6446 265.567 77.8363 278.777 79.1813C281.662 79.4702 282.09 74.9951 279.209 74.703C275.941 74.3737 272.669 74.0545 269.396 73.7745C244.228 71.6379 214.577 71.0734 194.563 89.1386C189.596 93.6265 185.424 99.2909 183.834 105.882C182.317 112.153 183.19 118.954 186.592 124.479C188.751 127.987 191.795 130.416 195.205 132.363C196.625 131.102 197.63 129.918 198.338 128.901C194.512 126.896 191.164 124.31 189.235 119.888C186.698 114.07 187.239 107.509 190.067 101.91Z" fill="#68DACB"/>
</mask>
<g mask="url(#mask2_2175_23995)">
<path d="M280.453 77.0003C257.953 74 217.453 69.0004 189.453 98.0003C180.324 122.597 189.585 127.518 199.953 130.959" stroke="#68DACB" stroke-width="102"/>
</g>
</svg>
