<svg width="623" height="158" viewBox="0 0 623 158" fill="none" xmlns="http://www.w3.org/2000/svg">
<path d="M-32 57.0913C-16.8426 79.2444 -3.42561 102.378 21.1413 114.661C26.1575 117.169 50.4757 124.551 49.9262 114.661C49.4783 106.599 29.8808 103.805 23.8476 103.59C9.47775 103.077 7.856 109.085 7.856 122.411C7.856 134.48 14.3181 146.753 24.5857 153.287C30.4237 157.002 49.9912 156.135 56.0768 152.303C66.3062 145.862 76.6727 136.698 82.1554 125.732C88.0298 113.983 85.3538 98.4921 85.3538 85.7531C85.3538 65.5381 85.3538 45.3231 85.3538 25.1081C85.3538 21.5649 95.8711 18.2194 99.7462 17.3583C109.932 15.0947 104.887 19.4183 99.5002 27.1993C94.6504 34.2046 72.4743 48.9933 63.7036 41.0997C54.6352 32.9381 76.0702 26.0922 80.4333 26.0922C89.0851 26.0922 97.737 26.0922 106.389 26.0922C114.871 26.0922 125.81 23.9756 132.96 29.5365C139.733 34.8045 148.423 38.7346 156.701 41.0997C162.569 42.7764 188.414 47.7643 193.359 43.3139C199.354 37.9184 199.476 29.359 209.35 30.5206C218.296 31.5731 201.754 53.0002 197.787 41.0997C196.453 37.0963 194.423 29.2329 196.311 24.985C198.518 20.0194 207.016 20.7769 209.35 24.862C217.301 38.7766 242.137 49.8246 257.079 53.6469C282.725 60.2074 316.812 64.3096 342.204 55.3691C350.149 52.5715 357.525 49.2157 365.207 46.1432C367.639 45.1702 359.556 45.6584 357.703 43.8059C348.177 34.2798 368.952 32.7348 374.31 32.7348C378.284 32.7348 378.493 35.8098 375.417 37.6553C371.791 39.8311 380.532 42.1533 382.06 42.6988C405.051 50.91 440.548 49.49 460.541 34.949C476.086 23.6438 484.454 8.6699 504.826 2.96584C523.265 -2.19712 517.032 15.021 504.334 15.021C499.75 15.021 508.27 4.39181 508.27 18.2194C508.27 39.7834 517.21 58.9949 533.734 73.5749C547.622 85.8296 565.586 94.2068 583.677 97.9314C590.414 99.3184 603.38 101.509 610.124 98.6694C614.066 97.0097 616.765 94.733 621.196 94.733" stroke="#D1C9F7" stroke-width="3" stroke-linecap="round"/>
</svg>
