<svg width="497" height="334" viewBox="0 0 497 334" fill="none" xmlns="http://www.w3.org/2000/svg">
<mask id="mask0_2187_24106" style="mask-type:alpha" maskUnits="userSpaceOnUse" x="48" y="6" width="343" height="246">
<path d="M48.4406 17.0013C77.4689 26.2395 113.273 45.7901 153.895 84.5112C184.692 113.871 229.33 190.644 294.848 251.254C291.774 235.967 315.217 240.991 315.762 241.107C283.866 219.59 251.409 188.743 221.785 144.692C226.38 150.939 275.198 214.376 381.586 231.431C369.696 204.832 382.52 186.727 390.279 178.91C347.79 187.372 298.814 184.926 255.813 151.658C179.156 92.3447 128.75 27.5203 56.0923 6.77148C52.9441 7.76306 46.3005 10.6386 48.4406 17.0013Z" fill="#A1E8DF"/>
</mask>
<g mask="url(#mask0_2187_24106)">
<path d="M44.9521 8C71.7855 17.3333 147.452 56.1 211.452 128.5C275.452 200.9 377.952 208 406.452 203M204.452 120.5C216.952 149.833 269.952 225.5 313.952 254" stroke="#A1E8DF" stroke-width="55"/>
</g>
<mask id="mask1_2187_24106" style="mask-type:alpha" maskUnits="userSpaceOnUse" x="294" y="240" width="103" height="78">
<path d="M294.847 251.254C324.372 278.589 358.135 302.626 396.79 317.558C396.327 316.194 395.823 314.789 395.286 313.36C389.923 299.089 388.469 286.951 390.072 276.977C366.861 269.739 341.501 258.459 315.77 241.107H315.762C315.216 240.991 291.774 235.967 294.847 251.254Z" fill="#86CEEC"/>
</mask>
<g mask="url(#mask1_2187_24106)">
<path d="M284.952 231C301.952 245.5 372.252 293.9 405.452 303.5" stroke="#86CEEC" stroke-width="50"/>
</g>
<mask id="mask2_2187_24106" style="mask-type:alpha" maskUnits="userSpaceOnUse" x="402" y="280" width="95" height="54">
<path d="M406.574 317.078C406.574 317.078 407.293 318.797 408.226 321.664H408.235C435.272 330.613 464.606 335.051 496.452 333.142V290.248C496.452 290.248 495.37 289.314 493.395 287.794C483.182 289.149 448.369 292.347 403.442 280.786C399.187 296.131 406.574 317.078 406.574 317.078Z" fill="#86CEEC"/>
</mask>
<g mask="url(#mask2_2187_24106)">
<path d="M389.452 297.5C402.952 302.167 471.452 314.6 513.452 313" stroke="#86CEEC" stroke-width="50"/>
</g>
<mask id="mask3_2187_24106" style="mask-type:alpha" maskUnits="userSpaceOnUse" x="389" y="276" width="20" height="46">
<path d="M395.286 313.36C395.824 314.789 396.328 316.194 396.79 317.557C400.558 319.02 404.368 320.392 408.227 321.664C407.293 318.797 406.574 317.078 406.574 317.078C406.574 317.078 399.187 296.131 403.442 280.786C399.079 279.663 394.617 278.398 390.072 276.977C388.469 286.951 389.924 299.089 395.286 313.36Z" fill="#68DACB"/>
</mask>
<g mask="url(#mask3_2187_24106)">
<path d="M383.952 296.5L413.452 303.5" stroke="#68DACB" stroke-width="50"/>
</g>
<mask id="mask4_2187_24106" style="mask-type:alpha" maskUnits="userSpaceOnUse" x="-28" y="0" width="85" height="18">
<path d="M-27.5479 2.83836L-16.6404 6.28409L-10.5092 9.13488L-8.76565 10.2504C4.89335 8.77957 24.3283 9.3332 48.4402 17.0014C46.3 10.6388 52.9436 7.7632 56.0919 6.77162C31.4181 -0.268585 4.16615 -2.22696 -27.5479 2.83836Z" fill="#A1E8DF"/>
</mask>
<g mask="url(#mask4_2187_24106)">
<path d="M-28.0479 7.50037C-16.8812 4.66703 30.7521 3.10037 57.9521 13.5004" stroke="#A1E8DF" stroke-width="40"/>
</g>
</svg>
