<svg width="22" height="24" viewBox="0 0 22 24" fill="none" xmlns="http://www.w3.org/2000/svg">
<path d="M17.7049 0.487199C17.8366 0.266951 18.1556 0.266951 18.2872 0.487198L19.4324 2.40353C19.4612 2.45167 19.5015 2.49192 19.5496 2.52069L21.4659 3.66588C21.6862 3.7975 21.6862 4.11656 21.4659 4.24818L19.5496 5.39337C19.5015 5.42214 19.4612 5.46239 19.4324 5.51053L18.2872 7.42686C18.1556 7.64711 17.8366 7.64711 17.7049 7.42686L16.5598 5.51053C16.531 5.46239 16.4907 5.42214 16.4426 5.39337L14.5263 4.24818C14.306 4.11656 14.306 3.7975 14.5263 3.66588L16.4426 2.52069C16.4907 2.49192 16.531 2.45167 16.5598 2.40353L17.7049 0.487199Z" fill="#030A00"/>
<g filter="url(#filter0_di_1115_10695)">
<path d="M17.8561 2.20378C17.8841 2.0465 18.1097 2.0465 18.1378 2.20378C18.1616 2.33748 18.3408 2.36587 18.4048 2.24608C18.4801 2.10515 18.6946 2.17488 18.6727 2.33312C18.654 2.46763 18.8157 2.55002 18.9136 2.45586C19.0287 2.34509 19.2112 2.47771 19.1415 2.62143C19.0821 2.74359 19.2105 2.87191 19.3326 2.8126C19.4764 2.74282 19.609 2.92536 19.4982 3.04048C19.404 3.13834 19.4864 3.30003 19.6209 3.28137C19.7792 3.25942 19.8489 3.47401 19.708 3.54927C19.5882 3.61323 19.6166 3.79248 19.7503 3.8163C19.9076 3.84432 19.9076 4.06995 19.7503 4.09798C19.6166 4.1218 19.5882 4.30104 19.708 4.36501C19.8489 4.44026 19.7792 4.65485 19.6209 4.6329C19.4864 4.61424 19.404 4.77594 19.4982 4.87379C19.609 4.98891 19.4764 5.17145 19.3326 5.10167C19.2105 5.04236 19.0821 5.17068 19.1415 5.29284C19.2112 5.43656 19.0287 5.56918 18.9136 5.45841C18.8157 5.36425 18.654 5.44664 18.6727 5.58115C18.6946 5.7394 18.4801 5.80912 18.4048 5.66819C18.3408 5.54841 18.1616 5.5768 18.1378 5.71049C18.1097 5.86777 17.8841 5.86777 17.8561 5.71049C17.8323 5.5768 17.653 5.54841 17.5891 5.66819C17.5138 5.80912 17.2992 5.7394 17.3212 5.58115C17.3398 5.44664 17.1781 5.36425 17.0803 5.45841C16.9652 5.56918 16.7826 5.43656 16.8524 5.29284C16.9117 5.17068 16.7834 5.04236 16.6612 5.10167C16.5175 5.17145 16.3849 4.98891 16.4957 4.87379C16.5898 4.77593 16.5074 4.61424 16.3729 4.6329C16.2147 4.65485 16.1449 4.44026 16.2859 4.36501C16.4057 4.30104 16.3773 4.1218 16.2436 4.09798C16.0863 4.06995 16.0863 3.84432 16.2436 3.8163C16.3773 3.79248 16.4057 3.61323 16.2859 3.54927C16.1449 3.47401 16.2147 3.25942 16.3729 3.28137C16.5074 3.30003 16.5898 3.13834 16.4957 3.04048C16.3849 2.92536 16.5175 2.74282 16.6612 2.8126C16.7834 2.87191 16.9117 2.74359 16.8524 2.62143C16.7826 2.47771 16.9652 2.34509 17.0803 2.45586C17.1781 2.55002 17.3398 2.46763 17.3212 2.33312C17.2992 2.17488 17.5138 2.10515 17.5891 2.24608C17.653 2.36587 17.8323 2.33748 17.8561 2.20378Z" fill="#FAFAFA"/>
<path d="M17.9752 2.22501C17.977 2.21498 17.9804 2.21224 17.9818 2.21117C17.9844 2.20914 17.9897 2.20681 17.9969 2.20681C18.0042 2.20681 18.0094 2.20914 18.0121 2.21117C18.0134 2.21224 18.0169 2.21498 18.0187 2.22501C18.0626 2.47177 18.3935 2.52417 18.5115 2.30307C18.5163 2.29408 18.5204 2.29254 18.5221 2.29195C18.5252 2.29083 18.5309 2.29023 18.5378 2.29248C18.5447 2.29472 18.549 2.29855 18.5508 2.3013C18.5518 2.30274 18.5542 2.30641 18.5528 2.3165C18.5184 2.56477 18.8169 2.71683 18.9975 2.54304C19.0048 2.53598 19.0092 2.53578 19.0109 2.53573C19.0143 2.53564 19.0199 2.53682 19.0257 2.54109C19.0316 2.54536 19.0345 2.55031 19.0354 2.55351C19.0359 2.55519 19.0371 2.55942 19.0326 2.56859C18.9232 2.79406 19.16 3.03091 19.3855 2.92144C19.3946 2.91699 19.3989 2.91815 19.4005 2.91864C19.4037 2.91959 19.4087 2.92244 19.413 2.92832C19.4172 2.9342 19.4184 2.93979 19.4183 2.94312C19.4183 2.94487 19.4181 2.94925 19.411 2.95659C19.2372 3.1372 19.3893 3.43565 19.6376 3.40121C19.6477 3.39981 19.6513 3.40223 19.6528 3.40321C19.6555 3.4051 19.6593 3.40934 19.6616 3.41625C19.6638 3.42317 19.6632 3.42885 19.6621 3.43199C19.6615 3.43364 19.66 3.43774 19.651 3.44254C19.4299 3.56061 19.4823 3.89144 19.7291 3.93541C19.7391 3.9372 19.7418 3.94062 19.7429 3.94201C19.7449 3.94465 19.7473 3.94987 19.7473 3.95714C19.7473 3.96441 19.7449 3.96962 19.7429 3.97226C19.7418 3.97365 19.7391 3.97708 19.7291 3.97886C19.4823 4.02283 19.4299 4.35366 19.651 4.47173C19.66 4.47653 19.6615 4.48063 19.6621 4.48228C19.6632 4.48542 19.6638 4.4911 19.6616 4.49802C19.6593 4.50493 19.6555 4.50917 19.6528 4.51106C19.6513 4.51204 19.6477 4.51446 19.6376 4.51306C19.3893 4.47862 19.2372 4.77707 19.411 4.95768C19.4181 4.96502 19.4183 4.9694 19.4183 4.97115C19.4184 4.97449 19.4172 4.98007 19.413 4.98595C19.4087 4.99183 19.4037 4.99468 19.4005 4.99563C19.3989 4.99612 19.3946 4.99728 19.3855 4.99283C19.16 4.88336 18.9232 5.12021 19.0326 5.34569C19.0371 5.35485 19.0359 5.35908 19.0354 5.36076C19.0345 5.36396 19.0316 5.36891 19.0257 5.37318C19.0199 5.37745 19.0143 5.37864 19.0109 5.37854C19.0092 5.37849 19.0048 5.37829 18.9975 5.37123C18.8169 5.19744 18.5184 5.34951 18.5528 5.59777C18.5542 5.60786 18.5518 5.61153 18.5508 5.61297C18.549 5.61573 18.5447 5.61955 18.5378 5.6218C18.5309 5.62404 18.5252 5.62344 18.5221 5.62232C18.5204 5.62174 18.5163 5.62019 18.5115 5.6112C18.3935 5.39011 18.0626 5.44251 18.0187 5.68926C18.0169 5.69929 18.0134 5.70203 18.0121 5.7031C18.0094 5.70514 18.0042 5.70746 17.9969 5.70746C17.9897 5.70746 17.9844 5.70514 17.9818 5.7031C17.9804 5.70203 17.977 5.69929 17.9752 5.68926C17.9312 5.44251 17.6004 5.39011 17.4823 5.6112C17.4775 5.62019 17.4734 5.62174 17.4718 5.62232C17.4686 5.62344 17.463 5.62404 17.456 5.6218C17.4491 5.61955 17.4449 5.61573 17.443 5.61297C17.442 5.61153 17.4396 5.60787 17.441 5.59777C17.4754 5.34951 17.177 5.19744 16.9964 5.37123C16.989 5.37829 16.9847 5.37849 16.9829 5.37854C16.9796 5.37864 16.974 5.37745 16.9681 5.37318C16.9622 5.36891 16.9594 5.36396 16.9584 5.36076C16.9579 5.35908 16.9568 5.35485 16.9612 5.34569C17.0707 5.12021 16.8339 4.88336 16.6084 4.99283C16.5992 4.99728 16.595 4.99612 16.5933 4.99563C16.5901 4.99468 16.5852 4.99183 16.5809 4.98595C16.5766 4.98007 16.5754 4.97449 16.5755 4.97115C16.5756 4.9694 16.5758 4.96502 16.5828 4.95768C16.7566 4.77707 16.6046 4.47862 16.3563 4.51306C16.3462 4.51446 16.3425 4.51204 16.3411 4.51106C16.3383 4.50917 16.3345 4.50493 16.3323 4.49802C16.33 4.4911 16.3306 4.48542 16.3317 4.48228C16.3323 4.48063 16.3339 4.47653 16.3429 4.47173C16.564 4.35366 16.5116 4.02283 16.2648 3.97886C16.2548 3.97708 16.252 3.97365 16.251 3.97226C16.2489 3.96962 16.2466 3.96441 16.2466 3.95714C16.2466 3.94987 16.2489 3.94465 16.251 3.94201C16.252 3.94062 16.2548 3.9372 16.2648 3.93541C16.5116 3.89144 16.564 3.56061 16.3429 3.44254C16.3339 3.43774 16.3323 3.43364 16.3317 3.43199C16.3306 3.42885 16.33 3.42317 16.3323 3.41625C16.3345 3.40934 16.3383 3.4051 16.3411 3.40321C16.3425 3.40223 16.3462 3.39981 16.3563 3.40121C16.6046 3.43565 16.7566 3.13721 16.5828 2.95659C16.5758 2.94925 16.5756 2.94487 16.5755 2.94312C16.5754 2.93979 16.5766 2.9342 16.5809 2.92832C16.5852 2.92244 16.5901 2.91959 16.5933 2.91864C16.595 2.91815 16.5992 2.91699 16.6084 2.92144C16.8339 3.03091 17.0707 2.79406 16.9612 2.56859C16.9568 2.55942 16.9579 2.55519 16.9584 2.55351C16.9594 2.55031 16.9622 2.54536 16.9681 2.54109C16.974 2.53682 16.9796 2.53564 16.9829 2.53573C16.9847 2.53578 16.989 2.53598 16.9964 2.54304C17.177 2.71683 17.4754 2.56477 17.441 2.3165C17.4396 2.30641 17.442 2.30274 17.443 2.3013C17.4449 2.29855 17.4491 2.29472 17.456 2.29248C17.463 2.29023 17.4686 2.29083 17.4718 2.29195C17.4734 2.29254 17.4775 2.29408 17.4823 2.30307C17.6004 2.52417 17.9312 2.47177 17.9752 2.22501Z" stroke="white" stroke-width="0.241974"/>
</g>
<path d="M3.70495 16.4872C3.83656 16.267 4.15562 16.267 4.28724 16.4872L5.43243 18.4035C5.4612 18.4517 5.50146 18.4919 5.54959 18.5207L7.46593 19.6659C7.68617 19.7975 7.68617 20.1166 7.46593 20.2482L5.54959 21.3934C5.50146 21.4221 5.4612 21.4624 5.43243 21.5105L4.28724 23.4269C4.15562 23.6471 3.83656 23.6471 3.70495 23.4269L2.55975 21.5105C2.53099 21.4624 2.49073 21.4221 2.44259 21.3934L0.526261 20.2482C0.306014 20.1166 0.306014 19.7975 0.526261 19.6659L2.44259 18.5207C2.49073 18.4919 2.53099 18.4517 2.55975 18.4035L3.70495 16.4872Z" fill="#030A00"/>
<path d="M13.8206 17.8753C13.8996 17.7432 14.091 17.7432 14.17 17.8753L14.8571 19.0251C14.8744 19.054 14.8985 19.0782 14.9274 19.0954L16.0772 19.7825C16.2094 19.8615 16.2094 20.0529 16.0772 20.1319L14.9274 20.819C14.8985 20.8363 14.8744 20.8604 14.8571 20.8893L14.17 22.0391C14.091 22.1713 13.8996 22.1713 13.8206 22.0391L13.1335 20.8893C13.1162 20.8604 13.0921 20.8363 13.0632 20.819L11.9134 20.1319C11.7813 20.0529 11.7813 19.8615 11.9134 19.7825L13.0632 19.0954C13.0921 19.0782 13.1162 19.054 13.1335 19.0251L13.8206 17.8753Z" fill="#030A00"/>
<path d="M18.2386 11.2923C18.3176 11.1602 18.509 11.1602 18.588 11.2923L19.2751 12.4421C19.2923 12.471 19.3165 12.4952 19.3454 12.5124L20.4952 13.1995C20.6273 13.2785 20.6273 13.4699 20.4952 13.5489L19.3454 14.236C19.3165 14.2533 19.2923 14.2774 19.2751 14.3063L18.588 15.4561C18.509 15.5883 18.3176 15.5883 18.2386 15.4561L17.5515 14.3063C17.5342 14.2774 17.5101 14.2533 17.4812 14.236L16.3314 13.5489C16.1992 13.4699 16.1992 13.2785 16.3314 13.1995L17.4812 12.5124C17.5101 12.4952 17.5342 12.471 17.5515 12.4421L18.2386 11.2923Z" fill="#030A00"/>
<defs>
<filter id="filter0_di_1115_10695" x="15.5726" y="1.85088" width="4.8486" height="5.0839" filterUnits="userSpaceOnUse" color-interpolation-filters="sRGB">
<feFlood flood-opacity="0" result="BackgroundImageFix"/>
<feColorMatrix in="SourceAlpha" type="matrix" values="0 0 0 0 0 0 0 0 0 0 0 0 0 0 0 0 0 0 127 0" result="hardAlpha"/>
<feOffset dy="0.553084"/>
<feGaussianBlur stdDeviation="0.276542"/>
<feComposite in2="hardAlpha" operator="out"/>
<feColorMatrix type="matrix" values="0 0 0 0 0 0 0 0 0 0 0 0 0 0 0 0 0 0 0.13 0"/>
<feBlend mode="normal" in2="BackgroundImageFix" result="effect1_dropShadow_1115_10695"/>
<feBlend mode="normal" in="SourceGraphic" in2="effect1_dropShadow_1115_10695" result="shape"/>
<feColorMatrix in="SourceAlpha" type="matrix" values="0 0 0 0 0 0 0 0 0 0 0 0 0 0 0 0 0 0 127 0" result="hardAlpha"/>
<feOffset dx="-0.518516" dy="-0.276542"/>
<feGaussianBlur stdDeviation="0.11753"/>
<feComposite in2="hardAlpha" operator="arithmetic" k2="-1" k3="1"/>
<feColorMatrix type="matrix" values="0 0 0 0 0 0 0 0 0 0 0 0 0 0 0 0 0 0 0.25 0"/>
<feBlend mode="normal" in2="shape" result="effect2_innerShadow_1115_10695"/>
</filter>
</defs>
</svg>
