<svg width="25" height="25" viewBox="0 0 25 25" fill="none" xmlns="http://www.w3.org/2000/svg">
<path d="M16.9102 16.7568L23.3927 23.2394L23.4998 23.3465" stroke="#030A00" stroke-width="2.16" stroke-linecap="round"/>
<rect x="0.921875" y="0.700195" width="19.872" height="19.872" rx="9.936" fill="#030A00"/>
<g filter="url(#filter0_di_657_2025)">
<path d="M10.3078 3.78768C10.4172 3.17334 11.2985 3.17334 11.408 3.78768C11.501 4.30988 12.2011 4.42077 12.451 3.95288C12.7449 3.40243 13.5831 3.67476 13.4974 4.29287C13.4245 4.81826 14.0561 5.14006 14.4383 4.77229C14.8879 4.33961 15.6009 4.85763 15.3284 5.41898C15.0967 5.89614 15.5979 6.39736 16.0751 6.1657C16.6364 5.89315 17.1545 6.60614 16.7218 7.0558C16.354 7.43801 16.6758 8.06959 17.2012 7.99671C17.8193 7.91097 18.0916 8.74914 17.5412 9.04309C17.0733 9.29294 17.1842 9.99306 17.7064 10.0861C18.3207 10.1956 18.3207 11.0769 17.7064 11.1863C17.1842 11.2794 17.0733 11.9795 17.5412 12.2293C18.0916 12.5233 17.8193 13.3615 17.2012 13.2757C16.6758 13.2028 16.354 13.8344 16.7218 14.2166C17.1545 14.6663 16.6365 15.3793 16.0751 15.1067C15.5979 14.8751 15.0967 15.3763 15.3284 15.8534C15.6009 16.4148 14.8879 16.9328 14.4383 16.5001C14.0561 16.1324 13.4245 16.4542 13.4974 16.9796C13.5831 17.5977 12.7449 17.87 12.451 17.3195C12.2011 16.8517 11.501 16.9625 11.408 17.4847C11.2985 18.0991 10.4172 18.0991 10.3078 17.4847C10.2147 16.9625 9.51461 16.8517 9.26475 17.3195C8.97081 17.87 8.13264 17.5977 8.21838 16.9796C8.29126 16.4542 7.65968 16.1324 7.27747 16.5001C6.82781 16.9328 6.11482 16.4148 6.38737 15.8534C6.61903 15.3763 6.11781 14.8751 5.64065 15.1067C5.0793 15.3793 4.56128 14.6663 4.99396 14.2166C5.36174 13.8344 5.03993 13.2028 4.51454 13.2757C3.89644 13.3615 3.6241 12.5233 4.17455 12.2293C4.64244 11.9795 4.53155 11.2794 4.00936 11.1863C3.39501 11.0769 3.39501 10.1956 4.00936 10.0861C4.53155 9.99306 4.64244 9.29294 4.17455 9.04309C3.6241 8.74914 3.89644 7.91097 4.51454 7.99671C5.03993 8.06959 5.36174 7.43801 4.99396 7.0558C4.56128 6.60614 5.0793 5.89315 5.64065 6.1657C6.11781 6.39736 6.61903 5.89614 6.38737 5.41898C6.11482 4.85763 6.82781 4.33961 7.27747 4.77229C7.65968 5.14006 8.29126 4.81826 8.21838 4.29287C8.13264 3.67476 8.97081 3.40243 9.26475 3.95288C9.51461 4.42077 10.2147 4.30988 10.3078 3.78768Z" fill="#FAFAFA"/>
<path d="M4.38544 8.64817L4.17455 9.04309L4.38544 8.64817C4.34495 8.62654 4.33469 8.60569 4.3303 8.59336C4.32393 8.57548 4.3218 8.54765 4.33213 8.51586C4.34245 8.48408 4.36054 8.46281 4.3762 8.45209C4.38699 8.4447 4.40755 8.43386 4.45303 8.44016C5.39937 8.57143 5.97901 7.43382 5.31656 6.74538C5.28473 6.7123 5.28142 6.68929 5.28105 6.67621C5.28053 6.65724 5.2871 6.63011 5.30674 6.60307C5.32638 6.57603 5.35016 6.5614 5.36836 6.55604C5.38091 6.55234 5.40382 6.54838 5.44512 6.56844C6.30458 6.98572 7.20739 6.0829 6.79011 5.22345C6.77006 5.18215 6.77401 5.15924 6.77771 5.14669C6.78307 5.12848 6.7977 5.10471 6.82474 5.08507C6.85178 5.06542 6.87891 5.05885 6.89788 5.05938C6.91096 5.05975 6.93396 5.06306 6.96705 5.09489C7.65549 5.75734 8.7931 5.17769 8.66183 4.23135C8.65552 4.18588 8.66637 4.16532 8.67376 4.15452C8.68448 4.13886 8.70575 4.12078 8.73753 4.11045C8.76931 4.10012 8.79715 4.10226 8.81503 4.10862C8.82735 4.11301 8.84821 4.12327 8.86984 4.16377C9.31988 5.00653 10.5809 4.8068 10.7485 3.86621C10.7566 3.82102 10.7732 3.80481 10.7836 3.79683C10.7986 3.78525 10.8245 3.77462 10.8579 3.77462C10.8913 3.77462 10.9171 3.78525 10.9321 3.79683C10.9425 3.80481 10.9592 3.82102 10.9672 3.86621C11.1348 4.8068 12.3959 5.00653 12.8459 4.16377C12.8675 4.12327 12.8884 4.11301 12.9007 4.10862C12.9186 4.10226 12.9464 4.10012 12.9782 4.11045C13.01 4.12078 13.0313 4.13886 13.042 4.15452C13.0494 4.16532 13.0602 4.18588 13.0539 4.23135C12.9226 5.17769 14.0603 5.75734 14.7487 5.09489C14.7818 5.06306 14.8048 5.05975 14.8179 5.05938C14.8368 5.05885 14.864 5.06542 14.891 5.08507C14.918 5.10471 14.9327 5.12848 14.938 5.14669C14.9417 5.15924 14.9457 5.18215 14.9256 5.22345C14.5084 6.0829 15.4112 6.98572 16.2706 6.56844C16.3119 6.54838 16.3348 6.55234 16.3474 6.55604C16.3656 6.5614 16.3894 6.57603 16.409 6.60307C16.4287 6.63011 16.4352 6.65724 16.4347 6.67621C16.4343 6.68929 16.431 6.71229 16.3992 6.74538C15.7367 7.43382 16.3164 8.57144 17.2627 8.44016C17.3082 8.43386 17.3288 8.4447 17.3396 8.45209C17.3552 8.46281 17.3733 8.48408 17.3836 8.51586C17.394 8.54764 17.3918 8.57548 17.3855 8.59336C17.3811 8.60569 17.3708 8.62654 17.3303 8.64817C16.4875 9.09822 16.6873 10.3593 17.6279 10.5269C17.6731 10.5349 17.6893 10.5516 17.6972 10.5619C17.7088 10.577 17.7195 10.6028 17.7195 10.6362C17.7195 10.6696 17.7088 10.6954 17.6972 10.7105C17.6893 10.7208 17.6731 10.7375 17.6279 10.7456C16.6873 10.9132 16.4875 12.1742 17.3303 12.6243C17.3708 12.6459 17.3811 12.6667 17.3855 12.6791C17.3918 12.6969 17.3939 12.7248 17.3836 12.7566C17.3733 12.7883 17.3552 12.8096 17.3396 12.8203C17.3288 12.8277 17.3082 12.8386 17.2627 12.8323C16.3164 12.701 15.7367 13.8386 16.3992 14.527C16.431 14.5601 16.4343 14.5831 16.4347 14.5962C16.4352 14.6152 16.4287 14.6423 16.409 14.6694C16.3894 14.6964 16.3656 14.711 16.3474 14.7164C16.3348 14.7201 16.3119 14.724 16.2706 14.704C15.4112 14.2867 14.5084 15.1895 14.9256 16.049C14.9457 16.0903 14.9417 16.1132 14.938 16.1257C14.9327 16.1439 14.918 16.1677 14.891 16.1874C14.864 16.207 14.8368 16.2136 14.8179 16.213C14.8048 16.2127 14.7818 16.2094 14.7487 16.1775C14.0603 15.5151 12.9226 16.0947 13.0539 17.0411C13.0602 17.0865 13.0494 17.1071 13.042 17.1179C13.0313 17.1336 13.01 17.1516 12.9782 17.162C12.9464 17.1723 12.9186 17.1702 12.9007 17.1638C12.8884 17.1594 12.8675 17.1492 12.8459 17.1087C12.3959 16.2659 11.1348 16.4656 10.9672 17.4062C10.9592 17.4514 10.9425 17.4676 10.9321 17.4756C10.9171 17.4872 10.8913 17.4978 10.8579 17.4978C10.8245 17.4978 10.7986 17.4872 10.7836 17.4756C10.7732 17.4676 10.7566 17.4514 10.7485 17.4062C10.5809 16.4656 9.31988 16.2659 8.86984 17.1087C8.84821 17.1492 8.82735 17.1594 8.81503 17.1638C8.79715 17.1702 8.76931 17.1723 8.73753 17.162C8.70575 17.1516 8.68448 17.1336 8.67376 17.1179C8.66637 17.1071 8.65552 17.0865 8.66183 17.0411C8.7931 16.0947 7.65549 15.5151 6.96705 16.1775C6.93396 16.2094 6.91096 16.2127 6.89788 16.213C6.87891 16.2136 6.85178 16.207 6.82474 16.1874C6.7977 16.1677 6.78307 16.1439 6.77771 16.1257C6.77401 16.1132 6.77006 16.0903 6.79011 16.049C7.20739 15.1895 6.30458 14.2867 5.44512 14.704C5.40382 14.724 5.38091 14.7201 5.36836 14.7164C5.35016 14.711 5.32638 14.6964 5.30674 14.6694C5.2871 14.6423 5.28053 14.6152 5.28105 14.5962C5.28142 14.5831 5.28473 14.5601 5.31656 14.527C5.97901 13.8386 5.39937 12.701 4.45303 12.8323C4.40755 12.8386 4.38699 12.8277 4.3762 12.8203C4.36054 12.8096 4.34245 12.7883 4.33213 12.7566C4.3218 12.7248 4.32393 12.6969 4.3303 12.6791C4.33469 12.6667 4.34495 12.6459 4.38544 12.6243C5.22821 12.1742 5.02848 10.9132 4.08789 10.7456C4.04269 10.7375 4.02649 10.7208 4.0185 10.7105C4.00693 10.6954 3.9963 10.6696 3.9963 10.6362C3.9963 10.6028 4.00693 10.577 4.0185 10.5619C4.02649 10.5516 4.04269 10.5349 4.08789 10.5269C5.02848 10.3593 5.22821 9.09822 4.38544 8.64817Z" stroke="white" stroke-width="0.895397"/>
</g>
<defs>
<filter id="filter0_di_657_2025" x="1.50025" y="2.45733" width="18.7143" height="19.5812" filterUnits="userSpaceOnUse" color-interpolation-filters="sRGB">
<feFlood flood-opacity="0" result="BackgroundImageFix"/>
<feColorMatrix in="SourceAlpha" type="matrix" values="0 0 0 0 0 0 0 0 0 0 0 0 0 0 0 0 0 0 127 0" result="hardAlpha"/>
<feOffset dy="2.04662"/>
<feGaussianBlur stdDeviation="1.02331"/>
<feComposite in2="hardAlpha" operator="out"/>
<feColorMatrix type="matrix" values="0 0 0 0 0 0 0 0 0 0 0 0 0 0 0 0 0 0 0.13 0"/>
<feBlend mode="normal" in2="BackgroundImageFix" result="effect1_dropShadow_657_2025"/>
<feBlend mode="normal" in="SourceGraphic" in2="effect1_dropShadow_657_2025" result="shape"/>
<feColorMatrix in="SourceAlpha" type="matrix" values="0 0 0 0 0 0 0 0 0 0 0 0 0 0 0 0 0 0 127 0" result="hardAlpha"/>
<feOffset dx="-1.91871" dy="-1.02331"/>
<feGaussianBlur stdDeviation="0.434907"/>
<feComposite in2="hardAlpha" operator="arithmetic" k2="-1" k3="1"/>
<feColorMatrix type="matrix" values="0 0 0 0 0 0 0 0 0 0 0 0 0 0 0 0 0 0 0.25 0"/>
<feBlend mode="normal" in2="shape" result="effect2_innerShadow_657_2025"/>
</filter>
</defs>
</svg>
