<svg width="33" height="33" viewBox="0 0 33 33" fill="none" xmlns="http://www.w3.org/2000/svg">
<path d="M21.9883 22.3125L30.6005 30.9247L30.7428 31.067" stroke="#030A00" stroke-width="2.8696" stroke-linecap="round"/>
<rect x="0.746094" y="0.980469" width="26.4003" height="26.4003" rx="13.2001" fill="#030A00"/>
<g filter="url(#filter0_di_678_2261)">
<path d="M13.2154 5.08225C13.3608 4.26608 14.5317 4.26608 14.6771 5.08225C14.8007 5.776 15.7308 5.92331 16.0627 5.30171C16.4532 4.57043 17.5668 4.93224 17.4529 5.7534C17.356 6.45139 18.1951 6.87891 18.7029 6.39031C19.3003 5.81549 20.2475 6.50369 19.8854 7.24946C19.5776 7.88337 20.2435 8.54926 20.8774 8.24148C21.6232 7.8794 22.3114 8.82661 21.7366 9.424C21.248 9.93177 21.6755 10.7708 22.3735 10.674C23.1946 10.5601 23.5564 11.6736 22.8252 12.0641C22.2036 12.3961 22.3509 13.3262 23.0446 13.4498C23.8608 13.5952 23.8608 14.7661 23.0446 14.9115C22.3509 15.0351 22.2036 15.9652 22.8252 16.2971C23.5564 16.6876 23.1946 17.8012 22.3735 17.6873C21.6755 17.5904 21.248 18.4295 21.7366 18.9373C22.3114 19.5347 21.6232 20.4819 20.8774 20.1198C20.2435 19.812 19.5776 20.4779 19.8854 21.1118C20.2475 21.8576 19.3003 22.5458 18.7029 21.971C18.1951 21.4824 17.356 21.9099 17.4529 22.6079C17.5668 23.429 16.4532 23.7908 16.0627 23.0596C15.7308 22.438 14.8007 22.5853 14.6771 23.279C14.5317 24.0952 13.3608 24.0952 13.2154 23.279C13.0918 22.5853 12.1617 22.438 11.8298 23.0596C11.4392 23.7908 10.3257 23.429 10.4396 22.6079C10.5364 21.9099 9.69738 21.4824 9.18961 21.971C8.59223 22.5458 7.64501 21.8576 8.0071 21.1118C8.31487 20.4779 7.64898 19.812 7.01507 20.1198C6.2693 20.4819 5.58111 19.5347 6.15593 18.9373C6.64453 18.4295 6.217 17.5904 5.51901 17.6873C4.69785 17.8012 4.33605 16.6876 5.06733 16.2971C5.68893 15.9652 5.54162 15.0351 4.84787 14.9115C4.0317 14.7661 4.0317 13.5952 4.84787 13.4498C5.54162 13.3262 5.68893 12.3961 5.06733 12.0641C4.33605 11.6736 4.69785 10.5601 5.51901 10.674C6.217 10.7708 6.64453 9.93177 6.15593 9.424C5.58111 8.82661 6.2693 7.8794 7.01507 8.24148C7.64898 8.54926 8.31487 7.88337 8.0071 7.24946C7.64501 6.50369 8.59223 5.81549 9.18961 6.39031C9.69738 6.87891 10.5364 6.45139 10.4396 5.7534C10.3257 4.93224 11.4392 4.57043 11.8298 5.30171C12.1617 5.92331 13.0918 5.776 13.2154 5.08225Z" fill="#D6FBC4"/>
<path d="M13.801 5.18658C13.8117 5.12653 13.8338 5.10501 13.8476 5.0944C13.8676 5.07902 13.9018 5.0649 13.9462 5.0649C13.9906 5.0649 14.0249 5.07902 14.0449 5.0944C14.0587 5.10501 14.0808 5.12653 14.0915 5.18658C14.3142 6.43617 15.9895 6.70151 16.5874 5.58188C16.6161 5.52808 16.6438 5.51445 16.6602 5.50862C16.684 5.50017 16.7209 5.49733 16.7632 5.51105C16.8054 5.52477 16.8336 5.5488 16.8479 5.5696C16.8577 5.58395 16.8721 5.61126 16.8637 5.67167C16.6893 6.9289 18.2007 7.69897 19.1153 6.8189C19.1592 6.77661 19.1898 6.77221 19.2072 6.77172C19.2324 6.77102 19.2684 6.77975 19.3043 6.80585C19.3403 6.83194 19.3597 6.86353 19.3668 6.88771C19.3717 6.90439 19.377 6.93482 19.3503 6.98969C18.796 8.13149 19.9954 9.3309 21.1372 8.77653C21.1921 8.74989 21.2225 8.75515 21.2392 8.76006C21.2633 8.76718 21.2949 8.78662 21.321 8.82254C21.3471 8.85846 21.3558 8.8945 21.3551 8.9197C21.3547 8.93708 21.3503 8.96765 21.308 9.0116C20.4279 9.92621 21.198 11.4375 22.4552 11.2632C22.5156 11.2548 22.5429 11.2692 22.5573 11.279C22.5781 11.2932 22.6021 11.3215 22.6158 11.3637C22.6295 11.4059 22.6267 11.4429 22.6182 11.4667C22.6124 11.4831 22.5988 11.5108 22.545 11.5395C21.4254 12.1374 21.6907 13.8127 22.9403 14.0354C23.0003 14.0461 23.0219 14.0682 23.0325 14.082C23.0478 14.1019 23.062 14.1362 23.062 14.1806C23.062 14.225 23.0478 14.2593 23.0325 14.2793C23.0219 14.2931 23.0003 14.3152 22.9403 14.3259C21.6907 14.5486 21.4254 16.2239 22.545 16.8218C22.5988 16.8505 22.6124 16.8782 22.6182 16.8946C22.6267 16.9184 22.6295 16.9553 22.6158 16.9976C22.6021 17.0398 22.5781 17.068 22.5573 17.0823C22.5429 17.0921 22.5156 17.1065 22.4552 17.0981C21.198 16.9237 20.4279 18.4351 21.308 19.3497C21.3503 19.3936 21.3547 19.4242 21.3551 19.4416C21.3558 19.4668 21.3471 19.5028 21.321 19.5387C21.2949 19.5747 21.2633 19.5941 21.2392 19.6012C21.2225 19.6061 21.1921 19.6114 21.1372 19.5847C19.9954 19.0304 18.796 20.2298 19.3503 21.3716C19.377 21.4265 19.3717 21.4569 19.3668 21.4736C19.3597 21.4977 19.3403 21.5293 19.3043 21.5554C19.2684 21.5815 19.2324 21.5903 19.2072 21.5896C19.1898 21.5891 19.1592 21.5847 19.1153 21.5424C18.2007 20.6623 16.6893 21.4324 16.8637 22.6896C16.8721 22.75 16.8577 22.7773 16.8479 22.7917C16.8336 22.8125 16.8054 22.8365 16.7632 22.8502C16.7209 22.8639 16.684 22.8611 16.6602 22.8527C16.6438 22.8468 16.6161 22.8332 16.5874 22.7794C15.9895 21.6598 14.3142 21.9251 14.0915 23.1747C14.0808 23.2347 14.0587 23.2563 14.0449 23.2669C14.0249 23.2823 13.9906 23.2964 13.9462 23.2964C13.9018 23.2964 13.8676 23.2823 13.8476 23.2669C13.8338 23.2563 13.8117 23.2347 13.801 23.1747C13.5783 21.9251 11.903 21.6598 11.3051 22.7794C11.2764 22.8332 11.2487 22.8468 11.2323 22.8527C11.2085 22.8611 11.1716 22.8639 11.1293 22.8502C11.0871 22.8365 11.0589 22.8125 11.0446 22.7917C11.0348 22.7773 11.0204 22.75 11.0288 22.6896C11.2032 21.4324 9.69182 20.6623 8.77721 21.5424C8.73326 21.5847 8.70269 21.5891 8.68532 21.5896C8.66012 21.5903 8.62407 21.5815 8.58815 21.5554C8.55224 21.5293 8.53279 21.4977 8.52567 21.4736C8.52076 21.4569 8.5155 21.4265 8.54214 21.3716C9.09651 20.2298 7.89711 19.0304 6.7553 19.5847C6.70043 19.6114 6.67001 19.6061 6.65333 19.6012C6.62914 19.5941 6.59756 19.5747 6.57146 19.5387C6.54537 19.5028 6.53664 19.4668 6.53734 19.4416C6.53782 19.4242 6.54222 19.3936 6.58451 19.3497C7.46458 18.4351 6.69452 16.9237 5.43729 17.0981C5.37688 17.1065 5.34956 17.0921 5.33522 17.0823C5.31442 17.068 5.29039 17.0398 5.27667 16.9976C5.26295 16.9553 5.26578 16.9184 5.27424 16.8946C5.28007 16.8782 5.2937 16.8505 5.3475 16.8218C6.46713 16.2239 6.20179 14.5486 4.9522 14.3259C4.89215 14.3152 4.87063 14.2931 4.86002 14.2793C4.84464 14.2593 4.83051 14.225 4.83051 14.1806C4.83051 14.1362 4.84464 14.1019 4.86002 14.082C4.87063 14.0682 4.89215 14.0461 4.9522 14.0354C6.20179 13.8127 6.46713 12.1374 5.3475 11.5395C5.2937 11.5108 5.28007 11.4831 5.27424 11.4667C5.26578 11.4429 5.26295 11.4059 5.27667 11.3637C5.29039 11.3215 5.31442 11.2932 5.33522 11.279C5.34956 11.2692 5.37688 11.2548 5.43729 11.2632C6.69452 11.4375 7.46458 9.92621 6.58452 9.0116C6.54222 8.96765 6.53782 8.93708 6.53734 8.9197C6.53664 8.8945 6.54537 8.85846 6.57146 8.82254C6.59756 8.78662 6.62914 8.76718 6.65333 8.76006C6.67001 8.75515 6.70043 8.74989 6.7553 8.77653C7.89711 9.3309 9.09651 8.13149 8.54214 6.98969C8.5155 6.93482 8.52076 6.90439 8.52567 6.88771C8.53279 6.86353 8.55224 6.83194 8.58815 6.80585C8.62407 6.77975 8.66012 6.77102 8.68532 6.77172C8.70269 6.77221 8.73326 6.77661 8.77721 6.8189C9.69182 7.69897 11.2032 6.9289 11.0288 5.67167C11.0204 5.61126 11.0348 5.58395 11.0446 5.5696C11.0589 5.5488 11.0871 5.52477 11.1293 5.51105C11.1716 5.49733 11.2085 5.50017 11.2323 5.50862C11.2487 5.51445 11.2764 5.52808 11.3051 5.58188C11.903 6.70151 13.5783 6.43617 13.801 5.18658Z" stroke="white" stroke-width="1.18955"/>
</g>
<defs>
<filter id="filter0_di_678_2261" x="1.5154" y="3.31416" width="24.8598" height="26.0154" filterUnits="userSpaceOnUse" color-interpolation-filters="sRGB">
<feFlood flood-opacity="0" result="BackgroundImageFix"/>
<feColorMatrix in="SourceAlpha" type="matrix" values="0 0 0 0 0 0 0 0 0 0 0 0 0 0 0 0 0 0 127 0" result="hardAlpha"/>
<feOffset dy="2.71897"/>
<feGaussianBlur stdDeviation="1.35949"/>
<feComposite in2="hardAlpha" operator="out"/>
<feColorMatrix type="matrix" values="0 0 0 0 0 0 0 0 0 0 0 0 0 0 0 0 0 0 0.13 0"/>
<feBlend mode="normal" in2="BackgroundImageFix" result="effect1_dropShadow_678_2261"/>
<feBlend mode="normal" in="SourceGraphic" in2="effect1_dropShadow_678_2261" result="shape"/>
<feColorMatrix in="SourceAlpha" type="matrix" values="0 0 0 0 0 0 0 0 0 0 0 0 0 0 0 0 0 0 127 0" result="hardAlpha"/>
<feOffset dx="-2.54904" dy="-1.35949"/>
<feGaussianBlur stdDeviation="0.577781"/>
<feComposite in2="hardAlpha" operator="arithmetic" k2="-1" k3="1"/>
<feColorMatrix type="matrix" values="0 0 0 0 0 0 0 0 0 0 0 0 0 0 0 0 0 0 0.25 0"/>
<feBlend mode="normal" in2="shape" result="effect2_innerShadow_678_2261"/>
</filter>
</defs>
</svg>
