<svg width="41" height="40" viewBox="0 0 41 40" fill="none" xmlns="http://www.w3.org/2000/svg">
<path d="M19.0794 2.6274C19.7375 1.52616 21.3328 1.52616 21.9909 2.6274L27.7169 12.2091C27.8607 12.4498 28.062 12.651 28.3027 12.7949L37.8843 18.5208C38.9856 19.1789 38.9856 20.7742 37.8843 21.4323L28.3027 27.1583C28.062 27.3021 27.8607 27.5034 27.7169 27.7441L21.9909 37.3257C21.3328 38.427 19.7375 38.427 19.0794 37.3257L13.3535 27.7441C13.2096 27.5034 13.0083 27.3021 12.7677 27.1583L3.18599 21.4323C2.08476 20.7742 2.08476 19.1789 3.18599 18.5208L12.7677 12.7949C13.0083 12.651 13.2096 12.4498 13.3535 12.2091L19.0794 2.6274Z" fill="#030A00"/>
<g filter="url(#filter0_di_1293_12506)">
<path d="M19.8312 11.2101C19.9713 10.4237 21.0995 10.4237 21.2396 11.2101C21.3587 11.8785 22.2549 12.0205 22.5748 11.4216C22.951 10.7169 24.024 11.0655 23.9142 11.8568C23.8209 12.5293 24.6294 12.9413 25.1187 12.4705C25.6943 11.9166 26.607 12.5797 26.2581 13.2983C25.9615 13.9091 26.6031 14.5507 27.2139 14.2542C27.9325 13.9053 28.5956 14.818 28.0418 15.3936C27.571 15.8828 27.9829 16.6913 28.6555 16.598C29.4467 16.4883 29.7953 17.5612 29.0907 17.9375C28.4918 18.2573 28.6337 19.1535 29.3022 19.2726C30.0886 19.4128 30.0886 20.5409 29.3022 20.681C28.6337 20.8001 28.4918 21.6963 29.0907 22.0162C29.7953 22.3925 29.4467 23.4654 28.6555 23.3556C27.9829 23.2624 27.571 24.0708 28.0418 24.5601C28.5956 25.1357 27.9325 26.0484 27.2139 25.6995C26.6031 25.403 25.9615 26.0446 26.2581 26.6554C26.607 27.374 25.6943 28.0371 25.1187 27.4832C24.6294 27.0124 23.8209 27.4244 23.9142 28.0969C24.024 28.8881 22.951 29.2368 22.5748 28.5321C22.2549 27.9332 21.3587 28.0751 21.2396 28.7436C21.0995 29.53 19.9713 29.53 19.8312 28.7436C19.7121 28.0751 18.8159 27.9332 18.4961 28.5321C18.1198 29.2368 17.0469 28.8881 17.1566 28.0969C17.2499 27.4244 16.4414 27.0124 15.9522 27.4832C15.3766 28.0371 14.4639 27.374 14.8127 26.6554C15.1093 26.0446 14.4677 25.403 13.8569 25.6995C13.1383 26.0484 12.4752 25.1357 13.0291 24.5601C13.4998 24.0708 13.0879 23.2624 12.4154 23.3556C11.6241 23.4654 11.2755 22.3925 11.9801 22.0162C12.5791 21.6963 12.4371 20.8001 11.7687 20.681C10.9823 20.5409 10.9823 19.4128 11.7687 19.2726C12.4371 19.1535 12.5791 18.2573 11.9801 17.9375C11.2755 17.5612 11.6241 16.4883 12.4154 16.598C13.0879 16.6913 13.4998 15.8828 13.0291 15.3936C12.4752 14.818 13.1383 13.9053 13.8569 14.2542C14.4677 14.5507 15.1093 13.9091 14.8127 13.2983C14.4639 12.5797 15.3766 11.9166 15.9522 12.4705C16.4414 12.9413 17.2499 12.5293 17.1566 11.8568C17.0469 11.0655 18.1198 10.7169 18.4961 11.4216C18.8159 12.0205 19.7121 11.8785 19.8312 11.2101Z" fill="#FAFAFA"/>
<path d="M20.4268 11.3162C20.4357 11.266 20.4529 11.2523 20.4598 11.247C20.473 11.2368 20.4991 11.2252 20.5354 11.2252C20.5718 11.2252 20.5978 11.2368 20.6111 11.247C20.618 11.2523 20.6351 11.266 20.6441 11.3162C20.8639 12.55 22.518 12.812 23.1084 11.7065C23.1324 11.6616 23.1529 11.6538 23.1611 11.6509C23.1769 11.6453 23.2052 11.6423 23.2398 11.6535C23.2744 11.6648 23.2956 11.6839 23.305 11.6977C23.3099 11.7049 23.322 11.7232 23.315 11.7737C23.1428 13.015 24.6351 13.7753 25.5381 12.9064C25.5748 12.8711 25.5967 12.87 25.6055 12.8698C25.6222 12.8693 25.6501 12.8753 25.6795 12.8966C25.7089 12.918 25.7232 12.9427 25.7279 12.9587C25.7303 12.9671 25.7361 12.9883 25.7139 13.0341C25.1665 14.1615 26.3508 15.3457 27.4782 14.7984C27.524 14.7761 27.5451 14.7819 27.5535 14.7844C27.5695 14.7891 27.5943 14.8034 27.6156 14.8328C27.637 14.8622 27.6429 14.8901 27.6424 14.9068C27.6422 14.9155 27.6412 14.9374 27.6059 14.9741C26.7369 15.8772 27.4972 17.3694 28.7386 17.1972C28.789 17.1902 28.8074 17.2023 28.8146 17.2072C28.8284 17.2167 28.8475 17.2379 28.8587 17.2724C28.8699 17.307 28.8669 17.3354 28.8613 17.3511C28.8584 17.3593 28.8507 17.3799 28.8057 17.4039C27.7003 17.9942 27.9622 19.6484 29.196 19.8682C29.2462 19.8771 29.2599 19.8943 29.2652 19.9012C29.2754 19.9144 29.287 19.9405 29.287 19.9768C29.287 20.0132 29.2754 20.0393 29.2652 20.0525C29.2599 20.0594 29.2462 20.0765 29.196 20.0855C27.9622 20.3053 27.7003 21.9595 28.8057 22.5498C28.8507 22.5738 28.8584 22.5943 28.8613 22.6026C28.8669 22.6183 28.8699 22.6467 28.8587 22.6812C28.8475 22.7158 28.8284 22.737 28.8146 22.7464C28.8074 22.7514 28.789 22.7634 28.7386 22.7564C27.4972 22.5843 26.7369 24.0765 27.6059 24.9795C27.6412 25.0163 27.6422 25.0382 27.6424 25.0469C27.6429 25.0636 27.637 25.0915 27.6156 25.1209C27.5943 25.1503 27.5695 25.1646 27.5535 25.1693C27.5451 25.1718 27.524 25.1776 27.4782 25.1553C26.3508 24.608 25.1665 25.7922 25.7139 26.9196C25.7361 26.9654 25.7303 26.9866 25.7279 26.995C25.7232 27.011 25.7089 27.0357 25.6795 27.0571C25.6501 27.0784 25.6222 27.0843 25.6055 27.0839C25.5967 27.0836 25.5748 27.0826 25.5381 27.0473C24.6351 26.1784 23.1428 26.9387 23.315 28.18C23.322 28.2305 23.3099 28.2488 23.305 28.256C23.2956 28.2698 23.2744 28.2889 23.2398 28.3001C23.2052 28.3114 23.1769 28.3084 23.1611 28.3028C23.1529 28.2998 23.1324 28.2921 23.1084 28.2472C22.518 27.1417 20.8639 27.4037 20.6441 28.6375C20.6351 28.6876 20.618 28.7013 20.6111 28.7067C20.5978 28.7168 20.5718 28.7285 20.5354 28.7285C20.4991 28.7285 20.473 28.7168 20.4598 28.7067C20.4529 28.7013 20.4357 28.6876 20.4268 28.6375C20.2069 27.4037 18.5528 27.1417 17.9625 28.2472C17.9385 28.2921 17.9179 28.2998 17.9097 28.3028C17.894 28.3084 17.8656 28.3114 17.831 28.3001C17.7964 28.2889 17.7752 28.2698 17.7658 28.256C17.7609 28.2488 17.7488 28.2305 17.7558 28.18C17.928 26.9387 16.4358 26.1784 15.5327 27.0473C15.496 27.0826 15.4741 27.0836 15.4654 27.0839C15.4487 27.0843 15.4207 27.0784 15.3913 27.0571C15.3619 27.0357 15.3477 27.011 15.343 26.995C15.3405 26.9866 15.3347 26.9654 15.3569 26.9196C15.9043 25.7922 14.7201 24.608 13.5927 25.1553L13.8569 25.6995L13.5927 25.1553C13.5468 25.1776 13.5257 25.1718 13.5173 25.1693C13.5013 25.1646 13.4766 25.1503 13.4552 25.1209C13.4338 25.0915 13.4279 25.0636 13.4284 25.0469C13.4286 25.0382 13.4296 25.0163 13.465 24.9795C14.3339 24.0765 13.5736 22.5843 12.3322 22.7564C12.2818 22.7634 12.2635 22.7514 12.2562 22.7464C12.2425 22.737 12.2234 22.7158 12.2121 22.6812C12.2009 22.6467 12.2039 22.6183 12.2095 22.6026C12.2124 22.5943 12.2202 22.5738 12.2651 22.5498C13.3706 21.9595 13.1086 20.3053 11.8748 20.0855C11.8246 20.0765 11.8109 20.0594 11.8056 20.0525C11.7954 20.0393 11.7838 20.0132 11.7838 19.9768C11.7838 19.9405 11.7954 19.9144 11.8056 19.9012C11.8109 19.8943 11.8246 19.8771 11.8748 19.8682C13.1086 19.6484 13.3706 17.9942 12.2651 17.4039C12.2202 17.3799 12.2124 17.3593 12.2095 17.3511C12.2039 17.3354 12.2009 17.307 12.2121 17.2724C12.2234 17.2379 12.2425 17.2167 12.2562 17.2072C12.2635 17.2023 12.2818 17.1902 12.3322 17.1972C13.5736 17.3694 14.3339 15.8772 13.465 14.9741C13.4296 14.9374 13.4286 14.9155 13.4284 14.9068C13.4279 14.8901 13.4338 14.8622 13.4552 14.8328C13.4766 14.8034 13.5013 14.7891 13.5173 14.7844C13.5257 14.7819 13.5468 14.7761 13.5927 14.7984C14.7201 15.3457 15.9043 14.1615 15.3569 13.0341C15.3347 12.9883 15.3405 12.9671 15.343 12.9587C15.3477 12.9427 15.3619 12.918 15.3913 12.8966C15.4207 12.8753 15.4487 12.8693 15.4654 12.8698C15.4741 12.87 15.496 12.8711 15.5327 12.9064C16.4358 13.7753 17.928 13.015 17.7558 11.7737C17.7488 11.7232 17.7609 11.7049 17.7658 11.6977C17.7752 11.6839 17.7964 11.6648 17.831 11.6535C17.8656 11.6423 17.894 11.6453 17.9097 11.6509C17.9179 11.6538 17.9385 11.6616 17.9625 11.7065C18.5528 12.812 20.2069 12.55 20.4268 11.3162Z" stroke="white" stroke-width="1.20987"/>
</g>
<defs>
<filter id="filter0_di_1293_12506" x="8.41329" y="9.44481" width="24.2442" height="25.4195" filterUnits="userSpaceOnUse" color-interpolation-filters="sRGB">
<feFlood flood-opacity="0" result="BackgroundImageFix"/>
<feColorMatrix in="SourceAlpha" type="matrix" values="0 0 0 0 0 0 0 0 0 0 0 0 0 0 0 0 0 0 127 0" result="hardAlpha"/>
<feOffset dy="2.76542"/>
<feGaussianBlur stdDeviation="1.38271"/>
<feComposite in2="hardAlpha" operator="out"/>
<feColorMatrix type="matrix" values="0 0 0 0 0 0 0 0 0 0 0 0 0 0 0 0 0 0 0.13 0"/>
<feBlend mode="normal" in2="BackgroundImageFix" result="effect1_dropShadow_1293_12506"/>
<feBlend mode="normal" in="SourceGraphic" in2="effect1_dropShadow_1293_12506" result="shape"/>
<feColorMatrix in="SourceAlpha" type="matrix" values="0 0 0 0 0 0 0 0 0 0 0 0 0 0 0 0 0 0 127 0" result="hardAlpha"/>
<feOffset dx="-2.59258" dy="-1.38271"/>
<feGaussianBlur stdDeviation="0.587651"/>
<feComposite in2="hardAlpha" operator="arithmetic" k2="-1" k3="1"/>
<feColorMatrix type="matrix" values="0 0 0 0 0 0 0 0 0 0 0 0 0 0 0 0 0 0 0.25 0"/>
<feBlend mode="normal" in2="shape" result="effect2_innerShadow_1293_12506"/>
</filter>
</defs>
</svg>
