<svg width="23" height="26" viewBox="0 0 23 26" fill="none" xmlns="http://www.w3.org/2000/svg">
<path d="M18.6079 25.2774C17.5821 25.2774 16.7102 24.9184 15.9922 24.2004C15.2742 23.4824 14.9152 22.6105 14.9152 21.5848C14.9152 21.4617 14.946 21.1745 15.0075 20.7232L6.36052 15.6765C6.03228 15.9842 5.65276 16.2255 5.22195 16.4003C4.79114 16.5751 4.32955 16.662 3.8372 16.6612C2.81146 16.6612 1.93958 16.3022 1.22156 15.5842C0.50354 14.8662 0.144531 13.9943 0.144531 12.9686C0.144531 11.9428 0.50354 11.0709 1.22156 10.3529C1.93958 9.6349 2.81146 9.27589 3.8372 9.27589C4.32955 9.27589 4.79114 9.36328 5.22195 9.53807C5.65276 9.71285 6.03228 9.9537 6.36052 10.2606L15.0075 5.21395C14.9665 5.07035 14.941 4.93208 14.9312 4.79915C14.9213 4.66621 14.916 4.51727 14.9152 4.35233C14.9152 3.32659 15.2742 2.45471 15.9922 1.7367C16.7102 1.01868 17.5821 0.659668 18.6079 0.659668C19.6336 0.659668 20.5055 1.01868 21.2235 1.7367C21.9415 2.45471 22.3005 3.32659 22.3005 4.35233C22.3005 5.37807 21.9415 6.24995 21.2235 6.96797C20.5055 7.68599 19.6336 8.045 18.6079 8.045C18.1155 8.045 17.6539 7.95761 17.2231 7.78282C16.7923 7.60803 16.4128 7.36719 16.0845 7.06029L7.43755 12.1069C7.47858 12.2505 7.50442 12.3892 7.51509 12.523C7.52576 12.6567 7.53068 12.8053 7.52986 12.9686C7.52904 13.1319 7.52412 13.2808 7.51509 13.4154C7.50607 13.5499 7.48022 13.6882 7.43755 13.8302L16.0845 18.8768C16.4128 18.5691 16.7923 18.3283 17.2231 18.1543C17.6539 17.9803 18.1155 17.8929 18.6079 17.8921C19.6336 17.8921 20.5055 18.2511 21.2235 18.9691C21.9415 19.6872 22.3005 20.559 22.3005 21.5848C22.3005 22.6105 21.9415 23.4824 21.2235 24.2004C20.5055 24.9184 19.6336 25.2774 18.6079 25.2774Z" fill="#0C2503"/>
</svg>
