<svg width="29" height="25" viewBox="0 0 29 25" fill="none" xmlns="http://www.w3.org/2000/svg">
<path d="M23.9641 5.27135L26.9957 8.95261C27.7033 9.81176 27.0921 11.1068 25.9791 11.1068H4.62342H2.95789C1.91419 11.1068 1.28521 9.95063 1.8522 9.07437L4.23419 5.39311C4.47688 5.01805 4.89315 4.79158 5.33988 4.79158H6.85231H22.9475C23.341 4.79158 23.7139 4.96757 23.9641 5.27135Z" fill="#0C2503"/>
<path d="M23.569 12.5927V21.6773C23.569 22.4046 22.9794 22.9942 22.252 22.9942H5.94038C5.21304 22.9942 4.62342 22.4046 4.62342 21.6773V11.1068M4.62342 11.1068H2.95789C1.91419 11.1068 1.28521 9.95063 1.8522 9.07437L4.23419 5.39311C4.47688 5.01805 4.89315 4.79158 5.33988 4.79158H22.9475C23.341 4.79158 23.7139 4.96757 23.9641 5.27135L26.9957 8.95261C27.7033 9.81176 27.0921 11.1068 25.9791 11.1068H4.62342ZM6.85231 1.44824V10.3638" stroke="#0C2503" stroke-width="2.82327" stroke-linecap="round"/>
</svg>
