<svg width="29" height="29" viewBox="0 0 29 29" fill="none" xmlns="http://www.w3.org/2000/svg">
<path d="M15.4922 14.9755L28.2525 10.3682" stroke="#B30000" stroke-width="1.02967" stroke-linecap="round"/>
<path d="M24.9863 13.7937C25.8393 13.7937 26.5404 14.4877 26.4383 15.3346C26.0952 18.1805 24.8087 20.8471 22.761 22.8948C20.3473 25.3086 17.0735 26.6646 13.6599 26.6646C10.2464 26.6646 6.97262 25.3086 4.55886 22.8948C2.51115 20.8471 1.22468 18.1805 0.881583 15.3346C0.779483 14.4877 1.48056 13.7937 2.33357 13.7937L13.6599 13.7937H24.9863Z" fill="#FF0000"/>
<path d="M1.5298 13.2963L1.50701 13.3245C1.1638 13.7492 1.4661 14.3821 2.01215 14.3821H26.1307C25.9765 14.3821 25.8516 14.2572 25.8516 14.103V13.9819C25.8516 13.857 25.7932 13.7392 25.6939 13.6635L25.1424 13.2434C25.0593 13.1802 24.9578 13.1459 24.8534 13.1459H24.7754C24.5551 13.1459 24.3764 12.9673 24.3764 12.7469V12.272C24.3764 11.939 24.1574 11.6457 23.8382 11.5511L23.7115 11.5135C23.4674 11.4412 23.3 11.2169 23.3 10.9622C23.3 10.7382 23.1698 10.5345 22.9664 10.4404L22.8594 10.3909C22.8077 10.367 22.7589 10.3374 22.7139 10.3026L22.077 9.81042C21.9682 9.72638 21.9045 9.59668 21.9045 9.45923C21.9045 9.3682 21.8766 9.27937 21.8244 9.20479L21.4863 8.72166C21.3986 8.59628 21.2552 8.52161 21.1022 8.52161C20.9329 8.52161 20.7767 8.43028 20.6936 8.28269L20.5591 8.04352C20.5002 7.93885 20.4693 7.82037 20.4693 7.70028C20.4693 7.5355 20.4108 7.37548 20.3044 7.24972C20.1362 7.05113 19.8714 6.96282 19.6178 7.02074L19.2907 7.09541C19.1996 7.11622 19.1064 7.12672 19.0129 7.12672H18.4758H17.6188C17.4756 7.12672 17.3595 7.0106 17.3595 6.86736C17.3595 6.72412 17.2433 6.608 17.1001 6.608H17.0032C16.878 6.608 16.7619 6.54224 16.6976 6.43478L16.6806 6.40642C16.6071 6.28368 16.4745 6.20856 16.3315 6.20856C16.248 6.20856 16.1666 6.18291 16.0982 6.13508L16.0039 6.06912C15.8742 5.97836 15.7196 5.92969 15.5613 5.92969H14.7308C14.6537 5.92969 14.581 5.96563 14.5342 6.02689L14.3979 6.20527C14.2984 6.33559 14.0902 6.26517 14.0902 6.10116C14.0902 6.00646 14.0134 5.92969 13.9187 5.92969H12.4158C12.1515 5.92969 11.9373 6.14391 11.9373 6.40816V6.79318C11.9373 6.87612 11.8946 6.95323 11.8244 6.99733C11.7109 7.0686 11.5611 7.03361 11.4909 6.91944L11.4131 6.79289C11.3424 6.678 11.2172 6.608 11.0823 6.608H10.1909C9.95611 6.608 9.73099 6.70131 9.56507 6.86736L9.40501 7.02756C9.34156 7.09105 9.25549 7.12672 9.16573 7.12672C8.97893 7.12672 8.82749 7.27816 8.82749 7.46497V7.52505C8.82749 7.72322 8.66684 7.88387 8.46867 7.88387H8.42872C8.25261 7.88387 8.10985 8.02663 8.10985 8.20274C8.10985 8.37885 7.96709 8.52161 7.79098 8.52161H6.52754C6.28591 8.52161 6.0753 8.68607 6.01672 8.92049C5.95815 9.15491 5.74753 9.31938 5.5059 9.31938H5.40313C5.13534 9.31938 4.89425 9.48164 4.79343 9.72973L4.50832 10.4313C4.46816 10.5301 4.37213 10.5947 4.26547 10.5947C4.1207 10.5947 4.00334 10.7121 4.00334 10.8569V11.2297C4.00334 11.5141 3.81421 11.7638 3.54043 11.8409L2.92745 12.0135C2.79977 12.0495 2.69238 12.1361 2.63027 12.2533L2.51027 12.4798C2.43552 12.6208 2.25323 12.6631 2.12404 12.5693C2.01421 12.4896 1.86171 12.5067 1.77229 12.6088L1.73268 12.654C1.68024 12.7139 1.65132 12.7908 1.65132 12.8704V12.9525C1.65132 13.0776 1.60843 13.199 1.5298 13.2963Z" fill="#FFAAAA" stroke="#FFAAAA" stroke-width="0.383609" stroke-linecap="round"/>
<path d="M26.016 13.7937C26.3003 13.7937 26.5319 14.0244 26.5205 14.3085C26.3915 17.535 25.0532 20.6027 22.761 22.8948C20.3473 25.3086 17.0735 26.6646 13.6599 26.6646C10.2464 26.6646 6.97262 25.3086 4.55886 22.8948C2.26671 20.6027 0.928389 17.535 0.799351 14.3085C0.787988 14.0244 1.01956 13.7937 1.3039 13.7937L13.6599 13.7937H26.016Z" fill="#B30000"/>
<path d="M9.85547 25.9902H17.5639V26.6356V28.6403H9.85598V26.6356L9.85547 25.9902Z" fill="#B30000"/>
</svg>
