<svg width="36" height="36" viewBox="0 0 36 36" fill="none" xmlns="http://www.w3.org/2000/svg">
<path d="M19.3379 18.1216L35.263 12.4165" stroke="#6D53E7" stroke-width="1.28505" stroke-linecap="round"/>
<path d="M31.185 16.6597C32.2496 16.6597 33.1248 17.5259 32.9953 18.5825C32.5644 22.1009 30.9598 25.3971 28.4078 27.9292C25.3954 30.918 21.3097 32.5971 17.0495 32.5971C12.7893 32.5971 8.70354 30.918 5.69112 27.9292C3.13913 25.3971 1.53452 22.1009 1.10361 18.5826C0.974197 17.5259 1.84933 16.6597 2.91391 16.6597L17.0495 16.6597H31.185Z" fill="#BAADF4"/>
<path d="M1.91194 16.0426L1.88287 16.0783C1.45582 16.6026 1.82893 17.3877 2.50518 17.3877H32.6139C32.4215 17.3877 32.2656 17.2318 32.2656 17.0394V16.8929C32.2656 16.7378 32.1929 16.5917 32.0692 16.4982L31.3802 15.9775C31.2767 15.8992 31.1505 15.8569 31.0207 15.8569H30.9186C30.6458 15.8569 30.4246 15.6357 30.4246 15.3629V14.7798C30.4246 14.3647 30.1511 13.9992 29.7529 13.8821L29.5908 13.8345C29.2887 13.7456 29.0811 13.4683 29.0811 13.1533C29.0811 12.8758 28.9195 12.6237 28.6673 12.5079L28.5307 12.4453C28.4666 12.4158 28.406 12.3793 28.3501 12.3364L27.5536 11.7258C27.4187 11.6224 27.3396 11.4621 27.3396 11.292C27.3396 11.1792 27.3047 11.0692 27.2397 10.977L26.8186 10.3798C26.7085 10.2237 26.5294 10.1309 26.3384 10.1309C26.1269 10.1309 25.9317 10.0172 25.8273 9.83315L25.6603 9.53858C25.5869 9.40919 25.5483 9.26298 25.5483 9.11424C25.5483 8.90955 25.4748 8.7109 25.3419 8.5552C25.1329 8.31021 24.8043 8.20021 24.4902 8.27136L24.0773 8.3649C23.9637 8.39064 23.8476 8.40363 23.7311 8.40363H23.0605H21.9884C21.8111 8.40363 21.6673 8.25984 21.6673 8.08247C21.6673 7.9051 21.5235 7.76132 21.3461 7.76132H21.222C21.066 7.76132 20.9214 7.67969 20.8408 7.54614L20.821 7.51333C20.7286 7.36026 20.5628 7.2667 20.384 7.2667C20.28 7.2667 20.1785 7.23492 20.0931 7.17562L19.9755 7.09404C19.8135 6.98163 19.6211 6.92139 19.4239 6.92139H18.3861C18.2902 6.92139 18.1997 6.96591 18.1412 7.0419L17.9695 7.26486C17.8452 7.42619 17.5872 7.33833 17.5872 7.13471C17.5872 7.01689 17.4916 6.92139 17.3738 6.92139H15.4927C15.1655 6.92139 14.9003 7.18665 14.9003 7.51386V7.98847C14.9003 8.09245 14.8466 8.18907 14.7584 8.24404C14.617 8.33212 14.431 8.28867 14.3432 8.14709L14.2463 7.99068C14.1579 7.84808 14.0021 7.76132 13.8343 7.76132H12.7189C12.4269 7.76132 12.1468 7.87676 11.9397 8.08247L11.7399 8.28084C11.6607 8.35949 11.5536 8.40363 11.442 8.40363C11.2085 8.40363 11.0192 8.59293 11.0192 8.82645V8.89336C11.0192 9.14068 10.8187 9.34117 10.5714 9.34117H10.5184C10.3003 9.34117 10.1235 9.51795 10.1235 9.73602C10.1235 9.95408 9.94676 10.1309 9.72869 10.1309H8.14501C7.84555 10.1309 7.5844 10.3344 7.51127 10.6248C7.43814 10.9152 7.17699 11.1187 6.87753 11.1187H6.74518C6.41099 11.1187 6.10995 11.3207 5.98328 11.63L5.62916 12.4945C5.57877 12.6175 5.45901 12.6979 5.32606 12.6979C5.14516 12.6979 4.99852 12.8445 4.99852 13.0254V13.4835C4.99852 13.8359 4.76376 14.1452 4.4243 14.2401L3.65538 14.4548C3.49628 14.4993 3.36226 14.6068 3.28443 14.7526L3.13579 15.0308C3.04193 15.2066 2.8147 15.2593 2.65303 15.1429C2.51573 15.044 2.32582 15.0653 2.21385 15.1921L2.16567 15.2467C2.09961 15.3216 2.06316 15.4179 2.06316 15.5178V15.6175C2.06316 15.7723 2.00975 15.9225 1.91194 16.0426Z" fill="#D1C9F7" stroke="#D1C9F7" stroke-width="0.478752" stroke-linecap="round"/>
<path d="M32.4701 16.6597C32.825 16.6597 33.114 16.9476 33.0996 17.3021C32.9373 21.2955 31.2673 25.0921 28.4078 27.9292C25.3954 30.918 21.3097 32.5971 17.0495 32.5971C12.7893 32.5971 8.70354 30.918 5.69112 27.9292C2.83166 25.0921 1.16161 21.2955 0.999371 17.3021C0.984967 16.9476 1.274 16.6597 1.62885 16.6597L17.0495 16.6597H32.4701Z" fill="#BAADF4"/>
<path d="M12.3037 31.7607H21.924V32.5599V35.0422H12.3044V32.5599L12.3037 31.7607Z" fill="#6D53E7"/>
</svg>
