<svg width="66" height="66" viewBox="0 0 66 66" fill="none" xmlns="http://www.w3.org/2000/svg">
<g filter="url(#filter0_i_1674_5735)">
<path d="M30.697 2.0024C31.786 0.218223 34.3769 0.218226 35.4658 2.0024L45.9633 19.2021C46.1947 19.5813 46.5132 19.8998 46.8924 20.1312L64.0921 30.6287C65.8762 31.7176 65.8762 34.3085 64.0921 35.3974L46.8924 45.8949C46.5132 46.1263 46.1947 46.4448 45.9633 46.824L35.4658 64.0237C34.3768 65.8079 31.786 65.8079 30.697 64.0237L20.1996 46.824C19.9681 46.4448 19.6496 46.1263 19.2704 45.8949L2.07076 35.3974C0.286583 34.3085 0.286586 31.7176 2.07076 30.6287L19.2704 20.1312C19.6496 19.8998 19.9681 19.5813 20.1996 19.2021L30.697 2.0024Z" fill="#FFC400"/>
</g>
<path d="M31.9781 2.78426C32.482 1.95867 33.6809 1.95866 34.1847 2.78426L44.6822 19.9839L45.9633 19.2021L44.6822 19.9839C45.038 20.5668 45.5276 21.0565 46.1105 21.4122L63.3102 31.9097C64.1358 32.4136 64.1358 33.6125 63.3102 34.1164L46.1105 44.6139C45.5276 44.9696 45.038 45.4593 44.6822 46.0422L34.1847 63.2418C33.6808 64.0674 32.482 64.0674 31.9781 63.2418L21.4806 46.0422C21.1248 45.4593 20.6352 44.9696 20.0523 44.6139L19.2704 45.8949L20.0523 44.6139L2.85262 34.1164C2.02703 33.6125 2.02702 32.4136 2.85262 31.9097L20.0523 21.4122C20.6352 21.0565 21.1248 20.5668 21.4806 19.9839L31.9781 2.78426Z" stroke="#D6FBC4" stroke-width="3.00159"/>
<defs>
<filter id="filter0_i_1674_5735" x="-2.18146" y="-2.25177" width="67.6111" height="67.6136" filterUnits="userSpaceOnUse" color-interpolation-filters="sRGB">
<feFlood flood-opacity="0" result="BackgroundImageFix"/>
<feBlend mode="normal" in="SourceGraphic" in2="BackgroundImageFix" result="shape"/>
<feColorMatrix in="SourceAlpha" type="matrix" values="0 0 0 0 0 0 0 0 0 0 0 0 0 0 0 0 0 0 127 0" result="hardAlpha"/>
<feOffset dx="-6.43198" dy="-3.43039"/>
<feGaussianBlur stdDeviation="1.45792"/>
<feComposite in2="hardAlpha" operator="arithmetic" k2="-1" k3="1"/>
<feColorMatrix type="matrix" values="0 0 0 0 0 0 0 0 0 0 0 0 0 0 0 0 0 0 0.25 0"/>
<feBlend mode="normal" in2="shape" result="effect1_innerShadow_1674_5735"/>
</filter>
</defs>
</svg>
