<svg width="34" height="34" viewBox="0 0 34 34" fill="none" xmlns="http://www.w3.org/2000/svg">
<g filter="url(#filter0_di_749_3760)">
<path d="M15.7646 1.93361C16.2763 0.795873 17.8917 0.79587 18.4034 1.93361L20.7905 7.24104C21.079 7.88255 21.7871 8.22357 22.4686 8.04917L28.1064 6.60633C29.3149 6.29703 30.3221 7.56001 29.7517 8.66944L27.0905 13.8449C26.7688 14.4704 26.9437 15.2367 27.5049 15.6607L32.1481 19.169C33.1434 19.921 32.784 21.4959 31.5609 21.7416L25.8554 22.8878C25.1657 23.0264 24.6757 23.6409 24.6941 24.344L24.8462 30.1616C24.8788 31.4087 23.4234 32.1096 22.4687 31.3065L18.0153 27.5604C17.477 27.1076 16.691 27.1076 16.1527 27.5604L11.6992 31.3065C10.7446 32.1096 9.28911 31.4087 9.32172 30.1616L9.47386 24.344C9.49225 23.6409 9.00221 23.0264 8.31258 22.8878L2.60704 21.7416C1.38397 21.4959 1.02451 19.921 2.01985 19.169L6.66304 15.6607C7.22427 15.2367 7.39916 14.4704 7.0775 13.8449L4.41629 8.66944C3.84582 7.56001 4.85301 6.29703 6.06157 6.60633L11.6994 8.04917C12.3808 8.22357 13.089 7.88255 13.3775 7.24104L15.7646 1.93361Z" fill="#FFC400"/>
<path d="M16.7772 2.38907C16.8962 2.12457 17.2717 2.12457 17.3907 2.38907L19.7778 7.6965C20.2877 8.83039 21.5394 9.43315 22.7439 9.1249L28.3817 7.68205C28.6626 7.61014 28.8968 7.90376 28.7642 8.16167L26.103 13.3371C25.5344 14.4428 25.8435 15.7972 26.8355 16.5467L31.4787 20.0549C31.7101 20.2297 31.6265 20.5959 31.3422 20.653L25.6367 21.7992C24.4177 22.0441 23.5516 23.1302 23.5841 24.3731L23.7362 30.1906C23.7438 30.4805 23.4054 30.6435 23.1835 30.4568L18.73 26.7107C17.7786 25.9103 16.3894 25.9103 15.4379 26.7107L10.9844 30.4568C10.7625 30.6435 10.4242 30.4805 10.4317 30.1906L10.5839 24.3731C10.6164 23.1302 9.75021 22.0441 8.53128 21.7992L2.82574 20.653C2.54141 20.5959 2.45784 20.2297 2.68924 20.0549L7.33243 16.5467C8.32441 15.7972 8.63353 14.4428 8.06499 13.3371L5.40378 8.16167C5.27116 7.90376 5.50531 7.61014 5.78627 7.68205L11.4241 9.1249C12.6286 9.43315 13.8802 8.83039 14.3902 7.6965L16.7772 2.38907Z" stroke="#D6FBC4" stroke-width="2.22078"/>
</g>
<defs>
<filter id="filter0_di_749_3760" x="0.556999" y="0.191765" width="33.054" height="33.0122" filterUnits="userSpaceOnUse" color-interpolation-filters="sRGB">
<feFlood flood-opacity="0" result="BackgroundImageFix"/>
<feColorMatrix in="SourceAlpha" type="matrix" values="0 0 0 0 0 0 0 0 0 0 0 0 0 0 0 0 0 0 127 0" result="hardAlpha"/>
<feOffset dy="0.666235"/>
<feGaussianBlur stdDeviation="0.444157"/>
<feComposite in2="hardAlpha" operator="out"/>
<feColorMatrix type="matrix" values="0 0 0 0 0.125 0 0 0 0 0.125 0 0 0 0 0.125 0 0 0 0.3 0"/>
<feBlend mode="normal" in2="BackgroundImageFix" result="effect1_dropShadow_749_3760"/>
<feBlend mode="normal" in="SourceGraphic" in2="effect1_dropShadow_749_3760" result="shape"/>
<feColorMatrix in="SourceAlpha" type="matrix" values="0 0 0 0 0 0 0 0 0 0 0 0 0 0 0 0 0 0 127 0" result="hardAlpha"/>
<feOffset dx="2.66494" dy="-1.99871"/>
<feGaussianBlur stdDeviation="0.444157"/>
<feComposite in2="hardAlpha" operator="arithmetic" k2="-1" k3="1"/>
<feColorMatrix type="matrix" values="0 0 0 0 0 0 0 0 0 0 0 0 0 0 0 0 0 0 0.25 0"/>
<feBlend mode="normal" in2="shape" result="effect2_innerShadow_749_3760"/>
</filter>
</defs>
</svg>
