<svg width="28" height="28" viewBox="0 0 28 28" fill="none" xmlns="http://www.w3.org/2000/svg">
<rect x="0.25" y="0.123047" width="27.6" height="27.6" rx="13.8" fill="#D6FBC4"/>
<g filter="url(#filter0_di_659_2048)">
<path d="M9.54446 7.22803C11.6396 3.9241 16.4604 3.9241 18.5555 7.22803L20.4558 10.2247L22.1008 13.3687C23.9146 16.8351 21.5042 21.01 17.5953 21.1725L14.05 21.3199L10.5047 21.1725C6.59584 21.01 4.18545 16.8351 5.99916 13.3687L7.64418 10.2247L9.54446 7.22803Z" fill="#0C2503"/>
<path d="M10.0696 7.56103C11.9205 4.64217 16.1795 4.64217 18.0304 7.56103L19.9169 10.5358L21.5499 13.657C23.1522 16.7194 21.0228 20.4077 17.5695 20.5512L14.05 20.6975L10.5305 20.5512C7.07724 20.4077 4.94778 16.7194 6.55011 13.657L8.18315 10.5358L10.0696 7.56103Z" stroke="white" stroke-width="1.24361"/>
</g>
<defs>
<filter id="filter0_di_659_2048" x="2.54419" y="3.54193" width="23.0132" height="23.4634" filterUnits="userSpaceOnUse" color-interpolation-filters="sRGB">
<feFlood flood-opacity="0" result="BackgroundImageFix"/>
<feColorMatrix in="SourceAlpha" type="matrix" values="0 0 0 0 0 0 0 0 0 0 0 0 0 0 0 0 0 0 127 0" result="hardAlpha"/>
<feOffset dy="2.84253"/>
<feGaussianBlur stdDeviation="1.42126"/>
<feComposite in2="hardAlpha" operator="out"/>
<feColorMatrix type="matrix" values="0 0 0 0 0 0 0 0 0 0 0 0 0 0 0 0 0 0 0.13 0"/>
<feBlend mode="normal" in2="BackgroundImageFix" result="effect1_dropShadow_659_2048"/>
<feBlend mode="normal" in="SourceGraphic" in2="effect1_dropShadow_659_2048" result="shape"/>
<feColorMatrix in="SourceAlpha" type="matrix" values="0 0 0 0 0 0 0 0 0 0 0 0 0 0 0 0 0 0 127 0" result="hardAlpha"/>
<feOffset dx="-2.66487" dy="-1.42126"/>
<feGaussianBlur stdDeviation="0.604037"/>
<feComposite in2="hardAlpha" operator="arithmetic" k2="-1" k3="1"/>
<feColorMatrix type="matrix" values="0 0 0 0 0 0 0 0 0 0 0 0 0 0 0 0 0 0 0.25 0"/>
<feBlend mode="normal" in2="shape" result="effect2_innerShadow_659_2048"/>
</filter>
</defs>
</svg>
