<svg width="26" height="26" viewBox="0 0 26 26" fill="none" xmlns="http://www.w3.org/2000/svg">
<rect x="0.354492" y="0.412781" width="25" height="25" rx="12.5" fill="#D6FBC4"/>
<path d="M18.8337 6.05845H17.167V5.22512C17.167 5.0041 17.0792 4.79214 16.9229 4.63586C16.7666 4.47958 16.5547 4.39178 16.3337 4.39178C16.1126 4.39178 15.9007 4.47958 15.7444 4.63586C15.5881 4.79214 15.5003 5.0041 15.5003 5.22512V6.05845H10.5003V5.22512C10.5003 5.0041 10.4125 4.79214 10.2562 4.63586C10.1 4.47958 9.88801 4.39178 9.66699 4.39178C9.44598 4.39178 9.23402 4.47958 9.07774 4.63586C8.92146 4.79214 8.83366 5.0041 8.83366 5.22512V6.05845H7.16699C6.50395 6.05845 5.86807 6.32184 5.39923 6.79068C4.93038 7.25953 4.66699 7.89541 4.66699 8.55845V18.5585C4.66699 19.2215 4.93038 19.8574 5.39923 20.3262C5.86807 20.7951 6.50395 21.0585 7.16699 21.0585H18.8337C19.4967 21.0585 20.1326 20.7951 20.6014 20.3262C21.0703 19.8574 21.3337 19.2215 21.3337 18.5585V8.55845C21.3337 7.89541 21.0703 7.25953 20.6014 6.79068C20.1326 6.32184 19.4967 6.05845 18.8337 6.05845ZM19.667 18.5585C19.667 18.7795 19.5792 18.9914 19.4229 19.1477C19.2666 19.304 19.0547 19.3918 18.8337 19.3918H7.16699C6.94598 19.3918 6.73402 19.304 6.57774 19.1477C6.42146 18.9914 6.33366 18.7795 6.33366 18.5585V12.7251H19.667V18.5585ZM19.667 11.0585H6.33366V8.55845C6.33366 8.33744 6.42146 8.12548 6.57774 7.9692C6.73402 7.81292 6.94598 7.72512 7.16699 7.72512H8.83366V8.55845C8.83366 8.77947 8.92146 8.99143 9.07774 9.14771C9.23402 9.30399 9.44598 9.39178 9.66699 9.39178C9.88801 9.39178 10.1 9.30399 10.2562 9.14771C10.4125 8.99143 10.5003 8.77947 10.5003 8.55845V7.72512H15.5003V8.55845C15.5003 8.77947 15.5881 8.99143 15.7444 9.14771C15.9007 9.30399 16.1126 9.39178 16.3337 9.39178C16.5547 9.39178 16.7666 9.30399 16.9229 9.14771C17.0792 8.99143 17.167 8.77947 17.167 8.55845V7.72512H18.8337C19.0547 7.72512 19.2666 7.81292 19.4229 7.9692C19.5792 8.12548 19.667 8.33744 19.667 8.55845V11.0585Z" fill="#0C2503" stroke="#0C2503" stroke-width="0.154847"/>
<path fill-rule="evenodd" clip-rule="evenodd" d="M19.5644 13.797C19.5644 14.7805 18.7671 15.5778 17.7837 15.5778C16.8002 15.5778 16.0029 14.7805 16.0029 13.797C16.0029 13.4886 16.0814 13.1985 16.2193 12.9455H10.0589C10.1969 13.1985 10.2753 13.4886 10.2753 13.797C10.2753 14.7805 9.47808 15.5778 8.4946 15.5778C7.51113 15.5778 6.71387 14.7805 6.71387 13.797C6.71387 13.4886 6.79229 13.1985 6.93028 12.9455H6.40137V18.9128L6.75076 19.1145C6.72657 18.9975 6.71387 18.8763 6.71387 18.7521C6.71387 17.7686 7.51113 16.9714 8.4946 16.9714C9.47808 16.9714 10.2753 17.7686 10.2753 18.7521C10.2753 18.9994 10.2249 19.235 10.1338 19.4491H16.1445C16.0534 19.235 16.0029 18.9994 16.0029 18.7521C16.0029 17.7686 16.8002 16.9714 17.7837 16.9714C18.7671 16.9714 19.5644 17.7686 19.5644 18.7521C19.5644 18.8365 19.5585 18.9194 19.5472 19.0007L19.7182 18.8297V12.9455H19.348C19.486 13.1985 19.5644 13.4886 19.5644 13.797Z" fill="#0C2503"/>
<path d="M16.2193 12.9455L16.7631 13.2421L17.2628 12.3261H16.2193V12.9455ZM10.0589 12.9455V12.3261H9.0155L9.51518 13.2421L10.0589 12.9455ZM6.93028 12.9455L7.47403 13.2421L7.97371 12.3261H6.93028V12.9455ZM6.40137 12.9455V12.3261H5.78198V12.9455H6.40137ZM6.40137 18.9128H5.78198V19.2704L6.09173 19.4492L6.40137 18.9128ZM6.75076 19.1145L6.44112 19.6509L7.63679 20.341L7.35732 18.9891L6.75076 19.1145ZM10.1338 19.4491L9.5639 19.2064L9.19693 20.0684H10.1338V19.4491ZM16.1445 19.4491V20.0684H17.0813L16.7144 19.2064L16.1445 19.4491ZM19.5472 19.0007L18.9338 18.915L18.6781 20.7457L19.9852 19.4386L19.5472 19.0007ZM19.7182 18.8297L20.1562 19.2676L20.3376 19.0862V18.8297H19.7182ZM19.7182 12.9455H20.3376V12.3261H19.7182V12.9455ZM19.348 12.9455V12.3261H18.3046L18.8042 13.2421L19.348 12.9455ZM17.7837 16.1972C19.1092 16.1972 20.1838 15.1226 20.1838 13.797H18.945C18.945 14.4384 18.4251 14.9584 17.7837 14.9584V16.1972ZM15.3835 13.797C15.3835 15.1226 16.4581 16.1972 17.7837 16.1972V14.9584C17.1423 14.9584 16.6223 14.4384 16.6223 13.797H15.3835ZM15.6756 12.6489C15.4892 12.9905 15.3835 13.3824 15.3835 13.797H16.6223C16.6223 13.5948 16.6735 13.4064 16.7631 13.2421L15.6756 12.6489ZM10.0589 13.5649H16.2193V12.3261H10.0589V13.5649ZM10.8947 13.797C10.8947 13.3824 10.7891 12.9905 10.6027 12.6489L9.51518 13.2421C9.60479 13.4064 9.65595 13.5948 9.65595 13.797H10.8947ZM8.4946 16.1972C9.82016 16.1972 10.8947 15.1226 10.8947 13.797H9.65595C9.65595 14.4384 9.136 14.9584 8.4946 14.9584V16.1972ZM6.09448 13.797C6.09448 15.1226 7.16905 16.1972 8.4946 16.1972V14.9584C7.85321 14.9584 7.33325 14.4384 7.33325 13.797H6.09448ZM6.38653 12.6489C6.20016 12.9905 6.09448 13.3824 6.09448 13.797H7.33325C7.33325 13.5948 7.38442 13.4064 7.47403 13.2421L6.38653 12.6489ZM6.40137 13.5649H6.93028V12.3261H6.40137V13.5649ZM7.02075 18.9128V12.9455H5.78198V18.9128H7.02075ZM7.06039 18.578L6.711 18.3763L6.09173 19.4492L6.44112 19.6509L7.06039 18.578ZM6.09448 18.7521C6.09448 18.9186 6.11153 19.0818 6.1442 19.2398L7.35732 18.9891C7.34161 18.9131 7.33325 18.8339 7.33325 18.7521H6.09448ZM8.4946 16.352C7.16905 16.352 6.09448 17.4266 6.09448 18.7521H7.33325C7.33325 18.1107 7.85321 17.5908 8.4946 17.5908V16.352ZM10.8947 18.7521C10.8947 17.4266 9.82016 16.352 8.4946 16.352V17.5908C9.136 17.5908 9.65595 18.1107 9.65595 18.7521H10.8947ZM10.7037 19.6917C10.8269 19.4023 10.8947 19.0843 10.8947 18.7521H9.65595C9.65595 18.9146 9.62296 19.0677 9.5639 19.2064L10.7037 19.6917ZM16.1445 18.8297H10.1338V20.0684H16.1445V18.8297ZM16.7144 19.2064C16.6553 19.0677 16.6223 18.9146 16.6223 18.7521H15.3835C15.3835 19.0843 15.4514 19.4023 15.5746 19.6917L16.7144 19.2064ZM16.6223 18.7521C16.6223 18.1107 17.1423 17.5908 17.7837 17.5908V16.352C16.4581 16.352 15.3835 17.4266 15.3835 18.7521H16.6223ZM17.7837 17.5908C18.4251 17.5908 18.945 18.1107 18.945 18.7521H20.1838C20.1838 17.4266 19.1092 16.352 17.7837 16.352V17.5908ZM18.945 18.7521C18.945 18.8077 18.9412 18.8621 18.9338 18.915L20.1606 19.0863C20.1759 18.9768 20.1838 18.8652 20.1838 18.7521H18.945ZM19.2802 18.3917L19.1092 18.5627L19.9852 19.4386L20.1562 19.2676L19.2802 18.3917ZM19.0988 12.9455V18.8297H20.3376V12.9455H19.0988ZM19.348 13.5649H19.7182V12.3261H19.348V13.5649ZM20.1838 13.797C20.1838 13.3824 20.0781 12.9905 19.8917 12.6489L18.8042 13.2421C18.8938 13.4064 18.945 13.5948 18.945 13.797H20.1838Z" fill="#0C2503"/>
</svg>
