<svg width="131" height="87" viewBox="0 0 131 87" fill="none" xmlns="http://www.w3.org/2000/svg">
<g filter="url(#filter0_bd_586_3035)">
<path d="M4.5 14.3945C4.5 8.8717 8.97715 4.39453 14.5 4.39453H112.5C118.023 4.39453 122.5 8.87168 122.5 14.3945V68.2843C122.5 73.8071 118.023 78.2843 112.5 78.2843H14.5C8.97715 78.2843 4.5 73.8071 4.5 68.2843V14.3945Z" fill="#FAFAFA" fill-opacity="0.5"/>
<path d="M5.5 14.3945C5.5 9.42398 9.52944 5.39453 14.5 5.39453H112.5C117.471 5.39453 121.5 9.42397 121.5 14.3945V68.2843C121.5 73.2548 117.471 77.2843 112.5 77.2843H14.5C9.52944 77.2843 5.5 73.2549 5.5 68.2843V14.3945Z" stroke="#B0D2C1" stroke-width="2"/>
<path d="M24.6874 35.6347L29.3518 26.6429C29.5917 26.1803 30.0623 25.883 30.5831 25.8648L57.2084 24.9364C58.287 24.8988 59.024 26.0148 58.566 26.9921L54.3073 36.0781C54.0764 36.5707 53.5882 36.8917 53.0445 36.9085L26.0135 37.7426C24.9117 37.7766 24.1798 36.6132 24.6874 35.6347Z" fill="#FFC400"/>
<path d="M24.738 46.7022V45.0502H32.522V46.7022H29.526V55.2842H27.734V46.7022H24.738ZM37.1458 48.3402V49.9222H36.5158C35.2838 49.9222 34.5138 50.5802 34.5138 51.9242V55.2842H32.8058V48.3822H34.4158L34.5138 49.3902C34.8078 48.7042 35.4658 48.2422 36.3898 48.2422C36.6278 48.2422 36.8658 48.2702 37.1458 48.3402ZM37.905 58.4902V57.0622H38.927C39.599 57.0622 40.019 56.9082 40.313 56.0962L40.509 55.5782L37.723 48.3682H39.529L41.307 53.4082L43.183 48.3682H44.947L41.559 56.8242C41.041 58.1122 40.313 58.6442 39.179 58.6442C38.703 58.6442 38.283 58.5882 37.905 58.4902ZM49.3546 47.9062C49.3546 46.1142 50.8386 44.8682 52.9946 44.8682C55.0666 44.8682 56.3826 46.0162 56.4386 47.8642H54.6466C54.6046 46.9822 53.9746 46.4642 52.9666 46.4642C51.8606 46.4642 51.1466 46.9962 51.1466 47.8502C51.1466 48.5782 51.5386 48.9842 52.3926 49.1802L54.0026 49.5302C55.7526 49.9082 56.6066 50.8042 56.6066 52.3302C56.6066 54.2342 55.1226 55.4662 52.8686 55.4662C50.6846 55.4662 49.2566 54.3042 49.2146 52.4702H51.0066C51.0206 53.3382 51.7206 53.8562 52.8686 53.8562C54.0586 53.8562 54.8146 53.3382 54.8146 52.4842C54.8146 51.7982 54.4646 51.3922 53.6246 51.2102L52.0006 50.8462C50.2646 50.4682 49.3546 49.4742 49.3546 47.9062ZM57.5698 51.8122C57.5698 49.6702 58.9838 48.1582 61.0278 48.1582C62.9178 48.1582 64.2058 49.2082 64.3878 50.8742H62.6798C62.4838 50.0902 61.9098 49.6842 61.0978 49.6842C60.0058 49.6842 59.2778 50.5102 59.2778 51.8122C59.2778 53.1142 59.9498 53.9262 61.0418 53.9262C61.8958 53.9262 62.4978 53.5062 62.6798 52.7502H64.4018C64.1918 54.3602 62.8478 55.4662 61.0418 55.4662C58.9417 55.4662 57.5698 54.0102 57.5698 51.8122ZM67.731 55.4662C66.261 55.4662 65.365 54.6122 65.365 53.3102C65.365 52.0362 66.289 51.2382 67.927 51.1122L69.999 50.9582V50.8042C69.999 49.8662 69.439 49.4882 68.571 49.4882C67.563 49.4882 67.003 49.9082 67.003 50.6362H65.547C65.547 49.1382 66.779 48.1582 68.655 48.1582C70.517 48.1582 71.665 49.1662 71.665 51.0842V55.2842H70.167L70.041 54.2622C69.747 54.9762 68.809 55.4662 67.731 55.4662ZM68.291 54.1782C69.341 54.1782 70.013 53.5482 70.013 52.4842V52.1202L68.571 52.2322C67.507 52.3302 67.101 52.6802 67.101 53.2402C67.101 53.8702 67.521 54.1782 68.291 54.1782ZM75.0509 55.2842H73.3429V48.3682H74.9249L75.0649 49.2642C75.4989 48.5642 76.3389 48.1582 77.2769 48.1582C79.0129 48.1582 79.9089 49.2362 79.9089 51.0282V55.2842H78.2009V51.4342C78.2009 50.2722 77.6269 49.7122 76.7449 49.7122C75.6949 49.7122 75.0509 50.4402 75.0509 51.5602V55.2842ZM83.2951 55.2842H81.5871V48.3682H83.1691L83.3091 49.2642C83.7431 48.5642 84.5831 48.1582 85.5211 48.1582C87.2571 48.1582 88.1531 49.2362 88.1531 51.0282V55.2842H86.4451V51.4342C86.4451 50.2722 85.8711 49.7122 84.9891 49.7122C83.9391 49.7122 83.2951 50.4402 83.2951 51.5602V55.2842ZM92.9252 55.4662C90.8672 55.4662 89.4252 53.9682 89.4252 51.8262C89.4252 49.6562 90.8392 48.1582 92.8692 48.1582C94.9412 48.1582 96.2572 49.5442 96.2572 51.7002V52.2182L91.0492 52.2322C91.1752 53.4502 91.8192 54.0662 92.9532 54.0662C93.8912 54.0662 94.5072 53.7022 94.7032 53.0442H96.2852C95.9912 54.5562 94.7312 55.4662 92.9252 55.4662ZM92.8832 49.5582C91.8752 49.5582 91.2592 50.1042 91.0912 51.1402H94.5632C94.5632 50.1882 93.9052 49.5582 92.8832 49.5582ZM101.964 48.3402V49.9222H101.334C100.102 49.9222 99.3322 50.5802 99.3322 51.9242V55.2842H97.6242V48.3822H99.2342L99.3322 49.3902C99.6262 48.7042 100.284 48.2422 101.208 48.2422C101.446 48.2422 101.684 48.2702 101.964 48.3402Z" fill="black"/>
</g>
<defs>
<filter id="filter0_bd_586_3035" x="-15.5" y="-15.6055" width="158" height="113.89" filterUnits="userSpaceOnUse" color-interpolation-filters="sRGB">
<feFlood flood-opacity="0" result="BackgroundImageFix"/>
<feGaussianBlur in="BackgroundImageFix" stdDeviation="10"/>
<feComposite in2="SourceAlpha" operator="in" result="effect1_backgroundBlur_586_3035"/>
<feColorMatrix in="SourceAlpha" type="matrix" values="0 0 0 0 0 0 0 0 0 0 0 0 0 0 0 0 0 0 127 0" result="hardAlpha"/>
<feOffset dx="2" dy="2"/>
<feGaussianBlur stdDeviation="3"/>
<feColorMatrix type="matrix" values="0 0 0 0 0 0 0 0 0 0 0 0 0 0 0 0 0 0 0.14 0"/>
<feBlend mode="normal" in2="effect1_backgroundBlur_586_3035" result="effect2_dropShadow_586_3035"/>
<feBlend mode="normal" in="SourceGraphic" in2="effect2_dropShadow_586_3035" result="shape"/>
</filter>
</defs>
</svg>
