<svg width="33" height="33" viewBox="0 0 33 33" fill="none" xmlns="http://www.w3.org/2000/svg">
<path d="M25.9307 5.59476H23.2398V4.24935C23.2398 3.89252 23.0981 3.55031 22.8458 3.29799C22.5935 3.04568 22.2513 2.90393 21.8944 2.90393C21.5376 2.90393 21.1954 3.04568 20.9431 3.29799C20.6908 3.55031 20.549 3.89252 20.549 4.24935V5.59476H12.4765V4.24935C12.4765 3.89252 12.3348 3.55031 12.0824 3.29799C11.8301 3.04568 11.4879 2.90393 11.1311 2.90393C10.7743 2.90393 10.4321 3.04568 10.1797 3.29799C9.92743 3.55031 9.78568 3.89252 9.78568 4.24935V5.59476H7.09484C6.02436 5.59476 4.99773 6.02001 4.24078 6.77695C3.48384 7.5339 3.05859 8.56053 3.05859 9.63101V25.776C3.05859 26.8465 3.48384 27.8731 4.24078 28.6301C4.99773 29.387 6.02436 29.8123 7.09484 29.8123H25.9307C27.0012 29.8123 28.0278 29.387 28.7847 28.6301C29.5417 27.8731 29.9669 26.8465 29.9669 25.776V9.63101C29.9669 8.56053 29.5417 7.5339 28.7847 6.77695C28.0278 6.02001 27.0012 5.59476 25.9307 5.59476ZM27.2761 25.776C27.2761 26.1328 27.1343 26.4751 26.882 26.7274C26.6297 26.9797 26.2875 27.1214 25.9307 27.1214H7.09484C6.73802 27.1214 6.39581 26.9797 6.14349 26.7274C5.89118 26.4751 5.74943 26.1328 5.74943 25.776V16.3581H27.2761V25.776ZM27.2761 13.6673H5.74943V9.63101C5.74943 9.27419 5.89118 8.93198 6.14349 8.67966C6.39581 8.42735 6.73802 8.2856 7.09484 8.2856H9.78568V9.63101C9.78568 9.98784 9.92743 10.3301 10.1797 10.5824C10.4321 10.8347 10.7743 10.9764 11.1311 10.9764C11.4879 10.9764 11.8301 10.8347 12.0824 10.5824C12.3348 10.3301 12.4765 9.98784 12.4765 9.63101V8.2856H20.549V9.63101C20.549 9.98784 20.6908 10.3301 20.9431 10.5824C21.1954 10.8347 21.5376 10.9764 21.8944 10.9764C22.2513 10.9764 22.5935 10.8347 22.8458 10.5824C23.0981 10.3301 23.2398 9.98784 23.2398 9.63101V8.2856H25.9307C26.2875 8.2856 26.6297 8.42735 26.882 8.67966C27.1343 8.93198 27.2761 9.27419 27.2761 9.63101V13.6673Z" fill="#0C2503" stroke="#0C2503" stroke-width="0.25"/>
<path fill-rule="evenodd" clip-rule="evenodd" d="M27.1172 18.0881C27.1172 19.6759 25.83 20.9631 24.2422 20.9631C22.6544 20.9631 21.3672 19.6759 21.3672 18.0881C21.3672 17.59 21.4938 17.1216 21.7167 16.7131H11.7677C11.9905 17.1216 12.1172 17.59 12.1172 18.0881C12.1172 19.6759 10.83 20.9631 9.24219 20.9631C7.65437 20.9631 6.36719 19.6759 6.36719 18.0881C6.36719 17.59 6.49384 17.1216 6.71669 16.7131H5.86719V26.3473L6.42609 26.6699C6.38747 26.482 6.36719 26.2874 6.36719 26.0881C6.36719 24.5003 7.65437 23.2131 9.24219 23.2131C10.83 23.2131 12.1172 24.5003 12.1172 26.0881C12.1172 26.4873 12.0358 26.8676 11.8887 27.2131H21.5956C21.4486 26.8676 21.3672 26.4873 21.3672 26.0881C21.3672 24.5003 22.6544 23.2131 24.2422 23.2131C25.83 23.2131 27.1172 24.5003 27.1172 26.0881C27.1172 26.2249 27.1076 26.3594 27.0892 26.4911L27.3672 26.2131V16.7131H26.7677C26.9905 17.1216 27.1172 17.59 27.1172 18.0881Z" fill="#0C2503"/>
<path d="M21.7167 16.7131L22.5945 17.1921L23.4015 15.7131H21.7167V16.7131ZM11.7677 16.7131V15.7131H10.0829L10.8898 17.1921L11.7677 16.7131ZM6.71669 16.7131L7.59453 17.1921L8.40145 15.7131H6.71669V16.7131ZM5.86719 16.7131V15.7131H4.86719V16.7131H5.86719ZM5.86719 26.3473H4.86719V26.9247L5.36728 27.2134L5.86719 26.3473ZM6.42609 26.6699L5.92618 27.536L7.85362 28.6485L7.40561 26.4686L6.42609 26.6699ZM11.8887 27.2131L10.9686 26.8215L10.3763 28.2131H11.8887V27.2131ZM21.5956 27.2131V28.2131H23.1081L22.5158 26.8215L21.5956 27.2131ZM27.0892 26.4911L26.0989 26.3522L25.6838 29.3107L27.7963 27.1982L27.0892 26.4911ZM27.3672 26.2131L28.0743 26.9202L28.3672 26.6273V26.2131H27.3672ZM27.3672 16.7131H28.3672V15.7131H27.3672V16.7131ZM26.7677 16.7131V15.7131H25.0829L25.8898 17.1921L26.7677 16.7131ZM24.2422 21.9631C26.3823 21.9631 28.1172 20.2282 28.1172 18.0881H26.1172C26.1172 19.1236 25.2777 19.9631 24.2422 19.9631V21.9631ZM20.3672 18.0881C20.3672 20.2282 22.1021 21.9631 24.2422 21.9631V19.9631C23.2067 19.9631 22.3672 19.1236 22.3672 18.0881H20.3672ZM20.8389 16.2342C20.5379 16.7858 20.3672 17.4185 20.3672 18.0881H22.3672C22.3672 17.7616 22.4498 17.4573 22.5945 17.1921L20.8389 16.2342ZM11.7677 17.7131H21.7167V15.7131H11.7677V17.7131ZM13.1172 18.0881C13.1172 17.4185 12.9465 16.7858 12.6455 16.2342L10.8898 17.1921C11.0346 17.4573 11.1172 17.7616 11.1172 18.0881H13.1172ZM9.24219 21.9631C11.3823 21.9631 13.1172 20.2282 13.1172 18.0881H11.1172C11.1172 19.1236 10.2777 19.9631 9.24219 19.9631V21.9631ZM5.36719 18.0881C5.36719 20.2282 7.10208 21.9631 9.24219 21.9631V19.9631C8.20665 19.9631 7.36719 19.1236 7.36719 18.0881H5.36719ZM5.83885 16.2342C5.53785 16.7858 5.36719 17.4185 5.36719 18.0881H7.36719C7.36719 17.7616 7.44982 17.4573 7.59453 17.1921L5.83885 16.2342ZM5.86719 17.7131H6.71669V15.7131H5.86719V17.7131ZM6.86719 26.3473V16.7131H4.86719V26.3473H6.86719ZM6.92599 25.8038L6.36709 25.4812L5.36728 27.2134L5.92618 27.536L6.92599 25.8038ZM5.36719 26.0881C5.36719 26.3554 5.39441 26.6175 5.44656 26.8712L7.40561 26.4686C7.38053 26.3466 7.36719 26.2194 7.36719 26.0881H5.36719ZM9.24219 22.2131C7.10208 22.2131 5.36719 23.948 5.36719 26.0881H7.36719C7.36719 25.0526 8.20665 24.2131 9.24219 24.2131V22.2131ZM13.1172 26.0881C13.1172 23.948 11.3823 22.2131 9.24219 22.2131V24.2131C10.2777 24.2131 11.1172 25.0526 11.1172 26.0881H13.1172ZM12.8089 27.6047C13.0077 27.1376 13.1172 26.6244 13.1172 26.0881H11.1172C11.1172 26.3503 11.0639 26.5975 10.9686 26.8215L12.8089 27.6047ZM21.5956 26.2131H11.8887V28.2131H21.5956V26.2131ZM22.5158 26.8215C22.4204 26.5975 22.3672 26.3503 22.3672 26.0881H20.3672C20.3672 26.6244 20.4767 27.1376 20.6755 27.6047L22.5158 26.8215ZM22.3672 26.0881C22.3672 25.0526 23.2067 24.2131 24.2422 24.2131V22.2131C22.1021 22.2131 20.3672 23.948 20.3672 26.0881H22.3672ZM24.2422 24.2131C25.2777 24.2131 26.1172 25.0526 26.1172 26.0881H28.1172C28.1172 23.948 26.3823 22.2131 24.2422 22.2131V24.2131ZM26.1172 26.0881C26.1172 26.1783 26.1109 26.2664 26.0989 26.3522L28.0795 26.6301C28.1044 26.4525 28.1172 26.2715 28.1172 26.0881H26.1172ZM26.6601 25.506L26.3821 25.784L27.7963 27.1982L28.0743 26.9202L26.6601 25.506ZM26.3672 16.7131V26.2131H28.3672V16.7131H26.3672ZM26.7677 17.7131H27.3672V15.7131H26.7677V17.7131ZM28.1172 18.0881C28.1172 17.4185 27.9465 16.7858 27.6455 16.2342L25.8898 17.1921C26.0346 17.4573 26.1172 17.7616 26.1172 18.0881H28.1172Z" fill="#0C2503"/>
</svg>
