<svg width="126" height="126" viewBox="0 0 126 126" fill="none" xmlns="http://www.w3.org/2000/svg">
<g style="mix-blend-mode:multiply" opacity="0.79">
<path fill-rule="evenodd" clip-rule="evenodd" d="M63.3895 125.586C97.935 125.586 125.94 97.5813 125.94 63.0358C125.94 28.4904 97.935 0.48584 63.3895 0.48584C28.844 0.48584 0.839355 28.4904 0.839355 63.0358C0.839355 97.5813 28.844 125.586 63.3895 125.586ZM63.3894 114.336C91.7217 114.336 114.69 91.3681 114.69 63.0358C114.69 34.7036 91.7217 11.7358 63.3894 11.7358C35.0572 11.7358 12.0893 34.7036 12.0893 63.0358C12.0893 91.3681 35.0572 114.336 63.3894 114.336Z" fill="#D1C9F7"/>
<path fill-rule="evenodd" clip-rule="evenodd" d="M63.3882 109.387C88.9866 109.387 109.738 88.6349 109.738 63.0365C109.738 37.4381 88.9866 16.6865 63.3882 16.6865C37.7897 16.6865 17.0381 37.4381 17.0381 63.0365C17.0381 88.6349 37.7897 109.387 63.3882 109.387ZM63.3875 101.05C84.3819 101.05 101.401 84.0303 101.401 63.0359C101.401 42.0415 84.3819 25.0222 63.3875 25.0222C42.3931 25.0222 25.3738 42.0415 25.3738 63.0359C25.3738 84.0303 42.3931 101.05 63.3875 101.05Z" fill="#D1C9F7"/>
<path fill-rule="evenodd" clip-rule="evenodd" d="M63.3875 96.3368C81.7786 96.3368 96.6875 81.4279 96.6875 63.0368C96.6875 44.6457 81.7786 29.7368 63.3875 29.7368C44.9963 29.7368 30.0874 44.6457 30.0874 63.0368C30.0874 81.4279 44.9963 96.3368 63.3875 96.3368ZM63.3879 90.3475C78.4713 90.3475 90.6987 78.12 90.6987 63.0367C90.6987 47.9533 78.4713 35.7259 63.3879 35.7259C48.3046 35.7259 36.0771 47.9533 36.0771 63.0367C36.0771 78.12 48.3046 90.3475 63.3879 90.3475Z" fill="#D1C9F7"/>
</g>
</svg>
